<svg width="68" height="32" viewBox="0 0 68 32" fill="none" xmlns="http://www.w3.org/2000/svg">
<rect x="0.800024" y="0.4" width="66.4" height="31.2" rx="4.4" stroke="#EDEEF3" stroke-width="0.8"/>
<path d="M11.3723 16.0912C11.3723 15.3296 11.5478 14.6464 11.8987 14.0416C12.2571 13.4368 12.7387 12.9664 13.3435 12.6304C13.9558 12.2869 14.6241 12.1152 15.3483 12.1152C16.1771 12.1152 16.9126 12.3205 17.5547 12.7312C18.2043 13.1344 18.6747 13.7093 18.9659 14.456H17.4315C17.2299 14.0453 16.9499 13.7392 16.5915 13.5376C16.2331 13.336 15.8187 13.2352 15.3483 13.2352C14.8331 13.2352 14.3739 13.3509 13.9707 13.5824C13.5675 13.8139 13.2502 14.1461 13.0187 14.5792C12.7947 15.0123 12.6827 15.5163 12.6827 16.0912C12.6827 16.6661 12.7947 17.1701 13.0187 17.6032C13.2502 18.0363 13.5675 18.3723 13.9707 18.6112C14.3739 18.8427 14.8331 18.9584 15.3483 18.9584C15.8187 18.9584 16.2331 18.8576 16.5915 18.656C16.9499 18.4544 17.2299 18.1483 17.4315 17.7376H18.9659C18.6747 18.4843 18.2043 19.0592 17.5547 19.4624C16.9126 19.8656 16.1771 20.0672 15.3483 20.0672C14.6166 20.0672 13.9483 19.8992 13.3435 19.5632C12.7387 19.2197 12.2571 18.7456 11.8987 18.1408C11.5478 17.536 11.3723 16.8528 11.3723 16.0912ZM21.7372 11.712V20H20.4604V11.712H21.7372ZM29.0696 16.7632C29.0696 16.9947 29.0546 17.2037 29.0248 17.3904H24.3096C24.3469 17.8832 24.5298 18.2789 24.8584 18.5776C25.1869 18.8763 25.5901 19.0256 26.068 19.0256C26.7549 19.0256 27.2402 18.7381 27.524 18.1632H28.9016C28.7149 18.7307 28.3752 19.1973 27.8824 19.5632C27.397 19.9216 26.7922 20.1008 26.068 20.1008C25.4781 20.1008 24.948 19.9701 24.4776 19.7088C24.0146 19.44 23.6488 19.0667 23.38 18.5888C23.1186 18.1035 22.988 17.5435 22.988 16.9088C22.988 16.2741 23.1149 15.7179 23.3688 15.24C23.6301 14.7547 23.9922 14.3813 24.4552 14.12C24.9256 13.8587 25.4632 13.728 26.068 13.728C26.6504 13.728 27.1693 13.8549 27.6248 14.1088C28.0802 14.3627 28.4349 14.7211 28.6888 15.184C28.9426 15.6395 29.0696 16.1659 29.0696 16.7632ZM27.7368 16.36C27.7293 15.8896 27.5613 15.5125 27.2328 15.2288C26.9042 14.9451 26.4973 14.8032 26.012 14.8032C25.5714 14.8032 25.1944 14.9451 24.8808 15.2288C24.5672 15.5051 24.3805 15.8821 24.3208 16.36H27.7368ZM29.9005 16.8864C29.9005 16.2667 30.0274 15.7179 30.2813 15.24C30.5426 14.7621 30.8935 14.3925 31.3341 14.1312C31.7821 13.8624 32.2749 13.728 32.8125 13.728C33.2978 13.728 33.7197 13.8251 34.0781 14.0192C34.4439 14.2059 34.7351 14.4411 34.9517 14.7248V13.8288H36.2397V20H34.9517V19.0816C34.7351 19.3728 34.4402 19.6155 34.0669 19.8096C33.6935 20.0037 33.2679 20.1008 32.7901 20.1008C32.2599 20.1008 31.7746 19.9664 31.3341 19.6976C30.8935 19.4213 30.5426 19.0405 30.2813 18.5552C30.0274 18.0624 29.9005 17.5061 29.9005 16.8864ZM34.9517 16.9088C34.9517 16.4832 34.8621 16.1136 34.6829 15.8C34.5111 15.4864 34.2834 15.2475 33.9997 15.0832C33.7159 14.9189 33.4098 14.8368 33.0813 14.8368C32.7527 14.8368 32.4466 14.9189 32.1629 15.0832C31.8791 15.24 31.6477 15.4752 31.4685 15.7888C31.2967 16.0949 31.2109 16.4608 31.2109 16.8864C31.2109 17.312 31.2967 17.6853 31.4685 18.0064C31.6477 18.3275 31.8791 18.5739 32.1629 18.7456C32.4541 18.9099 32.7602 18.992 33.0813 18.992C33.4098 18.992 33.7159 18.9099 33.9997 18.7456C34.2834 18.5813 34.5111 18.3424 34.6829 18.0288C34.8621 17.7077 34.9517 17.3344 34.9517 16.9088ZM39.1935 14.7248C39.3802 14.4112 39.6266 14.1685 39.9327 13.9968C40.2463 13.8176 40.6159 13.728 41.0415 13.728V15.0496H40.7167C40.2164 15.0496 39.8356 15.1765 39.5743 15.4304C39.3204 15.6843 39.1935 16.1248 39.1935 16.752V20H37.9167V13.8288H39.1935V14.7248ZM49.8173 18.4096H46.5581L45.9981 20H44.6653L47.4541 12.2048H48.9325L51.7213 20H50.3773L49.8173 18.4096ZM49.4589 17.368L48.1933 13.7504L46.9165 17.368H49.4589ZM54.2107 11.712V20H52.9339V11.712H54.2107ZM57.1638 11.712V20H55.887V11.712H57.1638Z" fill="#1C1C1C"/>
</svg>
