<svg width="62" height="32" viewBox="0 0 62 32" fill="none" xmlns="http://www.w3.org/2000/svg">
<rect x="0.4" y="0.4" width="60.6" height="31.2" rx="4.4" stroke="#EDEEF3" stroke-width="0.8"/>
<path d="M10.9505 11.1968H20.6609V12.1936H16.3265V12.9664H19.7537V17.5696H16.1697C16.0465 18.2192 15.8561 18.7456 15.5985 19.16C17.1441 19.7648 18.9473 20.0896 21.0305 20.1568L20.7617 21.1872C18.5217 21.0864 16.5729 20.672 14.9153 19.9328C14.1089 20.56 12.8433 20.9744 11.1073 21.176L10.6481 20.2016C12.0817 20.112 13.1569 19.8544 13.8737 19.4176C13.2689 19.0816 12.7201 18.7008 12.2273 18.2864L13.0449 17.7264C13.5265 18.1072 14.0529 18.432 14.6129 18.7232C14.8145 18.4096 14.9825 18.0176 15.0945 17.5696H11.8801V12.9664H15.2737V12.1936H10.9505V11.1968ZM18.7009 16.64V15.688H16.3265V15.9568C16.3265 16.2032 16.3153 16.4272 16.2929 16.64H18.7009ZM15.2401 16.64C15.2625 16.416 15.2737 16.1808 15.2737 15.9568V15.688H12.9329V16.64H15.2401ZM12.9329 14.8144H15.2737V13.8736H12.9329V14.8144ZM16.3265 13.8736V14.8144H18.7009V13.8736H16.3265ZM26.8433 10.76L27.7953 11.2528C27.6385 11.4208 27.4929 11.5776 27.3473 11.7232H30.3377V12.552C29.1281 14.7024 26.8881 15.9232 23.6065 16.192L23.1585 15.2288C24.0993 15.1728 24.9393 15.0496 25.6785 14.848C25.3649 14.4672 25.0289 14.12 24.6929 13.8064L25.6113 13.3696C25.9809 13.728 26.3393 14.1088 26.6753 14.512C27.7057 14.0752 28.5233 13.4592 29.1169 12.664H26.1041C25.2305 13.1792 24.2113 13.56 23.0353 13.8176L22.4081 12.8432C24.3905 12.4848 25.8689 11.7904 26.8433 10.76ZM26.6641 17.76C27.0673 18.1632 27.4481 18.5888 27.8065 19.048C28.9041 18.5552 29.7889 17.8944 30.4385 17.0544H27.3697C26.3953 17.5024 25.2529 17.8608 23.9425 18.1184L23.3041 17.1664C25.7457 16.9312 27.5489 16.2144 28.6913 15.0048L29.5985 15.4976C29.3969 15.7104 29.1729 15.912 28.9489 16.0912H31.8049V16.92C30.2033 19.5408 27.2241 20.9072 22.8561 21.0192L22.4305 20C24.1217 20 25.5777 19.8096 26.7985 19.4288C26.4513 18.9808 26.0929 18.5664 25.7233 18.208L26.6641 17.76Z" fill="#1C1C1C"/>
<path d="M44.8029 10.4L42.0513 14.8694M41.7164 10.4H49.0838C49.6978 10.4 50.2001 10.9092 50.2001 11.5315V12.7761C50.2001 13.2287 49.921 13.7945 49.642 14.0773L47.242 16.2272C46.9071 16.51 46.6838 17.0758 46.6838 17.5284V19.9611C46.6838 20.3005 46.4606 20.7531 46.1815 20.9228L45.4001 21.432C44.6745 21.8846 43.6699 21.3754 43.6699 20.4702V17.4718C43.6699 17.0758 43.4466 16.5666 43.2234 16.2837L41.1024 14.0208C40.8234 13.7379 40.6001 13.2287 40.6001 12.8893V11.5881C40.6001 10.9092 41.1024 10.4 41.7164 10.4Z" stroke="#1C1C1C" stroke-width="1.2" stroke-miterlimit="10" stroke-linecap="round" stroke-linejoin="round"/>
</svg>
