<svg width="88" height="32" viewBox="0 0 88 32" fill="none" xmlns="http://www.w3.org/2000/svg">
<rect x="0.799902" y="0.4" width="86.4" height="31.2" rx="4.4" stroke="#EDEEF3" stroke-width="0.8"/>
<path d="M12.4576 10.9168C13.1184 11.3872 13.6784 11.8688 14.1488 12.3504L13.3872 13.112C12.984 12.6528 12.424 12.1712 11.696 11.656L12.4576 10.9168ZM12.1104 13.5936C12.8272 14.1312 13.432 14.68 13.9248 15.2288L13.1632 15.9792C12.7376 15.4752 12.1328 14.9264 11.3488 14.3328L12.1104 13.5936ZM12.9952 16.752L13.936 17.1104C13.5104 18.4992 13.0176 19.7984 12.48 21.008L11.4944 20.5712C12.0768 19.328 12.5696 18.0512 12.9952 16.752ZM17.296 10.816H18.3376V11.4544H21.216V12.328H18.3376V12.8656H20.7904V13.7168H18.3376V14.2768H21.5296V15.1504H14.1376V14.2768H17.296V13.7168H14.9552V12.8656H17.296V12.328H14.496V11.4544H17.296V10.816ZM16.0864 17.984V18.5888H19.5696V17.984H16.0864ZM19.5696 17.1776V16.5392H16.0864V17.1776H19.5696ZM16.0864 19.384V21.1536H15.0896V15.6768H20.5888V20.0448C20.5888 20.7392 20.2416 21.0864 19.5696 21.0864H18.528L18.2704 20.1456L19.2672 20.2016C19.4688 20.2016 19.5696 20.0672 19.5696 19.8208V19.384H16.0864ZM22.8064 11.1968H26.1888V12.0368C25.8976 13 25.5616 14.008 25.1584 15.0832C25.7632 16.1024 26.0992 16.9984 26.144 17.76C26.144 18.2864 26.0432 18.6672 25.8416 18.8912C25.528 19.1824 25.0016 19.328 24.2512 19.328L23.8928 18.2528C24.128 18.2864 24.3184 18.3088 24.4752 18.3088C24.7104 18.2864 24.8672 18.2416 24.9568 18.1744C25.0352 18.0848 25.08 17.9504 25.08 17.76C25.08 17.0096 24.744 16.1696 24.0832 15.24C24.52 14.12 24.8672 13.1008 25.1136 12.1936H23.848V21.1648H22.8064V11.1968ZM28.9552 21.0416H27.8464L27.6112 20.0112C27.9472 20.0448 28.272 20.0672 28.5856 20.0672C28.7648 20.0672 28.8656 19.9328 28.8656 19.6864V16.864H26.3344V15.8336H28.8656V14.7584H27.4768V14.0528C27.1632 14.2992 26.8384 14.5344 26.5024 14.7472L25.8976 13.8512C27.1296 13.1008 28.1152 12.1376 28.8768 10.9728H29.9072C30.568 12.104 31.5536 13.0448 32.8752 13.8064L32.248 14.7136C31.8672 14.4896 31.5312 14.2544 31.2176 14.008V14.7584H29.9408V15.8336H32.36V16.864H29.9408V19.9552C29.9408 20.672 29.6048 21.0416 28.9552 21.0416ZM27.8128 13.7616H30.9264C30.3216 13.2464 29.8176 12.6528 29.392 11.9808C28.9216 12.6528 28.3952 13.2464 27.8128 13.7616ZM31.2288 17.4688C31.8112 18.376 32.2592 19.1712 32.584 19.8432L31.688 20.448C31.3744 19.7088 30.9376 18.8912 30.4 17.984L31.2288 17.4688ZM27.2752 17.5136L28.1936 17.9616C27.7568 18.936 27.2416 19.7872 26.6592 20.504L25.7744 19.8768C26.3568 19.216 26.8496 18.432 27.2752 17.5136ZM35.5856 12.5296C35.3168 13.0224 35.0144 13.4704 34.6784 13.8736L33.76 13.3136C34.432 12.5184 34.9248 11.6672 35.216 10.7712L36.2352 10.9952C36.168 11.1968 36.0896 11.3872 36.0224 11.5776H38.7888V12.5296H37.5232C37.7136 12.776 37.8704 13.0224 38.0048 13.2576L37.0192 13.6272C36.84 13.2464 36.6272 12.888 36.3808 12.5296H35.5856ZM40.4352 12.5296C40.2112 12.9552 39.9536 13.3472 39.6736 13.7056L38.7776 13.1344C39.36 12.4176 39.7744 11.6448 40.0208 10.8272L41.0512 11.04C40.984 11.2192 40.928 11.3984 40.8608 11.5776H43.8848V12.5296H42.3728C42.5744 12.7872 42.7424 13.0336 42.8768 13.2688L41.9024 13.6384C41.7008 13.2576 41.4768 12.888 41.2304 12.5296H40.4352ZM36.1008 13.8064H37.12V16.7296C37.0976 18.7456 36.4816 20.224 35.2608 21.1536L34.4768 20.4704C35.5296 19.6864 36.0784 18.4432 36.1008 16.7296V13.8064ZM34.2192 14.7808H35.2384V18.5104H34.2192V14.7808ZM40.1888 14.8704H37.6352V13.896H43.7728V14.8704H41.1968V15.7104H43.3584V18.9248C43.3584 19.6528 43.0112 20.0224 42.328 20.0224H41.7344L41.4768 19.0816L42.0144 19.1152C42.2608 19.1152 42.384 18.9808 42.384 18.712V16.64H41.1968V21.1872H40.1888V16.64H39.0464V20.1232H38.0944V15.7104H40.1888V14.8704ZM45.912 10.928C46.6512 11.5216 47.2672 12.1152 47.7712 12.6976L47.0208 13.4368C46.5952 12.8768 45.9792 12.272 45.184 11.6224L45.912 10.928ZM52.3296 20.9632C51.7248 20.9632 51.0528 20.952 50.336 20.9408C49.608 20.9296 49.0144 20.8624 48.5552 20.7504C48.1072 20.616 47.7152 20.3472 47.3792 19.9664C47.2224 19.776 47.0768 19.6864 46.9536 19.6864C46.7072 19.6864 46.304 20.1904 45.7328 21.2096L44.9488 20.4816C45.5088 19.5632 46.024 18.992 46.472 18.768V15.5984H44.9712V14.6128H47.4688V18.8576C47.5136 18.9024 47.5696 18.9472 47.6256 19.0144C47.8944 19.3168 48.1632 19.5408 48.432 19.6864C48.768 19.8432 49.2608 19.944 49.9328 19.9664C50.56 19.9776 51.3104 19.9888 52.184 19.9888C52.7328 19.9888 53.2928 19.9776 53.864 19.9664C54.424 19.9552 54.8608 19.9328 55.1744 19.9104L54.9056 20.9632H52.3296ZM51.2544 10.7824H52.2848V12.1264H54.4352V13.1456H52.2848V14.5344H54.8272V15.5536H53.0128V18.2976C53.0128 18.4768 53.1248 18.5776 53.3488 18.5776H53.5952C53.7072 18.5776 53.808 18.5328 53.8864 18.4656C53.976 18.3872 54.0432 17.9728 54.0768 17.2112L55.0064 17.5248C54.9168 18.488 54.7936 19.0592 54.6368 19.2272C54.48 19.384 54.2112 19.4736 53.8192 19.4848H53.024C52.688 19.4848 52.4416 19.3952 52.2736 19.2272C52.0944 19.0368 52.016 18.8016 52.016 18.5328V15.5536H51.0864C51.0416 16.2816 50.9296 16.92 50.7392 17.4576C50.448 18.3088 49.776 19.0032 48.7232 19.5632L48.0288 18.7344C48.9136 18.2976 49.496 17.76 49.7648 17.1216C49.9328 16.696 50.0336 16.1696 50.0784 15.5536H48.3648V14.5344H51.2544V13.1456H49.6192C49.4176 13.5264 49.216 13.8848 48.992 14.2208L48.0736 13.6496C48.6784 12.8096 49.104 11.9136 49.3616 10.9616L50.3808 11.1632C50.28 11.4992 50.1792 11.824 50.0672 12.1264H51.2544V10.7824ZM56.9664 16.6736H60.696V15.744H61.7712V16.6736H65.4V17.6816H61.7712V19.9664C61.7712 20.728 61.3792 21.12 60.5952 21.12H59.3632L59.1168 20.1008C59.5088 20.1456 59.8784 20.168 60.2256 20.168C60.5392 20.168 60.696 20.0112 60.696 19.6976V17.6816H56.9664V16.6736ZM58.7472 18.1968L59.4864 18.8464C58.792 19.6416 57.952 20.336 56.9552 20.9296L56.2608 20.0224C57.2464 19.5072 58.0752 18.8912 58.7472 18.1968ZM65.1872 20.8848C64.448 20.1344 63.6304 19.44 62.7344 18.7904L63.4176 18.1296C64.1344 18.5664 64.9744 19.2272 65.96 20.112L65.1872 20.8848ZM59.5984 10.7152L60.6288 10.9392C60.4832 11.1632 60.3376 11.376 60.192 11.5888H64.4256V12.4064C63.8208 13.1344 63.104 13.7728 62.2752 14.3104C63.44 14.7584 64.7952 15.072 66.352 15.2624L65.8592 16.2368C64.056 15.9792 62.5104 15.5424 61.2224 14.9152C59.9008 15.5872 58.3328 16.0688 56.5296 16.36L56.0592 15.408C57.616 15.1952 58.9824 14.8368 60.1696 14.344C59.632 14.008 59.1616 13.6496 58.736 13.2464C58.3104 13.6272 57.8624 13.9744 57.392 14.288L56.7088 13.4704C57.8288 12.7984 58.792 11.88 59.5984 10.7152ZM59.3856 12.5856C59.9008 13.0672 60.5056 13.4816 61.2112 13.84C61.9056 13.4592 62.5328 13.0224 63.0704 12.5296H59.4416L59.3856 12.5856ZM69.6112 10.7264L70.608 11.1856C70.328 12.0704 69.9584 12.9104 69.5104 13.6944V21.1536H68.4688V15.24C68.1552 15.6432 67.8192 16.024 67.472 16.3936L67.1248 15.2624C68.2448 13.9632 69.0736 12.4512 69.6112 10.7264ZM71.4928 11.5328L72.5344 11.6672C72.4448 12.1712 72.344 12.6528 72.2208 13.1008H73.5648V10.8608H74.6288V13.1008H77.104V14.1424H74.6288V16.5504H77.5184V17.5808H74.6288V21.1088H73.5648V17.5808H70.384V16.5504H73.5648V14.1424H71.8736C71.5936 14.848 71.2576 15.4864 70.8544 16.0688L70.1712 15.184C70.8208 14.1872 71.2688 12.9664 71.4928 11.5328Z" fill="#1C1C1C"/>
</svg>
