<svg width="79" height="32" viewBox="0 0 79 32" fill="none" xmlns="http://www.w3.org/2000/svg">
<rect x="1.20005" y="0.4" width="77.4" height="31.2" rx="4.4" stroke="#EDEEF3" stroke-width="0.8"/>
<path d="M19.4759 12.216V20H18.1991V14.6688L15.8247 20H14.9399L12.5543 14.6688V20H11.2775V12.216H12.6551L15.3879 18.32L18.1095 12.216H19.4759ZM26.8101 16.7632C26.8101 16.9947 26.7952 17.2037 26.7653 17.3904H22.0501C22.0874 17.8832 22.2704 18.2789 22.5989 18.5776C22.9274 18.8763 23.3306 19.0256 23.8085 19.0256C24.4954 19.0256 24.9808 18.7381 25.2645 18.1632H26.6421C26.4554 18.7307 26.1157 19.1973 25.6229 19.5632C25.1376 19.9216 24.5328 20.1008 23.8085 20.1008C23.2186 20.1008 22.6885 19.9701 22.2181 19.7088C21.7552 19.44 21.3893 19.0667 21.1205 18.5888C20.8592 18.1035 20.7285 17.5435 20.7285 16.9088C20.7285 16.2741 20.8554 15.7179 21.1093 15.24C21.3706 14.7547 21.7328 14.3813 22.1957 14.12C22.6661 13.8587 23.2037 13.728 23.8085 13.728C24.3909 13.728 24.9098 13.8549 25.3653 14.1088C25.8208 14.3627 26.1754 14.7211 26.4293 15.184C26.6832 15.6395 26.8101 16.1659 26.8101 16.7632ZM25.4773 16.36C25.4698 15.8896 25.3018 15.5125 24.9733 15.2288C24.6448 14.9451 24.2378 14.8032 23.7525 14.8032C23.312 14.8032 22.9349 14.9451 22.6213 15.2288C22.3077 15.5051 22.121 15.8821 22.0613 16.36H25.4773ZM29.5562 14.8704V18.2864C29.5562 18.5179 29.6085 18.6859 29.713 18.7904C29.825 18.8875 30.0117 18.936 30.273 18.936H31.057V20H30.049C29.4741 20 29.0335 19.8656 28.7274 19.5968C28.4213 19.328 28.2682 18.8912 28.2682 18.2864V14.8704H27.5402V13.8288H28.2682V12.2944H29.5562V13.8288H31.057V14.8704H29.5562ZM35.4258 13.728C35.8962 13.728 36.3143 13.8288 36.6802 14.0304C37.0535 14.232 37.3447 14.5307 37.5538 14.9264C37.7703 15.3221 37.8786 15.8 37.8786 16.36V20H36.613V16.5504C36.613 15.9979 36.4748 15.576 36.1986 15.2848C35.9223 14.9861 35.5452 14.8368 35.0674 14.8368C34.5895 14.8368 34.2087 14.9861 33.925 15.2848C33.6487 15.576 33.5106 15.9979 33.5106 16.5504V20H32.2338V11.712H33.5106V14.5456C33.7271 14.2843 33.9996 14.0827 34.3282 13.9408C34.6642 13.7989 35.03 13.728 35.4258 13.728ZM42.184 20.1008C41.6016 20.1008 41.0752 19.9701 40.6048 19.7088C40.1344 19.44 39.7648 19.0667 39.496 18.5888C39.2272 18.1035 39.0928 17.5435 39.0928 16.9088C39.0928 16.2816 39.2309 15.7253 39.5072 15.24C39.7835 14.7547 40.1605 14.3813 40.6384 14.12C41.1163 13.8587 41.6501 13.728 42.24 13.728C42.8299 13.728 43.3637 13.8587 43.8416 14.12C44.3195 14.3813 44.6965 14.7547 44.9728 15.24C45.2491 15.7253 45.3872 16.2816 45.3872 16.9088C45.3872 17.536 45.2453 18.0923 44.9616 18.5776C44.6779 19.0629 44.2896 19.44 43.7968 19.7088C43.3115 19.9701 42.7739 20.1008 42.184 20.1008ZM42.184 18.992C42.5125 18.992 42.8187 18.9136 43.1024 18.7568C43.3936 18.6 43.6288 18.3648 43.808 18.0512C43.9872 17.7376 44.0768 17.3568 44.0768 16.9088C44.0768 16.4608 43.9909 16.0837 43.8192 15.7776C43.6475 15.464 43.4197 15.2288 43.136 15.072C42.8523 14.9152 42.5461 14.8368 42.2176 14.8368C41.8891 14.8368 41.5829 14.9152 41.2992 15.072C41.0229 15.2288 40.8027 15.464 40.6384 15.7776C40.4741 16.0837 40.392 16.4608 40.392 16.9088C40.392 17.5733 40.56 18.0885 40.896 18.4544C41.2395 18.8128 41.6688 18.992 42.184 18.992ZM46.2238 16.8864C46.2238 16.2667 46.3507 15.7179 46.6046 15.24C46.8659 14.7621 47.2169 14.3925 47.6574 14.1312C48.1054 13.8624 48.6019 13.728 49.147 13.728C49.5502 13.728 49.9459 13.8176 50.3342 13.9968C50.7299 14.1685 51.0435 14.4 51.275 14.6912V11.712H52.563V20H51.275V19.0704C51.0659 19.3691 50.7747 19.6155 50.4014 19.8096C50.0355 20.0037 49.6137 20.1008 49.1358 20.1008C48.5982 20.1008 48.1054 19.9664 47.6574 19.6976C47.2169 19.4213 46.8659 19.0405 46.6046 18.5552C46.3507 18.0624 46.2238 17.5061 46.2238 16.8864ZM51.275 16.9088C51.275 16.4832 51.1854 16.1136 51.0062 15.8C50.8345 15.4864 50.6067 15.2475 50.323 15.0832C50.0393 14.9189 49.7331 14.8368 49.4046 14.8368C49.0761 14.8368 48.7699 14.9189 48.4862 15.0832C48.2025 15.24 47.971 15.4752 47.7918 15.7888C47.6201 16.0949 47.5342 16.4608 47.5342 16.8864C47.5342 17.312 47.6201 17.6853 47.7918 18.0064C47.971 18.3275 48.2025 18.5739 48.4862 18.7456C48.7774 18.9099 49.0835 18.992 49.4046 18.992C49.7331 18.992 50.0393 18.9099 50.323 18.7456C50.6067 18.5813 50.8345 18.3424 51.0062 18.0288C51.1854 17.7077 51.275 17.3344 51.275 16.9088Z" fill="#1C1C1C"/>
<rect x="59.8" y="11.2" width="9.6" height="9.6" fill="#D8D8D8" fill-opacity="0.01"/>
<path d="M61 14.4L64.6 18L68.2 14.4" stroke="#73798B" stroke-width="1.6" stroke-linecap="round" stroke-linejoin="round"/>
</svg>
