<svg width="59" height="32" viewBox="0 0 59 32" fill="none" xmlns="http://www.w3.org/2000/svg">
<rect x="1.20005" y="0.4" width="57.4" height="31.2" rx="4.4" stroke="#EDEEF3" stroke-width="0.8"/>
<path d="M11.6495 12.384H16.3647C16.1519 11.9472 15.9055 11.5328 15.6143 11.1296L16.6223 10.76C16.9247 11.2192 17.2047 11.7568 17.4511 12.384H21.6063V13.4144H15.7823L15.6927 15.1728H20.3071C20.2735 17.5808 20.1727 19.0928 19.9935 19.7088C19.7471 20.6048 19.1871 21.064 18.3023 21.0864C17.9439 21.0864 17.5071 21.064 17.0143 21.0304L16.7007 20.0672C17.2943 20.0896 17.7983 20.112 18.2015 20.112C18.6719 20.0896 18.9743 19.7536 19.1087 19.0816C19.1759 18.7008 19.2095 17.7264 19.2319 16.1808H15.5695C15.4127 17.0432 15.1439 17.8384 14.7407 18.5552C14.1919 19.5184 13.4191 20.4032 12.4335 21.2096L11.6607 20.4704C12.8479 19.4736 13.6319 18.5552 14.0127 17.704C14.3935 16.8528 14.6063 15.9008 14.6623 14.848C14.6847 14.232 14.7071 13.7504 14.7295 13.4144H11.6495V12.384ZM28.5951 10.8384H29.6703V12.5296H32.4591V13.56H29.6703V15.408H32.7615V16.4384H29.1215C28.4831 17.9392 27.9231 19.048 27.4303 19.7648C28.6623 19.6304 29.8831 19.4288 31.0927 19.1824C30.8015 18.5776 30.4991 18.0176 30.1967 17.5024L31.2271 17.1664C31.8879 18.2864 32.4703 19.4736 32.9631 20.7504L31.9551 21.1984C31.8095 20.8176 31.6639 20.448 31.5183 20.112C29.8495 20.4368 28.0351 20.6944 26.0751 20.896L25.8287 19.9664C25.9183 19.9328 25.9967 19.8992 26.0527 19.8656C26.5455 19.4288 27.1839 18.2864 27.9679 16.4384H25.4927V15.408H28.5951V13.56H26.0303V12.5296H28.5951V10.8384ZM23.7343 10.928C24.4511 11.488 25.0559 12.0368 25.5599 12.5856L24.7983 13.3584C24.3727 12.832 23.7567 12.272 22.9615 11.6672L23.7343 10.928ZM23.4543 13.5488C24.1151 14.1088 24.6751 14.6688 25.1455 15.2288L24.3727 15.9904C23.9807 15.464 23.4207 14.8928 22.6927 14.288L23.4543 13.5488ZM24.5407 16.7072L25.5039 17.0992C25.0223 18.4992 24.4847 19.8208 23.9023 21.064L22.8383 20.5936C23.4879 19.328 24.0591 18.0288 24.5407 16.7072Z" fill="#1C1C1C"/>
<rect x="39.7998" y="11.2" width="9.6" height="9.6" fill="#D8D8D8" fill-opacity="0.01"/>
<path d="M40.9998 14.4L44.5998 18L48.1998 14.4" stroke="#73798B" stroke-width="1.6" stroke-linecap="round" stroke-linejoin="round"/>
</svg>
