<svg width="65" height="32" viewBox="0 0 65 32" fill="none" xmlns="http://www.w3.org/2000/svg">
<rect x="1.1998" y="0.4" width="63.4" height="31.2" rx="4.4" stroke="#EDEEF3" stroke-width="0.8"/>
<path d="M12.2239 14.0752H15.6511V13.5264H11.3727V12.6304H15.6511V12.0144C14.5759 12.0704 13.4447 12.1152 12.2575 12.16L12.0783 11.3088C14.9903 11.2192 17.5663 11.0624 19.8175 10.8384L20.1423 11.7008C19.0783 11.7904 17.9359 11.88 16.7151 11.9584V12.6304H21.0159V13.5264H16.7151V14.0752H20.1535V17.928H16.7151V18.5216H20.6239V19.3616H16.7151V20H21.1839V20.9072H11.2159V20H15.6511V19.3616H11.7759V18.5216H15.6511V17.928H12.2239V14.0752ZM19.1231 17.088V16.3936H16.7151V17.088H19.1231ZM15.6511 17.088V16.3936H13.2431V17.088H15.6511ZM13.2431 15.5872H15.6511V14.9152H13.2431V15.5872ZM16.7151 14.9152V15.5872H19.1231V14.9152H16.7151ZM31.8015 10.9056L32.3167 11.8464C31.3535 12.1824 30.2895 12.384 29.1247 12.4624V14.2768H32.5855V15.296H31.5103V21.1648H30.4687V15.296H29.1247V16.4272C29.0687 18.3984 28.6319 19.9664 27.8143 21.1424L27.0639 20.336C27.7023 19.3952 28.0495 18.096 28.0943 16.4272V11.5888C29.4719 11.5664 30.7039 11.3312 31.8015 10.9056ZM22.4495 11.7008H24.4431C24.3087 11.4096 24.1519 11.1296 23.9839 10.872L25.0815 10.6928C25.2159 10.9952 25.3615 11.3312 25.4959 11.7008H27.5679V12.6864H22.4495V11.7008ZM22.3375 14.2432H23.5247C23.3791 13.8512 23.2111 13.4816 23.0207 13.1456L23.9503 12.7984C24.1295 13.2016 24.3087 13.6832 24.4655 14.2432H25.5295C25.7087 13.7728 25.8655 13.2912 25.9999 12.7872L26.9519 13.1232C26.8175 13.5376 26.6607 13.9072 26.4927 14.2432H27.6351V15.2176H25.5631V16.2256H27.4447V17.1888H25.5631V20.1904C25.5631 20.8624 25.1935 21.1984 24.4543 21.1984H23.8719L23.6367 20.2128C23.8047 20.2576 23.9615 20.28 24.1071 20.28C24.3759 20.28 24.5103 20.168 24.5103 19.944V17.1888H22.5167V16.2256H24.5103V15.2176H22.3375V14.2432ZM23.1887 17.6816L24.1519 17.8832C23.8831 19.0144 23.5135 20 23.0207 20.84L22.1471 20.28C22.6399 19.4736 22.9871 18.6 23.1887 17.6816ZM26.6943 17.6032C26.9855 18.32 27.2207 18.9696 27.3887 19.552L26.4927 19.888C26.3135 19.1936 26.0895 18.5104 25.8207 17.8384L26.6943 17.6032ZM34.1535 14.4112L35.0383 11.1408L36.1023 11.32L35.5199 13.392H37.1775C37.3903 12.5632 37.5583 11.6896 37.6927 10.7712L38.7791 10.9056C38.6447 11.7904 38.4767 12.6192 38.2863 13.392H43.4159V14.4112H38.0175C37.9055 14.7808 37.7823 15.128 37.6703 15.464H42.1503V16.36C41.8591 17.2784 41.3103 18.1072 40.4815 18.8464C41.3327 19.3168 42.3631 19.7536 43.5615 20.1568L43.0127 21.1648C41.6575 20.672 40.5151 20.1232 39.5967 19.5408C38.7119 20.1568 37.6255 20.7168 36.3375 21.2208L35.7775 20.2128C36.8975 19.8096 37.8607 19.3616 38.6559 18.88C37.9279 18.2976 37.3791 17.6704 37.0207 17.0096C36.2143 18.6672 35.1951 19.9888 33.9743 20.9744L33.4255 19.9888C34.9711 18.6224 36.1247 16.7632 36.8863 14.4112H34.1535ZM37.7935 16.4272C38.1631 17.088 38.7455 17.704 39.5407 18.264C40.2463 17.6928 40.7615 17.0768 41.0751 16.4272H37.7935ZM40.6607 10.7824C41.4335 11.3648 42.0831 11.9584 42.6095 12.552L41.8479 13.3136C41.3999 12.7312 40.7727 12.1264 39.9439 11.488L40.6607 10.7824ZM45.7231 10.928C46.4735 11.5104 47.1119 12.0928 47.6271 12.6752L46.8543 13.4368C46.4175 12.8768 45.7903 12.2832 44.9839 11.6336L45.7231 10.928ZM52.1519 20.9632C51.5359 20.9632 50.8639 20.952 50.1471 20.9408C49.4191 20.9296 48.8255 20.8624 48.3551 20.7504C47.9071 20.616 47.5151 20.3472 47.1791 19.9664C47.0223 19.776 46.8879 19.6864 46.7535 19.6864C46.5183 19.6864 46.1151 20.1904 45.5439 21.1984L44.7599 20.4704C45.3199 19.5632 45.8239 18.992 46.2719 18.768V15.5984H44.7711V14.6128H47.2687V18.8464C47.3247 18.8912 47.3807 18.9472 47.4367 19.0144C47.6943 19.3168 47.9631 19.5408 48.2431 19.6864C48.5791 19.8432 49.0719 19.944 49.7327 19.9664C50.3711 19.9776 51.1215 19.9888 51.9951 19.9888C52.5439 19.9888 53.1039 19.9776 53.6639 19.9664C54.2239 19.9552 54.6607 19.9328 54.9631 19.9104L54.7055 20.9632H52.1519ZM48.1535 15.1392H50.7855C50.8527 14.7248 50.8863 14.2544 50.8975 13.728H48.5343V12.7424H49.8559C49.5647 12.2048 49.2511 11.7232 48.9151 11.2976L49.8671 10.8384C50.2031 11.32 50.5279 11.8464 50.8303 12.4288L50.2031 12.7424H51.9055C52.2191 12.1152 52.4991 11.4544 52.7455 10.7376L53.7535 11.0848C53.5183 11.7008 53.2607 12.2496 52.9807 12.7424H54.2575V13.728H51.9391C51.9279 14.2544 51.8943 14.7248 51.8495 15.1392H54.6383V16.1472H51.6479C51.3119 17.4464 50.3375 18.544 48.7247 19.4176L48.0527 18.5664C49.3295 17.9392 50.1583 17.1328 50.5279 16.1472H48.1535V15.1392ZM52.2079 16.6736C53.1039 17.2784 53.9103 17.9392 54.6383 18.6448L53.8991 19.4512C53.1599 18.656 52.3871 17.9616 51.5807 17.3792L52.2079 16.6736Z" fill="#1C1C1C"/>
</svg>
