<svg width="95" height="32" viewBox="0 0 95 32" fill="none" xmlns="http://www.w3.org/2000/svg">
<path d="M63.1998 0.4H89.9998C92.4299 0.4 94.3998 2.36995 94.3998 4.8V27.2C94.3998 29.6301 92.4299 31.6 89.9998 31.6H63.1998V0.4Z" stroke="#EDEEF3" stroke-width="0.8"/>
<path d="M79.8143 17.2645H81.4818C81.735 17.2645 81.9326 17.0718 81.9326 16.8249C81.9326 16.5781 81.735 16.3854 81.4818 16.3854H79.8143C79.5611 16.3854 79.3635 16.5781 79.3635 16.8249C79.3666 17.0718 79.5642 17.2645 79.8143 17.2645ZM79.8143 19.0168H81.4818C81.735 19.0168 81.9326 18.8241 81.9326 18.5772C81.9326 18.3303 81.735 18.1376 81.4818 18.1376H79.8143C79.5611 18.1376 79.3635 18.3303 79.3635 18.5772C79.3666 18.8241 79.5642 19.0168 79.8143 19.0168ZM82.6089 11.2791H81.4262V10.8396C81.4262 10.5927 81.2286 10.4 80.9754 10.4C80.7222 10.4 80.5245 10.5927 80.5245 10.8396V11.2791H76.9302V10.8396C76.9302 10.5927 76.7325 10.4 76.4793 10.4C76.2261 10.4 76.0285 10.5927 76.0285 10.8396V11.2791H74.9971C74.009 11.2791 73.2 12.068 73.2 13.0314V19.8477C73.2 20.8112 74.009 21.6 74.9971 21.6H82.6027C83.5908 21.6 84.3999 20.8112 84.3999 19.8477V13.0314C84.4061 12.068 83.597 11.2791 82.6089 11.2791ZM83.5075 19.8477C83.5075 20.3295 83.103 20.7239 82.6089 20.7239H75.0002C74.5061 20.7239 74.1016 20.3295 74.1016 19.8477V14.7836H83.5075V19.8477ZM83.5075 13.9075H74.1016V13.0314C74.1016 12.5497 74.5061 12.1553 75.0002 12.1553H76.0316V12.5948C76.0316 12.8417 76.2292 13.0344 76.4824 13.0344C76.7356 13.0344 76.9333 12.8417 76.9333 12.5948V12.1553H80.5307V12.5948C80.5307 12.8417 80.7283 13.0344 80.9815 13.0344C81.2348 13.0344 81.4324 12.8417 81.4324 12.5948V12.1553H82.6151C83.1091 12.1553 83.5136 12.5497 83.5136 13.0314V13.9075H83.5075ZM75.8895 19.0168H77.557C77.8102 19.0168 78.0079 18.8241 78.0079 18.5772C78.0079 18.3303 77.8102 18.1376 77.557 18.1376H75.8895C75.6363 18.1376 75.4387 18.3303 75.4387 18.5772C75.4387 18.8241 75.6363 19.0168 75.8895 19.0168ZM75.8895 17.2645H77.557C77.8102 17.2645 78.0079 17.0718 78.0079 16.8249C78.0079 16.5781 77.8102 16.3854 77.557 16.3854H75.8895C75.6363 16.3854 75.4387 16.5781 75.4387 16.8249C75.4387 17.0718 75.6363 17.2645 75.8895 17.2645Z" fill="#73798B"/>
<path d="M0.799902 4.8C0.799902 2.36995 2.76985 0.4 5.1999 0.4H63.1999V31.6H5.19991C2.76985 31.6 0.799902 29.6301 0.799902 27.2V4.8Z" stroke="#EDEEF3" stroke-width="0.8"/>
<path d="M14.8222 11.5888V19.9776H13.7918V19.2832H12.4478V20.2464H11.4062V11.5888H14.8222ZM12.4478 18.2976H13.7918V15.8672H12.4478V18.2976ZM12.4478 14.8704H13.7918V12.552H12.4478V14.8704ZM16.5022 14.9712C17.1854 16.0128 17.7118 16.92 18.0702 17.704L17.1854 18.32C16.7934 17.4912 16.267 16.5504 15.6174 15.52L16.5022 14.9712ZM18.9438 21.0416H16.9614L16.7262 20.0112C17.3758 20.0448 17.9918 20.0672 18.5854 20.0672C18.8542 20.0672 18.9886 19.9216 18.9886 19.6304V13.8064H15.259V12.7872H18.9886V10.9056H20.075V12.7872H21.3294V13.8064H20.075V19.8992C20.075 20.6608 19.6942 21.0416 18.9438 21.0416ZM25.1262 13.784H29.5838V19.2048H25.1262V13.784ZM28.5982 18.264V16.9536H26.123V18.264H28.5982ZM26.123 16.0352H28.5982V14.7248H26.123V16.0352ZM30.7262 21.064H29.8078L29.539 20.0672L30.5022 20.0896C30.8046 20.0896 30.9614 19.8768 30.9614 19.4736V12.2832H26.739V11.3088H31.9918V19.7648C31.9918 20.6272 31.5662 21.064 30.7262 21.064ZM22.7854 12.6752H23.8158V21.1648H22.7854V12.6752ZM24.6558 10.704C25.171 11.3088 25.6302 11.9808 26.0222 12.6976L25.059 13.2016C24.6446 12.4176 24.1854 11.7344 23.6926 11.1296L24.6558 10.704Z" fill="#1C1C1C"/>
<rect x="39.3997" y="11.2" width="9.6" height="9.6" fill="#D8D8D8" fill-opacity="0.01"/>
<path d="M40.5996 14.4L44.1996 18L47.7996 14.4" stroke="#73798B" stroke-width="1.6" stroke-linecap="round" stroke-linejoin="round"/>
</svg>
