<svg width="59" height="32" viewBox="0 0 59 32" fill="none" xmlns="http://www.w3.org/2000/svg">
<rect x="1.0001" y="0.4" width="57.4" height="31.2" rx="4.4" stroke="#EDEEF3" stroke-width="0.8"/>
<path d="M12.5584 12.832H15.8736V12.272H11.5728V11.3648H15.8736V10.7824H16.9264V11.3648H21.2272V12.272H16.9264V12.832H20.2416V15.1392H16.9264V15.6992H20.3984V17.1664H21.5296V18.0288H20.3984V19.496H16.9264V20.0672C16.9264 20.7616 16.5568 21.1088 15.8176 21.1088H14.44L14.216 20.1008C14.6416 20.1456 15.056 20.1792 15.4592 20.1792C15.728 20.1792 15.8736 20.056 15.8736 19.8208V19.496H12.2784V18.6448H15.8736V18.0288H11.2704V17.1664H15.8736V16.528H12.2896V15.6992H15.8736V15.1392H12.5584V12.832ZM19.1888 14.344V13.616H16.9264V14.344H19.1888ZM15.8736 14.344V13.616H13.6112V14.344H15.8736ZM16.9264 16.528V17.1664H19.3792V16.528H16.9264ZM19.3792 18.0288H16.9264V18.6448H19.3792V18.0288ZM24.8112 10.7264L25.808 11.1856C25.528 12.0704 25.1584 12.9104 24.7104 13.6944V21.1536H23.6688V15.24C23.3552 15.6432 23.0192 16.024 22.672 16.3936L22.3248 15.2624C23.4448 13.9632 24.2736 12.4512 24.8112 10.7264ZM26.6928 11.5328L27.7344 11.6672C27.6448 12.1712 27.544 12.6528 27.4208 13.1008H28.7648V10.8608H29.8288V13.1008H32.304V14.1424H29.8288V16.5504H32.7184V17.5808H29.8288V21.1088H28.7648V17.5808H25.584V16.5504H28.7648V14.1424H27.0736C26.7936 14.848 26.4576 15.4864 26.0544 16.0688L25.3712 15.184C26.0208 14.1872 26.4688 12.9664 26.6928 11.5328Z" fill="#1C1C1C"/>
<rect x="39.5999" y="11.2" width="9.6" height="9.6" fill="#D8D8D8" fill-opacity="0.01"/>
<path d="M40.7998 14.4L44.3998 18L47.9998 14.4" stroke="#73798B" stroke-width="1.6" stroke-linecap="round" stroke-linejoin="round"/>
</svg>
