<svg width="34" height="34" viewBox="0 0 34 34" fill="none" xmlns="http://www.w3.org/2000/svg">
<rect x="1" y="1" width="32" height="32" rx="16" stroke="#EDEEF3"/>
<path fill-rule="evenodd" clip-rule="evenodd" d="M21.0353 22.096C19.9268 22.975 18.5247 23.5 17 23.5C13.4101 23.5 10.5 20.5899 10.5 17C10.5 15.4753 11.025 14.0732 11.904 12.9647L21.0353 22.096ZM22.096 21.0353L12.9647 11.904C14.0732 11.025 15.4753 10.5 17 10.5C20.5899 10.5 23.5 13.4101 23.5 17C23.5 18.5247 22.975 19.9268 22.096 21.0353ZM25 17C25 21.4183 21.4183 25 17 25C12.5817 25 9 21.4183 9 17C9 12.5817 12.5817 9 17 9C21.4183 9 25 12.5817 25 17Z" fill="#1C1C1C"/>
</svg>
