<svg width="34" height="34" viewBox="0 0 34 34" fill="none" xmlns="http://www.w3.org/2000/svg">
<rect x="1" y="1" width="32" height="32" rx="16" stroke="#EDEEF3"/>
<path fill-rule="evenodd" clip-rule="evenodd" d="M9.41754 12.6101L14.6461 8.96223C14.9604 8.74297 15.3915 8.96783 15.3915 9.35103V11.4176L19.4293 11.4176C20.831 11.4167 24.0243 12.2533 24.7804 15.4991C24.8237 15.6853 24.5673 15.8108 24.4203 15.6887C23.7861 15.1616 22.7034 14.5391 21.3848 14.4442C19.8166 14.3312 17.014 14.3781 15.3915 14.4269V16.5251C15.3915 16.9049 14.9672 17.1305 14.6523 16.9182L9.42372 13.3919C9.14771 13.2058 9.1445 12.8006 9.41754 12.6101Z" fill="#1F32D6"/>
<path fill-rule="evenodd" clip-rule="evenodd" d="M24.5825 21.39L19.3539 25.0378C19.0396 25.2571 18.6085 25.0322 18.6085 24.649V22.5825L14.5707 22.5825C13.169 22.5833 9.97565 21.7468 9.21964 18.5009C9.17628 18.3148 9.43266 18.1892 9.57966 18.3114C10.2139 18.8385 11.2966 19.4609 12.6152 19.5559C14.1834 19.6688 16.986 19.622 18.6085 19.5731V17.4749C18.6085 17.0951 19.0328 16.8695 19.3477 17.0818L24.5763 20.6081C24.8523 20.7943 24.8555 21.1995 24.5825 21.39Z" fill="#1F32D6"/>
</svg>
