<svg width="33" height="32" viewBox="0 0 33 32" fill="none" xmlns="http://www.w3.org/2000/svg">
<path d="M0.800024 4.8C0.800024 2.36995 2.76997 0.4 5.20002 0.4H27.6C30.0301 0.4 32 2.36995 32 4.8V27.2C32 29.6301 30.0301 31.6 27.6 31.6H5.20002C2.76997 31.6 0.800024 29.6301 0.800024 27.2V4.8Z" stroke="#EDEEF3" stroke-width="0.8"/>
<path d="M21.1333 16.4333V18.9C21.1333 20.98 19.1933 22.6667 16.8 22.6667C14.4067 22.6667 12.4667 20.98 12.4667 18.9V16.4333C12.4667 18.5133 14.4067 20 16.8 20C19.1933 20 21.1333 18.5133 21.1333 16.4333Z" stroke="#1C1C1C" stroke-width="1.2" stroke-linecap="round" stroke-linejoin="round"/>
<path d="M21.1333 13.1C21.1333 13.7066 20.9667 14.2666 20.6733 14.7466C19.96 15.92 18.4933 16.6666 16.8 16.6666C15.1067 16.6666 13.64 15.92 12.9267 14.7466C12.6333 14.2666 12.4667 13.7066 12.4667 13.1C12.4667 12.06 12.9533 11.12 13.7333 10.44C14.52 9.75331 15.6 9.33331 16.8 9.33331C18 9.33331 19.08 9.75331 19.8667 10.4333C20.6467 11.12 21.1333 12.06 21.1333 13.1Z" stroke="#1C1C1C" stroke-width="1.2" stroke-linecap="round" stroke-linejoin="round"/>
<path d="M21.1333 13.1V16.4333C21.1333 18.5133 19.1933 20 16.8 20C14.4067 20 12.4667 18.5133 12.4667 16.4333V13.1C12.4667 11.02 14.4067 9.33331 16.8 9.33331C18 9.33331 19.08 9.75331 19.8667 10.4333C20.6467 11.12 21.1333 12.06 21.1333 13.1Z" stroke="#1C1C1C" stroke-width="1.2" stroke-linecap="round" stroke-linejoin="round"/>
</svg>
