<svg width="1328" height="136" viewBox="0 0 1328 136" fill="none" xmlns="http://www.w3.org/2000/svg">
<rect x="0.5" y="0.5" width="425.667" height="135" rx="9.5" fill="white"/>
<rect x="0.5" y="0.5" width="425.667" height="135" rx="9.5" stroke="#EDEEF3"/>
<rect x="24" y="36" width="64" height="64" rx="10" fill="#F8F9FC"/>
<path d="M64.0723 74.2115C64.5779 74.0768 65.0604 73.9058 65.4822 73.6835V76.4362C65.4822 77.2003 65.2534 77.9102 64.6686 78.5782C63.9921 79.3511 62.9657 80.0801 61.635 80.7099C58.9963 81.9586 55.2978 82.7496 51.1721 82.7496C47.014 82.7496 43.293 81.9744 40.6525 80.7248C39.3381 80.1028 38.327 79.3807 37.6617 78.6086C37.0492 77.8979 36.75 77.1702 36.75 76.4362V73.6793C37.1767 73.9038 37.6658 74.0762 38.1788 74.2119C39.6931 74.6126 41.6647 74.7556 43.577 74.7788C45.5021 74.8022 47.4213 74.7041 48.8553 74.6008C49.5734 74.5491 50.172 74.4959 50.5919 74.4556C50.8018 74.4354 50.9672 74.4185 51.0805 74.4065C51.1162 74.4027 51.1467 74.3994 51.1718 74.3967C51.1966 74.3994 51.2267 74.4027 51.2618 74.4064C51.3743 74.4184 51.5385 74.4354 51.747 74.4555C52.1638 74.4959 52.7581 74.5491 53.471 74.6008C54.8946 74.7041 56.8 74.8022 58.7113 74.7788C60.6097 74.7556 62.5679 74.6125 64.0723 74.2115Z" fill="white" stroke="#1C1C1C" stroke-width="1.5"/>
<path d="M65.4822 71.5619C65.4822 72.2151 65.1798 72.8982 64.5078 73.5864C63.8324 74.278 62.8184 74.9352 61.5067 75.5033C58.8859 76.6385 55.2128 77.3591 51.1161 77.3591C47.0195 77.3591 43.3464 76.6385 40.7255 75.5033C39.4138 74.9352 38.3999 74.278 37.7245 73.5864C37.0525 72.8982 36.75 72.2151 36.75 71.5619C36.75 70.9087 37.0525 70.2256 37.7245 69.5374C38.3999 68.8458 39.4138 68.1886 40.7255 67.6205C43.3464 66.4853 47.0195 65.7646 51.1161 65.7646C55.2128 65.7646 58.8859 66.4853 61.5067 67.6205C62.8184 68.1886 63.8324 68.8458 64.5078 69.5374C65.1798 70.2256 65.4822 70.9087 65.4822 71.5619Z" fill="white" stroke="#1C1C1C" stroke-width="1.5"/>
<path fill-rule="evenodd" clip-rule="evenodd" d="M67.0005 71.6673C66.691 66.2962 59.0565 64.5 49.6838 64.5C47.785 64.5 45.9576 64.6324 44.2479 64.877C44.3855 65.7039 44.8041 66.4851 45.4515 67.207C46.3164 68.1714 47.5868 69.0284 49.1632 69.7453C52.3316 71.1861 56.7289 72.0549 61.5888 72.0549C63.4776 72.0549 65.2965 71.919 67.0005 71.6673Z" fill="#F8F9FC"/>
<path fill-rule="evenodd" clip-rule="evenodd" d="M73 61.5166V67.0265C71.5691 68.2159 68.4873 68.895 66 69.531V63.5202C68.4875 62.8841 71.5691 62.7062 73 61.5166Z" fill="#1F32D6"/>
<path d="M75.25 59.2285V63.4056C75.25 64.1219 74.951 64.8466 74.3332 65.5637C73.6646 66.3397 72.6507 67.0712 71.3365 67.7031C68.7301 68.9561 65.0764 69.7501 61 69.7501C56.8915 69.7501 53.2156 68.9719 50.6075 67.718C49.3095 67.094 48.3106 66.3694 47.6531 65.5942C47.0478 64.8806 46.75 64.1475 46.75 63.4056V59.2285H75.25Z" stroke="#1C1C1C" stroke-width="1.5"/>
<path d="M75.25 58.5108C75.25 59.0686 74.971 59.6754 74.3054 60.306C73.6382 60.9382 72.6325 61.542 71.3276 62.0649C68.722 63.109 65.071 63.7716 61 63.7716C56.929 63.7716 53.278 63.109 50.6724 62.0649C49.3675 61.542 48.3618 60.9382 47.6946 60.306C47.029 59.6754 46.75 59.0686 46.75 58.5108C46.75 57.9531 47.029 57.3462 47.6946 56.7156C48.3618 56.0834 49.3675 55.4796 50.6724 54.9567C53.278 53.9126 56.929 53.25 61 53.25C65.071 53.25 68.722 53.9126 71.3276 54.9567C72.6325 55.4796 73.6382 56.0834 74.3054 56.7156C74.971 57.3462 75.25 57.9531 75.25 58.5108Z" fill="white" stroke="#1C1C1C" stroke-width="1.5"/>
<path d="M119.336 29.27V30.572H116.746V39H115.15V30.572H112.546V29.27H119.336ZM124.298 39.126C123.57 39.126 122.912 38.9627 122.324 38.636C121.736 38.3 121.274 37.8333 120.938 37.236C120.602 36.6293 120.434 35.9293 120.434 35.136C120.434 34.352 120.607 33.6567 120.952 33.05C121.298 32.4433 121.769 31.9767 122.366 31.65C122.964 31.3233 123.631 31.16 124.368 31.16C125.106 31.16 125.773 31.3233 126.37 31.65C126.968 31.9767 127.439 32.4433 127.784 33.05C128.13 33.6567 128.302 34.352 128.302 35.136C128.302 35.92 128.125 36.6153 127.77 37.222C127.416 37.8287 126.93 38.3 126.314 38.636C125.708 38.9627 125.036 39.126 124.298 39.126ZM124.298 37.74C124.709 37.74 125.092 37.642 125.446 37.446C125.81 37.25 126.104 36.956 126.328 36.564C126.552 36.172 126.664 35.696 126.664 35.136C126.664 34.576 126.557 34.1047 126.342 33.722C126.128 33.33 125.843 33.036 125.488 32.84C125.134 32.644 124.751 32.546 124.34 32.546C123.93 32.546 123.547 32.644 123.192 32.84C122.847 33.036 122.572 33.33 122.366 33.722C122.161 34.1047 122.058 34.576 122.058 35.136C122.058 35.9667 122.268 36.6107 122.688 37.068C123.118 37.516 123.654 37.74 124.298 37.74ZM131.742 32.588V36.858C131.742 37.1473 131.807 37.3573 131.938 37.488C132.078 37.6093 132.311 37.67 132.638 37.67H133.618V39H132.358C131.639 39 131.089 38.832 130.706 38.496C130.323 38.16 130.132 37.614 130.132 36.858V32.588H129.222V31.286H130.132V29.368H131.742V31.286H133.618V32.588H131.742ZM134.557 35.108C134.557 34.3333 134.716 33.6473 135.033 33.05C135.36 32.4527 135.798 31.9907 136.349 31.664C136.909 31.328 137.525 31.16 138.197 31.16C138.804 31.16 139.331 31.2813 139.779 31.524C140.236 31.7573 140.6 32.0513 140.871 32.406V31.286H142.481V39H140.871V37.852C140.6 38.216 140.232 38.5193 139.765 38.762C139.298 39.0047 138.766 39.126 138.169 39.126C137.506 39.126 136.9 38.958 136.349 38.622C135.798 38.2767 135.36 37.8007 135.033 37.194C134.716 36.578 134.557 35.8827 134.557 35.108ZM140.871 35.136C140.871 34.604 140.759 34.142 140.535 33.75C140.32 33.358 140.036 33.0593 139.681 32.854C139.326 32.6487 138.944 32.546 138.533 32.546C138.122 32.546 137.74 32.6487 137.385 32.854C137.03 33.05 136.741 33.344 136.517 33.736C136.302 34.1187 136.195 34.576 136.195 35.108C136.195 35.64 136.302 36.1067 136.517 36.508C136.741 36.9093 137.03 37.2173 137.385 37.432C137.749 37.6373 138.132 37.74 138.533 37.74C138.944 37.74 139.326 37.6373 139.681 37.432C140.036 37.2267 140.32 36.928 140.535 36.536C140.759 36.1347 140.871 35.668 140.871 35.136ZM146.173 28.64V39H144.577V28.64H146.173ZM157.771 37.012H153.697L152.997 39H151.331L154.817 29.256H156.665L160.151 39H158.471L157.771 37.012ZM157.323 35.71L155.741 31.188L154.145 35.71H157.323ZM164.467 39.126C163.861 39.126 163.315 39.0187 162.829 38.804C162.353 38.58 161.975 38.2813 161.695 37.908C161.415 37.5253 161.266 37.1007 161.247 36.634H162.899C162.927 36.9607 163.081 37.236 163.361 37.46C163.651 37.6747 164.01 37.782 164.439 37.782C164.887 37.782 165.233 37.698 165.475 37.53C165.727 37.3527 165.853 37.1287 165.853 36.858C165.853 36.5687 165.713 36.354 165.433 36.214C165.163 36.074 164.729 35.92 164.131 35.752C163.553 35.5933 163.081 35.4393 162.717 35.29C162.353 35.1407 162.036 34.912 161.765 34.604C161.504 34.296 161.373 33.89 161.373 33.386C161.373 32.9753 161.495 32.602 161.737 32.266C161.98 31.9207 162.325 31.65 162.773 31.454C163.231 31.258 163.753 31.16 164.341 31.16C165.219 31.16 165.923 31.384 166.455 31.832C166.997 32.2707 167.286 32.8727 167.323 33.638H165.727C165.699 33.2927 165.559 33.0173 165.307 32.812C165.055 32.6067 164.715 32.504 164.285 32.504C163.865 32.504 163.543 32.5833 163.319 32.742C163.095 32.9007 162.983 33.1107 162.983 33.372C162.983 33.5773 163.058 33.75 163.207 33.89C163.357 34.03 163.539 34.142 163.753 34.226C163.968 34.3007 164.285 34.3987 164.705 34.52C165.265 34.6693 165.723 34.8233 166.077 34.982C166.441 35.1313 166.754 35.3553 167.015 35.654C167.277 35.9527 167.412 36.3493 167.421 36.844C167.421 37.2827 167.3 37.6747 167.057 38.02C166.815 38.3653 166.469 38.636 166.021 38.832C165.583 39.028 165.065 39.126 164.467 39.126ZM171.946 39.126C171.339 39.126 170.793 39.0187 170.308 38.804C169.832 38.58 169.454 38.2813 169.174 37.908C168.894 37.5253 168.744 37.1007 168.726 36.634H170.378C170.406 36.9607 170.56 37.236 170.84 37.46C171.129 37.6747 171.488 37.782 171.918 37.782C172.366 37.782 172.711 37.698 172.954 37.53C173.206 37.3527 173.332 37.1287 173.332 36.858C173.332 36.5687 173.192 36.354 172.912 36.214C172.641 36.074 172.207 35.92 171.61 35.752C171.031 35.5933 170.56 35.4393 170.196 35.29C169.832 35.1407 169.514 34.912 169.244 34.604C168.982 34.296 168.852 33.89 168.852 33.386C168.852 32.9753 168.973 32.602 169.216 32.266C169.458 31.9207 169.804 31.65 170.252 31.454C170.709 31.258 171.232 31.16 171.82 31.16C172.697 31.16 173.402 31.384 173.934 31.832C174.475 32.2707 174.764 32.8727 174.802 33.638H173.206C173.178 33.2927 173.038 33.0173 172.786 32.812C172.534 32.6067 172.193 32.504 171.764 32.504C171.344 32.504 171.022 32.5833 170.798 32.742C170.574 32.9007 170.462 33.1107 170.462 33.372C170.462 33.5773 170.536 33.75 170.686 33.89C170.835 34.03 171.017 34.142 171.232 34.226C171.446 34.3007 171.764 34.3987 172.184 34.52C172.744 34.6693 173.201 34.8233 173.556 34.982C173.92 35.1313 174.232 35.3553 174.494 35.654C174.755 35.9527 174.89 36.3493 174.9 36.844C174.9 37.2827 174.778 37.6747 174.536 38.02C174.293 38.3653 173.948 38.636 173.5 38.832C173.061 39.028 172.543 39.126 171.946 39.126ZM183.694 34.954C183.694 35.2433 183.676 35.5047 183.638 35.738H177.744C177.791 36.354 178.02 36.8487 178.43 37.222C178.841 37.5953 179.345 37.782 179.942 37.782C180.801 37.782 181.408 37.4227 181.762 36.704H183.484C183.251 37.4133 182.826 37.9967 182.21 38.454C181.604 38.902 180.848 39.126 179.942 39.126C179.205 39.126 178.542 38.9627 177.954 38.636C177.376 38.3 176.918 37.8333 176.582 37.236C176.256 36.6293 176.092 35.9293 176.092 35.136C176.092 34.3427 176.251 33.6473 176.568 33.05C176.895 32.4433 177.348 31.9767 177.926 31.65C178.514 31.3233 179.186 31.16 179.942 31.16C180.67 31.16 181.319 31.3187 181.888 31.636C182.458 31.9533 182.901 32.4013 183.218 32.98C183.536 33.5493 183.694 34.2073 183.694 34.954ZM182.028 34.45C182.019 33.862 181.809 33.3907 181.398 33.036C180.988 32.6813 180.479 32.504 179.872 32.504C179.322 32.504 178.85 32.6813 178.458 33.036C178.066 33.3813 177.833 33.8527 177.758 34.45H182.028ZM187.127 32.588V36.858C187.127 37.1473 187.192 37.3573 187.323 37.488C187.463 37.6093 187.696 37.67 188.023 37.67H189.003V39H187.743C187.024 39 186.474 38.832 186.091 38.496C185.708 38.16 185.517 37.614 185.517 36.858V32.588H184.607V31.286H185.517V29.368H187.127V31.286H189.003V32.588H187.127ZM193.274 39.126C192.667 39.126 192.121 39.0187 191.636 38.804C191.16 38.58 190.782 38.2813 190.502 37.908C190.222 37.5253 190.072 37.1007 190.054 36.634H191.706C191.734 36.9607 191.888 37.236 192.168 37.46C192.457 37.6747 192.816 37.782 193.246 37.782C193.694 37.782 194.039 37.698 194.282 37.53C194.534 37.3527 194.66 37.1287 194.66 36.858C194.66 36.5687 194.52 36.354 194.24 36.214C193.969 36.074 193.535 35.92 192.938 35.752C192.359 35.5933 191.888 35.4393 191.524 35.29C191.16 35.1407 190.842 34.912 190.572 34.604C190.31 34.296 190.18 33.89 190.18 33.386C190.18 32.9753 190.301 32.602 190.544 32.266C190.786 31.9207 191.132 31.65 191.58 31.454C192.037 31.258 192.56 31.16 193.148 31.16C194.025 31.16 194.73 31.384 195.262 31.832C195.803 32.2707 196.092 32.8727 196.13 33.638H194.534C194.506 33.2927 194.366 33.0173 194.114 32.812C193.862 32.6067 193.521 32.504 193.092 32.504C192.672 32.504 192.35 32.5833 192.126 32.742C191.902 32.9007 191.79 33.1107 191.79 33.372C191.79 33.5773 191.864 33.75 192.014 33.89C192.163 34.03 192.345 34.142 192.56 34.226C192.774 34.3007 193.092 34.3987 193.512 34.52C194.072 34.6693 194.529 34.8233 194.884 34.982C195.248 35.1313 195.56 35.3553 195.822 35.654C196.083 35.9527 196.218 36.3493 196.228 36.844C196.228 37.2827 196.106 37.6747 195.864 38.02C195.621 38.3653 195.276 38.636 194.828 38.832C194.389 39.028 193.871 39.126 193.274 39.126Z" fill="#73798B"/>
<path d="M113.952 79.528V77.448H123.232C124.149 77.448 124.608 76.9893 124.608 76.072V74.088C124.608 73.2773 124.245 72.7973 123.52 72.648L117.696 71.496C115.2 71.0267 113.952 69.352 113.952 66.472V65.288C113.952 61.6827 115.595 59.88 118.88 59.88H119.616V56.04H122.88V59.88H126.016L127.904 61.352V63.432H119.264C118.347 63.432 117.888 63.8907 117.888 64.808V66.568C117.888 67.4 118.251 67.88 118.976 68.008L124.8 69.192C127.296 69.704 128.544 71.368 128.544 74.184V75.592C128.544 79.1973 126.901 81 123.616 81H122.88V84.84H119.616V81H115.84L113.952 79.528ZM132.292 75.784V72.68C132.292 71.8267 132.559 71.144 133.092 70.632L134.212 69.48L133.092 68.392C132.559 67.8373 132.292 67.1333 132.292 66.28V64.136C132.292 60.6587 134.031 58.92 137.508 58.92H141.988C145.465 58.92 147.204 60.6587 147.204 64.136V66.28C147.204 67.1333 146.937 67.8373 146.404 68.392L145.284 69.48L146.404 70.632C146.937 71.144 147.204 71.8267 147.204 72.68V75.784C147.204 79.2613 145.465 81 141.988 81H137.508C134.031 81 132.292 79.2613 132.292 75.784ZM136.228 76.072C136.228 76.9893 136.687 77.448 137.604 77.448H141.892C142.809 77.448 143.268 76.9893 143.268 76.072V72.712C143.268 71.7947 142.809 71.336 141.892 71.336H137.604C136.687 71.336 136.228 71.7947 136.228 72.712V76.072ZM136.228 66.376C136.228 67.3147 136.687 67.784 137.604 67.784H141.892C142.809 67.784 143.268 67.3147 143.268 66.376V63.848C143.268 62.9307 142.809 62.472 141.892 62.472H137.604C136.687 62.472 136.228 62.9307 136.228 63.848V66.376ZM151.112 79.528V77.448H160.392C161.309 77.448 161.768 76.9893 161.768 76.072V72.712C161.768 71.7947 161.309 71.336 160.392 71.336H153.48V67.784H160.392C161.309 67.784 161.768 67.3147 161.768 66.376V63.848C161.768 62.9307 161.309 62.472 160.392 62.472H151.432V60.392L153.32 58.92H160.488C163.965 58.92 165.704 60.6587 165.704 64.136V66.28C165.704 67.1333 165.437 67.8267 164.904 68.36L163.784 69.48L164.904 70.6C165.437 71.1333 165.704 71.8267 165.704 72.68V75.784C165.704 79.2613 163.965 81 160.488 81H153L151.112 79.528ZM168.332 85L170.188 76.84H173.804L174.188 77.448L171.116 85.672L168.332 85ZM178.876 81V77.448H183.996V62.472H179.804V60.392L181.692 58.92H187.9V77.448H192.508V81H178.876ZM196.16 79.528V77.448H206.08C206.997 77.448 207.456 76.9893 207.456 76.072V72.392C207.456 71.4747 206.997 71.016 206.08 71.016H196.48V58.92H210.432V62.472H200.416V67.464H206.176C209.653 67.464 211.392 69.2027 211.392 72.68V75.784C211.392 79.2613 209.653 81 206.176 81H198.048L196.16 79.528ZM214.98 75.784V64.136C214.98 60.6587 216.718 58.92 220.196 58.92H224.676C228.153 58.92 229.892 60.6587 229.892 64.136V75.784C229.892 79.2613 228.153 81 224.676 81H220.196C216.718 81 214.98 79.2613 214.98 75.784ZM218.916 76.072C218.916 76.9893 219.374 77.448 220.292 77.448H224.58C225.497 77.448 225.956 76.9893 225.956 76.072V63.848C225.956 62.9307 225.497 62.472 224.58 62.472H220.292C219.374 62.472 218.916 62.9307 218.916 63.848V76.072ZM232.52 85L234.376 76.84H237.992L238.376 77.448L235.304 85.672L232.52 85ZM242.167 75.784V64.136C242.167 60.6587 243.906 58.92 247.383 58.92H251.863C255.34 58.92 257.079 60.6587 257.079 64.136V75.784C257.079 79.2613 255.34 81 251.863 81H247.383C243.906 81 242.167 79.2613 242.167 75.784ZM246.103 76.072C246.103 76.9893 246.562 77.448 247.479 77.448H251.767C252.684 77.448 253.143 76.9893 253.143 76.072V63.848C253.143 62.9307 252.684 62.472 251.767 62.472H247.479C246.562 62.472 246.103 62.9307 246.103 63.848V76.072ZM260.667 75.784V64.136C260.667 60.6587 262.406 58.92 265.883 58.92H270.363C273.84 58.92 275.579 60.6587 275.579 64.136V75.784C275.579 79.2613 273.84 81 270.363 81H265.883C262.406 81 260.667 79.2613 260.667 75.784ZM264.603 76.072C264.603 76.9893 265.062 77.448 265.979 77.448H270.267C271.184 77.448 271.643 76.9893 271.643 76.072V63.848C271.643 62.9307 271.184 62.472 270.267 62.472H265.979C265.062 62.472 264.603 62.9307 264.603 63.848V76.072ZM279.167 75.784V64.136C279.167 60.6587 280.906 58.92 284.383 58.92H288.863C292.34 58.92 294.079 60.6587 294.079 64.136V75.784C294.079 79.2613 292.34 81 288.863 81H284.383C280.906 81 279.167 79.2613 279.167 75.784ZM283.103 76.072C283.103 76.9893 283.562 77.448 284.479 77.448H288.767C289.684 77.448 290.143 76.9893 290.143 76.072V63.848C290.143 62.9307 289.684 62.472 288.767 62.472H284.479C283.562 62.472 283.103 62.9307 283.103 63.848V76.072ZM298.147 81V76.84H302.307V81H298.147ZM306.355 75.784V64.136C306.355 60.6587 308.093 58.92 311.571 58.92H316.051C319.528 58.92 321.267 60.6587 321.267 64.136V75.784C321.267 79.2613 319.528 81 316.051 81H311.571C308.093 81 306.355 79.2613 306.355 75.784ZM310.291 76.072C310.291 76.9893 310.749 77.448 311.667 77.448H315.955C316.872 77.448 317.331 76.9893 317.331 76.072V63.848C317.331 62.9307 316.872 62.472 315.955 62.472H311.667C310.749 62.472 310.291 62.9307 310.291 63.848V76.072ZM324.855 75.784V64.136C324.855 60.6587 326.593 58.92 330.071 58.92H334.551C338.028 58.92 339.767 60.6587 339.767 64.136V75.784C339.767 79.2613 338.028 81 334.551 81H330.071C326.593 81 324.855 79.2613 324.855 75.784ZM328.791 76.072C328.791 76.9893 329.249 77.448 330.167 77.448H334.455C335.372 77.448 335.831 76.9893 335.831 76.072V63.848C335.831 62.9307 335.372 62.472 334.455 62.472H330.167C329.249 62.472 328.791 62.9307 328.791 63.848V76.072Z" fill="#1C1C1C"/>
<path d="M112.516 104.688C112.516 104.016 112.652 103.428 112.924 102.924C113.196 102.412 113.568 102.016 114.04 101.736C114.52 101.456 115.052 101.316 115.636 101.316C116.212 101.316 116.712 101.44 117.136 101.688C117.56 101.936 117.876 102.248 118.084 102.624V101.424H119.188V108H118.084V106.776C117.868 107.16 117.544 107.48 117.112 107.736C116.688 107.984 116.192 108.108 115.624 108.108C115.04 108.108 114.512 107.964 114.04 107.676C113.568 107.388 113.196 106.984 112.924 106.464C112.652 105.944 112.516 105.352 112.516 104.688ZM118.084 104.7C118.084 104.204 117.984 103.772 117.784 103.404C117.584 103.036 117.312 102.756 116.968 102.564C116.632 102.364 116.26 102.264 115.852 102.264C115.444 102.264 115.072 102.36 114.736 102.552C114.4 102.744 114.132 103.024 113.932 103.392C113.732 103.76 113.632 104.192 113.632 104.688C113.632 105.192 113.732 105.632 113.932 106.008C114.132 106.376 114.4 106.66 114.736 106.86C115.072 107.052 115.444 107.148 115.852 107.148C116.26 107.148 116.632 107.052 116.968 106.86C117.312 106.66 117.584 106.376 117.784 106.008C117.984 105.632 118.084 105.196 118.084 104.7ZM123.361 108.108C122.857 108.108 122.405 108.024 122.005 107.856C121.605 107.68 121.289 107.44 121.057 107.136C120.825 106.824 120.697 106.468 120.673 106.068H121.801C121.833 106.396 121.985 106.664 122.257 106.872C122.537 107.08 122.901 107.184 123.349 107.184C123.765 107.184 124.093 107.092 124.333 106.908C124.573 106.724 124.693 106.492 124.693 106.212C124.693 105.924 124.565 105.712 124.309 105.576C124.053 105.432 123.657 105.292 123.121 105.156C122.633 105.028 122.233 104.9 121.921 104.772C121.617 104.636 121.353 104.44 121.129 104.184C120.913 103.92 120.805 103.576 120.805 103.152C120.805 102.816 120.905 102.508 121.105 102.228C121.305 101.948 121.589 101.728 121.957 101.568C122.325 101.4 122.745 101.316 123.217 101.316C123.945 101.316 124.533 101.5 124.981 101.868C125.429 102.236 125.669 102.74 125.701 103.38H124.609C124.585 103.036 124.445 102.76 124.189 102.552C123.941 102.344 123.605 102.24 123.181 102.24C122.789 102.24 122.477 102.324 122.245 102.492C122.013 102.66 121.897 102.88 121.897 103.152C121.897 103.368 121.965 103.548 122.101 103.692C122.245 103.828 122.421 103.94 122.629 104.028C122.845 104.108 123.141 104.2 123.517 104.304C123.989 104.432 124.373 104.56 124.669 104.688C124.965 104.808 125.217 104.992 125.425 105.24C125.641 105.488 125.753 105.812 125.761 106.212C125.761 106.572 125.661 106.896 125.461 107.184C125.261 107.472 124.977 107.7 124.609 107.868C124.249 108.028 123.833 108.108 123.361 108.108ZM133.37 108.108C132.754 108.108 132.194 107.968 131.69 107.688C131.194 107.408 130.802 107.012 130.514 106.5C130.234 105.98 130.094 105.38 130.094 104.7C130.094 104.028 130.238 103.436 130.526 102.924C130.822 102.404 131.222 102.008 131.726 101.736C132.23 101.456 132.794 101.316 133.418 101.316C134.042 101.316 134.606 101.456 135.11 101.736C135.614 102.008 136.01 102.4 136.298 102.912C136.594 103.424 136.742 104.02 136.742 104.7C136.742 105.38 136.59 105.98 136.286 106.5C135.99 107.012 135.586 107.408 135.074 107.688C134.562 107.968 133.994 108.108 133.37 108.108ZM133.37 107.148C133.762 107.148 134.13 107.056 134.474 106.872C134.818 106.688 135.094 106.412 135.302 106.044C135.518 105.676 135.626 105.228 135.626 104.7C135.626 104.172 135.522 103.724 135.314 103.356C135.106 102.988 134.834 102.716 134.498 102.54C134.162 102.356 133.798 102.264 133.406 102.264C133.006 102.264 132.638 102.356 132.302 102.54C131.974 102.716 131.71 102.988 131.51 103.356C131.31 103.724 131.21 104.172 131.21 104.7C131.21 105.236 131.306 105.688 131.498 106.056C131.698 106.424 131.962 106.7 132.29 106.884C132.618 107.06 132.978 107.148 133.37 107.148ZM140.854 102.324H139.474V108H138.382V102.324H137.53V101.424H138.382V100.956C138.382 100.22 138.57 99.684 138.946 99.348C139.33 99.004 139.942 98.832 140.782 98.832V99.744C140.302 99.744 139.962 99.84 139.762 100.032C139.57 100.216 139.474 100.524 139.474 100.956V101.424H140.854V102.324ZM150.27 106.14H146.622L145.95 108H144.798L147.822 99.684H149.082L152.094 108H150.942L150.27 106.14ZM149.958 105.252L148.446 101.028L146.934 105.252H149.958ZM154.504 102.636C154.72 102.26 155.04 101.948 155.464 101.7C155.896 101.444 156.396 101.316 156.964 101.316C157.548 101.316 158.076 101.456 158.548 101.736C159.028 102.016 159.404 102.412 159.676 102.924C159.948 103.428 160.084 104.016 160.084 104.688C160.084 105.352 159.948 105.944 159.676 106.464C159.404 106.984 159.028 107.388 158.548 107.676C158.076 107.964 157.548 108.108 156.964 108.108C156.404 108.108 155.908 107.984 155.476 107.736C155.052 107.48 154.728 107.164 154.504 106.788V111.12H153.412V101.424H154.504V102.636ZM158.968 104.688C158.968 104.192 158.868 103.76 158.668 103.392C158.468 103.024 158.196 102.744 157.852 102.552C157.516 102.36 157.144 102.264 156.736 102.264C156.336 102.264 155.964 102.364 155.62 102.564C155.284 102.756 155.012 103.04 154.804 103.416C154.604 103.784 154.504 104.212 154.504 104.7C154.504 105.196 154.604 105.632 154.804 106.008C155.012 106.376 155.284 106.66 155.62 106.86C155.964 107.052 156.336 107.148 156.736 107.148C157.144 107.148 157.516 107.052 157.852 106.86C158.196 106.66 158.468 106.376 158.668 106.008C158.868 105.632 158.968 105.192 158.968 104.688ZM162.614 102.492C162.806 102.116 163.078 101.824 163.43 101.616C163.79 101.408 164.226 101.304 164.738 101.304V102.432H164.45C163.226 102.432 162.614 103.096 162.614 104.424V108H161.522V101.424H162.614V102.492ZM168.885 107.124C169.901 106.308 170.697 105.64 171.273 105.12C171.849 104.592 172.333 104.044 172.725 103.476C173.125 102.9 173.325 102.336 173.325 101.784C173.325 101.264 173.197 100.856 172.941 100.56C172.693 100.256 172.289 100.104 171.729 100.104C171.185 100.104 170.761 100.276 170.457 100.62C170.161 100.956 170.001 101.408 169.977 101.976H168.921C168.953 101.08 169.225 100.388 169.737 99.9C170.249 99.412 170.909 99.168 171.717 99.168C172.541 99.168 173.193 99.396 173.673 99.852C174.161 100.308 174.405 100.936 174.405 101.736C174.405 102.4 174.205 103.048 173.805 103.68C173.413 104.304 172.965 104.856 172.461 105.336C171.957 105.808 171.313 106.36 170.529 106.992H174.657V107.904H168.885V107.124ZM181.452 100.272H177.24V103.008C177.424 102.752 177.696 102.544 178.056 102.384C178.416 102.216 178.804 102.132 179.22 102.132C179.884 102.132 180.424 102.272 180.84 102.552C181.256 102.824 181.552 103.18 181.728 103.62C181.912 104.052 182.004 104.512 182.004 105C182.004 105.576 181.896 106.092 181.68 106.548C181.464 107.004 181.132 107.364 180.684 107.628C180.244 107.892 179.696 108.024 179.04 108.024C178.2 108.024 177.52 107.808 177 107.376C176.48 106.944 176.164 106.368 176.052 105.648H177.12C177.224 106.104 177.444 106.46 177.78 106.716C178.116 106.972 178.54 107.1 179.052 107.1C179.684 107.1 180.16 106.912 180.48 106.536C180.8 106.152 180.96 105.648 180.96 105.024C180.96 104.4 180.8 103.92 180.48 103.584C180.16 103.24 179.688 103.068 179.064 103.068C178.64 103.068 178.268 103.172 177.948 103.38C177.636 103.58 177.408 103.856 177.264 104.208H176.232V99.312H181.452V100.272ZM184.763 106.488L183.419 109.716H182.687L183.563 106.488H184.763ZM188.901 107.124C189.917 106.308 190.713 105.64 191.289 105.12C191.865 104.592 192.349 104.044 192.741 103.476C193.141 102.9 193.341 102.336 193.341 101.784C193.341 101.264 193.213 100.856 192.957 100.56C192.709 100.256 192.305 100.104 191.745 100.104C191.201 100.104 190.777 100.276 190.473 100.62C190.177 100.956 190.017 101.408 189.993 101.976H188.937C188.969 101.08 189.241 100.388 189.753 99.9C190.265 99.412 190.925 99.168 191.733 99.168C192.557 99.168 193.209 99.396 193.689 99.852C194.177 100.308 194.421 100.936 194.421 101.736C194.421 102.4 194.221 103.048 193.821 103.68C193.429 104.304 192.981 104.856 192.477 105.336C191.973 105.808 191.329 106.36 190.545 106.992H194.673V107.904H188.901V107.124ZM195.935 103.572C195.935 102.196 196.159 101.124 196.607 100.356C197.055 99.58 197.839 99.192 198.959 99.192C200.071 99.192 200.851 99.58 201.299 100.356C201.747 101.124 201.971 102.196 201.971 103.572C201.971 104.972 201.747 106.06 201.299 106.836C200.851 107.612 200.071 108 198.959 108C197.839 108 197.055 107.612 196.607 106.836C196.159 106.06 195.935 104.972 195.935 103.572ZM200.891 103.572C200.891 102.876 200.843 102.288 200.747 101.808C200.659 101.32 200.471 100.928 200.183 100.632C199.903 100.336 199.495 100.188 198.959 100.188C198.415 100.188 197.999 100.336 197.711 100.632C197.431 100.928 197.243 101.32 197.147 101.808C197.059 102.288 197.015 102.876 197.015 103.572C197.015 104.292 197.059 104.896 197.147 105.384C197.243 105.872 197.431 106.264 197.711 106.56C197.999 106.856 198.415 107.004 198.959 107.004C199.495 107.004 199.903 106.856 200.183 106.56C200.471 106.264 200.659 105.872 200.747 105.384C200.843 104.896 200.891 104.292 200.891 103.572ZM203.339 107.124C204.355 106.308 205.151 105.64 205.727 105.12C206.303 104.592 206.787 104.044 207.179 103.476C207.579 102.9 207.779 102.336 207.779 101.784C207.779 101.264 207.651 100.856 207.395 100.56C207.147 100.256 206.743 100.104 206.183 100.104C205.639 100.104 205.215 100.276 204.911 100.62C204.615 100.956 204.455 101.408 204.431 101.976H203.375C203.407 101.08 203.679 100.388 204.191 99.9C204.703 99.412 205.363 99.168 206.171 99.168C206.995 99.168 207.647 99.396 208.127 99.852C208.615 100.308 208.859 100.936 208.859 101.736C208.859 102.4 208.659 103.048 208.259 103.68C207.867 104.304 207.419 104.856 206.915 105.336C206.411 105.808 205.767 106.36 204.983 106.992H209.111V107.904H203.339V107.124ZM210.109 106.068V105.24L214.321 99.408H215.629V105.12H216.829V106.068H215.629V108H214.549V106.068H210.109ZM214.597 100.548L211.369 105.12H214.597V100.548ZM220.891 104.688C220.891 104.016 221.027 103.428 221.299 102.924C221.571 102.412 221.943 102.016 222.415 101.736C222.895 101.456 223.427 101.316 224.011 101.316C224.587 101.316 225.087 101.44 225.511 101.688C225.935 101.936 226.251 102.248 226.459 102.624V101.424H227.563V108H226.459V106.776C226.243 107.16 225.919 107.48 225.487 107.736C225.063 107.984 224.567 108.108 223.999 108.108C223.415 108.108 222.887 107.964 222.415 107.676C221.943 107.388 221.571 106.984 221.299 106.464C221.027 105.944 220.891 105.352 220.891 104.688ZM226.459 104.7C226.459 104.204 226.359 103.772 226.159 103.404C225.959 103.036 225.687 102.756 225.343 102.564C225.007 102.364 224.635 102.264 224.227 102.264C223.819 102.264 223.447 102.36 223.111 102.552C222.775 102.744 222.507 103.024 222.307 103.392C222.107 103.76 222.007 104.192 222.007 104.688C222.007 105.192 222.107 105.632 222.307 106.008C222.507 106.376 222.775 106.66 223.111 106.86C223.447 107.052 223.819 107.148 224.227 107.148C224.635 107.148 225.007 107.052 225.343 106.86C225.687 106.66 225.959 106.376 226.159 106.008C226.359 105.632 226.459 105.196 226.459 104.7ZM230.74 102.324V106.2C230.74 106.52 230.808 106.748 230.944 106.884C231.08 107.012 231.316 107.076 231.652 107.076H232.456V108H231.472C230.864 108 230.408 107.86 230.104 107.58C229.8 107.3 229.648 106.84 229.648 106.2V102.324H228.796V101.424H229.648V99.768H230.74V101.424H232.456V102.324H230.74ZM236.511 100.32V99.324H238.767V108H237.663V100.32H236.511ZM240.618 101.508C240.674 100.772 240.958 100.196 241.47 99.78C241.982 99.364 242.646 99.156 243.462 99.156C244.006 99.156 244.474 99.256 244.866 99.456C245.266 99.648 245.566 99.912 245.766 100.248C245.974 100.584 246.078 100.964 246.078 101.388C246.078 101.884 245.934 102.312 245.646 102.672C245.366 103.032 244.998 103.264 244.542 103.368V103.428C245.062 103.556 245.474 103.808 245.778 104.184C246.082 104.56 246.234 105.052 246.234 105.66C246.234 106.116 246.13 106.528 245.922 106.896C245.714 107.256 245.402 107.54 244.986 107.748C244.57 107.956 244.07 108.06 243.486 108.06C242.638 108.06 241.942 107.84 241.398 107.4C240.854 106.952 240.55 106.32 240.486 105.504H241.542C241.598 105.984 241.794 106.376 242.13 106.68C242.466 106.984 242.914 107.136 243.474 107.136C244.034 107.136 244.458 106.992 244.746 106.704C245.042 106.408 245.19 106.028 245.19 105.564C245.19 104.964 244.99 104.532 244.59 104.268C244.19 104.004 243.586 103.872 242.778 103.872H242.502V102.96H242.79C243.526 102.952 244.082 102.832 244.458 102.6C244.834 102.36 245.022 101.992 245.022 101.496C245.022 101.072 244.882 100.732 244.602 100.476C244.33 100.22 243.938 100.092 243.426 100.092C242.93 100.092 242.53 100.22 242.226 100.476C241.922 100.732 241.742 101.076 241.686 101.508H240.618ZM248.237 108.072C248.029 108.072 247.853 108 247.709 107.856C247.565 107.712 247.493 107.536 247.493 107.328C247.493 107.12 247.565 106.944 247.709 106.8C247.853 106.656 248.029 106.584 248.237 106.584C248.437 106.584 248.605 106.656 248.741 106.8C248.885 106.944 248.957 107.12 248.957 107.328C248.957 107.536 248.885 107.712 248.741 107.856C248.605 108 248.437 108.072 248.237 108.072ZM248.237 102.936C248.029 102.936 247.853 102.864 247.709 102.72C247.565 102.576 247.493 102.4 247.493 102.192C247.493 101.984 247.565 101.808 247.709 101.664C247.853 101.52 248.029 101.448 248.237 101.448C248.437 101.448 248.605 101.52 248.741 101.664C248.885 101.808 248.957 101.984 248.957 102.192C248.957 102.4 248.885 102.576 248.741 102.72C248.605 102.864 248.437 102.936 248.237 102.936ZM249.976 100.32V99.324H252.232V108H251.128V100.32H249.976ZM253.975 107.124C254.991 106.308 255.787 105.64 256.363 105.12C256.939 104.592 257.423 104.044 257.815 103.476C258.215 102.9 258.415 102.336 258.415 101.784C258.415 101.264 258.287 100.856 258.031 100.56C257.783 100.256 257.379 100.104 256.819 100.104C256.275 100.104 255.851 100.276 255.547 100.62C255.251 100.956 255.091 101.408 255.067 101.976H254.011C254.043 101.08 254.315 100.388 254.827 99.9C255.339 99.412 255.999 99.168 256.807 99.168C257.631 99.168 258.283 99.396 258.763 99.852C259.251 100.308 259.495 100.936 259.495 101.736C259.495 102.4 259.295 103.048 258.895 103.68C258.503 104.304 258.055 104.856 257.551 105.336C257.047 105.808 256.403 106.36 255.619 106.992H259.747V107.904H253.975V107.124ZM261.538 108.072C261.33 108.072 261.154 108 261.01 107.856C260.866 107.712 260.794 107.536 260.794 107.328C260.794 107.12 260.866 106.944 261.01 106.8C261.154 106.656 261.33 106.584 261.538 106.584C261.738 106.584 261.906 106.656 262.042 106.8C262.186 106.944 262.258 107.12 262.258 107.328C262.258 107.536 262.186 107.712 262.042 107.856C261.906 108 261.738 108.072 261.538 108.072ZM261.538 102.936C261.33 102.936 261.154 102.864 261.01 102.72C260.866 102.576 260.794 102.4 260.794 102.192C260.794 101.984 260.866 101.808 261.01 101.664C261.154 101.52 261.33 101.448 261.538 101.448C261.738 101.448 261.906 101.52 262.042 101.664C262.186 101.808 262.258 101.984 262.258 102.192C262.258 102.4 262.186 102.576 262.042 102.72C261.906 102.864 261.738 102.936 261.538 102.936ZM263.276 100.32V99.324H265.532V108H264.428V100.32H263.276ZM267.144 106.068V105.24L271.356 99.408H272.664V105.12H273.864V106.068H272.664V108H271.584V106.068H267.144ZM271.632 100.548L268.404 105.12H271.632V100.548Z" fill="#73798B"/>
<rect x="451.167" y="0.5" width="425.667" height="135" rx="9.5" fill="white"/>
<rect x="451.167" y="0.5" width="425.667" height="135" rx="9.5" stroke="#EDEEF3"/>
<rect x="474.667" y="36" width="64" height="64" rx="10" fill="#F8F9FC"/>
<path d="M514.739 74.2115C515.245 74.0768 515.727 73.9058 516.149 73.6835V76.4362C516.149 77.2003 515.92 77.9102 515.335 78.5782C514.659 79.3511 513.632 80.0801 512.302 80.7099C509.663 81.9586 505.964 82.7496 501.839 82.7496C497.681 82.7496 493.96 81.9744 491.319 80.7248C490.005 80.1028 488.994 79.3807 488.328 78.6086C487.716 77.8979 487.417 77.1702 487.417 76.4362V73.6793C487.843 73.9038 488.332 74.0762 488.845 74.2119C490.36 74.6126 492.331 74.7556 494.244 74.7788C496.169 74.8022 498.088 74.7041 499.522 74.6008C500.24 74.5491 500.839 74.4959 501.259 74.4556C501.469 74.4354 501.634 74.4185 501.747 74.4065C501.783 74.4027 501.813 74.3994 501.838 74.3967C501.863 74.3994 501.893 74.4027 501.928 74.4064C502.041 74.4184 502.205 74.4354 502.414 74.4555C502.83 74.4959 503.425 74.5491 504.138 74.6008C505.561 74.7041 507.467 74.8022 509.378 74.7788C511.276 74.7556 513.235 74.6125 514.739 74.2115Z" fill="white" stroke="#1C1C1C" stroke-width="1.5"/>
<path d="M516.149 71.5619C516.149 72.2151 515.846 72.8982 515.174 73.5864C514.499 74.278 513.485 74.9352 512.173 75.5033C509.553 76.6385 505.879 77.3591 501.783 77.3591C497.686 77.3591 494.013 76.6385 491.392 75.5033C490.08 74.9352 489.067 74.278 488.391 73.5864C487.719 72.8982 487.417 72.2151 487.417 71.5619C487.417 70.9087 487.719 70.2256 488.391 69.5374C489.067 68.8458 490.08 68.1886 491.392 67.6205C494.013 66.4853 497.686 65.7646 501.783 65.7646C505.879 65.7646 509.553 66.4853 512.173 67.6205C513.485 68.1886 514.499 68.8458 515.174 69.5374C515.846 70.2256 516.149 70.9087 516.149 71.5619Z" fill="white" stroke="#1C1C1C" stroke-width="1.5"/>
<path fill-rule="evenodd" clip-rule="evenodd" d="M517.667 71.6673C517.358 66.2962 509.723 64.5 500.35 64.5C498.452 64.5 496.624 64.6324 494.915 64.877C495.052 65.7039 495.471 66.4851 496.118 67.207C496.983 68.1714 498.253 69.0284 499.83 69.7453C502.998 71.1861 507.396 72.0549 512.255 72.0549C514.144 72.0549 515.963 71.919 517.667 71.6673Z" fill="#F8F9FC"/>
<path fill-rule="evenodd" clip-rule="evenodd" d="M523.667 61.5166V67.0265C522.236 68.2159 519.154 68.895 516.667 69.531V63.5202C519.154 62.8841 522.236 62.7062 523.667 61.5166Z" fill="#1F32D6"/>
<path d="M525.917 59.2285V63.4056C525.917 64.1219 525.618 64.8466 525 65.5637C524.331 66.3397 523.317 67.0712 522.003 67.7031C519.397 68.9561 515.743 69.7501 511.667 69.7501C507.558 69.7501 503.882 68.9719 501.274 67.718C499.976 67.094 498.977 66.3694 498.32 65.5942C497.714 64.8806 497.417 64.1475 497.417 63.4056V59.2285H525.917Z" stroke="#1C1C1C" stroke-width="1.5"/>
<path d="M525.917 58.5108C525.917 59.0686 525.638 59.6754 524.972 60.306C524.305 60.9382 523.299 61.542 521.994 62.0649C519.389 63.109 515.738 63.7716 511.667 63.7716C507.596 63.7716 503.945 63.109 501.339 62.0649C500.034 61.542 499.028 60.9382 498.361 60.306C497.696 59.6754 497.417 59.0686 497.417 58.5108C497.417 57.9531 497.696 57.3462 498.361 56.7156C499.028 56.0834 500.034 55.4796 501.339 54.9567C503.945 53.9126 507.596 53.25 511.667 53.25C515.738 53.25 519.389 53.9126 521.994 54.9567C523.299 55.4796 524.305 56.0834 524.972 56.7156C525.638 57.3462 525.917 57.9531 525.917 58.5108Z" fill="white" stroke="#1C1C1C" stroke-width="1.5"/>
<path d="M570.003 29.27V30.572H567.413V39H565.817V30.572H563.213V29.27H570.003ZM574.965 39.126C574.237 39.126 573.579 38.9627 572.991 38.636C572.403 38.3 571.941 37.8333 571.605 37.236C571.269 36.6293 571.101 35.9293 571.101 35.136C571.101 34.352 571.274 33.6567 571.619 33.05C571.964 32.4433 572.436 31.9767 573.033 31.65C573.63 31.3233 574.298 31.16 575.035 31.16C575.772 31.16 576.44 31.3233 577.037 31.65C577.634 31.9767 578.106 32.4433 578.451 33.05C578.796 33.6567 578.969 34.352 578.969 35.136C578.969 35.92 578.792 36.6153 578.437 37.222C578.082 37.8287 577.597 38.3 576.981 38.636C576.374 38.9627 575.702 39.126 574.965 39.126ZM574.965 37.74C575.376 37.74 575.758 37.642 576.113 37.446C576.477 37.25 576.771 36.956 576.995 36.564C577.219 36.172 577.331 35.696 577.331 35.136C577.331 34.576 577.224 34.1047 577.009 33.722C576.794 33.33 576.51 33.036 576.155 32.84C575.8 32.644 575.418 32.546 575.007 32.546C574.596 32.546 574.214 32.644 573.859 32.84C573.514 33.036 573.238 33.33 573.033 33.722C572.828 34.1047 572.725 34.576 572.725 35.136C572.725 35.9667 572.935 36.6107 573.355 37.068C573.784 37.516 574.321 37.74 574.965 37.74ZM582.409 32.588V36.858C582.409 37.1473 582.474 37.3573 582.605 37.488C582.745 37.6093 582.978 37.67 583.305 37.67H584.285V39H583.025C582.306 39 581.755 38.832 581.373 38.496C580.99 38.16 580.799 37.614 580.799 36.858V32.588H579.889V31.286H580.799V29.368H582.409V31.286H584.285V32.588H582.409ZM585.224 35.108C585.224 34.3333 585.382 33.6473 585.7 33.05C586.026 32.4527 586.465 31.9907 587.016 31.664C587.576 31.328 588.192 31.16 588.864 31.16C589.47 31.16 589.998 31.2813 590.446 31.524C590.903 31.7573 591.267 32.0513 591.538 32.406V31.286H593.148V39H591.538V37.852C591.267 38.216 590.898 38.5193 590.432 38.762C589.965 39.0047 589.433 39.126 588.836 39.126C588.173 39.126 587.566 38.958 587.016 38.622C586.465 38.2767 586.026 37.8007 585.7 37.194C585.382 36.578 585.224 35.8827 585.224 35.108ZM591.538 35.136C591.538 34.604 591.426 34.142 591.202 33.75C590.987 33.358 590.702 33.0593 590.348 32.854C589.993 32.6487 589.61 32.546 589.2 32.546C588.789 32.546 588.406 32.6487 588.052 32.854C587.697 33.05 587.408 33.344 587.184 33.736C586.969 34.1187 586.862 34.576 586.862 35.108C586.862 35.64 586.969 36.1067 587.184 36.508C587.408 36.9093 587.697 37.2173 588.052 37.432C588.416 37.6373 588.798 37.74 589.2 37.74C589.61 37.74 589.993 37.6373 590.348 37.432C590.702 37.2267 590.987 36.928 591.202 36.536C591.426 36.1347 591.538 35.668 591.538 35.136ZM596.84 28.64V39H595.244V28.64H596.84ZM605.75 29.27C606.786 29.27 607.691 29.4707 608.466 29.872C609.25 30.264 609.852 30.8333 610.272 31.58C610.701 32.3173 610.916 33.1807 610.916 34.17C610.916 35.1593 610.701 36.018 610.272 36.746C609.852 37.474 609.25 38.034 608.466 38.426C607.691 38.8087 606.786 39 605.75 39H602.572V29.27H605.75ZM605.75 37.698C606.889 37.698 607.761 37.39 608.368 36.774C608.975 36.158 609.278 35.29 609.278 34.17C609.278 33.0407 608.975 32.1587 608.368 31.524C607.761 30.8893 606.889 30.572 605.75 30.572H604.168V37.698H605.75ZM619.568 34.954C619.568 35.2433 619.549 35.5047 619.512 35.738H613.618C613.665 36.354 613.893 36.8487 614.304 37.222C614.715 37.5953 615.219 37.782 615.816 37.782C616.675 37.782 617.281 37.4227 617.636 36.704H619.358C619.125 37.4133 618.7 37.9967 618.084 38.454C617.477 38.902 616.721 39.126 615.816 39.126C615.079 39.126 614.416 38.9627 613.828 38.636C613.249 38.3 612.792 37.8333 612.456 37.236C612.129 36.6293 611.966 35.9293 611.966 35.136C611.966 34.3427 612.125 33.6473 612.442 33.05C612.769 32.4433 613.221 31.9767 613.8 31.65C614.388 31.3233 615.06 31.16 615.816 31.16C616.544 31.16 617.193 31.3187 617.762 31.636C618.331 31.9533 618.775 32.4013 619.092 32.98C619.409 33.5493 619.568 34.2073 619.568 34.954ZM617.902 34.45C617.893 33.862 617.683 33.3907 617.272 33.036C616.861 32.6813 616.353 32.504 615.746 32.504C615.195 32.504 614.724 32.6813 614.332 33.036C613.94 33.3813 613.707 33.8527 613.632 34.45H617.902ZM622.735 32.42C623.005 32.0653 623.374 31.7667 623.841 31.524C624.307 31.2813 624.835 31.16 625.423 31.16C626.095 31.16 626.706 31.328 627.257 31.664C627.817 31.9907 628.255 32.4527 628.573 33.05C628.89 33.6473 629.049 34.3333 629.049 35.108C629.049 35.8827 628.89 36.578 628.573 37.194C628.255 37.8007 627.817 38.2767 627.257 38.622C626.706 38.958 626.095 39.126 625.423 39.126C624.835 39.126 624.312 39.0093 623.855 38.776C623.397 38.5333 623.024 38.2347 622.735 37.88V42.668H621.139V31.286H622.735V32.42ZM627.425 35.108C627.425 34.576 627.313 34.1187 627.089 33.736C626.874 33.344 626.585 33.05 626.221 32.854C625.866 32.6487 625.483 32.546 625.073 32.546C624.671 32.546 624.289 32.6487 623.925 32.854C623.57 33.0593 623.281 33.358 623.057 33.75C622.842 34.142 622.735 34.604 622.735 35.136C622.735 35.668 622.842 36.1347 623.057 36.536C623.281 36.928 623.57 37.2267 623.925 37.432C624.289 37.6373 624.671 37.74 625.073 37.74C625.483 37.74 625.866 37.6373 626.221 37.432C626.585 37.2173 626.874 36.9093 627.089 36.508C627.313 36.1067 627.425 35.64 627.425 35.108ZM633.973 39.126C633.245 39.126 632.587 38.9627 631.999 38.636C631.411 38.3 630.949 37.8333 630.613 37.236C630.277 36.6293 630.109 35.9293 630.109 35.136C630.109 34.352 630.281 33.6567 630.627 33.05C630.972 32.4433 631.443 31.9767 632.041 31.65C632.638 31.3233 633.305 31.16 634.043 31.16C634.78 31.16 635.447 31.3233 636.045 31.65C636.642 31.9767 637.113 32.4433 637.459 33.05C637.804 33.6567 637.977 34.352 637.977 35.136C637.977 35.92 637.799 36.6153 637.445 37.222C637.09 37.8287 636.605 38.3 635.989 38.636C635.382 38.9627 634.71 39.126 633.973 39.126ZM633.973 37.74C634.383 37.74 634.766 37.642 635.121 37.446C635.485 37.25 635.779 36.956 636.003 36.564C636.227 36.172 636.339 35.696 636.339 35.136C636.339 34.576 636.231 34.1047 636.017 33.722C635.802 33.33 635.517 33.036 635.163 32.84C634.808 32.644 634.425 32.546 634.015 32.546C633.604 32.546 633.221 32.644 632.867 32.84C632.521 33.036 632.246 33.33 632.041 33.722C631.835 34.1047 631.733 34.576 631.733 35.136C631.733 35.9667 631.943 36.6107 632.363 37.068C632.792 37.516 633.329 37.74 633.973 37.74ZM642.355 39.126C641.748 39.126 641.202 39.0187 640.717 38.804C640.241 38.58 639.863 38.2813 639.583 37.908C639.303 37.5253 639.153 37.1007 639.135 36.634H640.787C640.815 36.9607 640.969 37.236 641.249 37.46C641.538 37.6747 641.897 37.782 642.327 37.782C642.775 37.782 643.12 37.698 643.363 37.53C643.615 37.3527 643.741 37.1287 643.741 36.858C643.741 36.5687 643.601 36.354 643.321 36.214C643.05 36.074 642.616 35.92 642.019 35.752C641.44 35.5933 640.969 35.4393 640.605 35.29C640.241 35.1407 639.923 34.912 639.653 34.604C639.391 34.296 639.261 33.89 639.261 33.386C639.261 32.9753 639.382 32.602 639.625 32.266C639.867 31.9207 640.213 31.65 640.661 31.454C641.118 31.258 641.641 31.16 642.229 31.16C643.106 31.16 643.811 31.384 644.343 31.832C644.884 32.2707 645.173 32.8727 645.211 33.638H643.615C643.587 33.2927 643.447 33.0173 643.195 32.812C642.943 32.6067 642.602 32.504 642.173 32.504C641.753 32.504 641.431 32.5833 641.207 32.742C640.983 32.9007 640.871 33.1107 640.871 33.372C640.871 33.5773 640.945 33.75 641.095 33.89C641.244 34.03 641.426 34.142 641.641 34.226C641.855 34.3007 642.173 34.3987 642.593 34.52C643.153 34.6693 643.61 34.8233 643.965 34.982C644.329 35.1313 644.641 35.3553 644.903 35.654C645.164 35.9527 645.299 36.3493 645.309 36.844C645.309 37.2827 645.187 37.6747 644.945 38.02C644.702 38.3653 644.357 38.636 643.909 38.832C643.47 39.028 642.952 39.126 642.355 39.126ZM647.845 30.264C647.556 30.264 647.313 30.166 647.117 29.97C646.921 29.774 646.823 29.5313 646.823 29.242C646.823 28.9527 646.921 28.71 647.117 28.514C647.313 28.318 647.556 28.22 647.845 28.22C648.125 28.22 648.363 28.318 648.559 28.514C648.755 28.71 648.853 28.9527 648.853 29.242C648.853 29.5313 648.755 29.774 648.559 29.97C648.363 30.166 648.125 30.264 647.845 30.264ZM648.629 31.286V39H647.033V31.286H648.629ZM652.586 32.588V36.858C652.586 37.1473 652.652 37.3573 652.782 37.488C652.922 37.6093 653.156 37.67 653.482 37.67H654.462V39H653.202C652.484 39 651.933 38.832 651.55 38.496C651.168 38.16 650.976 37.614 650.976 36.858V32.588H650.066V31.286H650.976V29.368H652.586V31.286H654.462V32.588H652.586ZM658.733 39.126C658.127 39.126 657.581 39.0187 657.095 38.804C656.619 38.58 656.241 38.2813 655.961 37.908C655.681 37.5253 655.532 37.1007 655.513 36.634H657.165C657.193 36.9607 657.347 37.236 657.627 37.46C657.917 37.6747 658.276 37.782 658.705 37.782C659.153 37.782 659.499 37.698 659.741 37.53C659.993 37.3527 660.119 37.1287 660.119 36.858C660.119 36.5687 659.979 36.354 659.699 36.214C659.429 36.074 658.995 35.92 658.397 35.752C657.819 35.5933 657.347 35.4393 656.983 35.29C656.619 35.1407 656.302 34.912 656.031 34.604C655.77 34.296 655.639 33.89 655.639 33.386C655.639 32.9753 655.761 32.602 656.003 32.266C656.246 31.9207 656.591 31.65 657.039 31.454C657.497 31.258 658.019 31.16 658.607 31.16C659.485 31.16 660.189 31.384 660.721 31.832C661.263 32.2707 661.552 32.8727 661.589 33.638H659.993C659.965 33.2927 659.825 33.0173 659.573 32.812C659.321 32.6067 658.981 32.504 658.551 32.504C658.131 32.504 657.809 32.5833 657.585 32.742C657.361 32.9007 657.249 33.1107 657.249 33.372C657.249 33.5773 657.324 33.75 657.473 33.89C657.623 34.03 657.805 34.142 658.019 34.226C658.234 34.3007 658.551 34.3987 658.971 34.52C659.531 34.6693 659.989 34.8233 660.343 34.982C660.707 35.1313 661.02 35.3553 661.281 35.654C661.543 35.9527 661.678 36.3493 661.687 36.844C661.687 37.2827 661.566 37.6747 661.323 38.02C661.081 38.3653 660.735 38.636 660.287 38.832C659.849 39.028 659.331 39.126 658.733 39.126Z" fill="#73798B"/>
<path d="M678.667 38.8002C679.109 38.8002 679.467 38.442 679.467 38.0002C679.467 37.5584 679.109 37.2002 678.667 37.2002C678.225 37.2002 677.867 37.5584 677.867 38.0002C677.867 38.442 678.225 38.8002 678.667 38.8002ZM678.667 29.2002C676.899 29.2002 675.467 30.6322 675.467 32.4002H677.067C677.067 31.5202 677.787 30.8002 678.667 30.8002C679.547 30.8002 680.267 31.5202 680.267 32.4002C680.267 34.0002 677.867 33.8002 677.867 36.4002H679.467C679.467 34.6002 681.867 34.4002 681.867 32.4002C681.867 30.6322 680.435 29.2002 678.667 29.2002Z" fill="#73798B"/>
<path fill-rule="evenodd" clip-rule="evenodd" d="M678.667 27.5C676.873 27.5 675.249 28.2272 674.071 29.4047C672.894 30.5822 672.167 32.2061 672.167 34C672.167 35.7939 672.894 37.4178 674.071 38.5953C675.249 39.7728 676.873 40.5 678.667 40.5C680.461 40.5 682.084 39.7728 683.262 38.5953C684.44 37.4178 685.167 35.7939 685.167 34C685.167 32.2061 684.439 30.5822 683.262 29.4047C682.084 28.2272 680.461 27.5 678.667 27.5ZM673.011 28.344C674.458 26.897 676.459 26 678.667 26C680.875 26 682.876 26.897 684.323 28.344C685.77 29.791 686.667 31.7919 686.667 34C686.667 36.2081 685.77 38.209 684.323 39.656C682.876 41.103 680.875 42 678.667 42C676.459 42 674.458 41.103 673.011 39.656C671.564 38.209 670.667 36.2081 670.667 34C670.667 31.7919 671.564 29.791 673.011 28.344Z" fill="#73798B"/>
<path d="M564.619 79.528V77.448H573.899C574.816 77.448 575.275 76.9893 575.275 76.072V74.088C575.275 73.2773 574.912 72.7973 574.187 72.648L568.363 71.496C565.867 71.0267 564.619 69.352 564.619 66.472V65.288C564.619 61.6827 566.261 59.88 569.547 59.88H570.283V56.04H573.547V59.88H576.683L578.571 61.352V63.432H569.931C569.013 63.432 568.555 63.8907 568.555 64.808V66.568C568.555 67.4 568.917 67.88 569.643 68.008L575.467 69.192C577.963 69.704 579.211 71.368 579.211 74.184V75.592C579.211 79.1973 577.568 81 574.283 81H573.547V84.84H570.283V81H566.507L564.619 79.528ZM583.279 79.528V77.448H592.559C593.476 77.448 593.935 76.9893 593.935 76.072V72.712C593.935 71.7947 593.476 71.336 592.559 71.336H585.647V67.784H592.559C593.476 67.784 593.935 67.3147 593.935 66.376V63.848C593.935 62.9307 593.476 62.472 592.559 62.472H583.599V60.392L585.487 58.92H592.655C596.132 58.92 597.871 60.6587 597.871 64.136V66.28C597.871 67.1333 597.604 67.8267 597.071 68.36L595.951 69.48L597.071 70.6C597.604 71.1333 597.871 71.8267 597.871 72.68V75.784C597.871 79.2613 596.132 81 592.655 81H585.167L583.279 79.528ZM601.459 62.472V58.92H616.371V65.352L608.147 81H604.659L604.179 80.168L612.435 64.52V62.472H601.459ZM618.999 85L620.855 76.84H624.471L624.855 77.448L621.783 85.672L618.999 85ZM628.326 79.528V77.448H638.246C639.163 77.448 639.622 76.9893 639.622 76.072V72.392C639.622 71.4747 639.163 71.016 638.246 71.016H628.646V58.92H642.598V62.472H632.582V67.464H638.342C641.819 67.464 643.558 69.2027 643.558 72.68V75.784C643.558 79.2613 641.819 81 638.342 81H630.214L628.326 79.528ZM647.146 75.784V64.136C647.146 60.6587 648.885 58.92 652.362 58.92H656.842C660.319 58.92 662.058 60.6587 662.058 64.136V75.784C662.058 79.2613 660.319 81 656.842 81H652.362C648.885 81 647.146 79.2613 647.146 75.784ZM651.082 76.072C651.082 76.9893 651.541 77.448 652.458 77.448H656.746C657.663 77.448 658.122 76.9893 658.122 76.072V63.848C658.122 62.9307 657.663 62.472 656.746 62.472H652.458C651.541 62.472 651.082 62.9307 651.082 63.848V76.072ZM665.646 75.784V64.136C665.646 60.6587 667.385 58.92 670.862 58.92H675.342C678.819 58.92 680.558 60.6587 680.558 64.136V75.784C680.558 79.2613 678.819 81 675.342 81H670.862C667.385 81 665.646 79.2613 665.646 75.784ZM669.582 76.072C669.582 76.9893 670.041 77.448 670.958 77.448H675.246C676.163 77.448 676.622 76.9893 676.622 76.072V63.848C676.622 62.9307 676.163 62.472 675.246 62.472H670.958C670.041 62.472 669.582 62.9307 669.582 63.848V76.072ZM683.186 85L685.042 76.84H688.658L689.042 77.448L685.97 85.672L683.186 85ZM692.834 75.784V64.136C692.834 60.6587 694.572 58.92 698.05 58.92H702.53C706.007 58.92 707.746 60.6587 707.746 64.136V75.784C707.746 79.2613 706.007 81 702.53 81H698.05C694.572 81 692.834 79.2613 692.834 75.784ZM696.77 76.072C696.77 76.9893 697.228 77.448 698.146 77.448H702.434C703.351 77.448 703.81 76.9893 703.81 76.072V63.848C703.81 62.9307 703.351 62.472 702.434 62.472H698.146C697.228 62.472 696.77 62.9307 696.77 63.848V76.072ZM711.334 75.784V64.136C711.334 60.6587 713.072 58.92 716.55 58.92H721.03C724.507 58.92 726.246 60.6587 726.246 64.136V75.784C726.246 79.2613 724.507 81 721.03 81H716.55C713.072 81 711.334 79.2613 711.334 75.784ZM715.27 76.072C715.27 76.9893 715.728 77.448 716.646 77.448H720.934C721.851 77.448 722.31 76.9893 722.31 76.072V63.848C722.31 62.9307 721.851 62.472 720.934 62.472H716.646C715.728 62.472 715.27 62.9307 715.27 63.848V76.072ZM729.834 75.784V64.136C729.834 60.6587 731.572 58.92 735.05 58.92H739.53C743.007 58.92 744.746 60.6587 744.746 64.136V75.784C744.746 79.2613 743.007 81 739.53 81H735.05C731.572 81 729.834 79.2613 729.834 75.784ZM733.77 76.072C733.77 76.9893 734.228 77.448 735.146 77.448H739.434C740.351 77.448 740.81 76.9893 740.81 76.072V63.848C740.81 62.9307 740.351 62.472 739.434 62.472H735.146C734.228 62.472 733.77 62.9307 733.77 63.848V76.072ZM748.814 81V76.84H752.974V81H748.814ZM757.021 75.784V64.136C757.021 60.6587 758.76 58.92 762.237 58.92H766.717C770.194 58.92 771.933 60.6587 771.933 64.136V75.784C771.933 79.2613 770.194 81 766.717 81H762.237C758.76 81 757.021 79.2613 757.021 75.784ZM760.957 76.072C760.957 76.9893 761.416 77.448 762.333 77.448H766.621C767.538 77.448 767.997 76.9893 767.997 76.072V63.848C767.997 62.9307 767.538 62.472 766.621 62.472H762.333C761.416 62.472 760.957 62.9307 760.957 63.848V76.072ZM775.521 75.784V64.136C775.521 60.6587 777.26 58.92 780.737 58.92H785.217C788.694 58.92 790.433 60.6587 790.433 64.136V75.784C790.433 79.2613 788.694 81 785.217 81H780.737C777.26 81 775.521 79.2613 775.521 75.784ZM779.457 76.072C779.457 76.9893 779.916 77.448 780.833 77.448H785.121C786.038 77.448 786.497 76.9893 786.497 76.072V63.848C786.497 62.9307 786.038 62.472 785.121 62.472H780.833C779.916 62.472 779.457 62.9307 779.457 63.848V76.072Z" fill="#1C1C1C"/>
<path d="M564.155 100.356C563.947 100.356 563.771 100.284 563.627 100.14C563.483 99.996 563.411 99.82 563.411 99.612C563.411 99.404 563.483 99.228 563.627 99.084C563.771 98.94 563.947 98.868 564.155 98.868C564.355 98.868 564.523 98.94 564.659 99.084C564.803 99.228 564.875 99.404 564.875 99.612C564.875 99.82 564.803 99.996 564.659 100.14C564.523 100.284 564.355 100.356 564.155 100.356ZM564.683 101.424V108H563.591V101.424H564.683ZM569.748 101.304C570.548 101.304 571.196 101.548 571.692 102.036C572.188 102.516 572.436 103.212 572.436 104.124V108H571.356V104.28C571.356 103.624 571.192 103.124 570.864 102.78C570.536 102.428 570.088 102.252 569.52 102.252C568.944 102.252 568.484 102.432 568.14 102.792C567.804 103.152 567.636 103.676 567.636 104.364V108H566.544V101.424H567.636V102.36C567.852 102.024 568.144 101.764 568.512 101.58C568.888 101.396 569.3 101.304 569.748 101.304ZM578.751 102.324V106.2C578.751 106.52 578.819 106.748 578.955 106.884C579.091 107.012 579.327 107.076 579.663 107.076H580.467V108H579.483C578.875 108 578.419 107.86 578.115 107.58C577.811 107.3 577.659 106.84 577.659 106.2V102.324H576.807V101.424H577.659V99.768H578.751V101.424H580.467V102.324H578.751ZM585.054 101.304C585.55 101.304 585.998 101.412 586.398 101.628C586.798 101.836 587.11 102.152 587.334 102.576C587.566 103 587.682 103.516 587.682 104.124V108H586.602V104.28C586.602 103.624 586.438 103.124 586.11 102.78C585.782 102.428 585.334 102.252 584.766 102.252C584.19 102.252 583.73 102.432 583.386 102.792C583.05 103.152 582.882 103.676 582.882 104.364V108H581.79V99.12H582.882V102.36C583.098 102.024 583.394 101.764 583.77 101.58C584.154 101.396 584.582 101.304 585.054 101.304ZM595.466 104.46C595.466 104.668 595.454 104.888 595.43 105.12H590.174C590.214 105.768 590.434 106.276 590.834 106.644C591.242 107.004 591.734 107.184 592.31 107.184C592.782 107.184 593.174 107.076 593.486 106.86C593.806 106.636 594.03 106.34 594.158 105.972H595.334C595.158 106.604 594.806 107.12 594.278 107.52C593.75 107.912 593.094 108.108 592.31 108.108C591.686 108.108 591.126 107.968 590.63 107.688C590.142 107.408 589.758 107.012 589.478 106.5C589.198 105.98 589.058 105.38 589.058 104.7C589.058 104.02 589.194 103.424 589.466 102.912C589.738 102.4 590.118 102.008 590.606 101.736C591.102 101.456 591.67 101.316 592.31 101.316C592.934 101.316 593.486 101.452 593.966 101.724C594.446 101.996 594.814 102.372 595.07 102.852C595.334 103.324 595.466 103.86 595.466 104.46ZM594.338 104.232C594.338 103.816 594.246 103.46 594.062 103.164C593.878 102.86 593.626 102.632 593.306 102.48C592.994 102.32 592.646 102.24 592.262 102.24C591.71 102.24 591.238 102.416 590.846 102.768C590.462 103.12 590.242 103.608 590.186 104.232H594.338ZM601.198 99.12V108H600.106V99.12H601.198ZM602.651 104.688C602.651 104.016 602.787 103.428 603.059 102.924C603.331 102.412 603.703 102.016 604.175 101.736C604.655 101.456 605.187 101.316 605.771 101.316C606.347 101.316 606.847 101.44 607.271 101.688C607.695 101.936 608.011 102.248 608.219 102.624V101.424H609.323V108H608.219V106.776C608.003 107.16 607.679 107.48 607.247 107.736C606.823 107.984 606.327 108.108 605.759 108.108C605.175 108.108 604.647 107.964 604.175 107.676C603.703 107.388 603.331 106.984 603.059 106.464C602.787 105.944 602.651 105.352 602.651 104.688ZM608.219 104.7C608.219 104.204 608.119 103.772 607.919 103.404C607.719 103.036 607.447 102.756 607.103 102.564C606.767 102.364 606.395 102.264 605.987 102.264C605.579 102.264 605.207 102.36 604.871 102.552C604.535 102.744 604.267 103.024 604.067 103.392C603.867 103.76 603.767 104.192 603.767 104.688C603.767 105.192 603.867 105.632 604.067 106.008C604.267 106.376 604.535 106.66 604.871 106.86C605.207 107.052 605.579 107.148 605.987 107.148C606.395 107.148 606.767 107.052 607.103 106.86C607.447 106.66 607.719 106.376 607.919 106.008C608.119 105.632 608.219 105.196 608.219 104.7ZM613.497 108.108C612.993 108.108 612.541 108.024 612.141 107.856C611.741 107.68 611.425 107.44 611.193 107.136C610.961 106.824 610.833 106.468 610.809 106.068H611.937C611.969 106.396 612.121 106.664 612.393 106.872C612.673 107.08 613.037 107.184 613.485 107.184C613.901 107.184 614.229 107.092 614.469 106.908C614.709 106.724 614.829 106.492 614.829 106.212C614.829 105.924 614.701 105.712 614.445 105.576C614.189 105.432 613.793 105.292 613.257 105.156C612.769 105.028 612.369 104.9 612.057 104.772C611.753 104.636 611.489 104.44 611.265 104.184C611.049 103.92 610.941 103.576 610.941 103.152C610.941 102.816 611.041 102.508 611.241 102.228C611.441 101.948 611.725 101.728 612.093 101.568C612.461 101.4 612.881 101.316 613.353 101.316C614.081 101.316 614.669 101.5 615.117 101.868C615.565 102.236 615.805 102.74 615.837 103.38H614.745C614.721 103.036 614.581 102.76 614.325 102.552C614.077 102.344 613.741 102.24 613.317 102.24C612.925 102.24 612.613 102.324 612.381 102.492C612.149 102.66 612.033 102.88 612.033 103.152C612.033 103.368 612.101 103.548 612.237 103.692C612.381 103.828 612.557 103.94 612.765 104.028C612.981 104.108 613.277 104.2 613.653 104.304C614.125 104.432 614.509 104.56 614.805 104.688C615.101 104.808 615.353 104.992 615.561 105.24C615.777 105.488 615.889 105.812 615.897 106.212C615.897 106.572 615.797 106.896 615.597 107.184C615.397 107.472 615.113 107.7 614.745 107.868C614.385 108.028 613.969 108.108 613.497 108.108ZM618.77 102.324V106.2C618.77 106.52 618.838 106.748 618.974 106.884C619.11 107.012 619.346 107.076 619.682 107.076H620.486V108H619.502C618.894 108 618.438 107.86 618.134 107.58C617.83 107.3 617.678 106.84 617.678 106.2V102.324H616.826V101.424H617.678V99.768H618.77V101.424H620.486V102.324H618.77ZM624.697 107.124C625.713 106.308 626.509 105.64 627.085 105.12C627.661 104.592 628.145 104.044 628.537 103.476C628.937 102.9 629.137 102.336 629.137 101.784C629.137 101.264 629.009 100.856 628.753 100.56C628.505 100.256 628.101 100.104 627.541 100.104C626.997 100.104 626.573 100.276 626.269 100.62C625.973 100.956 625.813 101.408 625.789 101.976H624.733C624.765 101.08 625.037 100.388 625.549 99.9C626.061 99.412 626.721 99.168 627.529 99.168C628.353 99.168 629.005 99.396 629.485 99.852C629.973 100.308 630.217 100.936 630.217 101.736C630.217 102.4 630.017 103.048 629.617 103.68C629.225 104.304 628.777 104.856 628.273 105.336C627.769 105.808 627.125 106.36 626.341 106.992H630.469V107.904H624.697V107.124ZM631.467 106.068V105.24L635.679 99.408H636.987V105.12H638.187V106.068H636.987V108H635.907V106.068H631.467ZM635.955 100.548L632.727 105.12H635.955V100.548ZM645.921 101.304C646.417 101.304 646.865 101.412 647.265 101.628C647.665 101.836 647.977 102.152 648.201 102.576C648.433 103 648.549 103.516 648.549 104.124V108H647.469V104.28C647.469 103.624 647.305 103.124 646.977 102.78C646.649 102.428 646.201 102.252 645.633 102.252C645.057 102.252 644.597 102.432 644.253 102.792C643.917 103.152 643.749 103.676 643.749 104.364V108H642.657V99.12H643.749V102.36C643.965 102.024 644.261 101.764 644.637 101.58C645.021 101.396 645.449 101.304 645.921 101.304ZM653.201 108.108C652.585 108.108 652.025 107.968 651.521 107.688C651.025 107.408 650.633 107.012 650.345 106.5C650.065 105.98 649.925 105.38 649.925 104.7C649.925 104.028 650.069 103.436 650.357 102.924C650.653 102.404 651.053 102.008 651.557 101.736C652.061 101.456 652.625 101.316 653.249 101.316C653.873 101.316 654.437 101.456 654.941 101.736C655.445 102.008 655.841 102.4 656.129 102.912C656.425 103.424 656.573 104.02 656.573 104.7C656.573 105.38 656.421 105.98 656.117 106.5C655.821 107.012 655.417 107.408 654.905 107.688C654.393 107.968 653.825 108.108 653.201 108.108ZM653.201 107.148C653.593 107.148 653.961 107.056 654.305 106.872C654.649 106.688 654.925 106.412 655.133 106.044C655.349 105.676 655.457 105.228 655.457 104.7C655.457 104.172 655.353 103.724 655.145 103.356C654.937 102.988 654.665 102.716 654.329 102.54C653.993 102.356 653.629 102.264 653.237 102.264C652.837 102.264 652.469 102.356 652.133 102.54C651.805 102.716 651.541 102.988 651.341 103.356C651.141 103.724 651.041 104.172 651.041 104.7C651.041 105.236 651.137 105.688 651.329 106.056C651.529 106.424 651.793 106.7 652.121 106.884C652.449 107.06 652.809 107.148 653.201 107.148ZM663.841 101.424V108H662.749V107.028C662.541 107.364 662.249 107.628 661.873 107.82C661.505 108.004 661.097 108.096 660.649 108.096C660.137 108.096 659.677 107.992 659.269 107.784C658.861 107.568 658.537 107.248 658.297 106.824C658.065 106.4 657.949 105.884 657.949 105.276V101.424H659.029V105.132C659.029 105.78 659.193 106.28 659.521 106.632C659.849 106.976 660.297 107.148 660.865 107.148C661.449 107.148 661.909 106.968 662.245 106.608C662.581 106.248 662.749 105.724 662.749 105.036V101.424H663.841ZM666.776 102.492C666.968 102.116 667.24 101.824 667.592 101.616C667.952 101.408 668.388 101.304 668.9 101.304V102.432H668.612C667.388 102.432 666.776 103.096 666.776 104.424V108H665.684V101.424H666.776V102.492ZM672.489 108.108C671.985 108.108 671.533 108.024 671.133 107.856C670.733 107.68 670.417 107.44 670.185 107.136C669.953 106.824 669.825 106.468 669.801 106.068H670.929C670.961 106.396 671.113 106.664 671.385 106.872C671.665 107.08 672.029 107.184 672.477 107.184C672.893 107.184 673.221 107.092 673.461 106.908C673.701 106.724 673.821 106.492 673.821 106.212C673.821 105.924 673.693 105.712 673.437 105.576C673.181 105.432 672.785 105.292 672.249 105.156C671.761 105.028 671.361 104.9 671.049 104.772C670.745 104.636 670.481 104.44 670.257 104.184C670.041 103.92 669.933 103.576 669.933 103.152C669.933 102.816 670.033 102.508 670.233 102.228C670.433 101.948 670.717 101.728 671.085 101.568C671.453 101.4 671.873 101.316 672.345 101.316C673.073 101.316 673.661 101.5 674.109 101.868C674.557 102.236 674.797 102.74 674.829 103.38H673.737C673.713 103.036 673.573 102.76 673.317 102.552C673.069 102.344 672.733 102.24 672.309 102.24C671.917 102.24 671.605 102.324 671.373 102.492C671.141 102.66 671.025 102.88 671.025 103.152C671.025 103.368 671.093 103.548 671.229 103.692C671.373 103.828 671.549 103.94 671.757 104.028C671.973 104.108 672.269 104.2 672.645 104.304C673.117 104.432 673.501 104.56 673.797 104.688C674.093 104.808 674.345 104.992 674.553 105.24C674.769 105.488 674.881 105.812 674.889 106.212C674.889 106.572 674.789 106.896 674.589 107.184C674.389 107.472 674.105 107.7 673.737 107.868C673.377 108.028 672.961 108.108 672.489 108.108Z" fill="#73798B"/>
<rect x="901.833" y="0.5" width="425.667" height="135" rx="9.5" fill="white"/>
<rect x="901.833" y="0.5" width="425.667" height="135" rx="9.5" stroke="#EDEEF3"/>
<rect x="925.333" y="36" width="64" height="64" rx="10" fill="#F8F9FC"/>
<path d="M965.406 74.2115C965.911 74.0768 966.394 73.9058 966.816 73.6835V76.4362C966.816 77.2003 966.587 77.9102 966.002 78.5782C965.325 79.3511 964.299 80.0801 962.968 80.7099C960.33 81.9586 956.631 82.7496 952.505 82.7496C948.347 82.7496 944.626 81.9744 941.986 80.7248C940.671 80.1028 939.66 79.3807 938.995 78.6086C938.383 77.8979 938.083 77.1702 938.083 76.4362V73.6793C938.51 73.9038 938.999 74.0762 939.512 74.2119C941.026 74.6126 942.998 74.7556 944.91 74.7788C946.835 74.8022 948.755 74.7041 950.189 74.6008C950.907 74.5491 951.505 74.4959 951.925 74.4556C952.135 74.4354 952.301 74.4185 952.414 74.4065C952.45 74.4027 952.48 74.3994 952.505 74.3967C952.53 74.3994 952.56 74.4027 952.595 74.4064C952.708 74.4184 952.872 74.4354 953.08 74.4555C953.497 74.4959 954.092 74.5491 954.804 74.6008C956.228 74.7041 958.133 74.8022 960.045 74.7788C961.943 74.7556 963.901 74.6125 965.406 74.2115Z" fill="white" stroke="#1C1C1C" stroke-width="1.5"/>
<path d="M966.816 71.5619C966.816 72.2151 966.513 72.8982 965.841 73.5864C965.166 74.278 964.152 74.9352 962.84 75.5033C960.219 76.6385 956.546 77.3591 952.449 77.3591C948.353 77.3591 944.68 76.6385 942.059 75.5033C940.747 74.9352 939.733 74.278 939.058 73.5864C938.386 72.8982 938.083 72.2151 938.083 71.5619C938.083 70.9087 938.386 70.2256 939.058 69.5374C939.733 68.8458 940.747 68.1886 942.059 67.6205C944.68 66.4853 948.353 65.7646 952.449 65.7646C956.546 65.7646 960.219 66.4853 962.84 67.6205C964.152 68.1886 965.166 68.8458 965.841 69.5374C966.513 70.2256 966.816 70.9087 966.816 71.5619Z" fill="white" stroke="#1C1C1C" stroke-width="1.5"/>
<path fill-rule="evenodd" clip-rule="evenodd" d="M968.334 71.6673C968.024 66.2962 960.39 64.5 951.017 64.5C949.118 64.5 947.291 64.6324 945.581 64.877C945.719 65.7039 946.137 66.4851 946.785 67.207C947.65 68.1714 948.92 69.0284 950.497 69.7453C953.665 71.1861 958.062 72.0549 962.922 72.0549C964.811 72.0549 966.63 71.919 968.334 71.6673Z" fill="#F8F9FC"/>
<path fill-rule="evenodd" clip-rule="evenodd" d="M974.333 61.5166V67.0265C972.902 68.2159 969.821 68.895 967.333 69.531V63.5202C969.821 62.8841 972.902 62.7062 974.333 61.5166Z" fill="#1F32D6"/>
<path d="M976.583 59.2285V63.4056C976.583 64.1219 976.284 64.8466 975.667 65.5637C974.998 66.3397 973.984 67.0712 972.67 67.7031C970.064 68.9561 966.41 69.7501 962.333 69.7501C958.225 69.7501 954.549 68.9719 951.941 67.718C950.643 67.094 949.644 66.3694 948.986 65.5942C948.381 64.8806 948.083 64.1475 948.083 63.4056V59.2285H976.583Z" stroke="#1C1C1C" stroke-width="1.5"/>
<path d="M976.583 58.5108C976.583 59.0686 976.304 59.6754 975.639 60.306C974.972 60.9382 973.966 61.542 972.661 62.0649C970.055 63.109 966.404 63.7716 962.333 63.7716C958.262 63.7716 954.611 63.109 952.006 62.0649C950.701 61.542 949.695 60.9382 949.028 60.306C948.362 59.6754 948.083 59.0686 948.083 58.5108C948.083 57.9531 948.362 57.3462 949.028 56.7156C949.695 56.0834 950.701 55.4796 952.006 54.9567C954.611 53.9126 958.262 53.25 962.333 53.25C966.404 53.25 970.055 53.9126 972.661 54.9567C973.966 55.4796 974.972 56.0834 975.639 56.7156C976.304 57.3462 976.583 57.9531 976.583 58.5108Z" fill="white" stroke="#1C1C1C" stroke-width="1.5"/>
<path d="M1020.67 29.27V30.572H1018.08V39H1016.48V30.572H1013.88V29.27H1020.67ZM1025.63 39.126C1024.9 39.126 1024.25 38.9627 1023.66 38.636C1023.07 38.3 1022.61 37.8333 1022.27 37.236C1021.94 36.6293 1021.77 35.9293 1021.77 35.136C1021.77 34.352 1021.94 33.6567 1022.29 33.05C1022.63 32.4433 1023.1 31.9767 1023.7 31.65C1024.3 31.3233 1024.96 31.16 1025.7 31.16C1026.44 31.16 1027.11 31.3233 1027.7 31.65C1028.3 31.9767 1028.77 32.4433 1029.12 33.05C1029.46 33.6567 1029.64 34.352 1029.64 35.136C1029.64 35.92 1029.46 36.6153 1029.1 37.222C1028.75 37.8287 1028.26 38.3 1027.65 38.636C1027.04 38.9627 1026.37 39.126 1025.63 39.126ZM1025.63 37.74C1026.04 37.74 1026.43 37.642 1026.78 37.446C1027.14 37.25 1027.44 36.956 1027.66 36.564C1027.89 36.172 1028 35.696 1028 35.136C1028 34.576 1027.89 34.1047 1027.68 33.722C1027.46 33.33 1027.18 33.036 1026.82 32.84C1026.47 32.644 1026.08 32.546 1025.67 32.546C1025.26 32.546 1024.88 32.644 1024.53 32.84C1024.18 33.036 1023.91 33.33 1023.7 33.722C1023.49 34.1047 1023.39 34.576 1023.39 35.136C1023.39 35.9667 1023.6 36.6107 1024.02 37.068C1024.45 37.516 1024.99 37.74 1025.63 37.74ZM1033.08 32.588V36.858C1033.08 37.1473 1033.14 37.3573 1033.27 37.488C1033.41 37.6093 1033.64 37.67 1033.97 37.67H1034.95V39H1033.69C1032.97 39 1032.42 38.832 1032.04 38.496C1031.66 38.16 1031.47 37.614 1031.47 36.858V32.588H1030.56V31.286H1031.47V29.368H1033.08V31.286H1034.95V32.588H1033.08ZM1035.89 35.108C1035.89 34.3333 1036.05 33.6473 1036.37 33.05C1036.69 32.4527 1037.13 31.9907 1037.68 31.664C1038.24 31.328 1038.86 31.16 1039.53 31.16C1040.14 31.16 1040.66 31.2813 1041.11 31.524C1041.57 31.7573 1041.93 32.0513 1042.2 32.406V31.286H1043.81V39H1042.2V37.852C1041.93 38.216 1041.57 38.5193 1041.1 38.762C1040.63 39.0047 1040.1 39.126 1039.5 39.126C1038.84 39.126 1038.23 38.958 1037.68 38.622C1037.13 38.2767 1036.69 37.8007 1036.37 37.194C1036.05 36.578 1035.89 35.8827 1035.89 35.108ZM1042.2 35.136C1042.2 34.604 1042.09 34.142 1041.87 33.75C1041.65 33.358 1041.37 33.0593 1041.01 32.854C1040.66 32.6487 1040.28 32.546 1039.87 32.546C1039.46 32.546 1039.07 32.6487 1038.72 32.854C1038.36 33.05 1038.07 33.344 1037.85 33.736C1037.64 34.1187 1037.53 34.576 1037.53 35.108C1037.53 35.64 1037.64 36.1067 1037.85 36.508C1038.07 36.9093 1038.36 37.2173 1038.72 37.432C1039.08 37.6373 1039.47 37.74 1039.87 37.74C1040.28 37.74 1040.66 37.6373 1041.01 37.432C1041.37 37.2267 1041.65 36.928 1041.87 36.536C1042.09 36.1347 1042.2 35.668 1042.2 35.136ZM1047.51 28.64V39H1045.91V28.64H1047.51ZM1065.91 29.27L1063.02 39H1061.22L1059.17 31.636L1057 39L1055.21 39.014L1052.45 29.27H1054.15L1056.16 37.194L1058.35 29.27H1060.14L1062.17 37.152L1064.2 29.27H1065.91ZM1068.04 30.264C1067.75 30.264 1067.51 30.166 1067.31 29.97C1067.11 29.774 1067.02 29.5313 1067.02 29.242C1067.02 28.9527 1067.11 28.71 1067.31 28.514C1067.51 28.318 1067.75 28.22 1068.04 28.22C1068.32 28.22 1068.56 28.318 1068.75 28.514C1068.95 28.71 1069.05 28.9527 1069.05 29.242C1069.05 29.5313 1068.95 29.774 1068.75 29.97C1068.56 30.166 1068.32 30.264 1068.04 30.264ZM1068.82 31.286V39H1067.23V31.286H1068.82ZM1072.78 32.588V36.858C1072.78 37.1473 1072.84 37.3573 1072.97 37.488C1073.11 37.6093 1073.35 37.67 1073.67 37.67H1074.65V39H1073.39C1072.68 39 1072.13 38.832 1071.74 38.496C1071.36 38.16 1071.17 37.614 1071.17 36.858V32.588H1070.26V31.286H1071.17V29.368H1072.78V31.286H1074.65V32.588H1072.78ZM1080.12 31.16C1080.7 31.16 1081.23 31.286 1081.68 31.538C1082.15 31.79 1082.51 32.1633 1082.78 32.658C1083.05 33.1527 1083.18 33.75 1083.18 34.45V39H1081.6V34.688C1081.6 33.9973 1081.43 33.47 1081.08 33.106C1080.74 32.7327 1080.26 32.546 1079.67 32.546C1079.07 32.546 1078.59 32.7327 1078.24 33.106C1077.89 33.47 1077.72 33.9973 1077.72 34.688V39H1076.13V28.64H1077.72V32.182C1077.99 31.8553 1078.33 31.6033 1078.74 31.426C1079.16 31.2487 1079.62 31.16 1080.12 31.16ZM1084.69 35.108C1084.69 34.3333 1084.84 33.6473 1085.16 33.05C1085.49 32.4527 1085.93 31.9907 1086.48 31.664C1087.04 31.328 1087.66 31.16 1088.34 31.16C1088.84 31.16 1089.34 31.272 1089.82 31.496C1090.32 31.7107 1090.71 32 1091 32.364V28.64H1092.61V39H1091V37.838C1090.74 38.2113 1090.37 38.5193 1089.91 38.762C1089.45 39.0047 1088.92 39.126 1088.33 39.126C1087.65 39.126 1087.04 38.958 1086.48 38.622C1085.93 38.2767 1085.49 37.8007 1085.16 37.194C1084.84 36.578 1084.69 35.8827 1084.69 35.108ZM1091 35.136C1091 34.604 1090.89 34.142 1090.66 33.75C1090.45 33.358 1090.16 33.0593 1089.81 32.854C1089.45 32.6487 1089.07 32.546 1088.66 32.546C1088.25 32.546 1087.87 32.6487 1087.51 32.854C1087.16 33.05 1086.87 33.344 1086.65 33.736C1086.43 34.1187 1086.32 34.576 1086.32 35.108C1086.32 35.64 1086.43 36.1067 1086.65 36.508C1086.87 36.9093 1087.16 37.2173 1087.51 37.432C1087.88 37.6373 1088.26 37.74 1088.66 37.74C1089.07 37.74 1089.45 37.6373 1089.81 37.432C1090.16 37.2267 1090.45 36.928 1090.66 36.536C1090.89 36.1347 1091 35.668 1091 35.136ZM1096.3 32.406C1096.53 32.014 1096.84 31.7107 1097.23 31.496C1097.62 31.272 1098.08 31.16 1098.61 31.16V32.812H1098.21C1097.58 32.812 1097.1 32.9707 1096.78 33.288C1096.46 33.6053 1096.3 34.156 1096.3 34.94V39H1094.71V31.286H1096.3V32.406ZM1099.55 35.108C1099.55 34.3333 1099.71 33.6473 1100.02 33.05C1100.35 32.4527 1100.79 31.9907 1101.34 31.664C1101.9 31.328 1102.51 31.16 1103.19 31.16C1103.79 31.16 1104.32 31.2813 1104.77 31.524C1105.23 31.7573 1105.59 32.0513 1105.86 32.406V31.286H1107.47V39H1105.86V37.852C1105.59 38.216 1105.22 38.5193 1104.75 38.762C1104.29 39.0047 1103.76 39.126 1103.16 39.126C1102.5 39.126 1101.89 38.958 1101.34 38.622C1100.79 38.2767 1100.35 37.8007 1100.02 37.194C1099.71 36.578 1099.55 35.8827 1099.55 35.108ZM1105.86 35.136C1105.86 34.604 1105.75 34.142 1105.52 33.75C1105.31 33.358 1105.03 33.0593 1104.67 32.854C1104.32 32.6487 1103.93 32.546 1103.52 32.546C1103.11 32.546 1102.73 32.6487 1102.37 32.854C1102.02 33.05 1101.73 33.344 1101.51 33.736C1101.29 34.1187 1101.18 34.576 1101.18 35.108C1101.18 35.64 1101.29 36.1067 1101.51 36.508C1101.73 36.9093 1102.02 37.2173 1102.37 37.432C1102.74 37.6373 1103.12 37.74 1103.52 37.74C1103.93 37.74 1104.32 37.6373 1104.67 37.432C1105.03 37.2267 1105.31 36.928 1105.52 36.536C1105.75 36.1347 1105.86 35.668 1105.86 35.136ZM1119.93 31.286L1117.53 39H1115.85L1114.3 33.302L1112.74 39H1111.06L1108.66 31.286H1110.28L1111.89 37.488L1113.53 31.286H1115.19L1116.76 37.46L1118.36 31.286H1119.93ZM1120.59 35.108C1120.59 34.3333 1120.75 33.6473 1121.06 33.05C1121.39 32.4527 1121.83 31.9907 1122.38 31.664C1122.94 31.328 1123.56 31.16 1124.23 31.16C1124.83 31.16 1125.36 31.2813 1125.81 31.524C1126.27 31.7573 1126.63 32.0513 1126.9 32.406V31.286H1128.51V39H1126.9V37.852C1126.63 38.216 1126.26 38.5193 1125.8 38.762C1125.33 39.0047 1124.8 39.126 1124.2 39.126C1123.54 39.126 1122.93 38.958 1122.38 38.622C1121.83 38.2767 1121.39 37.8007 1121.06 37.194C1120.75 36.578 1120.59 35.8827 1120.59 35.108ZM1126.9 35.136C1126.9 34.604 1126.79 34.142 1126.57 33.75C1126.35 33.358 1126.07 33.0593 1125.71 32.854C1125.36 32.6487 1124.97 32.546 1124.56 32.546C1124.15 32.546 1123.77 32.6487 1123.42 32.854C1123.06 33.05 1122.77 33.344 1122.55 33.736C1122.33 34.1187 1122.23 34.576 1122.23 35.108C1122.23 35.64 1122.33 36.1067 1122.55 36.508C1122.77 36.9093 1123.06 37.2173 1123.42 37.432C1123.78 37.6373 1124.16 37.74 1124.56 37.74C1124.97 37.74 1125.36 37.6373 1125.71 37.432C1126.07 37.2267 1126.35 36.928 1126.57 36.536C1126.79 36.1347 1126.9 35.668 1126.9 35.136ZM1132.2 28.64V39H1130.61V28.64H1132.2ZM1137.1 39.126C1136.49 39.126 1135.95 39.0187 1135.46 38.804C1134.99 38.58 1134.61 38.2813 1134.33 37.908C1134.05 37.5253 1133.9 37.1007 1133.88 36.634H1135.53C1135.56 36.9607 1135.71 37.236 1135.99 37.46C1136.28 37.6747 1136.64 37.782 1137.07 37.782C1137.52 37.782 1137.86 37.698 1138.11 37.53C1138.36 37.3527 1138.49 37.1287 1138.49 36.858C1138.49 36.5687 1138.35 36.354 1138.07 36.214C1137.79 36.074 1137.36 35.92 1136.76 35.752C1136.18 35.5933 1135.71 35.4393 1135.35 35.29C1134.99 35.1407 1134.67 34.912 1134.4 34.604C1134.14 34.296 1134.01 33.89 1134.01 33.386C1134.01 32.9753 1134.13 32.602 1134.37 32.266C1134.61 31.9207 1134.96 31.65 1135.41 31.454C1135.86 31.258 1136.39 31.16 1136.97 31.16C1137.85 31.16 1138.56 31.384 1139.09 31.832C1139.63 32.2707 1139.92 32.8727 1139.96 33.638H1138.36C1138.33 33.2927 1138.19 33.0173 1137.94 32.812C1137.69 32.6067 1137.35 32.504 1136.92 32.504C1136.5 32.504 1136.18 32.5833 1135.95 32.742C1135.73 32.9007 1135.62 33.1107 1135.62 33.372C1135.62 33.5773 1135.69 33.75 1135.84 33.89C1135.99 34.03 1136.17 34.142 1136.39 34.226C1136.6 34.3007 1136.92 34.3987 1137.34 34.52C1137.9 34.6693 1138.35 34.8233 1138.71 34.982C1139.07 35.1313 1139.39 35.3553 1139.65 35.654C1139.91 35.9527 1140.04 36.3493 1140.05 36.844C1140.05 37.2827 1139.93 37.6747 1139.69 38.02C1139.45 38.3653 1139.1 38.636 1138.65 38.832C1138.21 39.028 1137.7 39.126 1137.1 39.126Z" fill="#73798B"/>
<path d="M1157.33 38.8002C1157.78 38.8002 1158.13 38.442 1158.13 38.0002C1158.13 37.5584 1157.78 37.2002 1157.33 37.2002C1156.89 37.2002 1156.53 37.5584 1156.53 38.0002C1156.53 38.442 1156.89 38.8002 1157.33 38.8002ZM1157.33 29.2002C1155.57 29.2002 1154.13 30.6322 1154.13 32.4002H1155.73C1155.73 31.5202 1156.45 30.8002 1157.33 30.8002C1158.21 30.8002 1158.93 31.5202 1158.93 32.4002C1158.93 34.0002 1156.53 33.8002 1156.53 36.4002H1158.13C1158.13 34.6002 1160.53 34.4002 1160.53 32.4002C1160.53 30.6322 1159.1 29.2002 1157.33 29.2002Z" fill="#73798B"/>
<path fill-rule="evenodd" clip-rule="evenodd" d="M1157.33 27.5C1155.54 27.5 1153.92 28.2272 1152.74 29.4047C1151.56 30.5822 1150.83 32.2061 1150.83 34C1150.83 35.7939 1151.56 37.4178 1152.74 38.5953C1153.92 39.7728 1155.54 40.5 1157.33 40.5C1159.13 40.5 1160.75 39.7728 1161.93 38.5953C1163.11 37.4178 1163.83 35.7939 1163.83 34C1163.83 32.2061 1163.11 30.5822 1161.93 29.4047C1160.75 28.2272 1159.13 27.5 1157.33 27.5ZM1151.68 28.344C1153.12 26.897 1155.13 26 1157.33 26C1159.54 26 1161.54 26.897 1162.99 28.344C1164.44 29.791 1165.33 31.7919 1165.33 34C1165.33 36.2081 1164.44 38.209 1162.99 39.656C1161.54 41.103 1159.54 42 1157.33 42C1155.13 42 1153.12 41.103 1151.68 39.656C1150.23 38.209 1149.33 36.2081 1149.33 34C1149.33 31.7919 1150.23 29.791 1151.68 28.344Z" fill="#73798B"/>
<path d="M1015.29 79.528V77.448H1024.57C1025.48 77.448 1025.94 76.9893 1025.94 76.072V74.088C1025.94 73.2773 1025.58 72.7973 1024.85 72.648L1019.03 71.496C1016.53 71.0267 1015.29 69.352 1015.29 66.472V65.288C1015.29 61.6827 1016.93 59.88 1020.21 59.88H1020.95V56.04H1024.21V59.88H1027.35L1029.24 61.352V63.432H1020.6C1019.68 63.432 1019.22 63.8907 1019.22 64.808V66.568C1019.22 67.4 1019.58 67.88 1020.31 68.008L1026.13 69.192C1028.63 69.704 1029.88 71.368 1029.88 74.184V75.592C1029.88 79.1973 1028.23 81 1024.95 81H1024.21V84.84H1020.95V81H1017.17L1015.29 79.528ZM1033.63 81V73.992C1033.63 71.1547 1034.87 69.48 1037.37 68.968L1043.51 67.72C1044.24 67.5707 1044.6 67.0907 1044.6 66.28V63.848C1044.6 62.9307 1044.14 62.472 1043.23 62.472H1034.27V60.392L1036.15 58.92H1043.32C1046.8 58.92 1048.54 60.6587 1048.54 64.136V66.184C1048.54 69.0213 1047.29 70.696 1044.79 71.208L1038.65 72.456C1037.92 72.6053 1037.56 73.0853 1037.56 73.896V77.448H1048.54V81H1033.63ZM1052.13 67.24V64.136C1052.13 60.6587 1053.86 58.92 1057.34 58.92H1061.82C1065.3 58.92 1067.04 60.6587 1067.04 64.136V74.76C1067.04 78.92 1064.95 81 1060.77 81H1054.97L1053.09 79.528V77.448H1060.89C1062.37 77.448 1063.1 76.712 1063.1 75.24V72.456H1057.34C1053.86 72.456 1052.13 70.7173 1052.13 67.24ZM1056.06 67.496C1056.06 68.4347 1056.52 68.904 1057.44 68.904H1063.1V63.848C1063.1 62.9307 1062.64 62.472 1061.73 62.472H1057.44C1056.52 62.472 1056.06 62.9307 1056.06 63.848V67.496ZM1069.67 85L1071.52 76.84H1075.14L1075.52 77.448L1072.45 85.672L1069.67 85ZM1080.21 81V77.448H1085.33V62.472H1081.14V60.392L1083.02 58.92H1089.23V77.448H1093.84V81H1080.21ZM1097.81 75.784V64.136C1097.81 60.6587 1099.55 58.92 1103.03 58.92H1107.51C1110.99 58.92 1112.72 60.6587 1112.72 64.136V75.784C1112.72 79.2613 1110.99 81 1107.51 81H1103.03C1099.55 81 1097.81 79.2613 1097.81 75.784ZM1101.75 76.072C1101.75 76.9893 1102.21 77.448 1103.12 77.448H1107.41C1108.33 77.448 1108.79 76.9893 1108.79 76.072V63.848C1108.79 62.9307 1108.33 62.472 1107.41 62.472H1103.12C1102.21 62.472 1101.75 62.9307 1101.75 63.848V76.072ZM1116.31 75.784V64.136C1116.31 60.6587 1118.05 58.92 1121.53 58.92H1126.01C1129.49 58.92 1131.22 60.6587 1131.22 64.136V75.784C1131.22 79.2613 1129.49 81 1126.01 81H1121.53C1118.05 81 1116.31 79.2613 1116.31 75.784ZM1120.25 76.072C1120.25 76.9893 1120.71 77.448 1121.62 77.448H1125.91C1126.83 77.448 1127.29 76.9893 1127.29 76.072V63.848C1127.29 62.9307 1126.83 62.472 1125.91 62.472H1121.62C1120.71 62.472 1120.25 62.9307 1120.25 63.848V76.072ZM1133.85 85L1135.71 76.84H1139.32L1139.71 77.448L1136.64 85.672L1133.85 85ZM1143.5 75.784V64.136C1143.5 60.6587 1145.24 58.92 1148.72 58.92H1153.2C1156.67 58.92 1158.41 60.6587 1158.41 64.136V75.784C1158.41 79.2613 1156.67 81 1153.2 81H1148.72C1145.24 81 1143.5 79.2613 1143.5 75.784ZM1147.44 76.072C1147.44 76.9893 1147.9 77.448 1148.81 77.448H1153.1C1154.02 77.448 1154.48 76.9893 1154.48 76.072V63.848C1154.48 62.9307 1154.02 62.472 1153.1 62.472H1148.81C1147.9 62.472 1147.44 62.9307 1147.44 63.848V76.072ZM1162 75.784V64.136C1162 60.6587 1163.74 58.92 1167.22 58.92H1171.7C1175.17 58.92 1176.91 60.6587 1176.91 64.136V75.784C1176.91 79.2613 1175.17 81 1171.7 81H1167.22C1163.74 81 1162 79.2613 1162 75.784ZM1165.94 76.072C1165.94 76.9893 1166.4 77.448 1167.31 77.448H1171.6C1172.52 77.448 1172.98 76.9893 1172.98 76.072V63.848C1172.98 62.9307 1172.52 62.472 1171.6 62.472H1167.31C1166.4 62.472 1165.94 62.9307 1165.94 63.848V76.072ZM1180.5 75.784V64.136C1180.5 60.6587 1182.24 58.92 1185.72 58.92H1190.2C1193.67 58.92 1195.41 60.6587 1195.41 64.136V75.784C1195.41 79.2613 1193.67 81 1190.2 81H1185.72C1182.24 81 1180.5 79.2613 1180.5 75.784ZM1184.44 76.072C1184.44 76.9893 1184.9 77.448 1185.81 77.448H1190.1C1191.02 77.448 1191.48 76.9893 1191.48 76.072V63.848C1191.48 62.9307 1191.02 62.472 1190.1 62.472H1185.81C1184.9 62.472 1184.44 62.9307 1184.44 63.848V76.072ZM1199.48 81V76.84H1203.64V81H1199.48ZM1207.69 75.784V64.136C1207.69 60.6587 1209.43 58.92 1212.9 58.92H1217.38C1220.86 58.92 1222.6 60.6587 1222.6 64.136V75.784C1222.6 79.2613 1220.86 81 1217.38 81H1212.9C1209.43 81 1207.69 79.2613 1207.69 75.784ZM1211.62 76.072C1211.62 76.9893 1212.08 77.448 1213 77.448H1217.29C1218.21 77.448 1218.66 76.9893 1218.66 76.072V63.848C1218.66 62.9307 1218.21 62.472 1217.29 62.472H1213C1212.08 62.472 1211.62 62.9307 1211.62 63.848V76.072ZM1226.19 75.784V64.136C1226.19 60.6587 1227.93 58.92 1231.4 58.92H1235.88C1239.36 58.92 1241.1 60.6587 1241.1 64.136V75.784C1241.1 79.2613 1239.36 81 1235.88 81H1231.4C1227.93 81 1226.19 79.2613 1226.19 75.784ZM1230.12 76.072C1230.12 76.9893 1230.58 77.448 1231.5 77.448H1235.79C1236.71 77.448 1237.16 76.9893 1237.16 76.072V63.848C1237.16 62.9307 1236.71 62.472 1235.79 62.472H1231.5C1230.58 62.472 1230.12 62.9307 1230.12 63.848V76.072Z" fill="#1C1C1C"/>
<path d="M1014.82 100.356C1014.61 100.356 1014.44 100.284 1014.29 100.14C1014.15 99.996 1014.08 99.82 1014.08 99.612C1014.08 99.404 1014.15 99.228 1014.29 99.084C1014.44 98.94 1014.61 98.868 1014.82 98.868C1015.02 98.868 1015.19 98.94 1015.33 99.084C1015.47 99.228 1015.54 99.404 1015.54 99.612C1015.54 99.82 1015.47 99.996 1015.33 100.14C1015.19 100.284 1015.02 100.356 1014.82 100.356ZM1015.35 101.424V108H1014.26V101.424H1015.35ZM1020.41 101.304C1021.21 101.304 1021.86 101.548 1022.36 102.036C1022.85 102.516 1023.1 103.212 1023.1 104.124V108H1022.02V104.28C1022.02 103.624 1021.86 103.124 1021.53 102.78C1021.2 102.428 1020.75 102.252 1020.19 102.252C1019.61 102.252 1019.15 102.432 1018.81 102.792C1018.47 103.152 1018.3 103.676 1018.3 104.364V108H1017.21V101.424H1018.3V102.36C1018.52 102.024 1018.81 101.764 1019.18 101.58C1019.55 101.396 1019.97 101.304 1020.41 101.304ZM1029.42 102.324V106.2C1029.42 106.52 1029.49 106.748 1029.62 106.884C1029.76 107.012 1029.99 107.076 1030.33 107.076H1031.13V108H1030.15C1029.54 108 1029.09 107.86 1028.78 107.58C1028.48 107.3 1028.33 106.84 1028.33 106.2V102.324H1027.47V101.424H1028.33V99.768H1029.42V101.424H1031.13V102.324H1029.42ZM1035.72 101.304C1036.22 101.304 1036.66 101.412 1037.06 101.628C1037.46 101.836 1037.78 102.152 1038 102.576C1038.23 103 1038.35 103.516 1038.35 104.124V108H1037.27V104.28C1037.27 103.624 1037.1 103.124 1036.78 102.78C1036.45 102.428 1036 102.252 1035.43 102.252C1034.86 102.252 1034.4 102.432 1034.05 102.792C1033.72 103.152 1033.55 103.676 1033.55 104.364V108H1032.46V99.12H1033.55V102.36C1033.76 102.024 1034.06 101.764 1034.44 101.58C1034.82 101.396 1035.25 101.304 1035.72 101.304ZM1046.13 104.46C1046.13 104.668 1046.12 104.888 1046.1 105.12H1040.84C1040.88 105.768 1041.1 106.276 1041.5 106.644C1041.91 107.004 1042.4 107.184 1042.98 107.184C1043.45 107.184 1043.84 107.076 1044.15 106.86C1044.47 106.636 1044.7 106.34 1044.82 105.972H1046C1045.82 106.604 1045.47 107.12 1044.94 107.52C1044.42 107.912 1043.76 108.108 1042.98 108.108C1042.35 108.108 1041.79 107.968 1041.3 107.688C1040.81 107.408 1040.42 107.012 1040.14 106.5C1039.86 105.98 1039.72 105.38 1039.72 104.7C1039.72 104.02 1039.86 103.424 1040.13 102.912C1040.4 102.4 1040.78 102.008 1041.27 101.736C1041.77 101.456 1042.34 101.316 1042.98 101.316C1043.6 101.316 1044.15 101.452 1044.63 101.724C1045.11 101.996 1045.48 102.372 1045.74 102.852C1046 103.324 1046.13 103.86 1046.13 104.46ZM1045 104.232C1045 103.816 1044.91 103.46 1044.73 103.164C1044.54 102.86 1044.29 102.632 1043.97 102.48C1043.66 102.32 1043.31 102.24 1042.93 102.24C1042.38 102.24 1041.9 102.416 1041.51 102.768C1041.13 103.12 1040.91 103.608 1040.85 104.232H1045ZM1051.86 99.12V108H1050.77V99.12H1051.86ZM1053.32 104.688C1053.32 104.016 1053.45 103.428 1053.73 102.924C1054 102.412 1054.37 102.016 1054.84 101.736C1055.32 101.456 1055.85 101.316 1056.44 101.316C1057.01 101.316 1057.51 101.44 1057.94 101.688C1058.36 101.936 1058.68 102.248 1058.89 102.624V101.424H1059.99V108H1058.89V106.776C1058.67 107.16 1058.35 107.48 1057.91 107.736C1057.49 107.984 1056.99 108.108 1056.43 108.108C1055.84 108.108 1055.31 107.964 1054.84 107.676C1054.37 107.388 1054 106.984 1053.73 106.464C1053.45 105.944 1053.32 105.352 1053.32 104.688ZM1058.89 104.7C1058.89 104.204 1058.79 103.772 1058.59 103.404C1058.39 103.036 1058.11 102.756 1057.77 102.564C1057.43 102.364 1057.06 102.264 1056.65 102.264C1056.25 102.264 1055.87 102.36 1055.54 102.552C1055.2 102.744 1054.93 103.024 1054.73 103.392C1054.53 103.76 1054.43 104.192 1054.43 104.688C1054.43 105.192 1054.53 105.632 1054.73 106.008C1054.93 106.376 1055.2 106.66 1055.54 106.86C1055.87 107.052 1056.25 107.148 1056.65 107.148C1057.06 107.148 1057.43 107.052 1057.77 106.86C1058.11 106.66 1058.39 106.376 1058.59 106.008C1058.79 105.632 1058.89 105.196 1058.89 104.7ZM1064.16 108.108C1063.66 108.108 1063.21 108.024 1062.81 107.856C1062.41 107.68 1062.09 107.44 1061.86 107.136C1061.63 106.824 1061.5 106.468 1061.48 106.068H1062.6C1062.64 106.396 1062.79 106.664 1063.06 106.872C1063.34 107.08 1063.7 107.184 1064.15 107.184C1064.57 107.184 1064.9 107.092 1065.14 106.908C1065.38 106.724 1065.5 106.492 1065.5 106.212C1065.5 105.924 1065.37 105.712 1065.11 105.576C1064.86 105.432 1064.46 105.292 1063.92 105.156C1063.44 105.028 1063.04 104.9 1062.72 104.772C1062.42 104.636 1062.16 104.44 1061.93 104.184C1061.72 103.92 1061.61 103.576 1061.61 103.152C1061.61 102.816 1061.71 102.508 1061.91 102.228C1062.11 101.948 1062.39 101.728 1062.76 101.568C1063.13 101.4 1063.55 101.316 1064.02 101.316C1064.75 101.316 1065.34 101.5 1065.78 101.868C1066.23 102.236 1066.47 102.74 1066.5 103.38H1065.41C1065.39 103.036 1065.25 102.76 1064.99 102.552C1064.74 102.344 1064.41 102.24 1063.98 102.24C1063.59 102.24 1063.28 102.324 1063.05 102.492C1062.82 102.66 1062.7 102.88 1062.7 103.152C1062.7 103.368 1062.77 103.548 1062.9 103.692C1063.05 103.828 1063.22 103.94 1063.43 104.028C1063.65 104.108 1063.94 104.2 1064.32 104.304C1064.79 104.432 1065.18 104.56 1065.47 104.688C1065.77 104.808 1066.02 104.992 1066.23 105.24C1066.44 105.488 1066.56 105.812 1066.56 106.212C1066.56 106.572 1066.46 106.896 1066.26 107.184C1066.06 107.472 1065.78 107.7 1065.41 107.868C1065.05 108.028 1064.64 108.108 1064.16 108.108ZM1069.44 102.324V106.2C1069.44 106.52 1069.51 106.748 1069.64 106.884C1069.78 107.012 1070.01 107.076 1070.35 107.076H1071.15V108H1070.17C1069.56 108 1069.11 107.86 1068.8 107.58C1068.5 107.3 1068.35 106.84 1068.35 106.2V102.324H1067.49V101.424H1068.35V99.768H1069.44V101.424H1071.15V102.324H1069.44ZM1075.36 107.124C1076.38 106.308 1077.18 105.64 1077.75 105.12C1078.33 104.592 1078.81 104.044 1079.2 103.476C1079.6 102.9 1079.8 102.336 1079.8 101.784C1079.8 101.264 1079.68 100.856 1079.42 100.56C1079.17 100.256 1078.77 100.104 1078.21 100.104C1077.66 100.104 1077.24 100.276 1076.94 100.62C1076.64 100.956 1076.48 101.408 1076.46 101.976H1075.4C1075.43 101.08 1075.7 100.388 1076.22 99.9C1076.73 99.412 1077.39 99.168 1078.2 99.168C1079.02 99.168 1079.67 99.396 1080.15 99.852C1080.64 100.308 1080.88 100.936 1080.88 101.736C1080.88 102.4 1080.68 103.048 1080.28 103.68C1079.89 104.304 1079.44 104.856 1078.94 105.336C1078.44 105.808 1077.79 106.36 1077.01 106.992H1081.14V107.904H1075.36V107.124ZM1082.13 106.068V105.24L1086.35 99.408H1087.65V105.12H1088.85V106.068H1087.65V108H1086.57V106.068H1082.13ZM1086.62 100.548L1083.39 105.12H1086.62V100.548ZM1096.59 101.304C1097.08 101.304 1097.53 101.412 1097.93 101.628C1098.33 101.836 1098.64 102.152 1098.87 102.576C1099.1 103 1099.22 103.516 1099.22 104.124V108H1098.14V104.28C1098.14 103.624 1097.97 103.124 1097.64 102.78C1097.32 102.428 1096.87 102.252 1096.3 102.252C1095.72 102.252 1095.26 102.432 1094.92 102.792C1094.58 103.152 1094.42 103.676 1094.42 104.364V108H1093.32V99.12H1094.42V102.36C1094.63 102.024 1094.93 101.764 1095.3 101.58C1095.69 101.396 1096.12 101.304 1096.59 101.304ZM1103.87 108.108C1103.25 108.108 1102.69 107.968 1102.19 107.688C1101.69 107.408 1101.3 107.012 1101.01 106.5C1100.73 105.98 1100.59 105.38 1100.59 104.7C1100.59 104.028 1100.74 103.436 1101.02 102.924C1101.32 102.404 1101.72 102.008 1102.22 101.736C1102.73 101.456 1103.29 101.316 1103.92 101.316C1104.54 101.316 1105.1 101.456 1105.61 101.736C1106.11 102.008 1106.51 102.4 1106.8 102.912C1107.09 103.424 1107.24 104.02 1107.24 104.7C1107.24 105.38 1107.09 105.98 1106.78 106.5C1106.49 107.012 1106.08 107.408 1105.57 107.688C1105.06 107.968 1104.49 108.108 1103.87 108.108ZM1103.87 107.148C1104.26 107.148 1104.63 107.056 1104.97 106.872C1105.32 106.688 1105.59 106.412 1105.8 106.044C1106.02 105.676 1106.12 105.228 1106.12 104.7C1106.12 104.172 1106.02 103.724 1105.81 103.356C1105.6 102.988 1105.33 102.716 1105 102.54C1104.66 102.356 1104.3 102.264 1103.9 102.264C1103.5 102.264 1103.14 102.356 1102.8 102.54C1102.47 102.716 1102.21 102.988 1102.01 103.356C1101.81 103.724 1101.71 104.172 1101.71 104.7C1101.71 105.236 1101.8 105.688 1102 106.056C1102.2 106.424 1102.46 106.7 1102.79 106.884C1103.12 107.06 1103.48 107.148 1103.87 107.148ZM1114.51 101.424V108H1113.42V107.028C1113.21 107.364 1112.92 107.628 1112.54 107.82C1112.17 108.004 1111.76 108.096 1111.32 108.096C1110.8 108.096 1110.34 107.992 1109.94 107.784C1109.53 107.568 1109.2 107.248 1108.96 106.824C1108.73 106.4 1108.62 105.884 1108.62 105.276V101.424H1109.7V105.132C1109.7 105.78 1109.86 106.28 1110.19 106.632C1110.52 106.976 1110.96 107.148 1111.53 107.148C1112.12 107.148 1112.58 106.968 1112.91 106.608C1113.25 106.248 1113.42 105.724 1113.42 105.036V101.424H1114.51ZM1117.44 102.492C1117.64 102.116 1117.91 101.824 1118.26 101.616C1118.62 101.408 1119.06 101.304 1119.57 101.304V102.432H1119.28C1118.06 102.432 1117.44 103.096 1117.44 104.424V108H1116.35V101.424H1117.44V102.492ZM1123.16 108.108C1122.65 108.108 1122.2 108.024 1121.8 107.856C1121.4 107.68 1121.08 107.44 1120.85 107.136C1120.62 106.824 1120.49 106.468 1120.47 106.068H1121.6C1121.63 106.396 1121.78 106.664 1122.05 106.872C1122.33 107.08 1122.7 107.184 1123.14 107.184C1123.56 107.184 1123.89 107.092 1124.13 106.908C1124.37 106.724 1124.49 106.492 1124.49 106.212C1124.49 105.924 1124.36 105.712 1124.1 105.576C1123.85 105.432 1123.45 105.292 1122.92 105.156C1122.43 105.028 1122.03 104.9 1121.72 104.772C1121.41 104.636 1121.15 104.44 1120.92 104.184C1120.71 103.92 1120.6 103.576 1120.6 103.152C1120.6 102.816 1120.7 102.508 1120.9 102.228C1121.1 101.948 1121.38 101.728 1121.75 101.568C1122.12 101.4 1122.54 101.316 1123.01 101.316C1123.74 101.316 1124.33 101.5 1124.78 101.868C1125.22 102.236 1125.46 102.74 1125.5 103.38H1124.4C1124.38 103.036 1124.24 102.76 1123.98 102.552C1123.74 102.344 1123.4 102.24 1122.98 102.24C1122.58 102.24 1122.27 102.324 1122.04 102.492C1121.81 102.66 1121.69 102.88 1121.69 103.152C1121.69 103.368 1121.76 103.548 1121.9 103.692C1122.04 103.828 1122.22 103.94 1122.42 104.028C1122.64 104.108 1122.94 104.2 1123.31 104.304C1123.78 104.432 1124.17 104.56 1124.46 104.688C1124.76 104.808 1125.01 104.992 1125.22 105.24C1125.44 105.488 1125.55 105.812 1125.56 106.212C1125.56 106.572 1125.46 106.896 1125.26 107.184C1125.06 107.472 1124.77 107.7 1124.4 107.868C1124.04 108.028 1123.63 108.108 1123.16 108.108Z" fill="#73798B"/>
</svg>
