<svg width="427" height="136" viewBox="0 0 427 136" fill="none" xmlns="http://www.w3.org/2000/svg">
<rect x="0.833374" y="0.5" width="425.667" height="135" rx="9.5" fill="white"/>
<rect x="0.833374" y="0.5" width="425.667" height="135" rx="9.5" stroke="#EDEEF3"/>
<rect x="24.3334" y="36" width="64" height="64" rx="10" fill="#F8F9FC"/>
<path d="M64.4056 74.2115C64.9113 74.0768 65.3938 73.9058 65.8156 73.6835V76.4362C65.8156 77.2003 65.5867 77.9102 65.002 78.5782C64.3255 79.3511 63.2991 80.0801 61.9684 80.7099C59.3297 81.9586 55.6312 82.7496 51.5055 82.7496C47.3473 82.7496 43.6264 81.9744 40.9859 80.7248C39.6715 80.1028 38.6604 79.3807 37.995 78.6086C37.3826 77.8979 37.0834 77.1702 37.0834 76.4362V73.6793C37.5101 73.9038 37.9992 74.0762 38.5122 74.2119C40.0265 74.6126 41.9981 74.7556 43.9103 74.7788C45.8355 74.8022 47.7547 74.7041 49.1887 74.6008C49.9067 74.5491 50.5054 74.4959 50.9253 74.4556C51.1352 74.4354 51.3006 74.4185 51.4139 74.4065C51.4495 74.4027 51.48 74.3994 51.5052 74.3967C51.53 74.3994 51.5601 74.4027 51.5952 74.4064C51.7077 74.4184 51.8719 74.4354 52.0803 74.4555C52.4972 74.4959 53.0915 74.5491 53.8043 74.6008C55.228 74.7041 57.1334 74.8022 59.0447 74.7788C60.9431 74.7556 62.9012 74.6125 64.4056 74.2115Z" fill="white" stroke="#1C1C1C" stroke-width="1.5"/>
<path d="M65.8156 71.5619C65.8156 72.2151 65.5132 72.8982 64.8411 73.5864C64.1658 74.278 63.1518 74.9352 61.8401 75.5033C59.2192 76.6385 55.5462 77.3591 51.4495 77.3591C47.3528 77.3591 43.6798 76.6385 41.0589 75.5033C39.7472 74.9352 38.7332 74.278 38.0579 73.5864C37.3858 72.8982 37.0834 72.2151 37.0834 71.5619C37.0834 70.9087 37.3858 70.2256 38.0579 69.5374C38.7332 68.8458 39.7472 68.1886 41.0589 67.6205C43.6798 66.4853 47.3528 65.7646 51.4495 65.7646C55.5462 65.7646 59.2192 66.4853 61.8401 67.6205C63.1518 68.1886 64.1658 68.8458 64.8411 69.5374C65.5132 70.2256 65.8156 70.9087 65.8156 71.5619Z" fill="white" stroke="#1C1C1C" stroke-width="1.5"/>
<path fill-rule="evenodd" clip-rule="evenodd" d="M67.3339 71.6673C67.0244 66.2962 59.3899 64.5 50.0172 64.5C48.1184 64.5 46.2909 64.6324 44.5813 64.877C44.7189 65.7039 45.1374 66.4851 45.7849 67.207C46.6497 68.1714 47.9202 69.0284 49.4966 69.7453C52.665 71.1861 57.0622 72.0549 61.9221 72.0549C63.8109 72.0549 65.6298 71.919 67.3339 71.6673Z" fill="#F8F9FC"/>
<path fill-rule="evenodd" clip-rule="evenodd" d="M73.3334 61.5166V67.0265C71.9025 68.2159 68.8207 68.895 66.3334 69.531V63.5202C68.8209 62.8841 71.9025 62.7062 73.3334 61.5166Z" fill="#1F32D6"/>
<path d="M75.5834 59.2285V63.4056C75.5834 64.1219 75.2844 64.8466 74.6665 65.5637C73.998 66.3397 72.984 67.0712 71.6698 67.7031C69.0635 68.9561 65.4098 69.7501 61.3334 69.7501C57.2248 69.7501 53.549 68.9719 50.9409 67.718C49.6428 67.094 48.644 66.3694 47.9864 65.5942C47.3812 64.8806 47.0834 64.1475 47.0834 63.4056V59.2285H75.5834Z" stroke="#1C1C1C" stroke-width="1.5"/>
<path d="M75.5834 58.5108C75.5834 59.0686 75.3044 59.6754 74.6388 60.306C73.9715 60.9382 72.9659 61.542 71.661 62.0649C69.0554 63.109 65.4044 63.7716 61.3334 63.7716C57.2624 63.7716 53.6113 63.109 51.0057 62.0649C49.7009 61.542 48.6952 60.9382 48.028 60.306C47.3624 59.6754 47.0834 59.0686 47.0834 58.5108C47.0834 57.9531 47.3624 57.3462 48.028 56.7156C48.6952 56.0834 49.7009 55.4796 51.0057 54.9567C53.6113 53.9126 57.2624 53.25 61.3334 53.25C65.4044 53.25 69.0554 53.9126 71.661 54.9567C72.9659 55.4796 73.9715 56.0834 74.6388 56.7156C75.3044 57.3462 75.5834 57.9531 75.5834 58.5108Z" fill="white" stroke="#1C1C1C" stroke-width="1.5"/>
<path d="M119.669 29.27V30.572H117.079V39H115.483V30.572H112.879V29.27H119.669ZM124.632 39.126C123.904 39.126 123.246 38.9627 122.658 38.636C122.07 38.3 121.608 37.8333 121.272 37.236C120.936 36.6293 120.768 35.9293 120.768 35.136C120.768 34.352 120.94 33.6567 121.286 33.05C121.631 32.4433 122.102 31.9767 122.7 31.65C123.297 31.3233 123.964 31.16 124.702 31.16C125.439 31.16 126.106 31.3233 126.704 31.65C127.301 31.9767 127.772 32.4433 128.118 33.05C128.463 33.6567 128.636 34.352 128.636 35.136C128.636 35.92 128.458 36.6153 128.104 37.222C127.749 37.8287 127.264 38.3 126.648 38.636C126.041 38.9627 125.369 39.126 124.632 39.126ZM124.632 37.74C125.042 37.74 125.425 37.642 125.78 37.446C126.144 37.25 126.438 36.956 126.662 36.564C126.886 36.172 126.998 35.696 126.998 35.136C126.998 34.576 126.89 34.1047 126.676 33.722C126.461 33.33 126.176 33.036 125.822 32.84C125.467 32.644 125.084 32.546 124.674 32.546C124.263 32.546 123.88 32.644 123.526 32.84C123.18 33.036 122.905 33.33 122.7 33.722C122.494 34.1047 122.392 34.576 122.392 35.136C122.392 35.9667 122.602 36.6107 123.022 37.068C123.451 37.516 123.988 37.74 124.632 37.74ZM132.075 32.588V36.858C132.075 37.1473 132.141 37.3573 132.271 37.488C132.411 37.6093 132.645 37.67 132.971 37.67H133.951V39H132.691C131.973 39 131.422 38.832 131.039 38.496C130.657 38.16 130.465 37.614 130.465 36.858V32.588H129.555V31.286H130.465V29.368H132.075V31.286H133.951V32.588H132.075ZM134.89 35.108C134.89 34.3333 135.049 33.6473 135.366 33.05C135.693 32.4527 136.132 31.9907 136.682 31.664C137.242 31.328 137.858 31.16 138.53 31.16C139.137 31.16 139.664 31.2813 140.112 31.524C140.57 31.7573 140.934 32.0513 141.204 32.406V31.286H142.814V39H141.204V37.852C140.934 38.216 140.565 38.5193 140.098 38.762C139.632 39.0047 139.1 39.126 138.502 39.126C137.84 39.126 137.233 38.958 136.682 38.622C136.132 38.2767 135.693 37.8007 135.366 37.194C135.049 36.578 134.89 35.8827 134.89 35.108ZM141.204 35.136C141.204 34.604 141.092 34.142 140.868 33.75C140.654 33.358 140.369 33.0593 140.014 32.854C139.66 32.6487 139.277 32.546 138.866 32.546C138.456 32.546 138.073 32.6487 137.718 32.854C137.364 33.05 137.074 33.344 136.85 33.736C136.636 34.1187 136.528 34.576 136.528 35.108C136.528 35.64 136.636 36.1067 136.85 36.508C137.074 36.9093 137.364 37.2173 137.718 37.432C138.082 37.6373 138.465 37.74 138.866 37.74C139.277 37.74 139.66 37.6373 140.014 37.432C140.369 37.2267 140.654 36.928 140.868 36.536C141.092 36.1347 141.204 35.668 141.204 35.136ZM146.507 28.64V39H144.911V28.64H146.507ZM164.909 29.27L162.025 39H160.219L158.175 31.636L156.005 39L154.213 39.014L151.455 29.27H153.149L155.165 37.194L157.349 29.27H159.141L161.171 37.152L163.201 29.27H164.909ZM167.037 30.264C166.748 30.264 166.505 30.166 166.309 29.97C166.113 29.774 166.015 29.5313 166.015 29.242C166.015 28.9527 166.113 28.71 166.309 28.514C166.505 28.318 166.748 28.22 167.037 28.22C167.317 28.22 167.555 28.318 167.751 28.514C167.947 28.71 168.045 28.9527 168.045 29.242C168.045 29.5313 167.947 29.774 167.751 29.97C167.555 30.166 167.317 30.264 167.037 30.264ZM167.821 31.286V39H166.225V31.286H167.821ZM171.779 32.588V36.858C171.779 37.1473 171.844 37.3573 171.975 37.488C172.115 37.6093 172.348 37.67 172.675 37.67H173.655V39H172.395C171.676 39 171.125 38.832 170.743 38.496C170.36 38.16 170.169 37.614 170.169 36.858V32.588H169.259V31.286H170.169V29.368H171.779V31.286H173.655V32.588H171.779ZM179.116 31.16C179.704 31.16 180.226 31.286 180.684 31.538C181.15 31.79 181.514 32.1633 181.776 32.658C182.046 33.1527 182.182 33.75 182.182 34.45V39H180.6V34.688C180.6 33.9973 180.427 33.47 180.082 33.106C179.736 32.7327 179.265 32.546 178.668 32.546C178.07 32.546 177.594 32.7327 177.24 33.106C176.894 33.47 176.722 33.9973 176.722 34.688V39H175.126V28.64H176.722V32.182C176.992 31.8553 177.333 31.6033 177.744 31.426C178.164 31.2487 178.621 31.16 179.116 31.16ZM183.685 35.108C183.685 34.3333 183.844 33.6473 184.161 33.05C184.488 32.4527 184.927 31.9907 185.477 31.664C186.037 31.328 186.658 31.16 187.339 31.16C187.843 31.16 188.338 31.272 188.823 31.496C189.318 31.7107 189.71 32 189.999 32.364V28.64H191.609V39H189.999V37.838C189.738 38.2113 189.374 38.5193 188.907 38.762C188.45 39.0047 187.923 39.126 187.325 39.126C186.653 39.126 186.037 38.958 185.477 38.622C184.927 38.2767 184.488 37.8007 184.161 37.194C183.844 36.578 183.685 35.8827 183.685 35.108ZM189.999 35.136C189.999 34.604 189.887 34.142 189.663 33.75C189.449 33.358 189.164 33.0593 188.809 32.854C188.455 32.6487 188.072 32.546 187.661 32.546C187.251 32.546 186.868 32.6487 186.513 32.854C186.159 33.05 185.869 33.344 185.645 33.736C185.431 34.1187 185.323 34.576 185.323 35.108C185.323 35.64 185.431 36.1067 185.645 36.508C185.869 36.9093 186.159 37.2173 186.513 37.432C186.877 37.6373 187.26 37.74 187.661 37.74C188.072 37.74 188.455 37.6373 188.809 37.432C189.164 37.2267 189.449 36.928 189.663 36.536C189.887 36.1347 189.999 35.668 189.999 35.136ZM195.302 32.406C195.535 32.014 195.843 31.7107 196.226 31.496C196.618 31.272 197.08 31.16 197.612 31.16V32.812H197.206C196.58 32.812 196.104 32.9707 195.778 33.288C195.46 33.6053 195.302 34.156 195.302 34.94V39H193.706V31.286H195.302V32.406ZM198.547 35.108C198.547 34.3333 198.705 33.6473 199.023 33.05C199.349 32.4527 199.788 31.9907 200.339 31.664C200.899 31.328 201.515 31.16 202.187 31.16C202.793 31.16 203.321 31.2813 203.769 31.524C204.226 31.7573 204.59 32.0513 204.861 32.406V31.286H206.471V39H204.861V37.852C204.59 38.216 204.221 38.5193 203.755 38.762C203.288 39.0047 202.756 39.126 202.159 39.126C201.496 39.126 200.889 38.958 200.339 38.622C199.788 38.2767 199.349 37.8007 199.023 37.194C198.705 36.578 198.547 35.8827 198.547 35.108ZM204.861 35.136C204.861 34.604 204.749 34.142 204.525 33.75C204.31 33.358 204.025 33.0593 203.671 32.854C203.316 32.6487 202.933 32.546 202.523 32.546C202.112 32.546 201.729 32.6487 201.375 32.854C201.02 33.05 200.731 33.344 200.507 33.736C200.292 34.1187 200.185 34.576 200.185 35.108C200.185 35.64 200.292 36.1067 200.507 36.508C200.731 36.9093 201.02 37.2173 201.375 37.432C201.739 37.6373 202.121 37.74 202.523 37.74C202.933 37.74 203.316 37.6373 203.671 37.432C204.025 37.2267 204.31 36.928 204.525 36.536C204.749 36.1347 204.861 35.668 204.861 35.136ZM218.927 31.286L216.533 39H214.853L213.299 33.302L211.745 39H210.065L207.657 31.286H209.281L210.891 37.488L212.529 31.286H214.195L215.763 37.46L217.359 31.286H218.927ZM219.588 35.108C219.588 34.3333 219.746 33.6473 220.064 33.05C220.39 32.4527 220.829 31.9907 221.38 31.664C221.94 31.328 222.556 31.16 223.228 31.16C223.834 31.16 224.362 31.2813 224.81 31.524C225.267 31.7573 225.631 32.0513 225.902 32.406V31.286H227.512V39H225.902V37.852C225.631 38.216 225.262 38.5193 224.796 38.762C224.329 39.0047 223.797 39.126 223.2 39.126C222.537 39.126 221.93 38.958 221.38 38.622C220.829 38.2767 220.39 37.8007 220.064 37.194C219.746 36.578 219.588 35.8827 219.588 35.108ZM225.902 35.136C225.902 34.604 225.79 34.142 225.566 33.75C225.351 33.358 225.066 33.0593 224.712 32.854C224.357 32.6487 223.974 32.546 223.564 32.546C223.153 32.546 222.77 32.6487 222.416 32.854C222.061 33.05 221.772 33.344 221.548 33.736C221.333 34.1187 221.226 34.576 221.226 35.108C221.226 35.64 221.333 36.1067 221.548 36.508C221.772 36.9093 222.061 37.2173 222.416 37.432C222.78 37.6373 223.162 37.74 223.564 37.74C223.974 37.74 224.357 37.6373 224.712 37.432C225.066 37.2267 225.351 36.928 225.566 36.536C225.79 36.1347 225.902 35.668 225.902 35.136ZM231.204 28.64V39H229.608V28.64H231.204ZM236.099 39.126C235.493 39.126 234.947 39.0187 234.461 38.804C233.985 38.58 233.607 38.2813 233.327 37.908C233.047 37.5253 232.898 37.1007 232.879 36.634H234.531C234.559 36.9607 234.713 37.236 234.993 37.46C235.283 37.6747 235.642 37.782 236.071 37.782C236.519 37.782 236.865 37.698 237.107 37.53C237.359 37.3527 237.485 37.1287 237.485 36.858C237.485 36.5687 237.345 36.354 237.065 36.214C236.795 36.074 236.361 35.92 235.763 35.752C235.185 35.5933 234.713 35.4393 234.349 35.29C233.985 35.1407 233.668 34.912 233.397 34.604C233.136 34.296 233.005 33.89 233.005 33.386C233.005 32.9753 233.127 32.602 233.369 32.266C233.612 31.9207 233.957 31.65 234.405 31.454C234.863 31.258 235.385 31.16 235.973 31.16C236.851 31.16 237.555 31.384 238.087 31.832C238.629 32.2707 238.918 32.8727 238.955 33.638H237.359C237.331 33.2927 237.191 33.0173 236.939 32.812C236.687 32.6067 236.347 32.504 235.917 32.504C235.497 32.504 235.175 32.5833 234.951 32.742C234.727 32.9007 234.615 33.1107 234.615 33.372C234.615 33.5773 234.69 33.75 234.839 33.89C234.989 34.03 235.171 34.142 235.385 34.226C235.6 34.3007 235.917 34.3987 236.337 34.52C236.897 34.6693 237.355 34.8233 237.709 34.982C238.073 35.1313 238.386 35.3553 238.647 35.654C238.909 35.9527 239.044 36.3493 239.053 36.844C239.053 37.2827 238.932 37.6747 238.689 38.02C238.447 38.3653 238.101 38.636 237.653 38.832C237.215 39.028 236.697 39.126 236.099 39.126Z" fill="#73798B"/>
<path d="M256.333 38.8002C256.775 38.8002 257.133 38.442 257.133 38.0002C257.133 37.5584 256.775 37.2002 256.333 37.2002C255.892 37.2002 255.533 37.5584 255.533 38.0002C255.533 38.442 255.892 38.8002 256.333 38.8002ZM256.333 29.2002C254.565 29.2002 253.133 30.6322 253.133 32.4002H254.733C254.733 31.5202 255.453 30.8002 256.333 30.8002C257.213 30.8002 257.933 31.5202 257.933 32.4002C257.933 34.0002 255.533 33.8002 255.533 36.4002H257.133C257.133 34.6002 259.533 34.4002 259.533 32.4002C259.533 30.6322 258.101 29.2002 256.333 29.2002Z" fill="#73798B"/>
<path fill-rule="evenodd" clip-rule="evenodd" d="M256.333 27.5C254.54 27.5 252.916 28.2272 251.738 29.4047C250.561 30.5822 249.833 32.2061 249.833 34C249.833 35.7939 250.561 37.4178 251.738 38.5953C252.916 39.7728 254.54 40.5 256.333 40.5C258.127 40.5 259.751 39.7728 260.929 38.5953C262.106 37.4178 262.833 35.7939 262.833 34C262.833 32.2061 262.106 30.5822 260.929 29.4047C259.751 28.2272 258.127 27.5 256.333 27.5ZM250.677 28.344C252.124 26.897 254.125 26 256.333 26C258.542 26 260.542 26.897 261.989 28.344C263.436 29.791 264.333 31.7919 264.333 34C264.333 36.2081 263.436 38.209 261.989 39.656C260.542 41.103 258.542 42 256.333 42C254.125 42 252.124 41.103 250.677 39.656C249.23 38.209 248.333 36.2081 248.333 34C248.333 31.7919 249.23 29.791 250.677 28.344Z" fill="#73798B"/>
<path d="M114.285 79.528V77.448H123.565C124.483 77.448 124.941 76.9893 124.941 76.072V74.088C124.941 73.2773 124.579 72.7973 123.853 72.648L118.029 71.496C115.533 71.0267 114.285 69.352 114.285 66.472V65.288C114.285 61.6827 115.928 59.88 119.213 59.88H119.949V56.04H123.213V59.88H126.349L128.237 61.352V63.432H119.597C118.68 63.432 118.221 63.8907 118.221 64.808V66.568C118.221 67.4 118.584 67.88 119.309 68.008L125.133 69.192C127.629 69.704 128.877 71.368 128.877 74.184V75.592C128.877 79.1973 127.235 81 123.949 81H123.213V84.84H119.949V81H116.173L114.285 79.528ZM132.625 81V73.992C132.625 71.1547 133.873 69.48 136.369 68.968L142.513 67.72C143.239 67.5707 143.601 67.0907 143.601 66.28V63.848C143.601 62.9307 143.143 62.472 142.225 62.472H133.265V60.392L135.153 58.92H142.321C145.799 58.92 147.537 60.6587 147.537 64.136V66.184C147.537 69.0213 146.289 70.696 143.793 71.208L137.649 72.456C136.924 72.6053 136.561 73.0853 136.561 73.896V77.448H147.537V81H132.625ZM151.125 67.24V64.136C151.125 60.6587 152.864 58.92 156.341 58.92H160.821C164.299 58.92 166.037 60.6587 166.037 64.136V74.76C166.037 78.92 163.947 81 159.765 81H153.973L152.085 79.528V77.448H159.893C161.365 77.448 162.101 76.712 162.101 75.24V72.456H156.341C152.864 72.456 151.125 70.7173 151.125 67.24ZM155.061 67.496C155.061 68.4347 155.52 68.904 156.437 68.904H162.101V63.848C162.101 62.9307 161.643 62.472 160.725 62.472H156.437C155.52 62.472 155.061 62.9307 155.061 63.848V67.496ZM168.665 85L170.521 76.84H174.137L174.521 77.448L171.449 85.672L168.665 85ZM179.209 81V77.448H184.329V62.472H180.137V60.392L182.025 58.92H188.233V77.448H192.841V81H179.209ZM196.813 75.784V64.136C196.813 60.6587 198.552 58.92 202.029 58.92H206.509C209.986 58.92 211.725 60.6587 211.725 64.136V75.784C211.725 79.2613 209.986 81 206.509 81H202.029C198.552 81 196.813 79.2613 196.813 75.784ZM200.749 76.072C200.749 76.9893 201.208 77.448 202.125 77.448H206.413C207.33 77.448 207.789 76.9893 207.789 76.072V63.848C207.789 62.9307 207.33 62.472 206.413 62.472H202.125C201.208 62.472 200.749 62.9307 200.749 63.848V76.072ZM215.313 75.784V64.136C215.313 60.6587 217.052 58.92 220.529 58.92H225.009C228.486 58.92 230.225 60.6587 230.225 64.136V75.784C230.225 79.2613 228.486 81 225.009 81H220.529C217.052 81 215.313 79.2613 215.313 75.784ZM219.249 76.072C219.249 76.9893 219.708 77.448 220.625 77.448H224.913C225.83 77.448 226.289 76.9893 226.289 76.072V63.848C226.289 62.9307 225.83 62.472 224.913 62.472H220.625C219.708 62.472 219.249 62.9307 219.249 63.848V76.072ZM232.853 85L234.709 76.84H238.325L238.709 77.448L235.637 85.672L232.853 85ZM242.5 75.784V64.136C242.5 60.6587 244.239 58.92 247.716 58.92H252.196C255.674 58.92 257.412 60.6587 257.412 64.136V75.784C257.412 79.2613 255.674 81 252.196 81H247.716C244.239 81 242.5 79.2613 242.5 75.784ZM246.436 76.072C246.436 76.9893 246.895 77.448 247.812 77.448H252.1C253.018 77.448 253.476 76.9893 253.476 76.072V63.848C253.476 62.9307 253.018 62.472 252.1 62.472H247.812C246.895 62.472 246.436 62.9307 246.436 63.848V76.072ZM261 75.784V64.136C261 60.6587 262.739 58.92 266.216 58.92H270.696C274.174 58.92 275.912 60.6587 275.912 64.136V75.784C275.912 79.2613 274.174 81 270.696 81H266.216C262.739 81 261 79.2613 261 75.784ZM264.936 76.072C264.936 76.9893 265.395 77.448 266.312 77.448H270.6C271.518 77.448 271.976 76.9893 271.976 76.072V63.848C271.976 62.9307 271.518 62.472 270.6 62.472H266.312C265.395 62.472 264.936 62.9307 264.936 63.848V76.072ZM279.5 75.784V64.136C279.5 60.6587 281.239 58.92 284.716 58.92H289.196C292.674 58.92 294.412 60.6587 294.412 64.136V75.784C294.412 79.2613 292.674 81 289.196 81H284.716C281.239 81 279.5 79.2613 279.5 75.784ZM283.436 76.072C283.436 76.9893 283.895 77.448 284.812 77.448H289.1C290.018 77.448 290.476 76.9893 290.476 76.072V63.848C290.476 62.9307 290.018 62.472 289.1 62.472H284.812C283.895 62.472 283.436 62.9307 283.436 63.848V76.072ZM298.48 81V76.84H302.64V81H298.48ZM306.688 75.784V64.136C306.688 60.6587 308.427 58.92 311.904 58.92H316.384C319.861 58.92 321.6 60.6587 321.6 64.136V75.784C321.6 79.2613 319.861 81 316.384 81H311.904C308.427 81 306.688 79.2613 306.688 75.784ZM310.624 76.072C310.624 76.9893 311.083 77.448 312 77.448H316.288C317.205 77.448 317.664 76.9893 317.664 76.072V63.848C317.664 62.9307 317.205 62.472 316.288 62.472H312C311.083 62.472 310.624 62.9307 310.624 63.848V76.072ZM325.188 75.784V64.136C325.188 60.6587 326.927 58.92 330.404 58.92H334.884C338.361 58.92 340.1 60.6587 340.1 64.136V75.784C340.1 79.2613 338.361 81 334.884 81H330.404C326.927 81 325.188 79.2613 325.188 75.784ZM329.124 76.072C329.124 76.9893 329.583 77.448 330.5 77.448H334.788C335.705 77.448 336.164 76.9893 336.164 76.072V63.848C336.164 62.9307 335.705 62.472 334.788 62.472H330.5C329.583 62.472 329.124 62.9307 329.124 63.848V76.072Z" fill="#1C1C1C"/>
<path d="M113.821 100.356C113.613 100.356 113.437 100.284 113.293 100.14C113.149 99.996 113.077 99.82 113.077 99.612C113.077 99.404 113.149 99.228 113.293 99.084C113.437 98.94 113.613 98.868 113.821 98.868C114.021 98.868 114.189 98.94 114.325 99.084C114.469 99.228 114.541 99.404 114.541 99.612C114.541 99.82 114.469 99.996 114.325 100.14C114.189 100.284 114.021 100.356 113.821 100.356ZM114.349 101.424V108H113.257V101.424H114.349ZM119.414 101.304C120.214 101.304 120.862 101.548 121.358 102.036C121.854 102.516 122.102 103.212 122.102 104.124V108H121.022V104.28C121.022 103.624 120.858 103.124 120.53 102.78C120.202 102.428 119.754 102.252 119.186 102.252C118.61 102.252 118.15 102.432 117.806 102.792C117.47 103.152 117.302 103.676 117.302 104.364V108H116.21V101.424H117.302V102.36C117.518 102.024 117.81 101.764 118.178 101.58C118.554 101.396 118.966 101.304 119.414 101.304ZM128.417 102.324V106.2C128.417 106.52 128.485 106.748 128.621 106.884C128.757 107.012 128.993 107.076 129.329 107.076H130.133V108H129.149C128.541 108 128.085 107.86 127.781 107.58C127.477 107.3 127.325 106.84 127.325 106.2V102.324H126.473V101.424H127.325V99.768H128.417V101.424H130.133V102.324H128.417ZM134.721 101.304C135.217 101.304 135.665 101.412 136.065 101.628C136.465 101.836 136.777 102.152 137.001 102.576C137.233 103 137.349 103.516 137.349 104.124V108H136.269V104.28C136.269 103.624 136.105 103.124 135.777 102.78C135.449 102.428 135.001 102.252 134.433 102.252C133.857 102.252 133.397 102.432 133.053 102.792C132.717 103.152 132.549 103.676 132.549 104.364V108H131.457V99.12H132.549V102.36C132.765 102.024 133.061 101.764 133.437 101.58C133.821 101.396 134.249 101.304 134.721 101.304ZM145.132 104.46C145.132 104.668 145.12 104.888 145.096 105.12H139.84C139.88 105.768 140.1 106.276 140.5 106.644C140.908 107.004 141.4 107.184 141.976 107.184C142.448 107.184 142.84 107.076 143.152 106.86C143.472 106.636 143.696 106.34 143.824 105.972H145C144.824 106.604 144.472 107.12 143.944 107.52C143.416 107.912 142.76 108.108 141.976 108.108C141.352 108.108 140.792 107.968 140.296 107.688C139.808 107.408 139.424 107.012 139.144 106.5C138.864 105.98 138.724 105.38 138.724 104.7C138.724 104.02 138.86 103.424 139.132 102.912C139.404 102.4 139.784 102.008 140.272 101.736C140.768 101.456 141.336 101.316 141.976 101.316C142.6 101.316 143.152 101.452 143.632 101.724C144.112 101.996 144.48 102.372 144.736 102.852C145 103.324 145.132 103.86 145.132 104.46ZM144.004 104.232C144.004 103.816 143.912 103.46 143.728 103.164C143.544 102.86 143.292 102.632 142.972 102.48C142.66 102.32 142.312 102.24 141.928 102.24C141.376 102.24 140.904 102.416 140.512 102.768C140.128 103.12 139.908 103.608 139.852 104.232H144.004ZM150.865 99.12V108H149.773V99.12H150.865ZM152.318 104.688C152.318 104.016 152.454 103.428 152.726 102.924C152.998 102.412 153.37 102.016 153.842 101.736C154.322 101.456 154.854 101.316 155.438 101.316C156.014 101.316 156.514 101.44 156.938 101.688C157.362 101.936 157.678 102.248 157.886 102.624V101.424H158.99V108H157.886V106.776C157.67 107.16 157.346 107.48 156.914 107.736C156.49 107.984 155.994 108.108 155.426 108.108C154.842 108.108 154.314 107.964 153.842 107.676C153.37 107.388 152.998 106.984 152.726 106.464C152.454 105.944 152.318 105.352 152.318 104.688ZM157.886 104.7C157.886 104.204 157.786 103.772 157.586 103.404C157.386 103.036 157.114 102.756 156.77 102.564C156.434 102.364 156.062 102.264 155.654 102.264C155.246 102.264 154.874 102.36 154.538 102.552C154.202 102.744 153.934 103.024 153.734 103.392C153.534 103.76 153.434 104.192 153.434 104.688C153.434 105.192 153.534 105.632 153.734 106.008C153.934 106.376 154.202 106.66 154.538 106.86C154.874 107.052 155.246 107.148 155.654 107.148C156.062 107.148 156.434 107.052 156.77 106.86C157.114 106.66 157.386 106.376 157.586 106.008C157.786 105.632 157.886 105.196 157.886 104.7ZM163.163 108.108C162.659 108.108 162.207 108.024 161.807 107.856C161.407 107.68 161.091 107.44 160.859 107.136C160.627 106.824 160.499 106.468 160.475 106.068H161.603C161.635 106.396 161.787 106.664 162.059 106.872C162.339 107.08 162.703 107.184 163.151 107.184C163.567 107.184 163.895 107.092 164.135 106.908C164.375 106.724 164.495 106.492 164.495 106.212C164.495 105.924 164.367 105.712 164.111 105.576C163.855 105.432 163.459 105.292 162.923 105.156C162.435 105.028 162.035 104.9 161.723 104.772C161.419 104.636 161.155 104.44 160.931 104.184C160.715 103.92 160.607 103.576 160.607 103.152C160.607 102.816 160.707 102.508 160.907 102.228C161.107 101.948 161.391 101.728 161.759 101.568C162.127 101.4 162.547 101.316 163.019 101.316C163.747 101.316 164.335 101.5 164.783 101.868C165.231 102.236 165.471 102.74 165.503 103.38H164.411C164.387 103.036 164.247 102.76 163.991 102.552C163.743 102.344 163.407 102.24 162.983 102.24C162.591 102.24 162.279 102.324 162.047 102.492C161.815 102.66 161.699 102.88 161.699 103.152C161.699 103.368 161.767 103.548 161.903 103.692C162.047 103.828 162.223 103.94 162.431 104.028C162.647 104.108 162.943 104.2 163.319 104.304C163.791 104.432 164.175 104.56 164.471 104.688C164.767 104.808 165.019 104.992 165.227 105.24C165.443 105.488 165.555 105.812 165.563 106.212C165.563 106.572 165.463 106.896 165.263 107.184C165.063 107.472 164.779 107.7 164.411 107.868C164.051 108.028 163.635 108.108 163.163 108.108ZM168.437 102.324V106.2C168.437 106.52 168.505 106.748 168.641 106.884C168.777 107.012 169.013 107.076 169.349 107.076H170.153V108H169.169C168.561 108 168.105 107.86 167.801 107.58C167.497 107.3 167.345 106.84 167.345 106.2V102.324H166.493V101.424H167.345V99.768H168.437V101.424H170.153V102.324H168.437ZM174.363 107.124C175.379 106.308 176.175 105.64 176.751 105.12C177.327 104.592 177.811 104.044 178.203 103.476C178.603 102.9 178.803 102.336 178.803 101.784C178.803 101.264 178.675 100.856 178.419 100.56C178.171 100.256 177.767 100.104 177.207 100.104C176.663 100.104 176.239 100.276 175.935 100.62C175.639 100.956 175.479 101.408 175.455 101.976H174.399C174.431 101.08 174.703 100.388 175.215 99.9C175.727 99.412 176.387 99.168 177.195 99.168C178.019 99.168 178.671 99.396 179.151 99.852C179.639 100.308 179.883 100.936 179.883 101.736C179.883 102.4 179.683 103.048 179.283 103.68C178.891 104.304 178.443 104.856 177.939 105.336C177.435 105.808 176.791 106.36 176.007 106.992H180.135V107.904H174.363V107.124ZM181.134 106.068V105.24L185.346 99.408H186.654V105.12H187.854V106.068H186.654V108H185.574V106.068H181.134ZM185.622 100.548L182.394 105.12H185.622V100.548ZM195.588 101.304C196.084 101.304 196.532 101.412 196.932 101.628C197.332 101.836 197.644 102.152 197.868 102.576C198.1 103 198.216 103.516 198.216 104.124V108H197.136V104.28C197.136 103.624 196.972 103.124 196.644 102.78C196.316 102.428 195.868 102.252 195.3 102.252C194.724 102.252 194.264 102.432 193.92 102.792C193.584 103.152 193.416 103.676 193.416 104.364V108H192.324V99.12H193.416V102.36C193.632 102.024 193.928 101.764 194.304 101.58C194.688 101.396 195.116 101.304 195.588 101.304ZM202.868 108.108C202.252 108.108 201.692 107.968 201.188 107.688C200.692 107.408 200.3 107.012 200.012 106.5C199.732 105.98 199.592 105.38 199.592 104.7C199.592 104.028 199.736 103.436 200.024 102.924C200.32 102.404 200.72 102.008 201.224 101.736C201.728 101.456 202.292 101.316 202.916 101.316C203.54 101.316 204.104 101.456 204.608 101.736C205.112 102.008 205.508 102.4 205.796 102.912C206.092 103.424 206.24 104.02 206.24 104.7C206.24 105.38 206.088 105.98 205.784 106.5C205.488 107.012 205.084 107.408 204.572 107.688C204.06 107.968 203.492 108.108 202.868 108.108ZM202.868 107.148C203.26 107.148 203.628 107.056 203.972 106.872C204.316 106.688 204.592 106.412 204.8 106.044C205.016 105.676 205.124 105.228 205.124 104.7C205.124 104.172 205.02 103.724 204.812 103.356C204.604 102.988 204.332 102.716 203.996 102.54C203.66 102.356 203.296 102.264 202.904 102.264C202.504 102.264 202.136 102.356 201.8 102.54C201.472 102.716 201.208 102.988 201.008 103.356C200.808 103.724 200.708 104.172 200.708 104.7C200.708 105.236 200.804 105.688 200.996 106.056C201.196 106.424 201.46 106.7 201.788 106.884C202.116 107.06 202.476 107.148 202.868 107.148ZM213.507 101.424V108H212.415V107.028C212.207 107.364 211.915 107.628 211.539 107.82C211.171 108.004 210.763 108.096 210.315 108.096C209.803 108.096 209.343 107.992 208.935 107.784C208.527 107.568 208.203 107.248 207.963 106.824C207.731 106.4 207.615 105.884 207.615 105.276V101.424H208.695V105.132C208.695 105.78 208.859 106.28 209.187 106.632C209.515 106.976 209.963 107.148 210.531 107.148C211.115 107.148 211.575 106.968 211.911 106.608C212.247 106.248 212.415 105.724 212.415 105.036V101.424H213.507ZM216.443 102.492C216.635 102.116 216.907 101.824 217.259 101.616C217.619 101.408 218.055 101.304 218.567 101.304V102.432H218.279C217.055 102.432 216.443 103.096 216.443 104.424V108H215.351V101.424H216.443V102.492ZM222.156 108.108C221.652 108.108 221.2 108.024 220.8 107.856C220.4 107.68 220.084 107.44 219.852 107.136C219.62 106.824 219.492 106.468 219.468 106.068H220.596C220.628 106.396 220.78 106.664 221.052 106.872C221.332 107.08 221.696 107.184 222.144 107.184C222.56 107.184 222.888 107.092 223.128 106.908C223.368 106.724 223.488 106.492 223.488 106.212C223.488 105.924 223.36 105.712 223.104 105.576C222.848 105.432 222.452 105.292 221.916 105.156C221.428 105.028 221.028 104.9 220.716 104.772C220.412 104.636 220.148 104.44 219.924 104.184C219.708 103.92 219.6 103.576 219.6 103.152C219.6 102.816 219.7 102.508 219.9 102.228C220.1 101.948 220.384 101.728 220.752 101.568C221.12 101.4 221.54 101.316 222.012 101.316C222.74 101.316 223.328 101.5 223.776 101.868C224.224 102.236 224.464 102.74 224.496 103.38H223.404C223.38 103.036 223.24 102.76 222.984 102.552C222.736 102.344 222.4 102.24 221.976 102.24C221.584 102.24 221.272 102.324 221.04 102.492C220.808 102.66 220.692 102.88 220.692 103.152C220.692 103.368 220.76 103.548 220.896 103.692C221.04 103.828 221.216 103.94 221.424 104.028C221.64 104.108 221.936 104.2 222.312 104.304C222.784 104.432 223.168 104.56 223.464 104.688C223.76 104.808 224.012 104.992 224.22 105.24C224.436 105.488 224.548 105.812 224.556 106.212C224.556 106.572 224.456 106.896 224.256 107.184C224.056 107.472 223.772 107.7 223.404 107.868C223.044 108.028 222.628 108.108 222.156 108.108Z" fill="#73798B"/>
</svg>
