<svg width="1032" height="128" viewBox="0 0 1032 128" fill="none" xmlns="http://www.w3.org/2000/svg">
<path d="M4.96 18.112C4.18133 18.112 3.47733 17.9787 2.848 17.712C2.22933 17.4453 1.73867 17.0613 1.376 16.56C1.01333 16.0587 0.826667 15.4667 0.816 14.784H3.216C3.248 15.2427 3.408 15.6053 3.696 15.872C3.99467 16.1387 4.4 16.272 4.912 16.272C5.43467 16.272 5.84533 16.1493 6.144 15.904C6.44267 15.648 6.592 15.3173 6.592 14.912C6.592 14.5813 6.49067 14.3093 6.288 14.096C6.08533 13.8827 5.82933 13.7173 5.52 13.6C5.22133 13.472 4.80533 13.3333 4.272 13.184C3.54667 12.9707 2.95467 12.7627 2.496 12.56C2.048 12.3467 1.65867 12.032 1.328 11.616C1.008 11.1893 0.848 10.624 0.848 9.92C0.848 9.25867 1.01333 8.68267 1.344 8.192C1.67467 7.70133 2.13867 7.328 2.736 7.072C3.33333 6.80533 4.016 6.672 4.784 6.672C5.936 6.672 6.86933 6.95467 7.584 7.52C8.30933 8.07467 8.70933 8.85333 8.784 9.856H6.32C6.29867 9.472 6.13333 9.15733 5.824 8.912C5.52533 8.656 5.12533 8.528 4.624 8.528C4.18667 8.528 3.83467 8.64 3.568 8.864C3.312 9.088 3.184 9.41333 3.184 9.84C3.184 10.1387 3.28 10.3893 3.472 10.592C3.67467 10.784 3.92 10.944 4.208 11.072C4.50667 11.1893 4.92267 11.328 5.456 11.488C6.18133 11.7013 6.77333 11.9147 7.232 12.128C7.69067 12.3413 8.08533 12.6613 8.416 13.088C8.74667 13.5147 8.912 14.0747 8.912 14.768C8.912 15.3653 8.75733 15.92 8.448 16.432C8.13867 16.944 7.68533 17.3547 7.088 17.664C6.49067 17.9627 5.78133 18.112 4.96 18.112ZM19.222 9.136V18H16.966V16.88C16.678 17.264 16.2993 17.568 15.83 17.792C15.3713 18.0053 14.87 18.112 14.326 18.112C13.6327 18.112 13.0193 17.968 12.486 17.68C11.9527 17.3813 11.5313 16.9493 11.222 16.384C10.9233 15.808 10.774 15.1253 10.774 14.336V9.136H13.014V14.016C13.014 14.72 13.19 15.264 13.542 15.648C13.894 16.0213 14.374 16.208 14.982 16.208C15.6007 16.208 16.086 16.0213 16.438 15.648C16.79 15.264 16.966 14.72 16.966 14.016V9.136H19.222ZM32.4401 9.008C33.5281 9.008 34.4028 9.344 35.0641 10.016C35.7361 10.6773 36.0721 11.6053 36.0721 12.8V18H33.8321V13.104C33.8321 12.4107 33.6561 11.8827 33.3041 11.52C32.9521 11.1467 32.4721 10.96 31.8641 10.96C31.2561 10.96 30.7708 11.1467 30.4081 11.52C30.0561 11.8827 29.8801 12.4107 29.8801 13.104V18H27.6401V13.104C27.6401 12.4107 27.4641 11.8827 27.1121 11.52C26.7601 11.1467 26.2801 10.96 25.6721 10.96C25.0535 10.96 24.5628 11.1467 24.2001 11.52C23.8481 11.8827 23.6721 12.4107 23.6721 13.104V18H21.4321V9.136H23.6721V10.208C23.9601 9.83467 24.3281 9.54133 24.7761 9.328C25.2348 9.11467 25.7361 9.008 26.2801 9.008C26.9735 9.008 27.5921 9.15733 28.1361 9.456C28.6801 9.744 29.1015 10.16 29.4001 10.704C29.6881 10.192 30.1041 9.78133 30.6481 9.472C31.2028 9.16267 31.8001 9.008 32.4401 9.008ZM49.2058 9.008C50.2938 9.008 51.1684 9.344 51.8298 10.016C52.5018 10.6773 52.8378 11.6053 52.8378 12.8V18H50.5978V13.104C50.5978 12.4107 50.4218 11.8827 50.0698 11.52C49.7178 11.1467 49.2378 10.96 48.6298 10.96C48.0218 10.96 47.5364 11.1467 47.1738 11.52C46.8218 11.8827 46.6458 12.4107 46.6458 13.104V18H44.4058V13.104C44.4058 12.4107 44.2298 11.8827 43.8778 11.52C43.5258 11.1467 43.0458 10.96 42.4378 10.96C41.8191 10.96 41.3284 11.1467 40.9658 11.52C40.6138 11.8827 40.4378 12.4107 40.4378 13.104V18H38.1978V9.136H40.4378V10.208C40.7258 9.83467 41.0938 9.54133 41.5418 9.328C42.0004 9.11467 42.5018 9.008 43.0458 9.008C43.7391 9.008 44.3578 9.15733 44.9018 9.456C45.4458 9.744 45.8671 10.16 46.1658 10.704C46.4538 10.192 46.8698 9.78133 47.4138 9.472C47.9684 9.16267 48.5658 9.008 49.2058 9.008ZM54.3874 13.536C54.3874 12.64 54.5634 11.8453 54.9154 11.152C55.278 10.4587 55.7634 9.92533 56.3714 9.552C56.99 9.17867 57.678 8.992 58.4354 8.992C59.0967 8.992 59.6727 9.12533 60.1634 9.392C60.6647 9.65867 61.0647 9.99467 61.3634 10.4V9.136H63.6194V18H61.3634V16.704C61.0754 17.12 60.6754 17.4667 60.1634 17.744C59.662 18.0107 59.0807 18.144 58.4194 18.144C57.6727 18.144 56.99 17.952 56.3714 17.568C55.7634 17.184 55.278 16.6453 54.9154 15.952C54.5634 15.248 54.3874 14.4427 54.3874 13.536ZM61.3634 13.568C61.3634 13.024 61.2567 12.56 61.0434 12.176C60.83 11.7813 60.542 11.4827 60.1794 11.28C59.8167 11.0667 59.4274 10.96 59.0114 10.96C58.5954 10.96 58.2114 11.0613 57.8594 11.264C57.5074 11.4667 57.2194 11.7653 56.9954 12.16C56.782 12.544 56.6754 13.0027 56.6754 13.536C56.6754 14.0693 56.782 14.5387 56.9954 14.944C57.2194 15.3387 57.5074 15.6427 57.8594 15.856C58.222 16.0693 58.606 16.176 59.0114 16.176C59.4274 16.176 59.8167 16.0747 60.1794 15.872C60.542 15.6587 60.83 15.36 61.0434 14.976C61.2567 14.5813 61.3634 14.112 61.3634 13.568ZM68.0471 10.512C68.3351 10.0427 68.7085 9.67467 69.1671 9.408C69.6365 9.14133 70.1698 9.008 70.7671 9.008V11.36H70.1751C69.4711 11.36 68.9378 11.5253 68.5751 11.856C68.2231 12.1867 68.0471 12.7627 68.0471 13.584V18H65.8071V9.136H68.0471V10.512ZM80.7559 9.136L75.2679 22.192H72.8839L74.8039 17.776L71.2519 9.136H73.7639L76.0519 15.328L78.3719 9.136H80.7559Z" fill="#1C1C1C"/>
<rect x="0.5" y="40.5" width="327" height="87" rx="9.5" stroke="#EDEEF3"/>
<path d="M66 52H22C16.4772 52 12 56.4772 12 62V106C12 111.523 16.4772 116 22 116H66C71.5228 116 76 111.523 76 106V62C76 56.4772 71.5228 52 66 52Z" fill="#F8F9FC"/>
<path fill-rule="evenodd" clip-rule="evenodd" d="M43.8467 64.5005C44.3442 64.5015 44.8953 64.5041 45.5 64.508V103.499L43.866 103.498L42.184 103.498C41.3547 103.503 41.0277 103.469 40.7181 103.383C36.0383 102.073 31.9867 99.1784 29.103 95.418C26.2175 91.6554 24.5 87.0243 24.5 82.2402V73.4584C24.5 72.7272 24.7807 71.9495 25.2232 71.285C25.6615 70.6269 26.2618 70.0743 26.9357 69.7994L37.9314 65.2388C39.0475 64.7773 40.2316 64.5355 41.4189 64.5132C41.8181 64.5057 42.3339 64.5014 42.9653 64.5002L43.8467 64.5005Z" fill="white" stroke="#1C1C1C"/>
<path fill-rule="evenodd" clip-rule="evenodd" d="M25 78V83.8333L44 92V86.1667L25 78Z" fill="#1F32D6"/>
<path fill-rule="evenodd" clip-rule="evenodd" d="M42.2401 65.2288C44.6441 64.2568 47.3558 64.2568 49.7593 65.2286L61.0061 69.7911C61.689 70.0671 62.3081 70.6251 62.7606 71.2898C63.2108 71.9509 63.5 72.723 63.5 73.4484L63.4798 82.234C63.4798 87.0181 61.7232 91.649 58.7731 95.4115C55.8223 99.175 51.6761 102.071 46.8892 103.382C46.3073 103.539 45.6725 103.539 45.0922 103.383C40.3037 102.071 36.1575 99.175 33.2067 95.4115C30.2566 91.649 28.5 87.0181 28.5 82.234V73.4496C28.5 72.7194 28.787 71.9432 29.2387 71.2797C29.688 70.6198 30.3039 70.0664 30.9945 69.7908L42.2401 65.2288Z" fill="white" stroke="#1C1C1C"/>
<path fill-rule="evenodd" clip-rule="evenodd" d="M46.4214 73.7554C46.6733 73.3064 47.3575 73.4852 47.3575 74V80.7778C47.3575 81.0539 47.5813 81.2778 47.8575 81.2778H52.0003C52.3825 81.2778 52.6234 81.6891 52.4364 82.0224L45.5792 94.2446C45.3273 94.6936 44.6432 94.5148 44.6432 94V87.2222C44.6432 86.9461 44.4193 86.7222 44.1432 86.7222H40.0003C39.6182 86.7222 39.3773 86.3109 39.5643 85.9776L46.4214 73.7554Z" fill="#1F32D6"/>
<path d="M96.596 61.242V71H95.322V66.576H90.352V71H89.078V61.242H90.352V65.526H95.322V61.242H96.596ZM99.4294 62.082C99.1867 62.082 98.9814 61.998 98.8134 61.83C98.6454 61.662 98.5614 61.4567 98.5614 61.214C98.5614 60.9713 98.6454 60.766 98.8134 60.598C98.9814 60.43 99.1867 60.346 99.4294 60.346C99.6627 60.346 99.8587 60.43 100.017 60.598C100.185 60.766 100.269 60.9713 100.269 61.214C100.269 61.4567 100.185 61.662 100.017 61.83C99.8587 61.998 99.6627 62.082 99.4294 62.082ZM100.045 63.328V71H98.7714V63.328H100.045ZM105.381 63.202C106.043 63.202 106.622 63.3467 107.117 63.636C107.621 63.9253 107.994 64.2893 108.237 64.728V63.328H109.525V71.168C109.525 71.868 109.375 72.4887 109.077 73.03C108.778 73.5807 108.349 74.01 107.789 74.318C107.238 74.626 106.594 74.78 105.857 74.78C104.849 74.78 104.009 74.542 103.337 74.066C102.665 73.59 102.268 72.9413 102.147 72.12H103.407C103.547 72.5867 103.836 72.96 104.275 73.24C104.713 73.5293 105.241 73.674 105.857 73.674C106.557 73.674 107.126 73.4547 107.565 73.016C108.013 72.5773 108.237 71.9613 108.237 71.168V69.558C107.985 70.006 107.611 70.3793 107.117 70.678C106.622 70.9767 106.043 71.126 105.381 71.126C104.699 71.126 104.079 70.958 103.519 70.622C102.968 70.286 102.534 69.8147 102.217 69.208C101.899 68.6013 101.741 67.9107 101.741 67.136C101.741 66.352 101.899 65.666 102.217 65.078C102.534 64.4807 102.968 64.0187 103.519 63.692C104.079 63.3653 104.699 63.202 105.381 63.202ZM108.237 67.15C108.237 66.5713 108.12 66.0673 107.887 65.638C107.653 65.2087 107.336 64.882 106.935 64.658C106.543 64.4247 106.109 64.308 105.633 64.308C105.157 64.308 104.723 64.42 104.331 64.644C103.939 64.868 103.626 65.1947 103.393 65.624C103.159 66.0533 103.043 66.5573 103.043 67.136C103.043 67.724 103.159 68.2373 103.393 68.676C103.626 69.1053 103.939 69.4367 104.331 69.67C104.723 69.894 105.157 70.006 105.633 70.006C106.109 70.006 106.543 69.894 106.935 69.67C107.336 69.4367 107.653 69.1053 107.887 68.676C108.12 68.2373 108.237 67.7287 108.237 67.15ZM115.486 63.188C116.064 63.188 116.587 63.314 117.054 63.566C117.52 63.8087 117.884 64.1773 118.146 64.672C118.416 65.1667 118.552 65.7687 118.552 66.478V71H117.292V66.66C117.292 65.8947 117.1 65.3113 116.718 64.91C116.335 64.4993 115.812 64.294 115.15 64.294C114.478 64.294 113.941 64.504 113.54 64.924C113.148 65.344 112.952 65.9553 112.952 66.758V71H111.678V60.64H112.952V64.42C113.204 64.028 113.549 63.7247 113.988 63.51C114.436 63.2953 114.935 63.188 115.486 63.188ZM129.503 71L127.179 67.01H125.639V71H124.365V61.242H127.515C128.252 61.242 128.873 61.368 129.377 61.62C129.89 61.872 130.273 62.2127 130.525 62.642C130.777 63.0713 130.903 63.5613 130.903 64.112C130.903 64.784 130.707 65.3767 130.315 65.89C129.932 66.4033 129.354 66.744 128.579 66.912L131.029 71H129.503ZM125.639 65.988H127.515C128.206 65.988 128.724 65.82 129.069 65.484C129.414 65.1387 129.587 64.6813 129.587 64.112C129.587 63.5333 129.414 63.0853 129.069 62.768C128.733 62.4507 128.215 62.292 127.515 62.292H125.639V65.988ZM133.541 62.082C133.298 62.082 133.093 61.998 132.925 61.83C132.757 61.662 132.673 61.4567 132.673 61.214C132.673 60.9713 132.757 60.766 132.925 60.598C133.093 60.43 133.298 60.346 133.541 60.346C133.774 60.346 133.97 60.43 134.129 60.598C134.297 60.766 134.381 60.9713 134.381 61.214C134.381 61.4567 134.297 61.662 134.129 61.83C133.97 61.998 133.774 62.082 133.541 62.082ZM134.157 63.328V71H132.883V63.328H134.157ZM139.044 71.126C138.456 71.126 137.929 71.028 137.462 70.832C136.995 70.6267 136.627 70.3467 136.356 69.992C136.085 69.628 135.936 69.2127 135.908 68.746H137.224C137.261 69.1287 137.439 69.4413 137.756 69.684C138.083 69.9267 138.507 70.048 139.03 70.048C139.515 70.048 139.898 69.9407 140.178 69.726C140.458 69.5113 140.598 69.2407 140.598 68.914C140.598 68.578 140.449 68.3307 140.15 68.172C139.851 68.004 139.389 67.8407 138.764 67.682C138.195 67.5327 137.728 67.3833 137.364 67.234C137.009 67.0753 136.701 66.8467 136.44 66.548C136.188 66.24 136.062 65.8387 136.062 65.344C136.062 64.952 136.179 64.5927 136.412 64.266C136.645 63.9393 136.977 63.6827 137.406 63.496C137.835 63.3 138.325 63.202 138.876 63.202C139.725 63.202 140.411 63.4167 140.934 63.846C141.457 64.2753 141.737 64.8633 141.774 65.61H140.5C140.472 65.2087 140.309 64.8867 140.01 64.644C139.721 64.4013 139.329 64.28 138.834 64.28C138.377 64.28 138.013 64.378 137.742 64.574C137.471 64.77 137.336 65.0267 137.336 65.344C137.336 65.596 137.415 65.806 137.574 65.974C137.742 66.1327 137.947 66.2633 138.19 66.366C138.442 66.4593 138.787 66.5667 139.226 66.688C139.777 66.8373 140.225 66.9867 140.57 67.136C140.915 67.276 141.209 67.4907 141.452 67.78C141.704 68.0693 141.835 68.4473 141.844 68.914C141.844 69.334 141.727 69.712 141.494 70.048C141.261 70.384 140.929 70.65 140.5 70.846C140.08 71.0327 139.595 71.126 139.044 71.126ZM147.926 71L144.916 67.612V71H143.642V60.64H144.916V66.73L147.87 63.328H149.648L146.036 67.15L149.662 71H147.926Z" fill="#1C1C1C"/>
<path d="M89.344 103V97.744C89.344 95.616 90.28 94.36 92.152 93.976L96.76 93.064C97.32 92.952 97.6 92.584 97.6 91.96V90.136C97.6 89.432 97.248 89.08 96.544 89.08H89.824V87.544L91.24 86.44H96.616C99.224 86.44 100.528 87.736 100.528 90.328V91.888C100.528 94.016 99.592 95.272 97.72 95.656L93.112 96.568C92.552 96.68 92.272 97.048 92.272 97.672V100.36H100.528V103H89.344ZM103.219 99.112V90.328C103.219 87.736 104.523 86.44 107.131 86.44H110.491C113.099 86.44 114.403 87.736 114.403 90.328V99.112C114.403 101.704 113.099 103 110.491 103H107.131C104.523 103 103.219 101.704 103.219 99.112ZM106.147 99.304C106.147 100.008 106.499 100.36 107.203 100.36H110.419C111.123 100.36 111.475 100.008 111.475 99.304V90.136C111.475 89.432 111.123 89.08 110.419 89.08H107.203C106.499 89.08 106.147 89.432 106.147 90.136V99.304Z" fill="#E74E5A"/>
<rect x="352.5" y="40.5" width="327" height="87" rx="9.5" stroke="#EDEEF3"/>
<path d="M418 52H374C368.477 52 364 56.4772 364 62V106C364 111.523 368.477 116 374 116H418C423.523 116 428 111.523 428 106V62C428 56.4772 423.523 52 418 52Z" fill="#F8F9FC"/>
<path fill-rule="evenodd" clip-rule="evenodd" d="M395.847 64.5005C396.344 64.5015 396.895 64.5041 397.5 64.508V103.499L395.866 103.498L394.184 103.498C393.355 103.503 393.028 103.469 392.718 103.383C388.038 102.073 383.987 99.1784 381.103 95.418C378.218 91.6554 376.5 87.0243 376.5 82.2402V73.4584C376.5 72.7272 376.781 71.9495 377.223 71.285C377.661 70.6269 378.262 70.0743 378.936 69.7994L389.931 65.2388C391.048 64.7773 392.232 64.5355 393.419 64.5132C393.818 64.5057 394.334 64.5014 394.965 64.5002L395.847 64.5005Z" fill="white" stroke="#1C1C1C"/>
<path fill-rule="evenodd" clip-rule="evenodd" d="M377 78V83.8333L396 92V86.1667L377 78Z" fill="#1F32D6"/>
<path fill-rule="evenodd" clip-rule="evenodd" d="M394.24 65.2288C396.644 64.2568 399.356 64.2568 401.759 65.2286L413.006 69.7911C413.689 70.0671 414.308 70.6251 414.761 71.2898C415.211 71.9509 415.5 72.723 415.5 73.4484L415.48 82.234C415.48 87.0181 413.723 91.649 410.773 95.4115C407.822 99.175 403.676 102.071 398.889 103.382C398.307 103.539 397.672 103.539 397.092 103.383C392.304 102.071 388.158 99.175 385.207 95.4115C382.257 91.649 380.5 87.0181 380.5 82.234V73.4496C380.5 72.7194 380.787 71.9432 381.239 71.2797C381.688 70.6198 382.304 70.0664 382.994 69.7908L394.24 65.2288Z" fill="white" stroke="#1C1C1C"/>
<path d="M398.177 72.5H397.823C396.816 72.5 396 73.3164 396 74.3234V84.6766C396 85.6836 396.816 86.5 397.823 86.5H398.177C399.184 86.5 400 85.6836 400 84.6766V74.3234C400 73.3164 399.184 72.5 398.177 72.5Z" fill="#1F32D6"/>
<path d="M398 93.5C399.105 93.5 400 92.6046 400 91.5C400 90.3954 399.105 89.5 398 89.5C396.895 89.5 396 90.3954 396 91.5C396 92.6046 396.895 93.5 398 93.5Z" fill="#1F32D6"/>
<path d="M450.976 61.312V71H449.702V63.776L446.482 71H445.586L442.352 63.762V71H441.078V61.312H442.45L446.034 69.32L449.618 61.312H450.976ZM460.137 66.87C460.137 67.1127 460.123 67.3693 460.095 67.64H453.963C454.009 68.396 454.266 68.9887 454.733 69.418C455.209 69.838 455.783 70.048 456.455 70.048C457.005 70.048 457.463 69.922 457.827 69.67C458.2 69.4087 458.461 69.0633 458.611 68.634H459.983C459.777 69.3713 459.367 69.9733 458.751 70.44C458.135 70.8973 457.369 71.126 456.455 71.126C455.727 71.126 455.073 70.9627 454.495 70.636C453.925 70.3093 453.477 69.8473 453.151 69.25C452.824 68.6433 452.661 67.9433 452.661 67.15C452.661 66.3567 452.819 65.6613 453.137 65.064C453.454 64.4667 453.897 64.0093 454.467 63.692C455.045 63.3653 455.708 63.202 456.455 63.202C457.183 63.202 457.827 63.3607 458.387 63.678C458.947 63.9953 459.376 64.434 459.675 64.994C459.983 65.5447 460.137 66.17 460.137 66.87ZM458.821 66.604C458.821 66.1187 458.713 65.7033 458.499 65.358C458.284 65.0033 457.99 64.7373 457.617 64.56C457.253 64.3733 456.847 64.28 456.399 64.28C455.755 64.28 455.204 64.4853 454.747 64.896C454.299 65.3067 454.042 65.876 453.977 66.604H458.821ZM461.342 67.136C461.342 66.352 461.501 65.666 461.818 65.078C462.136 64.4807 462.57 64.0187 463.12 63.692C463.68 63.3653 464.306 63.202 464.996 63.202C465.594 63.202 466.149 63.342 466.662 63.622C467.176 63.8927 467.568 64.252 467.838 64.7V60.64H469.126V71H467.838V69.558C467.586 70.0153 467.213 70.3933 466.718 70.692C466.224 70.9813 465.645 71.126 464.982 71.126C464.301 71.126 463.68 70.958 463.12 70.622C462.57 70.286 462.136 69.8147 461.818 69.208C461.501 68.6013 461.342 67.9107 461.342 67.136ZM467.838 67.15C467.838 66.5713 467.722 66.0673 467.488 65.638C467.255 65.2087 466.938 64.882 466.536 64.658C466.144 64.4247 465.71 64.308 465.234 64.308C464.758 64.308 464.324 64.42 463.932 64.644C463.54 64.868 463.228 65.1947 462.994 65.624C462.761 66.0533 462.644 66.5573 462.644 67.136C462.644 67.724 462.761 68.2373 462.994 68.676C463.228 69.1053 463.54 69.4367 463.932 69.67C464.324 69.894 464.758 70.006 465.234 70.006C465.71 70.006 466.144 69.894 466.536 69.67C466.938 69.4367 467.255 69.1053 467.488 68.676C467.722 68.2373 467.838 67.7287 467.838 67.15ZM471.937 62.082C471.695 62.082 471.489 61.998 471.321 61.83C471.153 61.662 471.069 61.4567 471.069 61.214C471.069 60.9713 471.153 60.766 471.321 60.598C471.489 60.43 471.695 60.346 471.937 60.346C472.171 60.346 472.367 60.43 472.525 60.598C472.693 60.766 472.777 60.9713 472.777 61.214C472.777 61.4567 472.693 61.662 472.525 61.83C472.367 61.998 472.171 62.082 471.937 62.082ZM472.553 63.328V71H471.279V63.328H472.553ZM481.528 63.328V71H480.254V69.866C480.012 70.258 479.671 70.566 479.232 70.79C478.803 71.0047 478.327 71.112 477.804 71.112C477.207 71.112 476.67 70.9907 476.194 70.748C475.718 70.496 475.34 70.1227 475.06 69.628C474.79 69.1333 474.654 68.5313 474.654 67.822V63.328H475.914V67.654C475.914 68.41 476.106 68.9933 476.488 69.404C476.871 69.8053 477.394 70.006 478.056 70.006C478.738 70.006 479.274 69.796 479.666 69.376C480.058 68.956 480.254 68.3447 480.254 67.542V63.328H481.528ZM492.906 63.188C493.503 63.188 494.035 63.314 494.502 63.566C494.968 63.8087 495.337 64.1773 495.608 64.672C495.878 65.1667 496.014 65.7687 496.014 66.478V71H494.754V66.66C494.754 65.8947 494.562 65.3113 494.18 64.91C493.806 64.4993 493.298 64.294 492.654 64.294C491.991 64.294 491.464 64.5087 491.072 64.938C490.68 65.358 490.484 65.9693 490.484 66.772V71H489.224V66.66C489.224 65.8947 489.032 65.3113 488.65 64.91C488.276 64.4993 487.768 64.294 487.124 64.294C486.461 64.294 485.934 64.5087 485.542 64.938C485.15 65.358 484.954 65.9693 484.954 66.772V71H483.68V63.328H484.954V64.434C485.206 64.0327 485.542 63.7247 485.962 63.51C486.391 63.2953 486.862 63.188 487.376 63.188C488.02 63.188 488.589 63.3327 489.084 63.622C489.578 63.9113 489.947 64.336 490.19 64.896C490.404 64.3547 490.759 63.9347 491.254 63.636C491.748 63.3373 492.299 63.188 492.906 63.188ZM506.974 71L504.65 67.01H503.11V71H501.836V61.242H504.986C505.723 61.242 506.344 61.368 506.848 61.62C507.361 61.872 507.744 62.2127 507.996 62.642C508.248 63.0713 508.374 63.5613 508.374 64.112C508.374 64.784 508.178 65.3767 507.786 65.89C507.403 66.4033 506.824 66.744 506.05 66.912L508.5 71H506.974ZM503.11 65.988H504.986C505.676 65.988 506.194 65.82 506.54 65.484C506.885 65.1387 507.058 64.6813 507.058 64.112C507.058 63.5333 506.885 63.0853 506.54 62.768C506.204 62.4507 505.686 62.292 504.986 62.292H503.11V65.988ZM511.011 62.082C510.769 62.082 510.563 61.998 510.395 61.83C510.227 61.662 510.143 61.4567 510.143 61.214C510.143 60.9713 510.227 60.766 510.395 60.598C510.563 60.43 510.769 60.346 511.011 60.346C511.245 60.346 511.441 60.43 511.599 60.598C511.767 60.766 511.851 60.9713 511.851 61.214C511.851 61.4567 511.767 61.662 511.599 61.83C511.441 61.998 511.245 62.082 511.011 62.082ZM511.627 63.328V71H510.353V63.328H511.627ZM516.515 71.126C515.927 71.126 515.399 71.028 514.933 70.832C514.466 70.6267 514.097 70.3467 513.827 69.992C513.556 69.628 513.407 69.2127 513.379 68.746H514.695C514.732 69.1287 514.909 69.4413 515.227 69.684C515.553 69.9267 515.978 70.048 516.501 70.048C516.986 70.048 517.369 69.9407 517.649 69.726C517.929 69.5113 518.069 69.2407 518.069 68.914C518.069 68.578 517.919 68.3307 517.621 68.172C517.322 68.004 516.86 67.8407 516.235 67.682C515.665 67.5327 515.199 67.3833 514.835 67.234C514.48 67.0753 514.172 66.8467 513.911 66.548C513.659 66.24 513.533 65.8387 513.533 65.344C513.533 64.952 513.649 64.5927 513.883 64.266C514.116 63.9393 514.447 63.6827 514.877 63.496C515.306 63.3 515.796 63.202 516.347 63.202C517.196 63.202 517.882 63.4167 518.405 63.846C518.927 64.2753 519.207 64.8633 519.245 65.61H517.971C517.943 65.2087 517.779 64.8867 517.481 64.644C517.191 64.4013 516.799 64.28 516.305 64.28C515.847 64.28 515.483 64.378 515.213 64.574C514.942 64.77 514.807 65.0267 514.807 65.344C514.807 65.596 514.886 65.806 515.045 65.974C515.213 66.1327 515.418 66.2633 515.661 66.366C515.913 66.4593 516.258 66.5667 516.697 66.688C517.247 66.8373 517.695 66.9867 518.041 67.136C518.386 67.276 518.68 67.4907 518.923 67.78C519.175 68.0693 519.305 68.4473 519.315 68.914C519.315 69.334 519.198 69.712 518.965 70.048C518.731 70.384 518.4 70.65 517.971 70.846C517.551 71.0327 517.065 71.126 516.515 71.126ZM525.397 71L522.387 67.612V71H521.113V60.64H522.387V66.73L525.341 63.328H527.119L523.507 67.15L527.133 71H525.397Z" fill="#1C1C1C"/>
<path d="M441.344 103V97.744C441.344 95.616 442.28 94.36 444.152 93.976L448.76 93.064C449.32 92.952 449.6 92.584 449.6 91.96V90.136C449.6 89.432 449.248 89.08 448.544 89.08H441.824V87.544L443.24 86.44H448.616C451.224 86.44 452.528 87.736 452.528 90.328V91.888C452.528 94.016 451.592 95.272 449.72 95.656L445.112 96.568C444.552 96.68 444.272 97.048 444.272 97.672V100.36H452.528V103H441.344ZM455.219 99.112V90.328C455.219 87.736 456.523 86.44 459.131 86.44H462.491C465.099 86.44 466.403 87.736 466.403 90.328V99.112C466.403 101.704 465.099 103 462.491 103H459.131C456.523 103 455.219 101.704 455.219 99.112ZM458.147 99.304C458.147 100.008 458.499 100.36 459.203 100.36H462.419C463.123 100.36 463.475 100.008 463.475 99.304V90.136C463.475 89.432 463.123 89.08 462.419 89.08H459.203C458.499 89.08 458.147 89.432 458.147 90.136V99.304Z" fill="#FA8C16"/>
<rect x="704.5" y="40.5" width="327" height="87" rx="9.5" stroke="#EDEEF3"/>
<path d="M770 52H726C720.477 52 716 56.4772 716 62V106C716 111.523 720.477 116 726 116H770C775.523 116 780 111.523 780 106V62C780 56.4772 775.523 52 770 52Z" fill="#F8F9FC"/>
<path fill-rule="evenodd" clip-rule="evenodd" d="M747.847 64.5005C748.344 64.5015 748.895 64.5041 749.5 64.508V103.499L747.866 103.498L746.184 103.498C745.355 103.503 745.028 103.469 744.718 103.383C740.038 102.073 735.987 99.1784 733.103 95.418C730.218 91.6554 728.5 87.0243 728.5 82.2402V73.4584C728.5 72.7272 728.781 71.9495 729.223 71.285C729.661 70.6269 730.262 70.0743 730.936 69.7994L741.931 65.2388C743.048 64.7773 744.232 64.5355 745.419 64.5132C745.818 64.5057 746.334 64.5014 746.965 64.5002L747.847 64.5005Z" fill="white" stroke="#1C1C1C"/>
<path fill-rule="evenodd" clip-rule="evenodd" d="M729 78V83.8333L748 92V86.1667L729 78Z" fill="#1F32D6"/>
<path fill-rule="evenodd" clip-rule="evenodd" d="M746.24 65.2288C748.644 64.2568 751.356 64.2568 753.759 65.2286L765.006 69.7911C765.689 70.0671 766.308 70.6251 766.761 71.2898C767.211 71.9509 767.5 72.723 767.5 73.4484L767.48 82.234C767.48 87.0181 765.723 91.649 762.773 95.4115C759.822 99.175 755.676 102.071 750.889 103.382C750.307 103.539 749.672 103.539 749.092 103.383C744.304 102.071 740.158 99.175 737.207 95.4115C734.257 91.649 732.5 87.0181 732.5 82.234V73.4496C732.5 72.7194 732.787 71.9432 733.239 71.2797C733.688 70.6198 734.304 70.0664 734.994 69.7908L746.24 65.2288Z" fill="white" stroke="#1C1C1C"/>
<path fill-rule="evenodd" clip-rule="evenodd" d="M759.198 75.5009C760.317 76.1304 760.4 76.4375 760.449 76.6695C760.531 77.0532 760.412 77.3696 760.167 77.6173L748.8 89.093C748.524 89.3721 748.159 89.5071 747.792 89.4997C747.433 89.4925 747.07 89.3482 746.792 89.0668L741.837 84.0645C741.637 83.8623 741.523 83.6027 741.503 83.339C741.483 83.0718 741.557 82.7996 741.736 82.5721L742.199 81.9819C742.373 81.7604 742.621 81.6205 742.885 81.5763C743.153 81.5314 743.435 81.5853 743.668 81.7427L747.676 84.4474L758.441 75.7502C758.655 75.5747 758.929 75.4904 759.198 75.5009Z" fill="#1F32D6"/>
<path d="M794.352 69.964H797.768V71H793.078V61.242H794.352V69.964ZM802.467 71.126C801.748 71.126 801.095 70.9627 800.507 70.636C799.928 70.3093 799.471 69.8473 799.135 69.25C798.808 68.6433 798.645 67.9433 798.645 67.15C798.645 66.366 798.813 65.6753 799.149 65.078C799.494 64.4713 799.961 64.0093 800.549 63.692C801.137 63.3653 801.795 63.202 802.523 63.202C803.251 63.202 803.909 63.3653 804.497 63.692C805.085 64.0093 805.547 64.4667 805.883 65.064C806.228 65.6613 806.401 66.3567 806.401 67.15C806.401 67.9433 806.224 68.6433 805.869 69.25C805.524 69.8473 805.052 70.3093 804.455 70.636C803.858 70.9627 803.195 71.126 802.467 71.126ZM802.467 70.006C802.924 70.006 803.354 69.8987 803.755 69.684C804.156 69.4693 804.478 69.1473 804.721 68.718C804.973 68.2887 805.099 67.766 805.099 67.15C805.099 66.534 804.978 66.0113 804.735 65.582C804.492 65.1527 804.175 64.8353 803.783 64.63C803.391 64.4153 802.966 64.308 802.509 64.308C802.042 64.308 801.613 64.4153 801.221 64.63C800.838 64.8353 800.53 65.1527 800.297 65.582C800.064 66.0113 799.947 66.534 799.947 67.15C799.947 67.7753 800.059 68.3027 800.283 68.732C800.516 69.1613 800.824 69.4833 801.207 69.698C801.59 69.9033 802.01 70.006 802.467 70.006ZM818.296 63.328L815.902 71H814.586L812.738 64.91L810.89 71H809.574L807.166 63.328H808.468L810.232 69.768L812.136 63.328H813.438L815.3 69.782L817.036 63.328H818.296ZM828.431 71L826.107 67.01H824.567V71H823.293V61.242H826.443C827.18 61.242 827.801 61.368 828.305 61.62C828.818 61.872 829.201 62.2127 829.453 62.642C829.705 63.0713 829.831 63.5613 829.831 64.112C829.831 64.784 829.635 65.3767 829.243 65.89C828.86 66.4033 828.282 66.744 827.507 66.912L829.957 71H828.431ZM824.567 65.988H826.443C827.134 65.988 827.652 65.82 827.997 65.484C828.342 65.1387 828.515 64.6813 828.515 64.112C828.515 63.5333 828.342 63.0853 827.997 62.768C827.661 62.4507 827.143 62.292 826.443 62.292H824.567V65.988ZM832.468 62.082C832.226 62.082 832.02 61.998 831.852 61.83C831.684 61.662 831.6 61.4567 831.6 61.214C831.6 60.9713 831.684 60.766 831.852 60.598C832.02 60.43 832.226 60.346 832.468 60.346C832.702 60.346 832.898 60.43 833.056 60.598C833.224 60.766 833.308 60.9713 833.308 61.214C833.308 61.4567 833.224 61.662 833.056 61.83C832.898 61.998 832.702 62.082 832.468 62.082ZM833.084 63.328V71H831.81V63.328H833.084ZM837.972 71.126C837.384 71.126 836.856 71.028 836.39 70.832C835.923 70.6267 835.554 70.3467 835.284 69.992C835.013 69.628 834.864 69.2127 834.836 68.746H836.152C836.189 69.1287 836.366 69.4413 836.684 69.684C837.01 69.9267 837.435 70.048 837.958 70.048C838.443 70.048 838.826 69.9407 839.106 69.726C839.386 69.5113 839.526 69.2407 839.526 68.914C839.526 68.578 839.376 68.3307 839.078 68.172C838.779 68.004 838.317 67.8407 837.692 67.682C837.122 67.5327 836.656 67.3833 836.292 67.234C835.937 67.0753 835.629 66.8467 835.368 66.548C835.116 66.24 834.99 65.8387 834.99 65.344C834.99 64.952 835.106 64.5927 835.34 64.266C835.573 63.9393 835.904 63.6827 836.334 63.496C836.763 63.3 837.253 63.202 837.804 63.202C838.653 63.202 839.339 63.4167 839.862 63.846C840.384 64.2753 840.664 64.8633 840.702 65.61H839.428C839.4 65.2087 839.236 64.8867 838.938 64.644C838.648 64.4013 838.256 64.28 837.762 64.28C837.304 64.28 836.94 64.378 836.67 64.574C836.399 64.77 836.264 65.0267 836.264 65.344C836.264 65.596 836.343 65.806 836.502 65.974C836.67 66.1327 836.875 66.2633 837.118 66.366C837.37 66.4593 837.715 66.5667 838.154 66.688C838.704 66.8373 839.152 66.9867 839.498 67.136C839.843 67.276 840.137 67.4907 840.38 67.78C840.632 68.0693 840.762 68.4473 840.772 68.914C840.772 69.334 840.655 69.712 840.422 70.048C840.188 70.384 839.857 70.65 839.428 70.846C839.008 71.0327 838.522 71.126 837.972 71.126ZM846.854 71L843.844 67.612V71H842.57V60.64H843.844V66.73L846.798 63.328H848.576L844.964 67.15L848.59 71H846.854Z" fill="#1C1C1C"/>
<path d="M793.344 99.112V96.76C793.344 96.12 793.544 95.6 793.944 95.2L794.784 94.36L793.944 93.52C793.544 93.12 793.344 92.6 793.344 91.96V90.328C793.344 87.736 794.648 86.44 797.256 86.44H800.616C803.224 86.44 804.528 87.736 804.528 90.328V91.96C804.528 92.6 804.328 93.12 803.928 93.52L803.088 94.36L803.928 95.2C804.328 95.6 804.528 96.12 804.528 96.76V99.112C804.528 101.704 803.224 103 800.616 103H797.256C794.648 103 793.344 101.704 793.344 99.112ZM796.272 99.304C796.272 100.008 796.624 100.36 797.328 100.36H800.544C801.248 100.36 801.6 100.008 801.6 99.304V96.784C801.6 96.08 801.248 95.728 800.544 95.728H797.328C796.624 95.728 796.272 96.08 796.272 96.784V99.304ZM796.272 92.032C796.272 92.736 796.624 93.088 797.328 93.088H800.544C801.248 93.088 801.6 92.736 801.6 92.032V90.136C801.6 89.432 801.248 89.08 800.544 89.08H797.328C796.624 89.08 796.272 89.432 796.272 90.136V92.032ZM807.219 99.112V90.328C807.219 87.736 808.523 86.44 811.131 86.44H814.491C817.099 86.44 818.403 87.736 818.403 90.328V99.112C818.403 101.704 817.099 103 814.491 103H811.131C808.523 103 807.219 101.704 807.219 99.112ZM810.147 99.304C810.147 100.008 810.499 100.36 811.203 100.36H814.419C815.123 100.36 815.475 100.008 815.475 99.304V90.136C815.475 89.432 815.123 89.08 814.419 89.08H811.203C810.499 89.08 810.147 89.432 810.147 90.136V99.304Z" fill="#26C165"/>
</svg>
