<svg width="34" height="34" viewBox="0 0 34 34" fill="none" xmlns="http://www.w3.org/2000/svg">
<rect x="1" y="1" width="32" height="32" rx="16" stroke="#EDEEF3"/>
<path d="M14.9999 23.6666H13.6666C10.9999 23.6666 10.3333 23 10.3333 20.3333V13.6666C10.3333 11 10.9999 10.3333 13.6666 10.3333H14.6666C15.6666 10.3333 15.8866 10.6267 16.2666 11.1333L17.2666 12.4667C17.5199 12.8 17.6666 13 18.3333 13H20.3333C22.9999 13 23.6666 13.6666 23.6666 16.3333V17.6666" stroke="#13192E" stroke-width="1.5" stroke-miterlimit="10" stroke-linecap="round" stroke-linejoin="round"/>
<path d="M18.1734 21.2133C16.6067 21.3266 16.6067 23.5933 18.1734 23.7066H21.8801C22.3267 23.7066 22.7667 23.5399 23.0934 23.2399C24.1934 22.2799 23.6067 20.3599 22.1601 20.1799C21.6401 17.0533 17.1201 18.2399 18.1868 21.2199" stroke="#13192E" stroke-width="1.5" stroke-miterlimit="10" stroke-linecap="round" stroke-linejoin="round"/>
</svg>
