<svg width="232" height="39" viewBox="0 0 232 39" fill="none" xmlns="http://www.w3.org/2000/svg">
<rect x="2.80005" y="1" width="228.667" height="32" rx="8" fill="#13192E" fill-opacity="0.04"/>
<rect x="3.13338" y="1.33333" width="228" height="31.3333" rx="7.66667" stroke="#13192E" stroke-opacity="0.06" stroke-width="0.666667"/>
<g filter="url(#filter0_d_3737_262)">
<rect x="5.53345" y="3.39999" width="111.333" height="26.6667" rx="6.4" fill="white"/>
</g>
<path d="M49.6663 13.1048L50.4583 13.4832C50.0183 14.4512 49.2703 15.3224 48.1967 16.1144L47.9239 15.2344C48.7071 14.636 49.2879 13.9232 49.6663 13.1048ZM49.9831 15.1376L50.7663 15.5072C50.5727 15.9472 50.3263 16.3784 50.0271 16.7832V21.2624H49.1383V17.7952C48.8655 18.0504 48.5751 18.2968 48.2759 18.5344L48.0031 17.6632C48.8831 16.9504 49.5431 16.1056 49.9831 15.1376ZM52.9575 13.1576H53.8463V14.02H55.7207V14.856H53.8463V15.692H56.0815V16.5368H50.7839V15.692H52.9575V14.856H51.1007V14.02H52.9575V13.1576ZM50.8103 17.3464H54.1191V16.792H55.0343V17.3464H55.9583V18.2H55.0343V20.2064C55.0343 20.884 54.6999 21.2272 54.0487 21.2272H52.7991L52.5879 20.356C52.9927 20.3912 53.3711 20.4088 53.7231 20.4088C53.9871 20.4088 54.1191 20.2592 54.1191 19.9776V18.2H50.8103V17.3464ZM51.9983 18.376C52.4735 18.8512 52.8431 19.2736 53.0983 19.6432L52.3855 20.1448C52.1127 19.7488 51.7431 19.3088 51.2855 18.8248L51.9983 18.376ZM58.4223 13.1752L59.3199 13.3336C59.2495 13.7208 59.1791 14.0816 59.0911 14.4336H61.0095V15.252C60.8071 16.748 60.3847 18.0064 59.7423 19.0184C59.9007 19.2472 60.0767 19.432 60.2527 19.5552C60.8863 20.0216 61.9071 20.268 63.2975 20.2856C63.8167 20.2856 64.3535 20.2592 64.9079 20.2152L64.7231 21.1744H63.7375C61.8807 21.1744 60.5431 20.8576 59.7335 20.2416C59.5487 20.1008 59.3815 19.9248 59.2231 19.7224C58.6951 20.3472 58.0615 20.8576 57.3399 21.2624L56.8471 20.3824C57.5687 19.9864 58.1759 19.476 58.6687 18.8424C58.4311 18.3672 58.2111 17.804 58.0175 17.1616C57.8151 17.496 57.5951 17.7952 57.3575 18.0768L56.7327 17.2848C57.5687 16.264 58.1319 14.9 58.4223 13.1752ZM58.5455 16.1056C58.7567 16.8712 58.9767 17.5136 59.2055 18.0328C59.6279 17.2584 59.9359 16.3432 60.1119 15.3048H58.8447C58.7479 15.5864 58.6511 15.8504 58.5455 16.1056ZM61.9159 13.2104H62.8399V15.4456C63.5439 15.9384 64.2567 16.5016 64.9783 17.1352L64.4327 17.9624C63.8167 17.3112 63.2799 16.8008 62.8399 16.4136V19.7224H61.9159V13.2104ZM68.7887 13.448H73.2943V17.716H71.5079V18.5256H73.3999V19.3792H71.5079V20.1976H73.6991V21.0864H68.3575V20.1976H70.5927V19.3792H68.6919V18.5256H70.5927V17.716H68.7887V13.448ZM72.4143 16.9064V15.9736H71.5079V16.9064H72.4143ZM70.5927 16.9064V15.9736H69.6687V16.9064H70.5927ZM69.6687 15.1904H70.5927V14.2576H69.6687V15.1904ZM71.5079 14.2576V15.1904H72.4143V14.2576H71.5079ZM65.7703 16.3344H66.6063V14.5392H65.6383V13.668H68.4983V14.5392H67.5391V16.3344H68.3927V17.2144H67.5391V18.8776C67.8207 18.7808 68.0935 18.6752 68.3663 18.5608V19.4496C67.5567 19.7664 66.6943 20.0304 65.7791 20.2504L65.5503 19.3704C65.9111 19.3088 66.2631 19.2384 66.6063 19.1504V17.2144H65.7703V16.3344Z" fill="#1F32D6"/>
<path opacity="0.5" d="M169.105 13.2368H169.562C170.671 14.3984 171.947 15.3048 173.39 15.9736L173.073 16.5368C171.613 15.8328 170.372 14.9264 169.333 13.8088C168.374 14.8736 167.116 15.7976 165.558 16.5808L165.25 16.0264C166.799 15.2784 168.084 14.3456 169.105 13.2368ZM166.878 16.0176H171.789V16.6248H169.659V18.156H172.202V18.7632H169.659V20.3912H173.003V21.016H165.673V20.3912H169.008V18.7632H166.456V18.156H169.008V16.6248H166.878V16.0176ZM175.388 15.0056C175.599 15.4104 175.801 15.9032 175.977 16.484H176.901C177.157 16 177.377 15.4808 177.553 14.9352L178.142 15.1376C177.957 15.6392 177.755 16.088 177.526 16.484H178.591V17.1H174.182V16.484H175.37C175.212 16.0264 175.027 15.604 174.807 15.2168L175.388 15.0056ZM178.996 13.58H181.882V14.0552C181.609 14.9792 181.319 15.8416 181.002 16.6336C181.662 17.4608 181.997 18.1472 182.005 18.6752C182.005 19.2208 181.891 19.5992 181.662 19.8104C181.416 20.0216 180.932 20.136 180.21 20.136L180.008 19.4672C180.254 19.4848 180.457 19.5024 180.624 19.5024C180.941 19.4848 181.143 19.4232 181.231 19.3176C181.319 19.2032 181.363 18.992 181.372 18.6752C181.363 18.156 181.011 17.4784 180.325 16.6336C180.615 15.9384 180.905 15.1112 181.187 14.1608H179.612V21.2624H178.996V13.58ZM174.349 14.064H176.118C176.013 13.7736 175.907 13.5096 175.793 13.272L176.444 13.1576C176.541 13.4216 176.637 13.7296 176.734 14.064H178.529V14.68H174.349V14.064ZM178.186 17.9008V21.2184H177.561V20.7256H175.309V21.2184H174.684V17.9008H178.186ZM175.309 20.1272H177.561V18.4992H175.309V20.1272Z" fill="#13192E"/>
<defs>
<filter id="filter0_d_3737_262" x="0.200114" y="0.733327" width="122" height="37.3333" filterUnits="userSpaceOnUse" color-interpolation-filters="sRGB">
<feFlood flood-opacity="0" result="BackgroundImageFix"/>
<feColorMatrix in="SourceAlpha" type="matrix" values="0 0 0 0 0 0 0 0 0 0 0 0 0 0 0 0 0 0 127 0" result="hardAlpha"/>
<feOffset dy="2.66667"/>
<feGaussianBlur stdDeviation="2.66667"/>
<feComposite in2="hardAlpha" operator="out"/>
<feColorMatrix type="matrix" values="0 0 0 0 0.355208 0 0 0 0 0.374688 0 0 0 0 0.55 0 0 0 0.1 0"/>
<feBlend mode="normal" in2="BackgroundImageFix" result="effect1_dropShadow_3737_262"/>
<feBlend mode="normal" in="SourceGraphic" in2="effect1_dropShadow_3737_262" result="shape"/>
</filter>
</defs>
</svg>
