<svg width="43" height="33" viewBox="0 0 43 33" fill="none" xmlns="http://www.w3.org/2000/svg">
<g clip-path="url(#clip0_7_379)">
<path d="M43.0001 0H0.333374V32.3333H43.0001V0Z" fill="#1F32D6"/>
<path d="M26.2278 9.67778L21.95 12.1556C21.7778 12.2556 21.5611 12.2556 21.3834 12.1556L17.1056 9.67778C16.8 9.5 16.7223 9.08333 16.9556 8.82222C17.1167 8.63889 17.3 8.48889 17.4945 8.38333L20.5056 6.71666C21.15 6.35555 22.1945 6.35555 22.8389 6.71666L25.85 8.38333C26.0445 8.48889 26.2278 8.64444 26.3889 8.82222C26.6111 9.08333 26.5334 9.5 26.2278 9.67778Z" fill="white"/>
<path d="M21.35 13.1889V16.9778C21.35 17.4 20.9222 17.6778 20.5444 17.4944C19.4 16.9333 17.4722 15.8833 17.4722 15.8833C16.7944 15.5 16.2389 14.5333 16.2389 13.7389V10.8722C16.2389 10.4333 16.7 10.1555 17.0778 10.3722L21.0722 12.6889C21.2389 12.7944 21.35 12.9833 21.35 13.1889Z" fill="white"/>
<path d="M21.9833 13.1889V16.9778C21.9833 17.4 22.4111 17.6778 22.7888 17.4944C23.9333 16.9333 25.8611 15.8833 25.8611 15.8833C26.5388 15.5 27.0944 14.5333 27.0944 13.7389V10.8722C27.0944 10.4333 26.6333 10.1555 26.2555 10.3722L22.2611 12.6889C22.0944 12.7944 21.9833 12.9833 21.9833 13.1889Z" fill="white"/>
<path d="M16.337 25.0533H14.397L14.0637 26H13.2704L14.9304 21.36H15.8104L17.4704 26H16.6704L16.337 25.0533ZM16.1237 24.4333L15.3704 22.28L14.6104 24.4333H16.1237ZM18.9521 22.8667C19.081 22.6978 19.2566 22.5556 19.4788 22.44C19.701 22.3244 19.9521 22.2667 20.2321 22.2667C20.5521 22.2667 20.8433 22.3467 21.1055 22.5067C21.3721 22.6622 21.581 22.8822 21.7321 23.1667C21.8833 23.4511 21.9588 23.7778 21.9588 24.1467C21.9588 24.5156 21.8833 24.8467 21.7321 25.14C21.581 25.4289 21.3721 25.6556 21.1055 25.82C20.8433 25.98 20.5521 26.06 20.2321 26.06C19.9521 26.06 19.7033 26.0044 19.4855 25.8933C19.2677 25.7778 19.0899 25.6356 18.9521 25.4667V27.7467H18.1921V22.3267H18.9521V22.8667ZM21.1855 24.1467C21.1855 23.8933 21.1321 23.6756 21.0255 23.4933C20.9233 23.3067 20.7855 23.1667 20.6121 23.0733C20.4432 22.9756 20.261 22.9267 20.0655 22.9267C19.8744 22.9267 19.6921 22.9756 19.5188 23.0733C19.3499 23.1711 19.2121 23.3133 19.1055 23.5C19.0032 23.6867 18.9521 23.9067 18.9521 24.16C18.9521 24.4133 19.0032 24.6356 19.1055 24.8267C19.2121 25.0133 19.3499 25.1556 19.5188 25.2533C19.6921 25.3511 19.8744 25.4 20.0655 25.4C20.261 25.4 20.4432 25.3511 20.6121 25.2533C20.7855 25.1511 20.9233 25.0044 21.0255 24.8133C21.1321 24.6222 21.1855 24.4 21.1855 24.1467ZM23.4704 22.8667C23.5993 22.6978 23.7748 22.5556 23.997 22.44C24.2193 22.3244 24.4704 22.2667 24.7504 22.2667C25.0704 22.2667 25.3615 22.3467 25.6237 22.5067C25.8904 22.6622 26.0993 22.8822 26.2504 23.1667C26.4015 23.4511 26.477 23.7778 26.477 24.1467C26.477 24.5156 26.4015 24.8467 26.2504 25.14C26.0993 25.4289 25.8904 25.6556 25.6237 25.82C25.3615 25.98 25.0704 26.06 24.7504 26.06C24.4704 26.06 24.2215 26.0044 24.0037 25.8933C23.7859 25.7778 23.6081 25.6356 23.4704 25.4667V27.7467H22.7104V22.3267H23.4704V22.8667ZM25.7037 24.1467C25.7037 23.8933 25.6504 23.6756 25.5437 23.4933C25.4415 23.3067 25.3037 23.1667 25.1304 23.0733C24.9615 22.9756 24.7793 22.9267 24.5837 22.9267C24.3926 22.9267 24.2104 22.9756 24.037 23.0733C23.8681 23.1711 23.7304 23.3133 23.6237 23.5C23.5215 23.6867 23.4704 23.9067 23.4704 24.16C23.4704 24.4133 23.5215 24.6356 23.6237 24.8267C23.7304 25.0133 23.8681 25.1556 24.037 25.2533C24.2104 25.3511 24.3926 25.4 24.5837 25.4C24.7793 25.4 24.9615 25.3511 25.1304 25.2533C25.3037 25.1511 25.4415 25.0044 25.5437 24.8133C25.6504 24.6222 25.7037 24.4 25.7037 24.1467ZM28.5619 26.06C28.273 26.06 28.013 26.0089 27.7819 25.9067C27.5553 25.8 27.3753 25.6578 27.2419 25.48C27.1086 25.2978 27.0375 25.0956 27.0286 24.8733H27.8153C27.8286 25.0289 27.9019 25.16 28.0353 25.2667C28.173 25.3689 28.3442 25.42 28.5486 25.42C28.7619 25.42 28.9264 25.38 29.0419 25.3C29.1619 25.2156 29.2219 25.1089 29.2219 24.98C29.2219 24.8422 29.1553 24.74 29.0219 24.6733C28.893 24.6067 28.6864 24.5333 28.4019 24.4533C28.1264 24.3778 27.9019 24.3044 27.7286 24.2333C27.5553 24.1622 27.4042 24.0533 27.2753 23.9067C27.1508 23.76 27.0886 23.5667 27.0886 23.3267C27.0886 23.1311 27.1464 22.9533 27.2619 22.7933C27.3775 22.6289 27.5419 22.5 27.7553 22.4067C27.973 22.3133 28.2219 22.2667 28.5019 22.2667C28.9197 22.2667 29.2553 22.3733 29.5086 22.5867C29.7664 22.7956 29.9042 23.0822 29.9219 23.4467H29.1619C29.1486 23.2822 29.0819 23.1511 28.9619 23.0533C28.8419 22.9556 28.6797 22.9067 28.4753 22.9067C28.2753 22.9067 28.1219 22.9444 28.0153 23.02C27.9086 23.0956 27.8553 23.1956 27.8553 23.32C27.8553 23.4178 27.8908 23.5 27.9619 23.5667C28.033 23.6333 28.1197 23.6867 28.2219 23.7267C28.3242 23.7622 28.4753 23.8089 28.6753 23.8667C28.9419 23.9378 29.1597 24.0111 29.3286 24.0867C29.5019 24.1578 29.6508 24.2644 29.7753 24.4067C29.8997 24.5489 29.9642 24.7378 29.9686 24.9733C29.9686 25.1822 29.9108 25.3689 29.7953 25.5333C29.6797 25.6978 29.5153 25.8267 29.3019 25.92C29.093 26.0133 28.8464 26.06 28.5619 26.06Z" fill="white"/>
</g>
<defs>
<clipPath id="clip0_7_379">
<rect width="43" height="33" fill="white"/>
</clipPath>
</defs>
</svg>
