<svg width="1600" height="155" viewBox="0 0 1600 155" fill="none" xmlns="http://www.w3.org/2000/svg">
<g clip-path="url(#clip0_5432_439)">
<rect width="1600" height="155" fill="white"/>
<g clip-path="url(#clip1_5432_439)">
<rect width="1600" height="155" fill="white"/>
<g clip-path="url(#clip2_5432_439)">
<rect width="586" height="74" fill="#1F32D6"/>
<path d="M46.044 29.644L41.754 45H38.124L35.242 34.066L32.228 45L28.62 45.022L24.484 29.644H27.784L30.49 41.568L33.614 29.644H37.046L39.994 41.502L42.722 29.644H46.044ZM47.2631 38.862C47.2631 37.63 47.5051 36.5373 47.9891 35.584C48.4878 34.6307 49.1551 33.8973 49.9911 33.384C50.8418 32.8707 51.7878 32.614 52.8291 32.614C53.7384 32.614 54.5304 32.7973 55.2051 33.164C55.8944 33.5307 56.4444 33.9927 56.8551 34.55V32.812H59.9571V45H56.8551V43.218C56.4591 43.79 55.9091 44.2667 55.2051 44.648C54.5158 45.0147 53.7164 45.198 52.8071 45.198C51.7804 45.198 50.8418 44.934 49.9911 44.406C49.1551 43.878 48.4878 43.1373 47.9891 42.184C47.5051 41.216 47.2631 40.1087 47.2631 38.862ZM56.8551 38.906C56.8551 38.158 56.7084 37.52 56.4151 36.992C56.1218 36.4493 55.7258 36.0387 55.2271 35.76C54.7284 35.4667 54.1931 35.32 53.6211 35.32C53.0491 35.32 52.5211 35.4593 52.0371 35.738C51.5531 36.0167 51.1571 36.4273 50.8491 36.97C50.5558 37.498 50.4091 38.1287 50.4091 38.862C50.4091 39.5953 50.5558 40.2407 50.8491 40.798C51.1571 41.3407 51.5531 41.7587 52.0371 42.052C52.5358 42.3453 53.0638 42.492 53.6211 42.492C54.1931 42.492 54.7284 42.3527 55.2271 42.074C55.7258 41.7807 56.1218 41.37 56.4151 40.842C56.7084 40.2993 56.8551 39.654 56.8551 38.906ZM66.0453 28.72V45H62.9653V28.72H66.0453ZM72.1683 28.72V45H69.0883V28.72H72.1683ZM86.5414 38.642C86.5414 39.082 86.512 39.478 86.4534 39.83H77.5434C77.6167 40.71 77.9247 41.3993 78.4674 41.898C79.01 42.3967 79.6774 42.646 80.4694 42.646C81.6134 42.646 82.4274 42.1547 82.9114 41.172H86.2334C85.8814 42.3453 85.2067 43.3133 84.2094 44.076C83.212 44.824 81.9874 45.198 80.5354 45.198C79.362 45.198 78.306 44.9413 77.3674 44.428C76.4434 43.9 75.7174 43.1593 75.1894 42.206C74.676 41.2527 74.4194 40.1527 74.4194 38.906C74.4194 37.6447 74.676 36.5373 75.1894 35.584C75.7027 34.6307 76.4214 33.8973 77.3454 33.384C78.2694 32.8707 79.3327 32.614 80.5354 32.614C81.694 32.614 82.728 32.8633 83.6374 33.362C84.5614 33.8607 85.2727 34.572 85.7714 35.496C86.2847 36.4053 86.5414 37.454 86.5414 38.642ZM83.3514 37.762C83.3367 36.97 83.0507 36.3393 82.4934 35.87C81.936 35.386 81.254 35.144 80.4474 35.144C79.6847 35.144 79.0394 35.3787 78.5114 35.848C77.998 36.3027 77.6827 36.9407 77.5654 37.762H83.3514ZM92.3755 35.342V41.238C92.3755 41.6487 92.4708 41.9493 92.6615 42.14C92.8668 42.316 93.2042 42.404 93.6735 42.404H95.1035V45H93.1675C90.5715 45 89.2735 43.7387 89.2735 41.216V35.342H87.8215V32.812H89.2735V29.798H92.3755V32.812H95.1035V35.342H92.3755ZM113.011 29.644V32.13H108.919V45H105.839V32.13H101.747V29.644H113.011ZM126.918 32.812L119.372 50.764H116.094L118.734 44.692L113.85 32.812H117.304L120.45 41.326L123.64 32.812H126.918ZM131.659 34.572C132.055 34.0147 132.597 33.5527 133.287 33.186C133.991 32.8047 134.79 32.614 135.685 32.614C136.726 32.614 137.665 32.8707 138.501 33.384C139.351 33.8973 140.019 34.6307 140.503 35.584C141.001 36.5227 141.251 37.6153 141.251 38.862C141.251 40.1087 141.001 41.216 140.503 42.184C140.019 43.1373 139.351 43.878 138.501 44.406C137.665 44.934 136.726 45.198 135.685 45.198C134.79 45.198 133.998 45.0147 133.309 44.648C132.634 44.2813 132.084 43.8193 131.659 43.262V50.808H128.579V32.812H131.659V34.572ZM138.105 38.862C138.105 38.1287 137.951 37.498 137.643 36.97C137.349 36.4273 136.953 36.0167 136.455 35.738C135.971 35.4593 135.443 35.32 134.871 35.32C134.313 35.32 133.785 35.4667 133.287 35.76C132.803 36.0387 132.407 36.4493 132.099 36.992C131.805 37.5347 131.659 38.1727 131.659 38.906C131.659 39.6393 131.805 40.2773 132.099 40.82C132.407 41.3627 132.803 41.7807 133.287 42.074C133.785 42.3527 134.313 42.492 134.871 42.492C135.443 42.492 135.971 42.3453 136.455 42.052C136.953 41.7587 137.349 41.3407 137.643 40.798C137.951 40.2553 138.105 39.61 138.105 38.862ZM154.819 38.642C154.819 39.082 154.789 39.478 154.731 39.83H145.821C145.894 40.71 146.202 41.3993 146.745 41.898C147.287 42.3967 147.955 42.646 148.747 42.646C149.891 42.646 150.705 42.1547 151.189 41.172H154.511C154.159 42.3453 153.484 43.3133 152.487 44.076C151.489 44.824 150.265 45.198 148.813 45.198C147.639 45.198 146.583 44.9413 145.645 44.428C144.721 43.9 143.995 43.1593 143.467 42.206C142.953 41.2527 142.697 40.1527 142.697 38.906C142.697 37.6447 142.953 36.5373 143.467 35.584C143.98 34.6307 144.699 33.8973 145.623 33.384C146.547 32.8707 147.61 32.614 148.813 32.614C149.971 32.614 151.005 32.8633 151.915 33.362C152.839 33.8607 153.55 34.572 154.049 35.496C154.562 36.4053 154.819 37.454 154.819 38.642ZM151.629 37.762C151.614 36.97 151.328 36.3393 150.771 35.87C150.213 35.386 149.531 35.144 148.725 35.144C147.962 35.144 147.317 35.3787 146.789 35.848C146.275 36.3027 145.96 36.9407 145.843 37.762H151.629Z" fill="white"/>
<path d="M586 0V72" stroke="white" stroke-width="2" stroke-linejoin="round"/>
</g>
<g clip-path="url(#clip3_5432_439)">
<rect width="524" height="74" transform="translate(586)" fill="#1F32D6"/>
<path d="M620.934 42.074H614.818L613.806 45H610.572L616.094 29.622H619.68L625.202 45H621.946L620.934 42.074ZM620.098 39.61L617.876 33.186L615.654 39.61H620.098ZM631.93 45.198C630.933 45.198 630.038 45.022 629.246 44.67C628.454 44.3033 627.823 43.812 627.354 43.196C626.899 42.58 626.65 41.898 626.606 41.15H629.708C629.767 41.6193 629.994 42.008 630.39 42.316C630.801 42.624 631.307 42.778 631.908 42.778C632.495 42.778 632.949 42.6607 633.272 42.426C633.609 42.1913 633.778 41.8907 633.778 41.524C633.778 41.128 633.573 40.8347 633.162 40.644C632.766 40.4387 632.128 40.2187 631.248 39.984C630.339 39.764 629.591 39.5367 629.004 39.302C628.432 39.0673 627.933 38.708 627.508 38.224C627.097 37.74 626.892 37.0873 626.892 36.266C626.892 35.5913 627.083 34.9753 627.464 34.418C627.86 33.8607 628.417 33.4207 629.136 33.098C629.869 32.7753 630.727 32.614 631.71 32.614C633.162 32.614 634.321 32.9807 635.186 33.714C636.051 34.4327 636.528 35.408 636.616 36.64H633.668C633.624 36.156 633.419 35.7747 633.052 35.496C632.7 35.2027 632.223 35.056 631.622 35.056C631.065 35.056 630.632 35.1587 630.324 35.364C630.031 35.5693 629.884 35.8553 629.884 36.222C629.884 36.6327 630.089 36.948 630.5 37.168C630.911 37.3733 631.549 37.586 632.414 37.806C633.294 38.026 634.02 38.2533 634.592 38.488C635.164 38.7227 635.655 39.0893 636.066 39.588C636.491 40.072 636.711 40.7173 636.726 41.524C636.726 42.228 636.528 42.8587 636.132 43.416C635.751 43.9733 635.193 44.4133 634.46 44.736C633.741 45.044 632.898 45.198 631.93 45.198ZM643.918 45.198C642.921 45.198 642.026 45.022 641.234 44.67C640.442 44.3033 639.812 43.812 639.342 43.196C638.888 42.58 638.638 41.898 638.594 41.15H641.696C641.755 41.6193 641.982 42.008 642.378 42.316C642.789 42.624 643.295 42.778 643.896 42.778C644.483 42.778 644.938 42.6607 645.26 42.426C645.598 42.1913 645.766 41.8907 645.766 41.524C645.766 41.128 645.561 40.8347 645.15 40.644C644.754 40.4387 644.116 40.2187 643.236 39.984C642.327 39.764 641.579 39.5367 640.992 39.302C640.42 39.0673 639.922 38.708 639.496 38.224C639.086 37.74 638.88 37.0873 638.88 36.266C638.88 35.5913 639.071 34.9753 639.452 34.418C639.848 33.8607 640.406 33.4207 641.124 33.098C641.858 32.7753 642.716 32.614 643.698 32.614C645.15 32.614 646.309 32.9807 647.174 33.714C648.04 34.4327 648.516 35.408 648.604 36.64H645.656C645.612 36.156 645.407 35.7747 645.04 35.496C644.688 35.2027 644.212 35.056 643.61 35.056C643.053 35.056 642.62 35.1587 642.312 35.364C642.019 35.5693 641.872 35.8553 641.872 36.222C641.872 36.6327 642.078 36.948 642.488 37.168C642.899 37.3733 643.537 37.586 644.402 37.806C645.282 38.026 646.008 38.2533 646.58 38.488C647.152 38.7227 647.644 39.0893 648.054 39.588C648.48 40.072 648.7 40.7173 648.714 41.524C648.714 42.228 648.516 42.8587 648.12 43.416C647.739 43.9733 647.182 44.4133 646.448 44.736C645.73 45.044 644.886 45.198 643.918 45.198ZM662.573 38.642C662.573 39.082 662.543 39.478 662.485 39.83H653.575C653.648 40.71 653.956 41.3993 654.499 41.898C655.041 42.3967 655.709 42.646 656.501 42.646C657.645 42.646 658.459 42.1547 658.943 41.172H662.265C661.913 42.3453 661.238 43.3133 660.241 44.076C659.243 44.824 658.019 45.198 656.567 45.198C655.393 45.198 654.337 44.9413 653.399 44.428C652.475 43.9 651.749 43.1593 651.221 42.206C650.707 41.2527 650.451 40.1527 650.451 38.906C650.451 37.6447 650.707 36.5373 651.221 35.584C651.734 34.6307 652.453 33.8973 653.377 33.384C654.301 32.8707 655.364 32.614 656.567 32.614C657.725 32.614 658.759 32.8633 659.669 33.362C660.593 33.8607 661.304 34.572 661.803 35.496C662.316 36.4053 662.573 37.454 662.573 38.642ZM659.383 37.762C659.368 36.97 659.082 36.3393 658.525 35.87C657.967 35.386 657.285 35.144 656.479 35.144C655.716 35.144 655.071 35.3787 654.543 35.848C654.029 36.3027 653.714 36.9407 653.597 37.762H659.383ZM668.407 35.342V41.238C668.407 41.6487 668.502 41.9493 668.693 42.14C668.898 42.316 669.235 42.404 669.705 42.404H671.135V45H669.199C666.603 45 665.305 43.7387 665.305 41.216V35.342H663.853V32.812H665.305V29.798H668.407V32.812H671.135V35.342H668.407ZM689.042 29.644V32.13H684.95V45H681.87V32.13H677.778V29.644H689.042ZM702.949 32.812L695.403 50.764H692.125L694.765 44.692L689.881 32.812H693.335L696.481 41.326L699.671 32.812H702.949ZM707.69 34.572C708.086 34.0147 708.628 33.5527 709.318 33.186C710.022 32.8047 710.821 32.614 711.716 32.614C712.757 32.614 713.696 32.8707 714.532 33.384C715.382 33.8973 716.05 34.6307 716.534 35.584C717.032 36.5227 717.282 37.6153 717.282 38.862C717.282 40.1087 717.032 41.216 716.534 42.184C716.05 43.1373 715.382 43.878 714.532 44.406C713.696 44.934 712.757 45.198 711.716 45.198C710.821 45.198 710.029 45.0147 709.34 44.648C708.665 44.2813 708.115 43.8193 707.69 43.262V50.808H704.61V32.812H707.69V34.572ZM714.136 38.862C714.136 38.1287 713.982 37.498 713.674 36.97C713.38 36.4273 712.984 36.0167 712.486 35.738C712.002 35.4593 711.474 35.32 710.902 35.32C710.344 35.32 709.816 35.4667 709.318 35.76C708.834 36.0387 708.438 36.4493 708.13 36.992C707.836 37.5347 707.69 38.1727 707.69 38.906C707.69 39.6393 707.836 40.2773 708.13 40.82C708.438 41.3627 708.834 41.7807 709.318 42.074C709.816 42.3527 710.344 42.492 710.902 42.492C711.474 42.492 712.002 42.3453 712.486 42.052C712.984 41.7587 713.38 41.3407 713.674 40.798C713.982 40.2553 714.136 39.61 714.136 38.862ZM730.85 38.642C730.85 39.082 730.821 39.478 730.762 39.83H721.852C721.925 40.71 722.233 41.3993 722.776 41.898C723.319 42.3967 723.986 42.646 724.778 42.646C725.922 42.646 726.736 42.1547 727.22 41.172H730.542C730.19 42.3453 729.515 43.3133 728.518 44.076C727.521 44.824 726.296 45.198 724.844 45.198C723.671 45.198 722.615 44.9413 721.676 44.428C720.752 43.9 720.026 43.1593 719.498 42.206C718.985 41.2527 718.728 40.1527 718.728 38.906C718.728 37.6447 718.985 36.5373 719.498 35.584C720.011 34.6307 720.73 33.8973 721.654 33.384C722.578 32.8707 723.641 32.614 724.844 32.614C726.003 32.614 727.037 32.8633 727.946 33.362C728.87 33.8607 729.581 34.572 730.08 35.496C730.593 36.4053 730.85 37.454 730.85 38.642ZM727.66 37.762C727.645 36.97 727.359 36.3393 726.802 35.87C726.245 35.386 725.563 35.144 724.756 35.144C723.993 35.144 723.348 35.3787 722.82 35.848C722.307 36.3027 721.991 36.9407 721.874 37.762H727.66Z" fill="white"/>
<path d="M1110 0V72" stroke="white" stroke-width="2" stroke-linejoin="round"/>
</g>
<g clip-path="url(#clip4_5432_439)">
<rect width="490" height="74" transform="translate(1110)" fill="#1F32D6"/>
<path d="M1140.82 45.154C1139.75 45.154 1138.78 44.9707 1137.92 44.604C1137.07 44.2373 1136.39 43.7093 1135.89 43.02C1135.39 42.3307 1135.14 41.5167 1135.12 40.578H1138.42C1138.47 41.2087 1138.69 41.7073 1139.08 42.074C1139.49 42.4407 1140.05 42.624 1140.75 42.624C1141.47 42.624 1142.04 42.4553 1142.45 42.118C1142.86 41.766 1143.06 41.3113 1143.06 40.754C1143.06 40.2993 1142.92 39.9253 1142.65 39.632C1142.37 39.3387 1142.02 39.1113 1141.59 38.95C1141.18 38.774 1140.61 38.5833 1139.87 38.378C1138.88 38.0847 1138.06 37.7987 1137.43 37.52C1136.82 37.2267 1136.28 36.794 1135.83 36.222C1135.39 35.6353 1135.17 34.858 1135.17 33.89C1135.17 32.9807 1135.39 32.1887 1135.85 31.514C1136.3 30.8393 1136.94 30.326 1137.76 29.974C1138.58 29.6073 1139.52 29.424 1140.58 29.424C1142.16 29.424 1143.45 29.8127 1144.43 30.59C1145.43 31.3527 1145.98 32.4233 1146.08 33.802H1142.69C1142.66 33.274 1142.43 32.8413 1142.01 32.504C1141.6 32.152 1141.05 31.976 1140.36 31.976C1139.76 31.976 1139.27 32.13 1138.91 32.438C1138.55 32.746 1138.38 33.1933 1138.38 33.78C1138.38 34.1907 1138.51 34.5353 1138.77 34.814C1139.05 35.078 1139.39 35.298 1139.79 35.474C1140.2 35.6353 1140.77 35.826 1141.5 36.046C1142.5 36.3393 1143.31 36.6327 1143.94 36.926C1144.57 37.2193 1145.12 37.6593 1145.57 38.246C1146.03 38.8327 1146.25 39.6027 1146.25 40.556C1146.25 41.3773 1146.04 42.14 1145.62 42.844C1145.19 43.548 1144.57 44.1127 1143.75 44.538C1142.92 44.9487 1141.95 45.154 1140.82 45.154ZM1152.51 35.342V41.238C1152.51 41.6487 1152.61 41.9493 1152.8 42.14C1153 42.316 1153.34 42.404 1153.81 42.404H1155.24V45H1153.3C1150.71 45 1149.41 43.7387 1149.41 41.216V35.342H1147.96V32.812H1149.41V29.798H1152.51V32.812H1155.24V35.342H1152.51ZM1156.66 38.862C1156.66 37.63 1156.9 36.5373 1157.39 35.584C1157.89 34.6307 1158.55 33.8973 1159.39 33.384C1160.24 32.8707 1161.19 32.614 1162.23 32.614C1163.14 32.614 1163.93 32.7973 1164.6 33.164C1165.29 33.5307 1165.84 33.9927 1166.25 34.55V32.812H1169.36V45H1166.25V43.218C1165.86 43.79 1165.31 44.2667 1164.6 44.648C1163.91 45.0147 1163.11 45.198 1162.21 45.198C1161.18 45.198 1160.24 44.934 1159.39 44.406C1158.55 43.878 1157.89 43.1373 1157.39 42.184C1156.9 41.216 1156.66 40.1087 1156.66 38.862ZM1166.25 38.906C1166.25 38.158 1166.11 37.52 1165.81 36.992C1165.52 36.4493 1165.12 36.0387 1164.63 35.76C1164.13 35.4667 1163.59 35.32 1163.02 35.32C1162.45 35.32 1161.92 35.4593 1161.44 35.738C1160.95 36.0167 1160.56 36.4273 1160.25 36.97C1159.95 37.498 1159.81 38.1287 1159.81 38.862C1159.81 39.5953 1159.95 40.2407 1160.25 40.798C1160.56 41.3407 1160.95 41.7587 1161.44 42.052C1161.93 42.3453 1162.46 42.492 1163.02 42.492C1163.59 42.492 1164.13 42.3527 1164.63 42.074C1165.12 41.7807 1165.52 41.37 1165.81 40.842C1166.11 40.2993 1166.25 39.654 1166.25 38.906ZM1179.58 45L1175.44 39.808V45H1172.36V28.72H1175.44V37.982L1179.54 32.812H1183.54L1178.17 38.928L1183.58 45H1179.58ZM1186.77 31.36C1186.23 31.36 1185.78 31.1913 1185.41 30.854C1185.06 30.502 1184.88 30.0693 1184.88 29.556C1184.88 29.0427 1185.06 28.6173 1185.41 28.28C1185.78 27.928 1186.23 27.752 1186.77 27.752C1187.32 27.752 1187.76 27.928 1188.12 28.28C1188.48 28.6173 1188.67 29.0427 1188.67 29.556C1188.67 30.0693 1188.48 30.502 1188.12 30.854C1187.76 31.1913 1187.32 31.36 1186.77 31.36ZM1188.29 32.812V45H1185.21V32.812H1188.29ZM1198.09 32.636C1199.54 32.636 1200.71 33.098 1201.61 34.022C1202.5 34.9313 1202.95 36.2073 1202.95 37.85V45H1199.87V38.268C1199.87 37.3 1199.63 36.5593 1199.14 36.046C1198.66 35.518 1198 35.254 1197.16 35.254C1196.31 35.254 1195.64 35.518 1195.14 36.046C1194.66 36.5593 1194.41 37.3 1194.41 38.268V45H1191.33V32.812H1194.41V34.33C1194.83 33.802 1195.35 33.3913 1195.98 33.098C1196.62 32.79 1197.33 32.636 1198.09 32.636ZM1210.65 32.614C1211.56 32.614 1212.36 32.7973 1213.05 33.164C1213.74 33.516 1214.28 33.978 1214.68 34.55V32.812H1217.78V45.088C1217.78 46.2173 1217.55 47.222 1217.1 48.102C1216.64 48.9967 1215.96 49.7007 1215.05 50.214C1214.14 50.742 1213.04 51.006 1211.75 51.006C1210.02 51.006 1208.6 50.6027 1207.49 49.796C1206.39 48.9893 1205.76 47.8893 1205.62 46.496H1208.67C1208.83 47.0533 1209.18 47.4933 1209.71 47.816C1210.25 48.1533 1210.9 48.322 1211.67 48.322C1212.56 48.322 1213.29 48.0507 1213.84 47.508C1214.4 46.98 1214.68 46.1733 1214.68 45.088V43.196C1214.28 43.768 1213.73 44.2447 1213.03 44.626C1212.34 45.0073 1211.55 45.198 1210.65 45.198C1209.63 45.198 1208.69 44.934 1207.84 44.406C1206.99 43.878 1206.31 43.1373 1205.81 42.184C1205.33 41.216 1205.09 40.1087 1205.09 38.862C1205.09 37.63 1205.33 36.5373 1205.81 35.584C1206.31 34.6307 1206.98 33.8973 1207.82 33.384C1208.67 32.8707 1209.61 32.614 1210.65 32.614ZM1214.68 38.906C1214.68 38.158 1214.53 37.52 1214.24 36.992C1213.95 36.4493 1213.55 36.0387 1213.05 35.76C1212.55 35.4667 1212.02 35.32 1211.45 35.32C1210.87 35.32 1210.35 35.4593 1209.86 35.738C1209.38 36.0167 1208.98 36.4273 1208.67 36.97C1208.38 37.498 1208.23 38.1287 1208.23 38.862C1208.23 39.5953 1208.38 40.2407 1208.67 40.798C1208.98 41.3407 1209.38 41.7587 1209.86 42.052C1210.36 42.3453 1210.89 42.492 1211.45 42.492C1212.02 42.492 1212.55 42.3527 1213.05 42.074C1213.55 41.7807 1213.95 41.37 1214.24 40.842C1214.53 40.2993 1214.68 39.654 1214.68 38.906ZM1237.23 34.396C1237.23 35.2173 1237.03 35.9873 1236.64 36.706C1236.25 37.4247 1235.65 38.004 1234.81 38.444C1233.99 38.884 1232.95 39.104 1231.69 39.104H1229.11V45H1226.03V29.644H1231.69C1232.87 29.644 1233.89 29.8493 1234.72 30.26C1235.56 30.6707 1236.18 31.2353 1236.59 31.954C1237.02 32.6727 1237.23 33.4867 1237.23 34.396ZM1231.55 36.618C1232.4 36.618 1233.04 36.4273 1233.45 36.046C1233.86 35.65 1234.06 35.1 1234.06 34.396C1234.06 32.9 1233.23 32.152 1231.55 32.152H1229.11V36.618H1231.55ZM1242.5 34.704C1242.89 34.0587 1243.41 33.5527 1244.04 33.186C1244.68 32.8193 1245.42 32.636 1246.24 32.636V35.87H1245.42C1244.45 35.87 1243.72 36.0973 1243.22 36.552C1242.74 37.0067 1242.5 37.7987 1242.5 38.928V45H1239.42V32.812H1242.5V34.704ZM1253.72 45.198C1252.55 45.198 1251.49 44.9413 1250.55 44.428C1249.62 43.9 1248.88 43.1593 1248.33 42.206C1247.8 41.2527 1247.54 40.1527 1247.54 38.906C1247.54 37.6593 1247.81 36.5593 1248.35 35.606C1248.91 34.6527 1249.67 33.9193 1250.62 33.406C1251.57 32.878 1252.64 32.614 1253.81 32.614C1254.98 32.614 1256.05 32.878 1257 33.406C1257.95 33.9193 1258.7 34.6527 1259.24 35.606C1259.8 36.5593 1260.08 37.6593 1260.08 38.906C1260.08 40.1527 1259.79 41.2527 1259.22 42.206C1258.67 43.1593 1257.9 43.9 1256.93 44.428C1255.98 44.9413 1254.91 45.198 1253.72 45.198ZM1253.72 42.514C1254.28 42.514 1254.8 42.382 1255.28 42.118C1255.78 41.8393 1256.18 41.4287 1256.47 40.886C1256.77 40.3433 1256.91 39.6833 1256.91 38.906C1256.91 37.7473 1256.6 36.86 1255.99 36.244C1255.39 35.6133 1254.65 35.298 1253.77 35.298C1252.89 35.298 1252.15 35.6133 1251.54 36.244C1250.96 36.86 1250.66 37.7473 1250.66 38.906C1250.66 40.0647 1250.95 40.9593 1251.52 41.59C1252.11 42.206 1252.84 42.514 1253.72 42.514ZM1265.93 35.342V41.238C1265.93 41.6487 1266.02 41.9493 1266.21 42.14C1266.42 42.316 1266.75 42.404 1267.22 42.404H1268.65V45H1266.72C1264.12 45 1262.82 43.7387 1262.82 41.216V35.342H1261.37V32.812H1262.82V29.798H1265.93V32.812H1268.65V35.342H1265.93ZM1276.28 45.198C1275.11 45.198 1274.05 44.9413 1273.11 44.428C1272.17 43.9 1271.43 43.1593 1270.89 42.206C1270.36 41.2527 1270.1 40.1527 1270.1 38.906C1270.1 37.6593 1270.37 36.5593 1270.91 35.606C1271.47 34.6527 1272.23 33.9193 1273.18 33.406C1274.13 32.878 1275.2 32.614 1276.37 32.614C1277.54 32.614 1278.61 32.878 1279.56 33.406C1280.51 33.9193 1281.26 34.6527 1281.8 35.606C1282.36 36.5593 1282.64 37.6593 1282.64 38.906C1282.64 40.1527 1282.35 41.2527 1281.78 42.206C1281.22 43.1593 1280.46 43.9 1279.49 44.428C1278.54 44.9413 1277.47 45.198 1276.28 45.198ZM1276.28 42.514C1276.84 42.514 1277.36 42.382 1277.84 42.118C1278.34 41.8393 1278.74 41.4287 1279.03 40.886C1279.32 40.3433 1279.47 39.6833 1279.47 38.906C1279.47 37.7473 1279.16 36.86 1278.55 36.244C1277.95 35.6133 1277.21 35.298 1276.33 35.298C1275.45 35.298 1274.7 35.6133 1274.1 36.244C1273.52 36.86 1273.22 37.7473 1273.22 38.906C1273.22 40.0647 1273.51 40.9593 1274.08 41.59C1274.67 42.206 1275.4 42.514 1276.28 42.514ZM1284.11 38.906C1284.11 37.6447 1284.36 36.5447 1284.88 35.606C1285.39 34.6527 1286.1 33.9193 1287.01 33.406C1287.92 32.878 1288.96 32.614 1290.13 32.614C1291.65 32.614 1292.89 32.9953 1293.87 33.758C1294.87 34.506 1295.54 35.562 1295.88 36.926H1292.55C1292.38 36.398 1292.08 35.9873 1291.65 35.694C1291.24 35.386 1290.73 35.232 1290.11 35.232C1289.23 35.232 1288.54 35.5547 1288.02 36.2C1287.51 36.8307 1287.25 37.7327 1287.25 38.906C1287.25 40.0647 1287.51 40.9667 1288.02 41.612C1288.54 42.2427 1289.23 42.558 1290.11 42.558C1291.36 42.558 1292.17 42.0007 1292.55 40.886H1295.88C1295.54 42.206 1294.87 43.2547 1293.87 44.032C1292.88 44.8093 1291.63 45.198 1290.13 45.198C1288.96 45.198 1287.92 44.9413 1287.01 44.428C1286.1 43.9 1285.39 43.1667 1284.88 42.228C1284.36 41.2747 1284.11 40.1673 1284.11 38.906ZM1303.55 45.198C1302.37 45.198 1301.32 44.9413 1300.38 44.428C1299.44 43.9 1298.7 43.1593 1298.16 42.206C1297.63 41.2527 1297.36 40.1527 1297.36 38.906C1297.36 37.6593 1297.63 36.5593 1298.18 35.606C1298.73 34.6527 1299.49 33.9193 1300.44 33.406C1301.4 32.878 1302.46 32.614 1303.63 32.614C1304.81 32.614 1305.87 32.878 1306.82 33.406C1307.78 33.9193 1308.52 34.6527 1309.07 35.606C1309.62 36.5593 1309.9 37.6593 1309.9 38.906C1309.9 40.1527 1309.62 41.2527 1309.05 42.206C1308.49 43.1593 1307.73 43.9 1306.76 44.428C1305.8 44.9413 1304.73 45.198 1303.55 45.198ZM1303.55 42.514C1304.1 42.514 1304.62 42.382 1305.11 42.118C1305.61 41.8393 1306 41.4287 1306.3 40.886C1306.59 40.3433 1306.74 39.6833 1306.74 38.906C1306.74 37.7473 1306.43 36.86 1305.81 36.244C1305.21 35.6133 1304.47 35.298 1303.59 35.298C1302.71 35.298 1301.97 35.6133 1301.37 36.244C1300.78 36.86 1300.49 37.7473 1300.49 38.906C1300.49 40.0647 1300.77 40.9593 1301.35 41.59C1301.93 42.206 1302.67 42.514 1303.55 42.514ZM1315.24 28.72V45H1312.16V28.72H1315.24Z" fill="white"/>
<path d="M1600 0V72" stroke="white" stroke-width="2" stroke-linejoin="round"/>
</g>
<mask id="path-9-inside-1_5432_439" fill="white">
<path d="M0 74H586V155H0V74Z"/>
</mask>
<path d="M0 74H586V155H0V74Z" fill="white"/>
<path d="M586 155V156H587V155H586ZM585 74V155H587V74H585ZM586 154H0V156H586V154Z" fill="black" mask="url(#path-9-inside-1_5432_439)"/>
<path d="M35.248 105.776V121H33.246V109.648L28.186 121H26.778L21.696 109.626V121H19.694V105.776H21.85L27.482 118.36L33.114 105.776H35.248ZM49.5552 110.154C49.5552 111.43 49.1152 112.493 48.2352 113.344C47.3699 114.18 46.0426 114.598 44.2532 114.598H41.3052V121H39.3032V105.666H44.2532C45.9839 105.666 47.2966 106.084 48.1912 106.92C49.1006 107.756 49.5552 108.834 49.5552 110.154ZM44.2532 112.948C45.3679 112.948 46.1892 112.706 46.7172 112.222C47.2452 111.738 47.5092 111.049 47.5092 110.154C47.5092 108.262 46.4239 107.316 44.2532 107.316H41.3052V112.948H44.2532ZM51.9555 113.322C51.9555 111.826 52.2928 110.484 52.9675 109.296C53.6421 108.093 54.5588 107.155 55.7175 106.48C56.8908 105.805 58.1888 105.468 59.6115 105.468C61.2835 105.468 62.7428 105.871 63.9895 106.678C65.2361 107.485 66.1455 108.629 66.7175 110.11H64.3195C63.8941 109.186 63.2781 108.475 62.4715 107.976C61.6795 107.477 60.7261 107.228 59.6115 107.228C58.5408 107.228 57.5801 107.477 56.7295 107.976C55.8788 108.475 55.2115 109.186 54.7275 110.11C54.2435 111.019 54.0015 112.09 54.0015 113.322C54.0015 114.539 54.2435 115.61 54.7275 116.534C55.2115 117.443 55.8788 118.147 56.7295 118.646C57.5801 119.145 58.5408 119.394 59.6115 119.394C60.7261 119.394 61.6795 119.152 62.4715 118.668C63.2781 118.169 63.8941 117.458 64.3195 116.534H66.7175C66.1455 118.001 65.2361 119.137 63.9895 119.944C62.7428 120.736 61.2835 121.132 59.6115 121.132C58.1888 121.132 56.8908 120.802 55.7175 120.142C54.5588 119.467 53.6421 118.536 52.9675 117.348C52.2928 116.16 51.9555 114.818 51.9555 113.322ZM96.1548 105.666L91.7108 121H89.4668L85.9028 108.658L82.2068 121L79.9848 121.022L75.6948 105.666H77.8288L81.1728 118.668L84.8688 105.666H87.1128L90.6328 118.624L93.9988 105.666H96.1548ZM98.2577 114.928C98.2577 113.696 98.5071 112.618 99.0057 111.694C99.5044 110.755 100.186 110.029 101.052 109.516C101.932 109.003 102.907 108.746 103.978 108.746C105.034 108.746 105.95 108.973 106.728 109.428C107.505 109.883 108.084 110.455 108.466 111.144V108.944H110.49V121H108.466V118.756C108.07 119.46 107.476 120.047 106.684 120.516C105.906 120.971 104.997 121.198 103.956 121.198C102.885 121.198 101.917 120.934 101.052 120.406C100.186 119.878 99.5044 119.137 99.0057 118.184C98.5071 117.231 98.2577 116.145 98.2577 114.928ZM108.466 114.95C108.466 114.041 108.282 113.249 107.916 112.574C107.549 111.899 107.05 111.386 106.42 111.034C105.804 110.667 105.122 110.484 104.374 110.484C103.626 110.484 102.944 110.66 102.328 111.012C101.712 111.364 101.22 111.877 100.854 112.552C100.487 113.227 100.304 114.019 100.304 114.928C100.304 115.852 100.487 116.659 100.854 117.348C101.22 118.023 101.712 118.543 102.328 118.91C102.944 119.262 103.626 119.438 104.374 119.438C105.122 119.438 105.804 119.262 106.42 118.91C107.05 118.543 107.549 118.023 107.916 117.348C108.282 116.659 108.466 115.859 108.466 114.95ZM116.535 104.72V121H114.533V104.72H116.535ZM122.609 104.72V121H120.607V104.72H122.609ZM137.681 114.51C137.681 114.891 137.659 115.295 137.615 115.72H127.979C128.052 116.908 128.456 117.839 129.189 118.514C129.937 119.174 130.839 119.504 131.895 119.504C132.76 119.504 133.479 119.306 134.051 118.91C134.638 118.499 135.048 117.957 135.283 117.282H137.439C137.116 118.441 136.471 119.387 135.503 120.12C134.535 120.839 133.332 121.198 131.895 121.198C130.751 121.198 129.724 120.941 128.815 120.428C127.92 119.915 127.216 119.189 126.703 118.25C126.19 117.297 125.933 116.197 125.933 114.95C125.933 113.703 126.182 112.611 126.681 111.672C127.18 110.733 127.876 110.015 128.771 109.516C129.68 109.003 130.722 108.746 131.895 108.746C133.039 108.746 134.051 108.995 134.931 109.494C135.811 109.993 136.486 110.682 136.955 111.562C137.439 112.427 137.681 113.41 137.681 114.51ZM135.613 114.092C135.613 113.329 135.444 112.677 135.107 112.134C134.77 111.577 134.308 111.159 133.721 110.88C133.149 110.587 132.511 110.44 131.807 110.44C130.795 110.44 129.93 110.763 129.211 111.408C128.507 112.053 128.104 112.948 128.001 114.092H135.613ZM143.426 110.594V117.7C143.426 118.287 143.55 118.705 143.8 118.954C144.049 119.189 144.482 119.306 145.098 119.306H146.572V121H144.768C143.653 121 142.817 120.743 142.26 120.23C141.702 119.717 141.424 118.873 141.424 117.7V110.594H139.862V108.944H141.424V105.908H143.426V108.944H146.572V110.594H143.426ZM153.925 121.198C153.001 121.198 152.173 121.044 151.439 120.736C150.706 120.413 150.127 119.973 149.701 119.416C149.276 118.844 149.041 118.191 148.997 117.458H151.065C151.124 118.059 151.403 118.551 151.901 118.932C152.415 119.313 153.082 119.504 153.903 119.504C154.666 119.504 155.267 119.335 155.707 118.998C156.147 118.661 156.367 118.235 156.367 117.722C156.367 117.194 156.133 116.805 155.663 116.556C155.194 116.292 154.468 116.035 153.485 115.786C152.591 115.551 151.857 115.317 151.285 115.082C150.728 114.833 150.244 114.473 149.833 114.004C149.437 113.52 149.239 112.889 149.239 112.112C149.239 111.496 149.423 110.931 149.789 110.418C150.156 109.905 150.677 109.501 151.351 109.208C152.026 108.9 152.796 108.746 153.661 108.746C154.996 108.746 156.074 109.083 156.895 109.758C157.717 110.433 158.157 111.357 158.215 112.53H156.213C156.169 111.899 155.913 111.393 155.443 111.012C154.989 110.631 154.373 110.44 153.595 110.44C152.877 110.44 152.305 110.594 151.879 110.902C151.454 111.21 151.241 111.613 151.241 112.112C151.241 112.508 151.366 112.838 151.615 113.102C151.879 113.351 152.202 113.557 152.583 113.718C152.979 113.865 153.522 114.033 154.211 114.224C155.077 114.459 155.781 114.693 156.323 114.928C156.866 115.148 157.328 115.485 157.709 115.94C158.105 116.395 158.311 116.989 158.325 117.722C158.325 118.382 158.142 118.976 157.775 119.504C157.409 120.032 156.888 120.45 156.213 120.758C155.553 121.051 154.791 121.198 153.925 121.198ZM169.371 106.986C168.989 106.986 168.667 106.854 168.403 106.59C168.139 106.326 168.007 106.003 168.007 105.622C168.007 105.241 168.139 104.918 168.403 104.654C168.667 104.39 168.989 104.258 169.371 104.258C169.737 104.258 170.045 104.39 170.295 104.654C170.559 104.918 170.691 105.241 170.691 105.622C170.691 106.003 170.559 106.326 170.295 106.59C170.045 106.854 169.737 106.986 169.371 106.986ZM170.339 108.944V121H168.337V108.944H170.339ZM180.285 108.724C181.751 108.724 182.939 109.171 183.849 110.066C184.758 110.946 185.213 112.222 185.213 113.894V121H183.233V114.18C183.233 112.977 182.932 112.061 182.331 111.43C181.729 110.785 180.908 110.462 179.867 110.462C178.811 110.462 177.967 110.792 177.337 111.452C176.721 112.112 176.413 113.073 176.413 114.334V121H174.411V108.944H176.413V110.66C176.809 110.044 177.344 109.567 178.019 109.23C178.708 108.893 179.463 108.724 180.285 108.724ZM202.62 121.154C201.198 121.154 199.9 120.824 198.726 120.164C197.553 119.489 196.622 118.558 195.932 117.37C195.258 116.167 194.92 114.818 194.92 113.322C194.92 111.826 195.258 110.484 195.932 109.296C196.622 108.093 197.553 107.162 198.726 106.502C199.9 105.827 201.198 105.49 202.62 105.49C204.058 105.49 205.363 105.827 206.536 106.502C207.71 107.162 208.634 108.086 209.308 109.274C209.983 110.462 210.32 111.811 210.32 113.322C210.32 114.833 209.983 116.182 209.308 117.37C208.634 118.558 207.71 119.489 206.536 120.164C205.363 120.824 204.058 121.154 202.62 121.154ZM202.62 119.416C203.691 119.416 204.652 119.167 205.502 118.668C206.368 118.169 207.042 117.458 207.526 116.534C208.025 115.61 208.274 114.539 208.274 113.322C208.274 112.09 208.025 111.019 207.526 110.11C207.042 109.186 206.375 108.475 205.524 107.976C204.674 107.477 203.706 107.228 202.62 107.228C201.535 107.228 200.567 107.477 199.716 107.976C198.866 108.475 198.191 109.186 197.692 110.11C197.208 111.019 196.966 112.09 196.966 113.322C196.966 114.539 197.208 115.61 197.692 116.534C198.191 117.458 198.866 118.169 199.716 118.668C200.582 119.167 201.55 119.416 202.62 119.416ZM215.625 110.902C215.977 110.213 216.476 109.677 217.121 109.296C217.781 108.915 218.58 108.724 219.519 108.724V110.792H218.991C216.747 110.792 215.625 112.009 215.625 114.444V121H213.623V108.944H215.625V110.902ZM227.462 108.746C228.504 108.746 229.413 108.973 230.19 109.428C230.982 109.883 231.569 110.455 231.95 111.144V108.944H233.974V121.264C233.974 122.364 233.74 123.339 233.27 124.19C232.801 125.055 232.126 125.73 231.246 126.214C230.381 126.698 229.369 126.94 228.21 126.94C226.626 126.94 225.306 126.566 224.25 125.818C223.194 125.07 222.571 124.051 222.38 122.76H224.36C224.58 123.493 225.035 124.08 225.724 124.52C226.414 124.975 227.242 125.202 228.21 125.202C229.31 125.202 230.205 124.857 230.894 124.168C231.598 123.479 231.95 122.511 231.95 121.264V118.734C231.554 119.438 230.968 120.025 230.19 120.494C229.413 120.963 228.504 121.198 227.462 121.198C226.392 121.198 225.416 120.934 224.536 120.406C223.671 119.878 222.989 119.137 222.49 118.184C221.992 117.231 221.742 116.145 221.742 114.928C221.742 113.696 221.992 112.618 222.49 111.694C222.989 110.755 223.671 110.029 224.536 109.516C225.416 109.003 226.392 108.746 227.462 108.746ZM231.95 114.95C231.95 114.041 231.767 113.249 231.4 112.574C231.034 111.899 230.535 111.386 229.904 111.034C229.288 110.667 228.606 110.484 227.858 110.484C227.11 110.484 226.428 110.66 225.812 111.012C225.196 111.364 224.705 111.877 224.338 112.552C223.972 113.227 223.788 114.019 223.788 114.928C223.788 115.852 223.972 116.659 224.338 117.348C224.705 118.023 225.196 118.543 225.812 118.91C226.428 119.262 227.11 119.438 227.858 119.438C228.606 119.438 229.288 119.262 229.904 118.91C230.535 118.543 231.034 118.023 231.4 117.348C231.767 116.659 231.95 115.859 231.95 114.95ZM237.269 114.928C237.269 113.696 237.519 112.618 238.017 111.694C238.516 110.755 239.198 110.029 240.063 109.516C240.943 109.003 241.919 108.746 242.989 108.746C244.045 108.746 244.962 108.973 245.739 109.428C246.517 109.883 247.096 110.455 247.477 111.144V108.944H249.501V121H247.477V118.756C247.081 119.46 246.487 120.047 245.695 120.516C244.918 120.971 244.009 121.198 242.967 121.198C241.897 121.198 240.929 120.934 240.063 120.406C239.198 119.878 238.516 119.137 238.017 118.184C237.519 117.231 237.269 116.145 237.269 114.928ZM247.477 114.95C247.477 114.041 247.294 113.249 246.927 112.574C246.561 111.899 246.062 111.386 245.431 111.034C244.815 110.667 244.133 110.484 243.385 110.484C242.637 110.484 241.955 110.66 241.339 111.012C240.723 111.364 240.232 111.877 239.865 112.552C239.499 113.227 239.315 114.019 239.315 114.928C239.315 115.852 239.499 116.659 239.865 117.348C240.232 118.023 240.723 118.543 241.339 118.91C241.955 119.262 242.637 119.438 243.385 119.438C244.133 119.438 244.815 119.262 245.431 118.91C246.062 118.543 246.561 118.023 246.927 117.348C247.294 116.659 247.477 115.859 247.477 114.95ZM259.419 108.724C260.885 108.724 262.073 109.171 262.983 110.066C263.892 110.946 264.347 112.222 264.347 113.894V121H262.367V114.18C262.367 112.977 262.066 112.061 261.465 111.43C260.863 110.785 260.042 110.462 259.001 110.462C257.945 110.462 257.101 110.792 256.471 111.452C255.855 112.112 255.547 113.073 255.547 114.334V121H253.545V108.944H255.547V110.66C255.943 110.044 256.478 109.567 257.153 109.23C257.842 108.893 258.597 108.724 259.419 108.724ZM269.311 106.986C268.929 106.986 268.607 106.854 268.343 106.59C268.079 106.326 267.947 106.003 267.947 105.622C267.947 105.241 268.079 104.918 268.343 104.654C268.607 104.39 268.929 104.258 269.311 104.258C269.677 104.258 269.985 104.39 270.235 104.654C270.499 104.918 270.631 105.241 270.631 105.622C270.631 106.003 270.499 106.326 270.235 106.59C269.985 106.854 269.677 106.986 269.311 106.986ZM270.279 108.944V121H268.277V108.944H270.279ZM275.847 119.35H281.765V121H273.559V119.35L279.411 110.572H273.603V108.944H281.721V110.572L275.847 119.35ZM284.275 114.928C284.275 113.696 284.524 112.618 285.023 111.694C285.521 110.755 286.203 110.029 287.069 109.516C287.949 109.003 288.924 108.746 289.995 108.746C291.051 108.746 291.967 108.973 292.745 109.428C293.522 109.883 294.101 110.455 294.483 111.144V108.944H296.507V121H294.483V118.756C294.087 119.46 293.493 120.047 292.701 120.516C291.923 120.971 291.014 121.198 289.973 121.198C288.902 121.198 287.934 120.934 287.069 120.406C286.203 119.878 285.521 119.137 285.023 118.184C284.524 117.231 284.275 116.145 284.275 114.928ZM294.483 114.95C294.483 114.041 294.299 113.249 293.933 112.574C293.566 111.899 293.067 111.386 292.437 111.034C291.821 110.667 291.139 110.484 290.391 110.484C289.643 110.484 288.961 110.66 288.345 111.012C287.729 111.364 287.237 111.877 286.871 112.552C286.504 113.227 286.321 114.019 286.321 114.928C286.321 115.852 286.504 116.659 286.871 117.348C287.237 118.023 287.729 118.543 288.345 118.91C288.961 119.262 289.643 119.438 290.391 119.438C291.139 119.438 291.821 119.262 292.437 118.91C293.067 118.543 293.566 118.023 293.933 117.348C294.299 116.659 294.483 115.859 294.483 114.95ZM302.992 110.594V117.7C302.992 118.287 303.116 118.705 303.366 118.954C303.615 119.189 304.048 119.306 304.664 119.306H306.138V121H304.334C303.219 121 302.383 120.743 301.826 120.23C301.268 119.717 300.99 118.873 300.99 117.7V110.594H299.428V108.944H300.99V105.908H302.992V108.944H306.138V110.594H302.992ZM310.257 106.986C309.876 106.986 309.553 106.854 309.289 106.59C309.025 106.326 308.893 106.003 308.893 105.622C308.893 105.241 309.025 104.918 309.289 104.654C309.553 104.39 309.876 104.258 310.257 104.258C310.624 104.258 310.932 104.39 311.181 104.654C311.445 104.918 311.577 105.241 311.577 105.622C311.577 106.003 311.445 106.326 311.181 106.59C310.932 106.854 310.624 106.986 310.257 106.986ZM311.225 108.944V121H309.223V108.944H311.225ZM320.556 121.198C319.426 121.198 318.4 120.941 317.476 120.428C316.566 119.915 315.848 119.189 315.32 118.25C314.806 117.297 314.55 116.197 314.55 114.95C314.55 113.718 314.814 112.633 315.342 111.694C315.884 110.741 316.618 110.015 317.542 109.516C318.466 109.003 319.5 108.746 320.644 108.746C321.788 108.746 322.822 109.003 323.746 109.516C324.67 110.015 325.396 110.733 325.924 111.672C326.466 112.611 326.738 113.703 326.738 114.95C326.738 116.197 326.459 117.297 325.902 118.25C325.359 119.189 324.618 119.915 323.68 120.428C322.741 120.941 321.7 121.198 320.556 121.198ZM320.556 119.438C321.274 119.438 321.949 119.269 322.58 118.932C323.21 118.595 323.716 118.089 324.098 117.414C324.494 116.739 324.692 115.918 324.692 114.95C324.692 113.982 324.501 113.161 324.12 112.486C323.738 111.811 323.24 111.313 322.624 110.99C322.008 110.653 321.34 110.484 320.622 110.484C319.888 110.484 319.214 110.653 318.598 110.99C317.996 111.313 317.512 111.811 317.146 112.486C316.779 113.161 316.596 113.982 316.596 114.95C316.596 115.933 316.772 116.761 317.124 117.436C317.49 118.111 317.974 118.617 318.576 118.954C319.177 119.277 319.837 119.438 320.556 119.438ZM335.904 108.724C337.37 108.724 338.558 109.171 339.468 110.066C340.377 110.946 340.832 112.222 340.832 113.894V121H338.852V114.18C338.852 112.977 338.551 112.061 337.95 111.43C337.348 110.785 336.527 110.462 335.486 110.462C334.43 110.462 333.586 110.792 332.956 111.452C332.34 112.112 332.032 113.073 332.032 114.334V121H330.03V108.944H332.032V110.66C332.428 110.044 332.963 109.567 333.638 109.23C334.327 108.893 335.082 108.724 335.904 108.724ZM353.122 112.09V113.784H344.344V112.09H353.122ZM356.791 113.322C356.791 111.826 357.129 110.484 357.803 109.296C358.478 108.093 359.395 107.155 360.553 106.48C361.727 105.805 363.025 105.468 364.447 105.468C366.119 105.468 367.579 105.871 368.825 106.678C370.072 107.485 370.981 108.629 371.553 110.11H369.155C368.73 109.186 368.114 108.475 367.307 107.976C366.515 107.477 365.562 107.228 364.447 107.228C363.377 107.228 362.416 107.477 361.565 107.976C360.715 108.475 360.047 109.186 359.563 110.11C359.079 111.019 358.837 112.09 358.837 113.322C358.837 114.539 359.079 115.61 359.563 116.534C360.047 117.443 360.715 118.147 361.565 118.646C362.416 119.145 363.377 119.394 364.447 119.394C365.562 119.394 366.515 119.152 367.307 118.668C368.114 118.169 368.73 117.458 369.155 116.534H371.553C370.981 118.001 370.072 119.137 368.825 119.944C367.579 120.736 366.119 121.132 364.447 121.132C363.025 121.132 361.727 120.802 360.553 120.142C359.395 119.467 358.478 118.536 357.803 117.348C357.129 116.16 356.791 114.818 356.791 113.322ZM380.451 121.198C379.322 121.198 378.295 120.941 377.371 120.428C376.462 119.915 375.743 119.189 375.215 118.25C374.702 117.297 374.445 116.197 374.445 114.95C374.445 113.718 374.709 112.633 375.237 111.694C375.78 110.741 376.513 110.015 377.437 109.516C378.361 109.003 379.395 108.746 380.539 108.746C381.683 108.746 382.717 109.003 383.641 109.516C384.565 110.015 385.291 110.733 385.819 111.672C386.362 112.611 386.633 113.703 386.633 114.95C386.633 116.197 386.355 117.297 385.797 118.25C385.255 119.189 384.514 119.915 383.575 120.428C382.637 120.941 381.595 121.198 380.451 121.198ZM380.451 119.438C381.17 119.438 381.845 119.269 382.475 118.932C383.106 118.595 383.612 118.089 383.993 117.414C384.389 116.739 384.587 115.918 384.587 114.95C384.587 113.982 384.397 113.161 384.015 112.486C383.634 111.811 383.135 111.313 382.519 110.99C381.903 110.653 381.236 110.484 380.517 110.484C379.784 110.484 379.109 110.653 378.493 110.99C377.892 111.313 377.408 111.811 377.041 112.486C376.675 113.161 376.491 113.982 376.491 114.95C376.491 115.933 376.667 116.761 377.019 117.436C377.386 118.111 377.87 118.617 378.471 118.954C379.073 119.277 379.733 119.438 380.451 119.438ZM395.8 108.724C397.266 108.724 398.454 109.171 399.364 110.066C400.273 110.946 400.728 112.222 400.728 113.894V121H398.748V114.18C398.748 112.977 398.447 112.061 397.846 111.43C397.244 110.785 396.423 110.462 395.382 110.462C394.326 110.462 393.482 110.792 392.852 111.452C392.236 112.112 391.928 113.073 391.928 114.334V121H389.926V108.944H391.928V110.66C392.324 110.044 392.859 109.567 393.534 109.23C394.223 108.893 394.978 108.724 395.8 108.724ZM407.1 110.594V117.7C407.1 118.287 407.225 118.705 407.474 118.954C407.723 119.189 408.156 119.306 408.772 119.306H410.246V121H408.442C407.327 121 406.491 120.743 405.934 120.23C405.377 119.717 405.098 118.873 405.098 117.7V110.594H403.536V108.944H405.098V105.908H407.1V108.944H410.246V110.594H407.1ZM415.334 110.902C415.686 110.213 416.184 109.677 416.83 109.296C417.49 108.915 418.289 108.724 419.228 108.724V110.792H418.7C416.456 110.792 415.334 112.009 415.334 114.444V121H413.332V108.944H415.334V110.902ZM427.457 121.198C426.327 121.198 425.301 120.941 424.377 120.428C423.467 119.915 422.749 119.189 422.221 118.25C421.707 117.297 421.451 116.197 421.451 114.95C421.451 113.718 421.715 112.633 422.243 111.694C422.785 110.741 423.519 110.015 424.443 109.516C425.367 109.003 426.401 108.746 427.545 108.746C428.689 108.746 429.723 109.003 430.647 109.516C431.571 110.015 432.297 110.733 432.825 111.672C433.367 112.611 433.639 113.703 433.639 114.95C433.639 116.197 433.36 117.297 432.803 118.25C432.26 119.189 431.519 119.915 430.581 120.428C429.642 120.941 428.601 121.198 427.457 121.198ZM427.457 119.438C428.175 119.438 428.85 119.269 429.481 118.932C430.111 118.595 430.617 118.089 430.999 117.414C431.395 116.739 431.593 115.918 431.593 114.95C431.593 113.982 431.402 113.161 431.021 112.486C430.639 111.811 430.141 111.313 429.525 110.99C428.909 110.653 428.241 110.484 427.523 110.484C426.789 110.484 426.115 110.653 425.499 110.99C424.897 111.313 424.413 111.811 424.047 112.486C423.68 113.161 423.497 113.982 423.497 114.95C423.497 115.933 423.673 116.761 424.025 117.436C424.391 118.111 424.875 118.617 425.477 118.954C426.078 119.277 426.738 119.438 427.457 119.438ZM438.933 104.72V121H436.931V104.72H438.933ZM445.007 104.72V121H443.005V104.72H445.007ZM460.079 114.51C460.079 114.891 460.057 115.295 460.013 115.72H450.377C450.45 116.908 450.854 117.839 451.587 118.514C452.335 119.174 453.237 119.504 454.293 119.504C455.158 119.504 455.877 119.306 456.449 118.91C457.036 118.499 457.446 117.957 457.681 117.282H459.837C459.514 118.441 458.869 119.387 457.901 120.12C456.933 120.839 455.73 121.198 454.293 121.198C453.149 121.198 452.122 120.941 451.213 120.428C450.318 119.915 449.614 119.189 449.101 118.25C448.588 117.297 448.331 116.197 448.331 114.95C448.331 113.703 448.58 112.611 449.079 111.672C449.578 110.733 450.274 110.015 451.169 109.516C452.078 109.003 453.12 108.746 454.293 108.746C455.437 108.746 456.449 108.995 457.329 109.494C458.209 109.993 458.884 110.682 459.353 111.562C459.837 112.427 460.079 113.41 460.079 114.51ZM458.011 114.092C458.011 113.329 457.842 112.677 457.505 112.134C457.168 111.577 456.706 111.159 456.119 110.88C455.547 110.587 454.909 110.44 454.205 110.44C453.193 110.44 452.328 110.763 451.609 111.408C450.905 112.053 450.502 112.948 450.399 114.092H458.011ZM462.634 114.928C462.634 113.696 462.883 112.618 463.382 111.694C463.88 110.755 464.562 110.029 465.428 109.516C466.308 109.003 467.29 108.746 468.376 108.746C469.314 108.746 470.187 108.966 470.994 109.406C471.8 109.831 472.416 110.396 472.842 111.1V104.72H474.866V121H472.842V118.734C472.446 119.453 471.859 120.047 471.082 120.516C470.304 120.971 469.395 121.198 468.354 121.198C467.283 121.198 466.308 120.934 465.428 120.406C464.562 119.878 463.88 119.137 463.382 118.184C462.883 117.231 462.634 116.145 462.634 114.928ZM472.842 114.95C472.842 114.041 472.658 113.249 472.292 112.574C471.925 111.899 471.426 111.386 470.796 111.034C470.18 110.667 469.498 110.484 468.75 110.484C468.002 110.484 467.32 110.66 466.704 111.012C466.088 111.364 465.596 111.877 465.23 112.552C464.863 113.227 464.68 114.019 464.68 114.928C464.68 115.852 464.863 116.659 465.23 117.348C465.596 118.023 466.088 118.543 466.704 118.91C467.32 119.262 468.002 119.438 468.75 119.438C469.498 119.438 470.18 119.262 470.796 118.91C471.426 118.543 471.925 118.023 472.292 117.348C472.658 116.659 472.842 115.859 472.842 114.95ZM498.106 105.666L492.32 121H490.01L484.224 105.666H486.358L491.176 118.888L495.994 105.666H498.106ZM500.213 114.928C500.213 113.696 500.463 112.618 500.961 111.694C501.46 110.755 502.142 110.029 503.007 109.516C503.887 109.003 504.863 108.746 505.933 108.746C506.989 108.746 507.906 108.973 508.683 109.428C509.461 109.883 510.04 110.455 510.421 111.144V108.944H512.445V121H510.421V118.756C510.025 119.46 509.431 120.047 508.639 120.516C507.862 120.971 506.953 121.198 505.911 121.198C504.841 121.198 503.873 120.934 503.007 120.406C502.142 119.878 501.46 119.137 500.961 118.184C500.463 117.231 500.213 116.145 500.213 114.928ZM510.421 114.95C510.421 114.041 510.238 113.249 509.871 112.574C509.505 111.899 509.006 111.386 508.375 111.034C507.759 110.667 507.077 110.484 506.329 110.484C505.581 110.484 504.899 110.66 504.283 111.012C503.667 111.364 503.176 111.877 502.809 112.552C502.443 113.227 502.259 114.019 502.259 114.928C502.259 115.852 502.443 116.659 502.809 117.348C503.176 118.023 503.667 118.543 504.283 118.91C504.899 119.262 505.581 119.438 506.329 119.438C507.077 119.438 507.759 119.262 508.375 118.91C509.006 118.543 509.505 118.023 509.871 117.348C510.238 116.659 510.421 115.859 510.421 114.95ZM527.18 108.944V121H525.178V119.218C524.797 119.834 524.262 120.318 523.572 120.67C522.898 121.007 522.15 121.176 521.328 121.176C520.39 121.176 519.546 120.985 518.798 120.604C518.05 120.208 517.456 119.621 517.016 118.844C516.591 118.067 516.378 117.121 516.378 116.006V108.944H518.358V115.742C518.358 116.93 518.659 117.847 519.26 118.492C519.862 119.123 520.683 119.438 521.724 119.438C522.795 119.438 523.638 119.108 524.254 118.448C524.87 117.788 525.178 116.827 525.178 115.566V108.944H527.18ZM533.223 104.72V121H531.221V104.72H533.223ZM539.737 110.594V117.7C539.737 118.287 539.861 118.705 540.111 118.954C540.36 119.189 540.793 119.306 541.409 119.306H542.883V121H541.079C539.964 121 539.128 120.743 538.571 120.23C538.013 119.717 537.735 118.873 537.735 117.7V110.594H536.173V108.944H537.735V105.908H539.737V108.944H542.883V110.594H539.737ZM550.236 121.198C549.312 121.198 548.484 121.044 547.75 120.736C547.017 120.413 546.438 119.973 546.012 119.416C545.587 118.844 545.352 118.191 545.308 117.458H547.376C547.435 118.059 547.714 118.551 548.212 118.932C548.726 119.313 549.393 119.504 550.214 119.504C550.977 119.504 551.578 119.335 552.018 118.998C552.458 118.661 552.678 118.235 552.678 117.722C552.678 117.194 552.444 116.805 551.974 116.556C551.505 116.292 550.779 116.035 549.796 115.786C548.902 115.551 548.168 115.317 547.596 115.082C547.039 114.833 546.555 114.473 546.144 114.004C545.748 113.52 545.55 112.889 545.55 112.112C545.55 111.496 545.734 110.931 546.1 110.418C546.467 109.905 546.988 109.501 547.662 109.208C548.337 108.9 549.107 108.746 549.972 108.746C551.307 108.746 552.385 109.083 553.206 109.758C554.028 110.433 554.468 111.357 554.526 112.53H552.524C552.48 111.899 552.224 111.393 551.754 111.012C551.3 110.631 550.684 110.44 549.906 110.44C549.188 110.44 548.616 110.594 548.19 110.902C547.765 111.21 547.552 111.613 547.552 112.112C547.552 112.508 547.677 112.838 547.926 113.102C548.19 113.351 548.513 113.557 548.894 113.718C549.29 113.865 549.833 114.033 550.522 114.224C551.388 114.459 552.092 114.693 552.634 114.928C553.177 115.148 553.639 115.485 554.02 115.94C554.416 116.395 554.622 116.989 554.636 117.722C554.636 118.382 554.453 118.976 554.086 119.504C553.72 120.032 553.199 120.45 552.524 120.758C551.864 121.051 551.102 121.198 550.236 121.198Z" fill="black"/>
<g clip-path="url(#clip5_5432_439)">
<mask id="path-12-inside-2_5432_439" fill="white">
<path d="M586 74H1110V155H586V74Z"/>
</mask>
<path d="M586 74H1110V155H586V74Z" fill="white"/>
<path d="M619.372 113.102C619.929 113.19 620.435 113.417 620.89 113.784C621.359 114.151 621.726 114.605 621.99 115.148C622.269 115.691 622.408 116.27 622.408 116.886C622.408 117.663 622.21 118.367 621.814 118.998C621.418 119.614 620.839 120.105 620.076 120.472C619.328 120.824 618.441 121 617.414 121H611.694V105.666H617.194C618.235 105.666 619.123 105.842 619.856 106.194C620.589 106.531 621.139 106.993 621.506 107.58C621.873 108.167 622.056 108.827 622.056 109.56C622.056 110.469 621.807 111.225 621.308 111.826C620.824 112.413 620.179 112.838 619.372 113.102ZM613.696 112.288H617.062C618.001 112.288 618.727 112.068 619.24 111.628C619.753 111.188 620.01 110.579 620.01 109.802C620.01 109.025 619.753 108.416 619.24 107.976C618.727 107.536 617.986 107.316 617.018 107.316H613.696V112.288ZM617.238 119.35C618.235 119.35 619.013 119.115 619.57 118.646C620.127 118.177 620.406 117.524 620.406 116.688C620.406 115.837 620.113 115.17 619.526 114.686C618.939 114.187 618.155 113.938 617.172 113.938H613.696V119.35H617.238ZM635.284 105.666V107.294H631.104V121H629.102V107.294H624.9V105.666H635.284ZM637.661 113.322C637.661 111.826 637.998 110.484 638.673 109.296C639.347 108.093 640.264 107.155 641.423 106.48C642.596 105.805 643.894 105.468 645.317 105.468C646.989 105.468 648.448 105.871 649.695 106.678C650.941 107.485 651.851 108.629 652.423 110.11H650.025C649.599 109.186 648.983 108.475 648.177 107.976C647.385 107.477 646.431 107.228 645.317 107.228C644.246 107.228 643.285 107.477 642.435 107.976C641.584 108.475 640.917 109.186 640.433 110.11C639.949 111.019 639.707 112.09 639.707 113.322C639.707 114.539 639.949 115.61 640.433 116.534C640.917 117.443 641.584 118.147 642.435 118.646C643.285 119.145 644.246 119.394 645.317 119.394C646.431 119.394 647.385 119.152 648.177 118.668C648.983 118.169 649.599 117.458 650.025 116.534H652.423C651.851 118.001 650.941 119.137 649.695 119.944C648.448 120.736 646.989 121.132 645.317 121.132C643.894 121.132 642.596 120.802 641.423 120.142C640.264 119.467 639.347 118.536 638.673 117.348C637.998 116.16 637.661 114.818 637.661 113.322Z" fill="black"/>
<path d="M1110 74V155" stroke="black" stroke-width="2" stroke-linejoin="round"/>
<path d="M1110 74V155" stroke="black" stroke-width="2" stroke-linejoin="round"/>
</g>
<path d="M1110 155V156H1111V155H1110ZM1109 74V155H1111V74H1109ZM1110 154H586V156H1110V154Z" fill="black" mask="url(#path-12-inside-2_5432_439)"/>
<g clip-path="url(#clip6_5432_439)">
<mask id="path-17-inside-3_5432_439" fill="white">
<path d="M1110 74H1600V155H1110V74Z"/>
</mask>
<path d="M1110 74H1600V155H1110V74Z" fill="white"/>
<path d="M1143.37 113.102C1143.93 113.19 1144.44 113.417 1144.89 113.784C1145.36 114.151 1145.73 114.605 1145.99 115.148C1146.27 115.691 1146.41 116.27 1146.41 116.886C1146.41 117.663 1146.21 118.367 1145.81 118.998C1145.42 119.614 1144.84 120.105 1144.08 120.472C1143.33 120.824 1142.44 121 1141.41 121H1135.69V105.666H1141.19C1142.24 105.666 1143.12 105.842 1143.86 106.194C1144.59 106.531 1145.14 106.993 1145.51 107.58C1145.87 108.167 1146.06 108.827 1146.06 109.56C1146.06 110.469 1145.81 111.225 1145.31 111.826C1144.82 112.413 1144.18 112.838 1143.37 113.102ZM1137.7 112.288H1141.06C1142 112.288 1142.73 112.068 1143.24 111.628C1143.75 111.188 1144.01 110.579 1144.01 109.802C1144.01 109.025 1143.75 108.416 1143.24 107.976C1142.73 107.536 1141.99 107.316 1141.02 107.316H1137.7V112.288ZM1141.24 119.35C1142.24 119.35 1143.01 119.115 1143.57 118.646C1144.13 118.177 1144.41 117.524 1144.41 116.688C1144.41 115.837 1144.11 115.17 1143.53 114.686C1142.94 114.187 1142.15 113.938 1141.17 113.938H1137.7V119.35H1141.24ZM1149.1 114.928C1149.1 113.696 1149.35 112.618 1149.85 111.694C1150.34 110.755 1151.03 110.029 1151.89 109.516C1152.77 109.003 1153.75 108.746 1154.82 108.746C1155.87 108.746 1156.79 108.973 1157.57 109.428C1158.35 109.883 1158.92 110.455 1159.31 111.144V108.944H1161.33V121H1159.31V118.756C1158.91 119.46 1158.32 120.047 1157.52 120.516C1156.75 120.971 1155.84 121.198 1154.8 121.198C1153.73 121.198 1152.76 120.934 1151.89 120.406C1151.03 119.878 1150.34 119.137 1149.85 118.184C1149.35 117.231 1149.1 116.145 1149.1 114.928ZM1159.31 114.95C1159.31 114.041 1159.12 113.249 1158.76 112.574C1158.39 111.899 1157.89 111.386 1157.26 111.034C1156.64 110.667 1155.96 110.484 1155.21 110.484C1154.47 110.484 1153.78 110.66 1153.17 111.012C1152.55 111.364 1152.06 111.877 1151.69 112.552C1151.33 113.227 1151.14 114.019 1151.14 114.928C1151.14 115.852 1151.33 116.659 1151.69 117.348C1152.06 118.023 1152.55 118.543 1153.17 118.91C1153.78 119.262 1154.47 119.438 1155.21 119.438C1155.96 119.438 1156.64 119.262 1157.26 118.91C1157.89 118.543 1158.39 118.023 1158.76 117.348C1159.12 116.659 1159.31 115.859 1159.31 114.95ZM1167.38 111.188C1167.79 110.469 1168.39 109.883 1169.18 109.428C1169.97 108.973 1170.87 108.746 1171.89 108.746C1172.97 108.746 1173.95 109.003 1174.81 109.516C1175.68 110.029 1176.36 110.755 1176.86 111.694C1177.36 112.618 1177.61 113.696 1177.61 114.928C1177.61 116.145 1177.36 117.231 1176.86 118.184C1176.36 119.137 1175.67 119.878 1174.79 120.406C1173.92 120.934 1172.96 121.198 1171.89 121.198C1170.84 121.198 1169.93 120.971 1169.14 120.516C1168.36 120.061 1167.77 119.482 1167.38 118.778V121H1165.37V104.72H1167.38V111.188ZM1175.56 114.928C1175.56 114.019 1175.38 113.227 1175.01 112.552C1174.64 111.877 1174.14 111.364 1173.51 111.012C1172.9 110.66 1172.22 110.484 1171.47 110.484C1170.73 110.484 1170.05 110.667 1169.42 111.034C1168.81 111.386 1168.31 111.907 1167.93 112.596C1167.56 113.271 1167.38 114.055 1167.38 114.95C1167.38 115.859 1167.56 116.659 1167.93 117.348C1168.31 118.023 1168.81 118.543 1169.42 118.91C1170.05 119.262 1170.73 119.438 1171.47 119.438C1172.22 119.438 1172.9 119.262 1173.51 118.91C1174.14 118.543 1174.64 118.023 1175.01 117.348C1175.38 116.659 1175.56 115.852 1175.56 114.928ZM1191.28 108.944L1184.02 126.676H1181.96L1184.33 120.868L1179.47 108.944H1181.69L1185.48 118.712L1189.22 108.944H1191.28ZM1195.96 104.72V121H1193.96V104.72H1195.96ZM1205.29 121.198C1204.16 121.198 1203.13 120.941 1202.21 120.428C1201.3 119.915 1200.58 119.189 1200.05 118.25C1199.54 117.297 1199.28 116.197 1199.28 114.95C1199.28 113.718 1199.55 112.633 1200.08 111.694C1200.62 110.741 1201.35 110.015 1202.28 109.516C1203.2 109.003 1204.23 108.746 1205.38 108.746C1206.52 108.746 1207.56 109.003 1208.48 109.516C1209.4 110.015 1210.13 110.733 1210.66 111.672C1211.2 112.611 1211.47 113.703 1211.47 114.95C1211.47 116.197 1211.19 117.297 1210.64 118.25C1210.09 119.189 1209.35 119.915 1208.41 120.428C1207.47 120.941 1206.43 121.198 1205.29 121.198ZM1205.29 119.438C1206.01 119.438 1206.68 119.269 1207.31 118.932C1207.94 118.595 1208.45 118.089 1208.83 117.414C1209.23 116.739 1209.43 115.918 1209.43 114.95C1209.43 113.982 1209.23 113.161 1208.85 112.486C1208.47 111.811 1207.97 111.313 1207.36 110.99C1206.74 110.653 1206.07 110.484 1205.36 110.484C1204.62 110.484 1203.95 110.653 1203.33 110.99C1202.73 111.313 1202.25 111.811 1201.88 112.486C1201.51 113.161 1201.33 113.982 1201.33 114.95C1201.33 115.933 1201.51 116.761 1201.86 117.436C1202.22 118.111 1202.71 118.617 1203.31 118.954C1203.91 119.277 1204.57 119.438 1205.29 119.438ZM1220.64 108.724C1222.1 108.724 1223.29 109.171 1224.2 110.066C1225.11 110.946 1225.57 112.222 1225.57 113.894V121H1223.59V114.18C1223.59 112.977 1223.28 112.061 1222.68 111.43C1222.08 110.785 1221.26 110.462 1220.22 110.462C1219.16 110.462 1218.32 110.792 1217.69 111.452C1217.07 112.112 1216.77 113.073 1216.77 114.334V121H1214.76V108.944H1216.77V110.66C1217.16 110.044 1217.7 109.567 1218.37 109.23C1219.06 108.893 1219.82 108.724 1220.64 108.724Z" fill="black"/>
<path d="M1600 74V155" stroke="black" stroke-width="2" stroke-linejoin="round"/>
<path d="M1600 74V155" stroke="black" stroke-width="2" stroke-linejoin="round"/>
</g>
<path d="M1600 155V156H1601V155H1600ZM1599 74V155H1601V74H1599ZM1600 154H1110V156H1600V154Z" fill="black" mask="url(#path-17-inside-3_5432_439)"/>
</g>
</g>
<rect x="0.5" y="0.5" width="1599" height="154" stroke="black"/>
<defs>
<clipPath id="clip0_5432_439">
<rect width="1600" height="155" fill="white"/>
</clipPath>
<clipPath id="clip1_5432_439">
<rect width="1600" height="155" fill="white"/>
</clipPath>
<clipPath id="clip2_5432_439">
<rect width="586" height="74" fill="white"/>
</clipPath>
<clipPath id="clip3_5432_439">
<rect width="524" height="74" fill="white" transform="translate(586)"/>
</clipPath>
<clipPath id="clip4_5432_439">
<rect width="490" height="74" fill="white" transform="translate(1110)"/>
</clipPath>
<clipPath id="clip5_5432_439">
<path d="M586 74H1110V155H586V74Z" fill="white"/>
</clipPath>
<clipPath id="clip6_5432_439">
<path d="M1110 74H1600V155H1110V74Z" fill="white"/>
</clipPath>
</defs>
</svg>
