<svg width="1600" height="754" viewBox="0 0 1600 754" fill="none" xmlns="http://www.w3.org/2000/svg">
<rect width="1600" height="754" fill="white"/>
<rect x="27" y="127" width="772" height="618" rx="23" fill="#1F32D6" fill-opacity="0.08"/>
<rect x="27" y="127" width="772" height="618" rx="23" stroke="#1F32D6" stroke-width="2"/>
<rect x="284" y="226" width="259" height="94" rx="7" fill="#1F32D6"/>
<rect x="284" y="226" width="259" height="94" rx="7" stroke="#1F32D6" stroke-width="2"/>
<path d="M334.92 263.248V280H331.56V269.104L327.072 280H324.528L320.016 269.104V280H316.656V263.248H320.472L325.8 275.704L331.128 263.248H334.92ZM350.458 268.432C350.458 269.328 350.242 270.168 349.81 270.952C349.394 271.736 348.73 272.368 347.818 272.848C346.922 273.328 345.786 273.568 344.41 273.568H341.602V280H338.242V263.248H344.41C345.706 263.248 346.81 263.472 347.722 263.92C348.634 264.368 349.314 264.984 349.762 265.768C350.226 266.552 350.458 267.44 350.458 268.432ZM344.266 270.856C345.194 270.856 345.882 270.648 346.33 270.232C346.778 269.8 347.002 269.2 347.002 268.432C347.002 266.8 346.09 265.984 344.266 265.984H341.602V270.856H344.266ZM352.028 271.6C352.028 269.952 352.396 268.48 353.132 267.184C353.884 265.872 354.9 264.856 356.18 264.136C357.476 263.4 358.924 263.032 360.524 263.032C362.396 263.032 364.036 263.512 365.444 264.472C366.852 265.432 367.836 266.76 368.396 268.456H364.532C364.148 267.656 363.604 267.056 362.9 266.656C362.212 266.256 361.412 266.056 360.5 266.056C359.524 266.056 358.652 266.288 357.884 266.752C357.132 267.2 356.54 267.84 356.108 268.672C355.692 269.504 355.484 270.48 355.484 271.6C355.484 272.704 355.692 273.68 356.108 274.528C356.54 275.36 357.132 276.008 357.884 276.472C358.652 276.92 359.524 277.144 360.5 277.144C361.412 277.144 362.212 276.944 362.9 276.544C363.604 276.128 364.148 275.52 364.532 274.72H368.396C367.836 276.432 366.852 277.768 365.444 278.728C364.052 279.672 362.412 280.144 360.524 280.144C358.924 280.144 357.476 279.784 356.18 279.064C354.9 278.328 353.884 277.312 353.132 276.016C352.396 274.72 352.028 273.248 352.028 271.6ZM392.032 263.248L385.888 280H381.808L375.664 263.248H379.264L383.872 276.568L388.456 263.248H392.032ZM393.183 273.304C393.183 271.96 393.447 270.768 393.975 269.728C394.519 268.688 395.247 267.888 396.159 267.328C397.087 266.768 398.119 266.488 399.255 266.488C400.247 266.488 401.111 266.688 401.847 267.088C402.599 267.488 403.199 267.992 403.647 268.6V266.704H407.031V280H403.647V278.056C403.215 278.68 402.615 279.2 401.847 279.616C401.095 280.016 400.223 280.216 399.231 280.216C398.111 280.216 397.087 279.928 396.159 279.352C395.247 278.776 394.519 277.968 393.975 276.928C393.447 275.872 393.183 274.664 393.183 273.304ZM403.647 273.352C403.647 272.536 403.487 271.84 403.167 271.264C402.847 270.672 402.415 270.224 401.871 269.92C401.327 269.6 400.743 269.44 400.119 269.44C399.495 269.44 398.919 269.592 398.391 269.896C397.863 270.2 397.431 270.648 397.095 271.24C396.775 271.816 396.615 272.504 396.615 273.304C396.615 274.104 396.775 274.808 397.095 275.416C397.431 276.008 397.863 276.464 398.391 276.784C398.935 277.104 399.511 277.264 400.119 277.264C400.743 277.264 401.327 277.112 401.871 276.808C402.415 276.488 402.847 276.04 403.167 275.464C403.487 274.872 403.647 274.168 403.647 273.352ZM422.864 266.704V280H419.48V278.32C419.048 278.896 418.48 279.352 417.776 279.688C417.088 280.008 416.336 280.168 415.52 280.168C414.48 280.168 413.56 279.952 412.76 279.52C411.96 279.072 411.328 278.424 410.864 277.576C410.416 276.712 410.192 275.688 410.192 274.504V266.704H413.552V274.024C413.552 275.08 413.816 275.896 414.344 276.472C414.872 277.032 415.592 277.312 416.504 277.312C417.432 277.312 418.16 277.032 418.688 276.472C419.216 275.896 419.48 275.08 419.48 274.024V266.704H422.864ZM429.539 262.24V280H426.179V262.24H429.539ZM436.771 269.464V275.896C436.771 276.344 436.875 276.672 437.083 276.88C437.307 277.072 437.675 277.168 438.187 277.168H439.747V280H437.635C434.803 280 433.387 278.624 433.387 275.872V269.464H431.803V266.704H433.387V263.416H436.771V266.704H439.747V269.464H436.771ZM458.155 276.808H451.483L450.379 280H446.851L452.875 263.224H456.787L462.811 280H459.259L458.155 276.808ZM457.243 274.12L454.819 267.112L452.395 274.12H457.243Z" fill="white"/>
<circle cx="496" cy="273" r="16" fill="white"/>
<path d="M490.16 280.33C490.592 280.33 491.024 280.33 491.456 280.33C491.582 280.33 491.644 280.266 491.644 280.136C491.644 279.492 491.646 278.848 491.642 278.204C491.642 278.102 491.663 278.062 491.776 278.063C492.441 278.069 493.105 278.064 493.77 278.069C493.873 278.069 493.901 278.039 493.901 277.938C493.897 277.282 493.902 276.626 493.896 275.969C493.895 275.85 493.92 275.809 494.049 275.81C494.709 275.817 495.369 275.812 496.03 275.815C496.115 275.815 496.174 275.791 496.233 275.73C496.53 275.428 496.834 275.132 497.13 274.829C497.19 274.769 497.24 274.756 497.322 274.779C498.813 275.207 500.201 274.983 501.449 274.064C502.545 273.257 503.173 272.156 503.307 270.796C503.451 269.339 503.005 268.069 501.973 267.035C500.93 265.989 499.648 265.547 498.177 265.694C496.976 265.815 495.969 266.342 495.178 267.247C494.241 268.32 493.877 269.578 494.067 270.991C494.098 271.22 494.157 271.446 494.218 271.67C494.243 271.761 494.23 271.816 494.163 271.883C493.098 272.939 492.037 273.999 490.975 275.059C490.237 275.796 489.498 276.533 488.764 277.274C488.716 277.322 488.679 277.405 488.679 277.473C488.673 278.378 488.677 279.282 488.673 280.188C488.673 280.298 488.7 280.335 488.815 280.333C489.264 280.327 489.712 280.33 490.161 280.33H490.16ZM498.08 269.327C498.083 268.456 498.782 267.756 499.65 267.754C500.496 267.753 501.209 268.463 501.212 269.313C501.215 270.195 500.509 270.889 499.609 270.889C498.785 270.889 498.076 270.165 498.08 269.328V269.327Z" fill="#1F32D6"/>
<rect x="276" y="482" width="278" height="164" rx="7" fill="white"/>
<rect x="276" y="482" width="278" height="164" rx="7" stroke="#1F32D6" stroke-width="2" stroke-dasharray="8 8"/>
<path d="M338.112 538.168C336.544 538.168 335.104 537.8 333.792 537.064C332.48 536.328 331.44 535.312 330.672 534.016C329.904 532.704 329.52 531.224 329.52 529.576C329.52 527.944 329.904 526.48 330.672 525.184C331.44 523.872 332.48 522.848 333.792 522.112C335.104 521.376 336.544 521.008 338.112 521.008C339.696 521.008 341.136 521.376 342.432 522.112C343.744 522.848 344.776 523.872 345.528 525.184C346.296 526.48 346.68 527.944 346.68 529.576C346.68 531.224 346.296 532.704 345.528 534.016C344.776 535.312 343.744 536.328 342.432 537.064C341.12 537.8 339.68 538.168 338.112 538.168ZM338.112 535.168C339.12 535.168 340.008 534.944 340.776 534.496C341.544 534.032 342.144 533.376 342.576 532.528C343.008 531.68 343.224 530.696 343.224 529.576C343.224 528.456 343.008 527.48 342.576 526.648C342.144 525.8 341.544 525.152 340.776 524.704C340.008 524.256 339.12 524.032 338.112 524.032C337.104 524.032 336.208 524.256 335.424 524.704C334.656 525.152 334.056 525.8 333.624 526.648C333.192 527.48 332.976 528.456 332.976 529.576C332.976 530.696 333.192 531.68 333.624 532.528C334.056 533.376 334.656 534.032 335.424 534.496C336.208 534.944 337.104 535.168 338.112 535.168ZM352.539 526.768C352.971 526.064 353.531 525.512 354.219 525.112C354.923 524.712 355.723 524.512 356.619 524.512V528.04H355.731C354.675 528.04 353.875 528.288 353.331 528.784C352.803 529.28 352.539 530.144 352.539 531.376V538H349.179V524.704H352.539V526.768ZM364.091 524.488C365.083 524.488 365.955 524.688 366.707 525.088C367.459 525.472 368.051 525.976 368.483 526.6V524.704H371.867V538.096C371.867 539.328 371.619 540.424 371.123 541.384C370.627 542.36 369.883 543.128 368.891 543.688C367.899 544.264 366.699 544.552 365.291 544.552C363.403 544.552 361.851 544.112 360.635 543.232C359.435 542.352 358.755 541.152 358.595 539.632H361.931C362.107 540.24 362.483 540.72 363.059 541.072C363.651 541.44 364.363 541.624 365.195 541.624C366.171 541.624 366.963 541.328 367.571 540.736C368.179 540.16 368.483 539.28 368.483 538.096V536.032C368.051 536.656 367.451 537.176 366.683 537.592C365.931 538.008 365.067 538.216 364.091 538.216C362.971 538.216 361.947 537.928 361.019 537.352C360.091 536.776 359.355 535.968 358.811 534.928C358.283 533.872 358.019 532.664 358.019 531.304C358.019 529.96 358.283 528.768 358.811 527.728C359.355 526.688 360.083 525.888 360.995 525.328C361.923 524.768 362.955 524.488 364.091 524.488ZM368.483 531.352C368.483 530.536 368.323 529.84 368.003 529.264C367.683 528.672 367.251 528.224 366.707 527.92C366.163 527.6 365.579 527.44 364.955 527.44C364.331 527.44 363.755 527.592 363.227 527.896C362.699 528.2 362.267 528.648 361.931 529.24C361.611 529.816 361.451 530.504 361.451 531.304C361.451 532.104 361.611 532.808 361.931 533.416C362.267 534.008 362.699 534.464 363.227 534.784C363.771 535.104 364.347 535.264 364.955 535.264C365.579 535.264 366.163 535.112 366.707 534.808C367.251 534.488 367.683 534.04 368.003 533.464C368.323 532.872 368.483 532.168 368.483 531.352ZM374.284 531.304C374.284 529.96 374.548 528.768 375.076 527.728C375.62 526.688 376.348 525.888 377.26 525.328C378.188 524.768 379.22 524.488 380.356 524.488C381.348 524.488 382.212 524.688 382.948 525.088C383.7 525.488 384.3 525.992 384.748 526.6V524.704H388.132V538H384.748V536.056C384.316 536.68 383.716 537.2 382.948 537.616C382.196 538.016 381.324 538.216 380.332 538.216C379.212 538.216 378.188 537.928 377.26 537.352C376.348 536.776 375.62 535.968 375.076 534.928C374.548 533.872 374.284 532.664 374.284 531.304ZM384.748 531.352C384.748 530.536 384.588 529.84 384.268 529.264C383.948 528.672 383.516 528.224 382.972 527.92C382.428 527.6 381.844 527.44 381.22 527.44C380.596 527.44 380.02 527.592 379.492 527.896C378.964 528.2 378.532 528.648 378.196 529.24C377.876 529.816 377.716 530.504 377.716 531.304C377.716 532.104 377.876 532.808 378.196 533.416C378.532 534.008 378.964 534.464 379.492 534.784C380.036 535.104 380.612 535.264 381.22 535.264C381.844 535.264 382.428 535.112 382.972 534.808C383.516 534.488 383.948 534.04 384.268 533.464C384.588 532.872 384.748 532.168 384.748 531.352ZM398.782 524.512C400.366 524.512 401.646 525.016 402.622 526.024C403.598 527.016 404.086 528.408 404.086 530.2V538H400.726V530.656C400.726 529.6 400.462 528.792 399.934 528.232C399.406 527.656 398.686 527.368 397.774 527.368C396.846 527.368 396.11 527.656 395.566 528.232C395.038 528.792 394.774 529.6 394.774 530.656V538H391.414V524.704H394.774V526.36C395.222 525.784 395.79 525.336 396.478 525.016C397.182 524.68 397.95 524.512 398.782 524.512ZM408.985 523.12C408.393 523.12 407.897 522.936 407.497 522.568C407.113 522.184 406.921 521.712 406.921 521.152C406.921 520.592 407.113 520.128 407.497 519.76C407.897 519.376 408.393 519.184 408.985 519.184C409.577 519.184 410.065 519.376 410.449 519.76C410.849 520.128 411.049 520.592 411.049 521.152C411.049 521.712 410.849 522.184 410.449 522.568C410.065 522.936 409.577 523.12 408.985 523.12ZM410.641 524.704V538H407.281V524.704H410.641ZM417.033 535.24H422.961V538H413.217V535.288L419.025 527.464H413.241V524.704H422.889V527.416L417.033 535.24ZM424.698 531.304C424.698 529.96 424.962 528.768 425.49 527.728C426.034 526.688 426.762 525.888 427.674 525.328C428.602 524.768 429.634 524.488 430.77 524.488C431.762 524.488 432.626 524.688 433.362 525.088C434.114 525.488 434.714 525.992 435.162 526.6V524.704H438.546V538H435.162V536.056C434.73 536.68 434.13 537.2 433.362 537.616C432.61 538.016 431.738 538.216 430.746 538.216C429.626 538.216 428.602 537.928 427.674 537.352C426.762 536.776 426.034 535.968 425.49 534.928C424.962 533.872 424.698 532.664 424.698 531.304ZM435.162 531.352C435.162 530.536 435.002 529.84 434.682 529.264C434.362 528.672 433.93 528.224 433.386 527.92C432.842 527.6 432.258 527.44 431.634 527.44C431.01 527.44 430.434 527.592 429.906 527.896C429.378 528.2 428.946 528.648 428.61 529.24C428.29 529.816 428.13 530.504 428.13 531.304C428.13 532.104 428.29 532.808 428.61 533.416C428.946 534.008 429.378 534.464 429.906 534.784C430.45 535.104 431.026 535.264 431.634 535.264C432.258 535.264 432.842 535.112 433.386 534.808C433.93 534.488 434.362 534.04 434.682 533.464C435.002 532.872 435.162 532.168 435.162 531.352ZM445.74 527.464V533.896C445.74 534.344 445.844 534.672 446.052 534.88C446.276 535.072 446.644 535.168 447.156 535.168H448.716V538H446.604C443.772 538 442.356 536.624 442.356 533.872V527.464H440.772V524.704H442.356V521.416H445.74V524.704H448.716V527.464H445.74ZM452.837 523.12C452.245 523.12 451.749 522.936 451.349 522.568C450.965 522.184 450.773 521.712 450.773 521.152C450.773 520.592 450.965 520.128 451.349 519.76C451.749 519.376 452.245 519.184 452.837 519.184C453.429 519.184 453.917 519.376 454.301 519.76C454.701 520.128 454.901 520.592 454.901 521.152C454.901 521.712 454.701 522.184 454.301 522.568C453.917 522.936 453.429 523.12 452.837 523.12ZM454.493 524.704V538H451.133V524.704H454.493ZM463.716 538.216C462.436 538.216 461.284 537.936 460.26 537.376C459.236 536.8 458.428 535.992 457.836 534.952C457.26 533.912 456.972 532.712 456.972 531.352C456.972 529.992 457.268 528.792 457.86 527.752C458.468 526.712 459.292 525.912 460.332 525.352C461.372 524.776 462.532 524.488 463.812 524.488C465.092 524.488 466.252 524.776 467.292 525.352C468.332 525.912 469.148 526.712 469.74 527.752C470.348 528.792 470.652 529.992 470.652 531.352C470.652 532.712 470.34 533.912 469.716 534.952C469.108 535.992 468.276 536.8 467.22 537.376C466.18 537.936 465.012 538.216 463.716 538.216ZM463.716 535.288C464.324 535.288 464.892 535.144 465.42 534.856C465.964 534.552 466.396 534.104 466.716 533.512C467.036 532.92 467.196 532.2 467.196 531.352C467.196 530.088 466.86 529.12 466.188 528.448C465.532 527.76 464.724 527.416 463.764 527.416C462.804 527.416 461.996 527.76 461.34 528.448C460.7 529.12 460.38 530.088 460.38 531.352C460.38 532.616 460.692 533.592 461.316 534.28C461.956 534.952 462.756 535.288 463.716 535.288ZM480.485 524.512C482.069 524.512 483.349 525.016 484.325 526.024C485.301 527.016 485.789 528.408 485.789 530.2V538H482.429V530.656C482.429 529.6 482.165 528.792 481.637 528.232C481.109 527.656 480.389 527.368 479.477 527.368C478.549 527.368 477.813 527.656 477.269 528.232C476.741 528.792 476.477 529.6 476.477 530.656V538H473.117V524.704H476.477V526.36C476.925 525.784 477.493 525.336 478.181 525.016C478.885 524.68 479.653 524.512 480.485 524.512ZM499.208 528.016V530.848H489.032V528.016H499.208ZM351.668 563.6C351.668 561.952 352.036 560.48 352.772 559.184C353.524 557.872 354.54 556.856 355.82 556.136C357.116 555.4 358.564 555.032 360.164 555.032C362.036 555.032 363.676 555.512 365.084 556.472C366.492 557.432 367.476 558.76 368.036 560.456H364.172C363.788 559.656 363.244 559.056 362.54 558.656C361.852 558.256 361.052 558.056 360.14 558.056C359.164 558.056 358.292 558.288 357.524 558.752C356.772 559.2 356.18 559.84 355.748 560.672C355.332 561.504 355.124 562.48 355.124 563.6C355.124 564.704 355.332 565.68 355.748 566.528C356.18 567.36 356.772 568.008 357.524 568.472C358.292 568.92 359.164 569.144 360.14 569.144C361.052 569.144 361.852 568.944 362.54 568.544C363.244 568.128 363.788 567.52 364.172 566.72H368.036C367.476 568.432 366.492 569.768 365.084 570.728C363.692 571.672 362.052 572.144 360.164 572.144C358.564 572.144 357.116 571.784 355.82 571.064C354.54 570.328 353.524 569.312 352.772 568.016C352.036 566.72 351.668 565.248 351.668 563.6ZM376.81 572.216C375.53 572.216 374.378 571.936 373.354 571.376C372.33 570.8 371.522 569.992 370.93 568.952C370.354 567.912 370.066 566.712 370.066 565.352C370.066 563.992 370.362 562.792 370.954 561.752C371.562 560.712 372.386 559.912 373.426 559.352C374.466 558.776 375.626 558.488 376.906 558.488C378.186 558.488 379.346 558.776 380.386 559.352C381.426 559.912 382.242 560.712 382.834 561.752C383.442 562.792 383.746 563.992 383.746 565.352C383.746 566.712 383.434 567.912 382.81 568.952C382.202 569.992 381.37 570.8 380.314 571.376C379.274 571.936 378.106 572.216 376.81 572.216ZM376.81 569.288C377.418 569.288 377.986 569.144 378.514 568.856C379.058 568.552 379.49 568.104 379.81 567.512C380.13 566.92 380.29 566.2 380.29 565.352C380.29 564.088 379.954 563.12 379.282 562.448C378.626 561.76 377.818 561.416 376.858 561.416C375.898 561.416 375.09 561.76 374.434 562.448C373.794 563.12 373.474 564.088 373.474 565.352C373.474 566.616 373.786 567.592 374.41 568.28C375.05 568.952 375.85 569.288 376.81 569.288ZM393.579 558.512C395.163 558.512 396.443 559.016 397.419 560.024C398.395 561.016 398.883 562.408 398.883 564.2V572H395.523V564.656C395.523 563.6 395.259 562.792 394.731 562.232C394.203 561.656 393.483 561.368 392.571 561.368C391.643 561.368 390.907 561.656 390.363 562.232C389.835 562.792 389.571 563.6 389.571 564.656V572H386.211V558.704H389.571V560.36C390.019 559.784 390.587 559.336 391.275 559.016C391.979 558.68 392.747 558.512 393.579 558.512ZM405.99 561.464V567.896C405.99 568.344 406.094 568.672 406.302 568.88C406.526 569.072 406.894 569.168 407.406 569.168H408.966V572H406.854C404.022 572 402.606 570.624 402.606 567.872V561.464H401.022V558.704H402.606V555.416H405.99V558.704H408.966V561.464H405.99ZM414.743 560.768C415.175 560.064 415.735 559.512 416.423 559.112C417.127 558.712 417.927 558.512 418.823 558.512V562.04H417.935C416.879 562.04 416.079 562.288 415.535 562.784C415.007 563.28 414.743 564.144 414.743 565.376V572H411.383V558.704H414.743V560.768ZM426.99 572.216C425.71 572.216 424.558 571.936 423.534 571.376C422.51 570.8 421.702 569.992 421.11 568.952C420.534 567.912 420.246 566.712 420.246 565.352C420.246 563.992 420.542 562.792 421.134 561.752C421.742 560.712 422.566 559.912 423.606 559.352C424.646 558.776 425.806 558.488 427.086 558.488C428.366 558.488 429.526 558.776 430.566 559.352C431.606 559.912 432.422 560.712 433.014 561.752C433.622 562.792 433.926 563.992 433.926 565.352C433.926 566.712 433.614 567.912 432.99 568.952C432.382 569.992 431.55 570.8 430.494 571.376C429.454 571.936 428.286 572.216 426.99 572.216ZM426.99 569.288C427.598 569.288 428.166 569.144 428.694 568.856C429.238 568.552 429.67 568.104 429.99 567.512C430.31 566.92 430.47 566.2 430.47 565.352C430.47 564.088 430.134 563.12 429.462 562.448C428.806 561.76 427.998 561.416 427.038 561.416C426.078 561.416 425.27 561.76 424.614 562.448C423.974 563.12 423.654 564.088 423.654 565.352C423.654 566.616 423.966 567.592 424.59 568.28C425.23 568.952 426.03 569.288 426.99 569.288ZM439.75 554.24V572H436.39V554.24H439.75ZM446.43 554.24V572H443.07V554.24H446.43ZM462.11 565.064C462.11 565.544 462.078 565.976 462.014 566.36H452.294C452.374 567.32 452.71 568.072 453.302 568.616C453.894 569.16 454.622 569.432 455.486 569.432C456.734 569.432 457.622 568.896 458.15 567.824H461.774C461.39 569.104 460.654 570.16 459.566 570.992C458.478 571.808 457.142 572.216 455.558 572.216C454.278 572.216 453.126 571.936 452.102 571.376C451.094 570.8 450.302 569.992 449.726 568.952C449.166 567.912 448.886 566.712 448.886 565.352C448.886 563.976 449.166 562.768 449.726 561.728C450.286 560.688 451.07 559.888 452.078 559.328C453.086 558.768 454.246 558.488 455.558 558.488C456.822 558.488 457.95 558.76 458.942 559.304C459.95 559.848 460.726 560.624 461.27 561.632C461.83 562.624 462.11 563.768 462.11 565.064ZM458.63 564.104C458.614 563.24 458.302 562.552 457.694 562.04C457.086 561.512 456.342 561.248 455.462 561.248C454.63 561.248 453.926 561.504 453.35 562.016C452.79 562.512 452.446 563.208 452.318 564.104H458.63ZM463.698 565.304C463.698 563.96 463.962 562.768 464.49 561.728C465.034 560.688 465.77 559.888 466.698 559.328C467.626 558.768 468.658 558.488 469.794 558.488C470.658 558.488 471.482 558.68 472.266 559.064C473.05 559.432 473.674 559.928 474.138 560.552V554.24H477.546V572H474.138V570.032C473.722 570.688 473.138 571.216 472.386 571.616C471.634 572.016 470.762 572.216 469.77 572.216C468.65 572.216 467.626 571.928 466.698 571.352C465.77 570.776 465.034 569.968 464.49 568.928C463.962 567.872 463.698 566.664 463.698 565.304ZM474.162 565.352C474.162 564.536 474.002 563.84 473.682 563.264C473.362 562.672 472.93 562.224 472.386 561.92C471.842 561.6 471.258 561.44 470.634 561.44C470.01 561.44 469.434 561.592 468.906 561.896C468.378 562.2 467.946 562.648 467.61 563.24C467.29 563.816 467.13 564.504 467.13 565.304C467.13 566.104 467.29 566.808 467.61 567.416C467.946 568.008 468.378 568.464 468.906 568.784C469.45 569.104 470.026 569.264 470.634 569.264C471.258 569.264 471.842 569.112 472.386 568.808C472.93 568.488 473.362 568.04 473.682 567.464C474.002 566.872 474.162 566.168 474.162 565.352ZM392.677 589.248L387.997 606H384.037L380.893 594.072L377.605 606L373.669 606.024L369.157 589.248H372.757L375.709 602.256L379.117 589.248H382.861L386.077 602.184L389.053 589.248H392.677ZM394.007 599.304C394.007 597.96 394.271 596.768 394.799 595.728C395.343 594.688 396.071 593.888 396.983 593.328C397.911 592.768 398.943 592.488 400.079 592.488C401.071 592.488 401.935 592.688 402.671 593.088C403.423 593.488 404.023 593.992 404.471 594.6V592.704H407.855V606H404.471V604.056C404.039 604.68 403.439 605.2 402.671 605.616C401.919 606.016 401.047 606.216 400.055 606.216C398.935 606.216 397.911 605.928 396.983 605.352C396.071 604.776 395.343 603.968 394.799 602.928C394.271 601.872 394.007 600.664 394.007 599.304ZM404.471 599.352C404.471 598.536 404.311 597.84 403.991 597.264C403.671 596.672 403.239 596.224 402.695 595.92C402.151 595.6 401.567 595.44 400.943 595.44C400.319 595.44 399.743 595.592 399.215 595.896C398.687 596.2 398.255 596.648 397.919 597.24C397.599 597.816 397.439 598.504 397.439 599.304C397.439 600.104 397.599 600.808 397.919 601.416C398.255 602.008 398.687 602.464 399.215 602.784C399.759 603.104 400.335 603.264 400.943 603.264C401.567 603.264 402.151 603.112 402.695 602.808C403.239 602.488 403.671 602.04 403.991 601.464C404.311 600.872 404.471 600.168 404.471 599.352ZM414.496 588.24V606H411.136V588.24H414.496ZM421.176 588.24V606H417.816V588.24H421.176ZM436.856 599.064C436.856 599.544 436.824 599.976 436.76 600.36H427.04C427.12 601.32 427.456 602.072 428.048 602.616C428.64 603.16 429.368 603.432 430.232 603.432C431.48 603.432 432.368 602.896 432.896 601.824H436.52C436.136 603.104 435.4 604.16 434.312 604.992C433.224 605.808 431.888 606.216 430.304 606.216C429.024 606.216 427.872 605.936 426.848 605.376C425.84 604.8 425.048 603.992 424.472 602.952C423.912 601.912 423.632 600.712 423.632 599.352C423.632 597.976 423.912 596.768 424.472 595.728C425.032 594.688 425.816 593.888 426.824 593.328C427.832 592.768 428.992 592.488 430.304 592.488C431.568 592.488 432.696 592.76 433.688 593.304C434.696 593.848 435.472 594.624 436.016 595.632C436.576 596.624 436.856 597.768 436.856 599.064ZM433.376 598.104C433.36 597.24 433.048 596.552 432.44 596.04C431.832 595.512 431.088 595.248 430.208 595.248C429.376 595.248 428.672 595.504 428.096 596.016C427.536 596.512 427.192 597.208 427.064 598.104H433.376ZM443.22 595.464V601.896C443.22 602.344 443.324 602.672 443.532 602.88C443.756 603.072 444.124 603.168 444.636 603.168H446.196V606H444.084C441.252 606 439.836 604.624 439.836 601.872V595.464H438.252V592.704H439.836V589.416H443.22V592.704H446.196V595.464H443.22ZM453.54 591.6V588.504H459.324V606H455.868V591.6H453.54Z" fill="#1F32D6"/>
<path d="M415 481L420.773 471L409.226 471L415 481ZM414 321L414 472L416 472L416 321L414 321Z" fill="#4C5BDE"/>
<rect x="823" y="127" width="772" height="618" rx="23" fill="#1F32D6" fill-opacity="0.08"/>
<rect x="823" y="127" width="772" height="618" rx="23" stroke="#1F32D6" stroke-width="2"/>
<rect x="1081" y="226" width="257" height="94" rx="7" fill="#1F32D6"/>
<rect x="1081" y="226" width="257" height="94" rx="7" stroke="#1F32D6" stroke-width="2"/>
<path d="M1131.92 263.248V280H1128.56V269.104L1124.07 280H1121.53L1117.02 269.104V280H1113.66V263.248H1117.47L1122.8 275.704L1128.13 263.248H1131.92ZM1147.46 268.432C1147.46 269.328 1147.24 270.168 1146.81 270.952C1146.39 271.736 1145.73 272.368 1144.82 272.848C1143.92 273.328 1142.79 273.568 1141.41 273.568H1138.6V280H1135.24V263.248H1141.41C1142.71 263.248 1143.81 263.472 1144.72 263.92C1145.63 264.368 1146.31 264.984 1146.76 265.768C1147.23 266.552 1147.46 267.44 1147.46 268.432ZM1141.27 270.856C1142.19 270.856 1142.88 270.648 1143.33 270.232C1143.78 269.8 1144 269.2 1144 268.432C1144 266.8 1143.09 265.984 1141.27 265.984H1138.6V270.856H1141.27ZM1149.03 271.6C1149.03 269.952 1149.4 268.48 1150.13 267.184C1150.88 265.872 1151.9 264.856 1153.18 264.136C1154.48 263.4 1155.92 263.032 1157.52 263.032C1159.4 263.032 1161.04 263.512 1162.44 264.472C1163.85 265.432 1164.84 266.76 1165.4 268.456H1161.53C1161.15 267.656 1160.6 267.056 1159.9 266.656C1159.21 266.256 1158.41 266.056 1157.5 266.056C1156.52 266.056 1155.65 266.288 1154.88 266.752C1154.13 267.2 1153.54 267.84 1153.11 268.672C1152.69 269.504 1152.48 270.48 1152.48 271.6C1152.48 272.704 1152.69 273.68 1153.11 274.528C1153.54 275.36 1154.13 276.008 1154.88 276.472C1155.65 276.92 1156.52 277.144 1157.5 277.144C1158.41 277.144 1159.21 276.944 1159.9 276.544C1160.6 276.128 1161.15 275.52 1161.53 274.72H1165.4C1164.84 276.432 1163.85 277.768 1162.44 278.728C1161.05 279.672 1159.41 280.144 1157.52 280.144C1155.92 280.144 1154.48 279.784 1153.18 279.064C1151.9 278.328 1150.88 277.312 1150.13 276.016C1149.4 274.72 1149.03 273.248 1149.03 271.6ZM1189.03 263.248L1182.89 280H1178.81L1172.66 263.248H1176.26L1180.87 276.568L1185.46 263.248H1189.03ZM1190.18 273.304C1190.18 271.96 1190.45 270.768 1190.97 269.728C1191.52 268.688 1192.25 267.888 1193.16 267.328C1194.09 266.768 1195.12 266.488 1196.25 266.488C1197.25 266.488 1198.11 266.688 1198.85 267.088C1199.6 267.488 1200.2 267.992 1200.65 268.6V266.704H1204.03V280H1200.65V278.056C1200.21 278.68 1199.61 279.2 1198.85 279.616C1198.09 280.016 1197.22 280.216 1196.23 280.216C1195.11 280.216 1194.09 279.928 1193.16 279.352C1192.25 278.776 1191.52 277.968 1190.97 276.928C1190.45 275.872 1190.18 274.664 1190.18 273.304ZM1200.65 273.352C1200.65 272.536 1200.49 271.84 1200.17 271.264C1199.85 270.672 1199.41 270.224 1198.87 269.92C1198.33 269.6 1197.74 269.44 1197.12 269.44C1196.49 269.44 1195.92 269.592 1195.39 269.896C1194.86 270.2 1194.43 270.648 1194.09 271.24C1193.77 271.816 1193.61 272.504 1193.61 273.304C1193.61 274.104 1193.77 274.808 1194.09 275.416C1194.43 276.008 1194.86 276.464 1195.39 276.784C1195.93 277.104 1196.51 277.264 1197.12 277.264C1197.74 277.264 1198.33 277.112 1198.87 276.808C1199.41 276.488 1199.85 276.04 1200.17 275.464C1200.49 274.872 1200.65 274.168 1200.65 273.352ZM1219.86 266.704V280H1216.48V278.32C1216.05 278.896 1215.48 279.352 1214.78 279.688C1214.09 280.008 1213.34 280.168 1212.52 280.168C1211.48 280.168 1210.56 279.952 1209.76 279.52C1208.96 279.072 1208.33 278.424 1207.86 277.576C1207.42 276.712 1207.19 275.688 1207.19 274.504V266.704H1210.55V274.024C1210.55 275.08 1210.82 275.896 1211.34 276.472C1211.87 277.032 1212.59 277.312 1213.5 277.312C1214.43 277.312 1215.16 277.032 1215.69 276.472C1216.22 275.896 1216.48 275.08 1216.48 274.024V266.704H1219.86ZM1226.54 262.24V280H1223.18V262.24H1226.54ZM1233.77 269.464V275.896C1233.77 276.344 1233.88 276.672 1234.08 276.88C1234.31 277.072 1234.68 277.168 1235.19 277.168H1236.75V280H1234.64C1231.8 280 1230.39 278.624 1230.39 275.872V269.464H1228.8V266.704H1230.39V263.416H1233.77V266.704H1236.75V269.464H1233.77ZM1254.39 271.408C1255.33 271.584 1256.11 272.056 1256.71 272.824C1257.32 273.592 1257.63 274.472 1257.63 275.464C1257.63 276.36 1257.4 277.152 1256.95 277.84C1256.52 278.512 1255.89 279.04 1255.06 279.424C1254.23 279.808 1253.24 280 1252.11 280H1244.88V263.248H1251.79C1252.93 263.248 1253.91 263.432 1254.72 263.8C1255.55 264.168 1256.18 264.68 1256.59 265.336C1257.03 265.992 1257.24 266.736 1257.24 267.568C1257.24 268.544 1256.98 269.36 1256.45 270.016C1255.94 270.672 1255.25 271.136 1254.39 271.408ZM1248.24 270.16H1251.31C1252.11 270.16 1252.73 269.984 1253.16 269.632C1253.59 269.264 1253.81 268.744 1253.81 268.072C1253.81 267.4 1253.59 266.88 1253.16 266.512C1252.73 266.144 1252.11 265.96 1251.31 265.96H1248.24V270.16ZM1251.63 277.264C1252.44 277.264 1253.07 277.072 1253.52 276.688C1253.99 276.304 1254.22 275.76 1254.22 275.056C1254.22 274.336 1253.98 273.776 1253.5 273.376C1253.02 272.96 1252.37 272.752 1251.55 272.752H1248.24V277.264H1251.63Z" fill="white"/>
<circle cx="1291" cy="273" r="16" fill="white"/>
<path d="M1285.16 280.33C1285.59 280.33 1286.02 280.33 1286.46 280.33C1286.58 280.33 1286.64 280.266 1286.64 280.136C1286.64 279.492 1286.65 278.848 1286.64 278.204C1286.64 278.102 1286.66 278.062 1286.78 278.063C1287.44 278.069 1288.11 278.064 1288.77 278.069C1288.87 278.069 1288.9 278.039 1288.9 277.938C1288.9 277.282 1288.9 276.626 1288.9 275.969C1288.89 275.85 1288.92 275.809 1289.05 275.81C1289.71 275.817 1290.37 275.812 1291.03 275.815C1291.11 275.815 1291.17 275.791 1291.23 275.73C1291.53 275.428 1291.83 275.132 1292.13 274.829C1292.19 274.769 1292.24 274.756 1292.32 274.779C1293.81 275.207 1295.2 274.983 1296.45 274.064C1297.55 273.257 1298.17 272.156 1298.31 270.796C1298.45 269.339 1298.01 268.069 1296.97 267.035C1295.93 265.989 1294.65 265.547 1293.18 265.694C1291.98 265.815 1290.97 266.342 1290.18 267.247C1289.24 268.32 1288.88 269.578 1289.07 270.991C1289.1 271.22 1289.16 271.446 1289.22 271.67C1289.24 271.761 1289.23 271.816 1289.16 271.883C1288.1 272.939 1287.04 273.999 1285.98 275.059C1285.24 275.796 1284.5 276.533 1283.76 277.274C1283.72 277.322 1283.68 277.405 1283.68 277.473C1283.67 278.378 1283.68 279.282 1283.67 280.188C1283.67 280.298 1283.7 280.335 1283.82 280.333C1284.26 280.327 1284.71 280.33 1285.16 280.33H1285.16ZM1293.08 269.327C1293.08 268.456 1293.78 267.756 1294.65 267.754C1295.5 267.753 1296.21 268.463 1296.21 269.313C1296.22 270.195 1295.51 270.889 1294.61 270.889C1293.78 270.889 1293.08 270.165 1293.08 269.328V269.327Z" fill="#1F32D6"/>
<rect x="887" y="482" width="278" height="164" rx="7" fill="white"/>
<rect x="887" y="482" width="278" height="164" rx="7" stroke="#1F32D6" stroke-width="2" stroke-dasharray="8 8"/>
<path d="M949.112 538.168C947.544 538.168 946.104 537.8 944.792 537.064C943.48 536.328 942.44 535.312 941.672 534.016C940.904 532.704 940.52 531.224 940.52 529.576C940.52 527.944 940.904 526.48 941.672 525.184C942.44 523.872 943.48 522.848 944.792 522.112C946.104 521.376 947.544 521.008 949.112 521.008C950.696 521.008 952.136 521.376 953.432 522.112C954.744 522.848 955.776 523.872 956.528 525.184C957.296 526.48 957.68 527.944 957.68 529.576C957.68 531.224 957.296 532.704 956.528 534.016C955.776 535.312 954.744 536.328 953.432 537.064C952.12 537.8 950.68 538.168 949.112 538.168ZM949.112 535.168C950.12 535.168 951.008 534.944 951.776 534.496C952.544 534.032 953.144 533.376 953.576 532.528C954.008 531.68 954.224 530.696 954.224 529.576C954.224 528.456 954.008 527.48 953.576 526.648C953.144 525.8 952.544 525.152 951.776 524.704C951.008 524.256 950.12 524.032 949.112 524.032C948.104 524.032 947.208 524.256 946.424 524.704C945.656 525.152 945.056 525.8 944.624 526.648C944.192 527.48 943.976 528.456 943.976 529.576C943.976 530.696 944.192 531.68 944.624 532.528C945.056 533.376 945.656 534.032 946.424 534.496C947.208 534.944 948.104 535.168 949.112 535.168ZM963.539 526.768C963.971 526.064 964.531 525.512 965.219 525.112C965.923 524.712 966.723 524.512 967.619 524.512V528.04H966.731C965.675 528.04 964.875 528.288 964.331 528.784C963.803 529.28 963.539 530.144 963.539 531.376V538H960.179V524.704H963.539V526.768ZM975.091 524.488C976.083 524.488 976.955 524.688 977.707 525.088C978.459 525.472 979.051 525.976 979.483 526.6V524.704H982.867V538.096C982.867 539.328 982.619 540.424 982.123 541.384C981.627 542.36 980.883 543.128 979.891 543.688C978.899 544.264 977.699 544.552 976.291 544.552C974.403 544.552 972.851 544.112 971.635 543.232C970.435 542.352 969.755 541.152 969.595 539.632H972.931C973.107 540.24 973.483 540.72 974.059 541.072C974.651 541.44 975.363 541.624 976.195 541.624C977.171 541.624 977.963 541.328 978.571 540.736C979.179 540.16 979.483 539.28 979.483 538.096V536.032C979.051 536.656 978.451 537.176 977.683 537.592C976.931 538.008 976.067 538.216 975.091 538.216C973.971 538.216 972.947 537.928 972.019 537.352C971.091 536.776 970.355 535.968 969.811 534.928C969.283 533.872 969.019 532.664 969.019 531.304C969.019 529.96 969.283 528.768 969.811 527.728C970.355 526.688 971.083 525.888 971.995 525.328C972.923 524.768 973.955 524.488 975.091 524.488ZM979.483 531.352C979.483 530.536 979.323 529.84 979.003 529.264C978.683 528.672 978.251 528.224 977.707 527.92C977.163 527.6 976.579 527.44 975.955 527.44C975.331 527.44 974.755 527.592 974.227 527.896C973.699 528.2 973.267 528.648 972.931 529.24C972.611 529.816 972.451 530.504 972.451 531.304C972.451 532.104 972.611 532.808 972.931 533.416C973.267 534.008 973.699 534.464 974.227 534.784C974.771 535.104 975.347 535.264 975.955 535.264C976.579 535.264 977.163 535.112 977.707 534.808C978.251 534.488 978.683 534.04 979.003 533.464C979.323 532.872 979.483 532.168 979.483 531.352ZM985.284 531.304C985.284 529.96 985.548 528.768 986.076 527.728C986.62 526.688 987.348 525.888 988.26 525.328C989.188 524.768 990.22 524.488 991.356 524.488C992.348 524.488 993.212 524.688 993.948 525.088C994.7 525.488 995.3 525.992 995.748 526.6V524.704H999.132V538H995.748V536.056C995.316 536.68 994.716 537.2 993.948 537.616C993.196 538.016 992.324 538.216 991.332 538.216C990.212 538.216 989.188 537.928 988.26 537.352C987.348 536.776 986.62 535.968 986.076 534.928C985.548 533.872 985.284 532.664 985.284 531.304ZM995.748 531.352C995.748 530.536 995.588 529.84 995.268 529.264C994.948 528.672 994.516 528.224 993.972 527.92C993.428 527.6 992.844 527.44 992.22 527.44C991.596 527.44 991.02 527.592 990.492 527.896C989.964 528.2 989.532 528.648 989.196 529.24C988.876 529.816 988.716 530.504 988.716 531.304C988.716 532.104 988.876 532.808 989.196 533.416C989.532 534.008 989.964 534.464 990.492 534.784C991.036 535.104 991.612 535.264 992.22 535.264C992.844 535.264 993.428 535.112 993.972 534.808C994.516 534.488 994.948 534.04 995.268 533.464C995.588 532.872 995.748 532.168 995.748 531.352ZM1009.78 524.512C1011.37 524.512 1012.65 525.016 1013.62 526.024C1014.6 527.016 1015.09 528.408 1015.09 530.2V538H1011.73V530.656C1011.73 529.6 1011.46 528.792 1010.93 528.232C1010.41 527.656 1009.69 527.368 1008.77 527.368C1007.85 527.368 1007.11 527.656 1006.57 528.232C1006.04 528.792 1005.77 529.6 1005.77 530.656V538H1002.41V524.704H1005.77V526.36C1006.22 525.784 1006.79 525.336 1007.48 525.016C1008.18 524.68 1008.95 524.512 1009.78 524.512ZM1019.99 523.12C1019.39 523.12 1018.9 522.936 1018.5 522.568C1018.11 522.184 1017.92 521.712 1017.92 521.152C1017.92 520.592 1018.11 520.128 1018.5 519.76C1018.9 519.376 1019.39 519.184 1019.99 519.184C1020.58 519.184 1021.07 519.376 1021.45 519.76C1021.85 520.128 1022.05 520.592 1022.05 521.152C1022.05 521.712 1021.85 522.184 1021.45 522.568C1021.07 522.936 1020.58 523.12 1019.99 523.12ZM1021.64 524.704V538H1018.28V524.704H1021.64ZM1028.03 535.24H1033.96V538H1024.22V535.288L1030.02 527.464H1024.24V524.704H1033.89V527.416L1028.03 535.24ZM1035.7 531.304C1035.7 529.96 1035.96 528.768 1036.49 527.728C1037.03 526.688 1037.76 525.888 1038.67 525.328C1039.6 524.768 1040.63 524.488 1041.77 524.488C1042.76 524.488 1043.63 524.688 1044.36 525.088C1045.11 525.488 1045.71 525.992 1046.16 526.6V524.704H1049.55V538H1046.16V536.056C1045.73 536.68 1045.13 537.2 1044.36 537.616C1043.61 538.016 1042.74 538.216 1041.75 538.216C1040.63 538.216 1039.6 537.928 1038.67 537.352C1037.76 536.776 1037.03 535.968 1036.49 534.928C1035.96 533.872 1035.7 532.664 1035.7 531.304ZM1046.16 531.352C1046.16 530.536 1046 529.84 1045.68 529.264C1045.36 528.672 1044.93 528.224 1044.39 527.92C1043.84 527.6 1043.26 527.44 1042.63 527.44C1042.01 527.44 1041.43 527.592 1040.91 527.896C1040.38 528.2 1039.95 528.648 1039.61 529.24C1039.29 529.816 1039.13 530.504 1039.13 531.304C1039.13 532.104 1039.29 532.808 1039.61 533.416C1039.95 534.008 1040.38 534.464 1040.91 534.784C1041.45 535.104 1042.03 535.264 1042.63 535.264C1043.26 535.264 1043.84 535.112 1044.39 534.808C1044.93 534.488 1045.36 534.04 1045.68 533.464C1046 532.872 1046.16 532.168 1046.16 531.352ZM1056.74 527.464V533.896C1056.74 534.344 1056.84 534.672 1057.05 534.88C1057.28 535.072 1057.64 535.168 1058.16 535.168H1059.72V538H1057.6C1054.77 538 1053.36 536.624 1053.36 533.872V527.464H1051.77V524.704H1053.36V521.416H1056.74V524.704H1059.72V527.464H1056.74ZM1063.84 523.12C1063.24 523.12 1062.75 522.936 1062.35 522.568C1061.96 522.184 1061.77 521.712 1061.77 521.152C1061.77 520.592 1061.96 520.128 1062.35 519.76C1062.75 519.376 1063.24 519.184 1063.84 519.184C1064.43 519.184 1064.92 519.376 1065.3 519.76C1065.7 520.128 1065.9 520.592 1065.9 521.152C1065.9 521.712 1065.7 522.184 1065.3 522.568C1064.92 522.936 1064.43 523.12 1063.84 523.12ZM1065.49 524.704V538H1062.13V524.704H1065.49ZM1074.72 538.216C1073.44 538.216 1072.28 537.936 1071.26 537.376C1070.24 536.8 1069.43 535.992 1068.84 534.952C1068.26 533.912 1067.97 532.712 1067.97 531.352C1067.97 529.992 1068.27 528.792 1068.86 527.752C1069.47 526.712 1070.29 525.912 1071.33 525.352C1072.37 524.776 1073.53 524.488 1074.81 524.488C1076.09 524.488 1077.25 524.776 1078.29 525.352C1079.33 525.912 1080.15 526.712 1080.74 527.752C1081.35 528.792 1081.65 529.992 1081.65 531.352C1081.65 532.712 1081.34 533.912 1080.72 534.952C1080.11 535.992 1079.28 536.8 1078.22 537.376C1077.18 537.936 1076.01 538.216 1074.72 538.216ZM1074.72 535.288C1075.32 535.288 1075.89 535.144 1076.42 534.856C1076.96 534.552 1077.4 534.104 1077.72 533.512C1078.04 532.92 1078.2 532.2 1078.2 531.352C1078.2 530.088 1077.86 529.12 1077.19 528.448C1076.53 527.76 1075.72 527.416 1074.76 527.416C1073.8 527.416 1073 527.76 1072.34 528.448C1071.7 529.12 1071.38 530.088 1071.38 531.352C1071.38 532.616 1071.69 533.592 1072.32 534.28C1072.96 534.952 1073.76 535.288 1074.72 535.288ZM1091.48 524.512C1093.07 524.512 1094.35 525.016 1095.32 526.024C1096.3 527.016 1096.79 528.408 1096.79 530.2V538H1093.43V530.656C1093.43 529.6 1093.16 528.792 1092.64 528.232C1092.11 527.656 1091.39 527.368 1090.48 527.368C1089.55 527.368 1088.81 527.656 1088.27 528.232C1087.74 528.792 1087.48 529.6 1087.48 530.656V538H1084.12V524.704H1087.48V526.36C1087.92 525.784 1088.49 525.336 1089.18 525.016C1089.88 524.68 1090.65 524.512 1091.48 524.512ZM1110.21 528.016V530.848H1100.03V528.016H1110.21ZM962.668 563.6C962.668 561.952 963.036 560.48 963.772 559.184C964.524 557.872 965.54 556.856 966.82 556.136C968.116 555.4 969.564 555.032 971.164 555.032C973.036 555.032 974.676 555.512 976.084 556.472C977.492 557.432 978.476 558.76 979.036 560.456H975.172C974.788 559.656 974.244 559.056 973.54 558.656C972.852 558.256 972.052 558.056 971.14 558.056C970.164 558.056 969.292 558.288 968.524 558.752C967.772 559.2 967.18 559.84 966.748 560.672C966.332 561.504 966.124 562.48 966.124 563.6C966.124 564.704 966.332 565.68 966.748 566.528C967.18 567.36 967.772 568.008 968.524 568.472C969.292 568.92 970.164 569.144 971.14 569.144C972.052 569.144 972.852 568.944 973.54 568.544C974.244 568.128 974.788 567.52 975.172 566.72H979.036C978.476 568.432 977.492 569.768 976.084 570.728C974.692 571.672 973.052 572.144 971.164 572.144C969.564 572.144 968.116 571.784 966.82 571.064C965.54 570.328 964.524 569.312 963.772 568.016C963.036 566.72 962.668 565.248 962.668 563.6ZM987.81 572.216C986.53 572.216 985.378 571.936 984.354 571.376C983.33 570.8 982.522 569.992 981.93 568.952C981.354 567.912 981.066 566.712 981.066 565.352C981.066 563.992 981.362 562.792 981.954 561.752C982.562 560.712 983.386 559.912 984.426 559.352C985.466 558.776 986.626 558.488 987.906 558.488C989.186 558.488 990.346 558.776 991.386 559.352C992.426 559.912 993.242 560.712 993.834 561.752C994.442 562.792 994.746 563.992 994.746 565.352C994.746 566.712 994.434 567.912 993.81 568.952C993.202 569.992 992.37 570.8 991.314 571.376C990.274 571.936 989.106 572.216 987.81 572.216ZM987.81 569.288C988.418 569.288 988.986 569.144 989.514 568.856C990.058 568.552 990.49 568.104 990.81 567.512C991.13 566.92 991.29 566.2 991.29 565.352C991.29 564.088 990.954 563.12 990.282 562.448C989.626 561.76 988.818 561.416 987.858 561.416C986.898 561.416 986.09 561.76 985.434 562.448C984.794 563.12 984.474 564.088 984.474 565.352C984.474 566.616 984.786 567.592 985.41 568.28C986.05 568.952 986.85 569.288 987.81 569.288ZM1004.58 558.512C1006.16 558.512 1007.44 559.016 1008.42 560.024C1009.39 561.016 1009.88 562.408 1009.88 564.2V572H1006.52V564.656C1006.52 563.6 1006.26 562.792 1005.73 562.232C1005.2 561.656 1004.48 561.368 1003.57 561.368C1002.64 561.368 1001.91 561.656 1001.36 562.232C1000.83 562.792 1000.57 563.6 1000.57 564.656V572H997.211V558.704H1000.57V560.36C1001.02 559.784 1001.59 559.336 1002.27 559.016C1002.98 558.68 1003.75 558.512 1004.58 558.512ZM1016.99 561.464V567.896C1016.99 568.344 1017.09 568.672 1017.3 568.88C1017.53 569.072 1017.89 569.168 1018.41 569.168H1019.97V572H1017.85C1015.02 572 1013.61 570.624 1013.61 567.872V561.464H1012.02V558.704H1013.61V555.416H1016.99V558.704H1019.97V561.464H1016.99ZM1025.74 560.768C1026.17 560.064 1026.73 559.512 1027.42 559.112C1028.13 558.712 1028.93 558.512 1029.82 558.512V562.04H1028.93C1027.88 562.04 1027.08 562.288 1026.53 562.784C1026.01 563.28 1025.74 564.144 1025.74 565.376V572H1022.38V558.704H1025.74V560.768ZM1037.99 572.216C1036.71 572.216 1035.56 571.936 1034.53 571.376C1033.51 570.8 1032.7 569.992 1032.11 568.952C1031.53 567.912 1031.25 566.712 1031.25 565.352C1031.25 563.992 1031.54 562.792 1032.13 561.752C1032.74 560.712 1033.57 559.912 1034.61 559.352C1035.65 558.776 1036.81 558.488 1038.09 558.488C1039.37 558.488 1040.53 558.776 1041.57 559.352C1042.61 559.912 1043.42 560.712 1044.01 561.752C1044.62 562.792 1044.93 563.992 1044.93 565.352C1044.93 566.712 1044.61 567.912 1043.99 568.952C1043.38 569.992 1042.55 570.8 1041.49 571.376C1040.45 571.936 1039.29 572.216 1037.99 572.216ZM1037.99 569.288C1038.6 569.288 1039.17 569.144 1039.69 568.856C1040.24 568.552 1040.67 568.104 1040.99 567.512C1041.31 566.92 1041.47 566.2 1041.47 565.352C1041.47 564.088 1041.13 563.12 1040.46 562.448C1039.81 561.76 1039 561.416 1038.04 561.416C1037.08 561.416 1036.27 561.76 1035.61 562.448C1034.97 563.12 1034.65 564.088 1034.65 565.352C1034.65 566.616 1034.97 567.592 1035.59 568.28C1036.23 568.952 1037.03 569.288 1037.99 569.288ZM1050.75 554.24V572H1047.39V554.24H1050.75ZM1057.43 554.24V572H1054.07V554.24H1057.43ZM1073.11 565.064C1073.11 565.544 1073.08 565.976 1073.01 566.36H1063.29C1063.37 567.32 1063.71 568.072 1064.3 568.616C1064.89 569.16 1065.62 569.432 1066.49 569.432C1067.73 569.432 1068.62 568.896 1069.15 567.824H1072.77C1072.39 569.104 1071.65 570.16 1070.57 570.992C1069.48 571.808 1068.14 572.216 1066.56 572.216C1065.28 572.216 1064.13 571.936 1063.1 571.376C1062.09 570.8 1061.3 569.992 1060.73 568.952C1060.17 567.912 1059.89 566.712 1059.89 565.352C1059.89 563.976 1060.17 562.768 1060.73 561.728C1061.29 560.688 1062.07 559.888 1063.08 559.328C1064.09 558.768 1065.25 558.488 1066.56 558.488C1067.82 558.488 1068.95 558.76 1069.94 559.304C1070.95 559.848 1071.73 560.624 1072.27 561.632C1072.83 562.624 1073.11 563.768 1073.11 565.064ZM1069.63 564.104C1069.61 563.24 1069.3 562.552 1068.69 562.04C1068.09 561.512 1067.34 561.248 1066.46 561.248C1065.63 561.248 1064.93 561.504 1064.35 562.016C1063.79 562.512 1063.45 563.208 1063.32 564.104H1069.63ZM1074.7 565.304C1074.7 563.96 1074.96 562.768 1075.49 561.728C1076.03 560.688 1076.77 559.888 1077.7 559.328C1078.63 558.768 1079.66 558.488 1080.79 558.488C1081.66 558.488 1082.48 558.68 1083.27 559.064C1084.05 559.432 1084.67 559.928 1085.14 560.552V554.24H1088.55V572H1085.14V570.032C1084.72 570.688 1084.14 571.216 1083.39 571.616C1082.63 572.016 1081.76 572.216 1080.77 572.216C1079.65 572.216 1078.63 571.928 1077.7 571.352C1076.77 570.776 1076.03 569.968 1075.49 568.928C1074.96 567.872 1074.7 566.664 1074.7 565.304ZM1085.16 565.352C1085.16 564.536 1085 563.84 1084.68 563.264C1084.36 562.672 1083.93 562.224 1083.39 561.92C1082.84 561.6 1082.26 561.44 1081.63 561.44C1081.01 561.44 1080.43 561.592 1079.91 561.896C1079.38 562.2 1078.95 562.648 1078.61 563.24C1078.29 563.816 1078.13 564.504 1078.13 565.304C1078.13 566.104 1078.29 566.808 1078.61 567.416C1078.95 568.008 1079.38 568.464 1079.91 568.784C1080.45 569.104 1081.03 569.264 1081.63 569.264C1082.26 569.264 1082.84 569.112 1083.39 568.808C1083.93 568.488 1084.36 568.04 1084.68 567.464C1085 566.872 1085.16 566.168 1085.16 565.352ZM1003.68 589.248L998.997 606H995.037L991.893 594.072L988.605 606L984.669 606.024L980.157 589.248H983.757L986.709 602.256L990.117 589.248H993.861L997.077 602.184L1000.05 589.248H1003.68ZM1005.01 599.304C1005.01 597.96 1005.27 596.768 1005.8 595.728C1006.34 594.688 1007.07 593.888 1007.98 593.328C1008.91 592.768 1009.94 592.488 1011.08 592.488C1012.07 592.488 1012.93 592.688 1013.67 593.088C1014.42 593.488 1015.02 593.992 1015.47 594.6V592.704H1018.85V606H1015.47V604.056C1015.04 604.68 1014.44 605.2 1013.67 605.616C1012.92 606.016 1012.05 606.216 1011.05 606.216C1009.93 606.216 1008.91 605.928 1007.98 605.352C1007.07 604.776 1006.34 603.968 1005.8 602.928C1005.27 601.872 1005.01 600.664 1005.01 599.304ZM1015.47 599.352C1015.47 598.536 1015.31 597.84 1014.99 597.264C1014.67 596.672 1014.24 596.224 1013.69 595.92C1013.15 595.6 1012.57 595.44 1011.94 595.44C1011.32 595.44 1010.74 595.592 1010.21 595.896C1009.69 596.2 1009.25 596.648 1008.92 597.24C1008.6 597.816 1008.44 598.504 1008.44 599.304C1008.44 600.104 1008.6 600.808 1008.92 601.416C1009.25 602.008 1009.69 602.464 1010.21 602.784C1010.76 603.104 1011.33 603.264 1011.94 603.264C1012.57 603.264 1013.15 603.112 1013.69 602.808C1014.24 602.488 1014.67 602.04 1014.99 601.464C1015.31 600.872 1015.47 600.168 1015.47 599.352ZM1025.5 588.24V606H1022.14V588.24H1025.5ZM1032.18 588.24V606H1028.82V588.24H1032.18ZM1047.86 599.064C1047.86 599.544 1047.82 599.976 1047.76 600.36H1038.04C1038.12 601.32 1038.46 602.072 1039.05 602.616C1039.64 603.16 1040.37 603.432 1041.23 603.432C1042.48 603.432 1043.37 602.896 1043.9 601.824H1047.52C1047.14 603.104 1046.4 604.16 1045.31 604.992C1044.22 605.808 1042.89 606.216 1041.3 606.216C1040.02 606.216 1038.87 605.936 1037.85 605.376C1036.84 604.8 1036.05 603.992 1035.47 602.952C1034.91 601.912 1034.63 600.712 1034.63 599.352C1034.63 597.976 1034.91 596.768 1035.47 595.728C1036.03 594.688 1036.82 593.888 1037.82 593.328C1038.83 592.768 1039.99 592.488 1041.3 592.488C1042.57 592.488 1043.7 592.76 1044.69 593.304C1045.7 593.848 1046.47 594.624 1047.02 595.632C1047.58 596.624 1047.86 597.768 1047.86 599.064ZM1044.38 598.104C1044.36 597.24 1044.05 596.552 1043.44 596.04C1042.83 595.512 1042.09 595.248 1041.21 595.248C1040.38 595.248 1039.67 595.504 1039.1 596.016C1038.54 596.512 1038.19 597.208 1038.06 598.104H1044.38ZM1054.22 595.464V601.896C1054.22 602.344 1054.32 602.672 1054.53 602.88C1054.76 603.072 1055.12 603.168 1055.64 603.168H1057.2V606H1055.08C1052.25 606 1050.84 604.624 1050.84 601.872V595.464H1049.25V592.704H1050.84V589.416H1054.22V592.704H1057.2V595.464H1054.22ZM1064.54 591.6V588.504H1070.32V606H1066.87V591.6H1064.54Z" fill="#1F32D6"/>
<rect x="1253" y="482" width="278" height="164" rx="7" fill="white"/>
<rect x="1253" y="482" width="278" height="164" rx="7" stroke="#1F32D6" stroke-width="2" stroke-dasharray="8 8"/>
<path d="M1315.11 538.168C1313.54 538.168 1312.1 537.8 1310.79 537.064C1309.48 536.328 1308.44 535.312 1307.67 534.016C1306.9 532.704 1306.52 531.224 1306.52 529.576C1306.52 527.944 1306.9 526.48 1307.67 525.184C1308.44 523.872 1309.48 522.848 1310.79 522.112C1312.1 521.376 1313.54 521.008 1315.11 521.008C1316.7 521.008 1318.14 521.376 1319.43 522.112C1320.74 522.848 1321.78 523.872 1322.53 525.184C1323.3 526.48 1323.68 527.944 1323.68 529.576C1323.68 531.224 1323.3 532.704 1322.53 534.016C1321.78 535.312 1320.74 536.328 1319.43 537.064C1318.12 537.8 1316.68 538.168 1315.11 538.168ZM1315.11 535.168C1316.12 535.168 1317.01 534.944 1317.78 534.496C1318.54 534.032 1319.14 533.376 1319.58 532.528C1320.01 531.68 1320.22 530.696 1320.22 529.576C1320.22 528.456 1320.01 527.48 1319.58 526.648C1319.14 525.8 1318.54 525.152 1317.78 524.704C1317.01 524.256 1316.12 524.032 1315.11 524.032C1314.1 524.032 1313.21 524.256 1312.42 524.704C1311.66 525.152 1311.06 525.8 1310.62 526.648C1310.19 527.48 1309.98 528.456 1309.98 529.576C1309.98 530.696 1310.19 531.68 1310.62 532.528C1311.06 533.376 1311.66 534.032 1312.42 534.496C1313.21 534.944 1314.1 535.168 1315.11 535.168ZM1329.54 526.768C1329.97 526.064 1330.53 525.512 1331.22 525.112C1331.92 524.712 1332.72 524.512 1333.62 524.512V528.04H1332.73C1331.68 528.04 1330.88 528.288 1330.33 528.784C1329.8 529.28 1329.54 530.144 1329.54 531.376V538H1326.18V524.704H1329.54V526.768ZM1341.09 524.488C1342.08 524.488 1342.95 524.688 1343.71 525.088C1344.46 525.472 1345.05 525.976 1345.48 526.6V524.704H1348.87V538.096C1348.87 539.328 1348.62 540.424 1348.12 541.384C1347.63 542.36 1346.88 543.128 1345.89 543.688C1344.9 544.264 1343.7 544.552 1342.29 544.552C1340.4 544.552 1338.85 544.112 1337.63 543.232C1336.43 542.352 1335.75 541.152 1335.59 539.632H1338.93C1339.11 540.24 1339.48 540.72 1340.06 541.072C1340.65 541.44 1341.36 541.624 1342.19 541.624C1343.17 541.624 1343.96 541.328 1344.57 540.736C1345.18 540.16 1345.48 539.28 1345.48 538.096V536.032C1345.05 536.656 1344.45 537.176 1343.68 537.592C1342.93 538.008 1342.07 538.216 1341.09 538.216C1339.97 538.216 1338.95 537.928 1338.02 537.352C1337.09 536.776 1336.35 535.968 1335.81 534.928C1335.28 533.872 1335.02 532.664 1335.02 531.304C1335.02 529.96 1335.28 528.768 1335.81 527.728C1336.35 526.688 1337.08 525.888 1337.99 525.328C1338.92 524.768 1339.95 524.488 1341.09 524.488ZM1345.48 531.352C1345.48 530.536 1345.32 529.84 1345 529.264C1344.68 528.672 1344.25 528.224 1343.71 527.92C1343.16 527.6 1342.58 527.44 1341.95 527.44C1341.33 527.44 1340.75 527.592 1340.23 527.896C1339.7 528.2 1339.27 528.648 1338.93 529.24C1338.61 529.816 1338.45 530.504 1338.45 531.304C1338.45 532.104 1338.61 532.808 1338.93 533.416C1339.27 534.008 1339.7 534.464 1340.23 534.784C1340.77 535.104 1341.35 535.264 1341.95 535.264C1342.58 535.264 1343.16 535.112 1343.71 534.808C1344.25 534.488 1344.68 534.04 1345 533.464C1345.32 532.872 1345.48 532.168 1345.48 531.352ZM1351.28 531.304C1351.28 529.96 1351.55 528.768 1352.08 527.728C1352.62 526.688 1353.35 525.888 1354.26 525.328C1355.19 524.768 1356.22 524.488 1357.36 524.488C1358.35 524.488 1359.21 524.688 1359.95 525.088C1360.7 525.488 1361.3 525.992 1361.75 526.6V524.704H1365.13V538H1361.75V536.056C1361.32 536.68 1360.72 537.2 1359.95 537.616C1359.2 538.016 1358.32 538.216 1357.33 538.216C1356.21 538.216 1355.19 537.928 1354.26 537.352C1353.35 536.776 1352.62 535.968 1352.08 534.928C1351.55 533.872 1351.28 532.664 1351.28 531.304ZM1361.75 531.352C1361.75 530.536 1361.59 529.84 1361.27 529.264C1360.95 528.672 1360.52 528.224 1359.97 527.92C1359.43 527.6 1358.84 527.44 1358.22 527.44C1357.6 527.44 1357.02 527.592 1356.49 527.896C1355.96 528.2 1355.53 528.648 1355.2 529.24C1354.88 529.816 1354.72 530.504 1354.72 531.304C1354.72 532.104 1354.88 532.808 1355.2 533.416C1355.53 534.008 1355.96 534.464 1356.49 534.784C1357.04 535.104 1357.61 535.264 1358.22 535.264C1358.84 535.264 1359.43 535.112 1359.97 534.808C1360.52 534.488 1360.95 534.04 1361.27 533.464C1361.59 532.872 1361.75 532.168 1361.75 531.352ZM1375.78 524.512C1377.37 524.512 1378.65 525.016 1379.62 526.024C1380.6 527.016 1381.09 528.408 1381.09 530.2V538H1377.73V530.656C1377.73 529.6 1377.46 528.792 1376.93 528.232C1376.41 527.656 1375.69 527.368 1374.77 527.368C1373.85 527.368 1373.11 527.656 1372.57 528.232C1372.04 528.792 1371.77 529.6 1371.77 530.656V538H1368.41V524.704H1371.77V526.36C1372.22 525.784 1372.79 525.336 1373.48 525.016C1374.18 524.68 1374.95 524.512 1375.78 524.512ZM1385.99 523.12C1385.39 523.12 1384.9 522.936 1384.5 522.568C1384.11 522.184 1383.92 521.712 1383.92 521.152C1383.92 520.592 1384.11 520.128 1384.5 519.76C1384.9 519.376 1385.39 519.184 1385.99 519.184C1386.58 519.184 1387.07 519.376 1387.45 519.76C1387.85 520.128 1388.05 520.592 1388.05 521.152C1388.05 521.712 1387.85 522.184 1387.45 522.568C1387.07 522.936 1386.58 523.12 1385.99 523.12ZM1387.64 524.704V538H1384.28V524.704H1387.64ZM1394.03 535.24H1399.96V538H1390.22V535.288L1396.02 527.464H1390.24V524.704H1399.89V527.416L1394.03 535.24ZM1401.7 531.304C1401.7 529.96 1401.96 528.768 1402.49 527.728C1403.03 526.688 1403.76 525.888 1404.67 525.328C1405.6 524.768 1406.63 524.488 1407.77 524.488C1408.76 524.488 1409.63 524.688 1410.36 525.088C1411.11 525.488 1411.71 525.992 1412.16 526.6V524.704H1415.55V538H1412.16V536.056C1411.73 536.68 1411.13 537.2 1410.36 537.616C1409.61 538.016 1408.74 538.216 1407.75 538.216C1406.63 538.216 1405.6 537.928 1404.67 537.352C1403.76 536.776 1403.03 535.968 1402.49 534.928C1401.96 533.872 1401.7 532.664 1401.7 531.304ZM1412.16 531.352C1412.16 530.536 1412 529.84 1411.68 529.264C1411.36 528.672 1410.93 528.224 1410.39 527.92C1409.84 527.6 1409.26 527.44 1408.63 527.44C1408.01 527.44 1407.43 527.592 1406.91 527.896C1406.38 528.2 1405.95 528.648 1405.61 529.24C1405.29 529.816 1405.13 530.504 1405.13 531.304C1405.13 532.104 1405.29 532.808 1405.61 533.416C1405.95 534.008 1406.38 534.464 1406.91 534.784C1407.45 535.104 1408.03 535.264 1408.63 535.264C1409.26 535.264 1409.84 535.112 1410.39 534.808C1410.93 534.488 1411.36 534.04 1411.68 533.464C1412 532.872 1412.16 532.168 1412.16 531.352ZM1422.74 527.464V533.896C1422.74 534.344 1422.84 534.672 1423.05 534.88C1423.28 535.072 1423.64 535.168 1424.16 535.168H1425.72V538H1423.6C1420.77 538 1419.36 536.624 1419.36 533.872V527.464H1417.77V524.704H1419.36V521.416H1422.74V524.704H1425.72V527.464H1422.74ZM1429.84 523.12C1429.24 523.12 1428.75 522.936 1428.35 522.568C1427.96 522.184 1427.77 521.712 1427.77 521.152C1427.77 520.592 1427.96 520.128 1428.35 519.76C1428.75 519.376 1429.24 519.184 1429.84 519.184C1430.43 519.184 1430.92 519.376 1431.3 519.76C1431.7 520.128 1431.9 520.592 1431.9 521.152C1431.9 521.712 1431.7 522.184 1431.3 522.568C1430.92 522.936 1430.43 523.12 1429.84 523.12ZM1431.49 524.704V538H1428.13V524.704H1431.49ZM1440.72 538.216C1439.44 538.216 1438.28 537.936 1437.26 537.376C1436.24 536.8 1435.43 535.992 1434.84 534.952C1434.26 533.912 1433.97 532.712 1433.97 531.352C1433.97 529.992 1434.27 528.792 1434.86 527.752C1435.47 526.712 1436.29 525.912 1437.33 525.352C1438.37 524.776 1439.53 524.488 1440.81 524.488C1442.09 524.488 1443.25 524.776 1444.29 525.352C1445.33 525.912 1446.15 526.712 1446.74 527.752C1447.35 528.792 1447.65 529.992 1447.65 531.352C1447.65 532.712 1447.34 533.912 1446.72 534.952C1446.11 535.992 1445.28 536.8 1444.22 537.376C1443.18 537.936 1442.01 538.216 1440.72 538.216ZM1440.72 535.288C1441.32 535.288 1441.89 535.144 1442.42 534.856C1442.96 534.552 1443.4 534.104 1443.72 533.512C1444.04 532.92 1444.2 532.2 1444.2 531.352C1444.2 530.088 1443.86 529.12 1443.19 528.448C1442.53 527.76 1441.72 527.416 1440.76 527.416C1439.8 527.416 1439 527.76 1438.34 528.448C1437.7 529.12 1437.38 530.088 1437.38 531.352C1437.38 532.616 1437.69 533.592 1438.32 534.28C1438.96 534.952 1439.76 535.288 1440.72 535.288ZM1457.48 524.512C1459.07 524.512 1460.35 525.016 1461.32 526.024C1462.3 527.016 1462.79 528.408 1462.79 530.2V538H1459.43V530.656C1459.43 529.6 1459.16 528.792 1458.64 528.232C1458.11 527.656 1457.39 527.368 1456.48 527.368C1455.55 527.368 1454.81 527.656 1454.27 528.232C1453.74 528.792 1453.48 529.6 1453.48 530.656V538H1450.12V524.704H1453.48V526.36C1453.92 525.784 1454.49 525.336 1455.18 525.016C1455.88 524.68 1456.65 524.512 1457.48 524.512ZM1476.21 528.016V530.848H1466.03V528.016H1476.21ZM1328.67 563.6C1328.67 561.952 1329.04 560.48 1329.77 559.184C1330.52 557.872 1331.54 556.856 1332.82 556.136C1334.12 555.4 1335.56 555.032 1337.16 555.032C1339.04 555.032 1340.68 555.512 1342.08 556.472C1343.49 557.432 1344.48 558.76 1345.04 560.456H1341.17C1340.79 559.656 1340.24 559.056 1339.54 558.656C1338.85 558.256 1338.05 558.056 1337.14 558.056C1336.16 558.056 1335.29 558.288 1334.52 558.752C1333.77 559.2 1333.18 559.84 1332.75 560.672C1332.33 561.504 1332.12 562.48 1332.12 563.6C1332.12 564.704 1332.33 565.68 1332.75 566.528C1333.18 567.36 1333.77 568.008 1334.52 568.472C1335.29 568.92 1336.16 569.144 1337.14 569.144C1338.05 569.144 1338.85 568.944 1339.54 568.544C1340.24 568.128 1340.79 567.52 1341.17 566.72H1345.04C1344.48 568.432 1343.49 569.768 1342.08 570.728C1340.69 571.672 1339.05 572.144 1337.16 572.144C1335.56 572.144 1334.12 571.784 1332.82 571.064C1331.54 570.328 1330.52 569.312 1329.77 568.016C1329.04 566.72 1328.67 565.248 1328.67 563.6ZM1353.81 572.216C1352.53 572.216 1351.38 571.936 1350.35 571.376C1349.33 570.8 1348.52 569.992 1347.93 568.952C1347.35 567.912 1347.07 566.712 1347.07 565.352C1347.07 563.992 1347.36 562.792 1347.95 561.752C1348.56 560.712 1349.39 559.912 1350.43 559.352C1351.47 558.776 1352.63 558.488 1353.91 558.488C1355.19 558.488 1356.35 558.776 1357.39 559.352C1358.43 559.912 1359.24 560.712 1359.83 561.752C1360.44 562.792 1360.75 563.992 1360.75 565.352C1360.75 566.712 1360.43 567.912 1359.81 568.952C1359.2 569.992 1358.37 570.8 1357.31 571.376C1356.27 571.936 1355.11 572.216 1353.81 572.216ZM1353.81 569.288C1354.42 569.288 1354.99 569.144 1355.51 568.856C1356.06 568.552 1356.49 568.104 1356.81 567.512C1357.13 566.92 1357.29 566.2 1357.29 565.352C1357.29 564.088 1356.95 563.12 1356.28 562.448C1355.63 561.76 1354.82 561.416 1353.86 561.416C1352.9 561.416 1352.09 561.76 1351.43 562.448C1350.79 563.12 1350.47 564.088 1350.47 565.352C1350.47 566.616 1350.79 567.592 1351.41 568.28C1352.05 568.952 1352.85 569.288 1353.81 569.288ZM1370.58 558.512C1372.16 558.512 1373.44 559.016 1374.42 560.024C1375.39 561.016 1375.88 562.408 1375.88 564.2V572H1372.52V564.656C1372.52 563.6 1372.26 562.792 1371.73 562.232C1371.2 561.656 1370.48 561.368 1369.57 561.368C1368.64 561.368 1367.91 561.656 1367.36 562.232C1366.83 562.792 1366.57 563.6 1366.57 564.656V572H1363.21V558.704H1366.57V560.36C1367.02 559.784 1367.59 559.336 1368.27 559.016C1368.98 558.68 1369.75 558.512 1370.58 558.512ZM1382.99 561.464V567.896C1382.99 568.344 1383.09 568.672 1383.3 568.88C1383.53 569.072 1383.89 569.168 1384.41 569.168H1385.97V572H1383.85C1381.02 572 1379.61 570.624 1379.61 567.872V561.464H1378.02V558.704H1379.61V555.416H1382.99V558.704H1385.97V561.464H1382.99ZM1391.74 560.768C1392.17 560.064 1392.73 559.512 1393.42 559.112C1394.13 558.712 1394.93 558.512 1395.82 558.512V562.04H1394.93C1393.88 562.04 1393.08 562.288 1392.53 562.784C1392.01 563.28 1391.74 564.144 1391.74 565.376V572H1388.38V558.704H1391.74V560.768ZM1403.99 572.216C1402.71 572.216 1401.56 571.936 1400.53 571.376C1399.51 570.8 1398.7 569.992 1398.11 568.952C1397.53 567.912 1397.25 566.712 1397.25 565.352C1397.25 563.992 1397.54 562.792 1398.13 561.752C1398.74 560.712 1399.57 559.912 1400.61 559.352C1401.65 558.776 1402.81 558.488 1404.09 558.488C1405.37 558.488 1406.53 558.776 1407.57 559.352C1408.61 559.912 1409.42 560.712 1410.01 561.752C1410.62 562.792 1410.93 563.992 1410.93 565.352C1410.93 566.712 1410.61 567.912 1409.99 568.952C1409.38 569.992 1408.55 570.8 1407.49 571.376C1406.45 571.936 1405.29 572.216 1403.99 572.216ZM1403.99 569.288C1404.6 569.288 1405.17 569.144 1405.69 568.856C1406.24 568.552 1406.67 568.104 1406.99 567.512C1407.31 566.92 1407.47 566.2 1407.47 565.352C1407.47 564.088 1407.13 563.12 1406.46 562.448C1405.81 561.76 1405 561.416 1404.04 561.416C1403.08 561.416 1402.27 561.76 1401.61 562.448C1400.97 563.12 1400.65 564.088 1400.65 565.352C1400.65 566.616 1400.97 567.592 1401.59 568.28C1402.23 568.952 1403.03 569.288 1403.99 569.288ZM1416.75 554.24V572H1413.39V554.24H1416.75ZM1423.43 554.24V572H1420.07V554.24H1423.43ZM1439.11 565.064C1439.11 565.544 1439.08 565.976 1439.01 566.36H1429.29C1429.37 567.32 1429.71 568.072 1430.3 568.616C1430.89 569.16 1431.62 569.432 1432.49 569.432C1433.73 569.432 1434.62 568.896 1435.15 567.824H1438.77C1438.39 569.104 1437.65 570.16 1436.57 570.992C1435.48 571.808 1434.14 572.216 1432.56 572.216C1431.28 572.216 1430.13 571.936 1429.1 571.376C1428.09 570.8 1427.3 569.992 1426.73 568.952C1426.17 567.912 1425.89 566.712 1425.89 565.352C1425.89 563.976 1426.17 562.768 1426.73 561.728C1427.29 560.688 1428.07 559.888 1429.08 559.328C1430.09 558.768 1431.25 558.488 1432.56 558.488C1433.82 558.488 1434.95 558.76 1435.94 559.304C1436.95 559.848 1437.73 560.624 1438.27 561.632C1438.83 562.624 1439.11 563.768 1439.11 565.064ZM1435.63 564.104C1435.61 563.24 1435.3 562.552 1434.69 562.04C1434.09 561.512 1433.34 561.248 1432.46 561.248C1431.63 561.248 1430.93 561.504 1430.35 562.016C1429.79 562.512 1429.45 563.208 1429.32 564.104H1435.63ZM1440.7 565.304C1440.7 563.96 1440.96 562.768 1441.49 561.728C1442.03 560.688 1442.77 559.888 1443.7 559.328C1444.63 558.768 1445.66 558.488 1446.79 558.488C1447.66 558.488 1448.48 558.68 1449.27 559.064C1450.05 559.432 1450.67 559.928 1451.14 560.552V554.24H1454.55V572H1451.14V570.032C1450.72 570.688 1450.14 571.216 1449.39 571.616C1448.63 572.016 1447.76 572.216 1446.77 572.216C1445.65 572.216 1444.63 571.928 1443.7 571.352C1442.77 570.776 1442.03 569.968 1441.49 568.928C1440.96 567.872 1440.7 566.664 1440.7 565.304ZM1451.16 565.352C1451.16 564.536 1451 563.84 1450.68 563.264C1450.36 562.672 1449.93 562.224 1449.39 561.92C1448.84 561.6 1448.26 561.44 1447.63 561.44C1447.01 561.44 1446.43 561.592 1445.91 561.896C1445.38 562.2 1444.95 562.648 1444.61 563.24C1444.29 563.816 1444.13 564.504 1444.13 565.304C1444.13 566.104 1444.29 566.808 1444.61 567.416C1444.95 568.008 1445.38 568.464 1445.91 568.784C1446.45 569.104 1447.03 569.264 1447.63 569.264C1448.26 569.264 1448.84 569.112 1449.39 568.808C1449.93 568.488 1450.36 568.04 1450.68 567.464C1451 566.872 1451.16 566.168 1451.16 565.352ZM1367.13 589.248L1362.45 606H1358.49L1355.35 594.072L1352.06 606L1348.13 606.024L1343.61 589.248H1347.21L1350.17 602.256L1353.57 589.248H1357.32L1360.53 602.184L1363.51 589.248H1367.13ZM1368.46 599.304C1368.46 597.96 1368.73 596.768 1369.26 595.728C1369.8 594.688 1370.53 593.888 1371.44 593.328C1372.37 592.768 1373.4 592.488 1374.54 592.488C1375.53 592.488 1376.39 592.688 1377.13 593.088C1377.88 593.488 1378.48 593.992 1378.93 594.6V592.704H1382.31V606H1378.93V604.056C1378.5 604.68 1377.9 605.2 1377.13 605.616C1376.38 606.016 1375.5 606.216 1374.51 606.216C1373.39 606.216 1372.37 605.928 1371.44 605.352C1370.53 604.776 1369.8 603.968 1369.26 602.928C1368.73 601.872 1368.46 600.664 1368.46 599.304ZM1378.93 599.352C1378.93 598.536 1378.77 597.84 1378.45 597.264C1378.13 596.672 1377.7 596.224 1377.15 595.92C1376.61 595.6 1376.02 595.44 1375.4 595.44C1374.78 595.44 1374.2 595.592 1373.67 595.896C1373.14 596.2 1372.71 596.648 1372.38 597.24C1372.06 597.816 1371.9 598.504 1371.9 599.304C1371.9 600.104 1372.06 600.808 1372.38 601.416C1372.71 602.008 1373.14 602.464 1373.67 602.784C1374.22 603.104 1374.79 603.264 1375.4 603.264C1376.02 603.264 1376.61 603.112 1377.15 602.808C1377.7 602.488 1378.13 602.04 1378.45 601.464C1378.77 600.872 1378.93 600.168 1378.93 599.352ZM1388.95 588.24V606H1385.59V588.24H1388.95ZM1395.63 588.24V606H1392.27V588.24H1395.63ZM1411.31 599.064C1411.31 599.544 1411.28 599.976 1411.22 600.36H1401.5C1401.58 601.32 1401.91 602.072 1402.5 602.616C1403.1 603.16 1403.82 603.432 1404.69 603.432C1405.94 603.432 1406.82 602.896 1407.35 601.824H1410.98C1410.59 603.104 1409.86 604.16 1408.77 604.992C1407.68 605.808 1406.34 606.216 1404.76 606.216C1403.48 606.216 1402.33 605.936 1401.3 605.376C1400.3 604.8 1399.5 603.992 1398.93 602.952C1398.37 601.912 1398.09 600.712 1398.09 599.352C1398.09 597.976 1398.37 596.768 1398.93 595.728C1399.49 594.688 1400.27 593.888 1401.28 593.328C1402.29 592.768 1403.45 592.488 1404.76 592.488C1406.02 592.488 1407.15 592.76 1408.14 593.304C1409.15 593.848 1409.93 594.624 1410.47 595.632C1411.03 596.624 1411.31 597.768 1411.31 599.064ZM1407.83 598.104C1407.82 597.24 1407.5 596.552 1406.9 596.04C1406.29 595.512 1405.54 595.248 1404.66 595.248C1403.83 595.248 1403.13 595.504 1402.55 596.016C1401.99 596.512 1401.65 597.208 1401.52 598.104H1407.83ZM1417.68 595.464V601.896C1417.68 602.344 1417.78 602.672 1417.99 602.88C1418.21 603.072 1418.58 603.168 1419.09 603.168H1420.65V606H1418.54C1415.71 606 1414.29 604.624 1414.29 601.872V595.464H1412.71V592.704H1414.29V589.416H1417.68V592.704H1420.65V595.464H1417.68ZM1429.46 602.208C1431 600.928 1432.22 599.864 1433.13 599.016C1434.04 598.152 1434.8 597.256 1435.41 596.328C1436.02 595.4 1436.32 594.488 1436.32 593.592C1436.32 592.776 1436.13 592.136 1435.75 591.672C1435.36 591.208 1434.77 590.976 1433.97 590.976C1433.17 590.976 1432.56 591.248 1432.12 591.792C1431.69 592.32 1431.47 593.048 1431.45 593.976H1428.19C1428.25 592.056 1428.82 590.6 1429.89 589.608C1430.98 588.616 1432.36 588.12 1434.02 588.12C1435.84 588.12 1437.24 588.608 1438.22 589.584C1439.2 590.544 1439.68 591.816 1439.68 593.4C1439.68 594.648 1439.35 595.84 1438.68 596.976C1438 598.112 1437.24 599.104 1436.37 599.952C1435.51 600.784 1434.38 601.792 1432.99 602.976H1440.07V605.76H1428.21V603.264L1429.46 602.208Z" fill="#1F32D6"/>
<path d="M1026 481L1031.77 471H1020.23L1026 481ZM1026 398.333V397.333H1025V398.333H1026ZM1397 398.333H1398V397.333H1397V398.333ZM1397 481L1402.77 471H1391.23L1397 481ZM1027 472V398.333H1025V472H1027ZM1026 399.333H1397V397.333H1026V399.333ZM1396 398.333V472H1398V398.333H1396Z" fill="#4C5BDE"/>
<path d="M1211 321L1211 399.73" stroke="#4C5BDE" stroke-width="2"/>
<path d="M547.67 38.224C545.579 38.224 543.659 37.7333 541.91 36.752C540.16 35.7707 538.774 34.416 537.75 32.688C536.726 30.9387 536.214 28.9653 536.214 26.768C536.214 24.592 536.726 22.64 537.75 20.912C538.774 19.1627 540.16 17.7973 541.91 16.816C543.659 15.8347 545.579 15.344 547.67 15.344C549.782 15.344 551.702 15.8347 553.43 16.816C555.179 17.7973 556.555 19.1627 557.558 20.912C558.582 22.64 559.094 24.592 559.094 26.768C559.094 28.9653 558.582 30.9387 557.558 32.688C556.555 34.416 555.179 35.7707 553.43 36.752C551.68 37.7333 549.76 38.224 547.67 38.224ZM547.67 34.224C549.014 34.224 550.198 33.9253 551.222 33.328C552.246 32.7093 553.046 31.8347 553.622 30.704C554.198 29.5733 554.486 28.2613 554.486 26.768C554.486 25.2747 554.198 23.9733 553.622 22.864C553.046 21.7333 552.246 20.8693 551.222 20.272C550.198 19.6747 549.014 19.376 547.67 19.376C546.326 19.376 545.131 19.6747 544.086 20.272C543.062 20.8693 542.262 21.7333 541.686 22.864C541.11 23.9733 540.822 25.2747 540.822 26.768C540.822 28.2613 541.11 29.5733 541.686 30.704C542.262 31.8347 543.062 32.7093 544.086 33.328C545.131 33.9253 546.326 34.224 547.67 34.224ZM566.907 23.024C567.483 22.0853 568.229 21.3493 569.147 20.816C570.085 20.2827 571.152 20.016 572.347 20.016V24.72H571.163C569.755 24.72 568.688 25.0507 567.963 25.712C567.259 26.3733 566.907 27.5253 566.907 29.168V38H562.427V20.272H566.907V23.024ZM582.308 19.984C583.631 19.984 584.794 20.2507 585.796 20.784C586.799 21.296 587.588 21.968 588.164 22.8V20.272H592.676V38.128C592.676 39.7707 592.346 41.232 591.684 42.512C591.023 43.8133 590.031 44.8373 588.708 45.584C587.386 46.352 585.786 46.736 583.908 46.736C581.391 46.736 579.322 46.1493 577.7 44.976C576.1 43.8027 575.194 42.2027 574.98 40.176H579.428C579.663 40.9867 580.164 41.6267 580.932 42.096C581.722 42.5867 582.671 42.832 583.78 42.832C585.082 42.832 586.138 42.4373 586.948 41.648C587.759 40.88 588.164 39.7067 588.164 38.128V35.376C587.588 36.208 586.788 36.9013 585.764 37.456C584.762 38.0107 583.61 38.288 582.308 38.288C580.815 38.288 579.45 37.904 578.212 37.136C576.975 36.368 575.994 35.2907 575.268 33.904C574.564 32.496 574.212 30.8853 574.212 29.072C574.212 27.28 574.564 25.6907 575.268 24.304C575.994 22.9173 576.964 21.8507 578.18 21.104C579.418 20.3573 580.794 19.984 582.308 19.984ZM588.164 29.136C588.164 28.048 587.951 27.12 587.524 26.352C587.098 25.5627 586.522 24.9653 585.796 24.56C585.071 24.1333 584.292 23.92 583.46 23.92C582.628 23.92 581.86 24.1227 581.156 24.528C580.452 24.9333 579.876 25.5307 579.428 26.32C579.002 27.088 578.788 28.0053 578.788 29.072C578.788 30.1387 579.002 31.0773 579.428 31.888C579.876 32.6773 580.452 33.2853 581.156 33.712C581.882 34.1387 582.65 34.352 583.46 34.352C584.292 34.352 585.071 34.1493 585.796 33.744C586.522 33.3173 587.098 32.72 587.524 31.952C587.951 31.1627 588.164 30.224 588.164 29.136ZM595.9 29.072C595.9 27.28 596.252 25.6907 596.956 24.304C597.681 22.9173 598.652 21.8507 599.868 21.104C601.105 20.3573 602.481 19.984 603.996 19.984C605.318 19.984 606.47 20.2507 607.452 20.784C608.454 21.3173 609.254 21.9893 609.852 22.8V20.272H614.364V38H609.852V35.408C609.276 36.24 608.476 36.9333 607.452 37.488C606.449 38.0213 605.286 38.288 603.964 38.288C602.47 38.288 601.105 37.904 599.868 37.136C598.652 36.368 597.681 35.2907 596.956 33.904C596.252 32.496 595.9 30.8853 595.9 29.072ZM609.852 29.136C609.852 28.048 609.638 27.12 609.212 26.352C608.785 25.5627 608.209 24.9653 607.484 24.56C606.758 24.1333 605.98 23.92 605.148 23.92C604.316 23.92 603.548 24.1227 602.844 24.528C602.14 24.9333 601.564 25.5307 601.116 26.32C600.689 27.088 600.476 28.0053 600.476 29.072C600.476 30.1387 600.689 31.0773 601.116 31.888C601.564 32.6773 602.14 33.2853 602.844 33.712C603.569 34.1387 604.337 34.352 605.148 34.352C605.98 34.352 606.758 34.1493 607.484 33.744C608.209 33.3173 608.785 32.72 609.212 31.952C609.638 31.1627 609.852 30.224 609.852 29.136ZM628.563 20.016C630.675 20.016 632.382 20.688 633.683 22.032C634.985 23.3547 635.635 25.2107 635.635 27.6V38H631.155V28.208C631.155 26.8 630.803 25.7227 630.099 24.976C629.395 24.208 628.435 23.824 627.219 23.824C625.982 23.824 625.001 24.208 624.275 24.976C623.571 25.7227 623.219 26.8 623.219 28.208V38H618.739V20.272H623.219V22.48C623.817 21.712 624.574 21.1147 625.491 20.688C626.43 20.24 627.454 20.016 628.563 20.016ZM642.168 18.16C641.378 18.16 640.717 17.9147 640.184 17.424C639.672 16.912 639.416 16.2827 639.416 15.536C639.416 14.7893 639.672 14.1707 640.184 13.68C640.717 13.168 641.378 12.912 642.168 12.912C642.957 12.912 643.608 13.168 644.12 13.68C644.653 14.1707 644.92 14.7893 644.92 15.536C644.92 16.2827 644.653 16.912 644.12 17.424C643.608 17.9147 642.957 18.16 642.168 18.16ZM644.376 20.272V38H639.896V20.272H644.376ZM652.898 34.32H660.802V38H647.81V34.384L655.554 23.952H647.842V20.272H660.706V23.888L652.898 34.32ZM663.118 29.072C663.118 27.28 663.47 25.6907 664.174 24.304C664.9 22.9173 665.871 21.8507 667.087 21.104C668.324 20.3573 669.7 19.984 671.215 19.984C672.537 19.984 673.689 20.2507 674.671 20.784C675.673 21.3173 676.473 21.9893 677.071 22.8V20.272H681.583V38H677.071V35.408C676.495 36.24 675.695 36.9333 674.671 37.488C673.668 38.0213 672.505 38.288 671.183 38.288C669.689 38.288 668.324 37.904 667.087 37.136C665.871 36.368 664.9 35.2907 664.174 33.904C663.47 32.496 663.118 30.8853 663.118 29.072ZM677.071 29.136C677.071 28.048 676.857 27.12 676.431 26.352C676.004 25.5627 675.428 24.9653 674.703 24.56C673.977 24.1333 673.199 23.92 672.367 23.92C671.535 23.92 670.767 24.1227 670.062 24.528C669.359 24.9333 668.783 25.5307 668.335 26.32C667.908 27.088 667.695 28.0053 667.695 29.072C667.695 30.1387 667.908 31.0773 668.335 31.888C668.783 32.6773 669.359 33.2853 670.062 33.712C670.788 34.1387 671.556 34.352 672.367 34.352C673.199 34.352 673.977 34.1493 674.703 33.744C675.428 33.3173 676.004 32.72 676.431 31.952C676.857 31.1627 677.071 30.224 677.071 29.136ZM691.174 23.952V32.528C691.174 33.1253 691.313 33.5627 691.59 33.84C691.889 34.096 692.379 34.224 693.062 34.224H695.142V38H692.326C688.55 38 686.662 36.1653 686.662 32.496V23.952H684.55V20.272H686.662V15.888H691.174V20.272H695.142V23.952H691.174ZM700.636 18.16C699.847 18.16 699.186 17.9147 698.652 17.424C698.14 16.912 697.884 16.2827 697.884 15.536C697.884 14.7893 698.14 14.1707 698.652 13.68C699.186 13.168 699.847 12.912 700.636 12.912C701.426 12.912 702.076 13.168 702.588 13.68C703.122 14.1707 703.388 14.7893 703.388 15.536C703.388 16.2827 703.122 16.912 702.588 17.424C702.076 17.9147 701.426 18.16 700.636 18.16ZM702.844 20.272V38H698.364V20.272H702.844ZM715.143 38.288C713.436 38.288 711.9 37.9147 710.535 37.168C709.169 36.4 708.092 35.3227 707.303 33.936C706.535 32.5493 706.151 30.9493 706.151 29.136C706.151 27.3227 706.545 25.7227 707.335 24.336C708.145 22.9493 709.244 21.8827 710.631 21.136C712.017 20.368 713.564 19.984 715.271 19.984C716.977 19.984 718.524 20.368 719.911 21.136C721.297 21.8827 722.385 22.9493 723.175 24.336C723.985 25.7227 724.391 27.3227 724.391 29.136C724.391 30.9493 723.975 32.5493 723.142 33.936C722.332 35.3227 721.223 36.4 719.815 37.168C718.428 37.9147 716.871 38.288 715.143 38.288ZM715.143 34.384C715.953 34.384 716.711 34.192 717.415 33.808C718.14 33.4027 718.716 32.8053 719.143 32.016C719.569 31.2267 719.783 30.2667 719.783 29.136C719.783 27.4507 719.335 26.16 718.439 25.264C717.564 24.3467 716.487 23.888 715.207 23.888C713.927 23.888 712.849 24.3467 711.975 25.264C711.121 26.16 710.695 27.4507 710.695 29.136C710.695 30.8213 711.111 32.1227 711.943 33.04C712.796 33.936 713.863 34.384 715.143 34.384ZM737.501 20.016C739.613 20.016 741.319 20.688 742.621 22.032C743.922 23.3547 744.573 25.2107 744.573 27.6V38H740.093V28.208C740.093 26.8 739.741 25.7227 739.037 24.976C738.333 24.208 737.373 23.824 736.157 23.824C734.919 23.824 733.938 24.208 733.213 24.976C732.509 25.7227 732.157 26.8 732.157 28.208V38H727.677V20.272H732.157V22.48C732.754 21.712 733.511 21.1147 734.429 20.688C735.367 20.24 736.391 20.016 737.501 20.016ZM762.465 24.688V28.464H748.897V24.688H762.465ZM766.401 26.8C766.401 24.6027 766.892 22.64 767.873 20.912C768.876 19.1627 770.231 17.808 771.937 16.848C773.665 15.8667 775.596 15.376 777.729 15.376C780.225 15.376 782.412 16.016 784.289 17.296C786.167 18.576 787.479 20.3467 788.225 22.608H783.073C782.561 21.5413 781.836 20.7413 780.897 20.208C779.98 19.6747 778.913 19.408 777.697 19.408C776.396 19.408 775.233 19.7173 774.209 20.336C773.207 20.9333 772.417 21.7867 771.841 22.896C771.287 24.0053 771.009 25.3067 771.009 26.8C771.009 28.272 771.287 29.5733 771.841 30.704C772.417 31.8133 773.207 32.6773 774.209 33.296C775.233 33.8933 776.396 34.192 777.697 34.192C778.913 34.192 779.98 33.9253 780.897 33.392C781.836 32.8373 782.561 32.0267 783.073 30.96H788.225C787.479 33.2427 786.167 35.024 784.289 36.304C782.433 37.5627 780.247 38.192 777.729 38.192C775.596 38.192 773.665 37.712 771.937 36.752C770.231 35.7707 768.876 34.416 767.873 32.688C766.892 30.96 766.401 28.9973 766.401 26.8ZM799.924 38.288C798.217 38.288 796.681 37.9147 795.316 37.168C793.95 36.4 792.873 35.3227 792.084 33.936C791.316 32.5493 790.932 30.9493 790.932 29.136C790.932 27.3227 791.326 25.7227 792.116 24.336C792.926 22.9493 794.025 21.8827 795.412 21.136C796.798 20.368 798.345 19.984 800.052 19.984C801.758 19.984 803.305 20.368 804.692 21.136C806.078 21.8827 807.166 22.9493 807.956 24.336C808.766 25.7227 809.172 27.3227 809.172 29.136C809.172 30.9493 808.756 32.5493 807.924 33.936C807.113 35.3227 806.004 36.4 804.596 37.168C803.209 37.9147 801.652 38.288 799.924 38.288ZM799.924 34.384C800.734 34.384 801.492 34.192 802.196 33.808C802.921 33.4027 803.497 32.8053 803.924 32.016C804.35 31.2267 804.564 30.2667 804.564 29.136C804.564 27.4507 804.116 26.16 803.22 25.264C802.345 24.3467 801.268 23.888 799.988 23.888C798.708 23.888 797.63 24.3467 796.756 25.264C795.902 26.16 795.476 27.4507 795.476 29.136C795.476 30.8213 795.892 32.1227 796.724 33.04C797.577 33.936 798.644 34.384 799.924 34.384ZM822.282 20.016C824.394 20.016 826.101 20.688 827.402 22.032C828.703 23.3547 829.354 25.2107 829.354 27.6V38H824.874V28.208C824.874 26.8 824.522 25.7227 823.818 24.976C823.114 24.208 822.154 23.824 820.938 23.824C819.701 23.824 818.719 24.208 817.994 24.976C817.29 25.7227 816.938 26.8 816.938 28.208V38H812.458V20.272H816.938V22.48C817.535 21.712 818.293 21.1147 819.21 20.688C820.149 20.24 821.173 20.016 822.282 20.016ZM838.83 23.952V32.528C838.83 33.1253 838.969 33.5627 839.246 33.84C839.545 34.096 840.036 34.224 840.718 34.224H842.798V38H839.982C836.206 38 834.318 36.1653 834.318 32.496V23.952H832.206V20.272H834.318V15.888H838.83V20.272H842.798V23.952H838.83ZM850.501 23.024C851.077 22.0853 851.823 21.3493 852.741 20.816C853.679 20.2827 854.746 20.016 855.941 20.016V24.72H854.757C853.349 24.72 852.282 25.0507 851.557 25.712C850.853 26.3733 850.501 27.5253 850.501 29.168V38H846.021V20.272H850.501V23.024ZM866.83 38.288C865.123 38.288 863.587 37.9147 862.222 37.168C860.857 36.4 859.779 35.3227 858.99 33.936C858.222 32.5493 857.838 30.9493 857.838 29.136C857.838 27.3227 858.233 25.7227 859.022 24.336C859.833 22.9493 860.931 21.8827 862.318 21.136C863.705 20.368 865.251 19.984 866.958 19.984C868.665 19.984 870.211 20.368 871.598 21.136C872.985 21.8827 874.073 22.9493 874.862 24.336C875.673 25.7227 876.078 27.3227 876.078 29.136C876.078 30.9493 875.662 32.5493 874.83 33.936C874.019 35.3227 872.91 36.4 871.502 37.168C870.115 37.9147 868.558 38.288 866.83 38.288ZM866.83 34.384C867.641 34.384 868.398 34.192 869.102 33.808C869.827 33.4027 870.403 32.8053 870.83 32.016C871.257 31.2267 871.47 30.2667 871.47 29.136C871.47 27.4507 871.022 26.16 870.126 25.264C869.251 24.3467 868.174 23.888 866.894 23.888C865.614 23.888 864.537 24.3467 863.662 25.264C862.809 26.16 862.382 27.4507 862.382 29.136C862.382 30.8213 862.798 32.1227 863.63 33.04C864.483 33.936 865.55 34.384 866.83 34.384ZM883.844 14.32V38H879.364V14.32H883.844ZM892.751 14.32V38H888.271V14.32H892.751ZM913.657 28.752C913.657 29.392 913.614 29.968 913.529 30.48H900.569C900.675 31.76 901.123 32.7627 901.913 33.488C902.702 34.2133 903.673 34.576 904.825 34.576C906.489 34.576 907.673 33.8613 908.377 32.432H913.209C912.697 34.1387 911.715 35.5467 910.265 36.656C908.814 37.744 907.033 38.288 904.921 38.288C903.214 38.288 901.678 37.9147 900.313 37.168C898.969 36.4 897.913 35.3227 897.145 33.936C896.398 32.5493 896.025 30.9493 896.025 29.136C896.025 27.3013 896.398 25.6907 897.145 24.304C897.891 22.9173 898.937 21.8507 900.281 21.104C901.625 20.3573 903.171 19.984 904.921 19.984C906.606 19.984 908.11 20.3467 909.433 21.072C910.777 21.7973 911.811 22.832 912.537 24.176C913.283 25.4987 913.657 27.024 913.657 28.752ZM909.017 27.472C908.995 26.32 908.579 25.4027 907.769 24.72C906.958 24.016 905.966 23.664 904.793 23.664C903.683 23.664 902.745 24.0053 901.977 24.688C901.23 25.3493 900.771 26.2773 900.601 27.472H909.017ZM915.775 29.072C915.775 27.28 916.127 25.6907 916.831 24.304C917.556 22.9173 918.537 21.8507 919.775 21.104C921.012 20.3573 922.388 19.984 923.903 19.984C925.055 19.984 926.153 20.24 927.199 20.752C928.244 21.2427 929.076 21.904 929.695 22.736V14.32H934.239V38H929.695V35.376C929.14 36.2507 928.361 36.9547 927.359 37.488C926.356 38.0213 925.193 38.288 923.871 38.288C922.377 38.288 921.012 37.904 919.775 37.136C918.537 36.368 917.556 35.2907 916.831 33.904C916.127 32.496 915.775 30.8853 915.775 29.072ZM929.727 29.136C929.727 28.048 929.513 27.12 929.087 26.352C928.66 25.5627 928.084 24.9653 927.359 24.56C926.633 24.1333 925.855 23.92 925.023 23.92C924.191 23.92 923.423 24.1227 922.719 24.528C922.015 24.9333 921.439 25.5307 920.991 26.32C920.564 27.088 920.351 28.0053 920.351 29.072C920.351 30.1387 920.564 31.0773 920.991 31.888C921.439 32.6773 922.015 33.2853 922.719 33.712C923.444 34.1387 924.212 34.352 925.023 34.352C925.855 34.352 926.633 34.1493 927.359 33.744C928.084 33.3173 928.66 32.72 929.087 31.952C929.513 31.1627 929.727 30.224 929.727 29.136ZM976.095 15.664L969.855 38H964.575L960.383 22.096L955.999 38L950.751 38.032L944.735 15.664H949.535L953.471 33.008L958.015 15.664H963.007L967.295 32.912L971.263 15.664H976.095ZM977.868 29.072C977.868 27.28 978.22 25.6907 978.924 24.304C979.65 22.9173 980.621 21.8507 981.837 21.104C983.074 20.3573 984.45 19.984 985.965 19.984C987.287 19.984 988.439 20.2507 989.421 20.784C990.423 21.3173 991.223 21.9893 991.821 22.8V20.272H996.333V38H991.821V35.408C991.245 36.24 990.445 36.9333 989.421 37.488C988.418 38.0213 987.255 38.288 985.933 38.288C984.439 38.288 983.074 37.904 981.837 37.136C980.621 36.368 979.65 35.2907 978.924 33.904C978.22 32.496 977.868 30.8853 977.868 29.072ZM991.821 29.136C991.821 28.048 991.607 27.12 991.181 26.352C990.754 25.5627 990.178 24.9653 989.453 24.56C988.727 24.1333 987.949 23.92 987.117 23.92C986.285 23.92 985.517 24.1227 984.812 24.528C984.109 24.9333 983.533 25.5307 983.085 26.32C982.658 27.088 982.445 28.0053 982.445 29.072C982.445 30.1387 982.658 31.0773 983.085 31.888C983.533 32.6773 984.109 33.2853 984.812 33.712C985.538 34.1387 986.306 34.352 987.117 34.352C987.949 34.352 988.727 34.1493 989.453 33.744C990.178 33.3173 990.754 32.72 991.181 31.952C991.607 31.1627 991.821 30.224 991.821 29.136ZM1005.19 14.32V38H1000.71V14.32H1005.19ZM1014.09 14.32V38H1009.61V14.32H1014.09ZM1035 28.752C1035 29.392 1034.96 29.968 1034.87 30.48H1021.91C1022.02 31.76 1022.47 32.7627 1023.26 33.488C1024.05 34.2133 1025.02 34.576 1026.17 34.576C1027.83 34.576 1029.02 33.8613 1029.72 32.432H1034.55C1034.04 34.1387 1033.06 35.5467 1031.61 36.656C1030.16 37.744 1028.38 38.288 1026.26 38.288C1024.56 38.288 1023.02 37.9147 1021.66 37.168C1020.31 36.4 1019.26 35.3227 1018.49 33.936C1017.74 32.5493 1017.37 30.9493 1017.37 29.136C1017.37 27.3013 1017.74 25.6907 1018.49 24.304C1019.24 22.9173 1020.28 21.8507 1021.62 21.104C1022.97 20.3573 1024.52 19.984 1026.26 19.984C1027.95 19.984 1029.45 20.3467 1030.78 21.072C1032.12 21.7973 1033.16 22.832 1033.88 24.176C1034.63 25.4987 1035 27.024 1035 28.752ZM1030.36 27.472C1030.34 26.32 1029.92 25.4027 1029.11 24.72C1028.3 24.016 1027.31 23.664 1026.14 23.664C1025.03 23.664 1024.09 24.0053 1023.32 24.688C1022.57 25.3493 1022.12 26.2773 1021.94 27.472H1030.36ZM1043.49 23.952V32.528C1043.49 33.1253 1043.63 33.5627 1043.9 33.84C1044.2 34.096 1044.69 34.224 1045.37 34.224H1047.45V38H1044.64C1040.86 38 1038.97 36.1653 1038.97 32.496V23.952H1036.86V20.272H1038.97V15.888H1043.49V20.272H1047.45V23.952H1043.49ZM1057.46 38.288C1056.01 38.288 1054.71 38.032 1053.56 37.52C1052.4 36.9867 1051.49 36.272 1050.8 35.376C1050.14 34.48 1049.78 33.488 1049.72 32.4H1054.23C1054.31 33.0827 1054.64 33.648 1055.22 34.096C1055.82 34.544 1056.55 34.768 1057.43 34.768C1058.28 34.768 1058.94 34.5973 1059.41 34.256C1059.9 33.9147 1060.15 33.4773 1060.15 32.944C1060.15 32.368 1059.85 31.9413 1059.25 31.664C1058.68 31.3653 1057.75 31.0453 1056.47 30.704C1055.15 30.384 1054.06 30.0533 1053.2 29.712C1052.37 29.3707 1051.65 28.848 1051.03 28.144C1050.43 27.44 1050.13 26.4907 1050.13 25.296C1050.13 24.3147 1050.41 23.4187 1050.96 22.608C1051.54 21.7973 1052.35 21.1573 1053.4 20.688C1054.46 20.2187 1055.71 19.984 1057.14 19.984C1059.25 19.984 1060.94 20.5173 1062.2 21.584C1063.46 22.6293 1064.15 24.048 1064.28 25.84H1059.99C1059.92 25.136 1059.63 24.5813 1059.09 24.176C1058.58 23.7493 1057.89 23.536 1057.01 23.536C1056.2 23.536 1055.57 23.6853 1055.12 23.984C1054.7 24.2827 1054.48 24.6987 1054.48 25.232C1054.48 25.8293 1054.78 26.288 1055.38 26.608C1055.98 26.9067 1056.91 27.216 1058.16 27.536C1059.44 27.856 1060.5 28.1867 1061.33 28.528C1062.16 28.8693 1062.88 29.4027 1063.48 30.128C1064.1 30.832 1064.42 31.7707 1064.44 32.944C1064.44 33.968 1064.15 34.8853 1063.57 35.696C1063.02 36.5067 1062.21 37.1467 1061.14 37.616C1060.1 38.064 1058.87 38.288 1057.46 38.288Z" fill="#1F32D6"/>
</svg>
