<svg width="32" height="32" viewBox="0 0 32 32" fill="none" xmlns="http://www.w3.org/2000/svg">
<rect width="32" height="32" rx="4" fill="#1F32D6"/>
<path d="M20.7636 16.321C20.7635 16.0299 20.6771 15.7453 20.5153 15.5033C20.3535 15.2613 20.1236 15.0727 19.8546 14.9613C19.5856 14.85 19.2897 14.8209 19.0041 14.8777C18.7186 14.9346 18.4564 15.0748 18.2505 15.2807C18.0447 15.4865 17.9045 15.7488 17.8478 16.0344C17.791 16.3199 17.8202 16.6159 17.9316 16.8848C18.043 17.1538 18.2317 17.3836 18.4738 17.5454C18.7158 17.7071 19.0004 17.7934 19.2915 17.7934C19.4849 17.7934 19.6763 17.7553 19.8549 17.6813C20.0336 17.6073 20.1959 17.4989 20.3326 17.3622C20.4692 17.2254 20.5777 17.0631 20.6516 16.8845C20.7256 16.7058 20.7636 16.5144 20.7636 16.321ZM27.8337 16.321C27.8332 16.9442 27.6152 17.5477 27.2174 18.0274C26.8195 18.5071 26.2668 18.833 25.6544 18.9487C25.042 19.0645 24.4085 18.963 23.863 18.6616C23.3175 18.3603 22.8942 17.8781 22.6662 17.2981L23.6851 16.2791V16.3214C23.686 16.6612 23.8046 16.9901 24.0207 17.2523C24.2368 17.5145 24.5371 17.6937 24.8705 17.7593C25.2038 17.825 25.5497 17.7731 25.8491 17.6125C26.1485 17.4519 26.383 17.1925 26.5126 16.8784C26.6423 16.5644 26.6591 16.2151 26.5602 15.89C26.4613 15.565 26.2528 15.2842 25.9702 15.0956C25.6876 14.9069 25.3484 14.8221 25.0103 14.8554C24.6722 14.8888 24.356 15.0383 24.1157 15.2785L21.1945 18.2012C20.8221 18.5796 20.3454 18.8385 19.8252 18.9449C19.305 19.0513 18.7649 19.0005 18.2737 18.7988C17.7826 18.5971 17.3626 18.2538 17.0673 17.8125C16.772 17.3712 16.6148 16.852 16.6158 16.321V12.5661C16.6252 12.4128 16.6928 12.2689 16.8046 12.1637C16.9165 12.0586 17.0643 12 17.2178 12C17.3714 12 17.5192 12.0586 17.631 12.1637C17.7429 12.2689 17.8105 12.4128 17.8199 12.5661V14.0678C18.1849 13.8276 18.6032 13.6803 19.0382 13.639C19.4733 13.5977 19.9118 13.6634 20.3155 13.8306C20.7193 13.9978 21.0759 14.2613 21.3544 14.5981C21.6328 14.9349 21.8245 15.3348 21.9128 15.7628L23.2648 14.4112C23.6401 14.0357 24.1186 13.7803 24.6394 13.6775C25.1603 13.5748 25.6999 13.6292 26.1897 13.8339C26.6795 14.0387 27.0974 14.3845 27.3901 14.8274C27.6828 15.2702 27.8373 15.7902 27.8337 16.321ZM16.2149 16.321C16.2161 16.9448 15.9991 17.5494 15.6016 18.0301C15.2041 18.5109 14.651 18.8375 14.038 18.9534C13.4251 19.0693 12.7909 18.9673 12.2452 18.665C11.6996 18.3628 11.2768 17.8792 11.05 17.2981L12.069 16.2791V16.3214C12.0699 16.6612 12.1884 16.9901 12.4046 17.2523C12.6207 17.5145 12.921 17.6937 13.2543 17.7593C13.5877 17.825 13.9335 17.7731 14.2329 17.6125C14.5323 17.4519 14.7668 17.1925 14.8965 16.8784C15.0262 16.5644 15.043 16.2151 14.9441 15.89C14.8452 15.565 14.6367 15.2842 14.3541 15.0956C14.0715 14.9069 13.7323 14.8221 13.3941 14.8554C13.056 14.8888 12.7399 15.0383 12.4996 15.2785L9.56812 18.2126C9.19381 18.5868 8.71696 18.8415 8.19786 18.9447C7.67877 19.0479 7.14074 18.9948 6.65179 18.7922C6.16285 18.5897 5.74495 18.2466 5.45094 17.8066C5.15693 17.3665 5 16.8491 5 16.3199C5 15.7906 5.15693 15.2733 5.45094 14.8332C5.74495 14.3931 6.16285 14.0501 6.65179 13.8475C7.14074 13.645 7.67877 13.5919 8.19786 13.6951C8.71696 13.7982 9.19381 14.053 9.56812 14.4272C9.62401 14.4834 9.66829 14.5501 9.69841 14.6234C9.72854 14.6967 9.74393 14.7753 9.7437 14.8546C9.74347 14.9338 9.72762 15.0123 9.69707 15.0855C9.66652 15.1586 9.62186 15.225 9.56564 15.2809C9.50942 15.3368 9.44274 15.3811 9.36941 15.4112C9.29607 15.4414 9.21753 15.4567 9.13825 15.4565C9.05897 15.4563 8.98051 15.4404 8.90736 15.4099C8.8342 15.3793 8.76778 15.3347 8.71188 15.2785C8.50583 15.0731 8.24353 14.9333 7.95812 14.8769C7.6727 14.8205 7.37697 14.85 7.10828 14.9615C6.83958 15.0731 6.60996 15.2617 6.44843 15.5037C6.28689 15.7457 6.20068 16.0301 6.20068 16.321C6.20068 16.612 6.28689 16.8964 6.44843 17.1383C6.60996 17.3803 6.83958 17.569 7.10828 17.6805C7.37697 17.7921 7.6727 17.8215 7.95812 17.7651C8.24353 17.7087 8.50583 17.569 8.71188 17.3636L11.6483 14.4196C12.0229 14.0442 12.5006 13.7887 13.0207 13.6855C13.5408 13.5823 14.0799 13.6361 14.5694 13.84C15.0589 14.044 15.4767 14.3888 15.7697 14.8308C16.0627 15.2728 16.2177 15.7919 16.2149 16.3222V16.321Z" fill="white"/>
</svg>
