<svg width="374" height="54" viewBox="0 0 374 54" fill="none" xmlns="http://www.w3.org/2000/svg">
<g clip-path="url(#clip0_483_417)">
<path fill-rule="evenodd" clip-rule="evenodd" d="M86.4809 33.3248C86.485 43.2354 79.4301 51.7466 69.6867 53.5896C59.9404 55.4316 50.2619 50.0849 46.6433 40.8568L54.5068 32.9987V33.3248C54.4987 38.7434 58.3251 43.4116 63.6411 44.4749C68.9592 45.5372 74.2873 42.6967 76.3657 37.6923C78.4441 32.6878 76.693 26.9118 72.1846 23.9012C67.6753 20.8886 61.6671 21.48 57.8326 25.3128L35.2229 47.8885C29.3242 53.7871 20.4493 55.5531 12.7388 52.3633C5.02721 49.1715 0 41.6537 0 33.3157C0 24.9766 5.02721 17.4588 12.7388 14.268C20.4493 11.0782 29.3242 12.8432 35.2229 18.7429C36.3902 19.9205 36.8422 21.6299 36.4044 23.2288C35.9687 24.8288 34.7111 26.0743 33.108 26.4946C31.5029 26.9168 29.7954 26.452 28.628 25.2743C24.1946 20.8593 17.0191 20.8694 12.5969 25.2956C8.17263 29.7208 8.17263 36.8913 12.5969 41.3155C17.0191 45.7427 24.1946 45.7518 28.628 41.3368L51.2195 18.7429C57.1203 12.8422 65.9972 11.0762 73.7087 14.269C81.4203 17.4609 86.4465 24.9827 86.4424 33.3248H86.4809ZM176 33.3248C176.027 43.2547 168.967 51.7942 159.205 53.6393C149.439 55.4833 139.746 50.1123 136.144 40.8568L144.008 32.9987V33.3248C144.017 38.7242 147.841 43.3641 153.14 44.4071C158.441 45.4521 163.741 42.6107 165.801 37.6214C167.861 32.6291 166.107 26.8804 161.611 23.8881C157.114 20.8947 151.129 21.4911 147.314 25.3128L124.819 47.8115C118.937 53.7547 110.049 55.5622 102.312 52.3866C94.5755 49.212 89.523 41.6831 89.5189 33.3248V4.35129C89.676 1.90375 91.7088 0 94.1621 0C96.6154 0 98.6482 1.90375 98.8052 4.35129V16.0908C104.513 12.3309 111.716 11.6433 118.034 14.2579C124.351 16.8705 128.958 22.444 130.336 29.1365L140.759 18.7236C146.66 12.8362 155.528 11.0802 163.232 14.269C170.934 17.4609 175.958 24.9726 175.962 33.3056L176 33.3248ZM121.512 33.3248C121.512 28.7386 118.745 24.604 114.506 22.8501C110.264 21.0982 105.383 22.0704 102.141 25.3169C98.8974 28.5624 97.9327 33.4402 99.6939 37.6771C101.455 41.9109 105.599 44.6683 110.188 44.6602C116.446 44.6491 121.512 39.5788 121.512 33.3248Z" fill="#1F32D6"/>
<path d="M196 47.4397H199.178V19.0506L212.029 37.821H212.216L225.114 19.0039V47.4397H228.385V13.4475H225.114L212.169 32.6848L199.224 13.4475H196V47.4397ZM244.102 45.3385C240.551 45.3385 237.42 43.3774 237.42 40.0623V39.9222C237.42 36.6537 240.177 34.5058 245.084 34.5058C248.402 34.5058 250.972 35.0661 252.981 35.5798V38.1946C252.981 42.3969 248.916 45.3385 244.102 45.3385ZM243.682 48C248.215 48 251.159 45.8521 252.888 43.5175V47.4397H255.972V32.0311C255.972 28.9027 255.084 26.5681 253.402 24.8405C251.579 23.0661 248.869 22.1323 245.411 22.1323C241.859 22.1323 239.149 22.9728 236.438 24.2335L237.42 26.8482C239.756 25.7276 242.139 24.9339 245.13 24.9339C250.037 24.9339 252.888 27.4086 252.888 32.1245V33.1051C250.598 32.4514 248.308 32.0311 244.99 32.0311C238.588 32.0311 234.195 34.8794 234.195 40.1089V40.2023C234.195 45.3385 239.008 48 243.682 48ZM262.717 47.4397H265.848V33.1051C265.848 28.2023 269.306 24.7938 273.839 24.7938C278.512 24.7938 281.223 27.8755 281.223 32.7782V47.4397H284.354V32.0311C284.354 26.1012 280.755 21.8988 274.587 21.8988C270.194 21.8988 267.483 24.1401 265.848 26.9416V22.5058H262.717V47.4397ZM300.398 48C304.791 48 307.501 45.7588 309.137 42.9572V47.4397H312.268V22.5058H309.137V36.8405C309.137 41.7432 305.679 45.1518 301.146 45.1518C296.473 45.1518 293.762 42.0233 293.762 37.1673V22.5058H290.631V37.8677C290.631 43.8444 294.229 48 300.398 48ZM327.424 45.3385C323.873 45.3385 320.742 43.3774 320.742 40.0623V39.9222C320.742 36.6537 323.499 34.5058 328.406 34.5058C331.724 34.5058 334.294 35.0661 336.303 35.5798V38.1946C336.303 42.3969 332.238 45.3385 327.424 45.3385ZM327.004 48C331.537 48 334.481 45.8521 336.21 43.5175V47.4397H339.294V32.0311C339.294 28.9027 338.406 26.5681 336.724 24.8405C334.901 23.0661 332.191 22.1323 328.733 22.1323C325.181 22.1323 322.471 22.9728 319.76 24.2335L320.742 26.8482C323.078 25.7276 325.462 24.9339 328.452 24.9339C333.359 24.9339 336.21 27.4086 336.21 32.1245V33.1051C333.92 32.4514 331.63 32.0311 328.312 32.0311C321.91 32.0311 317.517 34.8794 317.517 40.1089V40.2023C317.517 45.3385 322.331 48 327.004 48ZM346.366 47.4397H349.497V12H346.366V47.4397ZM365.214 47.9066C370.121 47.9066 374 45.1517 374 40.5292V40.4358C374 36 369.794 34.5058 365.869 33.3385C362.411 32.358 359.186 31.3774 359.186 28.8093V28.716C359.186 26.428 361.242 24.7471 364.42 24.7471C366.897 24.7471 369.607 25.7276 371.944 27.2218L373.439 24.7938C370.916 23.0661 367.504 21.9922 364.514 21.9922C359.607 21.9922 356.149 24.8872 356.149 29.0895V29.1829C356.149 33.6654 360.541 34.9728 364.514 36.1401C367.878 37.0739 370.916 38.0545 370.916 40.7626V40.856C370.916 43.4708 368.532 45.1518 365.355 45.1518C362.317 45.1518 359.326 44.0311 356.569 41.93L354.887 44.2646C357.644 46.5058 361.616 47.9066 365.214 47.9066Z" fill="#6B6B6B"/>
</g>
<defs>
<clipPath id="clip0_483_417">
<rect width="374" height="54" fill="white"/>
</clipPath>
</defs>
</svg>
