<svg width="1574" height="247" viewBox="0 0 1574 247" fill="none" xmlns="http://www.w3.org/2000/svg">
<path d="M441.451 121.739C441.451 99.0281 423.02 80.6085 400.31 80.6192C377.6 80.6192 359.18 99.0494 359.191 121.76C359.191 144.47 377.61 162.879 400.321 162.879C423.031 162.879 441.451 144.46 441.451 121.749V121.739ZM638.998 121.739C638.966 163.039 605.449 196.492 564.149 196.46C533.432 196.439 505.845 177.626 494.612 149.038L523.083 120.567V121.749C523.136 144.428 541.566 162.762 564.245 162.698C586.923 162.634 605.257 144.215 605.194 121.536C605.14 98.8578 586.71 80.5234 564.032 80.5872C553.182 80.6192 542.78 84.9313 535.114 92.6079L453.493 174.272C424.554 203.669 377.259 204.041 347.851 175.102C333.552 161.027 325.524 141.798 325.556 121.739V16.8214C326.131 7.52638 334.127 0.467307 343.412 1.03161C351.908 1.55332 358.669 8.32492 359.201 16.8214V58.7818C393.698 36.0714 440.077 45.6326 462.788 80.1294C467.994 88.0403 471.646 96.8668 473.563 106.14L511.339 68.3749C540.533 39.1698 587.881 39.1591 617.086 68.3537C631.237 82.5037 639.137 101.733 638.998 121.739ZM314.355 121.739C314.43 162.996 281.051 196.514 239.783 196.588C208.949 196.652 181.245 177.753 170.044 149.038L198.514 120.567V121.749C198.568 144.428 216.998 162.762 239.676 162.698C262.355 162.645 280.689 144.215 280.625 121.536C280.572 98.8578 262.142 80.5234 239.463 80.5872C228.614 80.6192 218.212 84.9313 210.546 92.6079L128.637 174.591C99.4317 203.786 52.0838 203.775 22.8892 174.57C-6.30529 145.365 -6.29464 98.0167 22.9105 68.8221C52.1051 39.6382 99.4424 39.6382 128.637 68.8221C135.206 75.4234 135.174 86.1131 128.562 92.6718C121.961 99.2411 111.271 99.2091 104.713 92.5973C88.6249 76.5626 62.5819 76.6052 46.5473 92.6931C30.5126 108.781 30.5552 134.824 46.6431 150.859C62.699 166.861 88.6675 166.861 104.713 150.859L186.76 68.5985C215.901 39.3934 263.206 39.3401 292.422 68.4814C306.562 82.5889 314.462 101.775 314.355 121.76V121.728V121.739Z" fill="#1F32D6"/>
<path d="M1531.94 192.072C1518.53 192.072 1507.54 189.004 1498.98 182.87C1490.57 176.592 1485.86 168.104 1484.86 157.404H1500.27C1500.98 163.966 1504.05 169.316 1509.47 173.454C1515.03 177.448 1522.45 179.446 1531.73 179.446C1539.86 179.446 1546.21 177.52 1550.77 173.668C1555.48 169.816 1557.83 165.036 1557.83 159.33C1557.83 155.335 1556.55 152.054 1553.98 149.486C1551.41 146.918 1548.13 144.92 1544.14 143.494C1540.29 141.924 1535.01 140.284 1528.3 138.572C1519.6 136.289 1512.54 134.006 1507.12 131.724C1501.69 129.441 1497.06 126.088 1493.21 121.666C1489.5 117.1 1487.64 111.037 1487.64 103.476C1487.64 97.7691 1489.35 92.4904 1492.78 87.6397C1496.2 82.7891 1501.05 78.937 1507.33 76.0837C1513.61 73.2304 1520.74 71.8037 1528.73 71.8037C1541.28 71.8037 1551.41 75.0137 1559.12 81.4337C1566.82 87.711 1570.96 96.4137 1571.53 107.542H1556.55C1556.12 100.694 1553.41 95.201 1548.42 91.0637C1543.57 86.7837 1536.86 84.6437 1528.3 84.6437C1520.74 84.6437 1514.61 86.4271 1509.9 89.9937C1505.19 93.5604 1502.84 97.983 1502.84 103.262C1502.84 107.827 1504.19 111.608 1506.9 114.604C1509.75 117.457 1513.25 119.74 1517.39 121.452C1521.52 123.021 1527.09 124.804 1534.08 126.802C1542.5 129.084 1549.2 131.296 1554.2 133.436C1559.19 135.576 1563.47 138.714 1567.04 142.852C1570.6 146.989 1572.46 152.482 1572.6 159.33C1572.6 165.607 1570.89 171.242 1567.46 176.236C1564.04 181.086 1559.26 184.938 1553.13 187.792C1546.99 190.645 1539.93 192.072 1531.94 192.072Z" fill="#808080"/>
<path d="M1457.78 32V190.36H1442.8V32H1457.78Z" fill="#808080"/>
<path d="M1291.55 131.724C1291.55 119.74 1293.9 109.254 1298.61 100.266C1303.46 91.135 1310.1 84.1444 1318.51 79.2937C1327.07 74.3004 1336.7 71.8037 1347.4 71.8037C1358.53 71.8037 1368.09 74.3717 1376.08 79.5077C1384.21 84.6437 1390.06 91.2064 1393.63 99.1957V73.5157H1408.61V190.36H1393.63V164.466C1389.92 172.455 1384 179.089 1375.86 184.368C1367.88 189.504 1358.32 192.072 1347.19 192.072C1336.63 192.072 1327.07 189.575 1318.51 184.582C1310.1 179.588 1303.46 172.526 1298.61 163.396C1293.9 154.265 1291.55 143.708 1291.55 131.724ZM1393.63 131.938C1393.63 122.522 1391.7 114.247 1387.85 107.114C1384 99.9804 1378.72 94.4877 1372.01 90.6357C1365.45 86.7837 1358.17 84.8577 1350.18 84.8577C1341.91 84.8577 1334.49 86.7124 1327.93 90.4217C1321.37 94.131 1316.16 99.5524 1312.31 106.686C1308.6 113.676 1306.74 122.022 1306.74 131.724C1306.74 141.282 1308.6 149.7 1312.31 156.976C1316.16 164.109 1321.37 169.602 1327.93 173.454C1334.49 177.163 1341.91 179.018 1350.18 179.018C1358.17 179.018 1365.45 177.092 1372.01 173.24C1378.72 169.388 1384 163.895 1387.85 156.762C1391.7 149.628 1393.63 141.354 1393.63 131.938Z" fill="#808080"/>
<path d="M1264.2 73.5161V190.36H1249.22V169.816C1245.79 177.092 1240.51 182.656 1233.38 186.508C1226.25 190.36 1218.26 192.286 1209.41 192.286C1195.43 192.286 1184.02 188.006 1175.17 179.446C1166.33 170.743 1161.9 158.189 1161.9 141.782V73.5161H1176.67V140.07C1176.67 152.767 1179.81 162.469 1186.09 169.174C1192.51 175.879 1201.21 179.232 1212.19 179.232C1223.47 179.232 1232.45 175.665 1239.16 168.532C1245.86 161.399 1249.22 150.913 1249.22 137.074V73.5161H1264.2Z" fill="#808080"/>
<path d="M1082.34 71.376C1096.32 71.376 1107.73 75.7273 1116.58 84.43C1125.42 92.99 1129.84 105.473 1129.84 121.88V190.36H1115.08V123.592C1115.08 110.895 1111.87 101.193 1105.45 94.488C1099.17 87.7826 1090.54 84.43 1079.55 84.43C1068.28 84.43 1059.3 87.9966 1052.59 95.13C1045.89 102.263 1042.53 112.749 1042.53 126.588V190.36H1027.55V73.516H1042.53V93.418C1046.24 86.2846 1051.59 80.8633 1058.58 77.154C1065.57 73.302 1073.49 71.376 1082.34 71.376Z" fill="#808080"/>
<path d="M876.297 131.724C876.297 119.74 878.651 109.254 883.359 100.266C888.209 91.135 894.843 84.1444 903.261 79.2937C911.821 74.3004 921.451 71.8037 932.151 71.8037C943.279 71.8037 952.837 74.3717 960.827 79.5077C968.959 84.6437 974.808 91.2064 978.375 99.1957V73.5157H993.355V190.36H978.375V164.466C974.665 172.455 968.745 179.089 960.613 184.368C952.623 189.504 943.065 192.072 931.937 192.072C921.379 192.072 911.821 189.575 903.261 184.582C894.843 179.588 888.209 172.526 883.359 163.396C878.651 154.265 876.297 143.708 876.297 131.724ZM978.375 131.938C978.375 122.522 976.449 114.247 972.596 107.114C968.744 99.9804 963.466 94.4877 956.76 90.6357C950.198 86.7837 942.922 84.8577 934.933 84.8577C926.658 84.8577 919.239 86.7124 912.677 90.4217C906.114 94.131 900.907 99.5524 897.055 106.686C893.345 113.676 891.491 122.022 891.491 131.724C891.491 141.282 893.345 149.7 897.055 156.976C900.907 164.109 906.114 169.602 912.677 173.454C919.239 177.163 926.658 179.018 934.933 179.018C942.922 179.018 950.198 177.092 956.76 173.24C963.466 169.388 968.744 163.895 972.596 156.762C976.449 149.628 978.375 141.354 978.375 131.938Z" fill="#808080"/>
<path d="M849.162 42.7002V190.36H834.182V72.4462L781.538 190.36H770.624L717.98 72.8742V190.36H703V42.7002H718.836L775.974 170.672L833.112 42.7002H849.162Z" fill="#808080"/>
</svg>
