<svg width="491" height="72" viewBox="0 0 491 72" fill="none" xmlns="http://www.w3.org/2000/svg">
<g clip-path="url(#clip0_4058_3817)">
<path fill-rule="evenodd" clip-rule="evenodd" d="M100.429 38.6998C100.434 50.2089 92.2414 60.0929 80.9265 62.2331C69.6082 64.3722 58.3687 58.1631 54.1664 47.4466L63.2983 38.3211V38.6998C63.2888 44.9923 67.7324 50.4135 73.9058 51.6483C80.0816 52.8819 86.2692 49.5833 88.6827 43.7717C91.0963 37.9601 89.0629 31.2524 83.8273 27.7562C78.5906 24.2578 71.6134 24.9445 67.1605 29.3955L40.904 55.6125C34.0539 62.4624 23.7476 64.5133 14.7934 60.809C5.83805 57.1024 0 48.3721 0 38.6892C0 29.0051 5.83805 20.2748 14.7934 16.5693C23.7476 12.865 34.0539 14.9147 40.904 21.7659C42.2596 23.1335 42.7845 25.1186 42.2761 26.9754C41.7701 28.8334 40.3097 30.2799 38.448 30.7679C36.584 31.2583 34.6011 30.7185 33.2454 29.3509C28.097 24.2237 19.7642 24.2354 14.6287 29.3755C9.4908 34.5145 9.4908 42.8415 14.6287 47.9793C19.7642 53.1206 28.097 53.1312 33.2454 48.004L59.4808 21.7659C66.3332 14.9136 76.6419 12.8627 85.5972 16.5705C94.5526 20.2771 100.389 29.0122 100.385 38.6998H100.429ZM204.387 38.6998C204.419 50.2312 196.22 60.1481 184.883 62.2907C173.542 64.4322 162.286 58.1949 158.103 47.4466L167.235 38.3211V38.6998C167.245 44.97 171.686 50.3583 177.84 51.5695C183.996 52.7831 190.151 49.4833 192.543 43.6894C194.935 37.8919 192.898 31.2159 187.678 27.741C182.455 24.2648 175.505 24.9575 171.074 29.3955L144.951 55.5231C138.121 62.4248 127.799 64.5239 118.814 60.8361C109.83 57.1494 103.962 48.4062 103.957 38.6998V5.05311C104.14 2.21081 106.5 0 109.349 0C112.199 0 114.559 2.21081 114.742 5.05311V18.686C121.37 14.3197 129.735 13.5212 137.072 16.5576C144.407 19.5915 149.758 26.064 151.358 33.836L163.462 21.7436C170.315 14.9065 180.613 12.8674 189.559 16.5705C198.504 20.2771 204.339 29.0004 204.343 38.6774L204.387 38.6998ZM141.111 38.6998C141.111 33.3738 137.897 28.5724 132.975 26.5356C128.049 24.5012 122.38 25.6301 118.616 29.4002C114.849 33.1692 113.728 38.8338 115.774 43.754C117.819 48.6707 122.631 51.8729 127.96 51.8635C135.227 51.8506 141.111 45.9625 141.111 38.6998Z" fill="#1F32D6"/>
<path d="M226.451 57.2329H231.157V15.1072L250.189 42.9601H250.466L269.568 15.0379V57.2329H274.412V6.79288H269.568L250.397 35.3386L231.227 6.79288H226.451V57.2329ZM297.689 54.1151C292.429 54.1151 287.792 51.2051 287.792 46.2858V46.0779C287.792 41.2279 291.876 38.0408 299.143 38.0408C304.056 38.0408 307.863 38.8722 310.839 39.6343V43.5144C310.839 49.7501 304.818 54.1151 297.689 54.1151ZM297.066 58.0644C303.779 58.0644 308.14 54.8772 310.7 51.4129V57.2329H315.268V34.3686C315.268 29.7265 313.953 26.2622 311.462 23.6986C308.762 21.0658 304.748 19.68 299.627 19.68C294.367 19.68 290.353 20.9272 286.339 22.7979L287.792 26.6779C291.253 25.015 294.782 23.8372 299.212 23.8372C306.479 23.8372 310.7 27.5093 310.7 34.5072V35.9622C307.309 34.9922 303.918 34.3686 299.004 34.3686C289.523 34.3686 283.017 38.5951 283.017 46.3551V46.4936C283.017 54.1151 290.146 58.0644 297.066 58.0644ZM325.257 57.2329H329.894V35.9622C329.894 28.6872 335.015 23.6293 341.728 23.6293C348.649 23.6293 352.663 28.2022 352.663 35.4772V57.2329H357.3V34.3686C357.3 25.5693 351.971 19.3336 342.836 19.3336C336.33 19.3336 332.316 22.6593 329.894 26.8165V20.2343H325.257V57.2329ZM381.062 58.0644C387.567 58.0644 391.581 54.7387 394.004 50.5815V57.2329H398.64V20.2343H394.004V41.5051C394.004 48.7801 388.882 53.8379 382.169 53.8379C375.248 53.8379 371.234 49.1958 371.234 41.9901V20.2343H366.597V43.0294C366.597 51.8979 371.926 58.0644 381.062 58.0644ZM421.087 54.1151C415.827 54.1151 411.19 51.2051 411.19 46.2858V46.0779C411.19 41.2279 415.273 38.0408 422.54 38.0408C427.454 38.0408 431.26 38.8722 434.236 39.6343V43.5144C434.236 49.7501 428.215 54.1151 421.087 54.1151ZM420.464 58.0644C427.177 58.0644 431.537 54.8772 434.098 51.4129V57.2329H438.666V34.3686C438.666 29.7265 437.351 26.2622 434.859 23.6986C432.16 21.0658 428.146 19.68 423.025 19.68C417.765 19.68 413.751 20.9272 409.737 22.7979L411.19 26.6779C414.651 25.015 418.18 23.8372 422.609 23.8372C429.876 23.8372 434.098 27.5093 434.098 34.5072V35.9622C430.707 34.9922 427.316 34.3686 422.402 34.3686C412.92 34.3686 406.415 38.5951 406.415 46.3551V46.4936C406.415 54.1151 413.543 58.0644 420.464 58.0644ZM449.139 57.2329H453.776V4.64502H449.139V57.2329ZM477.053 57.9258C484.32 57.9258 490.064 53.8379 490.064 46.9786V46.8401C490.064 40.2579 483.835 38.0408 478.022 36.3086C472.901 34.8536 468.125 33.3986 468.125 29.5879V29.4493C468.125 26.0543 471.17 23.56 475.876 23.56C479.544 23.56 483.559 25.015 487.019 27.2322L489.234 23.6293C485.496 21.0658 480.444 19.4722 476.015 19.4722C468.748 19.4722 463.627 23.7679 463.627 30.0036V30.1422C463.627 36.7936 470.132 38.7336 476.015 40.4658C480.998 41.8515 485.496 43.3065 485.496 47.3251V47.4636C485.496 51.3436 481.967 53.8379 477.261 53.8379C472.762 53.8379 468.333 52.1751 464.25 49.0572L461.758 52.5215C465.841 55.8472 471.724 57.9258 477.053 57.9258Z" fill="#6B6B6B"/>
</g>
<defs>
<clipPath id="clip0_4058_3817">
<rect width="490.065" height="72" fill="white"/>
</clipPath>
</defs>
</svg>
