<svg width="86" height="32" viewBox="0 0 86 32" fill="none" xmlns="http://www.w3.org/2000/svg">
<rect width="86" height="32" rx="4.8" fill="#1F32D6"/>
<path d="M22.616 14.5344C22.4368 14.2059 22.1904 13.9557 21.8768 13.784C21.5632 13.6123 21.1973 13.5264 20.7792 13.5264C20.3163 13.5264 19.9056 13.6309 19.5472 13.84C19.1888 14.0491 18.9088 14.3477 18.7072 14.736C18.5056 15.1243 18.4048 15.5723 18.4048 16.08C18.4048 16.6027 18.5056 17.0581 18.7072 17.4464C18.9163 17.8347 19.2037 18.1333 19.5696 18.3424C19.9355 18.5515 20.3611 18.656 20.8464 18.656C21.4437 18.656 21.9328 18.4992 22.3136 18.1856C22.6944 17.8645 22.9445 17.4203 23.064 16.8528H20.376V15.6544H24.6096V17.0208C24.5051 17.5659 24.2811 18.0699 23.9376 18.5328C23.5941 18.9957 23.1499 19.3691 22.6048 19.6528C22.0672 19.9291 21.4624 20.0672 20.7904 20.0672C20.0363 20.0672 19.3531 19.8992 18.7408 19.5632C18.136 19.2197 17.6581 18.7456 17.3072 18.1408C16.9637 17.536 16.792 16.8491 16.792 16.08C16.792 15.3109 16.9637 14.624 17.3072 14.0192C17.6581 13.4069 18.136 12.9328 18.7408 12.5968C19.3531 12.2533 20.0325 12.0816 20.7792 12.0816C21.6603 12.0816 22.4256 12.2981 23.0752 12.7312C23.7248 13.1568 24.1728 13.7579 24.4192 14.5344H22.616ZM31.5377 16.7632C31.5377 16.9872 31.5227 17.1888 31.4929 17.368H26.9569C26.9942 17.816 27.151 18.1669 27.4273 18.4208C27.7035 18.6747 28.0433 18.8016 28.4465 18.8016C29.0289 18.8016 29.4433 18.5515 29.6897 18.0512H31.3809C31.2017 18.6485 30.8582 19.1413 30.3505 19.5296C29.8427 19.9104 29.2193 20.1008 28.4801 20.1008C27.8827 20.1008 27.3451 19.9701 26.8673 19.7088C26.3969 19.44 26.0273 19.0629 25.7585 18.5776C25.4971 18.0923 25.3665 17.5323 25.3665 16.8976C25.3665 16.2555 25.4971 15.6917 25.7585 15.2064C26.0198 14.7211 26.3857 14.3477 26.8561 14.0864C27.3265 13.8251 27.8678 13.6944 28.4801 13.6944C29.0699 13.6944 29.5963 13.8213 30.0593 14.0752C30.5297 14.3291 30.8918 14.6912 31.1457 15.1616C31.407 15.6245 31.5377 16.1584 31.5377 16.7632ZM29.9137 16.3152C29.9062 15.912 29.7606 15.5909 29.4769 15.352C29.1931 15.1056 28.8459 14.9824 28.4353 14.9824C28.047 14.9824 27.7185 15.1019 27.4497 15.3408C27.1883 15.5723 27.0278 15.8971 26.9681 16.3152H29.9137ZM36.1206 13.7056C36.8598 13.7056 37.4571 13.9408 37.9126 14.4112C38.368 14.8741 38.5958 15.5237 38.5958 16.36V20H37.0278V16.5728C37.0278 16.08 36.9046 15.7029 36.6582 15.4416C36.4118 15.1728 36.0758 15.0384 35.6502 15.0384C35.2171 15.0384 34.8736 15.1728 34.6198 15.4416C34.3734 15.7029 34.2502 16.08 34.2502 16.5728V20H32.6822V13.7952H34.2502V14.568C34.4592 14.2992 34.7243 14.0901 35.0454 13.9408C35.3739 13.784 35.7323 13.7056 36.1206 13.7056ZM45.8549 16.7632C45.8549 16.9872 45.8399 17.1888 45.8101 17.368H41.2741C41.3114 17.816 41.4682 18.1669 41.7445 18.4208C42.0207 18.6747 42.3605 18.8016 42.7637 18.8016C43.3461 18.8016 43.7605 18.5515 44.0069 18.0512H45.6981C45.5189 18.6485 45.1754 19.1413 44.6677 19.5296C44.1599 19.9104 43.5365 20.1008 42.7973 20.1008C42.1999 20.1008 41.6623 19.9701 41.1845 19.7088C40.7141 19.44 40.3445 19.0629 40.0757 18.5776C39.8143 18.0923 39.6837 17.5323 39.6837 16.8976C39.6837 16.2555 39.8143 15.6917 40.0757 15.2064C40.337 14.7211 40.7029 14.3477 41.1733 14.0864C41.6437 13.8251 42.185 13.6944 42.7973 13.6944C43.3871 13.6944 43.9135 13.8213 44.3765 14.0752C44.8469 14.3291 45.209 14.6912 45.4629 15.1616C45.7242 15.6245 45.8549 16.1584 45.8549 16.7632ZM44.2309 16.3152C44.2234 15.912 44.0778 15.5909 43.7941 15.352C43.5103 15.1056 43.1631 14.9824 42.7525 14.9824C42.3642 14.9824 42.0357 15.1019 41.7669 15.3408C41.5055 15.5723 41.345 15.8971 41.2853 16.3152H44.2309ZM48.5674 14.7584C48.769 14.4299 49.0303 14.1723 49.3514 13.9856C49.6799 13.7989 50.0532 13.7056 50.4714 13.7056V15.352H50.057C49.5642 15.352 49.1908 15.4677 48.937 15.6992C48.6906 15.9307 48.5674 16.3339 48.5674 16.9088V20H46.9994V13.7952H48.5674V14.7584ZM51.1243 16.8752C51.1243 16.248 51.2475 15.6917 51.4939 15.2064C51.7478 14.7211 52.0875 14.3477 52.5131 14.0864C52.9462 13.8251 53.4278 13.6944 53.9579 13.6944C54.4208 13.6944 54.824 13.7877 55.1675 13.9744C55.5184 14.1611 55.7984 14.3963 56.0075 14.68V13.7952H57.5867V20H56.0075V19.0928C55.8059 19.384 55.5259 19.6267 55.1675 19.8208C54.8166 20.0075 54.4096 20.1008 53.9467 20.1008C53.424 20.1008 52.9462 19.9664 52.5131 19.6976C52.0875 19.4288 51.7478 19.0517 51.4939 18.5664C51.2475 18.0736 51.1243 17.5099 51.1243 16.8752ZM56.0075 16.8976C56.0075 16.5168 55.9328 16.192 55.7835 15.9232C55.6342 15.6469 55.4326 15.4379 55.1787 15.296C54.9248 15.1467 54.6523 15.072 54.3611 15.072C54.0699 15.072 53.8011 15.1429 53.5547 15.2848C53.3083 15.4267 53.1067 15.6357 52.9499 15.912C52.8006 16.1808 52.7259 16.5019 52.7259 16.8752C52.7259 17.2485 52.8006 17.5771 52.9499 17.8608C53.1067 18.1371 53.3083 18.3499 53.5547 18.4992C53.8086 18.6485 54.0774 18.7232 54.3611 18.7232C54.6523 18.7232 54.9248 18.6523 55.1787 18.5104C55.4326 18.3611 55.6342 18.152 55.7835 17.8832C55.9328 17.6069 56.0075 17.2784 56.0075 16.8976ZM60.9437 15.0832V18.0848C60.9437 18.2939 60.9922 18.4469 61.0893 18.544C61.1938 18.6336 61.3656 18.6784 61.6045 18.6784H62.3325V20H61.3469C60.0253 20 59.3645 19.3579 59.3645 18.0736V15.0832H58.6253V13.7952H59.3645V12.2608H60.9437V13.7952H62.3325V15.0832H60.9437ZM69.2283 16.7632C69.2283 16.9872 69.2134 17.1888 69.1835 17.368H64.6475C64.6848 17.816 64.8416 18.1669 65.1179 18.4208C65.3942 18.6747 65.7339 18.8016 66.1371 18.8016C66.7195 18.8016 67.1339 18.5515 67.3803 18.0512H69.0715C68.8923 18.6485 68.5488 19.1413 68.0411 19.5296C67.5334 19.9104 66.9099 20.1008 66.1707 20.1008C65.5734 20.1008 65.0358 19.9701 64.5579 19.7088C64.0875 19.44 63.7179 19.0629 63.4491 18.5776C63.1878 18.0923 63.0571 17.5323 63.0571 16.8976C63.0571 16.2555 63.1878 15.6917 63.4491 15.2064C63.7104 14.7211 64.0763 14.3477 64.5467 14.0864C65.0171 13.8251 65.5584 13.6944 66.1707 13.6944C66.7606 13.6944 67.287 13.8213 67.7499 14.0752C68.2203 14.3291 68.5824 14.6912 68.8363 15.1616C69.0976 15.6245 69.2283 16.1584 69.2283 16.7632ZM67.6043 16.3152C67.5968 15.912 67.4512 15.5909 67.1675 15.352C66.8838 15.1056 66.5366 14.9824 66.1259 14.9824C65.7376 14.9824 65.4091 15.1019 65.1403 15.3408C64.879 15.5723 64.7184 15.8971 64.6587 16.3152H67.6043Z" fill="white"/>
</svg>
