<svg width="44" height="33" viewBox="0 0 44 33" fill="none" xmlns="http://www.w3.org/2000/svg">
<rect width="42.6667" height="32.3333" transform="translate(0.666748)" fill="#1F32D6"/>
<path opacity="0.01" fill-rule="evenodd" clip-rule="evenodd" d="M15.3334 18.6667L15.3334 5.33332L28.6667 5.33332V18.6667H15.3334Z" fill="white"/>
<path d="M28 12.5971C28 12.9212 27.7361 13.1864 27.4001 13.1982H26.2241C25.5761 13.1982 24.9821 12.7326 24.9281 12.0961C24.8921 11.7248 25.0361 11.3771 25.2881 11.1355C25.5101 10.9115 25.8161 10.7819 26.1521 10.7819H27.4001C27.7361 10.7936 28 11.0589 28 11.383V12.5971Z" fill="white"/>
<path fill-rule="evenodd" clip-rule="evenodd" d="M24.0279 12.1673C24.1239 13.2399 25.0839 14.0827 26.2239 14.0827H27.0819C27.2559 14.0827 27.3999 14.2241 27.3819 14.3951C27.2379 15.9686 26.0799 17 24.3999 17H18.16C16.9671 17 16 16.0329 16 14.84V9.16904C16 7.97897 16.9605 7.01314 18.1506 7.0099C20.7387 7.00284 24.7525 6.99452 24.8499 7.01047C26.2839 7.17549 27.2499 8.15381 27.3819 9.58594C27.3999 9.75685 27.2559 9.8983 27.0819 9.8983H26.1519C25.5759 9.8983 25.0419 10.1164 24.6579 10.5053C24.2019 10.9414 23.9739 11.5544 24.0279 12.1673ZM18.5 9.66664C18.2239 9.66664 18 9.8905 18 10.1666C18 10.4428 18.2239 10.6666 18.5 10.6666H20.8333C21.1095 10.6666 21.3333 10.4428 21.3333 10.1666C21.3333 9.8905 21.1095 9.66664 20.8333 9.66664H18.5Z" fill="white"/>
<path d="M16.4334 20.5333L17.0467 20.6667C16.9934 20.86 16.9401 21.0467 16.8867 21.2333H18.0601V21.84H16.6734C16.5734 22.08 16.4667 22.3133 16.3601 22.5333H17.8801V23.1067H17.3134V23.8333H18.1667V24.42H17.3134V25.6733C17.6201 25.54 17.9201 25.36 18.2267 25.14L18.3267 25.7067C17.8601 26.0467 17.3134 26.32 16.6934 26.5333L16.4267 25.9933C16.6001 25.9333 16.6934 25.8467 16.6934 25.7333V24.42H15.7801V23.8333H16.6934V23.1067H16.3067V22.6333C16.2267 22.7733 16.1534 22.9067 16.0734 23.04L15.5601 22.7133C15.9734 22.04 16.2601 21.3133 16.4334 20.5333ZM21.3001 21.66L21.3867 22.2467L19.8334 22.4933C19.8401 22.76 19.8534 23.0133 19.8734 23.2533L21.4667 22.9667L21.5667 23.5667L19.9401 23.86L19.9667 24.04C20.0201 24.3333 20.0801 24.6067 20.1534 24.8467C20.4334 24.5533 20.6867 24.2333 20.9134 23.8867L21.4001 24.2067C21.0801 24.6733 20.7467 25.0867 20.3867 25.4333C20.3934 25.4467 20.4001 25.4533 20.4067 25.4667C20.5867 25.7733 20.7534 25.9333 20.9001 25.9333C21.0267 25.9333 21.1401 25.62 21.2401 24.9933L21.7801 25.3467C21.5934 26.1867 21.3267 26.6067 20.9667 26.6067C20.6534 26.6 20.3534 26.3933 20.0601 25.9933C20.0201 25.9333 19.9801 25.8733 19.9467 25.8133C19.4267 26.22 18.8734 26.5133 18.2734 26.7L17.9134 26.2133C18.5801 26 19.1734 25.6867 19.6801 25.2733C19.5734 25 19.4801 24.6933 19.4001 24.3533C19.3734 24.22 19.3467 24.0933 19.3267 23.9667L18.3201 24.1467L18.2334 23.5467L19.2467 23.3667C19.2201 23.1133 19.2001 22.86 19.1934 22.5933L18.3667 22.72L18.2801 22.14L19.1801 21.9933V20.5333H19.8201V21.8933L21.3001 21.66ZM20.5267 20.5133C20.8201 20.8067 21.0467 21.0667 21.2001 21.2867L20.7067 21.6333C20.5467 21.38 20.3201 21.1067 20.0401 20.8133L20.5267 20.5133ZM26.2801 22.52V24.66H23.9067V25.7467C23.9067 25.92 24.0067 26.0067 24.2134 26.0067H27.2801C27.4201 25.9933 27.5134 25.94 27.5667 25.8333C27.6067 25.7467 27.6401 25.5067 27.6801 25.1133L28.2801 25.3067C28.2401 25.7067 28.1867 25.9933 28.1267 26.1667C28.0334 26.44 27.8134 26.5867 27.4801 26.6H23.9534C23.5001 26.6 23.2734 26.3933 23.2734 25.9933V22.72C23.1267 22.8933 22.9734 23.06 22.8201 23.2067L22.3801 22.6733C22.9667 22.14 23.4667 21.4067 23.8801 20.4733L24.5201 20.62C24.4334 20.82 24.3467 21.0067 24.2601 21.1933H27.9067C27.9067 22.94 27.8667 24.02 27.8001 24.4333C27.7334 24.8467 27.4601 25.06 26.9734 25.06C26.8934 25.06 26.7534 25.0467 26.5534 25.0333L26.4001 24.4667C26.5867 24.4867 26.7467 24.5 26.8801 24.5C27.0534 24.5 27.1601 24.38 27.1867 24.1533C27.2267 23.9133 27.2467 23.1333 27.2601 21.8H23.9267C23.7667 22.06 23.6067 22.3 23.4334 22.52H26.2801ZM23.9067 24.0867H25.6401V23.0933H23.9067V24.0867Z" fill="white"/>
</svg>
