<svg width="65" height="32" viewBox="0 0 65 32" fill="none" xmlns="http://www.w3.org/2000/svg">
<path d="M0.800024 4.8C0.800024 2.36995 2.76997 0.4 5.20002 0.4H32.8V31.6H5.20003C2.76997 31.6 0.800024 29.6301 0.800024 27.2V4.8Z" stroke="#EDEEF3" stroke-width="0.8"/>
<path d="M13.8546 10.4H11.9455C11.3129 10.4 10.8 10.9128 10.8 11.5454V13.4545C10.8 14.0872 11.3129 14.6 11.9455 14.6H13.8546C14.4872 14.6 15 14.0872 15 13.4545V11.5454C15 10.9128 14.4872 10.4 13.8546 10.4Z" stroke="#1F32D6" stroke-width="1.2"/>
<path d="M20.8546 10.4H18.9455C18.3129 10.4 17.8 10.9128 17.8 11.5454V13.4545C17.8 14.0872 18.3129 14.6 18.9455 14.6H20.8546C21.4872 14.6 22 14.0872 22 13.4545V11.5454C22 10.9128 21.4872 10.4 20.8546 10.4Z" stroke="#1F32D6" stroke-width="1.2"/>
<path d="M13.8546 17.4H11.9455C11.3129 17.4 10.8 17.9128 10.8 18.5454V20.4545C10.8 21.0872 11.3129 21.6 11.9455 21.6H13.8546C14.4872 21.6 15 21.0872 15 20.4545V18.5454C15 17.9128 14.4872 17.4 13.8546 17.4Z" stroke="#1F32D6" stroke-width="1.2"/>
<path d="M20.8546 17.4H18.9455C18.3129 17.4 17.8 17.9128 17.8 18.5454V20.4545C17.8 21.0872 18.3129 21.6 18.9455 21.6H20.8546C21.4872 21.6 22 21.0872 22 20.4545V18.5454C22 17.9128 21.4872 17.4 20.8546 17.4Z" stroke="#1F32D6" stroke-width="1.2"/>
<path d="M32.8 0.4H59.6C62.0301 0.4 64 2.36995 64 4.8V27.2C64 29.6301 62.0301 31.6 59.6 31.6H32.8V0.4Z" stroke="#EDEEF3" stroke-width="0.8"/>
<rect x="38.8" y="6.39999" width="19.2" height="19.2" fill="white" fill-opacity="0.01"/>
<path d="M43.8824 11.4826C43.8824 12.0024 43.461 12.4238 42.9412 12.4238C42.4214 12.4238 42 12.0024 42 11.4826C42 10.9628 42.4214 10.5414 42.9412 10.5414C43.461 10.5414 43.8824 10.9628 43.8824 11.4826Z" fill="#1C1C1C"/>
<path d="M46.1412 11.4826C46.1412 11.1707 46.394 10.9179 46.7059 10.9179H54.2353C54.5472 10.9179 54.8 11.1707 54.8 11.4826C54.8 11.7945 54.5472 12.0473 54.2353 12.0473H46.7059C46.394 12.0473 46.1412 11.7945 46.1412 11.4826Z" fill="#1C1C1C"/>
<path d="M43.8824 16.0002C43.8824 16.52 43.461 16.9414 42.9412 16.9414C42.4214 16.9414 42 16.52 42 16.0002C42 15.4804 42.4214 15.0591 42.9412 15.0591C43.461 15.0591 43.8824 15.4804 43.8824 16.0002Z" fill="#1C1C1C"/>
<path d="M46.1412 16.0002C46.1412 15.6884 46.394 15.4355 46.7059 15.4355H54.2353C54.5472 15.4355 54.8 15.6884 54.8 16.0002C54.8 16.3121 54.5472 16.5649 54.2353 16.5649H46.7059C46.394 16.5649 46.1412 16.3121 46.1412 16.0002Z" fill="#1C1C1C"/>
<path d="M43.8824 20.5179C43.8824 21.0377 43.461 21.4591 42.9412 21.4591C42.4214 21.4591 42 21.0377 42 20.5179C42 19.9981 42.4214 19.5767 42.9412 19.5767C43.461 19.5767 43.8824 19.9981 43.8824 20.5179Z" fill="#1C1C1C"/>
<path d="M46.7059 19.9532C46.394 19.9532 46.1412 20.206 46.1412 20.5179C46.1412 20.8298 46.394 21.0826 46.7059 21.0826H54.2353C54.5472 21.0826 54.8 20.8298 54.8 20.5179C54.8 20.206 54.5472 19.9532 54.2353 19.9532H46.7059Z" fill="#1C1C1C"/>
</svg>
