<svg width="75" height="32" viewBox="0 0 75 32" fill="none" xmlns="http://www.w3.org/2000/svg">
<rect x="0.4" y="0.4" width="73.4" height="31.2" rx="4.4" fill="white"/>
<rect x="0.4" y="0.4" width="73.4" height="31.2" rx="4.4" stroke="#1F32D6" stroke-width="0.8"/>
<path d="M28 10.4L23.408 14.992M22.96 12.7352V15.44H25.6648M21.84 10.4H20.72C17.92 10.4 16.8 11.52 16.8 14.32V17.68C16.8 20.48 17.92 21.6 20.72 21.6H24.08C26.88 21.6 28 20.48 28 17.68V16.56" stroke="#1F32D6" stroke-width="1.26" stroke-linecap="round" stroke-linejoin="round"/>
<path d="M35.948 16.8752H42.668V16.3712H43.844V16.8752H46.2408V18.0176H43.844V20.0896C43.844 20.8288 43.4408 21.1984 42.6344 21.1984H41.2344L40.9656 20.056C41.4136 20.1008 41.828 20.1344 42.2312 20.1344C42.5224 20.1344 42.668 20.0224 42.668 19.7984V18.0176H35.948V16.8752ZM44.628 11.152V14.0528H38.2328V14.5344C38.2328 14.8368 38.3896 14.9936 38.7256 14.9936H44.516C44.684 14.9824 44.796 14.9264 44.8632 14.8144C44.908 14.736 44.9528 14.4784 45.0088 14.0416L46.1176 14.4112C46.0392 14.9264 45.9608 15.2848 45.8824 15.5088C45.748 15.8672 45.412 16.0464 44.8968 16.0688H38.2552C37.4488 16.0688 37.0568 15.7104 37.0568 15.0048V11.152H44.628ZM38.2328 13H43.452V12.2048H38.2328V13ZM38.8264 18.0736C39.5432 18.6336 40.1592 19.1936 40.652 19.7536L39.7784 20.6272C39.3528 20.0896 38.7592 19.5072 37.9864 18.88L38.8264 18.0736ZM51.6392 13.5152C51.1352 12.608 50.5416 11.9136 49.8472 11.4208L50.8216 10.7936C51.74 11.4432 52.5688 12.7088 53.308 14.5792C54.372 17.1776 55.7384 19.0144 57.4184 20.0896L56.6904 21.0192C54.9544 19.9888 53.4872 17.9616 52.2888 14.96L52.2552 14.8592C51.4936 17.5136 50.004 19.5744 47.764 21.0304L47.0472 20.0224C49.3656 18.4992 50.9 16.3376 51.6392 13.5152Z" fill="#1F32D6"/>
</svg>
