<svg width="75" height="32" viewBox="0 0 75 32" fill="none" xmlns="http://www.w3.org/2000/svg">
<rect width="74.2" height="32" rx="4.8" fill="#1F32D6"/>
<path d="M20.2666 16H24.5333" stroke="white" stroke-width="1.2" stroke-linecap="round" stroke-linejoin="round"/>
<path d="M22.3999 18.1333V13.8667" stroke="white" stroke-width="1.2" stroke-linecap="round" stroke-linejoin="round"/>
<path d="M20.8 21.3333H24C26.6666 21.3333 27.7333 20.2667 27.7333 17.6V14.4C27.7333 11.7333 26.6666 10.6667 24 10.6667H20.8C18.1333 10.6667 17.0667 11.7333 17.0667 14.4V17.6C17.0667 20.2667 18.1333 21.3333 20.8 21.3333Z" stroke="white" stroke-width="1.2" stroke-linecap="round" stroke-linejoin="round"/>
<path d="M44.5496 10.704H45.8824V19.44C45.8824 20.2016 45.7256 20.5376 45.2552 20.7504C44.7848 20.952 44.0568 20.9856 43.004 20.9856C42.948 20.6272 42.7352 20.0448 42.556 19.6976C43.2616 19.7312 44.012 19.72 44.2472 19.72C44.46 19.7088 44.5496 19.6416 44.5496 19.4288V10.704ZM42.3992 11.768H43.6872V18.1408H42.3992V11.768ZM37.572 14.5568H40.6184V15.7216H37.572V14.5568ZM36.9896 14.5568H38.3V19.1488C38.3 19.6192 38.3784 19.6864 38.8936 19.6864C39.1288 19.6864 40.1256 19.6864 40.4056 19.6864C40.876 19.6864 40.9544 19.4624 41.0216 18.264C41.3016 18.4768 41.828 18.6784 42.1752 18.7568C42.0296 20.3472 41.6712 20.8176 40.5176 20.8176C40.2152 20.8176 39.0056 20.8176 38.7256 20.8176C37.404 20.8176 36.9896 20.4704 36.9896 19.16V14.5568ZM40.1144 14.5568H41.4024C41.4024 14.5568 41.3912 14.8704 41.38 15.016C41.3016 16.8864 41.1896 17.6928 40.9208 18.0064C40.708 18.264 40.4728 18.3536 40.1704 18.3984C39.9016 18.432 39.4536 18.4432 38.972 18.4208C38.9496 18.0736 38.8152 17.6032 38.636 17.2896C39.0056 17.3344 39.3416 17.3456 39.5096 17.3456C39.6552 17.3456 39.7448 17.3232 39.8344 17.2224C39.9688 17.0544 40.0584 16.416 40.1144 14.736V14.5568ZM38.7032 11.8576L39.588 11.0736C40.484 12.0256 41.7048 13.3248 42.2424 14.1648L41.268 15.0944C40.7528 14.232 39.5992 12.8544 38.7032 11.8576ZM38.8264 10.4688L40.0472 10.8496C39.2968 12.6304 38.1096 14.2208 36.6424 15.3184C36.4408 15.0384 35.9704 14.5456 35.6792 14.3328C37.0456 13.4144 38.2328 11.9024 38.8264 10.4688ZM50.1944 12.6752H57.5192V13.7056H50.1944V12.6752ZM50.844 15.688H56.7688V16.6512H50.844V15.688ZM50.3512 17.1664H57.2728V18.2304H50.3512V17.1664ZM53.028 10.5808H54.3384V19.1376H53.028V10.5808ZM50.9672 11.208H56.6792V15.1952H50.9112V14.176H55.3576V12.2272H50.9672V11.208ZM47.0584 11.1072H49.4216V12.2832H47.0584V11.1072ZM48.9624 11.1072H49.1304L49.332 11.0624L50.2392 11.3088C49.7352 12.6304 48.9512 14.3776 48.3016 15.7776L47.0808 15.464C47.764 14.0864 48.5704 12.2384 48.9624 11.2528V11.1072ZM48.2008 14.2768H49.836V15.4528H48.156L48.2008 14.2768ZM49.2984 14.2768H49.556L49.78 14.2544L50.564 14.4224C50.284 17.8048 49.4216 19.9552 47.9656 21.0528C47.764 20.7952 47.2488 20.3136 46.9576 20.1456C48.3464 19.1824 49.0856 17.368 49.2984 14.5232V14.2768ZM48.268 16.0912C49.1752 18.992 51.2248 19.4512 53.868 19.4624C54.5512 19.4624 56.836 19.4624 57.6536 19.4288C57.452 19.7312 57.2168 20.3472 57.1384 20.7392H53.8344C50.5864 20.7392 48.38 20.0784 47.2152 16.4608L48.268 16.0912Z" fill="white"/>
</svg>
