<svg width="32" height="32" viewBox="0 0 32 32" fill="none" xmlns="http://www.w3.org/2000/svg">
<path d="M17.6667 16C18.5871 16 19.3333 15.2538 19.3333 14.3333C19.3333 13.4128 18.5871 12.6667 17.6667 12.6667C16.7462 12.6667 16 13.4128 16 14.3333C16 15.2538 16.7462 16 17.6667 16Z" fill="#067647"/>
<path d="M21.5866 2.66666H10.4133C5.55996 2.66666 2.66663 5.55999 2.66663 10.4133V21.5733C2.66663 26.44 5.55996 29.3333 10.4133 29.3333H21.5733C26.4266 29.3333 29.32 26.44 29.32 21.5867V10.4133C29.3333 5.55999 26.44 2.66666 21.5866 2.66666ZM21.1866 17.96C19.8133 19.32 17.8533 19.7467 16.12 19.2L14.7066 20.6C14.5866 20.72 14.3733 20.72 14.24 20.6L12.9466 19.3067C12.76 19.12 12.44 19.12 12.24 19.3067C12.04 19.4933 12.0533 19.8133 12.24 20.0133L13.5333 21.3067C13.6666 21.44 13.6666 21.6533 13.5333 21.7733L12.9866 22.32C12.76 22.56 12.32 22.7067 12 22.6667L10.5466 22.4667C10.0666 22.4 9.62663 21.9467 9.54663 21.4667L9.34663 20.0133C9.29329 19.6933 9.45329 19.2533 9.66663 19.0267L12.8 15.8933C12.2666 14.16 12.68 12.2 14.0533 10.8267C16.0133 8.86666 19.2133 8.86666 21.1866 10.8267C23.16 12.7867 23.16 15.9867 21.1866 17.96Z" fill="#067647"/>
</svg>
