<svg width="123" height="32" viewBox="0 0 123 32" fill="none" xmlns="http://www.w3.org/2000/svg">
<rect x="0.800049" width="122" height="32" rx="4.8" fill="#1F32D6"/>
<path d="M21.5808 15.3744H19.632V19.4848C19.632 19.776 19.7776 19.9216 20.0912 19.9216H21.9504C22.2752 19.9216 22.4768 19.832 22.544 19.664C22.6224 19.4848 22.6896 19.1264 22.7344 18.5664L23.832 18.9472C23.7425 19.9328 23.5968 20.5264 23.4064 20.728C23.216 20.9072 22.8464 20.9968 22.3088 20.9968H19.5648C18.8256 20.9968 18.456 20.6384 18.456 19.9216V14.7472L17.9968 15.2064L17.3136 14.2656C18.3664 13.3024 19.3296 12.1712 20.2144 10.8496H21.0656C22.0624 11.88 22.992 12.9552 23.8656 14.0528L23.104 14.848C22.152 13.5712 21.368 12.5968 20.7408 11.9472C20.1808 12.776 19.5536 13.5824 18.8368 14.344H22.7232V17.4688C22.7121 18.096 22.3648 18.432 21.6816 18.4768C21.2336 18.4768 20.8192 18.4544 20.4384 18.432L20.1472 17.3456C20.5616 17.3904 20.92 17.4128 21.2112 17.4128C21.4576 17.4128 21.5808 17.2896 21.5808 17.0656V15.3744ZM24.3137 11.7904H25.4561V18.6784H24.3137V11.7904ZM26.2624 21.064H24.5936L24.3248 19.9552C24.8624 20 25.3776 20.0224 25.8592 20.0224C26.1281 20.0224 26.2624 19.8544 26.2624 19.5408V10.8384H27.4273V19.832C27.4273 20.6496 27.0352 21.064 26.2624 21.064ZM38.1344 15.5648H35.7712V16.1696H38.2576V17.1216H35.7712V17.7264H38.5824V18.7008H35.7712V19.5184H34.6288V18.7008H32.2208V17.7264H34.6288V17.1216H32.568V16.1696H34.6288V15.5648H32.8032V14.6016H34.6288V13.9856H32.2544V13.0448H34.6288V12.4624H32.8032V11.4992H34.6288V10.7824H35.7712V11.4992H38.1344V13.0448H38.7728V13.9856H38.1344V15.5648ZM35.7712 12.4624V13.0448H37.0144V12.4624H35.7712ZM35.7712 13.9856V14.6016H37.0144V13.9856H35.7712ZM34.9312 19.8768C36.208 19.8768 37.5296 19.8544 38.896 19.8096L38.6944 20.9184H35.4352C33.352 20.9184 31.8736 20.616 30.9888 20.0336L30.7648 19.8544C30.4288 20.3248 30.0256 20.7392 29.5552 21.0976L28.7824 20.1008C29.2528 19.776 29.656 19.3952 29.9696 18.9472C29.5664 18.3424 29.2304 17.5808 28.9616 16.6624L29.9472 16.2928C30.1264 16.92 30.328 17.4576 30.552 17.8944C30.8208 17.2448 30.9888 16.4944 31.056 15.6544H29.0624V14.7696C29.6448 14.008 30.1824 13.2128 30.6752 12.3616H29.0624V11.264H31.9744V12.216C31.4928 13.1232 31.0224 13.9184 30.552 14.6016H32.12V15.296C32.0752 16.7184 31.7952 17.9392 31.3024 18.9472C31.4256 19.0704 31.56 19.1712 31.6944 19.2496C32.4112 19.6528 33.4864 19.8544 34.9312 19.8768ZM40.0048 12.0144H44.384C44.2048 11.6336 44.0032 11.2752 43.7792 10.9392L45.0896 10.7152C45.2912 11.1072 45.4928 11.544 45.6832 12.0144H50.0064V13.1232H40.0048V12.0144ZM46.8816 13.1904C48.1136 14.1424 49.1664 15.0944 50.0176 16.0464L49.1552 16.92C48.4384 16.0016 47.408 15.016 46.0864 13.952L46.8816 13.1904ZM46.7136 15.3072L47.7888 15.7888C47.2848 16.752 46.6688 17.592 45.952 18.3088C47.0944 19.0816 48.5056 19.6752 50.1632 20.0896L49.4352 21.1872C47.7104 20.7056 46.2432 20.0112 45.0448 19.1152C43.8128 20.0784 42.3456 20.7728 40.6208 21.2208L39.8928 20.1456C41.5504 19.7424 42.9504 19.1264 44.0928 18.32C43.3536 17.6256 42.7264 16.8304 42.2336 15.9456L43.2416 15.3744C43.6896 16.2032 44.272 16.9312 45 17.5696C45.6944 16.9088 46.2656 16.1584 46.7136 15.3072ZM43.04 13.2016L43.8912 13.9408C43.04 15.0608 41.976 16.024 40.7216 16.8528L39.9712 15.8672C41.1808 15.1056 42.2112 14.2208 43.04 13.2016ZM54.0048 15.3632H52.6832V11.1408H59.7728V15.3632H55.3712C55.2144 15.5872 55.0464 15.8112 54.8672 16.0128H60.624C60.5904 17.2448 60.5232 18.2416 60.4224 19.0032C60.3104 19.7536 60.1312 20.28 59.896 20.5824C59.6608 20.8736 59.28 21.0304 58.7424 21.0528H57.1408L56.8496 19.9552C57.3088 19.9888 57.7568 20.0112 58.1824 20.0112C58.664 20.0112 58.9776 19.8208 59.1344 19.4624C59.2912 19.0816 59.392 18.2752 59.4368 17.0432H58.6416C57.6784 19.104 56.1552 20.4816 54.0944 21.1536L53.4336 20.168C55.248 19.608 56.5808 18.5664 57.432 17.0432H56.3456C55.5616 18.2304 54.3184 19.1712 52.616 19.8544L51.8768 18.9472C53.3104 18.4432 54.3744 17.8048 55.0688 17.0432H53.7248C53.1872 17.424 52.5936 17.7712 51.9328 18.0848L51.2944 17.0544C52.4928 16.6064 53.4 16.0352 54.0048 15.3632ZM58.6192 14.3776V13.7056H53.8368V14.3776H58.6192ZM53.8368 12.7872H58.6192V12.1264H53.8368V12.7872ZM65.7648 13.3136C66.3248 14.0192 66.8512 14.6912 67.3328 15.3408C67.7136 14.6016 68.0272 13.8176 68.2624 12.9888L69.416 13.1904C69.0912 14.3776 68.6544 15.4528 68.1168 16.416C68.7664 17.3344 69.3152 18.1744 69.7632 18.9472L68.6992 19.6864C68.3184 18.992 67.8816 18.2864 67.4 17.5472C66.7392 18.4432 65.9664 19.216 65.0928 19.8768L64.3088 18.8688C65.2384 18.1744 66.0224 17.368 66.6608 16.4496C66.1008 15.6208 65.4848 14.7808 64.8128 13.9072L65.7648 13.3136ZM63.424 11.152H70.9504V15.7776C70.9504 17.4352 70.9952 18.5104 71.096 18.9808C71.1744 19.44 71.2752 19.6752 71.3872 19.6752C71.4656 19.6752 71.5328 19.2496 71.6 18.4208L72.6416 18.9248C72.496 19.7984 72.3392 20.3696 72.16 20.6496C71.9584 20.9296 71.7456 21.0752 71.5104 21.0752C70.9056 21.0752 70.4688 20.7168 70.1888 20C69.8976 19.3056 69.752 17.9056 69.752 15.7776V12.2944H64.6V15.632C64.5776 17.8384 64.1184 19.6864 63.2336 21.1872L62.248 20.3808C62.9984 19.1264 63.3904 17.536 63.424 15.632V11.152ZM79.7648 17.6928H77.3344V16.6064H83.3376V17.6928H80.9409V19.7312H83.752V20.8624H76.8864V19.7312H79.7648V17.6928ZM74.8368 21.064H73.8512L73.5936 19.9328C73.8848 19.9776 74.1648 20 74.4336 20C74.68 20 74.8032 19.8656 74.8032 19.6192V17.3568C74.4112 17.5024 74.0192 17.6368 73.6272 17.76L73.336 16.5728C73.8288 16.4608 74.3216 16.3264 74.8032 16.1584V13.952H73.56V12.8208H74.8032V10.816H75.9904V12.8208H76.7968V13.952H75.9904V15.688C76.2704 15.5536 76.5504 15.408 76.8304 15.2624V16.4496C76.5392 16.584 76.2592 16.7184 75.9904 16.8528V19.9216C75.9904 20.6832 75.5984 21.064 74.8368 21.064ZM80.4592 10.6704C80.616 11.0512 80.7841 11.4656 80.9409 11.9248H83.5169V14.2432H82.4305V12.9664H78.2528V14.2432H77.1552V11.9248H79.7648C79.6192 11.544 79.4512 11.1968 79.2608 10.872L80.4592 10.6704ZM79.0257 13.4592L80.0448 13.8624C79.5632 14.96 78.9248 15.8 78.1296 16.3824L77.2896 15.6432C78.0736 15.0832 78.6448 14.3552 79.0257 13.4592ZM81.5344 13.4368C82.2064 14.1424 82.7888 14.9264 83.2928 15.7776L82.2624 16.304C81.7472 15.3856 81.1872 14.5792 80.5713 13.8624L81.5344 13.4368ZM84.9392 12.2608H86.44V10.8608H87.6048V12.2608H88.9488V13.3808H87.6048V14.8816H89.1056V16.0016H87.5488L87.4816 16.64C88.0864 17.1776 88.6912 17.7824 89.296 18.4544L88.6464 19.4512C88.1088 18.7232 87.6608 18.152 87.3024 17.7376C86.9664 19.216 86.384 20.3696 85.5552 21.2096L84.6816 20.4368C85.656 19.4512 86.2272 17.9728 86.384 16.0016H84.7936V14.8816H86.44V13.3808H84.9392V12.2608ZM94.2688 11.1744V17.4912H93.1376V12.2496H90.5056V17.4912H89.3744V11.1744H94.2688ZM93.8208 20.9968H92.8128C92.152 20.9968 91.8272 20.6384 91.8272 19.944V18.152C91.704 18.4768 91.5696 18.7792 91.4128 19.048C90.8528 19.9776 89.9344 20.6944 88.68 21.1984L88.0752 20.224C89.3072 19.7088 90.1472 19.0592 90.5728 18.2864C90.9984 17.4576 91.2448 16.3712 91.2896 15.0496V12.9552H92.3536V15.0496C92.3312 15.968 92.2192 16.7744 92.04 17.48H92.8912V19.7088C92.8912 19.8768 92.9696 19.9664 93.1488 19.9664H93.6304C93.7424 19.9664 93.8208 19.9104 93.8768 19.7984C93.944 19.664 93.9888 19.2944 94.0112 18.6672L95.0192 18.992C94.9408 19.9664 94.8064 20.5488 94.6272 20.7392C94.448 20.9072 94.1792 20.9968 93.8208 20.9968ZM101.459 11.152V18.2528H100.317V12.272H97.4945V18.3536H96.3633V11.152H101.459ZM100.026 18.488C100.731 19.0816 101.336 19.664 101.829 20.2464L100.944 21.1312C100.53 20.56 99.9473 19.944 99.1969 19.2944L100.026 18.488ZM98.3569 12.9104H99.4881V16.3936C99.4433 17.7152 99.1745 18.7792 98.6929 19.5632C98.2113 20.2912 97.4385 20.8624 96.3857 21.2656L95.7249 20.2128C96.7329 19.832 97.4161 19.3504 97.7745 18.7904C98.1217 18.1632 98.3121 17.368 98.3569 16.3936V12.9104ZM102.422 11.7792H103.554V18.6672H102.422V11.7792ZM104.606 21.0528H103.061L102.792 19.9216C103.285 19.9664 103.755 19.9888 104.192 19.9888C104.506 19.9888 104.662 19.832 104.662 19.5296V10.8384H105.827V19.832C105.827 20.6384 105.413 21.0528 104.606 21.0528Z" fill="white"/>
</svg>
