<svg width="52" height="32" viewBox="0 0 52 32" fill="none" xmlns="http://www.w3.org/2000/svg">
<rect x="0.4" y="0.4" width="50.4" height="31.2" rx="4.4" stroke="#EDEEF3" stroke-width="0.8"/>
<path d="M15.4316 20L13.6396 16.8864H12.6652V20H11.3884V12.216H14.0764C14.6737 12.216 15.1777 12.3205 15.5884 12.5296C16.0065 12.7387 16.3164 13.0187 16.518 13.3696C16.7271 13.7205 16.8316 14.1125 16.8316 14.5456C16.8316 15.0533 16.6823 15.5163 16.3836 15.9344C16.0924 16.3451 15.6407 16.6251 15.0284 16.7744L16.9548 20H15.4316ZM12.6652 15.8672H14.0764C14.5543 15.8672 14.9127 15.7477 15.1516 15.5088C15.398 15.2699 15.5212 14.9488 15.5212 14.5456C15.5212 14.1424 15.4017 13.8288 15.1628 13.6048C14.9239 13.3733 14.5617 13.2576 14.0764 13.2576H12.6652V15.8672ZM24.121 16.7632C24.121 16.9947 24.106 17.2037 24.0762 17.3904H19.361C19.3983 17.8832 19.5812 18.2789 19.9098 18.5776C20.2383 18.8763 20.6415 19.0256 21.1194 19.0256C21.8063 19.0256 22.2916 18.7381 22.5754 18.1632H23.953C23.7663 18.7307 23.4266 19.1973 22.9338 19.5632C22.4484 19.9216 21.8436 20.1008 21.1194 20.1008C20.5295 20.1008 19.9994 19.9701 19.529 19.7088C19.066 19.44 18.7002 19.0667 18.4314 18.5888C18.17 18.1035 18.0394 17.5435 18.0394 16.9088C18.0394 16.2741 18.1663 15.7179 18.4202 15.24C18.6815 14.7547 19.0436 14.3813 19.5066 14.12C19.977 13.8587 20.5146 13.728 21.1194 13.728C21.7018 13.728 22.2207 13.8549 22.6762 14.1088C23.1316 14.3627 23.4863 14.7211 23.7402 15.184C23.994 15.6395 24.121 16.1659 24.121 16.7632ZM22.7882 16.36C22.7807 15.8896 22.6127 15.5125 22.2842 15.2288C21.9556 14.9451 21.5487 14.8032 21.0634 14.8032C20.6228 14.8032 20.2458 14.9451 19.9322 15.2288C19.6186 15.5051 19.4319 15.8821 19.3722 16.36H22.7882ZM27.6175 20.1008C27.1321 20.1008 26.6953 20.0149 26.3071 19.8432C25.9263 19.664 25.6239 19.4251 25.3999 19.1264C25.1759 18.8203 25.0564 18.4805 25.0415 18.1072H26.3631C26.3855 18.3685 26.5087 18.5888 26.7327 18.768C26.9641 18.9397 27.2516 19.0256 27.5951 19.0256C27.9535 19.0256 28.2297 18.9584 28.4239 18.824C28.6255 18.6821 28.7263 18.5029 28.7263 18.2864C28.7263 18.0549 28.6143 17.8832 28.3903 17.7712C28.1737 17.6592 27.8265 17.536 27.3487 17.4016C26.8857 17.2747 26.5087 17.1515 26.2175 17.032C25.9263 16.9125 25.6724 16.7296 25.4559 16.4832C25.2468 16.2368 25.1423 15.912 25.1423 15.5088C25.1423 15.1803 25.2393 14.8816 25.4335 14.6128C25.6276 14.3365 25.9039 14.12 26.2623 13.9632C26.6281 13.8064 27.0463 13.728 27.5167 13.728C28.2185 13.728 28.7823 13.9072 29.2079 14.2656C29.6409 14.6165 29.8724 15.0981 29.9023 15.7104H28.6255C28.6031 15.4341 28.4911 15.2139 28.2895 15.0496C28.0879 14.8853 27.8153 14.8032 27.4719 14.8032C27.1359 14.8032 26.8783 14.8667 26.6991 14.9936C26.5199 15.1205 26.4303 15.2885 26.4303 15.4976C26.4303 15.6619 26.49 15.8 26.6095 15.912C26.7289 16.024 26.8745 16.1136 27.0463 16.1808C27.218 16.2405 27.4719 16.3189 27.8079 16.416C28.2559 16.5355 28.6217 16.6587 28.9055 16.7856C29.1967 16.9051 29.4468 17.0843 29.6559 17.3232C29.8649 17.5621 29.9732 17.8795 29.9807 18.2752C29.9807 18.6261 29.8836 18.9397 29.6895 19.216C29.4953 19.4923 29.2191 19.7088 28.8607 19.8656C28.5097 20.0224 28.0953 20.1008 27.6175 20.1008ZM37.0163 16.7632C37.0163 16.9947 37.0014 17.2037 36.9715 17.3904H32.2563C32.2936 17.8832 32.4766 18.2789 32.8051 18.5776C33.1336 18.8763 33.5368 19.0256 34.0147 19.0256C34.7016 19.0256 35.187 18.7381 35.4707 18.1632H36.8483C36.6616 18.7307 36.3219 19.1973 35.8291 19.5632C35.3438 19.9216 34.739 20.1008 34.0147 20.1008C33.4248 20.1008 32.8947 19.9701 32.4243 19.7088C31.9614 19.44 31.5955 19.0667 31.3267 18.5888C31.0654 18.1035 30.9347 17.5435 30.9347 16.9088C30.9347 16.2741 31.0616 15.7179 31.3155 15.24C31.5768 14.7547 31.939 14.3813 32.4019 14.12C32.8723 13.8587 33.4099 13.728 34.0147 13.728C34.5971 13.728 35.116 13.8549 35.5715 14.1088C36.027 14.3627 36.3816 14.7211 36.6355 15.184C36.8894 15.6395 37.0163 16.1659 37.0163 16.7632ZM35.6835 16.36C35.676 15.8896 35.508 15.5125 35.1795 15.2288C34.851 14.9451 34.444 14.8032 33.9587 14.8032C33.5182 14.8032 33.1411 14.9451 32.8275 15.2288C32.5139 15.5051 32.3272 15.8821 32.2675 16.36H35.6835ZM39.7624 14.8704V18.2864C39.7624 18.5179 39.8147 18.6859 39.9192 18.7904C40.0312 18.8875 40.2179 18.936 40.4792 18.936H41.2632V20H40.2552C39.6803 20 39.2397 19.8656 38.9336 19.5968C38.6275 19.328 38.4744 18.8912 38.4744 18.2864V14.8704H37.7464V13.8288H38.4744V12.2944H39.7624V13.8288H41.2632V14.8704H39.7624Z" fill="#1C1C1C"/>
</svg>
