<svg width="32" height="32" viewBox="0 0 32 32" fill="none" xmlns="http://www.w3.org/2000/svg">
<path d="M0.5 16C0.5 7.43959 7.43959 0.5 16 0.5C24.5604 0.5 31.5 7.43959 31.5 16C31.5 24.5604 24.5604 31.5 16 31.5C7.43959 31.5 0.5 24.5604 0.5 16Z" stroke="#EDEEF3"/>
<path d="M12.5 17.25L17.5 19.75M17.5 12.25L12.5 14.75M20 23.5C18.6193 23.5 17.5 22.3807 17.5 21C17.5 19.6193 18.6193 18.5 20 18.5C21.3807 18.5 22.5 19.6193 22.5 21C22.5 22.3807 21.3807 23.5 20 23.5ZM10 18.5C8.61929 18.5 7.5 17.3807 7.5 16C7.5 14.6193 8.61929 13.5 10 13.5C11.3807 13.5 12.5 14.6193 12.5 16C12.5 17.3807 11.3807 18.5 10 18.5ZM20 13.5C18.6193 13.5 17.5 12.3807 17.5 11C17.5 9.61929 18.6193 8.5 20 8.5C21.3807 8.5 22.5 9.61929 22.5 11C22.5 12.3807 21.3807 13.5 20 13.5Z" stroke="#1C1C1C" stroke-width="1.5" stroke-linecap="round" stroke-linejoin="round"/>
</svg>
