<svg width="109" height="32" viewBox="0 0 109 32" fill="none" xmlns="http://www.w3.org/2000/svg">
<path fill-rule="evenodd" clip-rule="evenodd" d="M0.400024 4.8C0.400024 2.14903 2.54906 0 5.20002 0L103.6 0C106.251 0 108.4 2.14903 108.4 4.8V27.2C108.4 29.851 106.251 32 103.6 32H5.20003C2.54906 32 0.400024 29.851 0.400024 27.2V4.8Z" fill="#1F32D6"/>
<path d="M17.5311 16.08C17.5311 15.3109 17.7028 14.624 18.0463 14.0192C18.3972 13.4069 18.8714 12.9328 19.4687 12.5968C20.0735 12.2533 20.7492 12.0816 21.4959 12.0816C22.3695 12.0816 23.1348 12.3056 23.7919 12.7536C24.449 13.2016 24.9082 13.8213 25.1695 14.6128H23.3663C23.1871 14.2395 22.9332 13.9595 22.6047 13.7728C22.2836 13.5861 21.9103 13.4928 21.4847 13.4928C21.0292 13.4928 20.6223 13.6011 20.2639 13.8176C19.913 14.0267 19.6367 14.3253 19.4351 14.7136C19.241 15.1019 19.1439 15.5573 19.1439 16.08C19.1439 16.5952 19.241 17.0507 19.4351 17.4464C19.6367 17.8347 19.913 18.1371 20.2639 18.3536C20.6223 18.5627 21.0292 18.6672 21.4847 18.6672C21.9103 18.6672 22.2836 18.5739 22.6047 18.3872C22.9332 18.1931 23.1871 17.9093 23.3663 17.536H25.1695C24.9082 18.3349 24.449 18.9584 23.7919 19.4064C23.1423 19.8469 22.377 20.0672 21.4959 20.0672C20.7492 20.0672 20.0735 19.8992 19.4687 19.5632C18.8714 19.2197 18.3972 18.7456 18.0463 18.1408C17.7028 17.536 17.5311 16.8491 17.5311 16.08ZM28.0768 14.7584C28.2784 14.4299 28.5397 14.1723 28.8608 13.9856C29.1893 13.7989 29.5626 13.7056 29.9808 13.7056V15.352H29.5664C29.0736 15.352 28.7002 15.4677 28.4464 15.6992C28.2 15.9307 28.0768 16.3339 28.0768 16.9088V20H26.5088V13.7952H28.0768V14.7584ZM36.8049 16.7632C36.8049 16.9872 36.79 17.1888 36.7601 17.368H32.2241C32.2614 17.816 32.4182 18.1669 32.6945 18.4208C32.9708 18.6747 33.3105 18.8016 33.7137 18.8016C34.2961 18.8016 34.7105 18.5515 34.9569 18.0512H36.6481C36.4689 18.6485 36.1254 19.1413 35.6177 19.5296C35.11 19.9104 34.4865 20.1008 33.7473 20.1008C33.15 20.1008 32.6124 19.9701 32.1345 19.7088C31.6641 19.44 31.2945 19.0629 31.0257 18.5776C30.7644 18.0923 30.6337 17.5323 30.6337 16.8976C30.6337 16.2555 30.7644 15.6917 31.0257 15.2064C31.287 14.7211 31.6529 14.3477 32.1233 14.0864C32.5937 13.8251 33.135 13.6944 33.7473 13.6944C34.3372 13.6944 34.8636 13.8213 35.3265 14.0752C35.7969 14.3291 36.159 14.6912 36.4129 15.1616C36.6742 15.6245 36.8049 16.1584 36.8049 16.7632ZM35.1809 16.3152C35.1734 15.912 35.0278 15.5909 34.7441 15.352C34.4604 15.1056 34.1132 14.9824 33.7025 14.9824C33.3142 14.9824 32.9857 15.1019 32.7169 15.3408C32.4556 15.5723 32.295 15.8971 32.2353 16.3152H35.1809ZM37.5462 16.8752C37.5462 16.248 37.6694 15.6917 37.9158 15.2064C38.1697 14.7211 38.5094 14.3477 38.935 14.0864C39.3681 13.8251 39.8497 13.6944 40.3798 13.6944C40.8427 13.6944 41.2459 13.7877 41.5894 13.9744C41.9403 14.1611 42.2203 14.3963 42.4294 14.68V13.7952H44.0086V20H42.4294V19.0928C42.2278 19.384 41.9478 19.6267 41.5894 19.8208C41.2385 20.0075 40.8315 20.1008 40.3686 20.1008C39.8459 20.1008 39.3681 19.9664 38.935 19.6976C38.5094 19.4288 38.1697 19.0517 37.9158 18.5664C37.6694 18.0736 37.5462 17.5099 37.5462 16.8752ZM42.4294 16.8976C42.4294 16.5168 42.3547 16.192 42.2054 15.9232C42.0561 15.6469 41.8545 15.4379 41.6006 15.296C41.3467 15.1467 41.0742 15.072 40.783 15.072C40.4918 15.072 40.223 15.1429 39.9766 15.2848C39.7302 15.4267 39.5286 15.6357 39.3718 15.912C39.2225 16.1808 39.1478 16.5019 39.1478 16.8752C39.1478 17.2485 39.2225 17.5771 39.3718 17.8608C39.5286 18.1371 39.7302 18.3499 39.9766 18.4992C40.2305 18.6485 40.4993 18.7232 40.783 18.7232C41.0742 18.7232 41.3467 18.6523 41.6006 18.5104C41.8545 18.3611 42.0561 18.152 42.2054 17.8832C42.3547 17.6069 42.4294 17.2784 42.4294 16.8976ZM47.3656 15.0832V18.0848C47.3656 18.2939 47.4141 18.4469 47.5112 18.544C47.6157 18.6336 47.7875 18.6784 48.0264 18.6784H48.7544V20H47.7688C46.4472 20 45.7864 19.3579 45.7864 18.0736V15.0832H45.0472V13.7952H45.7864V12.2608H47.3656V13.7952H48.7544V15.0832H47.3656ZM55.6502 16.7632C55.6502 16.9872 55.6353 17.1888 55.6054 17.368H51.0694C51.1067 17.816 51.2635 18.1669 51.5398 18.4208C51.8161 18.6747 52.1558 18.8016 52.559 18.8016C53.1414 18.8016 53.5558 18.5515 53.8022 18.0512H55.4934C55.3142 18.6485 54.9707 19.1413 54.463 19.5296C53.9553 19.9104 53.3318 20.1008 52.5926 20.1008C51.9953 20.1008 51.4577 19.9701 50.9798 19.7088C50.5094 19.44 50.1398 19.0629 49.871 18.5776C49.6097 18.0923 49.479 17.5323 49.479 16.8976C49.479 16.2555 49.6097 15.6917 49.871 15.2064C50.1323 14.7211 50.4982 14.3477 50.9686 14.0864C51.439 13.8251 51.9803 13.6944 52.5926 13.6944C53.1825 13.6944 53.7089 13.8213 54.1718 14.0752C54.6422 14.3291 55.0043 14.6912 55.2582 15.1616C55.5195 15.6245 55.6502 16.1584 55.6502 16.7632ZM54.0262 16.3152C54.0187 15.912 53.8731 15.5909 53.5894 15.352C53.3057 15.1056 52.9585 14.9824 52.5478 14.9824C52.1595 14.9824 51.831 15.1019 51.5622 15.3408C51.3009 15.5723 51.1403 15.8971 51.0806 16.3152H54.0262ZM65.1642 14.6016C65.1642 15.0197 65.0634 15.4117 64.8618 15.7776C64.6677 16.1435 64.3578 16.4384 63.9322 16.6624C63.5141 16.8864 62.984 16.9984 62.3418 16.9984H61.0314V20H59.4634V12.1824H62.3418C62.9466 12.1824 63.4618 12.2869 63.8874 12.496C64.313 12.7051 64.6304 12.9925 64.8394 13.3584C65.056 13.7243 65.1642 14.1387 65.1642 14.6016ZM62.2746 15.7328C62.7077 15.7328 63.0288 15.6357 63.2378 15.4416C63.4469 15.24 63.5514 14.96 63.5514 14.6016C63.5514 13.84 63.1258 13.4592 62.2746 13.4592H61.0314V15.7328H62.2746ZM69.0327 20.1008C68.4354 20.1008 67.8978 19.9701 67.4199 19.7088C66.942 19.44 66.565 19.0629 66.2887 18.5776C66.0199 18.0923 65.8855 17.5323 65.8855 16.8976C65.8855 16.2629 66.0236 15.7029 66.2999 15.2176C66.5836 14.7323 66.9682 14.3589 67.4535 14.0976C67.9388 13.8288 68.4802 13.6944 69.0775 13.6944C69.6748 13.6944 70.2162 13.8288 70.7015 14.0976C71.1868 14.3589 71.5676 14.7323 71.8439 15.2176C72.1276 15.7029 72.2695 16.2629 72.2695 16.8976C72.2695 17.5323 72.1239 18.0923 71.8327 18.5776C71.549 19.0629 71.1607 19.44 70.6679 19.7088C70.1826 19.9701 69.6375 20.1008 69.0327 20.1008ZM69.0327 18.7344C69.3164 18.7344 69.5815 18.6672 69.8279 18.5328C70.0818 18.3909 70.2834 18.1819 70.4327 17.9056C70.582 17.6293 70.6567 17.2933 70.6567 16.8976C70.6567 16.3077 70.4999 15.856 70.1863 15.5424C69.8802 15.2213 69.5031 15.0608 69.0551 15.0608C68.6071 15.0608 68.23 15.2213 67.9239 15.5424C67.6252 15.856 67.4759 16.3077 67.4759 16.8976C67.4759 17.4875 67.6215 17.9429 67.9127 18.264C68.2114 18.5776 68.5847 18.7344 69.0327 18.7344ZM74.9877 11.712V20H73.4197V11.712H74.9877ZM77.3321 13.056C77.0558 13.056 76.8244 12.9701 76.6377 12.7984C76.4585 12.6192 76.3689 12.3989 76.3689 12.1376C76.3689 11.8763 76.4585 11.6597 76.6377 11.488C76.8244 11.3088 77.0558 11.2192 77.3321 11.2192C77.6084 11.2192 77.8361 11.3088 78.0153 11.488C78.202 11.6597 78.2953 11.8763 78.2953 12.1376C78.2953 12.3989 78.202 12.6192 78.0153 12.7984C77.8361 12.9701 77.6084 13.056 77.3321 13.056ZM78.1049 13.7952V20H76.5369V13.7952H78.1049ZM79.2509 16.8976C79.2509 16.2555 79.3815 15.6955 79.6429 15.2176C79.9042 14.7323 80.2663 14.3589 80.7293 14.0976C81.1922 13.8288 81.7223 13.6944 82.3197 13.6944C83.0887 13.6944 83.7234 13.8885 84.2237 14.2768C84.7314 14.6576 85.0711 15.1952 85.2429 15.8896H83.5517C83.4621 15.6208 83.309 15.4117 83.0925 15.2624C82.8834 15.1056 82.6221 15.0272 82.3085 15.0272C81.8605 15.0272 81.5058 15.1915 81.2445 15.52C80.9831 15.8411 80.8525 16.3003 80.8525 16.8976C80.8525 17.4875 80.9831 17.9467 81.2445 18.2752C81.5058 18.5963 81.8605 18.7568 82.3085 18.7568C82.9431 18.7568 83.3575 18.4731 83.5517 17.9056H85.2429C85.0711 18.5776 84.7314 19.1115 84.2237 19.5072C83.7159 19.9029 83.0813 20.1008 82.3197 20.1008C81.7223 20.1008 81.1922 19.9701 80.7293 19.7088C80.2663 19.44 79.9042 19.0667 79.6429 18.5888C79.3815 18.1035 79.2509 17.5397 79.2509 16.8976ZM92.3276 13.7952L88.486 22.9344H86.8172L88.1612 19.8432L85.6748 13.7952H87.4332L89.0348 18.1296L90.6588 13.7952H92.3276Z" fill="white"/>
</svg>
