<svg width="91" height="32" viewBox="0 0 91 32" fill="none" xmlns="http://www.w3.org/2000/svg">
<rect width="90.2" height="32" rx="4.8" fill="#1F32D6"/>
<path d="M20.2666 16H24.5333" stroke="white" stroke-width="1.2" stroke-linecap="round" stroke-linejoin="round"/>
<path d="M22.3999 18.1333V13.8667" stroke="white" stroke-width="1.2" stroke-linecap="round" stroke-linejoin="round"/>
<path d="M20.8 21.3333H24C26.6666 21.3333 27.7333 20.2667 27.7333 17.6V14.4C27.7333 11.7333 26.6666 10.6667 24 10.6667H20.8C18.1333 10.6667 17.0667 11.7333 17.0667 14.4V17.6C17.0667 20.2667 18.1333 21.3333 20.8 21.3333Z" stroke="white" stroke-width="1.2" stroke-linecap="round" stroke-linejoin="round"/>
<path d="M35.6505 16.08C35.6505 15.3109 35.8223 14.624 36.1657 14.0192C36.5167 13.4069 36.9908 12.9328 37.5881 12.5968C38.1929 12.2533 38.8687 12.0816 39.6153 12.0816C40.4889 12.0816 41.2543 12.3056 41.9113 12.7536C42.5684 13.2016 43.0276 13.8213 43.2889 14.6128H41.4857C41.3065 14.2395 41.0527 13.9595 40.7241 13.7728C40.4031 13.5861 40.0297 13.4928 39.6041 13.4928C39.1487 13.4928 38.7417 13.6011 38.3833 13.8176C38.0324 14.0267 37.7561 14.3253 37.5545 14.7136C37.3604 15.1019 37.2633 15.5573 37.2633 16.08C37.2633 16.5952 37.3604 17.0507 37.5545 17.4464C37.7561 17.8347 38.0324 18.1371 38.3833 18.3536C38.7417 18.5627 39.1487 18.6672 39.6041 18.6672C40.0297 18.6672 40.4031 18.5739 40.7241 18.3872C41.0527 18.1931 41.3065 17.9093 41.4857 17.536H43.2889C43.0276 18.3349 42.5684 18.9584 41.9113 19.4064C41.2617 19.8469 40.4964 20.0672 39.6153 20.0672C38.8687 20.0672 38.1929 19.8992 37.5881 19.5632C36.9908 19.2197 36.5167 18.7456 36.1657 18.1408C35.8223 17.536 35.6505 16.8491 35.6505 16.08ZM46.1962 14.7584C46.3978 14.4299 46.6592 14.1723 46.9802 13.9856C47.3088 13.7989 47.6821 13.7056 48.1002 13.7056V15.352H47.6858C47.193 15.352 46.8197 15.4677 46.5658 15.6992C46.3194 15.9307 46.1962 16.3339 46.1962 16.9088V20H44.6282V13.7952H46.1962V14.7584ZM54.9243 16.7632C54.9243 16.9872 54.9094 17.1888 54.8795 17.368H50.3435C50.3809 17.816 50.5377 18.1669 50.8139 18.4208C51.0902 18.6747 51.4299 18.8016 51.8331 18.8016C52.4155 18.8016 52.8299 18.5515 53.0763 18.0512H54.7675C54.5883 18.6485 54.2449 19.1413 53.7371 19.5296C53.2294 19.9104 52.6059 20.1008 51.8667 20.1008C51.2694 20.1008 50.7318 19.9701 50.2539 19.7088C49.7835 19.44 49.4139 19.0629 49.1451 18.5776C48.8838 18.0923 48.7531 17.5323 48.7531 16.8976C48.7531 16.2555 48.8838 15.6917 49.1451 15.2064C49.4065 14.7211 49.7723 14.3477 50.2427 14.0864C50.7131 13.8251 51.2545 13.6944 51.8667 13.6944C52.4566 13.6944 52.983 13.8213 53.4459 14.0752C53.9163 14.3291 54.2785 14.6912 54.5323 15.1616C54.7937 15.6245 54.9243 16.1584 54.9243 16.7632ZM53.3003 16.3152C53.2929 15.912 53.1473 15.5909 52.8635 15.352C52.5798 15.1056 52.2326 14.9824 51.8219 14.9824C51.4337 14.9824 51.1051 15.1019 50.8363 15.3408C50.575 15.5723 50.4145 15.8971 50.3547 16.3152H53.3003ZM55.6656 16.8752C55.6656 16.248 55.7888 15.6917 56.0352 15.2064C56.2891 14.7211 56.6288 14.3477 57.0544 14.0864C57.4875 13.8251 57.9691 13.6944 58.4992 13.6944C58.9622 13.6944 59.3654 13.7877 59.7088 13.9744C60.0598 14.1611 60.3398 14.3963 60.5488 14.68V13.7952H62.128V20H60.5488V19.0928C60.3472 19.384 60.0672 19.6267 59.7088 19.8208C59.3579 20.0075 58.951 20.1008 58.488 20.1008C57.9654 20.1008 57.4875 19.9664 57.0544 19.6976C56.6288 19.4288 56.2891 19.0517 56.0352 18.5664C55.7888 18.0736 55.6656 17.5099 55.6656 16.8752ZM60.5488 16.8976C60.5488 16.5168 60.4742 16.192 60.3248 15.9232C60.1755 15.6469 59.9739 15.4379 59.72 15.296C59.4662 15.1467 59.1936 15.072 58.9024 15.072C58.6112 15.072 58.3424 15.1429 58.096 15.2848C57.8496 15.4267 57.648 15.6357 57.4912 15.912C57.3419 16.1808 57.2672 16.5019 57.2672 16.8752C57.2672 17.2485 57.3419 17.5771 57.4912 17.8608C57.648 18.1371 57.8496 18.3499 58.096 18.4992C58.3499 18.6485 58.6187 18.7232 58.9024 18.7232C59.1936 18.7232 59.4662 18.6523 59.72 18.5104C59.9739 18.3611 60.1755 18.152 60.3248 17.8832C60.4742 17.6069 60.5488 17.2784 60.5488 16.8976ZM65.4851 15.0832V18.0848C65.4851 18.2939 65.5336 18.4469 65.6307 18.544C65.7352 18.6336 65.9069 18.6784 66.1459 18.6784H66.8739V20H65.8883C64.5667 20 63.9059 19.3579 63.9059 18.0736V15.0832H63.1667V13.7952H63.9059V12.2608H65.4851V13.7952H66.8739V15.0832H65.4851ZM73.7697 16.7632C73.7697 16.9872 73.7547 17.1888 73.7249 17.368H69.1889C69.2262 17.816 69.383 18.1669 69.6593 18.4208C69.9355 18.6747 70.2753 18.8016 70.6785 18.8016C71.2609 18.8016 71.6753 18.5515 71.9217 18.0512H73.6129C73.4337 18.6485 73.0902 19.1413 72.5825 19.5296C72.0747 19.9104 71.4513 20.1008 70.7121 20.1008C70.1147 20.1008 69.5771 19.9701 69.0993 19.7088C68.6289 19.44 68.2593 19.0629 67.9905 18.5776C67.7291 18.0923 67.5985 17.5323 67.5985 16.8976C67.5985 16.2555 67.7291 15.6917 67.9905 15.2064C68.2518 14.7211 68.6177 14.3477 69.0881 14.0864C69.5585 13.8251 70.0998 13.6944 70.7121 13.6944C71.3019 13.6944 71.8283 13.8213 72.2913 14.0752C72.7617 14.3291 73.1238 14.6912 73.3777 15.1616C73.639 15.6245 73.7697 16.1584 73.7697 16.7632ZM72.1457 16.3152C72.1382 15.912 71.9926 15.5909 71.7089 15.352C71.4251 15.1056 71.0779 14.9824 70.6673 14.9824C70.279 14.9824 69.9505 15.1019 69.6817 15.3408C69.4203 15.5723 69.2598 15.8971 69.2001 16.3152H72.1457Z" fill="white"/>
</svg>
