<svg width="43" height="33" viewBox="0 0 43 33" fill="none" xmlns="http://www.w3.org/2000/svg">
<rect width="42.6667" height="32.3333" fill="#1F32D6"/>
<path d="M23.6611 6.44444H19.0055C16.9833 6.44444 15.7778 7.65 15.7778 9.67222V14.3222C15.7778 16.35 16.9833 17.5556 19.0055 17.5556H23.6555C25.6778 17.5556 26.8833 16.35 26.8833 14.3278V9.67222C26.8889 7.65 25.6833 6.44444 23.6611 6.44444ZM20.1889 12.7056C19.8111 13.2722 19.2889 13.7333 18.6778 14.0389C18.6222 14.0667 18.5555 14.0833 18.4944 14.0833C18.3389 14.0833 18.1944 14 18.1222 13.8556C18.0167 13.65 18.1 13.4 18.3111 13.2944C18.7944 13.0556 19.2055 12.6889 19.5 12.2444C19.6 12.0944 19.6 11.9056 19.5 11.7556C19.2 11.3111 18.7889 10.9444 18.3111 10.7056C18.1 10.6056 18.0167 10.3556 18.1222 10.1444C18.2222 9.93889 18.4722 9.85555 18.6778 9.96111C19.2889 10.2667 19.8111 10.7278 20.1889 11.2944C20.4778 11.7222 20.4778 12.2778 20.1889 12.7056ZM24.1111 14.0833H21.8889C21.6611 14.0833 21.4722 13.8944 21.4722 13.6667C21.4722 13.4389 21.6611 13.25 21.8889 13.25H24.1111C24.3389 13.25 24.5278 13.4389 24.5278 13.6667C24.5278 13.8944 24.3389 14.0833 24.1111 14.0833Z" fill="white"/>
<path d="M12.0467 20.8867H17.3V21.5H16.2333V23.1H17.64V23.7133H16.2333V26.6H15.6V23.7133H13.8133C13.7467 24.38 13.62 24.9333 13.42 25.38C13.1667 25.94 12.74 26.3733 12.1467 26.6733L11.8067 26.14C12.34 25.8267 12.7067 25.4267 12.9 24.9467C13.0267 24.6 13.1133 24.1867 13.1667 23.7133H11.7V23.1H13.2133C13.2133 23.0467 13.22 22.9933 13.22 22.9533V21.5H12.0467V20.8867ZM13.86 21.5V22.9533C13.86 23.0067 13.8533 23.0533 13.8533 23.1H15.6V21.5H13.86ZM18.6867 22.6733L19.2133 20.7267L19.8467 20.8333L19.5 22.0667H20.4867C20.6133 21.5733 20.7133 21.0533 20.7933 20.5067L21.44 20.5867C21.36 21.1133 21.26 21.6067 21.1467 22.0667H24.2V22.6733H20.9867C20.92 22.8933 20.8467 23.1 20.78 23.3H23.4467V23.8333C23.2733 24.38 22.9467 24.8733 22.4533 25.3133C22.96 25.5933 23.5733 25.8533 24.2867 26.0933L23.96 26.6933C23.1533 26.4 22.4733 26.0733 21.9267 25.7267C21.4 26.0933 20.7533 26.4267 19.9867 26.7267L19.6533 26.1267C20.32 25.8867 20.8933 25.62 21.3667 25.3333C20.9333 24.9867 20.6067 24.6133 20.3933 24.22C19.9133 25.2067 19.3067 25.9933 18.58 26.58L18.2533 25.9933C19.1733 25.18 19.86 24.0733 20.3133 22.6733H18.6867ZM20.8533 23.8733C21.0733 24.2667 21.42 24.6333 21.8933 24.9667C22.3133 24.6267 22.62 24.26 22.8067 23.8733H20.8533ZM22.56 20.5133C23.02 20.86 23.4067 21.2133 23.72 21.5667L23.2667 22.02C23 21.6733 22.6267 21.3133 22.1333 20.9333L22.56 20.5133ZM25.58 21.1733H27.3933V20.52H28.0333V21.1733H29.5133V21.7667H28.0333V22.4133H28.82C29.4467 21.9733 29.98 21.48 30.42 20.9467L30.8933 21.3C30.5533 21.7133 30.1933 22.08 29.8067 22.4133H31.0067V23.0133H29.0133C28.9333 23.0667 28.8533 23.1133 28.7733 23.1667C28.5267 23.3133 28.2467 23.4667 27.9267 23.62H30.1867V26.7H29.5533V26.4467H26.8667V26.7H26.2267V24.34C25.8933 24.46 25.5467 24.5867 25.1867 24.7133L24.9267 24.1267C25.9667 23.8867 26.9467 23.52 27.8533 23.0133H25.0267V22.4133H27.3933V21.7667H25.58V21.1733ZM26.8667 25.2867V25.8867H29.5533V25.2867H26.8667ZM29.5533 24.74V24.1667H26.8667V24.74H29.5533Z" fill="white"/>
</svg>
