<svg width="32" height="32" viewBox="0 0 32 32" fill="none" xmlns="http://www.w3.org/2000/svg">
<rect x="0.5" y="0.5" width="31" height="31" rx="15.5" stroke="#EDEEF3"/>
<path d="M15.0964 15.9344L15.0982 8.85665C15.0983 8.38803 15.5001 8.00012 15.9855 8C16.4792 8.00796 16.8724 8.38761 16.8723 8.85623L16.8872 15.934L18.9212 13.9701C19.2644 13.6388 19.8335 13.6386 20.1765 13.9698C20.5195 14.301 20.5194 14.8504 20.1762 15.1818L16.6271 18.6084C16.5434 18.6892 16.4429 18.7539 16.3341 18.7943C16.1082 18.8832 15.8655 18.8752 15.6479 18.7944C15.5308 18.746 15.4388 18.6895 15.3551 18.6087L11.8078 15.1838C11.4648 14.8526 11.4649 14.3032 11.8081 13.9718C12.1513 13.6405 12.7203 13.6404 13.0634 13.9715L15.0964 15.9344Z" fill="#1C1C1C"/>
<path d="M9.52723 22.9764C11.6113 23.6554 13.7991 24 15.9973 24C18.1955 24 20.3833 23.6554 22.4674 22.9764C22.8718 22.8447 23.0895 22.4191 22.9651 22.0137C22.8303 21.6185 22.3844 21.4057 21.98 21.5374C18.1229 22.794 13.8821 22.794 10.0249 21.5374C9.61018 21.3955 9.17469 21.6185 9.0399 22.0137C8.90511 22.4089 9.12285 22.8447 9.52723 22.9764Z" fill="#1C1C1C"/>
</svg>
