<svg width="34" height="34" viewBox="0 0 34 34" fill="none" xmlns="http://www.w3.org/2000/svg">
<rect x="1" y="1" width="32" height="32" rx="16" stroke="#EDEEF3"/>
<path d="M11.4 18.8C12.1732 18.8 12.8 18.1732 12.8 17.4C12.8 16.6268 12.1732 16 11.4 16C10.6268 16 10 16.6268 10 17.4C10 18.1732 10.6268 18.8 11.4 18.8Z" fill="#1C1C1C"/>
<path d="M17 18.8C17.7732 18.8 18.4 18.1732 18.4 17.4C18.4 16.6268 17.7732 16 17 16C16.2268 16 15.6 16.6268 15.6 17.4C15.6 18.1732 16.2268 18.8 17 18.8Z" fill="#1C1C1C"/>
<path d="M22.6 18.8C23.3732 18.8 24 18.1732 24 17.4C24 16.6268 23.3732 16 22.6 16C21.8268 16 21.2 16.6268 21.2 17.4C21.2 18.1732 21.8268 18.8 22.6 18.8Z" fill="#1C1C1C"/>
</svg>
