<svg width="34" height="34" viewBox="0 0 34 34" fill="none" xmlns="http://www.w3.org/2000/svg">
<rect x="1" y="1" width="32" height="32" rx="16" stroke="#EDEEF3"/>
<path d="M24.0833 16.4166V12.8667C24.0833 9.50833 23.3 8.66666 20.15 8.66666H13.85C10.7 8.66666 9.91663 9.50833 9.91663 12.8667V22.25C9.91663 24.4666 11.1333 24.9917 12.6083 23.4083L12.6166 23.4C13.3 22.675 14.3416 22.7333 14.9333 23.525L15.775 24.65" stroke="#1C1C1C" stroke-width="1.5" stroke-linecap="round" stroke-linejoin="round"/>
<path d="M22.1667 24.8333C23.6394 24.8333 24.8333 23.6394 24.8333 22.1667C24.8333 20.6939 23.6394 19.5 22.1667 19.5C20.6939 19.5 19.5 20.6939 19.5 22.1667C19.5 23.6394 20.6939 24.8333 22.1667 24.8333Z" stroke="#1C1C1C" stroke-width="1.5" stroke-linecap="round" stroke-linejoin="round"/>
<path d="M25.3333 25.3333L24.5 24.5" stroke="#1C1C1C" stroke-width="1.5" stroke-linecap="round" stroke-linejoin="round"/>
<path d="M13.6666 12.8333H20.3333" stroke="#1C1C1C" stroke-width="1.5" stroke-linecap="round" stroke-linejoin="round"/>
<path d="M14.5 16.1667H19.5" stroke="#1C1C1C" stroke-width="1.5" stroke-linecap="round" stroke-linejoin="round"/>
</svg>
