<svg width="34" height="34" viewBox="0 0 34 34" fill="none" xmlns="http://www.w3.org/2000/svg">
<rect x="1" y="1" width="32" height="32" rx="16" stroke="#EDEEF3"/>
<path d="M26 17C26 18.78 25.4722 20.5201 24.4832 22.0001C23.4943 23.4802 22.0887 24.6337 20.4442 25.3149C18.7996 25.9961 16.99 26.1743 15.2442 25.8271C13.4984 25.4798 11.8947 24.6226 10.636 23.364C9.37737 22.1053 8.5202 20.5016 8.17293 18.7558C7.82567 17.01 8.0039 15.2004 8.68508 13.5558C9.36627 11.9113 10.5198 10.5057 11.9999 9.51677C13.4799 8.52784 15.22 8 17 8" stroke="#1C1C1C" stroke-width="1.5" stroke-linecap="round"/>
<circle cx="23.5" cy="10.5" r="2.5" stroke="#1C1C1C" stroke-width="1.5" stroke-linecap="round"/>
<path d="M14 17H20" stroke="#1C1C1C" stroke-width="1.5" stroke-linecap="round" stroke-linejoin="round"/>
<path d="M17 14L17 20" stroke="#1C1C1C" stroke-width="1.5" stroke-linecap="round" stroke-linejoin="round"/>
</svg>
