<svg width="62" height="32" viewBox="0 0 62 32" fill="none" xmlns="http://www.w3.org/2000/svg">
<path d="M0.999976 4.8C0.999976 2.36995 2.96992 0.4 5.39998 0.4H56.6C59.03 0.4 61 2.36995 61 4.8V27.2C61 29.6301 59.03 31.6 56.6 31.6H5.39997C2.96992 31.6 0.999976 29.6301 0.999976 27.2V4.8Z" stroke="#EDEEF3" stroke-width="0.8"/>
<path d="M14.2377 20.0784C13.715 20.0784 13.2446 19.9888 12.8265 19.8096C12.4084 19.6229 12.0798 19.3616 11.8409 19.0256C11.602 18.6896 11.4825 18.2976 11.4825 17.8496H12.8489C12.8788 18.1856 13.0094 18.4619 13.2409 18.6784C13.4798 18.8949 13.8121 19.0032 14.2377 19.0032C14.6782 19.0032 15.0217 18.8987 15.2681 18.6896C15.5145 18.4731 15.6377 18.1968 15.6377 17.8608C15.6377 17.5995 15.5593 17.3867 15.4025 17.2224C15.2532 17.0581 15.0628 16.9312 14.8313 16.8416C14.6073 16.752 14.2937 16.6549 13.8905 16.5504C13.3828 16.416 12.9684 16.2816 12.6473 16.1472C12.3337 16.0053 12.0649 15.7888 11.8409 15.4976C11.6169 15.2064 11.5049 14.8181 11.5049 14.3328C11.5049 13.8848 11.6169 13.4928 11.8409 13.1568C12.0649 12.8208 12.3785 12.5632 12.7817 12.384C13.1849 12.2048 13.6516 12.1152 14.1817 12.1152C14.9358 12.1152 15.5518 12.3056 16.0297 12.6864C16.515 13.0597 16.7838 13.5749 16.8361 14.232H15.4249C15.4025 13.9483 15.2681 13.7056 15.0217 13.504C14.7753 13.3024 14.4505 13.2016 14.0473 13.2016C13.6814 13.2016 13.3828 13.2949 13.1513 13.4816C12.9198 13.6683 12.8041 13.9371 12.8041 14.288C12.8041 14.5269 12.875 14.7248 13.0169 14.8816C13.1662 15.0309 13.3529 15.1504 13.5769 15.24C13.8009 15.3296 14.107 15.4267 14.4953 15.5312C15.0105 15.6731 15.4286 15.8149 15.7497 15.9568C16.0782 16.0987 16.3545 16.3189 16.5785 16.6176C16.81 16.9088 16.9257 17.3008 16.9257 17.7936C16.9257 18.1893 16.8174 18.5627 16.6009 18.9136C16.3918 19.2645 16.082 19.5483 15.6713 19.7648C15.2681 19.9739 14.7902 20.0784 14.2377 20.0784ZM21.1091 20.1008C20.5267 20.1008 20.0003 19.9701 19.5299 19.7088C19.0595 19.44 18.6899 19.0667 18.4211 18.5888C18.1523 18.1035 18.0179 17.5435 18.0179 16.9088C18.0179 16.2816 18.156 15.7253 18.4323 15.24C18.7085 14.7547 19.0856 14.3813 19.5635 14.12C20.0413 13.8587 20.5752 13.728 21.1651 13.728C21.7549 13.728 22.2888 13.8587 22.7667 14.12C23.2445 14.3813 23.6216 14.7547 23.8979 15.24C24.1741 15.7253 24.3123 16.2816 24.3123 16.9088C24.3123 17.536 24.1704 18.0923 23.8867 18.5776C23.6029 19.0629 23.2147 19.44 22.7219 19.7088C22.2365 19.9701 21.6989 20.1008 21.1091 20.1008ZM21.1091 18.992C21.4376 18.992 21.7437 18.9136 22.0275 18.7568C22.3187 18.6 22.5539 18.3648 22.7331 18.0512C22.9123 17.7376 23.0019 17.3568 23.0019 16.9088C23.0019 16.4608 22.916 16.0837 22.7443 15.7776C22.5725 15.464 22.3448 15.2288 22.0611 15.072C21.7773 14.9152 21.4712 14.8368 21.1427 14.8368C20.8141 14.8368 20.508 14.9152 20.2243 15.072C19.948 15.2288 19.7277 15.464 19.5635 15.7776C19.3992 16.0837 19.3171 16.4608 19.3171 16.9088C19.3171 17.5733 19.4851 18.0885 19.8211 18.4544C20.1645 18.8128 20.5939 18.992 21.1091 18.992ZM26.8512 14.7248C27.0379 14.4112 27.2843 14.1685 27.5904 13.9968C27.904 13.8176 28.2736 13.728 28.6992 13.728V15.0496H28.3744C27.8742 15.0496 27.4934 15.1765 27.232 15.4304C26.9782 15.6843 26.8512 16.1248 26.8512 16.752V20H25.5744V13.8288H26.8512V14.7248ZM31.3625 14.8704V18.2864C31.3625 18.5179 31.4148 18.6859 31.5193 18.7904C31.6313 18.8875 31.818 18.936 32.0793 18.936H32.8633V20H31.8553C31.2804 20 30.8398 19.8656 30.5337 19.5968C30.2276 19.328 30.0745 18.8912 30.0745 18.2864V14.8704H29.3465V13.8288H30.0745V12.2944H31.3625V13.8288H32.8633V14.8704H31.3625Z" fill="#1C1C1C"/>
<path d="M39.1558 18.592L41.3195 20.649C41.5314 20.8504 41.874 20.8504 42.0836 20.649L44.2473 18.592C44.4592 18.3906 44.4592 18.065 44.2473 17.8657C44.0354 17.6664 43.6928 17.6643 43.4832 17.8657L42.2436 19.0441V11.7142C42.2436 11.4293 42.0024 11.2 41.7027 11.2C41.4029 11.2 41.1617 11.4293 41.1617 11.7142V19.0441L39.9221 17.8636C39.7103 17.6621 39.3677 17.6621 39.1581 17.8636C38.9484 18.065 38.9462 18.3906 39.1581 18.5899L39.1558 18.592ZM45.8498 20.7989H46.9316C47.2314 20.7989 47.4726 20.5697 47.4726 20.2847C47.4726 19.9997 47.2314 19.7705 46.9316 19.7705H45.8498C45.55 19.7705 45.3089 19.9997 45.3089 20.2847C45.3089 20.5697 45.55 20.7989 45.8498 20.7989ZM45.8498 18.0564H48.3741C48.6739 18.0564 48.915 17.8271 48.915 17.5422C48.915 17.2572 48.6739 17.0279 48.3741 17.0279H45.8498C45.55 17.0279 45.3089 17.2572 45.3089 17.5422C45.3089 17.8271 45.55 18.0564 45.8498 18.0564ZM45.8498 15.3138H49.8166C50.1164 15.3138 50.3575 15.0846 50.3575 14.7996C50.3575 14.5146 50.1164 14.2854 49.8166 14.2854H45.8498C45.55 14.2854 45.3089 14.5146 45.3089 14.7996C45.3089 15.0846 45.55 15.3138 45.8498 15.3138ZM45.8498 12.5713H51.2591C51.5588 12.5713 51.8 12.342 51.8 12.0571C51.8 11.7721 51.5588 11.5428 51.2591 11.5428H45.8498C45.55 11.5428 45.3089 11.7721 45.3089 12.0571C45.3089 12.342 45.55 12.5713 45.8498 12.5713Z" fill="#1C1C1C"/>
</svg>
