<svg width="66" height="32" viewBox="0 0 66 32" fill="none" xmlns="http://www.w3.org/2000/svg">
<rect x="0.4" y="0.4" width="64.8" height="31.2" rx="4.4" stroke="#EDEEF3" stroke-width="0.8"/>
<path d="M16.6673 10.928C17.4177 11.5104 18.0561 12.0928 18.5825 12.6752L17.8097 13.448C17.3617 12.888 16.7457 12.272 15.9393 11.6224L16.6673 10.928ZM23.3873 20.9632C22.7489 20.9632 22.0545 20.952 21.3041 20.9408C20.5425 20.9296 19.9153 20.8624 19.4449 20.7504C18.9745 20.616 18.5601 20.3472 18.2129 19.9664C18.0561 19.776 17.8993 19.6864 17.7649 19.6864C17.5297 19.6864 17.1153 20.2016 16.5329 21.2432L15.7489 20.5152C16.3201 19.5856 16.8353 19.0032 17.2833 18.768V15.6096H15.7601V14.6016H18.3025V18.8464C18.3697 18.8912 18.4257 18.9472 18.4817 19.0144C18.7505 19.3056 19.0417 19.5296 19.3329 19.6752C19.6801 19.832 20.1953 19.9216 20.8897 19.944C21.5505 19.9552 22.3345 19.9664 23.2529 19.9664C23.7569 19.9664 24.2721 19.9552 24.7985 19.9552C25.3361 19.9328 25.7393 19.9104 26.0193 19.888L25.7617 20.9632H23.3873ZM23.0625 19.4512H21.4833L21.2481 18.432C21.7521 18.4768 22.2337 18.4992 22.6929 18.4992C22.9953 18.4992 23.1521 18.3424 23.1521 18.0512V13.6048H18.9409V12.5632H23.1521V10.8384H24.2161V12.5632H25.8065V13.6048H24.2161V18.3088C24.2161 19.0704 23.8241 19.4512 23.0625 19.4512ZM20.3521 14.4224C21.0465 15.24 21.5729 15.9568 21.9425 16.5616L21.0913 17.1552C20.7105 16.4944 20.1841 15.7552 19.5233 14.9376L20.3521 14.4224ZM32.6833 10.7936H33.7025V11.3536H36.5361V12.2272H33.7025V12.888H36.8273V13.3472C36.7377 13.9072 36.5809 14.456 36.3681 15.016L35.4385 14.7696C35.5729 14.4784 35.6961 14.1536 35.8081 13.784H33.4113V14.4896L35.1585 14.2208L35.2929 15.0496L33.4113 15.3408V15.7664C33.4113 15.9232 33.5681 16.0128 33.8929 16.0128H35.0017C35.1809 16.0128 35.3041 15.9792 35.3937 15.912C35.4945 15.8336 35.5617 15.6096 35.5953 15.2512L36.4689 15.5424C36.3905 16.192 36.2449 16.5728 36.0433 16.696C35.8529 16.8192 35.5617 16.8864 35.1697 16.8864H33.6129C32.8513 16.8864 32.4705 16.5728 32.4705 15.968V15.4864L31.3841 15.6432L31.2721 14.8144L32.4705 14.6352V13.784H30.9585V15.6656C30.9585 17.7936 30.4881 19.6192 29.5697 21.1312L28.7857 20.4368C29.5809 19.1824 29.9953 17.592 30.0401 15.6656V12.888H32.6833V10.7936ZM27.9121 10.9168C28.6289 11.4096 29.2337 11.9024 29.7377 12.4064L29.0097 13.1344C28.5617 12.664 27.9569 12.1488 27.1729 11.6112L27.9121 10.9168ZM27.6321 13.5936C28.3265 14.1536 28.9201 14.7024 29.4017 15.2512L28.6513 15.9904C28.2257 15.4752 27.6433 14.9152 26.8929 14.3216L27.6321 13.5936ZM28.4721 16.6064L29.4017 16.976C28.9761 18.3984 28.4945 19.7424 27.9569 21.008L26.9489 20.56C27.5313 19.2832 28.0353 17.9616 28.4721 16.6064ZM36.2337 17.7824C36.6033 18.544 36.9281 19.3728 37.1969 20.28L36.3681 20.7168C36.0881 19.7536 35.7857 18.8912 35.4497 18.1408L36.2337 17.7824ZM31.2721 18.0624L32.1009 18.2304C31.8881 19.2608 31.5969 20.1456 31.2273 20.896L30.4097 20.392C30.8129 19.664 31.0929 18.8912 31.2721 18.0624ZM34.5649 21.0528H33.4561C32.7617 21.0528 32.4145 20.728 32.4145 20.1008V17.8496H33.3553V19.9104C33.3553 20.0672 33.4785 20.1456 33.7361 20.1456H34.3969C34.5313 20.1456 34.6433 20.1008 34.7105 20.0336C34.7889 19.9552 34.8449 19.7088 34.8785 19.2944L35.7521 19.5744C35.6737 20.2912 35.5393 20.7168 35.3601 20.8624C35.1809 20.9856 34.9233 21.0528 34.5649 21.0528ZM34.0497 17.0432C34.4753 17.5024 34.8785 18.0064 35.2369 18.5552L34.5201 19.0928C34.1393 18.488 33.7697 17.9728 33.4001 17.536L34.0497 17.0432Z" fill="#1C1C1C"/>
<path d="M49.0028 10.4L46.2512 14.8694M45.9163 10.4H53.2838C53.8977 10.4 54.4 10.9092 54.4 11.5315V12.7761C54.4 13.2287 54.121 13.7945 53.8419 14.0773L51.4419 16.2272C51.107 16.51 50.8838 17.0758 50.8838 17.5284V19.9611C50.8838 20.3005 50.6605 20.7531 50.3814 20.9228L49.6 21.432C48.8745 21.8846 47.8698 21.3754 47.8698 20.4702V17.4718C47.8698 17.0758 47.6466 16.5666 47.4233 16.2837L45.3024 14.0208C45.0233 13.7379 44.8 13.2287 44.8 12.8893V11.5881C44.8 10.9092 45.3024 10.4 45.9163 10.4Z" stroke="#1C1C1C" stroke-width="1.2" stroke-miterlimit="10" stroke-linecap="round" stroke-linejoin="round"/>
</svg>
