<svg width="32" height="32" viewBox="0 0 32 32" fill="none" xmlns="http://www.w3.org/2000/svg">
<rect x="0.5" y="0.5" width="31" height="31" rx="15.5" stroke="#EDEEF3"/>
<path d="M15.0964 16.0656L15.0982 23.1433C15.0983 23.612 15.5001 23.9999 15.9855 24C16.4792 23.992 16.8724 23.6124 16.8723 23.1438L16.8872 16.066L18.9212 18.0299C19.2644 18.3612 19.8335 18.3614 20.1765 18.0302C20.5195 17.699 20.5194 17.1496 20.1762 16.8182L16.6271 13.3916C16.5434 13.3108 16.4429 13.2461 16.3341 13.2057C16.1082 13.1168 15.8655 13.1248 15.6479 13.2056C15.5308 13.254 15.4388 13.3105 15.3551 13.3913L11.8078 16.8162C11.4648 17.1474 11.4649 17.6968 11.8081 18.0282C12.1513 18.3595 12.7203 18.3596 13.0634 18.0285L15.0964 16.0656Z" fill="#1C1C1C"/>
<path d="M9.52723 9.02355C11.6113 8.34456 13.7991 8 15.9973 8C18.1955 8 20.3833 8.34456 22.4674 9.02355C22.8718 9.15529 23.0895 9.58093 22.9651 9.98629C22.8303 10.3815 22.3844 10.5943 21.98 10.4626C18.1229 9.20596 13.8821 9.20596 10.0249 10.4626C9.61018 10.6045 9.17469 10.3815 9.0399 9.98629C8.90511 9.59106 9.12285 9.15529 9.52723 9.02355Z" fill="#1C1C1C"/>
</svg>
