<svg width="44" height="33" viewBox="0 0 44 33" fill="none" xmlns="http://www.w3.org/2000/svg">
<rect width="42.6667" height="32.3333" transform="translate(0.666687)" fill="#1F32D6"/>
<path opacity="0.01" fill-rule="evenodd" clip-rule="evenodd" d="M15.3333 18.6667L15.3333 5.33333L28.6666 5.33333V18.6667H15.3333Z" fill="white"/>
<path d="M27.9999 12.5971C27.9999 12.9212 27.7359 13.1864 27.3999 13.1982H26.2239C25.576 13.1982 24.982 12.7326 24.928 12.0961C24.892 11.7248 25.036 11.3771 25.288 11.1355C25.51 10.9115 25.816 10.7819 26.1519 10.7819H27.3999C27.7359 10.7937 27.9999 11.0589 27.9999 11.383V12.5971Z" fill="white"/>
<path fill-rule="evenodd" clip-rule="evenodd" d="M24.0279 12.1674C24.1239 13.24 25.0839 14.0828 26.2239 14.0828H27.0819C27.2559 14.0828 27.3999 14.2242 27.3819 14.3951C27.2379 15.9687 26.0799 17.0001 24.3999 17.0001H18.16C16.9671 17.0001 16 16.033 16 14.8401V9.1691C16 7.97903 16.9605 7.0132 18.1506 7.00996C20.7387 7.0029 24.7525 6.99458 24.8499 7.01053C26.2839 7.17555 27.2499 8.15387 27.3819 9.586C27.3999 9.75691 27.2559 9.89835 27.0819 9.89835H26.1519C25.5759 9.89835 25.0419 10.1164 24.6579 10.5054C24.2019 10.9415 23.9739 11.5544 24.0279 12.1674ZM18.5 9.6667C18.2239 9.6667 18 9.89056 18 10.1667C18 10.4428 18.2239 10.6667 18.5 10.6667H20.8333C21.1095 10.6667 21.3333 10.4428 21.3333 10.1667C21.3333 9.89056 21.1095 9.6667 20.8333 9.6667H18.5Z" fill="white"/>
<path d="M16.1083 21.3667L14.735 26H13.875L12.9016 22.4933L11.8683 26L11.015 26.0067L9.70162 21.3667H10.5083L11.4683 25.14L12.5083 21.3667H13.3616L14.3283 25.12L15.295 21.3667H16.1083ZM16.4818 24.1467C16.4818 23.7778 16.5573 23.4511 16.7084 23.1667C16.864 22.8822 17.0729 22.6622 17.3351 22.5067C17.6018 22.3467 17.8951 22.2667 18.2151 22.2667C18.504 22.2667 18.7551 22.3244 18.9684 22.44C19.1862 22.5511 19.3596 22.6911 19.4884 22.86V22.3267H20.2551V26H19.4884V25.4533C19.3596 25.6267 19.184 25.7711 18.9618 25.8867C18.7396 26.0022 18.4862 26.06 18.2018 26.06C17.8862 26.06 17.5973 25.98 17.3351 25.82C17.0729 25.6556 16.864 25.4289 16.7084 25.14C16.5573 24.8467 16.4818 24.5156 16.4818 24.1467ZM19.4884 24.16C19.4884 23.9067 19.4351 23.6867 19.3284 23.5C19.2262 23.3133 19.0907 23.1711 18.9218 23.0733C18.7529 22.9756 18.5707 22.9267 18.3751 22.9267C18.1796 22.9267 17.9973 22.9756 17.8284 23.0733C17.6596 23.1667 17.5218 23.3067 17.4151 23.4933C17.3129 23.6756 17.2618 23.8933 17.2618 24.1467C17.2618 24.4 17.3129 24.6222 17.4151 24.8133C17.5218 25.0044 17.6596 25.1511 17.8284 25.2533C18.0018 25.3511 18.184 25.4 18.3751 25.4C18.5707 25.4 18.7529 25.3511 18.9218 25.2533C19.0907 25.1556 19.2262 25.0133 19.3284 24.8267C19.4351 24.6356 19.4884 24.4133 19.4884 24.16ZM22.0133 21.0667V26H21.2533V21.0667H22.0133ZM23.7712 21.0667V26H23.0112V21.0667H23.7712ZM28.1356 24.0733C28.1356 24.2111 28.1267 24.3356 28.109 24.4467H25.3023C25.3245 24.74 25.4334 24.9756 25.629 25.1533C25.8245 25.3311 26.0645 25.42 26.349 25.42C26.7579 25.42 27.0467 25.2489 27.2156 24.9067H28.0356C27.9245 25.2444 27.7223 25.5222 27.429 25.74C27.1401 25.9533 26.7801 26.06 26.349 26.06C25.9979 26.06 25.6823 25.9822 25.4023 25.8267C25.1267 25.6667 24.909 25.4444 24.749 25.16C24.5934 24.8711 24.5156 24.5378 24.5156 24.16C24.5156 23.7822 24.5912 23.4511 24.7423 23.1667C24.8979 22.8778 25.1134 22.6556 25.389 22.5C25.669 22.3444 25.989 22.2667 26.349 22.2667C26.6956 22.2667 27.0045 22.3422 27.2756 22.4933C27.5467 22.6444 27.7579 22.8578 27.909 23.1333C28.0601 23.4044 28.1356 23.7178 28.1356 24.0733ZM27.3423 23.8333C27.3379 23.5533 27.2379 23.3289 27.0423 23.16C26.8467 22.9911 26.6045 22.9067 26.3156 22.9067C26.0534 22.9067 25.829 22.9911 25.6423 23.16C25.4556 23.3244 25.3445 23.5489 25.309 23.8333H27.3423ZM29.7702 22.9467V24.98C29.7702 25.1178 29.8013 25.2178 29.8635 25.28C29.9302 25.3378 30.0413 25.3667 30.1969 25.3667H30.6635V26H30.0635C29.7213 26 29.4591 25.92 29.2769 25.76C29.0947 25.6 29.0035 25.34 29.0035 24.98V22.9467H28.5702V22.3267H29.0035V21.4133H29.7702V22.3267H30.6635V22.9467H29.7702ZM32.6973 26.06C32.4085 26.06 32.1485 26.0089 31.9173 25.9067C31.6907 25.8 31.5107 25.6578 31.3773 25.48C31.244 25.2978 31.1729 25.0956 31.164 24.8733H31.9507C31.964 25.0289 32.0373 25.16 32.1707 25.2667C32.3085 25.3689 32.4796 25.42 32.684 25.42C32.8973 25.42 33.0618 25.38 33.1773 25.3C33.2973 25.2156 33.3573 25.1089 33.3573 24.98C33.3573 24.8422 33.2907 24.74 33.1573 24.6733C33.0285 24.6067 32.8218 24.5333 32.5373 24.4533C32.2618 24.3778 32.0373 24.3044 31.864 24.2333C31.6907 24.1622 31.5396 24.0533 31.4107 23.9067C31.2862 23.76 31.224 23.5667 31.224 23.3267C31.224 23.1311 31.2818 22.9533 31.3973 22.7933C31.5129 22.6289 31.6773 22.5 31.8907 22.4067C32.1085 22.3133 32.3573 22.2667 32.6373 22.2667C33.0551 22.2667 33.3907 22.3733 33.644 22.5867C33.9018 22.7956 34.0396 23.0822 34.0573 23.4467H33.2973C33.284 23.2822 33.2173 23.1511 33.0973 23.0533C32.9773 22.9556 32.8151 22.9067 32.6107 22.9067C32.4107 22.9067 32.2573 22.9444 32.1507 23.02C32.044 23.0956 31.9907 23.1956 31.9907 23.32C31.9907 23.4178 32.0262 23.5 32.0973 23.5667C32.1685 23.6333 32.2551 23.6867 32.3573 23.7267C32.4596 23.7622 32.6107 23.8089 32.8107 23.8667C33.0773 23.9378 33.2951 24.0111 33.464 24.0867C33.6373 24.1578 33.7862 24.2644 33.9107 24.4067C34.0351 24.5489 34.0996 24.7378 34.104 24.9733C34.104 25.1822 34.0462 25.3689 33.9307 25.5333C33.8151 25.6978 33.6507 25.8267 33.4373 25.92C33.2285 26.0133 32.9818 26.06 32.6973 26.06Z" fill="white"/>
</svg>
