<svg width="1600" height="754" viewBox="0 0 1600 754" fill="none" xmlns="http://www.w3.org/2000/svg">
<rect width="1600" height="754" fill="white"/>
<rect x="9" y="9" width="499" height="736" rx="23" fill="#1F32D6" fill-opacity="0.08"/>
<rect x="9" y="9" width="499" height="736" rx="23" stroke="#1F32D6" stroke-width="2"/>
<circle cx="259" cy="194" r="100" fill="white"/>
<mask id="mask0_2181_817" style="mask-type:alpha" maskUnits="userSpaceOnUse" x="213" y="148" width="92" height="92">
<path d="M222.502 239.815C225.201 239.815 227.904 239.815 230.602 239.815C231.385 239.815 231.776 239.41 231.776 238.601C231.776 234.576 231.787 230.551 231.765 226.526C231.762 225.885 231.896 225.639 232.602 225.646C236.754 225.679 240.909 225.65 245.061 225.679C245.706 225.682 245.883 225.494 245.88 224.864C245.858 220.763 245.887 216.662 245.851 212.557C245.843 211.811 246.003 211.554 246.807 211.564C250.933 211.608 255.06 211.575 259.19 211.593C259.719 211.593 260.088 211.441 260.458 211.064C262.313 209.173 264.211 207.322 266.066 205.431C266.435 205.054 266.75 204.975 267.261 205.119C276.579 207.793 285.255 206.395 293.059 200.653C299.91 195.606 303.829 188.723 304.666 180.227C305.568 171.12 302.782 163.179 296.33 156.716C289.813 150.18 281.799 147.416 272.605 148.34C265.098 149.093 258.809 152.387 253.864 158.045C248.006 164.747 245.731 172.612 246.919 181.445C247.111 182.876 247.485 184.289 247.865 185.687C248.021 186.259 247.937 186.6 247.517 187.017C240.866 193.621 234.229 200.243 227.596 206.866C222.98 211.474 218.365 216.082 213.775 220.712C213.474 221.013 213.242 221.534 213.242 221.954C213.206 227.61 213.231 233.265 213.206 238.923C213.206 239.612 213.376 239.844 214.097 239.833C216.898 239.793 219.702 239.815 222.506 239.815H222.502ZM272 171.044C272.022 165.599 276.391 161.226 281.814 161.215C287.103 161.204 291.559 165.646 291.577 170.953C291.595 176.467 287.183 180.807 281.557 180.807C276.405 180.807 271.978 176.282 272 171.047V171.044Z" fill="white"/>
</mask>
<g mask="url(#mask0_2181_817)">
<rect width="29.3653" height="119.684" transform="matrix(-0.656374 0.754435 -0.715431 -0.698683 288.031 225.445)" fill="#1F32D6" fill-opacity="0.6"/>
<rect width="41.3022" height="119.684" transform="matrix(-0.656374 0.754435 -0.715431 -0.698683 264.832 243.495)" fill="#1F32D6" fill-opacity="0.3"/>
<rect width="59.5696" height="119.684" transform="matrix(-0.656374 0.754435 -0.715431 -0.698683 327.132 180.502)" fill="#1F32D6"/>
</g>
<path d="M259 331.5L259 482" stroke="#1F32D6" stroke-width="2" stroke-dasharray="8 8"/>
<circle cx="259" cy="330" r="6" transform="rotate(-180 259 330)" fill="white" stroke="#1F32D6" stroke-width="4"/>
<circle cx="259" cy="484" r="6" transform="rotate(-180 259 484)" fill="white" stroke="#1F32D6" stroke-width="4"/>
<rect x="160" y="521" width="198" height="118" rx="15" fill="#1F32D6"/>
<rect x="160" y="521" width="198" height="118" rx="15" stroke="#1F32D6" stroke-width="2"/>
<path d="M279.062 583.753C279.062 582.422 278.667 581.122 277.927 580.015C277.187 578.909 276.136 578.047 274.907 577.537C273.677 577.028 272.324 576.895 271.019 577.155C269.714 577.415 268.515 578.056 267.574 578.997C266.633 579.939 265.992 581.138 265.733 582.443C265.473 583.748 265.607 585.101 266.116 586.331C266.625 587.56 267.488 588.611 268.594 589.35C269.701 590.09 271.002 590.484 272.333 590.484C273.217 590.484 274.092 590.31 274.908 589.972C275.725 589.634 276.467 589.138 277.092 588.513C277.717 587.888 278.212 587.146 278.55 586.329C278.888 585.512 279.062 584.637 279.062 583.753ZM311.383 583.753C311.38 586.602 310.384 589.361 308.565 591.554C306.746 593.747 304.219 595.236 301.42 595.766C298.621 596.295 295.724 595.831 293.231 594.453C290.737 593.076 288.802 590.871 287.76 588.22L292.418 583.562V583.755C292.422 585.308 292.964 586.812 293.952 588.011C294.94 589.209 296.313 590.028 297.837 590.328C299.36 590.629 300.941 590.391 302.31 589.657C303.679 588.923 304.751 587.737 305.343 586.301C305.936 584.866 306.013 583.269 305.561 581.783C305.109 580.297 304.156 579.014 302.864 578.151C301.572 577.289 300.021 576.901 298.476 577.053C296.93 577.206 295.485 577.889 294.386 578.987L281.032 592.348C279.329 594.078 277.15 595.262 274.772 595.748C272.394 596.235 269.925 596.002 267.68 595.08C265.435 594.158 263.515 592.589 262.165 590.571C260.815 588.554 260.096 586.181 260.101 583.753V566.588C260.144 565.887 260.453 565.229 260.964 564.749C261.475 564.268 262.151 564 262.853 564C263.555 564 264.23 564.268 264.742 564.749C265.253 565.229 265.562 565.887 265.605 566.588V573.453C267.274 572.355 269.186 571.682 271.175 571.493C273.164 571.304 275.168 571.604 277.014 572.369C278.86 573.133 280.49 574.338 281.763 575.877C283.036 577.417 283.912 579.245 284.316 581.201L290.496 575.022C292.212 573.306 294.399 572.139 296.78 571.669C299.161 571.199 301.628 571.448 303.867 572.384C306.106 573.32 308.017 574.901 309.355 576.925C310.693 578.95 311.399 581.326 311.383 583.753ZM258.268 583.753C258.274 586.605 257.282 589.369 255.464 591.566C253.647 593.764 251.119 595.257 248.317 595.787C245.515 596.317 242.616 595.851 240.121 594.469C237.627 593.087 235.694 590.876 234.657 588.22L239.315 583.562V583.755C239.319 585.308 239.861 586.812 240.849 588.011C241.837 589.209 243.21 590.028 244.734 590.328C246.258 590.629 247.839 590.391 249.208 589.657C250.576 588.923 251.648 587.737 252.241 586.301C252.834 584.866 252.911 583.269 252.459 581.783C252.007 580.297 251.053 579.014 249.762 578.151C248.47 577.289 246.919 576.901 245.373 577.053C243.828 577.206 242.382 577.889 241.284 578.987L227.883 592.4C226.172 594.111 223.992 595.276 221.619 595.747C219.246 596.219 216.786 595.976 214.551 595.05C212.316 594.124 210.406 592.556 209.061 590.544C207.717 588.533 207 586.167 207 583.748C207 581.329 207.717 578.964 209.061 576.952C210.406 574.94 212.316 573.372 214.551 572.446C216.786 571.52 219.246 571.277 221.619 571.749C223.992 572.221 226.172 573.385 227.883 575.096C228.138 575.353 228.341 575.657 228.478 575.993C228.616 576.328 228.687 576.687 228.685 577.049C228.684 577.412 228.612 577.771 228.472 578.105C228.333 578.439 228.129 578.743 227.872 578.999C227.614 579.254 227.31 579.456 226.974 579.594C226.639 579.732 226.28 579.802 225.918 579.801C225.555 579.8 225.197 579.728 224.862 579.588C224.528 579.448 224.224 579.244 223.969 578.987C223.027 578.048 221.828 577.41 220.523 577.152C219.218 576.894 217.866 577.028 216.638 577.538C215.41 578.048 214.36 578.911 213.621 580.017C212.883 581.123 212.489 582.423 212.489 583.753C212.489 585.083 212.883 586.383 213.621 587.49C214.36 588.596 215.41 589.458 216.638 589.968C217.866 590.478 219.218 590.613 220.523 590.355C221.828 590.097 223.027 589.458 223.969 588.519L237.392 575.061C239.105 573.345 241.288 572.177 243.666 571.705C246.044 571.233 248.508 571.479 250.746 572.412C252.984 573.344 254.893 574.92 256.233 576.941C257.572 578.961 258.281 581.334 258.268 583.758V583.753Z" fill="white"/>
<rect x="550" y="9" width="499" height="736" rx="23" fill="#1F32D6" fill-opacity="0.08"/>
<rect x="550" y="9" width="499" height="736" rx="23" stroke="#1F32D6" stroke-width="2"/>
<circle cx="800" cy="194" r="100" fill="white"/>
<mask id="mask1_2181_817" style="mask-type:alpha" maskUnits="userSpaceOnUse" x="754" y="148" width="92" height="92">
<path d="M763.502 239.815C766.201 239.815 768.904 239.815 771.603 239.815C772.385 239.815 772.777 239.41 772.777 238.601C772.777 234.576 772.787 230.551 772.766 226.526C772.762 225.885 772.896 225.639 773.602 225.646C777.754 225.679 781.909 225.65 786.061 225.679C786.706 225.682 786.884 225.494 786.88 224.864C786.858 220.763 786.887 216.662 786.851 212.557C786.844 211.811 787.003 211.554 787.807 211.564C791.934 211.608 796.06 211.575 800.19 211.593C800.719 211.593 801.088 211.441 801.458 211.064C803.313 209.173 805.211 207.322 807.066 205.431C807.435 205.054 807.751 204.975 808.261 205.119C817.579 207.793 826.256 206.395 834.059 200.653C840.91 195.606 844.83 188.723 845.667 180.227C846.569 171.12 843.783 163.179 837.331 156.716C830.813 150.18 822.8 147.416 813.605 148.34C806.099 149.093 799.81 152.387 794.864 158.045C789.006 164.747 786.731 172.612 787.92 181.445C788.112 182.876 788.485 184.289 788.865 185.687C789.021 186.259 788.938 186.6 788.517 187.017C781.866 193.621 775.229 200.243 768.596 206.866C763.98 211.474 759.365 216.082 754.775 220.712C754.474 221.013 754.242 221.534 754.242 221.954C754.206 227.61 754.232 233.265 754.206 238.923C754.206 239.612 754.376 239.844 755.097 239.833C757.898 239.793 760.702 239.815 763.506 239.815H763.502ZM813 171.044C813.022 165.599 817.391 161.226 822.814 161.215C828.103 161.204 832.559 165.646 832.577 170.953C832.596 176.467 828.183 180.807 822.557 180.807C817.405 180.807 812.978 176.282 813 171.047V171.044Z" fill="white"/>
</mask>
<g mask="url(#mask1_2181_817)">
<rect width="29.3653" height="119.684" transform="matrix(-0.656374 0.754435 -0.715431 -0.698683 829.03 225.445)" fill="#1F32D6" fill-opacity="0.3"/>
<rect width="41.3022" height="119.684" transform="matrix(-0.656374 0.754435 -0.715431 -0.698683 805.832 243.495)" fill="#1F32D6"/>
<rect width="59.5696" height="119.684" transform="matrix(-0.656374 0.754435 -0.715431 -0.698683 868.132 180.502)" fill="#1F32D6" fill-opacity="0.6"/>
</g>
<path d="M800 331.5L800 482" stroke="#1F32D6" stroke-width="2" stroke-dasharray="8 8"/>
<circle cx="800" cy="330" r="6" transform="rotate(-180 800 330)" fill="white" stroke="#1F32D6" stroke-width="4"/>
<circle cx="800" cy="484" r="6" transform="rotate(-180 800 484)" fill="white" stroke="#1F32D6" stroke-width="4"/>
<rect x="752" y="520" width="96" height="96" rx="48" fill="#1F32D6"/>
<path d="M800.32 570.58C800.133 570.553 799.893 570.553 799.68 570.58C794.987 570.42 791.253 566.58 791.253 561.86C791.253 557.033 795.147 553.113 800 553.113C804.827 553.113 808.747 557.033 808.747 561.86C808.72 566.58 805.013 570.42 800.32 570.58Z" stroke="white" stroke-width="3.5" stroke-linecap="round" stroke-linejoin="round"/>
<path d="M817.974 588.18C813.227 592.527 806.934 595.167 800 595.167C793.067 595.167 786.774 592.527 782.027 588.18C782.294 585.673 783.894 583.22 786.747 581.3C794.054 576.447 806 576.447 813.254 581.3C816.107 583.22 817.707 585.673 817.974 588.18Z" stroke="white" stroke-width="3.5" stroke-linecap="round" stroke-linejoin="round"/>
<path d="M800 595.167C814.728 595.167 826.667 583.228 826.667 568.5C826.667 553.773 814.728 541.833 800 541.833C785.273 541.833 773.333 553.773 773.333 568.5C773.333 583.228 785.273 595.167 800 595.167Z" stroke="white" stroke-width="3.5" stroke-linecap="round" stroke-linejoin="round"/>
<path d="M777.804 638.248V648.616C777.804 649.752 778.1 650.624 778.692 651.232C779.284 651.824 780.116 652.12 781.188 652.12C782.276 652.12 783.116 651.824 783.708 651.232C784.3 650.624 784.596 649.752 784.596 648.616V638.248H787.98V648.592C787.98 650.016 787.668 651.224 787.044 652.216C786.436 653.192 785.612 653.928 784.572 654.424C783.548 654.92 782.404 655.168 781.14 655.168C779.892 655.168 778.756 654.92 777.732 654.424C776.724 653.928 775.924 653.192 775.332 652.216C774.74 651.224 774.444 650.016 774.444 648.592V638.248H777.804ZM796.314 655.216C795.226 655.216 794.25 655.024 793.386 654.64C792.522 654.24 791.834 653.704 791.322 653.032C790.826 652.36 790.554 651.616 790.506 650.8H793.89C793.954 651.312 794.202 651.736 794.634 652.072C795.082 652.408 795.634 652.576 796.29 652.576C796.93 652.576 797.426 652.448 797.778 652.192C798.146 651.936 798.33 651.608 798.33 651.208C798.33 650.776 798.106 650.456 797.658 650.248C797.226 650.024 796.53 649.784 795.57 649.528C794.578 649.288 793.762 649.04 793.122 648.784C792.498 648.528 791.954 648.136 791.49 647.608C791.042 647.08 790.818 646.368 790.818 645.472C790.818 644.736 791.026 644.064 791.442 643.456C791.874 642.848 792.482 642.368 793.266 642.016C794.066 641.664 795.002 641.488 796.074 641.488C797.658 641.488 798.922 641.888 799.866 642.688C800.81 643.472 801.33 644.536 801.426 645.88H798.21C798.162 645.352 797.938 644.936 797.538 644.632C797.154 644.312 796.634 644.152 795.978 644.152C795.37 644.152 794.898 644.264 794.562 644.488C794.242 644.712 794.082 645.024 794.082 645.424C794.082 645.872 794.306 646.216 794.754 646.456C795.202 646.68 795.898 646.912 796.842 647.152C797.802 647.392 798.594 647.64 799.218 647.896C799.842 648.152 800.378 648.552 800.826 649.096C801.29 649.624 801.53 650.328 801.546 651.208C801.546 651.976 801.33 652.664 800.898 653.272C800.482 653.88 799.874 654.36 799.074 654.712C798.29 655.048 797.37 655.216 796.314 655.216ZM816.664 648.064C816.664 648.544 816.632 648.976 816.568 649.36H806.848C806.928 650.32 807.264 651.072 807.856 651.616C808.448 652.16 809.176 652.432 810.04 652.432C811.288 652.432 812.176 651.896 812.704 650.824H816.328C815.944 652.104 815.208 653.16 814.12 653.992C813.032 654.808 811.696 655.216 810.112 655.216C808.832 655.216 807.68 654.936 806.656 654.376C805.648 653.8 804.856 652.992 804.28 651.952C803.72 650.912 803.44 649.712 803.44 648.352C803.44 646.976 803.72 645.768 804.28 644.728C804.84 643.688 805.624 642.888 806.632 642.328C807.64 641.768 808.8 641.488 810.112 641.488C811.376 641.488 812.504 641.76 813.496 642.304C814.504 642.848 815.28 643.624 815.824 644.632C816.384 645.624 816.664 646.768 816.664 648.064ZM813.184 647.104C813.168 646.24 812.856 645.552 812.248 645.04C811.64 644.512 810.896 644.248 810.016 644.248C809.184 644.248 808.48 644.504 807.904 645.016C807.344 645.512 807 646.208 806.872 647.104H813.184ZM822.477 643.768C822.909 643.064 823.469 642.512 824.157 642.112C824.861 641.712 825.661 641.512 826.557 641.512V645.04H825.669C824.613 645.04 823.813 645.288 823.269 645.784C822.741 646.28 822.477 647.144 822.477 648.376V655H819.117V641.704H822.477V643.768Z" fill="#1F32D6"/>
<rect x="1091" y="9" width="499" height="736" rx="23" fill="black" fill-opacity="0.08"/>
<rect x="1091" y="9" width="499" height="736" rx="23" stroke="black" stroke-width="2"/>
<circle cx="1341" cy="194" r="100" fill="white"/>
<mask id="mask2_2181_817" style="mask-type:alpha" maskUnits="userSpaceOnUse" x="1295" y="148" width="92" height="92">
<path d="M1304.5 239.815C1307.2 239.815 1309.9 239.815 1312.6 239.815C1313.39 239.815 1313.78 239.41 1313.78 238.601C1313.78 234.576 1313.79 230.551 1313.77 226.526C1313.76 225.885 1313.9 225.639 1314.6 225.646C1318.75 225.679 1322.91 225.65 1327.06 225.679C1327.71 225.682 1327.88 225.494 1327.88 224.864C1327.86 220.763 1327.89 216.662 1327.85 212.557C1327.84 211.811 1328 211.554 1328.81 211.564C1332.93 211.608 1337.06 211.575 1341.19 211.593C1341.72 211.593 1342.09 211.441 1342.46 211.064C1344.31 209.173 1346.21 207.322 1348.07 205.431C1348.44 205.054 1348.75 204.975 1349.26 205.119C1358.58 207.793 1367.26 206.395 1375.06 200.653C1381.91 195.606 1385.83 188.723 1386.67 180.227C1387.57 171.12 1384.78 163.179 1378.33 156.716C1371.81 150.18 1363.8 147.416 1354.61 148.34C1347.1 149.093 1340.81 152.387 1335.86 158.045C1330.01 164.747 1327.73 172.612 1328.92 181.445C1329.11 182.876 1329.48 184.289 1329.87 185.687C1330.02 186.259 1329.94 186.6 1329.52 187.017C1322.87 193.621 1316.23 200.243 1309.6 206.866C1304.98 211.474 1300.37 216.082 1295.77 220.712C1295.47 221.013 1295.24 221.534 1295.24 221.954C1295.21 227.61 1295.23 233.265 1295.21 238.923C1295.21 239.612 1295.38 239.844 1296.1 239.833C1298.9 239.793 1301.7 239.815 1304.51 239.815H1304.5ZM1354 171.044C1354.02 165.599 1358.39 161.226 1363.81 161.215C1369.1 161.204 1373.56 165.646 1373.58 170.953C1373.6 176.467 1369.18 180.807 1363.56 180.807C1358.41 180.807 1353.98 176.282 1354 171.047V171.044Z" fill="white"/>
</mask>
<g mask="url(#mask2_2181_817)">
<rect width="29.3653" height="119.684" transform="matrix(-0.656374 0.754435 -0.715431 -0.698683 1370.03 225.445)" fill="black"/>
<rect width="41.3022" height="119.684" transform="matrix(-0.656374 0.754435 -0.715431 -0.698683 1346.83 243.495)" fill="black" fill-opacity="0.6"/>
<rect width="59.5696" height="119.684" transform="matrix(-0.656374 0.754435 -0.715431 -0.698683 1409.13 180.502)" fill="black" fill-opacity="0.3"/>
</g>
<path d="M1341 331.5L1341 482" stroke="black" stroke-width="2" stroke-dasharray="8 8"/>
<circle cx="1341" cy="330" r="6" transform="rotate(-180 1341 330)" fill="white" stroke="black" stroke-width="4"/>
<circle cx="1341" cy="484" r="6" transform="rotate(-180 1341 484)" fill="white" stroke="black" stroke-width="4"/>
<rect x="1293" y="520" width="96" height="96" rx="48" fill="black"/>
<path d="M1319 588.5H1363" stroke="white" stroke-width="3.5" stroke-miterlimit="10" stroke-linecap="round" stroke-linejoin="round"/>
<path d="M1356.56 588.52V579.6" stroke="white" stroke-width="3.5" stroke-miterlimit="10" stroke-linecap="round" stroke-linejoin="round"/>
<path d="M1356.6 566.28C1354.16 566.28 1352.2 568.24 1352.2 570.68V575.22C1352.2 577.66 1354.16 579.62 1356.6 579.62C1359.04 579.62 1361 577.66 1361 575.22V570.68C1361 568.24 1359.04 566.28 1356.6 566.28Z" stroke="white" stroke-width="3.5" stroke-miterlimit="10" stroke-linecap="round" stroke-linejoin="round"/>
<path d="M1321.2 588.5V556.56C1321.2 552.54 1323.2 550.52 1327.18 550.52H1339.64C1343.62 550.52 1345.6 552.54 1345.6 556.56V588.5" stroke="white" stroke-width="3.5" stroke-miterlimit="10" stroke-linecap="round" stroke-linejoin="round"/>
<path d="M1328.6 561H1338.5" stroke="white" stroke-width="3.5" stroke-miterlimit="10" stroke-linecap="round" stroke-linejoin="round"/>
<path d="M1328.6 568.5H1338.5" stroke="white" stroke-width="3.5" stroke-miterlimit="10" stroke-linecap="round" stroke-linejoin="round"/>
<path d="M1333.5 588.5V581" stroke="white" stroke-width="3.5" stroke-miterlimit="10" stroke-linecap="round" stroke-linejoin="round"/>
<path d="M1271.11 655.168C1269.54 655.168 1268.1 654.8 1266.79 654.064C1265.48 653.328 1264.44 652.312 1263.67 651.016C1262.9 649.704 1262.52 648.224 1262.52 646.576C1262.52 644.944 1262.9 643.48 1263.67 642.184C1264.44 640.872 1265.48 639.848 1266.79 639.112C1268.1 638.376 1269.54 638.008 1271.11 638.008C1272.69 638.008 1274.13 638.376 1275.43 639.112C1276.74 639.848 1277.77 640.872 1278.52 642.184C1279.29 643.48 1279.68 644.944 1279.68 646.576C1279.68 648.224 1279.29 649.704 1278.52 651.016C1277.77 652.312 1276.74 653.328 1275.43 654.064C1274.12 654.8 1272.68 655.168 1271.11 655.168ZM1271.11 652.168C1272.12 652.168 1273 651.944 1273.77 651.496C1274.54 651.032 1275.14 650.376 1275.57 649.528C1276 648.68 1276.22 647.696 1276.22 646.576C1276.22 645.456 1276 644.48 1275.57 643.648C1275.14 642.8 1274.54 642.152 1273.77 641.704C1273 641.256 1272.12 641.032 1271.11 641.032C1270.1 641.032 1269.2 641.256 1268.42 641.704C1267.65 642.152 1267.05 642.8 1266.62 643.648C1266.19 644.48 1265.97 645.456 1265.97 646.576C1265.97 647.696 1266.19 648.68 1266.62 649.528C1267.05 650.376 1267.65 651.032 1268.42 651.496C1269.2 651.944 1270.1 652.168 1271.11 652.168ZM1285.54 643.768C1285.97 643.064 1286.53 642.512 1287.22 642.112C1287.92 641.712 1288.72 641.512 1289.62 641.512V645.04H1288.73C1287.67 645.04 1286.87 645.288 1286.33 645.784C1285.8 646.28 1285.54 647.144 1285.54 648.376V655H1282.18V641.704H1285.54V643.768ZM1297.09 641.488C1298.08 641.488 1298.95 641.688 1299.7 642.088C1300.45 642.472 1301.05 642.976 1301.48 643.6V641.704H1304.86V655.096C1304.86 656.328 1304.61 657.424 1304.12 658.384C1303.62 659.36 1302.88 660.128 1301.89 660.688C1300.89 661.264 1299.69 661.552 1298.29 661.552C1296.4 661.552 1294.85 661.112 1293.63 660.232C1292.43 659.352 1291.75 658.152 1291.59 656.632H1294.93C1295.1 657.24 1295.48 657.72 1296.05 658.072C1296.65 658.44 1297.36 658.624 1298.19 658.624C1299.17 658.624 1299.96 658.328 1300.57 657.736C1301.17 657.16 1301.48 656.28 1301.48 655.096V653.032C1301.05 653.656 1300.45 654.176 1299.68 654.592C1298.93 655.008 1298.06 655.216 1297.09 655.216C1295.97 655.216 1294.94 654.928 1294.01 654.352C1293.09 653.776 1292.35 652.968 1291.81 651.928C1291.28 650.872 1291.01 649.664 1291.01 648.304C1291.01 646.96 1291.28 645.768 1291.81 644.728C1292.35 643.688 1293.08 642.888 1293.99 642.328C1294.92 641.768 1295.95 641.488 1297.09 641.488ZM1301.48 648.352C1301.48 647.536 1301.32 646.84 1301 646.264C1300.68 645.672 1300.25 645.224 1299.7 644.92C1299.16 644.6 1298.57 644.44 1297.95 644.44C1297.33 644.44 1296.75 644.592 1296.22 644.896C1295.69 645.2 1295.26 645.648 1294.93 646.24C1294.61 646.816 1294.45 647.504 1294.45 648.304C1294.45 649.104 1294.61 649.808 1294.93 650.416C1295.26 651.008 1295.69 651.464 1296.22 651.784C1296.77 652.104 1297.34 652.264 1297.95 652.264C1298.57 652.264 1299.16 652.112 1299.7 651.808C1300.25 651.488 1300.68 651.04 1301 650.464C1301.32 649.872 1301.48 649.168 1301.48 648.352ZM1307.28 648.304C1307.28 646.96 1307.54 645.768 1308.07 644.728C1308.62 643.688 1309.34 642.888 1310.26 642.328C1311.18 641.768 1312.22 641.488 1313.35 641.488C1314.34 641.488 1315.21 641.688 1315.94 642.088C1316.7 642.488 1317.3 642.992 1317.74 643.6V641.704H1321.13V655H1317.74V653.056C1317.31 653.68 1316.71 654.2 1315.94 654.616C1315.19 655.016 1314.32 655.216 1313.33 655.216C1312.21 655.216 1311.18 654.928 1310.26 654.352C1309.34 653.776 1308.62 652.968 1308.07 651.928C1307.54 650.872 1307.28 649.664 1307.28 648.304ZM1317.74 648.352C1317.74 647.536 1317.58 646.84 1317.26 646.264C1316.94 645.672 1316.51 645.224 1315.97 644.92C1315.42 644.6 1314.84 644.44 1314.22 644.44C1313.59 644.44 1313.02 644.592 1312.49 644.896C1311.96 645.2 1311.53 645.648 1311.19 646.24C1310.87 646.816 1310.71 647.504 1310.71 648.304C1310.71 649.104 1310.87 649.808 1311.19 650.416C1311.53 651.008 1311.96 651.464 1312.49 651.784C1313.03 652.104 1313.61 652.264 1314.22 652.264C1314.84 652.264 1315.42 652.112 1315.97 651.808C1316.51 651.488 1316.94 651.04 1317.26 650.464C1317.58 649.872 1317.74 649.168 1317.74 648.352ZM1331.78 641.512C1333.36 641.512 1334.64 642.016 1335.62 643.024C1336.59 644.016 1337.08 645.408 1337.08 647.2V655H1333.72V647.656C1333.72 646.6 1333.46 645.792 1332.93 645.232C1332.4 644.656 1331.68 644.368 1330.77 644.368C1329.84 644.368 1329.11 644.656 1328.56 645.232C1328.03 645.792 1327.77 646.6 1327.77 647.656V655H1324.41V641.704H1327.77V643.36C1328.22 642.784 1328.79 642.336 1329.47 642.016C1330.18 641.68 1330.95 641.512 1331.78 641.512ZM1341.98 640.12C1341.39 640.12 1340.89 639.936 1340.49 639.568C1340.11 639.184 1339.92 638.712 1339.92 638.152C1339.92 637.592 1340.11 637.128 1340.49 636.76C1340.89 636.376 1341.39 636.184 1341.98 636.184C1342.57 636.184 1343.06 636.376 1343.45 636.76C1343.85 637.128 1344.05 637.592 1344.05 638.152C1344.05 638.712 1343.85 639.184 1343.45 639.568C1343.06 639.936 1342.57 640.12 1341.98 640.12ZM1343.64 641.704V655H1340.28V641.704H1343.64ZM1350.03 652.24H1355.96V655H1346.21V652.288L1352.02 644.464H1346.24V641.704H1355.88V644.416L1350.03 652.24ZM1357.69 648.304C1357.69 646.96 1357.96 645.768 1358.49 644.728C1359.03 643.688 1359.76 642.888 1360.67 642.328C1361.6 641.768 1362.63 641.488 1363.77 641.488C1364.76 641.488 1365.62 641.688 1366.36 642.088C1367.11 642.488 1367.71 642.992 1368.16 643.6V641.704H1371.54V655H1368.16V653.056C1367.73 653.68 1367.13 654.2 1366.36 654.616C1365.61 655.016 1364.73 655.216 1363.74 655.216C1362.62 655.216 1361.6 654.928 1360.67 654.352C1359.76 653.776 1359.03 652.968 1358.49 651.928C1357.96 650.872 1357.69 649.664 1357.69 648.304ZM1368.16 648.352C1368.16 647.536 1368 646.84 1367.68 646.264C1367.36 645.672 1366.93 645.224 1366.38 644.92C1365.84 644.6 1365.25 644.44 1364.63 644.44C1364.01 644.44 1363.43 644.592 1362.9 644.896C1362.37 645.2 1361.94 645.648 1361.61 646.24C1361.29 646.816 1361.13 647.504 1361.13 648.304C1361.13 649.104 1361.29 649.808 1361.61 650.416C1361.94 651.008 1362.37 651.464 1362.9 651.784C1363.45 652.104 1364.02 652.264 1364.63 652.264C1365.25 652.264 1365.84 652.112 1366.38 651.808C1366.93 651.488 1367.36 651.04 1367.68 650.464C1368 649.872 1368.16 649.168 1368.16 648.352ZM1378.74 644.464V650.896C1378.74 651.344 1378.84 651.672 1379.05 651.88C1379.27 652.072 1379.64 652.168 1380.15 652.168H1381.71V655H1379.6C1376.77 655 1375.35 653.624 1375.35 650.872V644.464H1373.77V641.704H1375.35V638.416H1378.74V641.704H1381.71V644.464H1378.74ZM1385.83 640.12C1385.24 640.12 1384.74 639.936 1384.34 639.568C1383.96 639.184 1383.77 638.712 1383.77 638.152C1383.77 637.592 1383.96 637.128 1384.34 636.76C1384.74 636.376 1385.24 636.184 1385.83 636.184C1386.42 636.184 1386.91 636.376 1387.3 636.76C1387.7 637.128 1387.9 637.592 1387.9 638.152C1387.9 638.712 1387.7 639.184 1387.3 639.568C1386.91 639.936 1386.42 640.12 1385.83 640.12ZM1387.49 641.704V655H1384.13V641.704H1387.49ZM1396.71 655.216C1395.43 655.216 1394.28 654.936 1393.26 654.376C1392.23 653.8 1391.42 652.992 1390.83 651.952C1390.26 650.912 1389.97 649.712 1389.97 648.352C1389.97 646.992 1390.26 645.792 1390.86 644.752C1391.46 643.712 1392.29 642.912 1393.33 642.352C1394.37 641.776 1395.53 641.488 1396.81 641.488C1398.09 641.488 1399.25 641.776 1400.29 642.352C1401.33 642.912 1402.14 643.712 1402.74 644.752C1403.34 645.792 1403.65 646.992 1403.65 648.352C1403.65 649.712 1403.34 650.912 1402.71 651.952C1402.1 652.992 1401.27 653.8 1400.22 654.376C1399.18 654.936 1398.01 655.216 1396.71 655.216ZM1396.71 652.288C1397.32 652.288 1397.89 652.144 1398.42 651.856C1398.96 651.552 1399.39 651.104 1399.71 650.512C1400.03 649.92 1400.19 649.2 1400.19 648.352C1400.19 647.088 1399.86 646.12 1399.18 645.448C1398.53 644.76 1397.72 644.416 1396.76 644.416C1395.8 644.416 1394.99 644.76 1394.34 645.448C1393.7 646.12 1393.38 647.088 1393.38 648.352C1393.38 649.616 1393.69 650.592 1394.31 651.28C1394.95 651.952 1395.75 652.288 1396.71 652.288ZM1413.48 641.512C1415.07 641.512 1416.35 642.016 1417.32 643.024C1418.3 644.016 1418.79 645.408 1418.79 647.2V655H1415.43V647.656C1415.43 646.6 1415.16 645.792 1414.63 645.232C1414.11 644.656 1413.39 644.368 1412.47 644.368C1411.55 644.368 1410.81 644.656 1410.27 645.232C1409.74 645.792 1409.47 646.6 1409.47 647.656V655H1406.11V641.704H1409.47V643.36C1409.92 642.784 1410.49 642.336 1411.18 642.016C1411.88 641.68 1412.65 641.512 1413.48 641.512Z" fill="black"/>
<path d="M1287.77 55.248V72H1284.41V64.872H1277.23V72H1273.87V55.248H1277.23V62.136H1284.41V55.248H1287.77ZM1303.43 65.064C1303.43 65.544 1303.4 65.976 1303.34 66.36H1293.62C1293.7 67.32 1294.03 68.072 1294.63 68.616C1295.22 69.16 1295.95 69.432 1296.81 69.432C1298.06 69.432 1298.95 68.896 1299.47 67.824H1303.1C1302.71 69.104 1301.98 70.16 1300.89 70.992C1299.8 71.808 1298.47 72.216 1296.88 72.216C1295.6 72.216 1294.45 71.936 1293.43 71.376C1292.42 70.8 1291.63 69.992 1291.05 68.952C1290.49 67.912 1290.21 66.712 1290.21 65.352C1290.21 63.976 1290.49 62.768 1291.05 61.728C1291.61 60.688 1292.39 59.888 1293.4 59.328C1294.41 58.768 1295.57 58.488 1296.88 58.488C1298.15 58.488 1299.27 58.76 1300.27 59.304C1301.27 59.848 1302.05 60.624 1302.59 61.632C1303.15 62.624 1303.43 63.768 1303.43 65.064ZM1299.95 64.104C1299.94 63.24 1299.63 62.552 1299.02 62.04C1298.41 61.512 1297.67 61.248 1296.79 61.248C1295.95 61.248 1295.25 61.504 1294.67 62.016C1294.11 62.512 1293.77 63.208 1293.64 64.104H1299.95ZM1309.25 54.24V72H1305.89V54.24H1309.25ZM1311.7 65.304C1311.7 63.96 1311.97 62.768 1312.49 61.728C1313.04 60.688 1313.77 59.888 1314.7 59.328C1315.63 58.768 1316.66 58.488 1317.8 58.488C1318.66 58.488 1319.49 58.68 1320.27 59.064C1321.05 59.432 1321.68 59.928 1322.14 60.552V54.24H1325.55V72H1322.14V70.032C1321.73 70.688 1321.14 71.216 1320.39 71.616C1319.64 72.016 1318.77 72.216 1317.77 72.216C1316.65 72.216 1315.63 71.928 1314.7 71.352C1313.77 70.776 1313.04 69.968 1312.49 68.928C1311.97 67.872 1311.7 66.664 1311.7 65.304ZM1322.17 65.352C1322.17 64.536 1322.01 63.84 1321.69 63.264C1321.37 62.672 1320.93 62.224 1320.39 61.92C1319.85 61.6 1319.26 61.44 1318.64 61.44C1318.01 61.44 1317.44 61.592 1316.91 61.896C1316.38 62.2 1315.95 62.648 1315.61 63.24C1315.29 63.816 1315.13 64.504 1315.13 65.304C1315.13 66.104 1315.29 66.808 1315.61 67.416C1315.95 68.008 1316.38 68.464 1316.91 68.784C1317.45 69.104 1318.03 69.264 1318.64 69.264C1319.26 69.264 1319.85 69.112 1320.39 68.808C1320.93 68.488 1321.37 68.04 1321.69 67.464C1322.01 66.872 1322.17 66.168 1322.17 65.352ZM1340.45 72.216C1339.17 72.216 1338.02 71.936 1337 71.376C1335.97 70.8 1335.17 69.992 1334.57 68.952C1334 67.912 1333.71 66.712 1333.71 65.352C1333.71 63.992 1334.01 62.792 1334.6 61.752C1335.21 60.712 1336.03 59.912 1337.07 59.352C1338.11 58.776 1339.27 58.488 1340.55 58.488C1341.83 58.488 1342.99 58.776 1344.03 59.352C1345.07 59.912 1345.89 60.712 1346.48 61.752C1347.09 62.792 1347.39 63.992 1347.39 65.352C1347.39 66.712 1347.08 67.912 1346.45 68.952C1345.85 69.992 1345.01 70.8 1343.96 71.376C1342.92 71.936 1341.75 72.216 1340.45 72.216ZM1340.45 69.288C1341.06 69.288 1341.63 69.144 1342.16 68.856C1342.7 68.552 1343.13 68.104 1343.45 67.512C1343.77 66.92 1343.93 66.2 1343.93 65.352C1343.93 64.088 1343.6 63.12 1342.93 62.448C1342.27 61.76 1341.46 61.416 1340.5 61.416C1339.54 61.416 1338.73 61.76 1338.08 62.448C1337.44 63.12 1337.12 64.088 1337.12 65.352C1337.12 66.616 1337.43 67.592 1338.05 68.28C1338.69 68.952 1339.49 69.288 1340.45 69.288ZM1355.95 61.464H1353.62V72H1350.22V61.464H1348.7V58.704H1350.22V58.032C1350.22 56.4 1350.68 55.2 1351.61 54.432C1352.54 53.664 1353.94 53.304 1355.81 53.352V56.184C1354.99 56.168 1354.42 56.304 1354.1 56.592C1353.78 56.88 1353.62 57.4 1353.62 58.152V58.704H1355.95V61.464ZM1364.22 61.464H1361.9V72H1358.49V61.464H1356.98V58.704H1358.49V58.032C1358.49 56.4 1358.95 55.2 1359.88 54.432C1360.81 53.664 1362.21 53.304 1364.08 53.352V56.184C1363.26 56.168 1362.7 56.304 1362.38 56.592C1362.06 56.88 1361.9 57.4 1361.9 58.152V58.704H1364.22V61.464ZM1369.76 54.24V72H1366.4V54.24H1369.76ZM1374.79 57.12C1374.19 57.12 1373.7 56.936 1373.3 56.568C1372.91 56.184 1372.72 55.712 1372.72 55.152C1372.72 54.592 1372.91 54.128 1373.3 53.76C1373.7 53.376 1374.19 53.184 1374.79 53.184C1375.38 53.184 1375.87 53.376 1376.25 53.76C1376.65 54.128 1376.85 54.592 1376.85 55.152C1376.85 55.712 1376.65 56.184 1376.25 56.568C1375.87 56.936 1375.38 57.12 1374.79 57.12ZM1376.44 58.704V72H1373.08V58.704H1376.44ZM1387.13 58.512C1388.71 58.512 1389.99 59.016 1390.97 60.024C1391.95 61.016 1392.43 62.408 1392.43 64.2V72H1389.07V64.656C1389.07 63.6 1388.81 62.792 1388.28 62.232C1387.75 61.656 1387.03 61.368 1386.12 61.368C1385.19 61.368 1384.46 61.656 1383.91 62.232C1383.39 62.792 1383.12 63.6 1383.12 64.656V72H1379.76V58.704H1383.12V60.36C1383.57 59.784 1384.14 59.336 1384.83 59.016C1385.53 58.68 1386.3 58.512 1387.13 58.512ZM1407.99 65.064C1407.99 65.544 1407.96 65.976 1407.89 66.36H1398.17C1398.25 67.32 1398.59 68.072 1399.18 68.616C1399.77 69.16 1400.5 69.432 1401.36 69.432C1402.61 69.432 1403.5 68.896 1404.03 67.824H1407.65C1407.27 69.104 1406.53 70.16 1405.44 70.992C1404.36 71.808 1403.02 72.216 1401.44 72.216C1400.16 72.216 1399 71.936 1397.98 71.376C1396.97 70.8 1396.18 69.992 1395.6 68.952C1395.04 67.912 1394.76 66.712 1394.76 65.352C1394.76 63.976 1395.04 62.768 1395.6 61.728C1396.16 60.688 1396.95 59.888 1397.96 59.328C1398.96 58.768 1400.12 58.488 1401.44 58.488C1402.7 58.488 1403.83 58.76 1404.82 59.304C1405.83 59.848 1406.6 60.624 1407.15 61.632C1407.71 62.624 1407.99 63.768 1407.99 65.064ZM1404.51 64.104C1404.49 63.24 1404.18 62.552 1403.57 62.04C1402.96 61.512 1402.22 61.248 1401.34 61.248C1400.51 61.248 1399.8 61.504 1399.23 62.016C1398.67 62.512 1398.32 63.208 1398.2 64.104H1404.51Z" fill="#666666"/>
</svg>
