<svg width="1600" height="754" viewBox="0 0 1600 754" fill="none" xmlns="http://www.w3.org/2000/svg">
<rect width="1600" height="754" fill="white"/>
<rect x="9" y="9" width="499" height="736" rx="23" fill="#1F32D6" fill-opacity="0.08"/>
<rect x="9" y="9" width="499" height="736" rx="23" stroke="#1F32D6" stroke-width="2"/>
<circle cx="259" cy="194" r="100" fill="white"/>
<mask id="mask0_3816_3841" style="mask-type:alpha" maskUnits="userSpaceOnUse" x="213" y="148" width="92" height="92">
<path d="M222.502 239.815C225.201 239.815 227.904 239.815 230.602 239.815C231.385 239.815 231.776 239.411 231.776 238.602C231.776 234.577 231.787 230.552 231.765 226.527C231.762 225.886 231.896 225.639 232.602 225.647C236.754 225.679 240.909 225.65 245.061 225.679C245.706 225.683 245.883 225.494 245.88 224.864C245.858 220.763 245.887 216.662 245.851 212.557C245.843 211.811 246.003 211.554 246.807 211.565C250.933 211.608 255.06 211.576 259.19 211.594C259.719 211.594 260.088 211.442 260.458 211.065C262.313 209.174 264.211 207.323 266.066 205.432C266.435 205.055 266.75 204.975 267.261 205.12C276.579 207.794 285.255 206.395 293.059 200.653C299.91 195.607 303.829 188.723 304.666 180.228C305.568 171.12 302.782 163.179 296.33 156.716C289.813 150.181 281.799 147.417 272.605 148.34C265.098 149.094 258.809 152.387 253.864 158.046C248.006 164.748 245.731 172.613 246.919 181.445C247.111 182.876 247.485 184.289 247.865 185.687C248.021 186.26 247.937 186.6 247.517 187.017C240.866 193.621 234.229 200.244 227.596 206.866C222.98 211.474 218.365 216.082 213.775 220.712C213.474 221.013 213.242 221.535 213.242 221.955C213.206 227.61 213.231 233.265 213.206 238.924C213.206 239.612 213.376 239.844 214.097 239.833C216.898 239.793 219.702 239.815 222.506 239.815H222.502ZM272 171.044C272.022 165.599 276.391 161.227 281.814 161.216C287.103 161.205 291.559 165.646 291.577 170.954C291.595 176.468 287.183 180.808 281.557 180.808C276.405 180.808 271.978 176.283 272 171.048V171.044Z" fill="white"/>
</mask>
<g mask="url(#mask0_3816_3841)">
<rect width="29.3653" height="119.684" transform="matrix(-0.656374 0.754435 -0.715431 -0.698683 288.031 225.445)" fill="#1F32D6" fill-opacity="0.6"/>
<rect width="41.3022" height="119.684" transform="matrix(-0.656374 0.754435 -0.715431 -0.698683 264.832 243.495)" fill="#1F32D6" fill-opacity="0.3"/>
<rect width="59.5696" height="119.684" transform="matrix(-0.656374 0.754435 -0.715431 -0.698683 327.132 180.502)" fill="#1F32D6"/>
</g>
<path d="M259 331.5L259 482" stroke="#1F32D6" stroke-width="2" stroke-dasharray="8 8"/>
<circle cx="259" cy="330" r="6" transform="rotate(-180 259 330)" fill="white" stroke="#1F32D6" stroke-width="4"/>
<circle cx="259" cy="484" r="6" transform="rotate(-180 259 484)" fill="white" stroke="#1F32D6" stroke-width="4"/>
<rect x="160" y="521" width="198" height="118" rx="15" fill="#1F32D6"/>
<rect x="160" y="521" width="198" height="118" rx="15" stroke="#1F32D6" stroke-width="2"/>
<path d="M279.062 583.753C279.062 582.422 278.667 581.122 277.927 580.015C277.187 578.909 276.136 578.047 274.907 577.537C273.677 577.028 272.324 576.895 271.019 577.155C269.714 577.415 268.515 578.056 267.574 578.997C266.633 579.939 265.992 581.138 265.733 582.443C265.473 583.748 265.607 585.101 266.116 586.331C266.625 587.56 267.488 588.611 268.594 589.35C269.701 590.09 271.002 590.484 272.333 590.484C273.217 590.484 274.092 590.31 274.908 589.972C275.725 589.634 276.467 589.138 277.092 588.513C277.717 587.888 278.212 587.146 278.55 586.329C278.888 585.512 279.062 584.637 279.062 583.753ZM311.383 583.753C311.38 586.602 310.384 589.361 308.565 591.554C306.746 593.747 304.219 595.236 301.42 595.766C298.621 596.295 295.724 595.831 293.231 594.453C290.737 593.076 288.802 590.871 287.76 588.22L292.418 583.562V583.755C292.422 585.308 292.964 586.812 293.952 588.011C294.94 589.209 296.313 590.028 297.837 590.328C299.36 590.629 300.941 590.391 302.31 589.657C303.679 588.923 304.751 587.737 305.343 586.301C305.936 584.866 306.013 583.269 305.561 581.783C305.109 580.297 304.156 579.014 302.864 578.151C301.572 577.289 300.021 576.901 298.476 577.053C296.93 577.206 295.485 577.889 294.386 578.987L281.032 592.348C279.329 594.078 277.15 595.262 274.772 595.748C272.394 596.235 269.925 596.002 267.68 595.08C265.435 594.158 263.515 592.589 262.165 590.571C260.815 588.554 260.096 586.181 260.101 583.753V566.588C260.144 565.887 260.453 565.229 260.964 564.749C261.475 564.268 262.151 564 262.853 564C263.555 564 264.23 564.268 264.742 564.749C265.253 565.229 265.562 565.887 265.605 566.588V573.453C267.274 572.355 269.186 571.682 271.175 571.493C273.164 571.304 275.168 571.604 277.014 572.369C278.86 573.133 280.49 574.338 281.763 575.877C283.036 577.417 283.912 579.245 284.316 581.201L290.496 575.022C292.212 573.306 294.399 572.139 296.78 571.669C299.161 571.199 301.628 571.448 303.867 572.384C306.106 573.32 308.017 574.901 309.355 576.925C310.693 578.95 311.399 581.326 311.383 583.753ZM258.268 583.753C258.274 586.605 257.282 589.369 255.464 591.566C253.647 593.764 251.119 595.257 248.317 595.787C245.515 596.317 242.616 595.851 240.121 594.469C237.627 593.087 235.694 590.876 234.657 588.22L239.315 583.562V583.755C239.319 585.308 239.861 586.812 240.849 588.011C241.837 589.209 243.21 590.028 244.734 590.328C246.258 590.629 247.839 590.391 249.208 589.657C250.576 588.923 251.648 587.737 252.241 586.301C252.834 584.866 252.911 583.269 252.459 581.783C252.007 580.297 251.053 579.014 249.762 578.151C248.47 577.289 246.919 576.901 245.373 577.053C243.828 577.206 242.382 577.889 241.284 578.987L227.883 592.4C226.172 594.111 223.992 595.276 221.619 595.747C219.246 596.219 216.786 595.976 214.551 595.05C212.316 594.124 210.406 592.556 209.061 590.544C207.717 588.533 207 586.167 207 583.748C207 581.329 207.717 578.964 209.061 576.952C210.406 574.94 212.316 573.372 214.551 572.446C216.786 571.52 219.246 571.277 221.619 571.749C223.992 572.221 226.172 573.385 227.883 575.096C228.138 575.353 228.341 575.657 228.478 575.993C228.616 576.328 228.687 576.687 228.685 577.049C228.684 577.412 228.612 577.771 228.472 578.105C228.333 578.439 228.129 578.743 227.872 578.999C227.614 579.254 227.31 579.456 226.974 579.594C226.639 579.732 226.28 579.802 225.918 579.801C225.555 579.8 225.197 579.728 224.862 579.588C224.528 579.448 224.224 579.244 223.969 578.987C223.027 578.048 221.828 577.41 220.523 577.152C219.218 576.894 217.866 577.028 216.638 577.538C215.41 578.048 214.36 578.911 213.621 580.017C212.883 581.123 212.489 582.423 212.489 583.753C212.489 585.083 212.883 586.383 213.621 587.49C214.36 588.596 215.41 589.458 216.638 589.968C217.866 590.478 219.218 590.613 220.523 590.355C221.828 590.097 223.027 589.458 223.969 588.519L237.392 575.061C239.105 573.345 241.288 572.177 243.666 571.705C246.044 571.233 248.508 571.479 250.746 572.412C252.984 573.344 254.893 574.92 256.233 576.941C257.572 578.961 258.281 581.334 258.268 583.758V583.753Z" fill="white"/>
<rect x="550" y="9" width="499" height="736" rx="23" fill="#1F32D6" fill-opacity="0.08"/>
<rect x="550" y="9" width="499" height="736" rx="23" stroke="#1F32D6" stroke-width="2"/>
<circle cx="800" cy="194" r="100" fill="white"/>
<mask id="mask1_3816_3841" style="mask-type:alpha" maskUnits="userSpaceOnUse" x="754" y="148" width="92" height="92">
<path d="M763.502 239.815C766.201 239.815 768.904 239.815 771.603 239.815C772.385 239.815 772.777 239.411 772.777 238.602C772.777 234.577 772.787 230.552 772.766 226.527C772.762 225.886 772.896 225.639 773.602 225.647C777.754 225.679 781.909 225.65 786.061 225.679C786.706 225.683 786.884 225.494 786.88 224.864C786.858 220.763 786.887 216.662 786.851 212.557C786.844 211.811 787.003 211.554 787.807 211.565C791.934 211.608 796.06 211.576 800.19 211.594C800.719 211.594 801.088 211.442 801.458 211.065C803.313 209.174 805.211 207.323 807.066 205.432C807.435 205.055 807.751 204.975 808.261 205.12C817.579 207.794 826.256 206.395 834.059 200.653C840.91 195.607 844.83 188.723 845.667 180.228C846.569 171.12 843.783 163.179 837.331 156.716C830.813 150.181 822.8 147.417 813.605 148.34C806.099 149.094 799.81 152.387 794.864 158.046C789.006 164.748 786.731 172.613 787.92 181.445C788.112 182.876 788.485 184.289 788.865 185.687C789.021 186.26 788.938 186.6 788.517 187.017C781.866 193.621 775.229 200.244 768.596 206.866C763.98 211.474 759.365 216.082 754.775 220.712C754.474 221.013 754.242 221.535 754.242 221.955C754.206 227.61 754.232 233.265 754.206 238.924C754.206 239.612 754.376 239.844 755.097 239.833C757.898 239.793 760.702 239.815 763.506 239.815H763.502ZM813 171.044C813.022 165.599 817.391 161.227 822.814 161.216C828.103 161.205 832.559 165.646 832.577 170.954C832.596 176.468 828.183 180.808 822.557 180.808C817.405 180.808 812.978 176.283 813 171.048V171.044Z" fill="white"/>
</mask>
<g mask="url(#mask1_3816_3841)">
<rect width="29.3653" height="119.684" transform="matrix(-0.656374 0.754435 -0.715431 -0.698683 829.03 225.445)" fill="#1F32D6" fill-opacity="0.3"/>
<rect width="41.3022" height="119.684" transform="matrix(-0.656374 0.754435 -0.715431 -0.698683 805.832 243.495)" fill="#1F32D6"/>
<rect width="59.5696" height="119.684" transform="matrix(-0.656374 0.754435 -0.715431 -0.698683 868.132 180.502)" fill="#1F32D6" fill-opacity="0.6"/>
</g>
<path d="M800 331.5L800 482" stroke="#1F32D6" stroke-width="2" stroke-dasharray="8 8"/>
<circle cx="800" cy="330" r="6" transform="rotate(-180 800 330)" fill="white" stroke="#1F32D6" stroke-width="4"/>
<circle cx="800" cy="484" r="6" transform="rotate(-180 800 484)" fill="white" stroke="#1F32D6" stroke-width="4"/>
<rect x="752" y="520" width="96" height="96" rx="48" fill="#1F32D6"/>
<path d="M800.32 570.58C800.133 570.553 799.893 570.553 799.68 570.58C794.987 570.42 791.253 566.58 791.253 561.86C791.253 557.033 795.147 553.113 800 553.113C804.827 553.113 808.747 557.033 808.747 561.86C808.72 566.58 805.013 570.42 800.32 570.58Z" stroke="white" stroke-width="3.5" stroke-linecap="round" stroke-linejoin="round"/>
<path d="M817.974 588.18C813.227 592.527 806.934 595.167 800 595.167C793.067 595.167 786.774 592.527 782.027 588.18C782.294 585.673 783.894 583.22 786.747 581.3C794.054 576.447 806 576.447 813.254 581.3C816.107 583.22 817.707 585.673 817.974 588.18Z" stroke="white" stroke-width="3.5" stroke-linecap="round" stroke-linejoin="round"/>
<path d="M800 595.166C814.728 595.166 826.667 583.227 826.667 568.5C826.667 553.772 814.728 541.833 800 541.833C785.273 541.833 773.333 553.772 773.333 568.5C773.333 583.227 785.273 595.166 800 595.166Z" stroke="white" stroke-width="3.5" stroke-linecap="round" stroke-linejoin="round"/>
<path d="M761 652.144V654.688C758.768 655.528 756.224 656.224 753.392 656.752L753.032 654.112C756.056 653.632 758.72 652.96 761 652.144ZM756.512 635.128L758.864 636.04C757.808 638.776 756.704 641.032 755.6 642.808L757.712 642.52C758.144 641.608 758.576 640.6 759.056 639.544L761.24 640.336C759.416 644.176 757.88 646.984 756.632 648.784C757.736 648.496 758.864 648.112 759.968 647.656V649.888C757.76 650.752 755.696 651.304 753.752 651.592L753.104 649.336C753.536 649.144 753.92 648.928 754.232 648.64C754.856 647.896 755.648 646.6 756.608 644.752C755.552 644.896 754.472 645.064 753.32 645.232L752.696 642.952C753.08 642.808 753.44 642.496 753.728 642.04C754.784 639.952 755.72 637.648 756.512 635.128ZM765.92 648.088C768.368 648.76 770.624 649.576 772.688 650.536L771.464 652.456C769.256 651.424 766.952 650.608 764.6 650.032L765.92 648.088ZM763.016 651.832C766.856 652.84 770.384 654.04 773.552 655.48L772.208 657.568C768.776 656.032 765.248 654.808 761.6 653.92L763.016 651.832ZM764.936 635.176L767.48 635.488C767.288 636.136 767.096 636.76 766.88 637.336H773.336V639.352C772.4 641.176 771.272 642.784 769.976 644.176C771.608 645.232 773.384 646.144 775.328 646.912L774.032 649.168C771.896 648.232 769.952 647.128 768.224 645.832C766.304 647.416 764.048 648.64 761.504 649.504L760.28 647.296C762.536 646.624 764.552 645.616 766.304 644.272C765.512 643.552 764.768 642.832 764.096 642.064C763.568 642.664 763.016 643.24 762.416 643.792L760.832 641.752C762.848 639.952 764.216 637.768 764.936 635.176ZM768.032 642.76C768.944 641.824 769.736 640.816 770.456 639.736H765.728C765.608 639.928 765.488 640.12 765.392 640.312C766.208 641.176 767.072 641.992 768.032 642.76ZM776.936 639.04H779.768C779.48 637.936 779.144 636.928 778.784 635.992L781.28 635.584C781.568 636.592 781.856 637.744 782.144 639.04H784.712V641.392H776.936V639.04ZM779.48 642.376C779.864 645.064 780.2 648.184 780.512 651.688L778.52 652.168C778.232 649 777.848 645.976 777.416 643.048L779.48 642.376ZM784.592 651.712V654.112C782.384 654.88 780.008 655.552 777.488 656.104L776.84 653.656C778.232 653.44 779.6 653.152 780.944 652.816C781.376 649.456 781.712 645.928 781.928 642.184L784.16 642.496C783.896 646 783.512 649.24 783.032 652.216L784.592 651.712ZM795.512 639.664V636.28H797.888V641.848H785.936V636.28H788.336V639.664H790.664V635.344H793.112V639.664H795.512ZM785.168 643.216H798.824V645.52H792.824C792.68 646.096 792.536 646.648 792.344 647.176H798.344V655.312C798.344 656.704 797.744 657.4 796.544 657.4H795.464L794.864 655.192L795.824 655.264C796.016 655.264 796.136 655.12 796.136 654.856V649.384H794.672V656.968H792.608V649.384H791.336V656.992H789.272V649.384H787.88V657.4H785.624V647.176H789.896C790.088 646.624 790.232 646.072 790.352 645.52H785.168V643.216ZM805.544 644.152V647.608H810.824V644.152H805.544ZM805.424 649.912C805.112 652.888 804.224 655.384 802.76 657.352L800.84 655.624C802.256 653.608 802.976 651.04 803.024 647.92V636.04H821.624V654.16C821.624 656.008 820.664 656.944 818.768 656.944H816.008L815.336 654.496C816.296 654.592 817.16 654.64 817.976 654.64C818.696 654.64 819.08 654.16 819.08 653.248V649.912H813.368V656.68H810.824V649.912H805.424ZM819.08 647.608V644.152H813.368V647.608H819.08ZM819.08 641.848V638.488H813.368V641.848H819.08ZM810.824 638.488H805.544V641.848H810.824V638.488ZM842.648 640.432H829.832V644.248H842.648V640.432ZM829.808 646.696C829.664 650.92 828.584 654.568 826.52 657.64L824.648 655.936C826.424 653.368 827.336 650.032 827.36 645.952V637.984H835.016C834.632 637.096 834.224 636.28 833.768 635.512L836.456 635.08C836.84 635.944 837.2 636.904 837.584 637.984H845.192V646.696H829.808Z" fill="#1F32D6"/>
<rect x="1091" y="9" width="499" height="736" rx="23" fill="black" fill-opacity="0.08"/>
<rect x="1091" y="9" width="499" height="736" rx="23" stroke="black" stroke-width="2"/>
<circle cx="1341" cy="194" r="100" fill="white"/>
<mask id="mask2_3816_3841" style="mask-type:alpha" maskUnits="userSpaceOnUse" x="1295" y="148" width="92" height="92">
<path d="M1304.5 239.815C1307.2 239.815 1309.9 239.815 1312.6 239.815C1313.39 239.815 1313.78 239.411 1313.78 238.602C1313.78 234.577 1313.79 230.552 1313.77 226.527C1313.76 225.886 1313.9 225.639 1314.6 225.647C1318.75 225.679 1322.91 225.65 1327.06 225.679C1327.71 225.683 1327.88 225.494 1327.88 224.864C1327.86 220.763 1327.89 216.662 1327.85 212.557C1327.84 211.811 1328 211.554 1328.81 211.565C1332.93 211.608 1337.06 211.576 1341.19 211.594C1341.72 211.594 1342.09 211.442 1342.46 211.065C1344.31 209.174 1346.21 207.323 1348.07 205.432C1348.44 205.055 1348.75 204.975 1349.26 205.12C1358.58 207.794 1367.26 206.395 1375.06 200.653C1381.91 195.607 1385.83 188.723 1386.67 180.228C1387.57 171.12 1384.78 163.179 1378.33 156.716C1371.81 150.181 1363.8 147.417 1354.61 148.34C1347.1 149.094 1340.81 152.387 1335.86 158.046C1330.01 164.748 1327.73 172.613 1328.92 181.445C1329.11 182.876 1329.48 184.289 1329.87 185.687C1330.02 186.26 1329.94 186.6 1329.52 187.017C1322.87 193.621 1316.23 200.244 1309.6 206.866C1304.98 211.474 1300.37 216.082 1295.77 220.712C1295.47 221.013 1295.24 221.535 1295.24 221.955C1295.21 227.61 1295.23 233.265 1295.21 238.924C1295.21 239.612 1295.38 239.844 1296.1 239.833C1298.9 239.793 1301.7 239.815 1304.51 239.815H1304.5ZM1354 171.044C1354.02 165.599 1358.39 161.227 1363.81 161.216C1369.1 161.205 1373.56 165.646 1373.58 170.954C1373.6 176.468 1369.18 180.808 1363.56 180.808C1358.41 180.808 1353.98 176.283 1354 171.048V171.044Z" fill="white"/>
</mask>
<g mask="url(#mask2_3816_3841)">
<rect width="29.3653" height="119.684" transform="matrix(-0.656374 0.754435 -0.715431 -0.698683 1370.03 225.445)" fill="black"/>
<rect width="41.3022" height="119.684" transform="matrix(-0.656374 0.754435 -0.715431 -0.698683 1346.83 243.495)" fill="black" fill-opacity="0.6"/>
<rect width="59.5696" height="119.684" transform="matrix(-0.656374 0.754435 -0.715431 -0.698683 1409.13 180.502)" fill="black" fill-opacity="0.3"/>
</g>
<path d="M1341 331.5L1341 482" stroke="black" stroke-width="2" stroke-dasharray="8 8"/>
<circle cx="1341" cy="330" r="6" transform="rotate(-180 1341 330)" fill="white" stroke="black" stroke-width="4"/>
<circle cx="1341" cy="484" r="6" transform="rotate(-180 1341 484)" fill="white" stroke="black" stroke-width="4"/>
<rect x="1293" y="520" width="96" height="96" rx="48" fill="black"/>
<path d="M1319 588.5H1363" stroke="white" stroke-width="3.5" stroke-miterlimit="10" stroke-linecap="round" stroke-linejoin="round"/>
<path d="M1356.56 588.52V579.6" stroke="white" stroke-width="3.5" stroke-miterlimit="10" stroke-linecap="round" stroke-linejoin="round"/>
<path d="M1356.6 566.28C1354.16 566.28 1352.2 568.24 1352.2 570.68V575.22C1352.2 577.66 1354.16 579.62 1356.6 579.62C1359.04 579.62 1361 577.66 1361 575.22V570.68C1361 568.24 1359.04 566.28 1356.6 566.28Z" stroke="white" stroke-width="3.5" stroke-miterlimit="10" stroke-linecap="round" stroke-linejoin="round"/>
<path d="M1321.2 588.5V556.56C1321.2 552.54 1323.2 550.52 1327.18 550.52H1339.64C1343.62 550.52 1345.6 552.54 1345.6 556.56V588.5" stroke="white" stroke-width="3.5" stroke-miterlimit="10" stroke-linecap="round" stroke-linejoin="round"/>
<path d="M1328.6 561H1338.5" stroke="white" stroke-width="3.5" stroke-miterlimit="10" stroke-linecap="round" stroke-linejoin="round"/>
<path d="M1328.6 568.5H1338.5" stroke="white" stroke-width="3.5" stroke-miterlimit="10" stroke-linecap="round" stroke-linejoin="round"/>
<path d="M1333.5 588.5V581" stroke="white" stroke-width="3.5" stroke-miterlimit="10" stroke-linecap="round" stroke-linejoin="round"/>
<path d="M1318.3 639.712H1321.58V635.296H1324.08V639.712H1326.77V642.136H1324.08V643.024C1325.14 644.056 1326.22 645.208 1327.3 646.456L1325.83 648.664C1325.16 647.464 1324.58 646.432 1324.08 645.592V657.4H1321.58V646.528C1320.84 648.496 1319.93 650.32 1318.85 652L1317.77 649.264C1319.45 647.2 1320.67 644.824 1321.46 642.136H1318.3V639.712ZM1325.28 655.864C1326.24 654.424 1326.94 652.888 1327.32 651.304C1327.63 649.936 1327.8 647.896 1327.8 645.184V636.04H1336.25V654.256C1336.25 654.472 1336.32 654.592 1336.49 654.592H1337.21C1337.4 654.592 1337.54 654.544 1337.64 654.448C1337.74 654.352 1337.78 654.208 1337.83 654.04C1337.93 653.704 1337.98 652.24 1337.98 649.696L1340.28 650.416C1340.28 652.24 1340.21 653.632 1340.11 654.544C1340.02 655.456 1339.78 656.08 1339.39 656.464C1339.01 656.776 1338.38 656.944 1337.54 656.944H1336.46C1334.62 656.944 1333.7 656.128 1333.7 654.544V638.392H1330.3V645.184C1330.3 647.896 1330.08 650.2 1329.65 652.12C1329.24 654.04 1328.47 655.912 1327.34 657.688L1325.28 655.864ZM1353.22 635.32L1355.69 635.632C1355.52 636.64 1355.33 637.6 1355.09 638.536H1363.37C1363.37 647.08 1363.25 652.336 1363.01 654.352C1362.72 656.32 1361.5 657.328 1359.31 657.328C1358.78 657.328 1357.92 657.28 1356.67 657.208L1356.1 654.976C1357.18 655.048 1358.11 655.096 1358.9 655.096C1359.96 655.096 1360.56 654.496 1360.73 653.32C1360.87 652.144 1360.97 647.992 1361.02 640.864H1354.37C1353.72 642.64 1352.93 644.224 1351.97 645.64L1350.34 643.528C1351.75 641.296 1352.71 638.56 1353.22 635.32ZM1351.51 652.552L1351.06 650.464C1351.7 650.104 1352.86 647.584 1354.51 642.928L1356.72 643.744C1355.66 646.48 1354.8 648.52 1354.13 649.864C1355.18 649.624 1356.14 649.408 1357.03 649.216C1356.74 648.376 1356.46 647.584 1356.17 646.864L1358.23 646.144C1359.05 647.968 1359.74 649.936 1360.34 652.048L1358.16 653.056C1357.97 652.36 1357.8 651.688 1357.61 651.064C1355.83 651.592 1353.79 652.072 1351.51 652.552ZM1347.94 646.096V657.424H1345.46V646.672C1344.74 648.64 1343.88 650.464 1342.87 652.144L1341.79 649.36C1343.4 647.248 1344.58 644.848 1345.3 642.136H1342.27V639.712H1345.46V635.296H1347.94V639.712H1350.6V642.136H1347.94V643.216C1348.99 644.272 1350.05 645.4 1351.1 646.648L1349.66 648.784C1349.02 647.728 1348.44 646.84 1347.94 646.096Z" fill="black"/>
<path d="M1301.53 69.24V71.592C1299.18 72.48 1296.51 73.2 1293.51 73.752L1293.2 71.304C1296.37 70.776 1299.15 70.104 1301.53 69.24ZM1296.75 52.128L1299.15 53.088C1298.05 55.896 1296.94 58.2 1295.82 59.976L1298.12 59.688C1298.5 58.872 1298.94 58.032 1299.37 57.12L1301.6 57.984C1299.73 61.608 1298.12 64.272 1296.82 66C1298.29 65.688 1299.78 65.28 1301.29 64.752V66.984C1298.67 67.872 1296.2 68.472 1293.87 68.76L1293.22 66.504C1293.66 66.312 1294.04 66.072 1294.35 65.784C1295.02 65.064 1295.89 63.768 1296.92 61.944L1293.51 62.4L1292.91 60.12C1293.3 59.952 1293.63 59.64 1293.94 59.208C1295.02 57.048 1295.96 54.696 1296.75 52.128ZM1313.22 56.28L1313.58 58.584L1307.65 59.4C1307.67 60.288 1307.72 61.128 1307.82 61.92L1313.86 60.984L1314.25 63.336L1308.1 64.296C1308.1 64.464 1308.13 64.632 1308.18 64.8C1308.37 65.88 1308.61 66.84 1308.9 67.704C1309.93 66.696 1310.86 65.544 1311.7 64.296L1313.7 65.64C1312.52 67.344 1311.27 68.808 1309.95 70.032C1310.6 70.992 1311.18 71.496 1311.7 71.496C1312.23 71.496 1312.66 70.416 1313 68.256L1315.14 69.648C1314.42 72.72 1313.38 74.256 1311.99 74.256C1310.74 74.232 1309.59 73.488 1308.51 72.048C1308.37 71.856 1308.22 71.688 1308.13 71.52C1306.45 72.72 1304.65 73.608 1302.75 74.184L1301.29 72.168C1303.4 71.496 1305.3 70.56 1306.98 69.336C1306.54 68.352 1306.21 67.272 1305.94 66.12C1305.82 65.64 1305.73 65.16 1305.66 64.68L1301.62 65.304L1301.26 62.952L1305.32 62.304C1305.22 61.488 1305.18 60.624 1305.13 59.76L1302.03 60.192L1301.67 57.888L1305.08 57.408V52.272H1307.6V57.072L1313.22 56.28ZM1310.29 52.176C1311.42 53.256 1312.3 54.192 1312.93 54.96L1310.96 56.328C1310.34 55.44 1309.47 54.456 1308.39 53.376L1310.29 52.176ZM1317.22 53.328H1338.75V55.776H1328.62V58.704C1331.55 60.096 1334.5 61.704 1337.5 63.48L1335.99 65.736C1333.04 63.864 1330.59 62.4 1328.62 61.392V74.496H1326.1V55.776H1317.22V53.328ZM1354.71 52.464H1357.16V54.6H1361.82V56.88H1357.16V58.968H1362.73V61.32H1349.43V58.968H1354.71V56.88H1350.3V54.6H1354.71V52.464ZM1349.05 63.672H1357.45V62.088H1359.97V63.672H1362.75V66H1359.97V71.832C1359.97 73.488 1359.13 74.328 1357.47 74.328H1354.33L1353.78 71.904C1354.76 72 1355.7 72.048 1356.58 72.048C1357.16 72.048 1357.45 71.76 1357.45 71.184V66H1349.05V63.672ZM1343.94 74.28H1341.82L1341.3 71.904C1341.92 72 1342.5 72.048 1343.07 72.048C1343.62 72.048 1343.91 71.736 1343.91 71.136V66.384C1343.1 66.672 1342.3 66.96 1341.49 67.2L1340.86 64.68C1341.9 64.464 1342.9 64.2 1343.91 63.864V59.016H1341.27V56.64H1343.91V52.608H1346.36V56.64H1348.59V59.016H1346.36V62.928C1347.13 62.592 1347.9 62.232 1348.62 61.848V64.392C1347.87 64.752 1347.13 65.088 1346.36 65.424V71.784C1346.36 73.44 1345.54 74.28 1343.94 74.28ZM1352.14 66.624C1353.2 68.04 1354.04 69.264 1354.62 70.32L1352.62 71.712C1352 70.56 1351.16 69.264 1350.1 67.872L1352.14 66.624ZM1372.81 61.368V63.288H1381.54V61.368H1372.81ZM1381.54 65.448H1372.81V67.32H1381.54V65.448ZM1381.54 69.48H1372.81V74.472H1370.46V62.76C1369.28 64.104 1367.96 65.376 1366.52 66.552L1364.89 64.416C1367.6 62.28 1369.74 59.832 1371.32 57.096H1365.54V54.672H1372.52C1372.88 53.832 1373.19 52.992 1373.46 52.128L1376.02 52.44C1375.78 53.208 1375.54 53.952 1375.28 54.672H1386.73V57.096H1374.22C1373.84 57.816 1373.46 58.512 1373.05 59.208H1383.9V72.216C1383.9 73.608 1383.08 74.304 1381.47 74.352H1378.78L1378.18 72.096C1379.07 72.168 1379.91 72.216 1380.68 72.216C1381.26 72.216 1381.54 71.952 1381.54 71.424V69.48Z" fill="#666666"/>
</svg>
