<svg width="1600" height="754" viewBox="0 0 1600 754" fill="none" xmlns="http://www.w3.org/2000/svg">
<rect width="1600" height="754" fill="white"/>
<rect x="9" y="9" width="499" height="736" rx="23" fill="#1F32D6" fill-opacity="0.08"/>
<rect x="9" y="9" width="499" height="736" rx="23" stroke="#1F32D6" stroke-width="2"/>
<circle cx="259" cy="194" r="100" fill="white"/>
<mask id="mask0_3816_3601" style="mask-type:alpha" maskUnits="userSpaceOnUse" x="213" y="148" width="92" height="92">
<path d="M222.502 239.815C225.201 239.815 227.904 239.815 230.602 239.815C231.385 239.815 231.776 239.411 231.776 238.602C231.776 234.577 231.787 230.552 231.765 226.527C231.762 225.886 231.896 225.639 232.602 225.647C236.754 225.679 240.909 225.65 245.061 225.679C245.706 225.683 245.883 225.494 245.88 224.864C245.858 220.763 245.887 216.662 245.851 212.557C245.843 211.811 246.003 211.554 246.807 211.565C250.933 211.608 255.06 211.576 259.19 211.594C259.719 211.594 260.088 211.442 260.458 211.065C262.313 209.174 264.211 207.323 266.066 205.432C266.435 205.055 266.75 204.975 267.261 205.12C276.579 207.794 285.255 206.395 293.059 200.653C299.91 195.607 303.829 188.723 304.666 180.228C305.568 171.12 302.782 163.179 296.33 156.716C289.813 150.181 281.799 147.417 272.605 148.34C265.098 149.094 258.809 152.387 253.864 158.046C248.006 164.748 245.731 172.613 246.919 181.445C247.111 182.876 247.485 184.289 247.865 185.687C248.021 186.26 247.937 186.6 247.517 187.017C240.866 193.621 234.229 200.244 227.596 206.866C222.98 211.474 218.365 216.082 213.775 220.712C213.474 221.013 213.242 221.535 213.242 221.955C213.206 227.61 213.231 233.265 213.206 238.924C213.206 239.612 213.376 239.844 214.097 239.833C216.898 239.793 219.702 239.815 222.506 239.815H222.502ZM272 171.044C272.022 165.599 276.391 161.227 281.814 161.216C287.103 161.205 291.559 165.646 291.577 170.954C291.595 176.468 287.183 180.808 281.557 180.808C276.405 180.808 271.978 176.283 272 171.048V171.044Z" fill="white"/>
</mask>
<g mask="url(#mask0_3816_3601)">
<rect width="29.3653" height="119.684" transform="matrix(-0.656374 0.754435 -0.715431 -0.698683 288.031 225.445)" fill="#1F32D6" fill-opacity="0.6"/>
<rect width="41.3022" height="119.684" transform="matrix(-0.656374 0.754435 -0.715431 -0.698683 264.832 243.495)" fill="#1F32D6" fill-opacity="0.3"/>
<rect width="59.5696" height="119.684" transform="matrix(-0.656374 0.754435 -0.715431 -0.698683 327.132 180.502)" fill="#1F32D6"/>
</g>
<path d="M259 331.5L259 482" stroke="#1F32D6" stroke-width="2" stroke-dasharray="8 8"/>
<circle cx="259" cy="330" r="6" transform="rotate(-180 259 330)" fill="white" stroke="#1F32D6" stroke-width="4"/>
<circle cx="259" cy="484" r="6" transform="rotate(-180 259 484)" fill="white" stroke="#1F32D6" stroke-width="4"/>
<rect x="160" y="521" width="198" height="118" rx="15" fill="#1F32D6"/>
<rect x="160" y="521" width="198" height="118" rx="15" stroke="#1F32D6" stroke-width="2"/>
<path d="M279.062 583.753C279.062 582.422 278.667 581.122 277.927 580.015C277.187 578.909 276.136 578.047 274.907 577.537C273.677 577.028 272.324 576.895 271.019 577.155C269.714 577.415 268.515 578.056 267.574 578.997C266.633 579.939 265.992 581.138 265.733 582.443C265.473 583.748 265.607 585.101 266.116 586.331C266.625 587.56 267.488 588.611 268.594 589.35C269.701 590.09 271.002 590.484 272.333 590.484C273.217 590.484 274.092 590.31 274.908 589.972C275.725 589.634 276.467 589.138 277.092 588.513C277.717 587.888 278.212 587.146 278.55 586.329C278.888 585.512 279.062 584.637 279.062 583.753ZM311.383 583.753C311.38 586.602 310.384 589.361 308.565 591.554C306.746 593.747 304.219 595.236 301.42 595.766C298.621 596.295 295.724 595.831 293.231 594.453C290.737 593.076 288.802 590.871 287.76 588.22L292.418 583.562V583.755C292.422 585.308 292.964 586.812 293.952 588.011C294.94 589.209 296.313 590.028 297.837 590.328C299.36 590.629 300.941 590.391 302.31 589.657C303.679 588.923 304.751 587.737 305.343 586.301C305.936 584.866 306.013 583.269 305.561 581.783C305.109 580.297 304.156 579.014 302.864 578.151C301.572 577.289 300.021 576.901 298.476 577.053C296.93 577.206 295.485 577.889 294.386 578.987L281.032 592.348C279.329 594.078 277.15 595.262 274.772 595.748C272.394 596.235 269.925 596.002 267.68 595.08C265.435 594.158 263.515 592.589 262.165 590.571C260.815 588.554 260.096 586.181 260.101 583.753V566.588C260.144 565.887 260.453 565.229 260.964 564.749C261.475 564.268 262.151 564 262.853 564C263.555 564 264.23 564.268 264.742 564.749C265.253 565.229 265.562 565.887 265.605 566.588V573.453C267.274 572.355 269.186 571.682 271.175 571.493C273.164 571.304 275.168 571.604 277.014 572.369C278.86 573.133 280.49 574.338 281.763 575.877C283.036 577.417 283.912 579.245 284.316 581.201L290.496 575.022C292.212 573.306 294.399 572.139 296.78 571.669C299.161 571.199 301.628 571.448 303.867 572.384C306.106 573.32 308.017 574.901 309.355 576.925C310.693 578.95 311.399 581.326 311.383 583.753ZM258.268 583.753C258.274 586.605 257.282 589.369 255.464 591.566C253.647 593.764 251.119 595.257 248.317 595.787C245.515 596.317 242.616 595.851 240.121 594.469C237.627 593.087 235.694 590.876 234.657 588.22L239.315 583.562V583.755C239.319 585.308 239.861 586.812 240.849 588.011C241.837 589.209 243.21 590.028 244.734 590.328C246.258 590.629 247.839 590.391 249.208 589.657C250.576 588.923 251.648 587.737 252.241 586.301C252.834 584.866 252.911 583.269 252.459 581.783C252.007 580.297 251.053 579.014 249.762 578.151C248.47 577.289 246.919 576.901 245.373 577.053C243.828 577.206 242.382 577.889 241.284 578.987L227.883 592.4C226.172 594.111 223.992 595.276 221.619 595.747C219.246 596.219 216.786 595.976 214.551 595.05C212.316 594.124 210.406 592.556 209.061 590.544C207.717 588.533 207 586.167 207 583.748C207 581.329 207.717 578.964 209.061 576.952C210.406 574.94 212.316 573.372 214.551 572.446C216.786 571.52 219.246 571.277 221.619 571.749C223.992 572.221 226.172 573.385 227.883 575.096C228.138 575.353 228.341 575.657 228.478 575.993C228.616 576.328 228.687 576.687 228.685 577.049C228.684 577.412 228.612 577.771 228.472 578.105C228.333 578.439 228.129 578.743 227.872 578.999C227.614 579.254 227.31 579.456 226.974 579.594C226.639 579.732 226.28 579.802 225.918 579.801C225.555 579.8 225.197 579.728 224.862 579.588C224.528 579.448 224.224 579.244 223.969 578.987C223.027 578.048 221.828 577.41 220.523 577.152C219.218 576.894 217.866 577.028 216.638 577.538C215.41 578.048 214.36 578.911 213.621 580.017C212.883 581.123 212.489 582.423 212.489 583.753C212.489 585.083 212.883 586.383 213.621 587.49C214.36 588.596 215.41 589.458 216.638 589.968C217.866 590.478 219.218 590.613 220.523 590.355C221.828 590.097 223.027 589.458 223.969 588.519L237.392 575.061C239.105 573.345 241.288 572.177 243.666 571.705C246.044 571.233 248.508 571.479 250.746 572.412C252.984 573.344 254.893 574.92 256.233 576.941C257.572 578.961 258.281 581.334 258.268 583.758V583.753Z" fill="white"/>
<rect x="550" y="9" width="499" height="736" rx="23" fill="#1F32D6" fill-opacity="0.08"/>
<rect x="550" y="9" width="499" height="736" rx="23" stroke="#1F32D6" stroke-width="2"/>
<circle cx="800" cy="194" r="100" fill="white"/>
<mask id="mask1_3816_3601" style="mask-type:alpha" maskUnits="userSpaceOnUse" x="754" y="148" width="92" height="92">
<path d="M763.502 239.815C766.201 239.815 768.904 239.815 771.603 239.815C772.385 239.815 772.777 239.411 772.777 238.602C772.777 234.577 772.787 230.552 772.766 226.527C772.762 225.886 772.896 225.639 773.602 225.647C777.754 225.679 781.909 225.65 786.061 225.679C786.706 225.683 786.884 225.494 786.88 224.864C786.858 220.763 786.887 216.662 786.851 212.557C786.844 211.811 787.003 211.554 787.807 211.565C791.934 211.608 796.06 211.576 800.19 211.594C800.719 211.594 801.088 211.442 801.458 211.065C803.313 209.174 805.211 207.323 807.066 205.432C807.435 205.055 807.751 204.975 808.261 205.12C817.579 207.794 826.256 206.395 834.059 200.653C840.91 195.607 844.83 188.723 845.667 180.228C846.569 171.12 843.783 163.179 837.331 156.716C830.813 150.181 822.8 147.417 813.605 148.34C806.099 149.094 799.81 152.387 794.864 158.046C789.006 164.748 786.731 172.613 787.92 181.445C788.112 182.876 788.485 184.289 788.865 185.687C789.021 186.26 788.938 186.6 788.517 187.017C781.866 193.621 775.229 200.244 768.596 206.866C763.98 211.474 759.365 216.082 754.775 220.712C754.474 221.013 754.242 221.535 754.242 221.955C754.206 227.61 754.232 233.265 754.206 238.924C754.206 239.612 754.376 239.844 755.097 239.833C757.898 239.793 760.702 239.815 763.506 239.815H763.502ZM813 171.044C813.022 165.599 817.391 161.227 822.814 161.216C828.103 161.205 832.559 165.646 832.577 170.954C832.596 176.468 828.183 180.808 822.557 180.808C817.405 180.808 812.978 176.283 813 171.048V171.044Z" fill="white"/>
</mask>
<g mask="url(#mask1_3816_3601)">
<rect width="29.3653" height="119.684" transform="matrix(-0.656374 0.754435 -0.715431 -0.698683 829.03 225.445)" fill="#1F32D6"/>
<rect width="41.3022" height="119.684" transform="matrix(-0.656374 0.754435 -0.715431 -0.698683 805.832 243.495)" fill="#1F32D6" fill-opacity="0.6"/>
<rect width="59.5696" height="119.684" transform="matrix(-0.656374 0.754435 -0.715431 -0.698683 868.132 180.502)" fill="#1F32D6" fill-opacity="0.3"/>
</g>
<path d="M800 331.5L800 482" stroke="#1F32D6" stroke-width="2" stroke-dasharray="8 8"/>
<circle cx="800" cy="330" r="6" transform="rotate(-180 800 330)" fill="white" stroke="#1F32D6" stroke-width="4"/>
<circle cx="800" cy="484" r="6" transform="rotate(-180 800 484)" fill="white" stroke="#1F32D6" stroke-width="4"/>
<rect x="752" y="520" width="96" height="96" rx="48" fill="#1F32D6"/>
<path d="M777.999 588.5H821.999" stroke="white" stroke-width="3.5" stroke-miterlimit="10" stroke-linecap="round" stroke-linejoin="round"/>
<path d="M815.561 588.52V579.6" stroke="white" stroke-width="3.5" stroke-miterlimit="10" stroke-linecap="round" stroke-linejoin="round"/>
<path d="M815.601 566.28C813.161 566.28 811.201 568.24 811.201 570.68V575.22C811.201 577.66 813.161 579.62 815.601 579.62C818.041 579.62 820.001 577.66 820.001 575.22V570.68C820.001 568.24 818.041 566.28 815.601 566.28Z" stroke="white" stroke-width="3.5" stroke-miterlimit="10" stroke-linecap="round" stroke-linejoin="round"/>
<path d="M780.199 588.5V556.56C780.199 552.54 782.199 550.52 786.179 550.52H798.639C802.619 550.52 804.599 552.54 804.599 556.56V588.5" stroke="white" stroke-width="3.5" stroke-miterlimit="10" stroke-linecap="round" stroke-linejoin="round"/>
<path d="M787.6 561H797.5" stroke="white" stroke-width="3.5" stroke-miterlimit="10" stroke-linecap="round" stroke-linejoin="round"/>
<path d="M787.6 568.5H797.5" stroke="white" stroke-width="3.5" stroke-miterlimit="10" stroke-linecap="round" stroke-linejoin="round"/>
<path d="M792.5 588.5V581" stroke="white" stroke-width="3.5" stroke-miterlimit="10" stroke-linecap="round" stroke-linejoin="round"/>
<path d="M777.296 639.712H780.584V635.296H783.08V639.712H785.768V642.136H783.08V643.024C784.136 644.056 785.216 645.208 786.296 646.456L784.832 648.664C784.16 647.464 783.584 646.432 783.08 645.592V657.4H780.584V646.528C779.84 648.496 778.928 650.32 777.848 652L776.768 649.264C778.448 647.2 779.672 644.824 780.464 642.136H777.296V639.712ZM784.28 655.864C785.24 654.424 785.936 652.888 786.32 651.304C786.632 649.936 786.8 647.896 786.8 645.184V636.04H795.248V654.256C795.248 654.472 795.32 654.592 795.488 654.592H796.208C796.4 654.592 796.544 654.544 796.64 654.448C796.736 654.352 796.784 654.208 796.832 654.04C796.928 653.704 796.976 652.24 796.976 649.696L799.28 650.416C799.28 652.24 799.208 653.632 799.112 654.544C799.016 655.456 798.776 656.08 798.392 656.464C798.008 656.776 797.384 656.944 796.544 656.944H795.464C793.616 656.944 792.704 656.128 792.704 654.544V638.392H789.296V645.184C789.296 647.896 789.08 650.2 788.648 652.12C788.24 654.04 787.472 655.912 786.344 657.688L784.28 655.864ZM812.216 635.32L814.688 635.632C814.52 636.64 814.328 637.6 814.088 638.536H822.368C822.368 647.08 822.248 652.336 822.008 654.352C821.72 656.32 820.496 657.328 818.312 657.328C817.784 657.328 816.92 657.28 815.672 657.208L815.096 654.976C816.176 655.048 817.112 655.096 817.904 655.096C818.96 655.096 819.56 654.496 819.728 653.32C819.872 652.144 819.968 647.992 820.016 640.864H813.368C812.72 642.64 811.928 644.224 810.968 645.64L809.336 643.528C810.752 641.296 811.712 638.56 812.216 635.32ZM810.512 652.552L810.056 650.464C810.704 650.104 811.856 647.584 813.512 642.928L815.72 643.744C814.664 646.48 813.8 648.52 813.128 649.864C814.184 649.624 815.144 649.408 816.032 649.216C815.744 648.376 815.456 647.584 815.168 646.864L817.232 646.144C818.048 647.968 818.744 649.936 819.344 652.048L817.16 653.056C816.968 652.36 816.8 651.688 816.608 651.064C814.832 651.592 812.792 652.072 810.512 652.552ZM806.936 646.096V657.424H804.464V646.672C803.744 648.64 802.88 650.464 801.872 652.144L800.792 649.36C802.4 647.248 803.576 644.848 804.296 642.136H801.272V639.712H804.464V635.296H806.936V639.712H809.6V642.136H806.936V643.216C807.992 644.272 809.048 645.4 810.104 646.648L808.664 648.784C808.016 647.728 807.44 646.84 806.936 646.096Z" fill="#1F32D6"/>
<rect x="1091" y="9" width="499" height="736" rx="23" fill="#1F32D6" fill-opacity="0.08"/>
<rect x="1091" y="9" width="499" height="736" rx="23" stroke="#1F32D6" stroke-width="2"/>
<circle cx="1341" cy="194" r="100" fill="white"/>
<mask id="mask2_3816_3601" style="mask-type:alpha" maskUnits="userSpaceOnUse" x="1295" y="148" width="92" height="92">
<path d="M1304.5 239.815C1307.2 239.815 1309.9 239.815 1312.6 239.815C1313.39 239.815 1313.78 239.411 1313.78 238.602C1313.78 234.577 1313.79 230.552 1313.77 226.527C1313.76 225.886 1313.9 225.639 1314.6 225.647C1318.75 225.679 1322.91 225.65 1327.06 225.679C1327.71 225.683 1327.88 225.494 1327.88 224.864C1327.86 220.763 1327.89 216.662 1327.85 212.557C1327.84 211.811 1328 211.554 1328.81 211.565C1332.93 211.608 1337.06 211.576 1341.19 211.594C1341.72 211.594 1342.09 211.442 1342.46 211.065C1344.31 209.174 1346.21 207.323 1348.07 205.432C1348.44 205.055 1348.75 204.975 1349.26 205.12C1358.58 207.794 1367.26 206.395 1375.06 200.653C1381.91 195.607 1385.83 188.723 1386.67 180.228C1387.57 171.12 1384.78 163.179 1378.33 156.716C1371.81 150.181 1363.8 147.417 1354.61 148.34C1347.1 149.094 1340.81 152.387 1335.86 158.046C1330.01 164.748 1327.73 172.613 1328.92 181.445C1329.11 182.876 1329.48 184.289 1329.87 185.687C1330.02 186.26 1329.94 186.6 1329.52 187.017C1322.87 193.621 1316.23 200.244 1309.6 206.866C1304.98 211.474 1300.37 216.082 1295.77 220.712C1295.47 221.013 1295.24 221.535 1295.24 221.955C1295.21 227.61 1295.23 233.265 1295.21 238.924C1295.21 239.612 1295.38 239.844 1296.1 239.833C1298.9 239.793 1301.7 239.815 1304.51 239.815H1304.5ZM1354 171.044C1354.02 165.599 1358.39 161.227 1363.81 161.216C1369.1 161.205 1373.56 165.646 1373.58 170.954C1373.6 176.468 1369.18 180.808 1363.56 180.808C1358.41 180.808 1353.98 176.283 1354 171.048V171.044Z" fill="white"/>
</mask>
<g mask="url(#mask2_3816_3601)">
<rect width="29.3653" height="119.684" transform="matrix(-0.656374 0.754435 -0.715431 -0.698683 1370.03 225.445)" fill="#1F32D6" fill-opacity="0.3"/>
<rect width="41.3022" height="119.684" transform="matrix(-0.656374 0.754435 -0.715431 -0.698683 1346.83 243.495)" fill="#1F32D6"/>
<rect width="59.5696" height="119.684" transform="matrix(-0.656374 0.754435 -0.715431 -0.698683 1409.13 180.502)" fill="#1F32D6" fill-opacity="0.6"/>
</g>
<path d="M1341 331.5L1341 482" stroke="#1F32D6" stroke-width="2" stroke-dasharray="8 8"/>
<circle cx="1341" cy="330" r="6" transform="rotate(-180 1341 330)" fill="white" stroke="#1F32D6" stroke-width="4"/>
<circle cx="1341" cy="484" r="6" transform="rotate(-180 1341 484)" fill="white" stroke="#1F32D6" stroke-width="4"/>
<rect x="1293" y="520" width="96" height="96" rx="48" fill="#1F32D6"/>
<path d="M1341.32 570.58C1341.13 570.553 1340.89 570.553 1340.68 570.58C1335.99 570.42 1332.25 566.58 1332.25 561.86C1332.25 557.033 1336.15 553.113 1341 553.113C1345.83 553.113 1349.75 557.033 1349.75 561.86C1349.72 566.58 1346.01 570.42 1341.32 570.58Z" stroke="white" stroke-width="3.5" stroke-linecap="round" stroke-linejoin="round"/>
<path d="M1358.97 588.18C1354.23 592.527 1347.93 595.167 1341 595.167C1334.07 595.167 1327.77 592.527 1323.03 588.18C1323.29 585.673 1324.89 583.22 1327.75 581.3C1335.05 576.447 1347 576.447 1354.25 581.3C1357.11 583.22 1358.71 585.673 1358.97 588.18Z" stroke="white" stroke-width="3.5" stroke-linecap="round" stroke-linejoin="round"/>
<path d="M1341 595.166C1355.73 595.166 1367.67 583.227 1367.67 568.5C1367.67 553.772 1355.73 541.833 1341 541.833C1326.27 541.833 1314.33 553.772 1314.33 568.5C1314.33 583.227 1326.27 595.166 1341 595.166Z" stroke="white" stroke-width="3.5" stroke-linecap="round" stroke-linejoin="round"/>
<path d="M1302 652.144V654.688C1299.77 655.528 1297.22 656.224 1294.39 656.752L1294.03 654.112C1297.06 653.632 1299.72 652.96 1302 652.144ZM1297.51 635.128L1299.86 636.04C1298.81 638.776 1297.7 641.032 1296.6 642.808L1298.71 642.52C1299.14 641.608 1299.58 640.6 1300.06 639.544L1302.24 640.336C1300.42 644.176 1298.88 646.984 1297.63 648.784C1298.74 648.496 1299.86 648.112 1300.97 647.656V649.888C1298.76 650.752 1296.7 651.304 1294.75 651.592L1294.1 649.336C1294.54 649.144 1294.92 648.928 1295.23 648.64C1295.86 647.896 1296.65 646.6 1297.61 644.752C1296.55 644.896 1295.47 645.064 1294.32 645.232L1293.7 642.952C1294.08 642.808 1294.44 642.496 1294.73 642.04C1295.78 639.952 1296.72 637.648 1297.51 635.128ZM1306.92 648.088C1309.37 648.76 1311.62 649.576 1313.69 650.536L1312.46 652.456C1310.26 651.424 1307.95 650.608 1305.6 650.032L1306.92 648.088ZM1304.02 651.832C1307.86 652.84 1311.38 654.04 1314.55 655.48L1313.21 657.568C1309.78 656.032 1306.25 654.808 1302.6 653.92L1304.02 651.832ZM1305.94 635.176L1308.48 635.488C1308.29 636.136 1308.1 636.76 1307.88 637.336H1314.34V639.352C1313.4 641.176 1312.27 642.784 1310.98 644.176C1312.61 645.232 1314.38 646.144 1316.33 646.912L1315.03 649.168C1312.9 648.232 1310.95 647.128 1309.22 645.832C1307.3 647.416 1305.05 648.64 1302.5 649.504L1301.28 647.296C1303.54 646.624 1305.55 645.616 1307.3 644.272C1306.51 643.552 1305.77 642.832 1305.1 642.064C1304.57 642.664 1304.02 643.24 1303.42 643.792L1301.83 641.752C1303.85 639.952 1305.22 637.768 1305.94 635.176ZM1309.03 642.76C1309.94 641.824 1310.74 640.816 1311.46 639.736H1306.73C1306.61 639.928 1306.49 640.12 1306.39 640.312C1307.21 641.176 1308.07 641.992 1309.03 642.76ZM1317.94 639.04H1320.77C1320.48 637.936 1320.14 636.928 1319.78 635.992L1322.28 635.584C1322.57 636.592 1322.86 637.744 1323.14 639.04H1325.71V641.392H1317.94V639.04ZM1320.48 642.376C1320.86 645.064 1321.2 648.184 1321.51 651.688L1319.52 652.168C1319.23 649 1318.85 645.976 1318.42 643.048L1320.48 642.376ZM1325.59 651.712V654.112C1323.38 654.88 1321.01 655.552 1318.49 656.104L1317.84 653.656C1319.23 653.44 1320.6 653.152 1321.94 652.816C1322.38 649.456 1322.71 645.928 1322.93 642.184L1325.16 642.496C1324.9 646 1324.51 649.24 1324.03 652.216L1325.59 651.712ZM1336.51 639.664V636.28H1338.89V641.848H1326.94V636.28H1329.34V639.664H1331.66V635.344H1334.11V639.664H1336.51ZM1326.17 643.216H1339.82V645.52H1333.82C1333.68 646.096 1333.54 646.648 1333.34 647.176H1339.34V655.312C1339.34 656.704 1338.74 657.4 1337.54 657.4H1336.46L1335.86 655.192L1336.82 655.264C1337.02 655.264 1337.14 655.12 1337.14 654.856V649.384H1335.67V656.968H1333.61V649.384H1332.34V656.992H1330.27V649.384H1328.88V657.4H1326.62V647.176H1330.9C1331.09 646.624 1331.23 646.072 1331.35 645.52H1326.17V643.216ZM1346.54 644.152V647.608H1351.82V644.152H1346.54ZM1346.42 649.912C1346.11 652.888 1345.22 655.384 1343.76 657.352L1341.84 655.624C1343.26 653.608 1343.98 651.04 1344.02 647.92V636.04H1362.62V654.16C1362.62 656.008 1361.66 656.944 1359.77 656.944H1357.01L1356.34 654.496C1357.3 654.592 1358.16 654.64 1358.98 654.64C1359.7 654.64 1360.08 654.16 1360.08 653.248V649.912H1354.37V656.68H1351.82V649.912H1346.42ZM1360.08 647.608V644.152H1354.37V647.608H1360.08ZM1360.08 641.848V638.488H1354.37V641.848H1360.08ZM1351.82 638.488H1346.54V641.848H1351.82V638.488ZM1383.65 640.432H1370.83V644.248H1383.65V640.432ZM1370.81 646.696C1370.66 650.92 1369.58 654.568 1367.52 657.64L1365.65 655.936C1367.42 653.368 1368.34 650.032 1368.36 645.952V637.984H1376.02C1375.63 637.096 1375.22 636.28 1374.77 635.512L1377.46 635.08C1377.84 635.944 1378.2 636.904 1378.58 637.984H1386.19V646.696H1370.81Z" fill="#1F32D6"/>
</svg>
