<svg width="105" height="32" viewBox="0 0 105 32" fill="none" xmlns="http://www.w3.org/2000/svg">
<rect width="105" height="32" rx="4.8" fill="#1F32D6"/>
<path d="M21.7101 18.5104H18.5965L18.0813 20H16.4349L19.2461 12.1712H21.0717L23.8829 20H22.2253L21.7101 18.5104ZM21.2845 17.256L20.1533 13.9856L19.0221 17.256H21.2845ZM24.5305 16.8752C24.5305 16.248 24.6537 15.6917 24.9001 15.2064C25.154 14.7211 25.4975 14.3477 25.9305 14.0864C26.3636 13.8251 26.8452 13.6944 27.3753 13.6944C27.7785 13.6944 28.1631 13.784 28.5289 13.9632C28.8948 14.1349 29.186 14.3664 29.4025 14.6576V11.712H30.9929V20H29.4025V19.0816C29.2084 19.3877 28.9359 19.6341 28.5849 19.8208C28.234 20.0075 27.8271 20.1008 27.3641 20.1008C26.8415 20.1008 26.3636 19.9664 25.9305 19.6976C25.4975 19.4288 25.154 19.0517 24.9001 18.5664C24.6537 18.0736 24.5305 17.5099 24.5305 16.8752ZM29.4137 16.8976C29.4137 16.5168 29.3391 16.192 29.1897 15.9232C29.0404 15.6469 28.8388 15.4379 28.5849 15.296C28.3311 15.1467 28.0585 15.072 27.7673 15.072C27.4761 15.072 27.2073 15.1429 26.9609 15.2848C26.7145 15.4267 26.5129 15.6357 26.3561 15.912C26.2068 16.1808 26.1321 16.5019 26.1321 16.8752C26.1321 17.2485 26.2068 17.5771 26.3561 17.8608C26.5129 18.1371 26.7145 18.3499 26.9609 18.4992C27.2148 18.6485 27.4836 18.7232 27.7673 18.7232C28.0585 18.7232 28.3311 18.6523 28.5849 18.5104C28.8388 18.3611 29.0404 18.152 29.1897 17.8832C29.3391 17.6069 29.4137 17.2784 29.4137 16.8976ZM32.1212 16.8752C32.1212 16.248 32.2444 15.6917 32.4908 15.2064C32.7446 14.7211 33.0881 14.3477 33.5212 14.0864C33.9542 13.8251 34.4358 13.6944 34.966 13.6944C35.3692 13.6944 35.7537 13.784 36.1196 13.9632C36.4854 14.1349 36.7766 14.3664 36.9932 14.6576V11.712H38.5836V20H36.9932V19.0816C36.799 19.3877 36.5265 19.6341 36.1756 19.8208C35.8246 20.0075 35.4177 20.1008 34.9548 20.1008C34.4321 20.1008 33.9542 19.9664 33.5212 19.6976C33.0881 19.4288 32.7446 19.0517 32.4908 18.5664C32.2444 18.0736 32.1212 17.5099 32.1212 16.8752ZM37.0044 16.8976C37.0044 16.5168 36.9297 16.192 36.7804 15.9232C36.631 15.6469 36.4294 15.4379 36.1756 15.296C35.9217 15.1467 35.6492 15.072 35.358 15.072C35.0668 15.072 34.798 15.1429 34.5516 15.2848C34.3052 15.4267 34.1036 15.6357 33.9468 15.912C33.7974 16.1808 33.7228 16.5019 33.7228 16.8752C33.7228 17.2485 33.7974 17.5771 33.9468 17.8608C34.1036 18.1371 34.3052 18.3499 34.5516 18.4992C34.8054 18.6485 35.0742 18.7232 35.358 18.7232C35.6492 18.7232 35.9217 18.6523 36.1756 18.5104C36.4294 18.3611 36.631 18.152 36.7804 17.8832C36.9297 17.6069 37.0044 17.2784 37.0044 16.8976ZM47.5773 18.5104H44.4637L43.9485 20H42.3021L45.1133 12.1712H46.9389L49.7501 20H48.0925L47.5773 18.5104ZM47.1517 17.256L46.0205 13.9856L44.8893 17.256H47.1517ZM50.3977 16.8752C50.3977 16.248 50.5209 15.6917 50.7673 15.2064C51.0212 14.7211 51.3647 14.3477 51.7977 14.0864C52.2308 13.8251 52.7124 13.6944 53.2425 13.6944C53.6457 13.6944 54.0303 13.784 54.3961 13.9632C54.762 14.1349 55.0532 14.3664 55.2697 14.6576V11.712H56.8601V20H55.2697V19.0816C55.0756 19.3877 54.8031 19.6341 54.4521 19.8208C54.1012 20.0075 53.6943 20.1008 53.2313 20.1008C52.7087 20.1008 52.2308 19.9664 51.7977 19.6976C51.3647 19.4288 51.0212 19.0517 50.7673 18.5664C50.5209 18.0736 50.3977 17.5099 50.3977 16.8752ZM55.2809 16.8976C55.2809 16.5168 55.2063 16.192 55.0569 15.9232C54.9076 15.6469 54.706 15.4379 54.4521 15.296C54.1983 15.1467 53.9257 15.072 53.6345 15.072C53.3433 15.072 53.0745 15.1429 52.8281 15.2848C52.5817 15.4267 52.3801 15.6357 52.2233 15.912C52.074 16.1808 51.9993 16.5019 51.9993 16.8752C51.9993 17.2485 52.074 17.5771 52.2233 17.8608C52.3801 18.1371 52.5817 18.3499 52.8281 18.4992C53.082 18.6485 53.3508 18.7232 53.6345 18.7232C53.9257 18.7232 54.1983 18.6523 54.4521 18.5104C54.706 18.3611 54.9076 18.152 55.0569 17.8832C55.2063 17.6069 55.2809 17.2784 55.2809 16.8976ZM57.9883 16.8752C57.9883 16.248 58.1115 15.6917 58.3579 15.2064C58.6118 14.7211 58.9553 14.3477 59.3883 14.0864C59.8214 13.8251 60.303 13.6944 60.8331 13.6944C61.2363 13.6944 61.6209 13.784 61.9867 13.9632C62.3526 14.1349 62.6438 14.3664 62.8603 14.6576V11.712H64.4507V20H62.8603V19.0816C62.6662 19.3877 62.3937 19.6341 62.0427 19.8208C61.6918 20.0075 61.2849 20.1008 60.8219 20.1008C60.2993 20.1008 59.8214 19.9664 59.3883 19.6976C58.9553 19.4288 58.6118 19.0517 58.3579 18.5664C58.1115 18.0736 57.9883 17.5099 57.9883 16.8752ZM62.8715 16.8976C62.8715 16.5168 62.7969 16.192 62.6475 15.9232C62.4982 15.6469 62.2966 15.4379 62.0427 15.296C61.7889 15.1467 61.5163 15.072 61.2251 15.072C60.9339 15.072 60.6651 15.1429 60.4187 15.2848C60.1723 15.4267 59.9707 15.6357 59.8139 15.912C59.6646 16.1808 59.5899 16.5019 59.5899 16.8752C59.5899 17.2485 59.6646 17.5771 59.8139 17.8608C59.9707 18.1371 60.1723 18.3499 60.4187 18.4992C60.6726 18.6485 60.9414 18.7232 61.2251 18.7232C61.5163 18.7232 61.7889 18.6523 62.0427 18.5104C62.2966 18.3611 62.4982 18.152 62.6475 17.8832C62.7969 17.6069 62.8715 17.2784 62.8715 16.8976ZM67.5502 14.7584C67.7518 14.4299 68.0131 14.1723 68.3342 13.9856C68.6627 13.7989 69.036 13.7056 69.4542 13.7056V15.352H69.0398C68.547 15.352 68.1736 15.4677 67.9198 15.6992C67.6734 15.9307 67.5502 16.3339 67.5502 16.9088V20H65.9822V13.7952H67.5502V14.7584ZM76.2783 16.7632C76.2783 16.9872 76.2634 17.1888 76.2335 17.368H71.6975C71.7348 17.816 71.8916 18.1669 72.1679 18.4208C72.4442 18.6747 72.7839 18.8016 73.1871 18.8016C73.7695 18.8016 74.1839 18.5515 74.4303 18.0512H76.1215C75.9423 18.6485 75.5988 19.1413 75.0911 19.5296C74.5834 19.9104 73.9599 20.1008 73.2207 20.1008C72.6234 20.1008 72.0858 19.9701 71.6079 19.7088C71.1375 19.44 70.7679 19.0629 70.4991 18.5776C70.2378 18.0923 70.1071 17.5323 70.1071 16.8976C70.1071 16.2555 70.2378 15.6917 70.4991 15.2064C70.7604 14.7211 71.1263 14.3477 71.5967 14.0864C72.0671 13.8251 72.6084 13.6944 73.2207 13.6944C73.8106 13.6944 74.337 13.8213 74.7999 14.0752C75.2703 14.3291 75.6324 14.6912 75.8863 15.1616C76.1476 15.6245 76.2783 16.1584 76.2783 16.7632ZM74.6543 16.3152C74.6468 15.912 74.5012 15.5909 74.2175 15.352C73.9338 15.1056 73.5866 14.9824 73.1759 14.9824C72.7876 14.9824 72.4591 15.1019 72.1903 15.3408C71.929 15.5723 71.7684 15.8971 71.7087 16.3152H74.6543ZM79.7972 20.1008C79.2895 20.1008 78.834 20.0112 78.4308 19.832C78.0276 19.6453 77.7065 19.3952 77.4676 19.0816C77.2361 18.768 77.1092 18.4208 77.0868 18.04H78.666C78.6959 18.2789 78.8116 18.4768 79.0132 18.6336C79.2223 18.7904 79.4799 18.8688 79.786 18.8688C80.0847 18.8688 80.3161 18.8091 80.4804 18.6896C80.6521 18.5701 80.738 18.4171 80.738 18.2304C80.738 18.0288 80.6335 17.8795 80.4244 17.7824C80.2228 17.6779 79.898 17.5659 79.45 17.4464C78.9871 17.3344 78.6063 17.2187 78.3076 17.0992C78.0164 16.9797 77.7625 16.7968 77.546 16.5504C77.3369 16.304 77.2324 15.9717 77.2324 15.5536C77.2324 15.2101 77.3295 14.8965 77.5236 14.6128C77.7252 14.3291 78.0089 14.1051 78.3748 13.9408C78.7481 13.7765 79.1849 13.6944 79.6852 13.6944C80.4244 13.6944 81.0143 13.8811 81.4548 14.2544C81.8953 14.6203 82.138 15.1168 82.1828 15.744H80.682C80.6596 15.4976 80.5551 15.3035 80.3684 15.1616C80.1892 15.0123 79.9465 14.9376 79.6404 14.9376C79.3567 14.9376 79.1364 14.9899 78.9796 15.0944C78.8303 15.1989 78.7556 15.3445 78.7556 15.5312C78.7556 15.7403 78.8601 15.9008 79.0692 16.0128C79.2783 16.1173 79.6031 16.2256 80.0436 16.3376C80.4916 16.4496 80.8612 16.5653 81.1524 16.6848C81.4436 16.8043 81.6937 16.9909 81.9028 17.2448C82.1193 17.4912 82.2313 17.8197 82.2388 18.2304C82.2388 18.5888 82.138 18.9099 81.9364 19.1936C81.7423 19.4773 81.4585 19.7013 81.0852 19.8656C80.7193 20.0224 80.29 20.1008 79.7972 20.1008ZM85.9003 20.1008C85.3926 20.1008 84.9371 20.0112 84.5339 19.832C84.1307 19.6453 83.8097 19.3952 83.5707 19.0816C83.3393 18.768 83.2123 18.4208 83.1899 18.04H84.7691C84.799 18.2789 84.9147 18.4768 85.1163 18.6336C85.3254 18.7904 85.583 18.8688 85.8891 18.8688C86.1878 18.8688 86.4193 18.8091 86.5835 18.6896C86.7553 18.5701 86.8411 18.4171 86.8411 18.2304C86.8411 18.0288 86.7366 17.8795 86.5275 17.7824C86.3259 17.6779 86.0011 17.5659 85.5531 17.4464C85.0902 17.3344 84.7094 17.2187 84.4107 17.0992C84.1195 16.9797 83.8657 16.7968 83.6491 16.5504C83.4401 16.304 83.3355 15.9717 83.3355 15.5536C83.3355 15.2101 83.4326 14.8965 83.6267 14.6128C83.8283 14.3291 84.1121 14.1051 84.4779 13.9408C84.8513 13.7765 85.2881 13.6944 85.7883 13.6944C86.5275 13.6944 87.1174 13.8811 87.5579 14.2544C87.9985 14.6203 88.2411 15.1168 88.2859 15.744H86.7851C86.7627 15.4976 86.6582 15.3035 86.4715 15.1616C86.2923 15.0123 86.0497 14.9376 85.7435 14.9376C85.4598 14.9376 85.2395 14.9899 85.0827 15.0944C84.9334 15.1989 84.8587 15.3445 84.8587 15.5312C84.8587 15.7403 84.9633 15.9008 85.1723 16.0128C85.3814 16.1173 85.7062 16.2256 86.1467 16.3376C86.5947 16.4496 86.9643 16.5653 87.2555 16.6848C87.5467 16.8043 87.7969 16.9909 88.0059 17.2448C88.2225 17.4912 88.3345 17.8197 88.3419 18.2304C88.3419 18.5888 88.2411 18.9099 88.0395 19.1936C87.8454 19.4773 87.5617 19.7013 87.1883 19.8656C86.8225 20.0224 86.3931 20.1008 85.9003 20.1008Z" fill="white"/>
</svg>
