<svg width="34" height="34" viewBox="0 0 34 34" fill="none" xmlns="http://www.w3.org/2000/svg">
<rect x="1" y="1" width="32" height="32" rx="16" stroke="#EDEEF3"/>
<path d="M14.4342 23.4174C14.0664 23.2269 13.6138 23.3705 13.4232 23.7383C13.2326 24.1061 13.3763 24.5587 13.7441 24.7493L14.4342 23.4174ZM10.009 19.6613L9.55682 20.2596C9.8126 20.4529 10.163 20.4623 10.4287 20.2829C10.6944 20.1035 10.8167 19.775 10.733 19.4655L10.009 19.6613ZM8.45221 17.5445C8.12177 17.2948 7.65142 17.3602 7.40167 17.6906C7.15192 18.0211 7.21734 18.4914 7.54779 18.7412L8.45221 17.5445ZM18.0403 14.1429C18.0403 13.7286 17.7045 13.3929 17.2903 13.3929C16.8761 13.3929 16.5403 13.7286 16.5403 14.1429H18.0403ZM17.2903 17.5714H16.5403C16.5403 17.8235 16.667 18.0588 16.8774 18.1975L17.2903 17.5714ZM19.8484 20.1567C20.1942 20.3848 20.6593 20.2893 20.8874 19.9435C21.1154 19.5977 21.0199 19.1325 20.6741 18.9045L19.8484 20.1567ZM9.4659 19.1456C9.18025 19.4456 9.19186 19.9203 9.49182 20.206C9.79178 20.4916 10.2665 20.48 10.5522 20.1801L9.4659 19.1456ZM12.4075 18.2318C12.6932 17.9318 12.6815 17.4571 12.3816 17.1714C12.0816 16.8858 11.6069 16.8974 11.3212 17.1974L12.4075 18.2318ZM13.7441 24.7493C14.9782 25.3887 16.3831 25.75 17.871 25.75V24.25C16.6281 24.25 15.4594 23.9487 14.4342 23.4174L13.7441 24.7493ZM17.871 25.75C22.7634 25.75 26.75 21.8438 26.75 17H25.25C25.25 20.9928 21.9577 24.25 17.871 24.25V25.75ZM26.75 17C26.75 12.1562 22.7634 8.25 17.871 8.25V9.75C21.9577 9.75 25.25 13.0072 25.25 17H26.75ZM17.871 8.25C12.9786 8.25 8.99194 12.1562 8.99194 17H10.4919C10.4919 13.0072 13.7843 9.75 17.871 9.75V8.25ZM8.99194 17C8.99194 17.7302 9.08048 19.1006 9.28504 19.857L10.733 19.4655C10.5817 18.9057 10.4919 17.6964 10.4919 17H8.99194ZM10.4612 19.0629L8.45221 17.5445L7.54779 18.7412L9.55682 20.2596L10.4612 19.0629ZM17.2903 14.1429C16.5403 14.1429 16.5403 14.1429 16.5403 14.1429C16.5403 14.1429 16.5403 14.1429 16.5403 14.1429C16.5403 14.1429 16.5403 14.1429 16.5403 14.143C16.5403 14.143 16.5403 14.143 16.5403 14.1431C16.5403 14.1431 16.5403 14.1431 16.5403 14.1432C16.5403 14.1432 16.5403 14.1433 16.5403 14.1433C16.5403 14.1434 16.5403 14.1434 16.5403 14.1435C16.5403 14.1436 16.5403 14.1436 16.5403 14.1437C16.5403 14.1438 16.5403 14.1438 16.5403 14.1439C16.5403 14.144 16.5403 14.1441 16.5403 14.1442C16.5403 14.1443 16.5403 14.1443 16.5403 14.1444C16.5403 14.1445 16.5403 14.1446 16.5403 14.1447C16.5403 14.1448 16.5403 14.145 16.5403 14.1451C16.5403 14.1452 16.5403 14.1453 16.5403 14.1454C16.5403 14.1455 16.5403 14.1457 16.5403 14.1458C16.5403 14.1459 16.5403 14.1461 16.5403 14.1462C16.5403 14.1463 16.5403 14.1465 16.5403 14.1466C16.5403 14.1468 16.5403 14.1469 16.5403 14.1471C16.5403 14.1473 16.5403 14.1474 16.5403 14.1476C16.5403 14.1477 16.5403 14.1479 16.5403 14.1481C16.5403 14.1483 16.5403 14.1484 16.5403 14.1486C16.5403 14.1488 16.5403 14.149 16.5403 14.1492C16.5403 14.1494 16.5403 14.1496 16.5403 14.1498C16.5403 14.15 16.5403 14.1502 16.5403 14.1504C16.5403 14.1506 16.5403 14.1508 16.5403 14.151C16.5403 14.1512 16.5403 14.1515 16.5403 14.1517C16.5403 14.1519 16.5403 14.1522 16.5403 14.1524C16.5403 14.1526 16.5403 14.1529 16.5403 14.1531C16.5403 14.1534 16.5403 14.1536 16.5403 14.1539C16.5403 14.1541 16.5403 14.1544 16.5403 14.1546C16.5403 14.1549 16.5403 14.1552 16.5403 14.1554C16.5403 14.1557 16.5403 14.156 16.5403 14.1562C16.5403 14.1565 16.5403 14.1568 16.5403 14.1571C16.5403 14.1574 16.5403 14.1577 16.5403 14.158C16.5403 14.1583 16.5403 14.1586 16.5403 14.1589C16.5403 14.1592 16.5403 14.1595 16.5403 14.1598C16.5403 14.1601 16.5403 14.1604 16.5403 14.1608C16.5403 14.1611 16.5403 14.1614 16.5403 14.1617C16.5403 14.1621 16.5403 14.1624 16.5403 14.1628C16.5403 14.1631 16.5403 14.1634 16.5403 14.1638C16.5403 14.1641 16.5403 14.1645 16.5403 14.1648C16.5403 14.1652 16.5403 14.1656 16.5403 14.1659C16.5403 14.1663 16.5403 14.1667 16.5403 14.167C16.5403 14.1674 16.5403 14.1678 16.5403 14.1682C16.5403 14.1686 16.5403 14.1689 16.5403 14.1693C16.5403 14.1697 16.5403 14.1701 16.5403 14.1705C16.5403 14.1709 16.5403 14.1713 16.5403 14.1717C16.5403 14.1722 16.5403 14.1726 16.5403 14.173C16.5403 14.1734 16.5403 14.1738 16.5403 14.1743C16.5403 14.1747 16.5403 14.1751 16.5403 14.1756C16.5403 14.176 16.5403 14.1764 16.5403 14.1769C16.5403 14.1773 16.5403 14.1778 16.5403 14.1782C16.5403 14.1787 16.5403 14.1791 16.5403 14.1796C16.5403 14.1801 16.5403 14.1805 16.5403 14.181C16.5403 14.1815 16.5403 14.1819 16.5403 14.1824C16.5403 14.1829 16.5403 14.1834 16.5403 14.1839C16.5403 14.1844 16.5403 14.1849 16.5403 14.1854C16.5403 14.1858 16.5403 14.1863 16.5403 14.1869C16.5403 14.1874 16.5403 14.1879 16.5403 14.1884C16.5403 14.1889 16.5403 14.1894 16.5403 14.1899C16.5403 14.1905 16.5403 14.191 16.5403 14.1915C16.5403 14.1921 16.5403 14.1926 16.5403 14.1931C16.5403 14.1937 16.5403 14.1942 16.5403 14.1948C16.5403 14.1953 16.5403 14.1959 16.5403 14.1964C16.5403 14.197 16.5403 14.1975 16.5403 14.1981C16.5403 14.1987 16.5403 14.1993 16.5403 14.1998C16.5403 14.2004 16.5403 14.201 16.5403 14.2016C16.5403 14.2022 16.5403 14.2027 16.5403 14.2033C16.5403 14.2039 16.5403 14.2045 16.5403 14.2051C16.5403 14.2057 16.5403 14.2063 16.5403 14.2069C16.5403 14.2076 16.5403 14.2082 16.5403 14.2088C16.5403 14.2094 16.5403 14.21 16.5403 14.2107C16.5403 14.2113 16.5403 14.2119 16.5403 14.2126C16.5403 14.2132 16.5403 14.2138 16.5403 14.2145C16.5403 14.2151 16.5403 14.2158 16.5403 14.2164C16.5403 14.2171 16.5403 14.2177 16.5403 14.2184C16.5403 14.2191 16.5403 14.2197 16.5403 14.2204C16.5403 14.2211 16.5403 14.2217 16.5403 14.2224C16.5403 14.2231 16.5403 14.2238 16.5403 14.2245C16.5403 14.2252 16.5403 14.2259 16.5403 14.2266C16.5403 14.2273 16.5403 14.228 16.5403 14.2287C16.5403 14.2294 16.5403 14.2301 16.5403 14.2308C16.5403 14.2315 16.5403 14.2322 16.5403 14.233C16.5403 14.2337 16.5403 14.2344 16.5403 14.2351C16.5403 14.2359 16.5403 14.2366 16.5403 14.2374C16.5403 14.2381 16.5403 14.2388 16.5403 14.2396C16.5403 14.2403 16.5403 14.2411 16.5403 14.2419C16.5403 14.2426 16.5403 14.2434 16.5403 14.2441C16.5403 14.2449 16.5403 14.2457 16.5403 14.2465C16.5403 14.2472 16.5403 14.248 16.5403 14.2488C16.5403 14.2496 16.5403 14.2504 16.5403 14.2512C16.5403 14.252 16.5403 14.2528 16.5403 14.2536C16.5403 14.2544 16.5403 14.2552 16.5403 14.256C16.5403 14.2568 16.5403 14.2576 16.5403 14.2584C16.5403 14.2592 16.5403 14.2601 16.5403 14.2609C16.5403 14.2617 16.5403 14.2626 16.5403 14.2634C16.5403 14.2642 16.5403 14.2651 16.5403 14.2659C16.5403 14.2668 16.5403 14.2676 16.5403 14.2685C16.5403 14.2693 16.5403 14.2702 16.5403 14.271C16.5403 14.2719 16.5403 14.2728 16.5403 14.2736C16.5403 14.2745 16.5403 14.2754 16.5403 14.2763C16.5403 14.2772 16.5403 14.278 16.5403 14.2789C16.5403 14.2798 16.5403 14.2807 16.5403 14.2816C16.5403 14.2825 16.5403 14.2834 16.5403 14.2843C16.5403 14.2852 16.5403 14.2861 16.5403 14.2871C16.5403 14.288 16.5403 14.2889 16.5403 14.2898C16.5403 14.2907 16.5403 14.2917 16.5403 14.2926C16.5403 14.2935 16.5403 14.2945 16.5403 14.2954C16.5403 14.2964 16.5403 14.2973 16.5403 14.2982C16.5403 14.2992 16.5403 14.3002 16.5403 14.3011C16.5403 14.3021 16.5403 14.303 16.5403 14.304C16.5403 14.305 16.5403 14.3059 16.5403 14.3069C16.5403 14.3079 16.5403 14.3089 16.5403 14.3099C16.5403 14.3108 16.5403 14.3118 16.5403 14.3128C16.5403 14.3138 16.5403 14.3148 16.5403 14.3158C16.5403 14.3168 16.5403 14.3178 16.5403 14.3188C16.5403 14.3199 16.5403 14.3209 16.5403 14.3219C16.5403 14.3229 16.5403 14.3239 16.5403 14.325C16.5403 14.326 16.5403 14.327 16.5403 14.3281C16.5403 14.3291 16.5403 14.3301 16.5403 14.3312C16.5403 14.3322 16.5403 14.3333 16.5403 14.3343C16.5403 14.3354 16.5403 14.3365 16.5403 14.3375C16.5403 14.3386 16.5403 14.3397 16.5403 14.3407C16.5403 14.3418 16.5403 14.3429 16.5403 14.344C16.5403 14.345 16.5403 14.3461 16.5403 14.3472C16.5403 14.3483 16.5403 14.3494 16.5403 14.3505C16.5403 14.3516 16.5403 14.3527 16.5403 14.3538C16.5403 14.3549 16.5403 14.356 16.5403 14.3571C16.5403 14.3583 16.5403 14.3594 16.5403 14.3605C16.5403 14.3616 16.5403 14.3628 16.5403 14.3639C16.5403 14.365 16.5403 14.3662 16.5403 14.3673C16.5403 14.3684 16.5403 14.3696 16.5403 14.3707C16.5403 14.3719 16.5403 14.3731 16.5403 14.3742C16.5403 14.3754 16.5403 14.3765 16.5403 14.3777C16.5403 14.3789 16.5403 14.38 16.5403 14.3812C16.5403 14.3824 16.5403 14.3836 16.5403 14.3848C16.5403 14.386 16.5403 14.3871 16.5403 14.3883C16.5403 14.3895 16.5403 14.3907 16.5403 14.3919C16.5403 14.3931 16.5403 14.3943 16.5403 14.3956C16.5403 14.3968 16.5403 14.398 16.5403 14.3992C16.5403 14.4004 16.5403 14.4017 16.5403 14.4029C16.5403 14.4041 16.5403 14.4053 16.5403 14.4066C16.5403 14.4078 16.5403 14.4091 16.5403 14.4103C16.5403 14.4116 16.5403 14.4128 16.5403 14.4141C16.5403 14.4153 16.5403 14.4166 16.5403 14.4178C16.5403 14.4191 16.5403 14.4204 16.5403 14.4216C16.5403 14.4229 16.5403 14.4242 16.5403 14.4255C16.5403 14.4268 16.5403 14.428 16.5403 14.4293C16.5403 14.4306 16.5403 14.4319 16.5403 14.4332C16.5403 14.4345 16.5403 14.4358 16.5403 14.4371C16.5403 14.4384 16.5403 14.4398 16.5403 14.4411C16.5403 14.4424 16.5403 14.4437 16.5403 14.445C16.5403 14.4464 16.5403 14.4477 16.5403 14.449C16.5403 14.4504 16.5403 14.4517 16.5403 14.453C16.5403 14.4544 16.5403 14.4557 16.5403 14.4571C16.5403 14.4584 16.5403 14.4598 16.5403 14.4611C16.5403 14.4625 16.5403 14.4639 16.5403 14.4652C16.5403 14.4666 16.5403 14.468 16.5403 14.4694C16.5403 14.4707 16.5403 14.4721 16.5403 14.4735C16.5403 14.4749 16.5403 14.4763 16.5403 14.4777C16.5403 14.4791 16.5403 14.4805 16.5403 14.4819C16.5403 14.4833 16.5403 14.4847 16.5403 14.4861C16.5403 14.4875 16.5403 14.4889 16.5403 14.4904C16.5403 14.4918 16.5403 14.4932 16.5403 14.4946C16.5403 14.4961 16.5403 14.4975 16.5403 14.4989C16.5403 14.5004 16.5403 14.5018 16.5403 14.5033C16.5403 14.5047 16.5403 14.5062 16.5403 14.5076C16.5403 14.5091 16.5403 14.5105 16.5403 14.512C16.5403 14.5135 16.5403 14.5149 16.5403 14.5164C16.5403 14.5179 16.5403 14.5194 16.5403 14.5208C16.5403 14.5223 16.5403 14.5238 16.5403 14.5253C16.5403 14.5268 16.5403 14.5283 16.5403 14.5298C16.5403 14.5313 16.5403 14.5328 16.5403 14.5343C16.5403 14.5358 16.5403 14.5373 16.5403 14.5388C16.5403 14.5404 16.5403 14.5419 16.5403 14.5434C16.5403 14.5449 16.5403 14.5465 16.5403 14.548C16.5403 14.5495 16.5403 14.5511 16.5403 14.5526C16.5403 14.5542 16.5403 14.5557 16.5403 14.5573C16.5403 14.5588 16.5403 14.5604 16.5403 14.5619C16.5403 14.5635 16.5403 14.565 16.5403 14.5666C16.5403 14.5682 16.5403 14.5698 16.5403 14.5713C16.5403 14.5729 16.5403 14.5745 16.5403 14.5761C16.5403 14.5777 16.5403 14.5793 16.5403 14.5809C16.5403 14.5825 16.5403 14.5841 16.5403 14.5857C16.5403 14.5873 16.5403 14.5889 16.5403 14.5905C16.5403 14.5921 16.5403 14.5937 16.5403 14.5953C16.5403 14.597 16.5403 14.5986 16.5403 14.6002C16.5403 14.6018 16.5403 14.6035 16.5403 14.6051C16.5403 14.6068 16.5403 14.6084 16.5403 14.6101C16.5403 14.6117 16.5403 14.6134 16.5403 14.615C16.5403 14.6167 16.5403 14.6183 16.5403 14.62C16.5403 14.6217 16.5403 14.6233 16.5403 14.625C16.5403 14.6267 16.5403 14.6284 16.5403 14.63C16.5403 14.6317 16.5403 14.6334 16.5403 14.6351C16.5403 14.6368 16.5403 14.6385 16.5403 14.6402C16.5403 14.6419 16.5403 14.6436 16.5403 14.6453C16.5403 14.647 16.5403 14.6487 16.5403 14.6504C16.5403 14.6522 16.5403 14.6539 16.5403 14.6556C16.5403 14.6573 16.5403 14.6591 16.5403 14.6608C16.5403 14.6625 16.5403 14.6643 16.5403 14.666C16.5403 14.6678 16.5403 14.6695 16.5403 14.6713C16.5403 14.673 16.5403 14.6748 16.5403 14.6765C16.5403 14.6783 16.5403 14.6801 16.5403 14.6818C16.5403 14.6836 16.5403 14.6854 16.5403 14.6872C16.5403 14.6889 16.5403 14.6907 16.5403 14.6925C16.5403 14.6943 16.5403 14.6961 16.5403 14.6979C16.5403 14.6997 16.5403 14.7015 16.5403 14.7033C16.5403 14.7051 16.5403 14.7069 16.5403 14.7087C16.5403 14.7105 16.5403 14.7123 16.5403 14.7142C16.5403 14.716 16.5403 14.7178 16.5403 14.7196C16.5403 14.7215 16.5403 14.7233 16.5403 14.7251C16.5403 14.727 16.5403 14.7288 16.5403 14.7307C16.5403 14.7325 16.5403 14.7344 16.5403 14.7362C16.5403 14.7381 16.5403 14.74 16.5403 14.7418C16.5403 14.7437 16.5403 14.7456 16.5403 14.7474C16.5403 14.7493 16.5403 14.7512 16.5403 14.7531C16.5403 14.755 16.5403 14.7568 16.5403 14.7587C16.5403 14.7606 16.5403 14.7625 16.5403 14.7644C16.5403 14.7663 16.5403 14.7682 16.5403 14.7701C16.5403 14.772 16.5403 14.774 16.5403 14.7759C16.5403 14.7778 16.5403 14.7797 16.5403 14.7816C16.5403 14.7836 16.5403 14.7855 16.5403 14.7874C16.5403 14.7894 16.5403 14.7913 16.5403 14.7933C16.5403 14.7952 16.5403 14.7972 16.5403 14.7991C16.5403 14.8011 16.5403 14.803 16.5403 14.805C16.5403 14.8069 16.5403 14.8089 16.5403 14.8109C16.5403 14.8128 16.5403 14.8148 16.5403 14.8168C16.5403 14.8188 16.5403 14.8208 16.5403 14.8228C16.5403 14.8247 16.5403 14.8267 16.5403 14.8287C16.5403 14.8307 16.5403 14.8327 16.5403 14.8347C16.5403 14.8367 16.5403 14.8387 16.5403 14.8408C16.5403 14.8428 16.5403 14.8448 16.5403 14.8468C16.5403 14.8488 16.5403 14.8509 16.5403 14.8529C16.5403 14.8549 16.5403 14.857 16.5403 14.859C16.5403 14.861 16.5403 14.8631 16.5403 14.8651C16.5403 14.8672 16.5403 14.8692 16.5403 14.8713C16.5403 14.8734 16.5403 14.8754 16.5403 14.8775C16.5403 14.8796 16.5403 14.8816 16.5403 14.8837C16.5403 14.8858 16.5403 14.8879 16.5403 14.8899C16.5403 14.892 16.5403 14.8941 16.5403 14.8962C16.5403 14.8983 16.5403 14.9004 16.5403 14.9025C16.5403 14.9046 16.5403 14.9067 16.5403 14.9088C16.5403 14.9109 16.5403 14.913 16.5403 14.9152C16.5403 14.9173 16.5403 14.9194 16.5403 14.9215C16.5403 14.9237 16.5403 14.9258 16.5403 14.9279C16.5403 14.9301 16.5403 14.9322 16.5403 14.9343C16.5403 14.9365 16.5403 14.9386 16.5403 14.9408C16.5403 14.9429 16.5403 14.9451 16.5403 14.9473C16.5403 14.9494 16.5403 14.9516 16.5403 14.9538C16.5403 14.9559 16.5403 14.9581 16.5403 14.9603C16.5403 14.9625 16.5403 14.9647 16.5403 14.9668C16.5403 14.969 16.5403 14.9712 16.5403 14.9734C16.5403 14.9756 16.5403 14.9778 16.5403 14.98C16.5403 14.9822 16.5403 14.9844 16.5403 14.9867C16.5403 14.9889 16.5403 14.9911 16.5403 14.9933C16.5403 14.9955 16.5403 14.9978 16.5403 15C16.5403 15.0022 16.5403 15.0045 16.5403 15.0067C16.5403 15.009 16.5403 15.0112 16.5403 15.0134C16.5403 15.0157 16.5403 15.0179 16.5403 15.0202C16.5403 15.0225 16.5403 15.0247 16.5403 15.027C16.5403 15.0293 16.5403 15.0315 16.5403 15.0338C16.5403 15.0361 16.5403 15.0384 16.5403 15.0406C16.5403 15.0429 16.5403 15.0452 16.5403 15.0475C16.5403 15.0498 16.5403 15.0521 16.5403 15.0544C16.5403 15.0567 16.5403 15.059 16.5403 15.0613C16.5403 15.0636 16.5403 15.066 16.5403 15.0683C16.5403 15.0706 16.5403 15.0729 16.5403 15.0752C16.5403 15.0776 16.5403 15.0799 16.5403 15.0822C16.5403 15.0846 16.5403 15.0869 16.5403 15.0893C16.5403 15.0916 16.5403 15.094 16.5403 15.0963C16.5403 15.0987 16.5403 15.101 16.5403 15.1034C16.5403 15.1058 16.5403 15.1081 16.5403 15.1105C16.5403 15.1129 16.5403 15.1152 16.5403 15.1176C16.5403 15.12 16.5403 15.1224 16.5403 15.1248C16.5403 15.1272 16.5403 15.1296 16.5403 15.132C16.5403 15.1344 16.5403 15.1368 16.5403 15.1392C16.5403 15.1416 16.5403 15.144 16.5403 15.1464C16.5403 15.1488 16.5403 15.1512 16.5403 15.1537C16.5403 15.1561 16.5403 15.1585 16.5403 15.1609C16.5403 15.1634 16.5403 15.1658 16.5403 15.1682C16.5403 15.1707 16.5403 15.1731 16.5403 15.1756C16.5403 15.178 16.5403 15.1805 16.5403 15.1829C16.5403 15.1854 16.5403 15.1879 16.5403 15.1903C16.5403 15.1928 16.5403 15.1953 16.5403 15.1978C16.5403 15.2002 16.5403 15.2027 16.5403 15.2052C16.5403 15.2077 16.5403 15.2102 16.5403 15.2127C16.5403 15.2152 16.5403 15.2177 16.5403 15.2202C16.5403 15.2227 16.5403 15.2252 16.5403 15.2277C16.5403 15.2302 16.5403 15.2327 16.5403 15.2352C16.5403 15.2377 16.5403 15.2403 16.5403 15.2428C16.5403 15.2453 16.5403 15.2479 16.5403 15.2504C16.5403 15.2529 16.5403 15.2555 16.5403 15.258C16.5403 15.2606 16.5403 15.2631 16.5403 15.2657C16.5403 15.2682 16.5403 15.2708 16.5403 15.2734C16.5403 15.2759 16.5403 15.2785 16.5403 15.2811C16.5403 15.2836 16.5403 15.2862 16.5403 15.2888C16.5403 15.2914 16.5403 15.2939 16.5403 15.2965C16.5403 15.2991 16.5403 15.3017 16.5403 15.3043C16.5403 15.3069 16.5403 15.3095 16.5403 15.3121C16.5403 15.3147 16.5403 15.3173 16.5403 15.32C16.5403 15.3226 16.5403 15.3252 16.5403 15.3278C16.5403 15.3304 16.5403 15.3331 16.5403 15.3357C16.5403 15.3383 16.5403 15.341 16.5403 15.3436C16.5403 15.3463 16.5403 15.3489 16.5403 15.3516C16.5403 15.3542 16.5403 15.3569 16.5403 15.3595C16.5403 15.3622 16.5403 15.3649 16.5403 15.3675C16.5403 15.3702 16.5403 15.3729 16.5403 15.3755C16.5403 15.3782 16.5403 15.3809 16.5403 15.3836C16.5403 15.3863 16.5403 15.389 16.5403 15.3916C16.5403 15.3943 16.5403 15.397 16.5403 15.3997C16.5403 15.4024 16.5403 15.4052 16.5403 15.4079C16.5403 15.4106 16.5403 15.4133 16.5403 15.416C16.5403 15.4187 16.5403 15.4215 16.5403 15.4242C16.5403 15.4269 16.5403 15.4297 16.5403 15.4324C16.5403 15.4351 16.5403 15.4379 16.5403 15.4406C16.5403 15.4434 16.5403 15.4461 16.5403 15.4489C16.5403 15.4516 16.5403 15.4544 16.5403 15.4571C16.5403 15.4599 16.5403 15.4627 16.5403 15.4655C16.5403 15.4682 16.5403 15.471 16.5403 15.4738C16.5403 15.4766 16.5403 15.4794 16.5403 15.4821C16.5403 15.4849 16.5403 15.4877 16.5403 15.4905C16.5403 15.4933 16.5403 15.4961 16.5403 15.4989C16.5403 15.5017 16.5403 15.5046 16.5403 15.5074C16.5403 15.5102 16.5403 15.513 16.5403 15.5158C16.5403 15.5187 16.5403 15.5215 16.5403 15.5243C16.5403 15.5272 16.5403 15.53 16.5403 15.5328C16.5403 15.5357 16.5403 15.5385 16.5403 15.5414C16.5403 15.5442 16.5403 15.5471 16.5403 15.5499C16.5403 15.5528 16.5403 15.5557 16.5403 15.5585C16.5403 15.5614 16.5403 15.5643 16.5403 15.5672C16.5403 15.57 16.5403 15.5729 16.5403 15.5758C16.5403 15.5787 16.5403 15.5816 16.5403 15.5845C16.5403 15.5874 16.5403 15.5903 16.5403 15.5932C16.5403 15.5961 16.5403 15.599 16.5403 15.6019C16.5403 15.6048 16.5403 15.6077 16.5403 15.6106C16.5403 15.6136 16.5403 15.6165 16.5403 15.6194C16.5403 15.6223 16.5403 15.6253 16.5403 15.6282C16.5403 15.6312 16.5403 15.6341 16.5403 15.637C16.5403 15.64 16.5403 15.6429 16.5403 15.6459C16.5403 15.6489 16.5403 15.6518 16.5403 15.6548C16.5403 15.6577 16.5403 15.6607 16.5403 15.6637C16.5403 15.6667 16.5403 15.6696 16.5403 15.6726C16.5403 15.6756 16.5403 15.6786 16.5403 15.6816C16.5403 15.6846 16.5403 15.6876 16.5403 15.6906C16.5403 15.6936 16.5403 15.6966 16.5403 15.6996C16.5403 15.7026 16.5403 15.7056 16.5403 15.7086C16.5403 15.7116 16.5403 15.7147 16.5403 15.7177C16.5403 15.7207 16.5403 15.7237 16.5403 15.7268C16.5403 15.7298 16.5403 15.7328 16.5403 15.7359C16.5403 15.7389 16.5403 15.742 16.5403 15.745C16.5403 15.7481 16.5403 15.7511 16.5403 15.7542C16.5403 15.7573 16.5403 15.7603 16.5403 15.7634C16.5403 15.7665 16.5403 15.7695 16.5403 15.7726C16.5403 15.7757 16.5403 15.7788 16.5403 15.7819C16.5403 15.7849 16.5403 15.788 16.5403 15.7911C16.5403 15.7942 16.5403 15.7973 16.5403 15.8004C16.5403 15.8035 16.5403 15.8066 16.5403 15.8098C16.5403 15.8129 16.5403 15.816 16.5403 15.8191C16.5403 15.8222 16.5403 15.8254 16.5403 15.8285C16.5403 15.8316 16.5403 15.8348 16.5403 15.8379C16.5403 15.841 16.5403 15.8442 16.5403 15.8473C16.5403 15.8505 16.5403 15.8536 16.5403 15.8568C16.5403 15.8599 16.5403 15.8631 16.5403 15.8663C16.5403 15.8694 16.5403 15.8726 16.5403 15.8758C16.5403 15.8789 16.5403 15.8821 16.5403 15.8853C16.5403 15.8885 16.5403 15.8917 16.5403 15.8949C16.5403 15.8981 16.5403 15.9012 16.5403 15.9044C16.5403 15.9076 16.5403 15.9109 16.5403 15.9141C16.5403 15.9173 16.5403 15.9205 16.5403 15.9237C16.5403 15.9269 16.5403 15.9301 16.5403 15.9334C16.5403 15.9366 16.5403 15.9398 16.5403 15.9431C16.5403 15.9463 16.5403 15.9495 16.5403 15.9528C16.5403 15.956 16.5403 15.9593 16.5403 15.9625C16.5403 15.9658 16.5403 15.969 16.5403 15.9723C16.5403 15.9756 16.5403 15.9788 16.5403 15.9821C16.5403 15.9854 16.5403 15.9886 16.5403 15.9919C16.5403 15.9952 16.5403 15.9985 16.5403 16.0018C16.5403 16.005 16.5403 16.0083 16.5403 16.0116C16.5403 16.0149 16.5403 16.0182 16.5403 16.0215C16.5403 16.0248 16.5403 16.0281 16.5403 16.0315C16.5403 16.0348 16.5403 16.0381 16.5403 16.0414C16.5403 16.0447 16.5403 16.0481 16.5403 16.0514C16.5403 16.0547 16.5403 16.0581 16.5403 16.0614C16.5403 16.0647 16.5403 16.0681 16.5403 16.0714C16.5403 16.0748 16.5403 16.0781 16.5403 16.0815C16.5403 16.0848 16.5403 16.0882 16.5403 16.0916C16.5403 16.0949 16.5403 16.0983 16.5403 16.1017C16.5403 16.1051 16.5403 16.1084 16.5403 16.1118C16.5403 16.1152 16.5403 16.1186 16.5403 16.122C16.5403 16.1254 16.5403 16.1288 16.5403 16.1322C16.5403 16.1356 16.5403 16.139 16.5403 16.1424C16.5403 16.1458 16.5403 16.1492 16.5403 16.1526C16.5403 16.156 16.5403 16.1595 16.5403 16.1629C16.5403 16.1663 16.5403 16.1697 16.5403 16.1732C16.5403 16.1766 16.5403 16.1801 16.5403 16.1835C16.5403 16.1869 16.5403 16.1904 16.5403 16.1938C16.5403 16.1973 16.5403 16.2008 16.5403 16.2042C16.5403 16.2077 16.5403 16.2111 16.5403 16.2146C16.5403 16.2181 16.5403 16.2216 16.5403 16.225C16.5403 16.2285 16.5403 16.232 16.5403 16.2355C16.5403 16.239 16.5403 16.2425 16.5403 16.246C16.5403 16.2495 16.5403 16.253 16.5403 16.2565C16.5403 16.26 16.5403 16.2635 16.5403 16.267C16.5403 16.2705 16.5403 16.274 16.5403 16.2776C16.5403 16.2811 16.5403 16.2846 16.5403 16.2881C16.5403 16.2917 16.5403 16.2952 16.5403 16.2987C16.5403 16.3023 16.5403 16.3058 16.5403 16.3094C16.5403 16.3129 16.5403 16.3165 16.5403 16.32C16.5403 16.3236 16.5403 16.3272 16.5403 16.3307C16.5403 16.3343 16.5403 16.3379 16.5403 16.3414C16.5403 16.345 16.5403 16.3486 16.5403 16.3522C16.5403 16.3558 16.5403 16.3593 16.5403 16.3629C16.5403 16.3665 16.5403 16.3701 16.5403 16.3737C16.5403 16.3773 16.5403 16.3809 16.5403 16.3845C16.5403 16.3881 16.5403 16.3918 16.5403 16.3954C16.5403 16.399 16.5403 16.4026 16.5403 16.4062C16.5403 16.4099 16.5403 16.4135 16.5403 16.4171C16.5403 16.4208 16.5403 16.4244 16.5403 16.4281C16.5403 16.4317 16.5403 16.4354 16.5403 16.439C16.5403 16.4427 16.5403 16.4463 16.5403 16.45C16.5403 16.4536 16.5403 16.4573 16.5403 16.461C16.5403 16.4647 16.5403 16.4683 16.5403 16.472C16.5403 16.4757 16.5403 16.4794 16.5403 16.4831C16.5403 16.4868 16.5403 16.4904 16.5403 16.4941C16.5403 16.4978 16.5403 16.5015 16.5403 16.5052C16.5403 16.509 16.5403 16.5127 16.5403 16.5164C16.5403 16.5201 16.5403 16.5238 16.5403 16.5275C16.5403 16.5313 16.5403 16.535 16.5403 16.5387C16.5403 16.5424 16.5403 16.5462 16.5403 16.5499C16.5403 16.5537 16.5403 16.5574 16.5403 16.5612C16.5403 16.5649 16.5403 16.5687 16.5403 16.5724C16.5403 16.5762 16.5403 16.5799 16.5403 16.5837C16.5403 16.5875 16.5403 16.5912 16.5403 16.595C16.5403 16.5988 16.5403 16.6026 16.5403 16.6064C16.5403 16.6101 16.5403 16.6139 16.5403 16.6177C16.5403 16.6215 16.5403 16.6253 16.5403 16.6291C16.5403 16.6329 16.5403 16.6367 16.5403 16.6405C16.5403 16.6443 16.5403 16.6482 16.5403 16.652C16.5403 16.6558 16.5403 16.6596 16.5403 16.6634C16.5403 16.6673 16.5403 16.6711 16.5403 16.6749C16.5403 16.6788 16.5403 16.6826 16.5403 16.6865C16.5403 16.6903 16.5403 16.6942 16.5403 16.698C16.5403 16.7019 16.5403 16.7057 16.5403 16.7096C16.5403 16.7135 16.5403 16.7173 16.5403 16.7212C16.5403 16.7251 16.5403 16.7289 16.5403 16.7328C16.5403 16.7367 16.5403 16.7406 16.5403 16.7445C16.5403 16.7484 16.5403 16.7523 16.5403 16.7562C16.5403 16.76 16.5403 16.764 16.5403 16.7679C16.5403 16.7718 16.5403 16.7757 16.5403 16.7796C16.5403 16.7835 16.5403 16.7874 16.5403 16.7913C16.5403 16.7953 16.5403 16.7992 16.5403 16.8031C16.5403 16.8071 16.5403 16.811 16.5403 16.8149C16.5403 16.8189 16.5403 16.8228 16.5403 16.8268C16.5403 16.8307 16.5403 16.8347 16.5403 16.8386C16.5403 16.8426 16.5403 16.8466 16.5403 16.8505C16.5403 16.8545 16.5403 16.8585 16.5403 16.8624C16.5403 16.8664 16.5403 16.8704 16.5403 16.8744C16.5403 16.8784 16.5403 16.8824 16.5403 16.8864C16.5403 16.8903 16.5403 16.8943 16.5403 16.8983C16.5403 16.9023 16.5403 16.9064 16.5403 16.9104C16.5403 16.9144 16.5403 16.9184 16.5403 16.9224C16.5403 16.9264 16.5403 16.9305 16.5403 16.9345C16.5403 16.9385 16.5403 16.9425 16.5403 16.9466C16.5403 16.9506 16.5403 16.9547 16.5403 16.9587C16.5403 16.9628 16.5403 16.9668 16.5403 16.9709C16.5403 16.9749 16.5403 16.979 16.5403 16.983C16.5403 16.9871 16.5403 16.9912 16.5403 16.9952C16.5403 16.9993 16.5403 17.0034 16.5403 17.0075C16.5403 17.0115 16.5403 17.0156 16.5403 17.0197C16.5403 17.0238 16.5403 17.0279 16.5403 17.032C16.5403 17.0361 16.5403 17.0402 16.5403 17.0443C16.5403 17.0484 16.5403 17.0525 16.5403 17.0566C16.5403 17.0608 16.5403 17.0649 16.5403 17.069C16.5403 17.0731 16.5403 17.0773 16.5403 17.0814C16.5403 17.0855 16.5403 17.0897 16.5403 17.0938C16.5403 17.0979 16.5403 17.1021 16.5403 17.1062C16.5403 17.1104 16.5403 17.1145 16.5403 17.1187C16.5403 17.1229 16.5403 17.127 16.5403 17.1312C16.5403 17.1354 16.5403 17.1395 16.5403 17.1437C16.5403 17.1479 16.5403 17.1521 16.5403 17.1562C16.5403 17.1604 16.5403 17.1646 16.5403 17.1688C16.5403 17.173 16.5403 17.1772 16.5403 17.1814C16.5403 17.1856 16.5403 17.1898 16.5403 17.194C16.5403 17.1982 16.5403 17.2025 16.5403 17.2067C16.5403 17.2109 16.5403 17.2151 16.5403 17.2194C16.5403 17.2236 16.5403 17.2278 16.5403 17.2321C16.5403 17.2363 16.5403 17.2405 16.5403 17.2448C16.5403 17.249 16.5403 17.2533 16.5403 17.2575C16.5403 17.2618 16.5403 17.266 16.5403 17.2703C16.5403 17.2746 16.5403 17.2788 16.5403 17.2831C16.5403 17.2874 16.5403 17.2917 16.5403 17.2959C16.5403 17.3002 16.5403 17.3045 16.5403 17.3088C16.5403 17.3131 16.5403 17.3174 16.5403 17.3217C16.5403 17.326 16.5403 17.3303 16.5403 17.3346C16.5403 17.3389 16.5403 17.3432 16.5403 17.3475C16.5403 17.3518 16.5403 17.3562 16.5403 17.3605C16.5403 17.3648 16.5403 17.3691 16.5403 17.3735C16.5403 17.3778 16.5403 17.3821 16.5403 17.3865C16.5403 17.3908 16.5403 17.3952 16.5403 17.3995C16.5403 17.4039 16.5403 17.4082 16.5403 17.4126C16.5403 17.417 16.5403 17.4213 16.5403 17.4257C16.5403 17.4301 16.5403 17.4344 16.5403 17.4388C16.5403 17.4432 16.5403 17.4476 16.5403 17.452C16.5403 17.4563 16.5403 17.4607 16.5403 17.4651C16.5403 17.4695 16.5403 17.4739 16.5403 17.4783C16.5403 17.4827 16.5403 17.4871 16.5403 17.4915C16.5403 17.496 16.5403 17.5004 16.5403 17.5048C16.5403 17.5092 16.5403 17.5136 16.5403 17.5181C16.5403 17.5225 16.5403 17.5269 16.5403 17.5314C16.5403 17.5358 16.5403 17.5402 16.5403 17.5447C16.5403 17.5491 16.5403 17.5536 16.5403 17.558C16.5403 17.5625 16.5403 17.567 16.5403 17.5714H18.0403C18.0403 17.567 18.0403 17.5625 18.0403 17.558C18.0403 17.5536 18.0403 17.5491 18.0403 17.5447C18.0403 17.5402 18.0403 17.5358 18.0403 17.5314C18.0403 17.5269 18.0403 17.5225 18.0403 17.5181C18.0403 17.5136 18.0403 17.5092 18.0403 17.5048C18.0403 17.5004 18.0403 17.496 18.0403 17.4915C18.0403 17.4871 18.0403 17.4827 18.0403 17.4783C18.0403 17.4739 18.0403 17.4695 18.0403 17.4651C18.0403 17.4607 18.0403 17.4563 18.0403 17.452C18.0403 17.4476 18.0403 17.4432 18.0403 17.4388C18.0403 17.4344 18.0403 17.4301 18.0403 17.4257C18.0403 17.4213 18.0403 17.417 18.0403 17.4126C18.0403 17.4082 18.0403 17.4039 18.0403 17.3995C18.0403 17.3952 18.0403 17.3908 18.0403 17.3865C18.0403 17.3821 18.0403 17.3778 18.0403 17.3735C18.0403 17.3691 18.0403 17.3648 18.0403 17.3605C18.0403 17.3562 18.0403 17.3518 18.0403 17.3475C18.0403 17.3432 18.0403 17.3389 18.0403 17.3346C18.0403 17.3303 18.0403 17.326 18.0403 17.3217C18.0403 17.3174 18.0403 17.3131 18.0403 17.3088C18.0403 17.3045 18.0403 17.3002 18.0403 17.2959C18.0403 17.2917 18.0403 17.2874 18.0403 17.2831C18.0403 17.2788 18.0403 17.2746 18.0403 17.2703C18.0403 17.266 18.0403 17.2618 18.0403 17.2575C18.0403 17.2533 18.0403 17.249 18.0403 17.2448C18.0403 17.2405 18.0403 17.2363 18.0403 17.2321C18.0403 17.2278 18.0403 17.2236 18.0403 17.2194C18.0403 17.2151 18.0403 17.2109 18.0403 17.2067C18.0403 17.2025 18.0403 17.1982 18.0403 17.194C18.0403 17.1898 18.0403 17.1856 18.0403 17.1814C18.0403 17.1772 18.0403 17.173 18.0403 17.1688C18.0403 17.1646 18.0403 17.1604 18.0403 17.1562C18.0403 17.1521 18.0403 17.1479 18.0403 17.1437C18.0403 17.1395 18.0403 17.1354 18.0403 17.1312C18.0403 17.127 18.0403 17.1229 18.0403 17.1187C18.0403 17.1145 18.0403 17.1104 18.0403 17.1062C18.0403 17.1021 18.0403 17.0979 18.0403 17.0938C18.0403 17.0897 18.0403 17.0855 18.0403 17.0814C18.0403 17.0773 18.0403 17.0731 18.0403 17.069C18.0403 17.0649 18.0403 17.0608 18.0403 17.0566C18.0403 17.0525 18.0403 17.0484 18.0403 17.0443C18.0403 17.0402 18.0403 17.0361 18.0403 17.032C18.0403 17.0279 18.0403 17.0238 18.0403 17.0197C18.0403 17.0156 18.0403 17.0115 18.0403 17.0075C18.0403 17.0034 18.0403 16.9993 18.0403 16.9952C18.0403 16.9912 18.0403 16.9871 18.0403 16.983C18.0403 16.979 18.0403 16.9749 18.0403 16.9709C18.0403 16.9668 18.0403 16.9628 18.0403 16.9587C18.0403 16.9547 18.0403 16.9506 18.0403 16.9466C18.0403 16.9425 18.0403 16.9385 18.0403 16.9345C18.0403 16.9305 18.0403 16.9264 18.0403 16.9224C18.0403 16.9184 18.0403 16.9144 18.0403 16.9104C18.0403 16.9064 18.0403 16.9023 18.0403 16.8983C18.0403 16.8943 18.0403 16.8903 18.0403 16.8864C18.0403 16.8824 18.0403 16.8784 18.0403 16.8744C18.0403 16.8704 18.0403 16.8664 18.0403 16.8624C18.0403 16.8585 18.0403 16.8545 18.0403 16.8505C18.0403 16.8466 18.0403 16.8426 18.0403 16.8386C18.0403 16.8347 18.0403 16.8307 18.0403 16.8268C18.0403 16.8228 18.0403 16.8189 18.0403 16.8149C18.0403 16.811 18.0403 16.8071 18.0403 16.8031C18.0403 16.7992 18.0403 16.7953 18.0403 16.7913C18.0403 16.7874 18.0403 16.7835 18.0403 16.7796C18.0403 16.7757 18.0403 16.7718 18.0403 16.7679C18.0403 16.764 18.0403 16.76 18.0403 16.7562C18.0403 16.7523 18.0403 16.7484 18.0403 16.7445C18.0403 16.7406 18.0403 16.7367 18.0403 16.7328C18.0403 16.7289 18.0403 16.7251 18.0403 16.7212C18.0403 16.7173 18.0403 16.7135 18.0403 16.7096C18.0403 16.7057 18.0403 16.7019 18.0403 16.698C18.0403 16.6942 18.0403 16.6903 18.0403 16.6865C18.0403 16.6826 18.0403 16.6788 18.0403 16.6749C18.0403 16.6711 18.0403 16.6673 18.0403 16.6634C18.0403 16.6596 18.0403 16.6558 18.0403 16.652C18.0403 16.6482 18.0403 16.6443 18.0403 16.6405C18.0403 16.6367 18.0403 16.6329 18.0403 16.6291C18.0403 16.6253 18.0403 16.6215 18.0403 16.6177C18.0403 16.6139 18.0403 16.6101 18.0403 16.6064C18.0403 16.6026 18.0403 16.5988 18.0403 16.595C18.0403 16.5912 18.0403 16.5875 18.0403 16.5837C18.0403 16.5799 18.0403 16.5762 18.0403 16.5724C18.0403 16.5687 18.0403 16.5649 18.0403 16.5612C18.0403 16.5574 18.0403 16.5537 18.0403 16.5499C18.0403 16.5462 18.0403 16.5424 18.0403 16.5387C18.0403 16.535 18.0403 16.5313 18.0403 16.5275C18.0403 16.5238 18.0403 16.5201 18.0403 16.5164C18.0403 16.5127 18.0403 16.509 18.0403 16.5052C18.0403 16.5015 18.0403 16.4978 18.0403 16.4941C18.0403 16.4904 18.0403 16.4868 18.0403 16.4831C18.0403 16.4794 18.0403 16.4757 18.0403 16.472C18.0403 16.4683 18.0403 16.4647 18.0403 16.461C18.0403 16.4573 18.0403 16.4536 18.0403 16.45C18.0403 16.4463 18.0403 16.4427 18.0403 16.439C18.0403 16.4354 18.0403 16.4317 18.0403 16.4281C18.0403 16.4244 18.0403 16.4208 18.0403 16.4171C18.0403 16.4135 18.0403 16.4099 18.0403 16.4062C18.0403 16.4026 18.0403 16.399 18.0403 16.3954C18.0403 16.3918 18.0403 16.3881 18.0403 16.3845C18.0403 16.3809 18.0403 16.3773 18.0403 16.3737C18.0403 16.3701 18.0403 16.3665 18.0403 16.3629C18.0403 16.3593 18.0403 16.3558 18.0403 16.3522C18.0403 16.3486 18.0403 16.345 18.0403 16.3414C18.0403 16.3379 18.0403 16.3343 18.0403 16.3307C18.0403 16.3272 18.0403 16.3236 18.0403 16.32C18.0403 16.3165 18.0403 16.3129 18.0403 16.3094C18.0403 16.3058 18.0403 16.3023 18.0403 16.2987C18.0403 16.2952 18.0403 16.2917 18.0403 16.2881C18.0403 16.2846 18.0403 16.2811 18.0403 16.2776C18.0403 16.274 18.0403 16.2705 18.0403 16.267C18.0403 16.2635 18.0403 16.26 18.0403 16.2565C18.0403 16.253 18.0403 16.2495 18.0403 16.246C18.0403 16.2425 18.0403 16.239 18.0403 16.2355C18.0403 16.232 18.0403 16.2285 18.0403 16.225C18.0403 16.2216 18.0403 16.2181 18.0403 16.2146C18.0403 16.2111 18.0403 16.2077 18.0403 16.2042C18.0403 16.2008 18.0403 16.1973 18.0403 16.1938C18.0403 16.1904 18.0403 16.1869 18.0403 16.1835C18.0403 16.1801 18.0403 16.1766 18.0403 16.1732C18.0403 16.1697 18.0403 16.1663 18.0403 16.1629C18.0403 16.1595 18.0403 16.156 18.0403 16.1526C18.0403 16.1492 18.0403 16.1458 18.0403 16.1424C18.0403 16.139 18.0403 16.1356 18.0403 16.1322C18.0403 16.1288 18.0403 16.1254 18.0403 16.122C18.0403 16.1186 18.0403 16.1152 18.0403 16.1118C18.0403 16.1084 18.0403 16.1051 18.0403 16.1017C18.0403 16.0983 18.0403 16.0949 18.0403 16.0916C18.0403 16.0882 18.0403 16.0848 18.0403 16.0815C18.0403 16.0781 18.0403 16.0748 18.0403 16.0714C18.0403 16.0681 18.0403 16.0647 18.0403 16.0614C18.0403 16.0581 18.0403 16.0547 18.0403 16.0514C18.0403 16.0481 18.0403 16.0447 18.0403 16.0414C18.0403 16.0381 18.0403 16.0348 18.0403 16.0315C18.0403 16.0281 18.0403 16.0248 18.0403 16.0215C18.0403 16.0182 18.0403 16.0149 18.0403 16.0116C18.0403 16.0083 18.0403 16.005 18.0403 16.0018C18.0403 15.9985 18.0403 15.9952 18.0403 15.9919C18.0403 15.9886 18.0403 15.9854 18.0403 15.9821C18.0403 15.9788 18.0403 15.9756 18.0403 15.9723C18.0403 15.969 18.0403 15.9658 18.0403 15.9625C18.0403 15.9593 18.0403 15.956 18.0403 15.9528C18.0403 15.9495 18.0403 15.9463 18.0403 15.9431C18.0403 15.9398 18.0403 15.9366 18.0403 15.9334C18.0403 15.9301 18.0403 15.9269 18.0403 15.9237C18.0403 15.9205 18.0403 15.9173 18.0403 15.9141C18.0403 15.9109 18.0403 15.9076 18.0403 15.9044C18.0403 15.9012 18.0403 15.8981 18.0403 15.8949C18.0403 15.8917 18.0403 15.8885 18.0403 15.8853C18.0403 15.8821 18.0403 15.8789 18.0403 15.8758C18.0403 15.8726 18.0403 15.8694 18.0403 15.8663C18.0403 15.8631 18.0403 15.8599 18.0403 15.8568C18.0403 15.8536 18.0403 15.8505 18.0403 15.8473C18.0403 15.8442 18.0403 15.841 18.0403 15.8379C18.0403 15.8348 18.0403 15.8316 18.0403 15.8285C18.0403 15.8254 18.0403 15.8222 18.0403 15.8191C18.0403 15.816 18.0403 15.8129 18.0403 15.8098C18.0403 15.8066 18.0403 15.8035 18.0403 15.8004C18.0403 15.7973 18.0403 15.7942 18.0403 15.7911C18.0403 15.788 18.0403 15.7849 18.0403 15.7819C18.0403 15.7788 18.0403 15.7757 18.0403 15.7726C18.0403 15.7695 18.0403 15.7665 18.0403 15.7634C18.0403 15.7603 18.0403 15.7573 18.0403 15.7542C18.0403 15.7511 18.0403 15.7481 18.0403 15.745C18.0403 15.742 18.0403 15.7389 18.0403 15.7359C18.0403 15.7328 18.0403 15.7298 18.0403 15.7268C18.0403 15.7237 18.0403 15.7207 18.0403 15.7177C18.0403 15.7147 18.0403 15.7116 18.0403 15.7086C18.0403 15.7056 18.0403 15.7026 18.0403 15.6996C18.0403 15.6966 18.0403 15.6936 18.0403 15.6906C18.0403 15.6876 18.0403 15.6846 18.0403 15.6816C18.0403 15.6786 18.0403 15.6756 18.0403 15.6726C18.0403 15.6696 18.0403 15.6667 18.0403 15.6637C18.0403 15.6607 18.0403 15.6577 18.0403 15.6548C18.0403 15.6518 18.0403 15.6489 18.0403 15.6459C18.0403 15.6429 18.0403 15.64 18.0403 15.637C18.0403 15.6341 18.0403 15.6312 18.0403 15.6282C18.0403 15.6253 18.0403 15.6223 18.0403 15.6194C18.0403 15.6165 18.0403 15.6136 18.0403 15.6106C18.0403 15.6077 18.0403 15.6048 18.0403 15.6019C18.0403 15.599 18.0403 15.5961 18.0403 15.5932C18.0403 15.5903 18.0403 15.5874 18.0403 15.5845C18.0403 15.5816 18.0403 15.5787 18.0403 15.5758C18.0403 15.5729 18.0403 15.57 18.0403 15.5672C18.0403 15.5643 18.0403 15.5614 18.0403 15.5585C18.0403 15.5557 18.0403 15.5528 18.0403 15.5499C18.0403 15.5471 18.0403 15.5442 18.0403 15.5414C18.0403 15.5385 18.0403 15.5357 18.0403 15.5328C18.0403 15.53 18.0403 15.5272 18.0403 15.5243C18.0403 15.5215 18.0403 15.5187 18.0403 15.5158C18.0403 15.513 18.0403 15.5102 18.0403 15.5074C18.0403 15.5046 18.0403 15.5017 18.0403 15.4989C18.0403 15.4961 18.0403 15.4933 18.0403 15.4905C18.0403 15.4877 18.0403 15.4849 18.0403 15.4821C18.0403 15.4794 18.0403 15.4766 18.0403 15.4738C18.0403 15.471 18.0403 15.4682 18.0403 15.4655C18.0403 15.4627 18.0403 15.4599 18.0403 15.4571C18.0403 15.4544 18.0403 15.4516 18.0403 15.4489C18.0403 15.4461 18.0403 15.4434 18.0403 15.4406C18.0403 15.4379 18.0403 15.4351 18.0403 15.4324C18.0403 15.4297 18.0403 15.4269 18.0403 15.4242C18.0403 15.4215 18.0403 15.4187 18.0403 15.416C18.0403 15.4133 18.0403 15.4106 18.0403 15.4079C18.0403 15.4052 18.0403 15.4024 18.0403 15.3997C18.0403 15.397 18.0403 15.3943 18.0403 15.3916C18.0403 15.389 18.0403 15.3863 18.0403 15.3836C18.0403 15.3809 18.0403 15.3782 18.0403 15.3755C18.0403 15.3729 18.0403 15.3702 18.0403 15.3675C18.0403 15.3649 18.0403 15.3622 18.0403 15.3595C18.0403 15.3569 18.0403 15.3542 18.0403 15.3516C18.0403 15.3489 18.0403 15.3463 18.0403 15.3436C18.0403 15.341 18.0403 15.3383 18.0403 15.3357C18.0403 15.3331 18.0403 15.3304 18.0403 15.3278C18.0403 15.3252 18.0403 15.3226 18.0403 15.32C18.0403 15.3173 18.0403 15.3147 18.0403 15.3121C18.0403 15.3095 18.0403 15.3069 18.0403 15.3043C18.0403 15.3017 18.0403 15.2991 18.0403 15.2965C18.0403 15.2939 18.0403 15.2914 18.0403 15.2888C18.0403 15.2862 18.0403 15.2836 18.0403 15.2811C18.0403 15.2785 18.0403 15.2759 18.0403 15.2734C18.0403 15.2708 18.0403 15.2682 18.0403 15.2657C18.0403 15.2631 18.0403 15.2606 18.0403 15.258C18.0403 15.2555 18.0403 15.2529 18.0403 15.2504C18.0403 15.2479 18.0403 15.2453 18.0403 15.2428C18.0403 15.2403 18.0403 15.2377 18.0403 15.2352C18.0403 15.2327 18.0403 15.2302 18.0403 15.2277C18.0403 15.2252 18.0403 15.2227 18.0403 15.2202C18.0403 15.2177 18.0403 15.2152 18.0403 15.2127C18.0403 15.2102 18.0403 15.2077 18.0403 15.2052C18.0403 15.2027 18.0403 15.2002 18.0403 15.1978C18.0403 15.1953 18.0403 15.1928 18.0403 15.1903C18.0403 15.1879 18.0403 15.1854 18.0403 15.1829C18.0403 15.1805 18.0403 15.178 18.0403 15.1756C18.0403 15.1731 18.0403 15.1707 18.0403 15.1682C18.0403 15.1658 18.0403 15.1634 18.0403 15.1609C18.0403 15.1585 18.0403 15.1561 18.0403 15.1537C18.0403 15.1512 18.0403 15.1488 18.0403 15.1464C18.0403 15.144 18.0403 15.1416 18.0403 15.1392C18.0403 15.1368 18.0403 15.1344 18.0403 15.132C18.0403 15.1296 18.0403 15.1272 18.0403 15.1248C18.0403 15.1224 18.0403 15.12 18.0403 15.1176C18.0403 15.1152 18.0403 15.1129 18.0403 15.1105C18.0403 15.1081 18.0403 15.1058 18.0403 15.1034C18.0403 15.101 18.0403 15.0987 18.0403 15.0963C18.0403 15.094 18.0403 15.0916 18.0403 15.0893C18.0403 15.0869 18.0403 15.0846 18.0403 15.0822C18.0403 15.0799 18.0403 15.0776 18.0403 15.0752C18.0403 15.0729 18.0403 15.0706 18.0403 15.0683C18.0403 15.066 18.0403 15.0636 18.0403 15.0613C18.0403 15.059 18.0403 15.0567 18.0403 15.0544C18.0403 15.0521 18.0403 15.0498 18.0403 15.0475C18.0403 15.0452 18.0403 15.0429 18.0403 15.0406C18.0403 15.0384 18.0403 15.0361 18.0403 15.0338C18.0403 15.0315 18.0403 15.0293 18.0403 15.027C18.0403 15.0247 18.0403 15.0225 18.0403 15.0202C18.0403 15.0179 18.0403 15.0157 18.0403 15.0134C18.0403 15.0112 18.0403 15.009 18.0403 15.0067C18.0403 15.0045 18.0403 15.0022 18.0403 15C18.0403 14.9978 18.0403 14.9955 18.0403 14.9933C18.0403 14.9911 18.0403 14.9889 18.0403 14.9867C18.0403 14.9844 18.0403 14.9822 18.0403 14.98C18.0403 14.9778 18.0403 14.9756 18.0403 14.9734C18.0403 14.9712 18.0403 14.969 18.0403 14.9668C18.0403 14.9647 18.0403 14.9625 18.0403 14.9603C18.0403 14.9581 18.0403 14.9559 18.0403 14.9538C18.0403 14.9516 18.0403 14.9494 18.0403 14.9473C18.0403 14.9451 18.0403 14.9429 18.0403 14.9408C18.0403 14.9386 18.0403 14.9365 18.0403 14.9343C18.0403 14.9322 18.0403 14.9301 18.0403 14.9279C18.0403 14.9258 18.0403 14.9237 18.0403 14.9215C18.0403 14.9194 18.0403 14.9173 18.0403 14.9152C18.0403 14.913 18.0403 14.9109 18.0403 14.9088C18.0403 14.9067 18.0403 14.9046 18.0403 14.9025C18.0403 14.9004 18.0403 14.8983 18.0403 14.8962C18.0403 14.8941 18.0403 14.892 18.0403 14.8899C18.0403 14.8879 18.0403 14.8858 18.0403 14.8837C18.0403 14.8816 18.0403 14.8796 18.0403 14.8775C18.0403 14.8754 18.0403 14.8734 18.0403 14.8713C18.0403 14.8692 18.0403 14.8672 18.0403 14.8651C18.0403 14.8631 18.0403 14.861 18.0403 14.859C18.0403 14.857 18.0403 14.8549 18.0403 14.8529C18.0403 14.8509 18.0403 14.8488 18.0403 14.8468C18.0403 14.8448 18.0403 14.8428 18.0403 14.8408C18.0403 14.8387 18.0403 14.8367 18.0403 14.8347C18.0403 14.8327 18.0403 14.8307 18.0403 14.8287C18.0403 14.8267 18.0403 14.8247 18.0403 14.8228C18.0403 14.8208 18.0403 14.8188 18.0403 14.8168C18.0403 14.8148 18.0403 14.8128 18.0403 14.8109C18.0403 14.8089 18.0403 14.8069 18.0403 14.805C18.0403 14.803 18.0403 14.8011 18.0403 14.7991C18.0403 14.7972 18.0403 14.7952 18.0403 14.7933C18.0403 14.7913 18.0403 14.7894 18.0403 14.7874C18.0403 14.7855 18.0403 14.7836 18.0403 14.7816C18.0403 14.7797 18.0403 14.7778 18.0403 14.7759C18.0403 14.774 18.0403 14.772 18.0403 14.7701C18.0403 14.7682 18.0403 14.7663 18.0403 14.7644C18.0403 14.7625 18.0403 14.7606 18.0403 14.7587C18.0403 14.7568 18.0403 14.755 18.0403 14.7531C18.0403 14.7512 18.0403 14.7493 18.0403 14.7474C18.0403 14.7456 18.0403 14.7437 18.0403 14.7418C18.0403 14.74 18.0403 14.7381 18.0403 14.7362C18.0403 14.7344 18.0403 14.7325 18.0403 14.7307C18.0403 14.7288 18.0403 14.727 18.0403 14.7251C18.0403 14.7233 18.0403 14.7215 18.0403 14.7196C18.0403 14.7178 18.0403 14.716 18.0403 14.7142C18.0403 14.7123 18.0403 14.7105 18.0403 14.7087C18.0403 14.7069 18.0403 14.7051 18.0403 14.7033C18.0403 14.7015 18.0403 14.6997 18.0403 14.6979C18.0403 14.6961 18.0403 14.6943 18.0403 14.6925C18.0403 14.6907 18.0403 14.6889 18.0403 14.6872C18.0403 14.6854 18.0403 14.6836 18.0403 14.6818C18.0403 14.6801 18.0403 14.6783 18.0403 14.6765C18.0403 14.6748 18.0403 14.673 18.0403 14.6713C18.0403 14.6695 18.0403 14.6678 18.0403 14.666C18.0403 14.6643 18.0403 14.6625 18.0403 14.6608C18.0403 14.6591 18.0403 14.6573 18.0403 14.6556C18.0403 14.6539 18.0403 14.6522 18.0403 14.6504C18.0403 14.6487 18.0403 14.647 18.0403 14.6453C18.0403 14.6436 18.0403 14.6419 18.0403 14.6402C18.0403 14.6385 18.0403 14.6368 18.0403 14.6351C18.0403 14.6334 18.0403 14.6317 18.0403 14.63C18.0403 14.6284 18.0403 14.6267 18.0403 14.625C18.0403 14.6233 18.0403 14.6217 18.0403 14.62C18.0403 14.6183 18.0403 14.6167 18.0403 14.615C18.0403 14.6134 18.0403 14.6117 18.0403 14.6101C18.0403 14.6084 18.0403 14.6068 18.0403 14.6051C18.0403 14.6035 18.0403 14.6018 18.0403 14.6002C18.0403 14.5986 18.0403 14.597 18.0403 14.5953C18.0403 14.5937 18.0403 14.5921 18.0403 14.5905C18.0403 14.5889 18.0403 14.5873 18.0403 14.5857C18.0403 14.5841 18.0403 14.5825 18.0403 14.5809C18.0403 14.5793 18.0403 14.5777 18.0403 14.5761C18.0403 14.5745 18.0403 14.5729 18.0403 14.5713C18.0403 14.5698 18.0403 14.5682 18.0403 14.5666C18.0403 14.565 18.0403 14.5635 18.0403 14.5619C18.0403 14.5604 18.0403 14.5588 18.0403 14.5573C18.0403 14.5557 18.0403 14.5542 18.0403 14.5526C18.0403 14.5511 18.0403 14.5495 18.0403 14.548C18.0403 14.5465 18.0403 14.5449 18.0403 14.5434C18.0403 14.5419 18.0403 14.5404 18.0403 14.5388C18.0403 14.5373 18.0403 14.5358 18.0403 14.5343C18.0403 14.5328 18.0403 14.5313 18.0403 14.5298C18.0403 14.5283 18.0403 14.5268 18.0403 14.5253C18.0403 14.5238 18.0403 14.5223 18.0403 14.5208C18.0403 14.5194 18.0403 14.5179 18.0403 14.5164C18.0403 14.5149 18.0403 14.5135 18.0403 14.512C18.0403 14.5105 18.0403 14.5091 18.0403 14.5076C18.0403 14.5062 18.0403 14.5047 18.0403 14.5033C18.0403 14.5018 18.0403 14.5004 18.0403 14.4989C18.0403 14.4975 18.0403 14.4961 18.0403 14.4946C18.0403 14.4932 18.0403 14.4918 18.0403 14.4904C18.0403 14.4889 18.0403 14.4875 18.0403 14.4861C18.0403 14.4847 18.0403 14.4833 18.0403 14.4819C18.0403 14.4805 18.0403 14.4791 18.0403 14.4777C18.0403 14.4763 18.0403 14.4749 18.0403 14.4735C18.0403 14.4721 18.0403 14.4707 18.0403 14.4694C18.0403 14.468 18.0403 14.4666 18.0403 14.4652C18.0403 14.4639 18.0403 14.4625 18.0403 14.4611C18.0403 14.4598 18.0403 14.4584 18.0403 14.4571C18.0403 14.4557 18.0403 14.4544 18.0403 14.453C18.0403 14.4517 18.0403 14.4504 18.0403 14.449C18.0403 14.4477 18.0403 14.4464 18.0403 14.445C18.0403 14.4437 18.0403 14.4424 18.0403 14.4411C18.0403 14.4398 18.0403 14.4384 18.0403 14.4371C18.0403 14.4358 18.0403 14.4345 18.0403 14.4332C18.0403 14.4319 18.0403 14.4306 18.0403 14.4293C18.0403 14.428 18.0403 14.4268 18.0403 14.4255C18.0403 14.4242 18.0403 14.4229 18.0403 14.4216C18.0403 14.4204 18.0403 14.4191 18.0403 14.4178C18.0403 14.4166 18.0403 14.4153 18.0403 14.4141C18.0403 14.4128 18.0403 14.4116 18.0403 14.4103C18.0403 14.4091 18.0403 14.4078 18.0403 14.4066C18.0403 14.4053 18.0403 14.4041 18.0403 14.4029C18.0403 14.4017 18.0403 14.4004 18.0403 14.3992C18.0403 14.398 18.0403 14.3968 18.0403 14.3956C18.0403 14.3943 18.0403 14.3931 18.0403 14.3919C18.0403 14.3907 18.0403 14.3895 18.0403 14.3883C18.0403 14.3871 18.0403 14.386 18.0403 14.3848C18.0403 14.3836 18.0403 14.3824 18.0403 14.3812C18.0403 14.38 18.0403 14.3789 18.0403 14.3777C18.0403 14.3765 18.0403 14.3754 18.0403 14.3742C18.0403 14.3731 18.0403 14.3719 18.0403 14.3707C18.0403 14.3696 18.0403 14.3684 18.0403 14.3673C18.0403 14.3662 18.0403 14.365 18.0403 14.3639C18.0403 14.3628 18.0403 14.3616 18.0403 14.3605C18.0403 14.3594 18.0403 14.3583 18.0403 14.3571C18.0403 14.356 18.0403 14.3549 18.0403 14.3538C18.0403 14.3527 18.0403 14.3516 18.0403 14.3505C18.0403 14.3494 18.0403 14.3483 18.0403 14.3472C18.0403 14.3461 18.0403 14.345 18.0403 14.344C18.0403 14.3429 18.0403 14.3418 18.0403 14.3407C18.0403 14.3397 18.0403 14.3386 18.0403 14.3375C18.0403 14.3365 18.0403 14.3354 18.0403 14.3343C18.0403 14.3333 18.0403 14.3322 18.0403 14.3312C18.0403 14.3301 18.0403 14.3291 18.0403 14.3281C18.0403 14.327 18.0403 14.326 18.0403 14.325C18.0403 14.3239 18.0403 14.3229 18.0403 14.3219C18.0403 14.3209 18.0403 14.3199 18.0403 14.3188C18.0403 14.3178 18.0403 14.3168 18.0403 14.3158C18.0403 14.3148 18.0403 14.3138 18.0403 14.3128C18.0403 14.3118 18.0403 14.3108 18.0403 14.3099C18.0403 14.3089 18.0403 14.3079 18.0403 14.3069C18.0403 14.3059 18.0403 14.305 18.0403 14.304C18.0403 14.303 18.0403 14.3021 18.0403 14.3011C18.0403 14.3002 18.0403 14.2992 18.0403 14.2982C18.0403 14.2973 18.0403 14.2964 18.0403 14.2954C18.0403 14.2945 18.0403 14.2935 18.0403 14.2926C18.0403 14.2917 18.0403 14.2907 18.0403 14.2898C18.0403 14.2889 18.0403 14.288 18.0403 14.2871C18.0403 14.2861 18.0403 14.2852 18.0403 14.2843C18.0403 14.2834 18.0403 14.2825 18.0403 14.2816C18.0403 14.2807 18.0403 14.2798 18.0403 14.2789C18.0403 14.278 18.0403 14.2772 18.0403 14.2763C18.0403 14.2754 18.0403 14.2745 18.0403 14.2736C18.0403 14.2728 18.0403 14.2719 18.0403 14.271C18.0403 14.2702 18.0403 14.2693 18.0403 14.2685C18.0403 14.2676 18.0403 14.2668 18.0403 14.2659C18.0403 14.2651 18.0403 14.2642 18.0403 14.2634C18.0403 14.2626 18.0403 14.2617 18.0403 14.2609C18.0403 14.2601 18.0403 14.2592 18.0403 14.2584C18.0403 14.2576 18.0403 14.2568 18.0403 14.256C18.0403 14.2552 18.0403 14.2544 18.0403 14.2536C18.0403 14.2528 18.0403 14.252 18.0403 14.2512C18.0403 14.2504 18.0403 14.2496 18.0403 14.2488C18.0403 14.248 18.0403 14.2472 18.0403 14.2465C18.0403 14.2457 18.0403 14.2449 18.0403 14.2441C18.0403 14.2434 18.0403 14.2426 18.0403 14.2419C18.0403 14.2411 18.0403 14.2403 18.0403 14.2396C18.0403 14.2388 18.0403 14.2381 18.0403 14.2374C18.0403 14.2366 18.0403 14.2359 18.0403 14.2351C18.0403 14.2344 18.0403 14.2337 18.0403 14.233C18.0403 14.2322 18.0403 14.2315 18.0403 14.2308C18.0403 14.2301 18.0403 14.2294 18.0403 14.2287C18.0403 14.228 18.0403 14.2273 18.0403 14.2266C18.0403 14.2259 18.0403 14.2252 18.0403 14.2245C18.0403 14.2238 18.0403 14.2231 18.0403 14.2224C18.0403 14.2217 18.0403 14.2211 18.0403 14.2204C18.0403 14.2197 18.0403 14.2191 18.0403 14.2184C18.0403 14.2177 18.0403 14.2171 18.0403 14.2164C18.0403 14.2158 18.0403 14.2151 18.0403 14.2145C18.0403 14.2138 18.0403 14.2132 18.0403 14.2126C18.0403 14.2119 18.0403 14.2113 18.0403 14.2107C18.0403 14.21 18.0403 14.2094 18.0403 14.2088C18.0403 14.2082 18.0403 14.2076 18.0403 14.2069C18.0403 14.2063 18.0403 14.2057 18.0403 14.2051C18.0403 14.2045 18.0403 14.2039 18.0403 14.2033C18.0403 14.2027 18.0403 14.2022 18.0403 14.2016C18.0403 14.201 18.0403 14.2004 18.0403 14.1998C18.0403 14.1993 18.0403 14.1987 18.0403 14.1981C18.0403 14.1975 18.0403 14.197 18.0403 14.1964C18.0403 14.1959 18.0403 14.1953 18.0403 14.1948C18.0403 14.1942 18.0403 14.1937 18.0403 14.1931C18.0403 14.1926 18.0403 14.1921 18.0403 14.1915C18.0403 14.191 18.0403 14.1905 18.0403 14.1899C18.0403 14.1894 18.0403 14.1889 18.0403 14.1884C18.0403 14.1879 18.0403 14.1874 18.0403 14.1869C18.0403 14.1863 18.0403 14.1858 18.0403 14.1854C18.0403 14.1849 18.0403 14.1844 18.0403 14.1839C18.0403 14.1834 18.0403 14.1829 18.0403 14.1824C18.0403 14.1819 18.0403 14.1815 18.0403 14.181C18.0403 14.1805 18.0403 14.1801 18.0403 14.1796C18.0403 14.1791 18.0403 14.1787 18.0403 14.1782C18.0403 14.1778 18.0403 14.1773 18.0403 14.1769C18.0403 14.1764 18.0403 14.176 18.0403 14.1756C18.0403 14.1751 18.0403 14.1747 18.0403 14.1743C18.0403 14.1738 18.0403 14.1734 18.0403 14.173C18.0403 14.1726 18.0403 14.1722 18.0403 14.1717C18.0403 14.1713 18.0403 14.1709 18.0403 14.1705C18.0403 14.1701 18.0403 14.1697 18.0403 14.1693C18.0403 14.1689 18.0403 14.1686 18.0403 14.1682C18.0403 14.1678 18.0403 14.1674 18.0403 14.167C18.0403 14.1667 18.0403 14.1663 18.0403 14.1659C18.0403 14.1656 18.0403 14.1652 18.0403 14.1648C18.0403 14.1645 18.0403 14.1641 18.0403 14.1638C18.0403 14.1634 18.0403 14.1631 18.0403 14.1628C18.0403 14.1624 18.0403 14.1621 18.0403 14.1617C18.0403 14.1614 18.0403 14.1611 18.0403 14.1608C18.0403 14.1604 18.0403 14.1601 18.0403 14.1598C18.0403 14.1595 18.0403 14.1592 18.0403 14.1589C18.0403 14.1586 18.0403 14.1583 18.0403 14.158C18.0403 14.1577 18.0403 14.1574 18.0403 14.1571C18.0403 14.1568 18.0403 14.1565 18.0403 14.1562C18.0403 14.156 18.0403 14.1557 18.0403 14.1554C18.0403 14.1552 18.0403 14.1549 18.0403 14.1546C18.0403 14.1544 18.0403 14.1541 18.0403 14.1539C18.0403 14.1536 18.0403 14.1534 18.0403 14.1531C18.0403 14.1529 18.0403 14.1526 18.0403 14.1524C18.0403 14.1522 18.0403 14.1519 18.0403 14.1517C18.0403 14.1515 18.0403 14.1512 18.0403 14.151C18.0403 14.1508 18.0403 14.1506 18.0403 14.1504C18.0403 14.1502 18.0403 14.15 18.0403 14.1498C18.0403 14.1496 18.0403 14.1494 18.0403 14.1492C18.0403 14.149 18.0403 14.1488 18.0403 14.1486C18.0403 14.1484 18.0403 14.1483 18.0403 14.1481C18.0403 14.1479 18.0403 14.1477 18.0403 14.1476C18.0403 14.1474 18.0403 14.1473 18.0403 14.1471C18.0403 14.1469 18.0403 14.1468 18.0403 14.1466C18.0403 14.1465 18.0403 14.1463 18.0403 14.1462C18.0403 14.1461 18.0403 14.1459 18.0403 14.1458C18.0403 14.1457 18.0403 14.1455 18.0403 14.1454C18.0403 14.1453 18.0403 14.1452 18.0403 14.1451C18.0403 14.145 18.0403 14.1448 18.0403 14.1447C18.0403 14.1446 18.0403 14.1445 18.0403 14.1444C18.0403 14.1443 18.0403 14.1443 18.0403 14.1442C18.0403 14.1441 18.0403 14.144 18.0403 14.1439C18.0403 14.1438 18.0403 14.1438 18.0403 14.1437C18.0403 14.1436 18.0403 14.1436 18.0403 14.1435C18.0403 14.1434 18.0403 14.1434 18.0403 14.1433C18.0403 14.1433 18.0403 14.1432 18.0403 14.1432C18.0403 14.1431 18.0403 14.1431 18.0403 14.1431C18.0403 14.143 18.0403 14.143 18.0403 14.143C18.0403 14.1429 18.0403 14.1429 18.0403 14.1429C18.0403 14.1429 18.0403 14.1429 18.0403 14.1429C18.0403 14.1429 18.0403 14.1429 17.2903 14.1429ZM16.8774 18.1975L19.8484 20.1567L20.6741 18.9045L17.7032 16.9453L16.8774 18.1975ZM10.5522 20.1801C11.1706 19.5306 11.6344 19.0436 11.9437 18.7189C12.0983 18.5565 12.2142 18.4347 12.2915 18.3536C12.3302 18.313 12.3592 18.2825 12.3785 18.2622C12.3882 18.2521 12.3954 18.2445 12.4003 18.2394C12.4027 18.2369 12.4045 18.235 12.4057 18.2337C12.4063 18.2331 12.4067 18.2326 12.407 18.2323C12.4072 18.2321 12.4073 18.232 12.4074 18.2319C12.4074 18.2319 12.4075 18.2318 12.4075 18.2318C12.4075 18.2318 12.4075 18.2318 12.4075 18.2318C12.4075 18.2318 12.4075 18.2318 11.8644 17.7146C11.3212 17.1974 11.3212 17.1974 11.3212 17.1974C11.3212 17.1974 11.3212 17.1974 11.3212 17.1974C11.3212 17.1974 11.3212 17.1974 11.3211 17.1975C11.3211 17.1976 11.3209 17.1977 11.3208 17.1978C11.3205 17.1981 11.32 17.1986 11.3194 17.1993C11.3182 17.2005 11.3164 17.2024 11.314 17.205C11.3092 17.21 11.3019 17.2176 11.2923 17.2278C11.2729 17.2481 11.2439 17.2785 11.2053 17.3191C11.128 17.4003 11.012 17.5221 10.8574 17.6844C10.5482 18.0091 10.0844 18.4962 9.4659 19.1456L10.5522 20.1801Z" fill="#1C1C1C"/>
</svg>
