<svg width="65" height="32" viewBox="0 0 65 32" fill="none" xmlns="http://www.w3.org/2000/svg">
<path d="M0.800024 4.8C0.800024 2.36995 2.76997 0.4 5.20002 0.4H32.8V31.6H5.20003C2.76997 31.6 0.800024 29.6301 0.800024 27.2V4.8Z" stroke="#EDEEF3" stroke-width="0.8"/>
<rect x="6.79993" y="6.39999" width="19.2" height="19.2" fill="white" fill-opacity="0.01"/>
<path d="M13.8545 10.4H11.9454C11.3128 10.4 10.7999 10.9128 10.7999 11.5454V13.4545C10.7999 14.0872 11.3128 14.6 11.9454 14.6H13.8545C14.4871 14.6 14.9999 14.0872 14.9999 13.4545V11.5454C14.9999 10.9128 14.4871 10.4 13.8545 10.4Z" stroke="#1C1C1C" stroke-width="1.2"/>
<path d="M20.8545 10.4H18.9454C18.3128 10.4 17.7999 10.9128 17.7999 11.5454V13.4545C17.7999 14.0872 18.3128 14.6 18.9454 14.6H20.8545C21.4871 14.6 21.9999 14.0872 21.9999 13.4545V11.5454C21.9999 10.9128 21.4871 10.4 20.8545 10.4Z" stroke="#1C1C1C" stroke-width="1.2"/>
<path d="M13.8545 17.4H11.9454C11.3128 17.4 10.7999 17.9128 10.7999 18.5454V20.4545C10.7999 21.0872 11.3128 21.6 11.9454 21.6H13.8545C14.4871 21.6 14.9999 21.0872 14.9999 20.4545V18.5454C14.9999 17.9128 14.4871 17.4 13.8545 17.4Z" stroke="#1C1C1C" stroke-width="1.2"/>
<path d="M20.8545 17.4H18.9454C18.3128 17.4 17.7999 17.9128 17.7999 18.5454V20.4545C17.7999 21.0872 18.3128 21.6 18.9454 21.6H20.8545C21.4871 21.6 21.9999 21.0872 21.9999 20.4545V18.5454C21.9999 17.9128 21.4871 17.4 20.8545 17.4Z" stroke="#1C1C1C" stroke-width="1.2"/>
<path d="M32.8 0.4H59.6C62.0301 0.4 64 2.36995 64 4.8V27.2C64 29.6301 62.0301 31.6 59.6 31.6H32.8V0.4Z" stroke="#EDEEF3" stroke-width="0.8"/>
<rect x="38.7999" y="6.39999" width="19.2" height="19.2" fill="white" fill-opacity="0.01"/>
<path d="M43.8822 11.4826C43.8822 12.0024 43.4609 12.4238 42.9411 12.4238C42.4213 12.4238 41.9999 12.0024 41.9999 11.4826C41.9999 10.9628 42.4213 10.5414 42.9411 10.5414C43.4609 10.5414 43.8822 10.9628 43.8822 11.4826Z" fill="#1F32D6"/>
<path d="M46.1411 11.4826C46.1411 11.1707 46.3939 10.9179 46.7058 10.9179H54.2352C54.5471 10.9179 54.7999 11.1707 54.7999 11.4826C54.7999 11.7945 54.5471 12.0473 54.2352 12.0473H46.7058C46.3939 12.0473 46.1411 11.7945 46.1411 11.4826Z" fill="#1F32D6"/>
<path d="M43.8822 16.0002C43.8822 16.52 43.4609 16.9414 42.9411 16.9414C42.4213 16.9414 41.9999 16.52 41.9999 16.0002C41.9999 15.4804 42.4213 15.0591 42.9411 15.0591C43.4609 15.0591 43.8822 15.4804 43.8822 16.0002Z" fill="#1F32D6"/>
<path d="M46.1411 16.0002C46.1411 15.6884 46.3939 15.4355 46.7058 15.4355H54.2352C54.5471 15.4355 54.7999 15.6884 54.7999 16.0002C54.7999 16.3121 54.5471 16.5649 54.2352 16.5649H46.7058C46.3939 16.5649 46.1411 16.3121 46.1411 16.0002Z" fill="#1F32D6"/>
<path d="M43.8822 20.5179C43.8822 21.0377 43.4609 21.4591 42.9411 21.4591C42.4213 21.4591 41.9999 21.0377 41.9999 20.5179C41.9999 19.9981 42.4213 19.5767 42.9411 19.5767C43.4609 19.5767 43.8822 19.9981 43.8822 20.5179Z" fill="#1F32D6"/>
<path d="M46.7058 19.9532C46.3939 19.9532 46.1411 20.206 46.1411 20.5179C46.1411 20.8298 46.3939 21.0826 46.7058 21.0826H54.2352C54.5471 21.0826 54.7999 20.8298 54.7999 20.5179C54.7999 20.206 54.5471 19.9532 54.2352 19.9532H46.7058Z" fill="#1F32D6"/>
</svg>
