<svg width="62" height="32" viewBox="0 0 62 32" fill="none" xmlns="http://www.w3.org/2000/svg">
<path d="M1.0001 4.8C1.0001 2.36995 2.97005 0.4 5.4001 0.4H56.6001C59.0302 0.4 61.0001 2.36995 61.0001 4.8V27.2C61.0001 29.6301 59.0302 31.6 56.6001 31.6H5.40009C2.97004 31.6 1.0001 29.6301 1.0001 27.2V4.8Z" stroke="#EDEEF3" stroke-width="0.8"/>
<path d="M16.501 10.8272H17.5202V21.1536H16.501V18.768H14.4178V17.8048H16.501V16.0912H15.045V15.128H16.501V13.4928H14.8322V12.5296H16.501V10.8272ZM12.525 21.0528H11.5058L11.2706 20.0224C11.5842 20.056 11.8754 20.0784 12.1554 20.0784C12.4578 20.0784 12.6146 19.9664 12.6146 19.7424V17.3456C12.2562 17.48 11.8978 17.6144 11.5282 17.7264L11.2706 16.6512C11.7186 16.5504 12.1666 16.4272 12.6146 16.2704V13.896H11.4946V12.8768H12.6146V10.8496H13.645V12.8768H14.5522V13.896H13.645V15.856C13.9698 15.6992 14.2946 15.5424 14.6082 15.3744V16.4608C14.2946 16.6176 13.9698 16.7744 13.645 16.92V20C13.645 20.6944 13.2642 21.0528 12.525 21.0528ZM18.6066 10.8272H19.637V12.5296H21.4626V13.4928H19.637V15.128H21.1938V16.0912H19.637V17.8048H21.541V18.768H19.637V21.1536H18.6066V10.8272ZM28.1714 10.7488C28.3058 11.0176 28.4514 11.32 28.5858 11.656H32.573V12.6416H24.397V15.2512C24.3522 17.704 23.9602 19.6752 23.2098 21.1536L22.4034 20.4368C23.0082 19.1936 23.3218 17.4688 23.3442 15.2512V11.656H27.4994C27.3762 11.3984 27.2418 11.152 27.0962 10.928L28.1714 10.7488ZM27.0962 14.5792C27.6114 14.848 28.093 15.1056 28.5298 15.3744C29.1122 15.0384 29.6498 14.6688 30.1538 14.2432H25.405V13.336H31.4866V14.0976C30.8146 14.792 30.0978 15.3968 29.3138 15.8896L29.6834 16.1584L29.5378 16.304H32.405V17.1328C31.9346 18.0064 31.4306 18.7232 30.8706 19.3056L30.0754 18.6672C30.501 18.2864 30.893 17.8272 31.2514 17.2784H29.0114V20.0448C29.0114 20.7952 28.6418 21.176 27.9026 21.176H26.2338L26.0098 20.168C26.5474 20.2128 27.0514 20.2464 27.5442 20.2464C27.813 20.2464 27.9586 20.0896 27.9586 19.7984V17.2784H24.7554V16.304H28.429C27.8914 15.9456 27.2306 15.576 26.469 15.1952L27.0962 14.5792Z" fill="#1C1C1C"/>
<path d="M39.156 18.592L41.3198 20.649C41.5316 20.8504 41.8742 20.8504 42.0838 20.649L44.2475 18.592C44.4594 18.3906 44.4594 18.065 44.2475 17.8657C44.0357 17.6664 43.6931 17.6643 43.4835 17.8657L42.2438 19.0441V11.7142C42.2438 11.4293 42.0027 11.2 41.7029 11.2C41.4032 11.2 41.162 11.4293 41.162 11.7142V19.0441L39.9224 17.8636C39.7105 17.6621 39.3679 17.6621 39.1583 17.8636C38.9487 18.065 38.9464 18.3906 39.1583 18.5899L39.156 18.592ZM45.85 20.7989H46.9319C47.2317 20.7989 47.4728 20.5697 47.4728 20.2847C47.4728 19.9997 47.2317 19.7705 46.9319 19.7705H45.85C45.5503 19.7705 45.3091 19.9997 45.3091 20.2847C45.3091 20.5697 45.5503 20.7989 45.85 20.7989ZM45.85 18.0564H48.3744C48.6741 18.0564 48.9153 17.8271 48.9153 17.5422C48.9153 17.2572 48.6741 17.0279 48.3744 17.0279H45.85C45.5503 17.0279 45.3091 17.2572 45.3091 17.5422C45.3091 17.8271 45.5503 18.0564 45.85 18.0564ZM45.85 15.3138H49.8168C50.1166 15.3138 50.3578 15.0846 50.3578 14.7996C50.3578 14.5146 50.1166 14.2854 49.8168 14.2854H45.85C45.5503 14.2854 45.3091 14.5146 45.3091 14.7996C45.3091 15.0846 45.5503 15.3138 45.85 15.3138ZM45.85 12.5713H51.2593C51.5591 12.5713 51.8002 12.342 51.8002 12.0571C51.8002 11.7721 51.5591 11.5428 51.2593 11.5428H45.85C45.5503 11.5428 45.3091 11.7721 45.3091 12.0571C45.3091 12.342 45.5503 12.5713 45.85 12.5713Z" fill="#1C1C1C"/>
</svg>
