<svg width="33" height="32" viewBox="0 0 33 32" fill="none" xmlns="http://www.w3.org/2000/svg">
<path d="M0.800024 4.8C0.800024 2.36995 2.76997 0.4 5.20002 0.4H27.6C30.0301 0.4 32 2.36995 32 4.8V27.2C32 29.6301 30.0301 31.6 27.6 31.6H5.20002C2.76997 31.6 0.800024 29.6301 0.800024 27.2V4.8Z" stroke="#EDEEF3" stroke-width="0.8"/>
<path fill-rule="evenodd" clip-rule="evenodd" d="M18.4137 12.3668C16.854 10.8071 14.3264 10.8071 12.7668 12.3668C11.2071 13.9264 11.2071 16.454 12.7668 18.0137C14.3264 19.5733 16.854 19.5733 18.4137 18.0137C19.9734 16.454 19.9734 13.9264 18.4137 12.3668ZM22.5664 22.1664C22.2542 22.4779 21.7486 22.4779 21.4364 22.1664L18.9216 19.6508C16.7318 21.288 13.6269 21.133 11.6375 19.1429C9.45416 16.9603 9.45416 13.4209 11.6375 11.2375C13.8201 9.05416 17.3603 9.05416 19.5429 11.2375C21.533 13.2269 21.6879 16.3318 20.0508 18.5216L22.5664 21.0372C22.8779 21.3486 22.8779 21.8542 22.5664 22.1664Z" fill="#73798B"/>
</svg>
