<svg width="34" height="34" viewBox="0 0 34 34" fill="none" xmlns="http://www.w3.org/2000/svg">
<rect x="1" y="1" width="32" height="32" rx="16" stroke="#EDEEF3"/>
<path d="M12.1597 20.1631L14.1151 22.1185" stroke="#1C1C1C" stroke-width="1.5" stroke-miterlimit="10" stroke-linecap="round" stroke-linejoin="round"/>
<circle cx="21.2905" cy="22.0225" r="1.25" fill="#1C1C1C"/>
<path d="M17 21.6474C17 21.2042 17.3645 20.8377 17.8148 20.8377C18.591 20.8377 18.9084 20.2922 18.5181 19.6232C18.2951 19.2396 18.428 18.741 18.8183 18.5194L19.5602 18.0975C19.899 17.8973 20.3364 18.0166 20.538 18.3532L20.5851 18.4342C20.9711 19.1033 21.6058 19.1033 21.996 18.4342L22.0432 18.3532C22.2448 18.0166 22.6822 17.8973 23.021 18.0975L23.7629 18.5194C24.1531 18.741 24.2861 19.2396 24.0631 19.6232C23.6728 20.2922 23.9902 20.8377 24.7664 20.8377C25.2124 20.8377 25.5812 21.1999 25.5812 21.6474V22.3974C25.5812 22.8406 25.2166 23.2071 24.7664 23.2071C23.9902 23.2071 23.6728 23.7526 24.0631 24.4217C24.2861 24.8095 24.1531 25.3038 23.7629 25.5254L23.021 25.9473C22.6822 26.1476 22.2448 26.0283 22.0432 25.6916L21.996 25.6106C21.6101 24.9416 20.9754 24.9416 20.5851 25.6106L20.538 25.6916C20.3364 26.0283 19.899 26.1476 19.5602 25.9473L18.8183 25.5254C18.428 25.3038 18.2951 24.8052 18.5181 24.4217C18.9084 23.7526 18.591 23.2071 17.8148 23.2071C17.3645 23.2071 17 22.8406 17 22.3974V21.6474Z" stroke="#1C1C1C" stroke-width="1.5" stroke-linecap="round" stroke-linejoin="round"/>
<path d="M14.9108 21.3244L14.6607 21.5741L12.6593 23.572C12.3704 23.8696 11.801 24.0481 11.393 23.9886L9.5404 23.7335C8.92852 23.6485 8.35913 23.0704 8.26565 22.4583L8.0107 20.6049C7.95121 20.1968 8.14667 19.6272 8.42712 19.3381L12.4214 15.3423C11.7415 13.1319 12.2684 10.6239 14.019 8.88101C16.5261 6.373 20.5968 6.373 23.1123 8.88101C24.8612 10.6247 25.3942 13.1328 24.7141 15.3423C24.6044 15.6987 24.4632 16.0473 24.2904 16.3837" stroke="#1C1C1C" stroke-width="1.5" stroke-miterlimit="10" stroke-linecap="round" stroke-linejoin="round"/>
<path d="M18.6293 14.6452C19.3336 14.6452 19.9045 14.0743 19.9045 13.37C19.9045 12.6657 19.3336 12.0947 18.6293 12.0947C17.925 12.0947 17.354 12.6657 17.354 13.37C17.354 14.0743 17.925 14.6452 18.6293 14.6452Z" stroke="#1C1C1C" stroke-width="1.5" stroke-linecap="round" stroke-linejoin="round"/>
</svg>
