<svg width="32" height="32" viewBox="0 0 32 32" fill="none" xmlns="http://www.w3.org/2000/svg">
<rect x="0.5" y="0.5" width="31" height="31" rx="15.5" stroke="#EDEEF3"/>
<path d="M23.1583 14.7917V11.9333C23.1583 10.9083 22.375 9.775 21.4167 9.41666L17.2583 7.85833C16.5667 7.6 15.4333 7.6 14.7417 7.85833L10.5833 9.425C9.62501 9.78333 8.84167 10.9167 8.84167 11.9333V18.125C8.84167 19.1083 9.49167 20.4 10.2833 20.9917L13.8667 23.6667C14.45 24.1167 15.225 24.3333 16 24.3333" stroke="#1C1C1C" stroke-width="1.5" stroke-linecap="round" stroke-linejoin="round"/>
<path d="M19.3333 22.6667C21.1743 22.6667 22.6667 21.1743 22.6667 19.3333C22.6667 17.4924 21.1743 16 19.3333 16C17.4924 16 16 17.4924 16 19.3333C16 21.1743 17.4924 22.6667 19.3333 22.6667Z" stroke="#1C1C1C" stroke-width="1.5" stroke-linecap="round" stroke-linejoin="round"/>
<path d="M23.4962 23.5H23.5037" stroke="#1C1C1C" stroke-width="2" stroke-linecap="round" stroke-linejoin="round"/>
</svg>
