<svg width="1600" height="754" viewBox="0 0 1600 754" fill="none" xmlns="http://www.w3.org/2000/svg">
<rect width="1600" height="754" fill="white"/>
<rect x="9" y="9" width="499" height="736" rx="23" fill="#1F32D6" fill-opacity="0.08"/>
<rect x="9" y="9" width="499" height="736" rx="23" stroke="#1F32D6" stroke-width="2"/>
<circle cx="259" cy="194" r="100" fill="white"/>
<mask id="mask0_3816_3442" style="mask-type:alpha" maskUnits="userSpaceOnUse" x="213" y="148" width="92" height="92">
<path d="M222.502 239.815C225.201 239.815 227.904 239.815 230.602 239.815C231.385 239.815 231.776 239.411 231.776 238.602C231.776 234.577 231.787 230.552 231.765 226.527C231.762 225.886 231.896 225.639 232.602 225.647C236.754 225.679 240.909 225.65 245.061 225.679C245.706 225.683 245.883 225.494 245.88 224.864C245.858 220.763 245.887 216.662 245.851 212.557C245.843 211.811 246.003 211.554 246.807 211.565C250.933 211.608 255.06 211.576 259.19 211.594C259.719 211.594 260.088 211.442 260.458 211.065C262.313 209.174 264.211 207.323 266.066 205.432C266.435 205.055 266.75 204.975 267.261 205.12C276.579 207.794 285.255 206.395 293.059 200.653C299.91 195.607 303.829 188.723 304.666 180.228C305.568 171.12 302.782 163.179 296.33 156.716C289.813 150.181 281.799 147.417 272.605 148.34C265.098 149.094 258.809 152.387 253.864 158.046C248.006 164.748 245.731 172.613 246.919 181.445C247.111 182.876 247.485 184.289 247.865 185.687C248.021 186.26 247.937 186.6 247.517 187.017C240.866 193.621 234.229 200.244 227.596 206.866C222.98 211.474 218.365 216.082 213.775 220.712C213.474 221.013 213.242 221.535 213.242 221.955C213.206 227.61 213.231 233.265 213.206 238.924C213.206 239.612 213.376 239.844 214.097 239.833C216.898 239.793 219.702 239.815 222.506 239.815H222.502ZM272 171.044C272.022 165.599 276.391 161.227 281.814 161.216C287.103 161.205 291.559 165.646 291.577 170.954C291.595 176.468 287.183 180.808 281.557 180.808C276.405 180.808 271.978 176.283 272 171.048V171.044Z" fill="white"/>
</mask>
<g mask="url(#mask0_3816_3442)">
<rect x="193.904" y="132.848" width="58.3016" height="152.5" transform="rotate(-45.17 193.904 132.848)" fill="#1F32D6"/>
<rect x="146.498" y="180.535" width="67.2411" height="152.5" transform="rotate(-45.17 146.498 180.535)" fill="#BCC1F3"/>
</g>
<path d="M259 331.5L259 482" stroke="#1F32D6" stroke-width="2" stroke-dasharray="8 8"/>
<circle cx="259" cy="330" r="6" transform="rotate(-180 259 330)" fill="white" stroke="#1F32D6" stroke-width="4"/>
<circle cx="259" cy="484" r="6" transform="rotate(-180 259 484)" fill="white" stroke="#1F32D6" stroke-width="4"/>
<rect x="160" y="521" width="198" height="118" rx="15" fill="#1F32D6"/>
<rect x="160" y="521" width="198" height="118" rx="15" stroke="#1F32D6" stroke-width="2"/>
<path d="M279.062 583.753C279.062 582.422 278.667 581.122 277.927 580.015C277.187 578.909 276.136 578.047 274.907 577.537C273.677 577.028 272.324 576.895 271.019 577.155C269.714 577.415 268.515 578.056 267.574 578.997C266.633 579.939 265.992 581.138 265.733 582.443C265.473 583.748 265.607 585.101 266.116 586.331C266.625 587.56 267.488 588.611 268.594 589.35C269.701 590.09 271.002 590.484 272.333 590.484C273.217 590.484 274.092 590.31 274.908 589.972C275.725 589.634 276.467 589.138 277.092 588.513C277.717 587.888 278.212 587.146 278.55 586.329C278.888 585.512 279.062 584.637 279.062 583.753ZM311.383 583.753C311.38 586.602 310.384 589.361 308.565 591.554C306.746 593.747 304.219 595.236 301.42 595.766C298.621 596.295 295.724 595.831 293.231 594.453C290.737 593.076 288.802 590.871 287.76 588.22L292.418 583.562V583.755C292.422 585.308 292.964 586.812 293.952 588.011C294.94 589.209 296.313 590.028 297.837 590.328C299.36 590.629 300.941 590.391 302.31 589.657C303.679 588.923 304.751 587.737 305.343 586.301C305.936 584.866 306.013 583.269 305.561 581.783C305.109 580.297 304.156 579.014 302.864 578.151C301.572 577.289 300.021 576.901 298.476 577.053C296.93 577.206 295.485 577.889 294.386 578.987L281.032 592.348C279.329 594.078 277.15 595.262 274.772 595.748C272.394 596.235 269.925 596.002 267.68 595.08C265.435 594.158 263.515 592.589 262.165 590.571C260.815 588.554 260.096 586.181 260.101 583.753V566.588C260.144 565.887 260.453 565.229 260.964 564.749C261.475 564.268 262.151 564 262.853 564C263.555 564 264.23 564.268 264.742 564.749C265.253 565.229 265.562 565.887 265.605 566.588V573.453C267.274 572.355 269.186 571.682 271.175 571.493C273.164 571.304 275.168 571.604 277.014 572.369C278.86 573.133 280.49 574.338 281.763 575.877C283.036 577.417 283.912 579.245 284.316 581.201L290.496 575.022C292.212 573.306 294.399 572.139 296.78 571.669C299.161 571.199 301.628 571.448 303.867 572.384C306.106 573.32 308.017 574.901 309.355 576.925C310.693 578.95 311.399 581.326 311.383 583.753ZM258.268 583.753C258.274 586.605 257.282 589.369 255.464 591.566C253.647 593.764 251.119 595.257 248.317 595.787C245.515 596.317 242.616 595.851 240.121 594.469C237.627 593.087 235.694 590.876 234.657 588.22L239.315 583.562V583.755C239.319 585.308 239.861 586.812 240.849 588.011C241.837 589.209 243.21 590.028 244.734 590.328C246.258 590.629 247.839 590.391 249.208 589.657C250.576 588.923 251.648 587.737 252.241 586.301C252.834 584.866 252.911 583.269 252.459 581.783C252.007 580.297 251.053 579.014 249.762 578.151C248.47 577.289 246.919 576.901 245.373 577.053C243.828 577.206 242.382 577.889 241.284 578.987L227.883 592.4C226.172 594.111 223.992 595.276 221.619 595.747C219.246 596.219 216.786 595.976 214.551 595.05C212.316 594.124 210.406 592.556 209.061 590.544C207.717 588.533 207 586.167 207 583.748C207 581.329 207.717 578.964 209.061 576.952C210.406 574.94 212.316 573.372 214.551 572.446C216.786 571.52 219.246 571.277 221.619 571.749C223.992 572.221 226.172 573.385 227.883 575.096C228.138 575.353 228.341 575.657 228.478 575.993C228.616 576.328 228.687 576.687 228.685 577.049C228.684 577.412 228.612 577.771 228.472 578.105C228.333 578.439 228.129 578.743 227.872 578.999C227.614 579.254 227.31 579.456 226.974 579.594C226.639 579.732 226.28 579.802 225.918 579.801C225.555 579.8 225.197 579.728 224.862 579.588C224.528 579.448 224.224 579.244 223.969 578.987C223.027 578.048 221.828 577.41 220.523 577.152C219.218 576.894 217.866 577.028 216.638 577.538C215.41 578.048 214.36 578.911 213.621 580.017C212.883 581.123 212.489 582.423 212.489 583.753C212.489 585.083 212.883 586.383 213.621 587.49C214.36 588.596 215.41 589.458 216.638 589.968C217.866 590.478 219.218 590.613 220.523 590.355C221.828 590.097 223.027 589.458 223.969 588.519L237.392 575.061C239.105 573.345 241.288 572.177 243.666 571.705C246.044 571.233 248.508 571.479 250.746 572.412C252.984 573.344 254.893 574.92 256.233 576.941C257.572 578.961 258.281 581.334 258.268 583.758V583.753Z" fill="white"/>
<rect x="550" y="9" width="499" height="736" rx="23" fill="#1F32D6" fill-opacity="0.08"/>
<rect x="550" y="9" width="499" height="736" rx="23" stroke="#1F32D6" stroke-width="2"/>
<circle cx="800" cy="194" r="100" fill="white"/>
<mask id="mask1_3816_3442" style="mask-type:alpha" maskUnits="userSpaceOnUse" x="754" y="148" width="92" height="92">
<path d="M763.502 239.815C766.201 239.815 768.904 239.815 771.603 239.815C772.385 239.815 772.777 239.411 772.777 238.602C772.777 234.577 772.787 230.552 772.766 226.527C772.762 225.886 772.896 225.639 773.602 225.647C777.754 225.679 781.909 225.65 786.061 225.679C786.706 225.683 786.884 225.494 786.88 224.864C786.858 220.763 786.887 216.662 786.851 212.557C786.844 211.811 787.003 211.554 787.807 211.565C791.934 211.608 796.06 211.576 800.19 211.594C800.719 211.594 801.088 211.442 801.458 211.065C803.313 209.174 805.211 207.323 807.066 205.432C807.435 205.055 807.751 204.975 808.261 205.12C817.579 207.794 826.256 206.395 834.059 200.653C840.91 195.607 844.83 188.723 845.667 180.228C846.569 171.12 843.783 163.179 837.331 156.716C830.813 150.181 822.8 147.417 813.605 148.34C806.099 149.094 799.81 152.387 794.864 158.046C789.006 164.748 786.731 172.613 787.92 181.445C788.112 182.876 788.485 184.289 788.865 185.687C789.021 186.26 788.938 186.6 788.517 187.017C781.866 193.621 775.229 200.244 768.596 206.866C763.98 211.474 759.365 216.082 754.775 220.712C754.474 221.013 754.242 221.535 754.242 221.955C754.206 227.61 754.232 233.265 754.206 238.924C754.206 239.612 754.376 239.844 755.097 239.833C757.898 239.793 760.702 239.815 763.506 239.815H763.502ZM813 171.044C813.022 165.599 817.391 161.227 822.814 161.216C828.103 161.205 832.559 165.646 832.577 170.954C832.596 176.468 828.183 180.808 822.557 180.808C817.405 180.808 812.978 176.283 813 171.048V171.044Z" fill="white"/>
</mask>
<g mask="url(#mask1_3816_3442)">
<rect x="734.904" y="132.848" width="58.3016" height="152.5" transform="rotate(-45.17 734.904 132.848)" fill="#BCC1F3"/>
<rect x="687.498" y="180.535" width="67.2411" height="152.5" transform="rotate(-45.17 687.498 180.535)" fill="#1F32D6"/>
</g>
<path d="M800 331.5L800 482" stroke="#1F32D6" stroke-width="2" stroke-dasharray="8 8"/>
<circle cx="800" cy="330" r="6" transform="rotate(-180 800 330)" fill="white" stroke="#1F32D6" stroke-width="4"/>
<circle cx="800" cy="484" r="6" transform="rotate(-180 800 484)" fill="white" stroke="#1F32D6" stroke-width="4"/>
<rect x="752" y="520" width="96" height="96" rx="48" fill="#1F32D6"/>
<path d="M777.999 588.5H821.999" stroke="white" stroke-width="3.5" stroke-miterlimit="10" stroke-linecap="round" stroke-linejoin="round"/>
<path d="M815.561 588.52V579.6" stroke="white" stroke-width="3.5" stroke-miterlimit="10" stroke-linecap="round" stroke-linejoin="round"/>
<path d="M815.601 566.28C813.161 566.28 811.201 568.24 811.201 570.68V575.22C811.201 577.66 813.161 579.62 815.601 579.62C818.041 579.62 820.001 577.66 820.001 575.22V570.68C820.001 568.24 818.041 566.28 815.601 566.28Z" stroke="white" stroke-width="3.5" stroke-miterlimit="10" stroke-linecap="round" stroke-linejoin="round"/>
<path d="M780.199 588.5V556.56C780.199 552.54 782.199 550.52 786.179 550.52H798.639C802.619 550.52 804.599 552.54 804.599 556.56V588.5" stroke="white" stroke-width="3.5" stroke-miterlimit="10" stroke-linecap="round" stroke-linejoin="round"/>
<path d="M787.6 561H797.5" stroke="white" stroke-width="3.5" stroke-miterlimit="10" stroke-linecap="round" stroke-linejoin="round"/>
<path d="M787.6 568.5H797.5" stroke="white" stroke-width="3.5" stroke-miterlimit="10" stroke-linecap="round" stroke-linejoin="round"/>
<path d="M792.5 588.5V581" stroke="white" stroke-width="3.5" stroke-miterlimit="10" stroke-linecap="round" stroke-linejoin="round"/>
<path d="M777.296 639.712H780.584V635.296H783.08V639.712H785.768V642.136H783.08V643.024C784.136 644.056 785.216 645.208 786.296 646.456L784.832 648.664C784.16 647.464 783.584 646.432 783.08 645.592V657.4H780.584V646.528C779.84 648.496 778.928 650.32 777.848 652L776.768 649.264C778.448 647.2 779.672 644.824 780.464 642.136H777.296V639.712ZM784.28 655.864C785.24 654.424 785.936 652.888 786.32 651.304C786.632 649.936 786.8 647.896 786.8 645.184V636.04H795.248V654.256C795.248 654.472 795.32 654.592 795.488 654.592H796.208C796.4 654.592 796.544 654.544 796.64 654.448C796.736 654.352 796.784 654.208 796.832 654.04C796.928 653.704 796.976 652.24 796.976 649.696L799.28 650.416C799.28 652.24 799.208 653.632 799.112 654.544C799.016 655.456 798.776 656.08 798.392 656.464C798.008 656.776 797.384 656.944 796.544 656.944H795.464C793.616 656.944 792.704 656.128 792.704 654.544V638.392H789.296V645.184C789.296 647.896 789.08 650.2 788.648 652.12C788.24 654.04 787.472 655.912 786.344 657.688L784.28 655.864ZM812.216 635.32L814.688 635.632C814.52 636.64 814.328 637.6 814.088 638.536H822.368C822.368 647.08 822.248 652.336 822.008 654.352C821.72 656.32 820.496 657.328 818.312 657.328C817.784 657.328 816.92 657.28 815.672 657.208L815.096 654.976C816.176 655.048 817.112 655.096 817.904 655.096C818.96 655.096 819.56 654.496 819.728 653.32C819.872 652.144 819.968 647.992 820.016 640.864H813.368C812.72 642.64 811.928 644.224 810.968 645.64L809.336 643.528C810.752 641.296 811.712 638.56 812.216 635.32ZM810.512 652.552L810.056 650.464C810.704 650.104 811.856 647.584 813.512 642.928L815.72 643.744C814.664 646.48 813.8 648.52 813.128 649.864C814.184 649.624 815.144 649.408 816.032 649.216C815.744 648.376 815.456 647.584 815.168 646.864L817.232 646.144C818.048 647.968 818.744 649.936 819.344 652.048L817.16 653.056C816.968 652.36 816.8 651.688 816.608 651.064C814.832 651.592 812.792 652.072 810.512 652.552ZM806.936 646.096V657.424H804.464V646.672C803.744 648.64 802.88 650.464 801.872 652.144L800.792 649.36C802.4 647.248 803.576 644.848 804.296 642.136H801.272V639.712H804.464V635.296H806.936V639.712H809.6V642.136H806.936V643.216C807.992 644.272 809.048 645.4 810.104 646.648L808.664 648.784C808.016 647.728 807.44 646.84 806.936 646.096Z" fill="#1F32D6"/>
</svg>
