<svg width="1600" height="754" viewBox="0 0 1600 754" fill="none" xmlns="http://www.w3.org/2000/svg">
<rect width="1600" height="754" fill="white"/>
<rect x="9" y="9" width="499" height="736" rx="23" fill="black" fill-opacity="0.08"/>
<rect x="9" y="9" width="499" height="736" rx="23" stroke="black" stroke-width="2"/>
<circle cx="259" cy="418" r="100" fill="white"/>
<path d="M222.502 463.815C225.201 463.815 227.904 463.815 230.603 463.815C231.385 463.815 231.777 463.411 231.777 462.602C231.777 458.577 231.787 454.552 231.766 450.527C231.762 449.886 231.896 449.639 232.602 449.647C236.754 449.679 240.909 449.65 245.061 449.679C245.706 449.683 245.884 449.494 245.88 448.864C245.858 444.763 245.887 440.662 245.851 436.558C245.844 435.811 246.003 435.554 246.807 435.565C250.934 435.608 255.06 435.576 259.19 435.594C259.719 435.594 260.088 435.442 260.458 435.065C262.313 433.174 264.211 431.323 266.066 429.432C266.435 429.055 266.751 428.975 267.261 429.12C276.579 431.794 285.256 430.395 293.059 424.653C299.91 419.607 303.83 412.723 304.667 404.228C305.569 395.12 302.783 387.179 296.331 380.716C289.813 374.181 281.8 371.417 272.605 372.34C265.099 373.094 258.81 376.387 253.864 382.046C248.006 388.748 245.731 396.613 246.92 405.445C247.112 406.876 247.485 408.289 247.865 409.687C248.021 410.26 247.938 410.6 247.517 411.017C240.866 417.621 234.229 424.244 227.596 430.866C222.98 435.474 218.365 440.082 213.775 444.712C213.474 445.013 213.242 445.535 213.242 445.955C213.206 451.61 213.232 457.265 213.206 462.924C213.206 463.612 213.376 463.844 214.097 463.833C216.898 463.793 219.702 463.815 222.506 463.815H222.502ZM272 395.044C272.022 389.599 276.391 385.227 281.814 385.216C287.103 385.205 291.559 389.646 291.577 394.954C291.596 400.468 287.183 404.808 281.557 404.808C276.405 404.808 271.978 400.283 272 395.048V395.044Z" fill="black"/>
<path d="M326.999 509.333C339.833 509.333 350.333 498.833 350.333 486C350.333 473.167 339.833 462.667 326.999 462.667C314.166 462.667 303.666 473.167 303.666 486C303.666 498.833 314.166 509.333 326.999 509.333Z" fill="#E74E5A"/>
<path d="M320.396 492.603L333.603 479.396" stroke="white" stroke-width="2.5" stroke-linecap="round" stroke-linejoin="round"/>
<path d="M333.603 492.603L320.396 479.396" stroke="white" stroke-width="2.5" stroke-linecap="round" stroke-linejoin="round"/>
<path d="M252.24 233.656C253.936 238.264 255.44 243.512 256.784 249.464L253.456 250.328C253.2 249.176 252.976 248.056 252.72 247C248.56 247.768 244.08 248.472 239.28 249.176L238.672 245.976C239.568 245.72 240.08 245.368 240.24 244.888L246.64 221.624L249.968 222.072L243.504 245.24C246.768 244.76 249.584 244.28 251.952 243.832C251.152 240.696 250.256 237.624 249.264 234.68L252.24 233.656ZM227.984 228.984H233.296V225.336C231.824 225.528 230.32 225.688 228.784 225.816L228.08 222.616C232.688 222.296 236.784 221.688 240.4 220.792L241.552 223.864C240.016 224.248 238.384 224.568 236.656 224.856V228.984H241.456V232.216H236.656V233.112C238.16 234.52 239.696 236.088 241.232 237.816L239.376 240.632C238.32 238.872 237.424 237.432 236.656 236.344V250.232H233.296V237.208C232.08 239.8 230.576 242.168 228.784 244.344L227.28 240.504C229.904 238.072 231.824 235.288 233.04 232.216H227.984V228.984ZM263.312 220.792L266.512 221.464C266.256 222.36 266.032 223.192 265.776 224.024H272.144V227.128H264.624C264.112 228.312 263.6 229.432 263.024 230.488H271.76V233.464H268.048V236.472H272.592V239.544H268.048V245.784C269.2 245.304 270.384 244.696 271.536 243.992L271.984 246.328C273.392 243.384 274.128 239.864 274.192 235.768V221.72H287.792V246.84C287.792 248.888 286.768 249.944 284.72 249.944H281.104L280.208 246.68C281.456 246.808 282.608 246.872 283.664 246.872C284.208 246.872 284.496 246.456 284.496 245.656V240.376H277.104C276.56 244.408 275.376 247.8 273.584 250.584L270.96 248.184C271.152 247.864 271.344 247.512 271.536 247.192C269.584 248.216 267.344 249.016 264.848 249.656L263.472 246.808C264.368 246.488 264.816 246.072 264.816 245.496V239.544H260.144V236.472H264.816V233.464H262.704V231.064C262.352 231.672 262 232.28 261.616 232.856L258.896 231.128C260.976 227.896 262.448 224.44 263.312 220.792ZM277.424 232.536V235.512C277.424 236.088 277.392 236.664 277.36 237.208H284.496V232.536H277.424ZM284.496 229.368V224.984H277.424V229.368H284.496Z" fill="black"/>
<rect x="550" y="9" width="1040" height="736" rx="23" fill="#1F32D6" fill-opacity="0.08"/>
<rect x="550" y="9" width="1040" height="736" rx="23" stroke="#1F32D6" stroke-width="2"/>
<path d="M922.228 221.272L925.108 223.032C923.636 225.656 922.132 227.832 920.628 229.496C919.156 231.16 917.044 232.984 914.228 235L912.404 232.024C914.388 230.936 916.308 229.4 918.1 227.384C919.54 225.72 920.916 223.704 922.228 221.272ZM923.092 236.312H917.332V233.08H936.788C936.66 237.24 936.468 240.568 936.148 243.128C935.828 245.688 935.316 247.448 934.548 248.472C933.812 249.432 932.628 249.976 930.996 250.072H924.852L923.956 246.776C925.844 246.84 927.635 246.904 929.3 246.904C930.868 246.904 931.892 246.232 932.404 244.952C932.916 243.608 933.268 240.728 933.396 236.312H926.484C925.748 239.576 924.756 242.168 923.476 244.12C921.812 246.456 919.348 248.568 916.084 250.424L913.908 247.64C916.788 246.104 918.964 244.408 920.436 242.552C921.556 240.952 922.452 238.872 923.092 236.312ZM932.244 220.888C933.972 225.656 937.204 229.432 941.94 232.184L939.668 234.84C934.74 231.672 931.284 227.576 929.332 222.52L932.244 220.888ZM959.668 229.272H962.9V232.888H971.636V243.768C971.636 246.072 970.452 247.224 968.148 247.224H965.3L964.5 244.152L967.124 244.28C967.988 244.28 968.436 243.864 968.436 243.064V235.96H962.9V250.328H959.668V235.96H954.036V247.512H950.836V235.8C949.46 237.144 947.956 238.456 946.356 239.704L944.18 236.856C947.828 234.168 950.772 231.128 952.98 227.736H945.268V224.472H954.836C955.476 223.192 955.988 221.88 956.436 220.536L959.828 220.952C959.444 222.168 958.996 223.32 958.548 224.472H973.396V227.736H956.916C955.892 229.528 954.74 231.256 953.46 232.888H959.668V229.272ZM977.172 226.072H992.372C992.276 224.344 992.244 222.584 992.244 220.76H995.7C995.7 222.616 995.732 224.408 995.828 226.072H1000.4C999.604 224.632 998.74 223.32 997.844 222.168L1000.6 220.824C1001.56 222.104 1002.45 223.512 1003.35 225.048L1001.3 226.072H1005.3V229.336H996.02C996.372 234.008 997.076 237.976 998.1 241.176C999.444 244.76 1000.5 246.552 1001.33 246.552C1001.78 246.552 1002.26 244.856 1002.8 241.528L1005.81 243.064C1004.85 247.896 1003.44 250.328 1001.56 250.328C998.388 250.136 995.86 246.456 993.94 239.352C993.267 236.472 992.819 233.112 992.564 229.336H977.172V226.072ZM977.62 233.72H991.444V236.856H986.196V243.864C988.372 243.416 990.548 242.904 992.692 242.328V245.592C987.988 246.712 982.964 247.672 977.62 248.472L976.852 245.304C978.868 245.08 980.884 244.792 982.868 244.472V236.856H977.62V233.72ZM1020.08 224.152H1024.47L1032.24 242.072H1032.37L1040.12 224.152H1044.5V247H1040.76V231.256H1040.63L1033.91 247H1030.68L1023.96 231.256H1023.83V247H1020.08V224.152ZM1048.99 224.152H1058.46C1063.97 224.152 1066.75 226.488 1066.75 231.16C1066.75 235.864 1063.97 238.232 1058.4 238.232H1052.73V247H1048.99V224.152ZM1052.73 227.352V235.032H1058.17C1059.84 235.032 1061.05 234.712 1061.82 234.136C1062.59 233.528 1062.97 232.536 1062.97 231.16C1062.97 229.784 1062.56 228.824 1061.79 228.248C1061.02 227.64 1059.81 227.352 1058.17 227.352H1052.73ZM1079.88 223.704C1082.57 223.704 1084.81 224.408 1086.53 225.816C1088.2 227.16 1089.19 229.016 1089.54 231.32H1085.89C1085.51 229.816 1084.81 228.728 1083.75 228.024C1082.73 227.32 1081.41 227 1079.81 227C1077.41 227 1075.62 227.8 1074.41 229.464C1073.29 230.936 1072.74 232.984 1072.74 235.608C1072.74 238.296 1073.29 240.376 1074.37 241.816C1075.56 243.352 1077.41 244.152 1079.91 244.152C1081.54 244.152 1082.89 243.736 1083.91 242.968C1085 242.104 1085.77 240.792 1086.21 239.064H1089.86C1089.35 241.752 1088.17 243.832 1086.28 245.336C1084.52 246.744 1082.41 247.448 1079.94 247.448C1076.13 247.448 1073.29 246.232 1071.43 243.864C1069.8 241.816 1069 239.064 1069 235.608C1069 232.216 1069.83 229.432 1071.53 227.32C1073.45 224.888 1076.23 223.704 1079.88 223.704ZM1128.05 233.656C1129.75 238.264 1131.25 243.512 1132.6 249.464L1129.27 250.328C1129.01 249.176 1128.79 248.056 1128.53 247C1124.37 247.768 1119.89 248.472 1115.09 249.176L1114.48 245.976C1115.38 245.72 1115.89 245.368 1116.05 244.888L1122.45 221.624L1125.78 222.072L1119.32 245.24C1122.58 244.76 1125.4 244.28 1127.76 243.832C1126.96 240.696 1126.07 237.624 1125.08 234.68L1128.05 233.656ZM1103.8 228.984H1109.11V225.336C1107.64 225.528 1106.13 225.688 1104.6 225.816L1103.89 222.616C1108.5 222.296 1112.6 221.688 1116.21 220.792L1117.36 223.864C1115.83 224.248 1114.2 224.568 1112.47 224.856V228.984H1117.27V232.216H1112.47V233.112C1113.97 234.52 1115.51 236.088 1117.04 237.816L1115.19 240.632C1114.13 238.872 1113.24 237.432 1112.47 236.344V250.232H1109.11V237.208C1107.89 239.8 1106.39 242.168 1104.6 244.344L1103.09 240.504C1105.72 238.072 1107.64 235.288 1108.85 232.216H1103.8V228.984ZM1139.12 220.792L1142.32 221.464C1142.07 222.36 1141.84 223.192 1141.59 224.024H1147.96V227.128H1140.44C1139.92 228.312 1139.41 229.432 1138.84 230.488H1147.57V233.464H1143.86V236.472H1148.4V239.544H1143.86V245.784C1145.01 245.304 1146.2 244.696 1147.35 243.992L1147.8 246.328C1149.2 243.384 1149.94 239.864 1150 235.768V221.72H1163.6V246.84C1163.6 248.888 1162.58 249.944 1160.53 249.944H1156.92L1156.02 246.68C1157.27 246.808 1158.42 246.872 1159.48 246.872C1160.02 246.872 1160.31 246.456 1160.31 245.656V240.376H1152.92C1152.37 244.408 1151.19 247.8 1149.4 250.584L1146.77 248.184C1146.96 247.864 1147.16 247.512 1147.35 247.192C1145.4 248.216 1143.16 249.016 1140.66 249.656L1139.28 246.808C1140.18 246.488 1140.63 246.072 1140.63 245.496V239.544H1135.96V236.472H1140.63V233.464H1138.52V231.064C1138.16 231.672 1137.81 232.28 1137.43 232.856L1134.71 231.128C1136.79 227.896 1138.26 224.44 1139.12 220.792ZM1153.24 232.536V235.512C1153.24 236.088 1153.2 236.664 1153.17 237.208H1160.31V232.536H1153.24ZM1160.31 229.368V224.984H1153.24V229.368H1160.31ZM1176.85 221.272L1179.73 223.032C1178.26 225.656 1176.76 227.832 1175.25 229.496C1173.78 231.16 1171.67 232.984 1168.85 235L1167.03 232.024C1169.01 230.936 1170.93 229.4 1172.72 227.384C1174.16 225.72 1175.54 223.704 1176.85 221.272ZM1177.72 236.312H1171.96V233.08H1191.41C1191.28 237.24 1191.09 240.568 1190.77 243.128C1190.45 245.688 1189.94 247.448 1189.17 248.472C1188.44 249.432 1187.25 249.976 1185.62 250.072H1179.48L1178.58 246.776C1180.47 246.84 1182.26 246.904 1183.92 246.904C1185.49 246.904 1186.52 246.232 1187.03 244.952C1187.54 243.608 1187.89 240.728 1188.02 236.312H1181.11C1180.37 239.576 1179.38 242.168 1178.1 244.12C1176.44 246.456 1173.97 248.568 1170.71 250.424L1168.53 247.64C1171.41 246.104 1173.59 244.408 1175.06 242.552C1176.18 240.952 1177.08 238.872 1177.72 236.312ZM1186.87 220.888C1188.6 225.656 1191.83 229.432 1196.56 232.184L1194.29 234.84C1189.36 231.672 1185.91 227.576 1183.96 222.52L1186.87 220.888ZM1208.24 231.896V233.496C1208.24 234.52 1208.18 235.48 1208.12 236.408H1222.8V250.424H1219.44V239.608H1207.73C1206.93 244.248 1205.24 247.832 1202.68 250.36L1200.08 248.088C1203.22 245.048 1204.82 240.184 1204.88 233.496V221.656H1208.24V228.696H1216.6V220.728H1219.89V228.696H1226.45V231.896H1208.24Z" fill="#1F32D6"/>
<circle cx="790" cy="418" r="100" fill="white"/>
<mask id="mask0_3816_3983" style="mask-type:alpha" maskUnits="userSpaceOnUse" x="744" y="372" width="92" height="92">
<path d="M753.502 463.815C756.201 463.815 758.904 463.815 761.603 463.815C762.385 463.815 762.777 463.41 762.777 462.601C762.777 458.576 762.787 454.551 762.766 450.526C762.762 449.885 762.896 449.639 763.602 449.646C767.754 449.679 771.909 449.65 776.061 449.679C776.706 449.682 776.884 449.494 776.88 448.864C776.858 444.763 776.887 440.662 776.851 436.557C776.844 435.811 777.003 435.554 777.807 435.564C781.934 435.608 786.06 435.575 790.19 435.593C790.719 435.593 791.088 435.441 791.458 435.064C793.313 433.173 795.211 431.322 797.066 429.431C797.435 429.054 797.751 428.975 798.261 429.119C807.579 431.793 816.256 430.395 824.059 424.653C830.91 419.606 834.83 412.723 835.667 404.227C836.569 395.12 833.783 387.179 827.331 380.716C820.813 374.18 812.8 371.416 803.605 372.34C796.099 373.093 789.81 376.387 784.864 382.045C779.006 388.747 776.731 396.612 777.92 405.445C778.112 406.876 778.485 408.289 778.865 409.687C779.021 410.259 778.938 410.6 778.517 411.017C771.866 417.621 765.229 424.243 758.596 430.866C753.98 435.474 749.365 440.082 744.775 444.712C744.474 445.013 744.242 445.534 744.242 445.954C744.206 451.61 744.232 457.265 744.206 462.923C744.206 463.612 744.376 463.844 745.097 463.833C747.898 463.793 750.702 463.815 753.506 463.815H753.502ZM803 395.044C803.022 389.599 807.391 385.226 812.814 385.215C818.103 385.204 822.559 389.646 822.577 394.953C822.596 400.467 818.183 404.807 812.557 404.807C807.405 404.807 802.978 400.282 803 395.047V395.044Z" fill="white"/>
</mask>
<g mask="url(#mask0_3816_3983)">
<rect width="29.3653" height="119.684" transform="matrix(-0.656374 0.754435 -0.715431 -0.698683 819.031 449.445)" fill="#1F32D6" fill-opacity="0.6"/>
<rect width="41.3022" height="119.684" transform="matrix(-0.656374 0.754435 -0.715431 -0.698683 795.834 467.495)" fill="#1F32D6" fill-opacity="0.3"/>
<rect width="59.5696" height="119.684" transform="matrix(-0.656374 0.754435 -0.715431 -0.698683 858.133 404.502)" fill="#1F32D6"/>
</g>
<path d="M857.999 509.333C870.833 509.333 881.333 498.833 881.333 486C881.333 473.167 870.833 462.667 857.999 462.667C845.166 462.667 834.666 473.167 834.666 486C834.666 498.833 845.166 509.333 857.999 509.333Z" fill="#26C165"/>
<path d="M848.084 486L854.687 492.603L867.917 479.396" stroke="white" stroke-width="2.5" stroke-linecap="round" stroke-linejoin="round"/>
<circle cx="1070" cy="418" r="100" fill="white"/>
<path d="M1138 509.333C1150.83 509.333 1161.33 498.833 1161.33 486C1161.33 473.167 1150.83 462.667 1138 462.667C1125.17 462.667 1114.67 473.167 1114.67 486C1114.67 498.833 1125.17 509.333 1138 509.333Z" fill="#26C165"/>
<path d="M1128.08 486L1134.69 492.603L1147.92 479.396" stroke="white" stroke-width="2.5" stroke-linecap="round" stroke-linejoin="round"/>
<mask id="mask1_3816_3983" style="mask-type:alpha" maskUnits="userSpaceOnUse" x="1024" y="372" width="92" height="92">
<path d="M1033.5 463.815C1036.2 463.815 1038.9 463.815 1041.6 463.815C1042.39 463.815 1042.78 463.41 1042.78 462.601C1042.78 458.576 1042.79 454.551 1042.77 450.526C1042.76 449.885 1042.9 449.639 1043.6 449.646C1047.75 449.679 1051.91 449.65 1056.06 449.679C1056.71 449.682 1056.88 449.494 1056.88 448.864C1056.86 444.763 1056.89 440.662 1056.85 436.557C1056.84 435.811 1057 435.554 1057.81 435.564C1061.93 435.608 1066.06 435.575 1070.19 435.593C1070.72 435.593 1071.09 435.441 1071.46 435.064C1073.31 433.173 1075.21 431.322 1077.07 429.431C1077.44 429.054 1077.75 428.975 1078.26 429.119C1087.58 431.793 1096.26 430.395 1104.06 424.653C1110.91 419.606 1114.83 412.723 1115.67 404.227C1116.57 395.12 1113.78 387.179 1107.33 380.716C1100.81 374.18 1092.8 371.416 1083.61 372.34C1076.1 373.093 1069.81 376.387 1064.86 382.045C1059.01 388.747 1056.73 396.612 1057.92 405.445C1058.11 406.876 1058.48 408.289 1058.87 409.687C1059.02 410.259 1058.94 410.6 1058.52 411.017C1051.87 417.621 1045.23 424.243 1038.6 430.866C1033.98 435.474 1029.37 440.082 1024.77 444.712C1024.47 445.013 1024.24 445.534 1024.24 445.954C1024.21 451.61 1024.23 457.265 1024.21 462.923C1024.21 463.612 1024.38 463.844 1025.1 463.833C1027.9 463.793 1030.7 463.815 1033.51 463.815H1033.5ZM1083 395.044C1083.02 389.599 1087.39 385.226 1092.81 385.215C1098.1 385.204 1102.56 389.646 1102.58 394.953C1102.6 400.467 1098.18 404.807 1092.56 404.807C1087.41 404.807 1082.98 400.282 1083 395.047V395.044Z" fill="white"/>
</mask>
<g mask="url(#mask1_3816_3983)">
<rect width="29.3653" height="119.684" transform="matrix(-0.656374 0.754435 -0.715431 -0.698683 1099.03 449.445)" fill="#1F32D6"/>
<rect width="41.3022" height="119.684" transform="matrix(-0.656374 0.754435 -0.715431 -0.698683 1075.83 467.495)" fill="#1F32D6" fill-opacity="0.6"/>
<rect width="59.5696" height="119.684" transform="matrix(-0.656374 0.754435 -0.715431 -0.698683 1138.13 404.502)" fill="#1F32D6" fill-opacity="0.3"/>
</g>
<circle cx="1350" cy="418" r="100" fill="white"/>
<path d="M1418 509.333C1430.83 509.333 1441.33 498.833 1441.33 486C1441.33 473.167 1430.83 462.667 1418 462.667C1405.17 462.667 1394.67 473.167 1394.67 486C1394.67 498.833 1405.17 509.333 1418 509.333Z" fill="#26C165"/>
<path d="M1408.08 486L1414.69 492.603L1427.92 479.396" stroke="white" stroke-width="2.5" stroke-linecap="round" stroke-linejoin="round"/>
<mask id="mask2_3816_3983" style="mask-type:alpha" maskUnits="userSpaceOnUse" x="1304" y="372" width="92" height="92">
<path d="M1313.5 463.815C1316.2 463.815 1318.9 463.815 1321.6 463.815C1322.39 463.815 1322.78 463.41 1322.78 462.601C1322.78 458.576 1322.79 454.551 1322.77 450.526C1322.76 449.885 1322.9 449.639 1323.6 449.646C1327.75 449.679 1331.91 449.65 1336.06 449.679C1336.71 449.682 1336.88 449.494 1336.88 448.864C1336.86 444.763 1336.89 440.662 1336.85 436.557C1336.84 435.811 1337 435.554 1337.81 435.564C1341.93 435.608 1346.06 435.575 1350.19 435.593C1350.72 435.593 1351.09 435.441 1351.46 435.064C1353.31 433.173 1355.21 431.322 1357.07 429.431C1357.44 429.054 1357.75 428.975 1358.26 429.119C1367.58 431.793 1376.26 430.395 1384.06 424.653C1390.91 419.606 1394.83 412.723 1395.67 404.227C1396.57 395.12 1393.78 387.179 1387.33 380.716C1380.81 374.18 1372.8 371.416 1363.61 372.34C1356.1 373.093 1349.81 376.387 1344.86 382.045C1339.01 388.747 1336.73 396.612 1337.92 405.445C1338.11 406.876 1338.48 408.289 1338.87 409.687C1339.02 410.259 1338.94 410.6 1338.52 411.017C1331.87 417.621 1325.23 424.243 1318.6 430.866C1313.98 435.474 1309.37 440.082 1304.77 444.712C1304.47 445.013 1304.24 445.534 1304.24 445.954C1304.21 451.61 1304.23 457.265 1304.21 462.923C1304.21 463.612 1304.38 463.844 1305.1 463.833C1307.9 463.793 1310.7 463.815 1313.51 463.815H1313.5ZM1363 395.044C1363.02 389.599 1367.39 385.226 1372.81 385.215C1378.1 385.204 1382.56 389.646 1382.58 394.953C1382.6 400.467 1378.18 404.807 1372.56 404.807C1367.41 404.807 1362.98 400.282 1363 395.047V395.044Z" fill="white"/>
</mask>
<g mask="url(#mask2_3816_3983)">
<rect width="29.3653" height="119.684" transform="matrix(-0.656374 0.754435 -0.715431 -0.698683 1379.03 449.445)" fill="#1F32D6" fill-opacity="0.3"/>
<rect width="41.3022" height="119.684" transform="matrix(-0.656374 0.754435 -0.715431 -0.698683 1355.83 467.495)" fill="#1F32D6"/>
<rect width="59.5696" height="119.684" transform="matrix(-0.656374 0.754435 -0.715431 -0.698683 1418.13 404.502)" fill="#1F32D6" fill-opacity="0.6"/>
</g>
</svg>
