<svg width="1600" height="754" viewBox="0 0 1600 754" fill="none" xmlns="http://www.w3.org/2000/svg">
<rect width="1600" height="754" fill="white"/>
<rect x="9" y="9" width="499" height="736" rx="23" fill="#1F32D6" fill-opacity="0.08"/>
<rect x="9" y="9" width="499" height="736" rx="23" stroke="#1F32D6" stroke-width="2"/>
<circle cx="259" cy="194" r="100" fill="white"/>
<mask id="mask0_2135_154" style="mask-type:alpha" maskUnits="userSpaceOnUse" x="213" y="148" width="92" height="92">
<path d="M222.502 239.815C225.201 239.815 227.904 239.815 230.602 239.815C231.385 239.815 231.776 239.41 231.776 238.601C231.776 234.576 231.787 230.552 231.765 226.527C231.762 225.885 231.896 225.639 232.602 225.646C236.754 225.679 240.909 225.65 245.061 225.679C245.706 225.683 245.883 225.494 245.88 224.864C245.858 220.763 245.887 216.662 245.851 212.557C245.843 211.811 246.003 211.554 246.807 211.565C250.933 211.608 255.06 211.575 259.19 211.594C259.719 211.594 260.088 211.441 260.458 211.065C262.313 209.174 264.211 207.322 266.066 205.431C266.435 205.055 266.75 204.975 267.261 205.12C276.579 207.793 285.255 206.395 293.059 200.653C299.91 195.606 303.829 188.723 304.666 180.228C305.568 171.12 302.782 163.179 296.33 156.716C289.813 150.181 281.799 147.416 272.605 148.34C265.098 149.094 258.809 152.387 253.864 158.046C248.006 164.748 245.731 172.613 246.919 181.445C247.111 182.876 247.485 184.289 247.865 185.687C248.021 186.26 247.937 186.6 247.517 187.017C240.866 193.621 234.229 200.243 227.596 206.866C222.98 211.474 218.365 216.082 213.775 220.712C213.474 221.013 213.242 221.534 213.242 221.955C213.206 227.61 213.231 233.265 213.206 238.924C213.206 239.612 213.376 239.844 214.097 239.833C216.898 239.793 219.702 239.815 222.506 239.815H222.502ZM272 171.044C272.022 165.599 276.391 161.226 281.814 161.215C287.103 161.205 291.559 165.646 291.577 170.953C291.595 176.467 287.183 180.807 281.557 180.807C276.405 180.807 271.978 176.283 272 171.048V171.044Z" fill="white"/>
</mask>
<g mask="url(#mask0_2135_154)">
<rect x="193.904" y="132.848" width="58.3016" height="152.5" transform="rotate(-45.17 193.904 132.848)" fill="#1F32D6"/>
<rect x="146.498" y="180.535" width="67.2411" height="152.5" transform="rotate(-45.17 146.498 180.535)" fill="#BCC1F3"/>
</g>
<path d="M259 331.5L259 482" stroke="#1F32D6" stroke-width="2" stroke-dasharray="8 8"/>
<circle cx="259" cy="330" r="6" transform="rotate(-180 259 330)" fill="white" stroke="#1F32D6" stroke-width="4"/>
<circle cx="259" cy="484" r="6" transform="rotate(-180 259 484)" fill="white" stroke="#1F32D6" stroke-width="4"/>
<rect x="160" y="521" width="198" height="118" rx="15" fill="#1F32D6"/>
<rect x="160" y="521" width="198" height="118" rx="15" stroke="#1F32D6" stroke-width="2"/>
<path d="M279.062 583.753C279.062 582.422 278.667 581.122 277.927 580.015C277.187 578.909 276.136 578.047 274.907 577.537C273.677 577.028 272.324 576.895 271.019 577.155C269.714 577.415 268.515 578.056 267.574 578.997C266.633 579.939 265.992 581.138 265.733 582.443C265.473 583.748 265.607 585.101 266.116 586.331C266.625 587.56 267.488 588.611 268.594 589.35C269.701 590.09 271.002 590.484 272.333 590.484C273.217 590.484 274.092 590.31 274.908 589.972C275.725 589.634 276.467 589.138 277.092 588.513C277.717 587.888 278.212 587.146 278.55 586.329C278.888 585.512 279.062 584.637 279.062 583.753ZM311.383 583.753C311.38 586.602 310.384 589.361 308.565 591.554C306.746 593.747 304.219 595.236 301.42 595.766C298.621 596.295 295.724 595.831 293.231 594.453C290.737 593.076 288.802 590.871 287.76 588.22L292.418 583.562V583.755C292.422 585.308 292.964 586.812 293.952 588.011C294.94 589.209 296.313 590.028 297.837 590.328C299.36 590.629 300.941 590.391 302.31 589.657C303.679 588.923 304.751 587.737 305.343 586.301C305.936 584.866 306.013 583.269 305.561 581.783C305.109 580.297 304.156 579.014 302.864 578.151C301.572 577.289 300.021 576.901 298.476 577.053C296.93 577.206 295.485 577.889 294.386 578.987L281.032 592.348C279.329 594.078 277.15 595.262 274.772 595.748C272.394 596.235 269.925 596.002 267.68 595.08C265.435 594.158 263.515 592.589 262.165 590.571C260.815 588.554 260.096 586.181 260.101 583.753V566.588C260.144 565.887 260.453 565.229 260.964 564.749C261.475 564.268 262.151 564 262.853 564C263.555 564 264.23 564.268 264.742 564.749C265.253 565.229 265.562 565.887 265.605 566.588V573.453C267.274 572.355 269.186 571.682 271.175 571.493C273.164 571.304 275.168 571.604 277.014 572.369C278.86 573.133 280.49 574.338 281.763 575.877C283.036 577.417 283.912 579.245 284.316 581.201L290.496 575.022C292.212 573.306 294.399 572.139 296.78 571.669C299.161 571.199 301.628 571.448 303.867 572.384C306.106 573.32 308.017 574.901 309.355 576.925C310.693 578.95 311.399 581.326 311.383 583.753ZM258.268 583.753C258.274 586.605 257.282 589.369 255.464 591.566C253.647 593.764 251.119 595.257 248.317 595.787C245.515 596.317 242.616 595.851 240.121 594.469C237.627 593.087 235.694 590.876 234.657 588.22L239.315 583.562V583.755C239.319 585.308 239.861 586.812 240.849 588.011C241.837 589.209 243.21 590.028 244.734 590.328C246.258 590.629 247.839 590.391 249.208 589.657C250.576 588.923 251.648 587.737 252.241 586.301C252.834 584.866 252.911 583.269 252.459 581.783C252.007 580.297 251.053 579.014 249.762 578.151C248.47 577.289 246.919 576.901 245.373 577.053C243.828 577.206 242.382 577.889 241.284 578.987L227.883 592.4C226.172 594.111 223.992 595.276 221.619 595.747C219.246 596.219 216.786 595.976 214.551 595.05C212.316 594.124 210.406 592.556 209.061 590.544C207.717 588.533 207 586.167 207 583.748C207 581.329 207.717 578.964 209.061 576.952C210.406 574.94 212.316 573.372 214.551 572.446C216.786 571.52 219.246 571.277 221.619 571.749C223.992 572.221 226.172 573.385 227.883 575.096C228.138 575.353 228.341 575.657 228.478 575.993C228.616 576.328 228.687 576.687 228.685 577.049C228.684 577.412 228.612 577.771 228.472 578.105C228.333 578.439 228.129 578.743 227.872 578.999C227.614 579.254 227.31 579.456 226.974 579.594C226.639 579.732 226.28 579.802 225.918 579.801C225.555 579.8 225.197 579.728 224.862 579.588C224.528 579.448 224.224 579.244 223.969 578.987C223.027 578.048 221.828 577.41 220.523 577.152C219.218 576.894 217.866 577.028 216.638 577.538C215.41 578.048 214.36 578.911 213.621 580.017C212.883 581.123 212.489 582.423 212.489 583.753C212.489 585.083 212.883 586.383 213.621 587.49C214.36 588.596 215.41 589.458 216.638 589.968C217.866 590.478 219.218 590.613 220.523 590.355C221.828 590.097 223.027 589.458 223.969 588.519L237.392 575.061C239.105 573.345 241.288 572.177 243.666 571.705C246.044 571.233 248.508 571.479 250.746 572.412C252.984 573.344 254.893 574.92 256.233 576.941C257.572 578.961 258.281 581.334 258.268 583.758V583.753Z" fill="white"/>
<rect x="550" y="9" width="499" height="736" rx="23" fill="#1F32D6" fill-opacity="0.08"/>
<rect x="550" y="9" width="499" height="736" rx="23" stroke="#1F32D6" stroke-width="2"/>
<circle cx="800" cy="194" r="100" fill="white"/>
<mask id="mask1_2135_154" style="mask-type:alpha" maskUnits="userSpaceOnUse" x="754" y="148" width="92" height="92">
<path d="M763.502 239.815C766.201 239.815 768.904 239.815 771.603 239.815C772.385 239.815 772.777 239.41 772.777 238.601C772.777 234.576 772.787 230.552 772.766 226.527C772.762 225.885 772.896 225.639 773.602 225.646C777.754 225.679 781.909 225.65 786.061 225.679C786.706 225.683 786.884 225.494 786.88 224.864C786.858 220.763 786.887 216.662 786.851 212.557C786.844 211.811 787.003 211.554 787.807 211.565C791.934 211.608 796.06 211.575 800.19 211.594C800.719 211.594 801.088 211.441 801.458 211.065C803.313 209.174 805.211 207.322 807.066 205.431C807.435 205.055 807.751 204.975 808.261 205.12C817.579 207.793 826.256 206.395 834.059 200.653C840.91 195.606 844.83 188.723 845.667 180.228C846.569 171.12 843.783 163.179 837.331 156.716C830.813 150.181 822.8 147.416 813.605 148.34C806.099 149.094 799.81 152.387 794.864 158.046C789.006 164.748 786.731 172.613 787.92 181.445C788.112 182.876 788.485 184.289 788.865 185.687C789.021 186.26 788.938 186.6 788.517 187.017C781.866 193.621 775.229 200.243 768.596 206.866C763.98 211.474 759.365 216.082 754.775 220.712C754.474 221.013 754.242 221.534 754.242 221.955C754.206 227.61 754.232 233.265 754.206 238.924C754.206 239.612 754.376 239.844 755.097 239.833C757.898 239.793 760.702 239.815 763.506 239.815H763.502ZM813 171.044C813.022 165.599 817.391 161.226 822.814 161.215C828.103 161.205 832.559 165.646 832.577 170.953C832.596 176.467 828.183 180.807 822.557 180.807C817.405 180.807 812.978 176.283 813 171.048V171.044Z" fill="white"/>
</mask>
<g mask="url(#mask1_2135_154)">
<rect x="734.904" y="132.848" width="58.3016" height="152.5" transform="rotate(-45.17 734.904 132.848)" fill="#BCC1F3"/>
<rect x="687.498" y="180.535" width="67.2411" height="152.5" transform="rotate(-45.17 687.498 180.535)" fill="#1F32D6"/>
</g>
<path d="M800 331.5L800 482" stroke="#1F32D6" stroke-width="2" stroke-dasharray="8 8"/>
<circle cx="800" cy="330" r="6" transform="rotate(-180 800 330)" fill="white" stroke="#1F32D6" stroke-width="4"/>
<circle cx="800" cy="484" r="6" transform="rotate(-180 800 484)" fill="white" stroke="#1F32D6" stroke-width="4"/>
<rect x="752" y="520" width="96" height="96" rx="48" fill="#1F32D6"/>
<path d="M777.999 588.5H821.999" stroke="white" stroke-width="3.5" stroke-miterlimit="10" stroke-linecap="round" stroke-linejoin="round"/>
<path d="M815.561 588.52V579.6" stroke="white" stroke-width="3.5" stroke-miterlimit="10" stroke-linecap="round" stroke-linejoin="round"/>
<path d="M815.601 566.28C813.161 566.28 811.201 568.24 811.201 570.68V575.22C811.201 577.66 813.161 579.62 815.601 579.62C818.041 579.62 820.001 577.66 820.001 575.22V570.68C820.001 568.24 818.041 566.28 815.601 566.28Z" stroke="white" stroke-width="3.5" stroke-miterlimit="10" stroke-linecap="round" stroke-linejoin="round"/>
<path d="M780.199 588.5V556.56C780.199 552.54 782.199 550.52 786.179 550.52H798.639C802.619 550.52 804.599 552.54 804.599 556.56V588.5" stroke="white" stroke-width="3.5" stroke-miterlimit="10" stroke-linecap="round" stroke-linejoin="round"/>
<path d="M787.6 561H797.5" stroke="white" stroke-width="3.5" stroke-miterlimit="10" stroke-linecap="round" stroke-linejoin="round"/>
<path d="M787.6 568.5H797.5" stroke="white" stroke-width="3.5" stroke-miterlimit="10" stroke-linecap="round" stroke-linejoin="round"/>
<path d="M792.5 588.5V581" stroke="white" stroke-width="3.5" stroke-miterlimit="10" stroke-linecap="round" stroke-linejoin="round"/>
<path d="M730.108 655.168C728.54 655.168 727.1 654.8 725.788 654.064C724.476 653.328 723.436 652.312 722.668 651.016C721.9 649.704 721.516 648.224 721.516 646.576C721.516 644.944 721.9 643.48 722.668 642.184C723.436 640.872 724.476 639.848 725.788 639.112C727.1 638.376 728.54 638.008 730.108 638.008C731.692 638.008 733.132 638.376 734.428 639.112C735.74 639.848 736.772 640.872 737.524 642.184C738.292 643.48 738.676 644.944 738.676 646.576C738.676 648.224 738.292 649.704 737.524 651.016C736.772 652.312 735.74 653.328 734.428 654.064C733.116 654.8 731.676 655.168 730.108 655.168ZM730.108 652.168C731.116 652.168 732.004 651.944 732.772 651.496C733.54 651.032 734.14 650.376 734.572 649.528C735.004 648.68 735.22 647.696 735.22 646.576C735.22 645.456 735.004 644.48 734.572 643.648C734.14 642.8 733.54 642.152 732.772 641.704C732.004 641.256 731.116 641.032 730.108 641.032C729.1 641.032 728.204 641.256 727.42 641.704C726.652 642.152 726.052 642.8 725.62 643.648C725.188 644.48 724.972 645.456 724.972 646.576C724.972 647.696 725.188 648.68 725.62 649.528C726.052 650.376 726.652 651.032 727.42 651.496C728.204 651.944 729.1 652.168 730.108 652.168ZM744.536 643.768C744.968 643.064 745.528 642.512 746.216 642.112C746.92 641.712 747.72 641.512 748.616 641.512V645.04H747.728C746.672 645.04 745.872 645.288 745.328 645.784C744.8 646.28 744.536 647.144 744.536 648.376V655H741.176V641.704H744.536V643.768ZM756.087 641.488C757.079 641.488 757.951 641.688 758.703 642.088C759.455 642.472 760.047 642.976 760.479 643.6V641.704H763.863V655.096C763.863 656.328 763.615 657.424 763.119 658.384C762.623 659.36 761.879 660.128 760.887 660.688C759.895 661.264 758.695 661.552 757.287 661.552C755.399 661.552 753.847 661.112 752.631 660.232C751.431 659.352 750.751 658.152 750.591 656.632H753.927C754.103 657.24 754.479 657.72 755.055 658.072C755.647 658.44 756.359 658.624 757.191 658.624C758.167 658.624 758.959 658.328 759.567 657.736C760.175 657.16 760.479 656.28 760.479 655.096V653.032C760.047 653.656 759.447 654.176 758.679 654.592C757.927 655.008 757.063 655.216 756.087 655.216C754.967 655.216 753.943 654.928 753.015 654.352C752.087 653.776 751.351 652.968 750.807 651.928C750.279 650.872 750.015 649.664 750.015 648.304C750.015 646.96 750.279 645.768 750.807 644.728C751.351 643.688 752.079 642.888 752.991 642.328C753.919 641.768 754.951 641.488 756.087 641.488ZM760.479 648.352C760.479 647.536 760.319 646.84 759.999 646.264C759.679 645.672 759.247 645.224 758.703 644.92C758.159 644.6 757.575 644.44 756.951 644.44C756.327 644.44 755.751 644.592 755.223 644.896C754.695 645.2 754.263 645.648 753.927 646.24C753.607 646.816 753.447 647.504 753.447 648.304C753.447 649.104 753.607 649.808 753.927 650.416C754.263 651.008 754.695 651.464 755.223 651.784C755.767 652.104 756.343 652.264 756.951 652.264C757.575 652.264 758.159 652.112 758.703 651.808C759.247 651.488 759.679 651.04 759.999 650.464C760.319 649.872 760.479 649.168 760.479 648.352ZM766.28 648.304C766.28 646.96 766.544 645.768 767.072 644.728C767.616 643.688 768.344 642.888 769.256 642.328C770.184 641.768 771.216 641.488 772.352 641.488C773.344 641.488 774.208 641.688 774.944 642.088C775.696 642.488 776.296 642.992 776.744 643.6V641.704H780.128V655H776.744V653.056C776.312 653.68 775.712 654.2 774.944 654.616C774.192 655.016 773.32 655.216 772.328 655.216C771.208 655.216 770.184 654.928 769.256 654.352C768.344 653.776 767.616 652.968 767.072 651.928C766.544 650.872 766.28 649.664 766.28 648.304ZM776.744 648.352C776.744 647.536 776.584 646.84 776.264 646.264C775.944 645.672 775.512 645.224 774.968 644.92C774.424 644.6 773.84 644.44 773.216 644.44C772.592 644.44 772.016 644.592 771.488 644.896C770.96 645.2 770.528 645.648 770.192 646.24C769.872 646.816 769.712 647.504 769.712 648.304C769.712 649.104 769.872 649.808 770.192 650.416C770.528 651.008 770.96 651.464 771.488 651.784C772.032 652.104 772.608 652.264 773.216 652.264C773.84 652.264 774.424 652.112 774.968 651.808C775.512 651.488 775.944 651.04 776.264 650.464C776.584 649.872 776.744 649.168 776.744 648.352ZM790.778 641.512C792.362 641.512 793.642 642.016 794.618 643.024C795.594 644.016 796.082 645.408 796.082 647.2V655H792.722V647.656C792.722 646.6 792.458 645.792 791.93 645.232C791.402 644.656 790.682 644.368 789.77 644.368C788.842 644.368 788.106 644.656 787.562 645.232C787.034 645.792 786.77 646.6 786.77 647.656V655H783.41V641.704H786.77V643.36C787.218 642.784 787.786 642.336 788.474 642.016C789.178 641.68 789.946 641.512 790.778 641.512ZM800.981 640.12C800.389 640.12 799.893 639.936 799.493 639.568C799.109 639.184 798.917 638.712 798.917 638.152C798.917 637.592 799.109 637.128 799.493 636.76C799.893 636.376 800.389 636.184 800.981 636.184C801.573 636.184 802.061 636.376 802.445 636.76C802.845 637.128 803.045 637.592 803.045 638.152C803.045 638.712 802.845 639.184 802.445 639.568C802.061 639.936 801.573 640.12 800.981 640.12ZM802.637 641.704V655H799.277V641.704H802.637ZM809.029 652.24H814.957V655H805.213V652.288L811.021 644.464H805.237V641.704H814.885V644.416L809.029 652.24ZM816.694 648.304C816.694 646.96 816.958 645.768 817.486 644.728C818.03 643.688 818.758 642.888 819.67 642.328C820.598 641.768 821.63 641.488 822.766 641.488C823.758 641.488 824.622 641.688 825.358 642.088C826.11 642.488 826.71 642.992 827.158 643.6V641.704H830.542V655H827.158V653.056C826.726 653.68 826.126 654.2 825.358 654.616C824.606 655.016 823.734 655.216 822.742 655.216C821.622 655.216 820.598 654.928 819.67 654.352C818.758 653.776 818.03 652.968 817.486 651.928C816.958 650.872 816.694 649.664 816.694 648.304ZM827.158 648.352C827.158 647.536 826.998 646.84 826.678 646.264C826.358 645.672 825.926 645.224 825.382 644.92C824.838 644.6 824.254 644.44 823.63 644.44C823.006 644.44 822.43 644.592 821.902 644.896C821.374 645.2 820.942 645.648 820.606 646.24C820.286 646.816 820.126 647.504 820.126 648.304C820.126 649.104 820.286 649.808 820.606 650.416C820.942 651.008 821.374 651.464 821.902 651.784C822.446 652.104 823.022 652.264 823.63 652.264C824.254 652.264 824.838 652.112 825.382 651.808C825.926 651.488 826.358 651.04 826.678 650.464C826.998 649.872 827.158 649.168 827.158 648.352ZM837.736 644.464V650.896C837.736 651.344 837.84 651.672 838.048 651.88C838.272 652.072 838.64 652.168 839.152 652.168H840.712V655H838.6C835.768 655 834.352 653.624 834.352 650.872V644.464H832.768V641.704H834.352V638.416H837.736V641.704H840.712V644.464H837.736ZM844.833 640.12C844.241 640.12 843.745 639.936 843.345 639.568C842.961 639.184 842.769 638.712 842.769 638.152C842.769 637.592 842.961 637.128 843.345 636.76C843.745 636.376 844.241 636.184 844.833 636.184C845.425 636.184 845.913 636.376 846.297 636.76C846.697 637.128 846.897 637.592 846.897 638.152C846.897 638.712 846.697 639.184 846.297 639.568C845.913 639.936 845.425 640.12 844.833 640.12ZM846.489 641.704V655H843.129V641.704H846.489ZM855.712 655.216C854.432 655.216 853.28 654.936 852.256 654.376C851.232 653.8 850.424 652.992 849.832 651.952C849.256 650.912 848.968 649.712 848.968 648.352C848.968 646.992 849.264 645.792 849.856 644.752C850.464 643.712 851.288 642.912 852.328 642.352C853.368 641.776 854.528 641.488 855.808 641.488C857.088 641.488 858.248 641.776 859.288 642.352C860.328 642.912 861.144 643.712 861.736 644.752C862.344 645.792 862.648 646.992 862.648 648.352C862.648 649.712 862.336 650.912 861.712 651.952C861.104 652.992 860.272 653.8 859.216 654.376C858.176 654.936 857.008 655.216 855.712 655.216ZM855.712 652.288C856.32 652.288 856.888 652.144 857.416 651.856C857.96 651.552 858.392 651.104 858.712 650.512C859.032 649.92 859.192 649.2 859.192 648.352C859.192 647.088 858.856 646.12 858.184 645.448C857.528 644.76 856.72 644.416 855.76 644.416C854.8 644.416 853.992 644.76 853.336 645.448C852.696 646.12 852.376 647.088 852.376 648.352C852.376 649.616 852.688 650.592 853.312 651.28C853.952 651.952 854.752 652.288 855.712 652.288ZM872.481 641.512C874.065 641.512 875.345 642.016 876.321 643.024C877.297 644.016 877.785 645.408 877.785 647.2V655H874.425V647.656C874.425 646.6 874.161 645.792 873.633 645.232C873.105 644.656 872.385 644.368 871.473 644.368C870.545 644.368 869.809 644.656 869.265 645.232C868.737 645.792 868.473 646.6 868.473 647.656V655H865.113V641.704H868.473V643.36C868.921 642.784 869.489 642.336 870.177 642.016C870.881 641.68 871.649 641.512 872.481 641.512Z" fill="#1F32D6"/>
</svg>
