<svg width="1600" height="754" viewBox="0 0 1600 754" fill="none" xmlns="http://www.w3.org/2000/svg">
<rect width="1600" height="754" fill="white"/>
<rect x="27" y="127" width="772" height="618" rx="23" fill="#1F32D6" fill-opacity="0.08"/>
<rect x="27" y="127" width="772" height="618" rx="23" stroke="#1F32D6" stroke-width="2"/>
<rect x="284" y="226" width="259" height="94" rx="7" fill="#1F32D6"/>
<rect x="284" y="226" width="259" height="94" rx="7" stroke="#1F32D6" stroke-width="2"/>
<path d="M334.92 263.248V280H331.56V269.104L327.072 280H324.528L320.016 269.104V280H316.656V263.248H320.472L325.8 275.704L331.128 263.248H334.92ZM350.458 268.432C350.458 269.328 350.242 270.168 349.81 270.952C349.394 271.736 348.73 272.368 347.818 272.848C346.922 273.328 345.786 273.568 344.41 273.568H341.602V280H338.242V263.248H344.41C345.706 263.248 346.81 263.472 347.722 263.92C348.634 264.368 349.314 264.984 349.762 265.768C350.226 266.552 350.458 267.44 350.458 268.432ZM344.266 270.856C345.194 270.856 345.882 270.648 346.33 270.232C346.778 269.8 347.002 269.2 347.002 268.432C347.002 266.8 346.09 265.984 344.266 265.984H341.602V270.856H344.266ZM352.028 271.6C352.028 269.952 352.396 268.48 353.132 267.184C353.884 265.872 354.9 264.856 356.18 264.136C357.476 263.4 358.924 263.032 360.524 263.032C362.396 263.032 364.036 263.512 365.444 264.472C366.852 265.432 367.836 266.76 368.396 268.456H364.532C364.148 267.656 363.604 267.056 362.9 266.656C362.212 266.256 361.412 266.056 360.5 266.056C359.524 266.056 358.652 266.288 357.884 266.752C357.132 267.2 356.54 267.84 356.108 268.672C355.692 269.504 355.484 270.48 355.484 271.6C355.484 272.704 355.692 273.68 356.108 274.528C356.54 275.36 357.132 276.008 357.884 276.472C358.652 276.92 359.524 277.144 360.5 277.144C361.412 277.144 362.212 276.944 362.9 276.544C363.604 276.128 364.148 275.52 364.532 274.72H368.396C367.836 276.432 366.852 277.768 365.444 278.728C364.052 279.672 362.412 280.144 360.524 280.144C358.924 280.144 357.476 279.784 356.18 279.064C354.9 278.328 353.884 277.312 353.132 276.016C352.396 274.72 352.028 273.248 352.028 271.6ZM392.032 263.248L385.888 280H381.808L375.664 263.248H379.264L383.872 276.568L388.456 263.248H392.032ZM393.183 273.304C393.183 271.96 393.447 270.768 393.975 269.728C394.519 268.688 395.247 267.888 396.159 267.328C397.087 266.768 398.119 266.488 399.255 266.488C400.247 266.488 401.111 266.688 401.847 267.088C402.599 267.488 403.199 267.992 403.647 268.6V266.704H407.031V280H403.647V278.056C403.215 278.68 402.615 279.2 401.847 279.616C401.095 280.016 400.223 280.216 399.231 280.216C398.111 280.216 397.087 279.928 396.159 279.352C395.247 278.776 394.519 277.968 393.975 276.928C393.447 275.872 393.183 274.664 393.183 273.304ZM403.647 273.352C403.647 272.536 403.487 271.84 403.167 271.264C402.847 270.672 402.415 270.224 401.871 269.92C401.327 269.6 400.743 269.44 400.119 269.44C399.495 269.44 398.919 269.592 398.391 269.896C397.863 270.2 397.431 270.648 397.095 271.24C396.775 271.816 396.615 272.504 396.615 273.304C396.615 274.104 396.775 274.808 397.095 275.416C397.431 276.008 397.863 276.464 398.391 276.784C398.935 277.104 399.511 277.264 400.119 277.264C400.743 277.264 401.327 277.112 401.871 276.808C402.415 276.488 402.847 276.04 403.167 275.464C403.487 274.872 403.647 274.168 403.647 273.352ZM422.864 266.704V280H419.48V278.32C419.048 278.896 418.48 279.352 417.776 279.688C417.088 280.008 416.336 280.168 415.52 280.168C414.48 280.168 413.56 279.952 412.76 279.52C411.96 279.072 411.328 278.424 410.864 277.576C410.416 276.712 410.192 275.688 410.192 274.504V266.704H413.552V274.024C413.552 275.08 413.816 275.896 414.344 276.472C414.872 277.032 415.592 277.312 416.504 277.312C417.432 277.312 418.16 277.032 418.688 276.472C419.216 275.896 419.48 275.08 419.48 274.024V266.704H422.864ZM429.539 262.24V280H426.179V262.24H429.539ZM436.771 269.464V275.896C436.771 276.344 436.875 276.672 437.083 276.88C437.307 277.072 437.675 277.168 438.187 277.168H439.747V280H437.635C434.803 280 433.387 278.624 433.387 275.872V269.464H431.803V266.704H433.387V263.416H436.771V266.704H439.747V269.464H436.771ZM458.155 276.808H451.483L450.379 280H446.851L452.875 263.224H456.787L462.811 280H459.259L458.155 276.808ZM457.243 274.12L454.819 267.112L452.395 274.12H457.243Z" fill="white"/>
<circle cx="496" cy="273" r="16" fill="white"/>
<path d="M490.16 280.331C490.592 280.331 491.024 280.331 491.456 280.331C491.582 280.331 491.644 280.266 491.644 280.137C491.644 279.493 491.646 278.849 491.642 278.205C491.642 278.102 491.663 278.063 491.776 278.064C492.441 278.069 493.105 278.064 493.77 278.069C493.873 278.07 493.901 278.039 493.901 277.939C493.897 277.282 493.902 276.626 493.896 275.969C493.895 275.85 493.92 275.809 494.049 275.811C494.709 275.818 495.369 275.812 496.03 275.815C496.115 275.815 496.174 275.791 496.233 275.731C496.53 275.428 496.834 275.132 497.13 274.829C497.19 274.769 497.24 274.756 497.322 274.779C498.813 275.207 500.201 274.984 501.449 274.065C502.545 273.257 503.173 272.156 503.307 270.797C503.451 269.34 503.005 268.069 501.973 267.035C500.93 265.989 499.648 265.547 498.177 265.695C496.976 265.815 495.969 266.342 495.178 267.248C494.241 268.32 493.877 269.578 494.067 270.992C494.098 271.22 494.157 271.447 494.218 271.67C494.243 271.762 494.23 271.816 494.163 271.883C493.098 272.94 492.037 273.999 490.975 275.059C490.237 275.796 489.498 276.533 488.764 277.274C488.716 277.322 488.679 277.406 488.679 277.473C488.673 278.378 488.677 279.283 488.673 280.188C488.673 280.298 488.7 280.335 488.815 280.334C489.264 280.327 489.712 280.331 490.161 280.331H490.16ZM498.08 269.327C498.083 268.456 498.782 267.757 499.65 267.755C500.496 267.753 501.209 268.464 501.212 269.313C501.215 270.195 500.509 270.889 499.609 270.889C498.785 270.889 498.076 270.166 498.08 269.328V269.327Z" fill="#1F32D6"/>
<rect x="276" y="482" width="278" height="164" rx="7" fill="white"/>
<rect x="276" y="482" width="278" height="164" rx="7" stroke="#1F32D6" stroke-width="2" stroke-dasharray="8 8"/>
<path d="M359.378 557.712H362.666V553.296H365.162V557.712H367.85V560.136H365.162V561.024C366.218 562.056 367.298 563.208 368.378 564.456L366.914 566.664C366.242 565.464 365.666 564.432 365.162 563.592V575.4H362.666V564.528C361.922 566.496 361.01 568.32 359.93 570L358.85 567.264C360.53 565.2 361.754 562.824 362.546 560.136H359.378V557.712ZM366.362 573.864C367.322 572.424 368.018 570.888 368.402 569.304C368.714 567.936 368.882 565.896 368.882 563.184V554.04H377.33V572.256C377.33 572.472 377.402 572.592 377.57 572.592H378.29C378.482 572.592 378.626 572.544 378.722 572.448C378.818 572.352 378.866 572.208 378.914 572.04C379.01 571.704 379.058 570.24 379.058 567.696L381.362 568.416C381.362 570.24 381.29 571.632 381.194 572.544C381.098 573.456 380.858 574.08 380.474 574.464C380.09 574.776 379.466 574.944 378.626 574.944H377.546C375.698 574.944 374.786 574.128 374.786 572.544V556.392H371.378V563.184C371.378 565.896 371.162 568.2 370.73 570.12C370.322 572.04 369.554 573.912 368.426 575.688L366.362 573.864ZM394.298 553.32L396.77 553.632C396.602 554.64 396.41 555.6 396.17 556.536H404.45C404.45 565.08 404.33 570.336 404.09 572.352C403.802 574.32 402.578 575.328 400.394 575.328C399.866 575.328 399.002 575.28 397.754 575.208L397.178 572.976C398.258 573.048 399.194 573.096 399.986 573.096C401.042 573.096 401.642 572.496 401.81 571.32C401.954 570.144 402.05 565.992 402.098 558.864H395.45C394.802 560.64 394.01 562.224 393.05 563.64L391.418 561.528C392.834 559.296 393.794 556.56 394.298 553.32ZM392.594 570.552L392.138 568.464C392.786 568.104 393.938 565.584 395.594 560.928L397.802 561.744C396.746 564.48 395.882 566.52 395.21 567.864C396.266 567.624 397.226 567.408 398.114 567.216C397.826 566.376 397.538 565.584 397.25 564.864L399.314 564.144C400.13 565.968 400.826 567.936 401.426 570.048L399.242 571.056C399.05 570.36 398.882 569.688 398.69 569.064C396.914 569.592 394.874 570.072 392.594 570.552ZM389.018 564.096V575.424H386.546V564.672C385.826 566.64 384.962 568.464 383.954 570.144L382.874 567.36C384.482 565.248 385.658 562.848 386.378 560.136H383.354V557.712H386.546V553.296H389.018V557.712H391.682V560.136H389.018V561.216C390.074 562.272 391.13 563.4 392.186 564.648L390.746 566.784C390.098 565.728 389.522 564.84 389.018 564.096ZM409.946 553.296L412.346 553.824C412.178 554.496 412.01 555.12 411.818 555.744H415.922V558.12H411.002C410.666 558.936 410.33 559.704 409.97 560.424H415.274V562.68H413.33V565.104H416.306V567.408H413.33V571.608C414.386 571.128 415.418 570.504 416.474 569.736L416.882 571.992C415.154 573.216 413.162 574.224 410.906 574.992L409.874 572.856C410.546 572.616 410.882 572.304 410.882 571.872V567.408H407.666V565.104H410.882V562.68H409.586V561.144C409.346 561.576 409.106 561.984 408.866 562.392L406.826 561.096C408.314 558.648 409.346 556.056 409.946 553.296ZM427.538 557.28L427.898 559.584L422.402 560.448C422.426 561.336 422.474 562.176 422.546 562.992L428.162 561.984L428.546 564.336L422.81 565.368L422.858 565.824C423.026 566.856 423.242 567.792 423.482 568.608C424.418 567.624 425.282 566.52 426.074 565.32L427.97 566.592C426.866 568.248 425.666 569.688 424.394 570.936C424.994 571.992 425.546 572.544 426.05 572.544C426.482 572.544 426.842 571.44 427.178 569.256L429.338 570.672C428.642 573.696 427.634 575.208 426.314 575.208C425.162 575.184 424.082 574.44 423.026 573L422.666 572.448C420.818 573.888 418.826 574.92 416.714 575.568L415.322 573.672C417.674 572.904 419.786 571.8 421.61 570.336C421.226 569.352 420.89 568.272 420.626 567.096C420.53 566.664 420.434 566.232 420.386 565.8L416.858 566.424L416.498 564.072L420.05 563.448C419.954 562.584 419.906 561.72 419.858 560.832L417.026 561.288L416.666 558.984L419.81 558.504V553.272H422.354V558.096L427.538 557.28ZM424.874 553.176C425.93 554.256 426.722 555.192 427.274 555.96L425.33 557.328C424.754 556.44 423.962 555.456 422.978 554.376L424.874 553.176ZM445.562 560.376V568.248H437.09V571.944C437.09 572.544 437.426 572.856 438.146 572.856H449.042C449.522 572.808 449.834 572.616 450.002 572.256C450.122 571.992 450.266 571.152 450.41 569.76L452.786 570.552C452.618 571.992 452.426 573 452.21 573.6C451.874 574.608 451.106 575.136 449.858 575.184H437.09C435.41 575.184 434.57 574.44 434.57 572.952V561.48C434.09 562.008 433.634 562.512 433.154 562.992L431.378 560.88C433.442 559.056 435.218 556.44 436.754 553.08L439.298 553.656C439.01 554.328 438.698 554.976 438.41 555.6H451.418C451.418 561.984 451.274 565.92 451.034 567.408C450.794 568.896 449.786 569.664 448.01 569.664C447.722 569.664 447.194 569.616 446.474 569.544L445.874 567.312C446.546 567.384 447.122 567.432 447.602 567.432C448.178 567.432 448.514 567.048 448.61 566.28C448.754 565.464 448.826 562.704 448.874 557.976H437.09C436.562 558.84 436.034 559.632 435.482 560.376H445.562ZM437.09 565.992H443.042V562.632H437.09V565.992ZM467.642 555.864H469.754V573H466.946V559.248C465.914 560.184 464.618 560.88 463.034 561.336V558.552C463.802 558.36 464.618 558.024 465.482 557.544C466.346 557.016 467.066 556.464 467.642 555.864Z" fill="#1F32D6"/>
<path d="M415 481L420.773 471L409.226 471L415 481ZM414 321L414 472L416 472L416 321L414 321Z" fill="#4C5BDE"/>
<rect x="823" y="127" width="772" height="618" rx="23" fill="#1F32D6" fill-opacity="0.08"/>
<rect x="823" y="127" width="772" height="618" rx="23" stroke="#1F32D6" stroke-width="2"/>
<rect x="1081" y="226" width="257" height="94" rx="7" fill="#1F32D6"/>
<rect x="1081" y="226" width="257" height="94" rx="7" stroke="#1F32D6" stroke-width="2"/>
<path d="M1131.92 263.248V280H1128.56V269.104L1124.07 280H1121.53L1117.02 269.104V280H1113.66V263.248H1117.47L1122.8 275.704L1128.13 263.248H1131.92ZM1147.46 268.432C1147.46 269.328 1147.24 270.168 1146.81 270.952C1146.39 271.736 1145.73 272.368 1144.82 272.848C1143.92 273.328 1142.79 273.568 1141.41 273.568H1138.6V280H1135.24V263.248H1141.41C1142.71 263.248 1143.81 263.472 1144.72 263.92C1145.63 264.368 1146.31 264.984 1146.76 265.768C1147.23 266.552 1147.46 267.44 1147.46 268.432ZM1141.27 270.856C1142.19 270.856 1142.88 270.648 1143.33 270.232C1143.78 269.8 1144 269.2 1144 268.432C1144 266.8 1143.09 265.984 1141.27 265.984H1138.6V270.856H1141.27ZM1149.03 271.6C1149.03 269.952 1149.4 268.48 1150.13 267.184C1150.88 265.872 1151.9 264.856 1153.18 264.136C1154.48 263.4 1155.92 263.032 1157.52 263.032C1159.4 263.032 1161.04 263.512 1162.44 264.472C1163.85 265.432 1164.84 266.76 1165.4 268.456H1161.53C1161.15 267.656 1160.6 267.056 1159.9 266.656C1159.21 266.256 1158.41 266.056 1157.5 266.056C1156.52 266.056 1155.65 266.288 1154.88 266.752C1154.13 267.2 1153.54 267.84 1153.11 268.672C1152.69 269.504 1152.48 270.48 1152.48 271.6C1152.48 272.704 1152.69 273.68 1153.11 274.528C1153.54 275.36 1154.13 276.008 1154.88 276.472C1155.65 276.92 1156.52 277.144 1157.5 277.144C1158.41 277.144 1159.21 276.944 1159.9 276.544C1160.6 276.128 1161.15 275.52 1161.53 274.72H1165.4C1164.84 276.432 1163.85 277.768 1162.44 278.728C1161.05 279.672 1159.41 280.144 1157.52 280.144C1155.92 280.144 1154.48 279.784 1153.18 279.064C1151.9 278.328 1150.88 277.312 1150.13 276.016C1149.4 274.72 1149.03 273.248 1149.03 271.6ZM1189.03 263.248L1182.89 280H1178.81L1172.66 263.248H1176.26L1180.87 276.568L1185.46 263.248H1189.03ZM1190.18 273.304C1190.18 271.96 1190.45 270.768 1190.97 269.728C1191.52 268.688 1192.25 267.888 1193.16 267.328C1194.09 266.768 1195.12 266.488 1196.25 266.488C1197.25 266.488 1198.11 266.688 1198.85 267.088C1199.6 267.488 1200.2 267.992 1200.65 268.6V266.704H1204.03V280H1200.65V278.056C1200.21 278.68 1199.61 279.2 1198.85 279.616C1198.09 280.016 1197.22 280.216 1196.23 280.216C1195.11 280.216 1194.09 279.928 1193.16 279.352C1192.25 278.776 1191.52 277.968 1190.97 276.928C1190.45 275.872 1190.18 274.664 1190.18 273.304ZM1200.65 273.352C1200.65 272.536 1200.49 271.84 1200.17 271.264C1199.85 270.672 1199.41 270.224 1198.87 269.92C1198.33 269.6 1197.74 269.44 1197.12 269.44C1196.49 269.44 1195.92 269.592 1195.39 269.896C1194.86 270.2 1194.43 270.648 1194.09 271.24C1193.77 271.816 1193.61 272.504 1193.61 273.304C1193.61 274.104 1193.77 274.808 1194.09 275.416C1194.43 276.008 1194.86 276.464 1195.39 276.784C1195.93 277.104 1196.51 277.264 1197.12 277.264C1197.74 277.264 1198.33 277.112 1198.87 276.808C1199.41 276.488 1199.85 276.04 1200.17 275.464C1200.49 274.872 1200.65 274.168 1200.65 273.352ZM1219.86 266.704V280H1216.48V278.32C1216.05 278.896 1215.48 279.352 1214.78 279.688C1214.09 280.008 1213.34 280.168 1212.52 280.168C1211.48 280.168 1210.56 279.952 1209.76 279.52C1208.96 279.072 1208.33 278.424 1207.86 277.576C1207.42 276.712 1207.19 275.688 1207.19 274.504V266.704H1210.55V274.024C1210.55 275.08 1210.82 275.896 1211.34 276.472C1211.87 277.032 1212.59 277.312 1213.5 277.312C1214.43 277.312 1215.16 277.032 1215.69 276.472C1216.22 275.896 1216.48 275.08 1216.48 274.024V266.704H1219.86ZM1226.54 262.24V280H1223.18V262.24H1226.54ZM1233.77 269.464V275.896C1233.77 276.344 1233.88 276.672 1234.08 276.88C1234.31 277.072 1234.68 277.168 1235.19 277.168H1236.75V280H1234.64C1231.8 280 1230.39 278.624 1230.39 275.872V269.464H1228.8V266.704H1230.39V263.416H1233.77V266.704H1236.75V269.464H1233.77ZM1254.39 271.408C1255.33 271.584 1256.11 272.056 1256.71 272.824C1257.32 273.592 1257.63 274.472 1257.63 275.464C1257.63 276.36 1257.4 277.152 1256.95 277.84C1256.52 278.512 1255.89 279.04 1255.06 279.424C1254.23 279.808 1253.24 280 1252.11 280H1244.88V263.248H1251.79C1252.93 263.248 1253.91 263.432 1254.72 263.8C1255.55 264.168 1256.18 264.68 1256.59 265.336C1257.03 265.992 1257.24 266.736 1257.24 267.568C1257.24 268.544 1256.98 269.36 1256.45 270.016C1255.94 270.672 1255.25 271.136 1254.39 271.408ZM1248.24 270.16H1251.31C1252.11 270.16 1252.73 269.984 1253.16 269.632C1253.59 269.264 1253.81 268.744 1253.81 268.072C1253.81 267.4 1253.59 266.88 1253.16 266.512C1252.73 266.144 1252.11 265.96 1251.31 265.96H1248.24V270.16ZM1251.63 277.264C1252.44 277.264 1253.07 277.072 1253.52 276.688C1253.99 276.304 1254.22 275.76 1254.22 275.056C1254.22 274.336 1253.98 273.776 1253.5 273.376C1253.02 272.96 1252.37 272.752 1251.55 272.752H1248.24V277.264H1251.63Z" fill="white"/>
<circle cx="1291" cy="273" r="16" fill="white"/>
<path d="M1285.16 280.331C1285.59 280.331 1286.02 280.331 1286.46 280.331C1286.58 280.331 1286.64 280.266 1286.64 280.137C1286.64 279.493 1286.65 278.849 1286.64 278.205C1286.64 278.102 1286.66 278.063 1286.78 278.064C1287.44 278.069 1288.11 278.064 1288.77 278.069C1288.87 278.07 1288.9 278.039 1288.9 277.939C1288.9 277.282 1288.9 276.626 1288.9 275.969C1288.89 275.85 1288.92 275.809 1289.05 275.811C1289.71 275.818 1290.37 275.812 1291.03 275.815C1291.11 275.815 1291.17 275.791 1291.23 275.731C1291.53 275.428 1291.83 275.132 1292.13 274.829C1292.19 274.769 1292.24 274.756 1292.32 274.779C1293.81 275.207 1295.2 274.984 1296.45 274.065C1297.55 273.257 1298.17 272.156 1298.31 270.797C1298.45 269.34 1298.01 268.069 1296.97 267.035C1295.93 265.989 1294.65 265.547 1293.18 265.695C1291.98 265.815 1290.97 266.342 1290.18 267.248C1289.24 268.32 1288.88 269.578 1289.07 270.992C1289.1 271.22 1289.16 271.447 1289.22 271.67C1289.24 271.762 1289.23 271.816 1289.16 271.883C1288.1 272.94 1287.04 273.999 1285.98 275.059C1285.24 275.796 1284.5 276.533 1283.76 277.274C1283.72 277.322 1283.68 277.406 1283.68 277.473C1283.67 278.378 1283.68 279.283 1283.67 280.188C1283.67 280.298 1283.7 280.335 1283.82 280.334C1284.26 280.327 1284.71 280.331 1285.16 280.331H1285.16ZM1293.08 269.327C1293.08 268.456 1293.78 267.757 1294.65 267.755C1295.5 267.753 1296.21 268.464 1296.21 269.313C1296.22 270.195 1295.51 270.889 1294.61 270.889C1293.78 270.889 1293.08 270.166 1293.08 269.328V269.327Z" fill="#1F32D6"/>
<rect x="887" y="482" width="278" height="164" rx="7" fill="white"/>
<rect x="887" y="482" width="278" height="164" rx="7" stroke="#1F32D6" stroke-width="2" stroke-dasharray="8 8"/>
<path d="M970.378 557.712H973.666V553.296H976.162V557.712H978.85V560.136H976.162V561.024C977.218 562.056 978.298 563.208 979.378 564.456L977.914 566.664C977.242 565.464 976.666 564.432 976.162 563.592V575.4H973.666V564.528C972.922 566.496 972.01 568.32 970.93 570L969.85 567.264C971.53 565.2 972.754 562.824 973.546 560.136H970.378V557.712ZM977.362 573.864C978.322 572.424 979.018 570.888 979.402 569.304C979.714 567.936 979.882 565.896 979.882 563.184V554.04H988.33V572.256C988.33 572.472 988.402 572.592 988.57 572.592H989.29C989.482 572.592 989.626 572.544 989.722 572.448C989.818 572.352 989.866 572.208 989.914 572.04C990.01 571.704 990.058 570.24 990.058 567.696L992.362 568.416C992.362 570.24 992.29 571.632 992.194 572.544C992.098 573.456 991.858 574.08 991.474 574.464C991.09 574.776 990.466 574.944 989.626 574.944H988.546C986.698 574.944 985.786 574.128 985.786 572.544V556.392H982.378V563.184C982.378 565.896 982.162 568.2 981.73 570.12C981.322 572.04 980.554 573.912 979.426 575.688L977.362 573.864ZM1005.3 553.32L1007.77 553.632C1007.6 554.64 1007.41 555.6 1007.17 556.536H1015.45C1015.45 565.08 1015.33 570.336 1015.09 572.352C1014.8 574.32 1013.58 575.328 1011.39 575.328C1010.87 575.328 1010 575.28 1008.75 575.208L1008.18 572.976C1009.26 573.048 1010.19 573.096 1010.99 573.096C1012.04 573.096 1012.64 572.496 1012.81 571.32C1012.95 570.144 1013.05 565.992 1013.1 558.864H1006.45C1005.8 560.64 1005.01 562.224 1004.05 563.64L1002.42 561.528C1003.83 559.296 1004.79 556.56 1005.3 553.32ZM1003.59 570.552L1003.14 568.464C1003.79 568.104 1004.94 565.584 1006.59 560.928L1008.8 561.744C1007.75 564.48 1006.88 566.52 1006.21 567.864C1007.27 567.624 1008.23 567.408 1009.11 567.216C1008.83 566.376 1008.54 565.584 1008.25 564.864L1010.31 564.144C1011.13 565.968 1011.83 567.936 1012.43 570.048L1010.24 571.056C1010.05 570.36 1009.88 569.688 1009.69 569.064C1007.91 569.592 1005.87 570.072 1003.59 570.552ZM1000.02 564.096V575.424H997.546V564.672C996.826 566.64 995.962 568.464 994.954 570.144L993.874 567.36C995.482 565.248 996.658 562.848 997.378 560.136H994.354V557.712H997.546V553.296H1000.02V557.712H1002.68V560.136H1000.02V561.216C1001.07 562.272 1002.13 563.4 1003.19 564.648L1001.75 566.784C1001.1 565.728 1000.52 564.84 1000.02 564.096ZM1020.95 553.296L1023.35 553.824C1023.18 554.496 1023.01 555.12 1022.82 555.744H1026.92V558.12H1022C1021.67 558.936 1021.33 559.704 1020.97 560.424H1026.27V562.68H1024.33V565.104H1027.31V567.408H1024.33V571.608C1025.39 571.128 1026.42 570.504 1027.47 569.736L1027.88 571.992C1026.15 573.216 1024.16 574.224 1021.91 574.992L1020.87 572.856C1021.55 572.616 1021.88 572.304 1021.88 571.872V567.408H1018.67V565.104H1021.88V562.68H1020.59V561.144C1020.35 561.576 1020.11 561.984 1019.87 562.392L1017.83 561.096C1019.31 558.648 1020.35 556.056 1020.95 553.296ZM1038.54 557.28L1038.9 559.584L1033.4 560.448C1033.43 561.336 1033.47 562.176 1033.55 562.992L1039.16 561.984L1039.55 564.336L1033.81 565.368L1033.86 565.824C1034.03 566.856 1034.24 567.792 1034.48 568.608C1035.42 567.624 1036.28 566.52 1037.07 565.32L1038.97 566.592C1037.87 568.248 1036.67 569.688 1035.39 570.936C1035.99 571.992 1036.55 572.544 1037.05 572.544C1037.48 572.544 1037.84 571.44 1038.18 569.256L1040.34 570.672C1039.64 573.696 1038.63 575.208 1037.31 575.208C1036.16 575.184 1035.08 574.44 1034.03 573L1033.67 572.448C1031.82 573.888 1029.83 574.92 1027.71 575.568L1026.32 573.672C1028.67 572.904 1030.79 571.8 1032.61 570.336C1032.23 569.352 1031.89 568.272 1031.63 567.096C1031.53 566.664 1031.43 566.232 1031.39 565.8L1027.86 566.424L1027.5 564.072L1031.05 563.448C1030.95 562.584 1030.91 561.72 1030.86 560.832L1028.03 561.288L1027.67 558.984L1030.81 558.504V553.272H1033.35V558.096L1038.54 557.28ZM1035.87 553.176C1036.93 554.256 1037.72 555.192 1038.27 555.96L1036.33 557.328C1035.75 556.44 1034.96 555.456 1033.98 554.376L1035.87 553.176ZM1056.56 560.376V568.248H1048.09V571.944C1048.09 572.544 1048.43 572.856 1049.15 572.856H1060.04C1060.52 572.808 1060.83 572.616 1061 572.256C1061.12 571.992 1061.27 571.152 1061.41 569.76L1063.79 570.552C1063.62 571.992 1063.43 573 1063.21 573.6C1062.87 574.608 1062.11 575.136 1060.86 575.184H1048.09C1046.41 575.184 1045.57 574.44 1045.57 572.952V561.48C1045.09 562.008 1044.63 562.512 1044.15 562.992L1042.38 560.88C1044.44 559.056 1046.22 556.44 1047.75 553.08L1050.3 553.656C1050.01 554.328 1049.7 554.976 1049.41 555.6H1062.42C1062.42 561.984 1062.27 565.92 1062.03 567.408C1061.79 568.896 1060.79 569.664 1059.01 569.664C1058.72 569.664 1058.19 569.616 1057.47 569.544L1056.87 567.312C1057.55 567.384 1058.12 567.432 1058.6 567.432C1059.18 567.432 1059.51 567.048 1059.61 566.28C1059.75 565.464 1059.83 562.704 1059.87 557.976H1048.09C1047.56 558.84 1047.03 559.632 1046.48 560.376H1056.56ZM1048.09 565.992H1054.04V562.632H1048.09V565.992ZM1078.64 555.864H1080.75V573H1077.95V559.248C1076.91 560.184 1075.62 560.88 1074.03 561.336V558.552C1074.8 558.36 1075.62 558.024 1076.48 557.544C1077.35 557.016 1078.07 556.464 1078.64 555.864Z" fill="#1F32D6"/>
<rect x="1253" y="482" width="278" height="164" rx="7" fill="white"/>
<rect x="1253" y="482" width="278" height="164" rx="7" stroke="#1F32D6" stroke-width="2" stroke-dasharray="8 8"/>
<path d="M1334.1 557.712H1337.39V553.296H1339.89V557.712H1342.58V560.136H1339.89V561.024C1340.94 562.056 1342.02 563.208 1343.1 564.456L1341.64 566.664C1340.97 565.464 1340.39 564.432 1339.89 563.592V575.4H1337.39V564.528C1336.65 566.496 1335.74 568.32 1334.66 570L1333.58 567.264C1335.26 565.2 1336.48 562.824 1337.27 560.136H1334.1V557.712ZM1341.09 573.864C1342.05 572.424 1342.74 570.888 1343.13 569.304C1343.44 567.936 1343.61 565.896 1343.61 563.184V554.04H1352.06V572.256C1352.06 572.472 1352.13 572.592 1352.3 572.592H1353.02C1353.21 572.592 1353.35 572.544 1353.45 572.448C1353.54 572.352 1353.59 572.208 1353.64 572.04C1353.74 571.704 1353.78 570.24 1353.78 567.696L1356.09 568.416C1356.09 570.24 1356.02 571.632 1355.92 572.544C1355.82 573.456 1355.58 574.08 1355.2 574.464C1354.82 574.776 1354.19 574.944 1353.35 574.944H1352.27C1350.42 574.944 1349.51 574.128 1349.51 572.544V556.392H1346.1V563.184C1346.1 565.896 1345.89 568.2 1345.46 570.12C1345.05 572.04 1344.28 573.912 1343.15 575.688L1341.09 573.864ZM1369.02 553.32L1371.5 553.632C1371.33 554.64 1371.14 555.6 1370.9 556.536H1379.18C1379.18 565.08 1379.06 570.336 1378.82 572.352C1378.53 574.32 1377.3 575.328 1375.12 575.328C1374.59 575.328 1373.73 575.28 1372.48 575.208L1371.9 572.976C1372.98 573.048 1373.92 573.096 1374.71 573.096C1375.77 573.096 1376.37 572.496 1376.54 571.32C1376.68 570.144 1376.78 565.992 1376.82 558.864H1370.18C1369.53 560.64 1368.74 562.224 1367.78 563.64L1366.14 561.528C1367.56 559.296 1368.52 556.56 1369.02 553.32ZM1367.32 570.552L1366.86 568.464C1367.51 568.104 1368.66 565.584 1370.32 560.928L1372.53 561.744C1371.47 564.48 1370.61 566.52 1369.94 567.864C1370.99 567.624 1371.95 567.408 1372.84 567.216C1372.55 566.376 1372.26 565.584 1371.98 564.864L1374.04 564.144C1374.86 565.968 1375.55 567.936 1376.15 570.048L1373.97 571.056C1373.78 570.36 1373.61 569.688 1373.42 569.064C1371.64 569.592 1369.6 570.072 1367.32 570.552ZM1363.74 564.096V575.424H1361.27V564.672C1360.55 566.64 1359.69 568.464 1358.68 570.144L1357.6 567.36C1359.21 565.248 1360.38 562.848 1361.1 560.136H1358.08V557.712H1361.27V553.296H1363.74V557.712H1366.41V560.136H1363.74V561.216C1364.8 562.272 1365.86 563.4 1366.91 564.648L1365.47 566.784C1364.82 565.728 1364.25 564.84 1363.74 564.096ZM1384.67 553.296L1387.07 553.824C1386.9 554.496 1386.74 555.12 1386.54 555.744H1390.65V558.12H1385.73C1385.39 558.936 1385.06 559.704 1384.7 560.424H1390V562.68H1388.06V565.104H1391.03V567.408H1388.06V571.608C1389.11 571.128 1390.14 570.504 1391.2 569.736L1391.61 571.992C1389.88 573.216 1387.89 574.224 1385.63 574.992L1384.6 572.856C1385.27 572.616 1385.61 572.304 1385.61 571.872V567.408H1382.39V565.104H1385.61V562.68H1384.31V561.144C1384.07 561.576 1383.83 561.984 1383.59 562.392L1381.55 561.096C1383.04 558.648 1384.07 556.056 1384.67 553.296ZM1402.26 557.28L1402.62 559.584L1397.13 560.448C1397.15 561.336 1397.2 562.176 1397.27 562.992L1402.89 561.984L1403.27 564.336L1397.54 565.368L1397.58 565.824C1397.75 566.856 1397.97 567.792 1398.21 568.608C1399.14 567.624 1400.01 566.52 1400.8 565.32L1402.7 566.592C1401.59 568.248 1400.39 569.688 1399.12 570.936C1399.72 571.992 1400.27 572.544 1400.78 572.544C1401.21 572.544 1401.57 571.44 1401.9 569.256L1404.06 570.672C1403.37 573.696 1402.36 575.208 1401.04 575.208C1399.89 575.184 1398.81 574.44 1397.75 573L1397.39 572.448C1395.54 573.888 1393.55 574.92 1391.44 575.568L1390.05 573.672C1392.4 572.904 1394.51 571.8 1396.34 570.336C1395.95 569.352 1395.62 568.272 1395.35 567.096C1395.26 566.664 1395.16 566.232 1395.11 565.8L1391.58 566.424L1391.22 564.072L1394.78 563.448C1394.68 562.584 1394.63 561.72 1394.58 560.832L1391.75 561.288L1391.39 558.984L1394.54 558.504V553.272H1397.08V558.096L1402.26 557.28ZM1399.6 553.176C1400.66 554.256 1401.45 555.192 1402 555.96L1400.06 557.328C1399.48 556.44 1398.69 555.456 1397.7 554.376L1399.6 553.176ZM1420.29 560.376V568.248H1411.82V571.944C1411.82 572.544 1412.15 572.856 1412.87 572.856H1423.77C1424.25 572.808 1424.56 572.616 1424.73 572.256C1424.85 571.992 1424.99 571.152 1425.14 569.76L1427.51 570.552C1427.34 571.992 1427.15 573 1426.94 573.6C1426.6 574.608 1425.83 575.136 1424.58 575.184H1411.82C1410.14 575.184 1409.3 574.44 1409.3 572.952V561.48C1408.82 562.008 1408.36 562.512 1407.88 562.992L1406.1 560.88C1408.17 559.056 1409.94 556.44 1411.48 553.08L1414.02 553.656C1413.74 554.328 1413.42 554.976 1413.14 555.6H1426.14C1426.14 561.984 1426 565.92 1425.76 567.408C1425.52 568.896 1424.51 569.664 1422.74 569.664C1422.45 569.664 1421.92 569.616 1421.2 569.544L1420.6 567.312C1421.27 567.384 1421.85 567.432 1422.33 567.432C1422.9 567.432 1423.24 567.048 1423.34 566.28C1423.48 565.464 1423.55 562.704 1423.6 557.976H1411.82C1411.29 558.84 1410.76 559.632 1410.21 560.376H1420.29ZM1411.82 565.992H1417.77V562.632H1411.82V565.992ZM1444.26 555.528C1445.92 555.528 1447.29 556.008 1448.37 556.968C1449.42 557.928 1449.95 559.152 1449.95 560.688C1449.95 562.176 1449.38 563.52 1448.27 564.744C1447.6 565.464 1446.4 566.376 1444.72 567.504C1442.97 568.656 1441.91 569.664 1441.53 570.528H1449.98V573H1438.02C1438.02 571.248 1438.58 569.736 1439.73 568.44C1440.35 567.72 1441.67 566.664 1443.66 565.296C1444.77 564.528 1445.54 563.88 1446.02 563.376C1446.76 562.536 1447.14 561.624 1447.14 560.664C1447.14 559.728 1446.88 559.032 1446.4 558.576C1445.9 558.12 1445.15 557.904 1444.17 557.904C1443.11 557.904 1442.32 558.264 1441.79 558.984C1441.26 559.656 1440.98 560.688 1440.93 562.032H1438.12C1438.14 560.112 1438.7 558.576 1439.8 557.4C1440.93 556.152 1442.42 555.528 1444.26 555.528Z" fill="#1F32D6"/>
<path d="M1026 481L1031.77 471H1020.23L1026 481ZM1026 398.333V397.333H1025V398.333H1026ZM1397 398.333H1398V397.333H1397V398.333ZM1397 481L1402.77 471H1391.23L1397 481ZM1027 472V398.333H1025V472H1027ZM1026 399.333H1397V397.333H1026V399.333ZM1396 398.333V472H1398V398.333H1396Z" fill="#4C5BDE"/>
<path d="M1211 321L1211 399.73" stroke="#4C5BDE" stroke-width="2"/>
<path d="M737.728 18.616H742.112V12.728H745.44V18.616H749.024V21.848H745.44V23.032C746.848 24.408 748.288 25.944 749.728 27.608L747.776 30.552C746.88 28.952 746.112 27.576 745.44 26.456V42.2H742.112V27.704C741.12 30.328 739.904 32.76 738.464 35L737.024 31.352C739.264 28.6 740.896 25.432 741.952 21.848H737.728V18.616ZM747.04 40.152C748.32 38.232 749.248 36.184 749.76 34.072C750.176 32.248 750.4 29.528 750.4 25.912V13.72H761.664V38.008C761.664 38.296 761.76 38.456 761.984 38.456H762.944C763.2 38.456 763.392 38.392 763.52 38.264C763.648 38.136 763.712 37.944 763.776 37.72C763.904 37.272 763.968 35.32 763.968 31.928L767.04 32.888C767.04 35.32 766.944 37.176 766.816 38.392C766.688 39.608 766.368 40.44 765.856 40.952C765.344 41.368 764.512 41.592 763.392 41.592H761.952C759.488 41.592 758.272 40.504 758.272 38.392V16.856H753.728V25.912C753.728 29.528 753.44 32.6 752.864 35.16C752.32 37.72 751.296 40.216 749.792 42.584L747.04 40.152ZM784.288 12.76L787.584 13.176C787.36 14.52 787.104 15.8 786.784 17.048H797.824C797.824 28.44 797.664 35.448 797.344 38.136C796.96 40.76 795.328 42.104 792.416 42.104C791.712 42.104 790.56 42.04 788.896 41.944L788.128 38.968C789.568 39.064 790.816 39.128 791.872 39.128C793.28 39.128 794.08 38.328 794.304 36.76C794.496 35.192 794.624 29.656 794.688 20.152H785.824C784.96 22.52 783.904 24.632 782.624 26.52L780.448 23.704C782.336 20.728 783.616 17.08 784.288 12.76ZM782.016 35.736L781.408 32.952C782.272 32.472 783.808 29.112 786.016 22.904L788.96 23.992C787.552 27.64 786.4 30.36 785.504 32.152C786.912 31.832 788.192 31.544 789.376 31.288C788.992 30.168 788.608 29.112 788.224 28.152L790.976 27.192C792.064 29.624 792.992 32.248 793.792 35.064L790.88 36.408C790.624 35.48 790.4 34.584 790.144 33.752C787.776 34.456 785.056 35.096 782.016 35.736ZM777.248 27.128V42.232H773.952V27.896C772.992 30.52 771.84 32.952 770.496 35.192L769.056 31.48C771.2 28.664 772.768 25.464 773.728 21.848H769.696V18.616H773.952V12.728H777.248V18.616H780.8V21.848H777.248V23.288C778.656 24.696 780.064 26.2 781.472 27.864L779.552 30.712C778.688 29.304 777.92 28.12 777.248 27.128ZM805.152 12.728L808.352 13.432C808.128 14.328 807.904 15.16 807.648 15.992H813.12V19.16H806.56C806.112 20.248 805.664 21.272 805.184 22.232H812.256V25.24H809.664V28.472H813.632V31.544H809.664V37.144C811.072 36.504 812.448 35.672 813.856 34.648L814.4 37.656C812.096 39.288 809.44 40.632 806.432 41.656L805.056 38.808C805.952 38.488 806.4 38.072 806.4 37.496V31.544H802.112V28.472H806.4V25.24H804.672V23.192C804.352 23.768 804.032 24.312 803.712 24.856L800.992 23.128C802.976 19.864 804.352 16.408 805.152 12.728ZM828.608 18.04L829.088 21.112L821.76 22.264C821.792 23.448 821.856 24.568 821.952 25.656L829.44 24.312L829.952 27.448L822.304 28.824L822.368 29.432C822.592 30.808 822.88 32.056 823.2 33.144C824.448 31.832 825.6 30.36 826.656 28.76L829.184 30.456C827.712 32.664 826.112 34.584 824.416 36.248C825.216 37.656 825.952 38.392 826.624 38.392C827.2 38.392 827.68 36.92 828.128 34.008L831.008 35.896C830.08 39.928 828.736 41.944 826.976 41.944C825.44 41.912 824 40.92 822.592 39L822.112 38.264C819.648 40.184 816.992 41.56 814.176 42.424L812.32 39.896C815.456 38.872 818.272 37.4 820.704 35.448C820.192 34.136 819.744 32.696 819.392 31.128C819.264 30.552 819.136 29.976 819.072 29.4L814.368 30.232L813.888 27.096L818.624 26.264C818.496 25.112 818.432 23.96 818.368 22.776L814.592 23.384L814.112 20.312L818.304 19.672V12.696H821.696V19.128L828.608 18.04ZM825.056 12.568C826.464 14.008 827.52 15.256 828.256 16.28L825.664 18.104C824.896 16.92 823.84 15.608 822.528 14.168L825.056 12.568ZM852.64 22.168V32.664H841.344V37.592C841.344 38.392 841.792 38.808 842.752 38.808H857.28C857.92 38.744 858.336 38.488 858.56 38.008C858.72 37.656 858.912 36.536 859.104 34.68L862.272 35.736C862.048 37.656 861.792 39 861.504 39.8C861.056 41.144 860.032 41.848 858.368 41.912H841.344C839.104 41.912 837.984 40.92 837.984 38.936V23.64C837.344 24.344 836.736 25.016 836.096 25.656L833.728 22.84C836.48 20.408 838.848 16.92 840.896 12.44L844.288 13.208C843.904 14.104 843.488 14.968 843.104 15.8H860.448C860.448 24.312 860.256 29.56 859.936 31.544C859.616 33.528 858.272 34.552 855.904 34.552C855.52 34.552 854.816 34.488 853.856 34.392L853.056 31.416C853.952 31.512 854.72 31.576 855.36 31.576C856.128 31.576 856.576 31.064 856.704 30.04C856.896 28.952 856.992 25.272 857.056 18.968H841.344C840.64 20.12 839.936 21.176 839.2 22.168H852.64ZM841.344 29.656H849.28V25.176H841.344V29.656Z" fill="#1F32D6"/>
</svg>
