<svg width="34" height="34" viewBox="0 0 34 34" fill="none" xmlns="http://www.w3.org/2000/svg">
<rect x="1" y="1" width="32" height="32" rx="16" stroke="#EDEEF3"/>
<path d="M23.4307 12.2412C22.3581 10.7917 20.8273 9.74717 19.0865 9.27689C17.3458 8.8066 15.4972 8.93818 13.8406 9.6503C12.184 10.3624 10.8166 11.6133 9.96009 13.2C9.1036 14.7868 8.80828 16.6164 9.12204 18.392C9.4358 20.1677 10.3402 21.7853 11.6886 22.9824C13.037 24.1796 14.7503 24.8861 16.5506 24.9874C18.351 25.0887 20.1327 24.5788 21.6069 23.5404C23.081 22.502 24.1612 20.9961 24.6721 19.2669" stroke="#1C1C1C" stroke-width="1.5" stroke-linecap="round"/>
<path d="M20.0481 12.6648L23.7728 13.1969L24.3049 9.47213" stroke="#1C1C1C" stroke-width="1.5" stroke-linecap="round" stroke-linejoin="round"/>
</svg>
