<svg width="110" height="32" viewBox="0 0 110 32" fill="none" xmlns="http://www.w3.org/2000/svg">
<path d="M0.647009 7.76411C0.647009 3.83344 3.83344 0.647009 7.76411 0.647009H101.324C105.255 0.647009 108.441 3.83345 108.441 7.76411V24.2359C108.441 28.1666 105.255 31.353 101.324 31.353H7.76412C3.83345 31.353 0.647009 28.1666 0.647009 24.2359V7.76411Z" stroke="#1F32D6" stroke-width="1.29402"/>
<path d="M32.674 14.1128H19.0868" stroke="#1F32D6" stroke-width="1.72536" stroke-linecap="round" stroke-linejoin="round"/>
<path d="M28.145 9.58377L32.6741 14.1128" stroke="#1F32D6" stroke-width="1.72536" stroke-linecap="round" stroke-linejoin="round"/>
<path d="M19.3885 17.8871H32.9758" stroke="#1F32D6" stroke-width="1.72536" stroke-linecap="round" stroke-linejoin="round"/>
<path d="M19.3885 17.8871L23.9176 22.4161" stroke="#1F32D6" stroke-width="1.72536" stroke-linecap="round" stroke-linejoin="round"/>
<path d="M55.0586 10.5806H52.1859V9.16749H60.478C60.478 14.5558 60.4003 17.8788 60.245 19.1366C60.0587 21.2174 59.1736 22.2733 57.6208 22.2733C57.2792 22.2733 56.6736 22.2423 55.835 22.1801L55.4624 20.8447C56.2077 20.8913 56.8444 20.9224 57.3723 20.9224C58.2109 20.9224 58.6922 20.0994 58.8165 18.4689C58.9096 17.677 58.9562 15.0527 58.9873 10.5806H56.5338V11.916C56.4717 16.8384 54.8412 20.441 51.6735 22.7236L50.4467 21.6367C53.4747 19.618 55.012 16.3726 55.0586 11.916V10.5806ZM52.9157 11.6365L53.1486 13.0651L49.8567 13.7017V18.1118C50.6641 17.7701 51.4561 17.3664 52.2635 16.9005L52.6362 18.2204C51.394 19.0124 49.8567 19.7267 47.9933 20.3478L47.574 18.9192C48.102 18.7018 48.366 18.3447 48.366 17.8788V13.9968L46.6423 14.3384L46.4094 12.8943L48.366 12.5216V8.48425H49.8567V12.2266L52.9157 11.6365ZM75.5559 12.4439V16.6521H76.4255V18.0186H72.7763C73.5838 19.4006 74.826 20.4876 76.5186 21.2795L75.8509 22.677C73.9099 21.5745 72.4968 20.1459 71.5962 18.4068C70.9129 20.0683 69.4688 21.4969 67.2638 22.677L66.3011 21.4348C68.2421 20.5342 69.5465 19.3851 70.2142 18.0186H66.829V16.6521H67.8228V12.8787L67.7918 12.8943L66.9222 11.7452C68.4284 10.7824 69.4533 9.58676 69.9968 8.17369L71.4254 8.36003C71.3011 8.70165 71.1614 9.02774 71.0061 9.3383H74.1428V10.3942C73.7391 11.1862 73.3509 11.8694 72.9627 12.4439H75.5559ZM69.1272 16.6521H70.6645C70.8198 15.8291 70.9285 14.8508 70.9595 13.7328H69.1272V16.6521ZM72.0776 16.6521H74.2515V13.7328H72.326C72.2949 14.8819 72.2173 15.8446 72.0776 16.6521ZM71.472 12.4439C71.8446 11.9005 72.2328 11.2793 72.6055 10.5806H70.2608C69.7328 11.2638 69.1272 11.8849 68.4129 12.4439H71.472ZM63.9252 22.4286H62.6053L62.2792 21.0155C62.683 21.0776 63.0557 21.1087 63.4128 21.1087C63.7855 21.1087 63.9718 20.9068 63.9718 20.5186V17.2266C63.4128 17.444 62.8693 17.6304 62.3103 17.8167L61.9376 16.326C62.6209 16.1707 63.2886 15.9689 63.9718 15.7204V12.4129H62.2482V10.9998H63.9718V8.28238H65.4315V10.9998H66.8911V12.4129H65.4315V15.1303C65.9439 14.8819 66.4563 14.6334 66.9532 14.3539V15.8446C66.4563 16.1086 65.9439 16.3571 65.4315 16.6055V20.8913C65.4315 21.9162 64.919 22.4286 63.9252 22.4286Z" fill="#1F32D6"/>
</svg>
