<svg width="1584" height="738" viewBox="0 0 1584 738" fill="none" xmlns="http://www.w3.org/2000/svg">
<g clip-path="url(#clip0_3816_3912)">
<rect width="1584" height="738" rx="24" fill="#1F32D6" fill-opacity="0.08"/>
<path d="M721.472 114.072H718.912L718.016 110.936L720.8 111.032C721.6 111.032 722.016 110.456 722.016 109.336V89.112H710.112V86.04H725.28V110.264C725.28 112.792 724 114.072 721.472 114.072ZM698.656 90.04H701.92V114.36H698.656V90.04ZM704.32 84.376C705.792 86.104 707.072 87.992 708.192 90.072L705.184 91.64C704 89.4 702.688 87.448 701.28 85.752L704.32 84.376ZM730.24 85.72H740.864V88.344C739.904 91.032 738.816 93.88 737.568 96.888C739.552 99.864 740.608 102.424 740.768 104.6C740.768 106.136 740.448 107.256 739.808 107.896C738.848 108.728 737.152 109.176 734.784 109.208L733.696 105.816C734.4 105.944 735.008 106.008 735.488 106.008C736.256 105.944 736.768 105.848 737.024 105.656C737.28 105.464 737.408 105.112 737.408 104.6C737.408 102.456 736.32 100.056 734.176 97.4C735.584 94.232 736.704 91.384 737.504 88.856H733.504V114.36H730.24V85.72ZM745.056 94.52V97.176H753.152V94.52H745.056ZM753.152 91.512V88.824H745.056V91.512H753.152ZM747.776 100.216H745.056V109.816C746.688 109.304 748.288 108.696 749.888 107.928L750.688 111.032C748.32 112.024 745.344 112.984 741.76 113.88L740.96 110.936C741.472 110.776 741.76 110.456 741.76 110.008V85.688H756.416V100.216H750.784C751.104 101.752 751.616 103.16 752.32 104.472C753.664 103.64 754.944 102.52 756.16 101.048L758.272 103.192C756.96 104.728 755.488 105.944 753.888 106.84C755.2 108.504 756.896 109.976 759.008 111.192L757.152 114.136C751.968 110.712 748.832 106.072 747.776 100.216ZM782.912 103.128L786.208 104.056C785.472 106.36 784.576 108.472 783.552 110.36H789.664V113.464H762.4V110.36H779.968C781.056 108.344 782.048 105.944 782.912 103.128ZM768.672 103.384C769.568 105.08 770.368 107.032 771.072 109.208L768.064 109.944C767.424 108.024 766.624 106.168 765.632 104.376L768.672 103.384ZM776.064 102.744C776.8 104.536 777.44 106.584 778.016 108.888L775.04 109.624C774.496 107.576 773.824 105.624 772.992 103.736L776.064 102.744ZM767.584 100.088C766.112 100.728 764.576 101.368 762.912 101.944L761.28 99.032C766.784 97.272 771.328 95.096 774.976 92.504H777.024C780.992 95.288 785.536 97.496 790.72 99.096L789.088 101.976C787.424 101.4 785.888 100.792 784.448 100.152V102.392H767.584V100.088ZM783.072 99.512C780.448 98.232 778.08 96.792 776 95.192C773.984 96.76 771.616 98.2 768.864 99.512H783.072ZM766.944 90.104C766.176 91.64 765.28 93.016 764.32 94.296L761.408 92.472C763.392 90.008 764.768 87.384 765.568 84.632L768.8 85.336C768.608 85.976 768.384 86.584 768.192 87.16H775.968V90.104H772.224C772.608 91 772.96 91.832 773.216 92.6L770.208 93.72C769.824 92.472 769.408 91.256 768.928 90.104H766.944ZM780.352 90.104C779.84 91.128 779.264 92.056 778.656 92.952L775.84 91.128C777.312 89.112 778.368 86.936 779.008 84.632L782.176 85.336C781.984 85.976 781.792 86.584 781.6 87.16H790.4V90.104H786.144C786.688 91.064 787.136 91.992 787.52 92.856L784.48 94.04C783.968 92.696 783.36 91.384 782.72 90.104H780.352ZM803.904 112.6V114.264H800.544V103.352C798.816 103.864 796.96 104.376 795.04 104.824L793.312 101.624C798.592 100.664 802.976 99.384 806.496 97.784C805.152 96.696 803.424 95.576 801.344 94.392L804.256 92.6C806.368 93.944 808.096 95.16 809.408 96.248C812.192 94.552 814.272 92.6 815.616 90.424H804.864C802.688 92.408 799.968 94.2 796.64 95.8L794.4 92.888C799.776 90.648 803.424 87.864 805.312 84.6L808.992 85.048C808.608 85.816 808.16 86.552 807.648 87.288H819.424V90.232C817.44 94.2 813.824 97.496 808.64 100.152H820.512V114.264H817.12V112.6H803.904ZM817.12 109.368V103.256H803.904V109.368H817.12ZM825.728 90.616H830.112V84.728H833.44V90.616H837.024V93.848H833.44V95.032C834.848 96.408 836.288 97.944 837.728 99.608L835.776 102.552C834.88 100.952 834.112 99.576 833.44 98.456V114.2H830.112V99.704C829.12 102.328 827.904 104.76 826.464 107L825.024 103.352C827.264 100.6 828.896 97.432 829.952 93.848H825.728V90.616ZM835.04 112.152C836.32 110.232 837.248 108.184 837.76 106.072C838.176 104.248 838.4 101.528 838.4 97.912V85.72H849.664V110.008C849.664 110.296 849.76 110.456 849.984 110.456H850.944C851.2 110.456 851.392 110.392 851.52 110.264C851.648 110.136 851.712 109.944 851.776 109.72C851.904 109.272 851.968 107.32 851.968 103.928L855.04 104.888C855.04 107.32 854.944 109.176 854.816 110.392C854.688 111.608 854.368 112.44 853.856 112.952C853.344 113.368 852.512 113.592 851.392 113.592H849.952C847.488 113.592 846.272 112.504 846.272 110.392V88.856H841.728V97.912C841.728 101.528 841.44 104.6 840.864 107.16C840.32 109.72 839.296 112.216 837.792 114.584L835.04 112.152ZM861.408 91.576C860.896 92.728 860.288 93.656 859.616 94.424L856.896 92.504C858.368 90.872 859.328 88.6 859.744 85.688L862.88 86.2C862.752 87.032 862.592 87.8 862.4 88.504H864.96V84.792H868.288V88.504H873.888V91.576H868.288V94.712H874.816V97.816H868.288V100.248H874.432V108.824C874.432 111 873.28 112.12 871.008 112.12H869.472L868.64 109.016L869.984 109.176C870.816 109.176 871.264 108.824 871.264 108.12V103.32H868.288V114.328H864.96V103.32H862.016V112.344H858.784V100.248H864.96V97.816H857.6V94.712H864.96V91.576H861.408ZM876.192 87.704H879.424V107.224H876.192V87.704ZM882.464 114.04H877.696L876.96 110.872C878.496 111 879.936 111.064 881.312 111.064C882.08 111.064 882.464 110.648 882.464 109.816V84.824H885.792V110.68C885.792 112.92 884.672 114.04 882.464 114.04Z" fill="#1F32D6"/>
<circle cx="380" cy="378" r="180" fill="white"/>
<mask id="mask0_3816_3912" style="mask-type:alpha" maskUnits="userSpaceOnUse" x="345" y="239" width="174" height="175">
<path fill-rule="evenodd" clip-rule="evenodd" d="M516.428 340.833C519.552 337.708 519.552 332.643 516.428 329.519L429.021 242.112C425.896 238.988 420.831 238.988 417.707 242.112L347.788 312.031C344.663 315.155 344.663 320.221 347.788 323.345L386.192 361.749C386.939 362.496 387.081 363.656 386.538 364.561V364.561C386.17 365.175 385.531 365.562 384.839 365.744C383.439 366.111 382.085 366.865 380.953 367.997C377.837 371.112 377.585 375.911 380.388 378.715C383.192 381.519 387.991 381.266 391.107 378.151C392.583 376.675 393.416 374.821 393.586 372.981C393.638 372.424 393.913 371.899 394.393 371.611V371.611C395.003 371.245 395.784 371.341 396.287 371.845L435.195 410.752C438.319 413.876 443.384 413.876 446.508 410.752L516.428 340.833Z" fill="white"/>
</mask>
<g mask="url(#mask0_3816_3912)">
<path d="M331.134 447.13C336.194 447.129 341.261 447.128 346.322 447.126C347.789 447.126 348.523 446.367 348.523 444.85C348.525 437.304 348.547 429.757 348.508 422.211C348.502 421.008 348.753 420.547 350.078 420.56C357.862 420.619 365.653 420.563 373.437 420.615C374.646 420.622 374.979 420.269 374.973 419.087C374.934 411.397 374.99 403.708 374.924 396.012C374.911 394.613 375.21 394.131 376.718 394.151C384.454 394.23 392.191 394.167 399.935 394.199C400.926 394.199 401.619 393.914 402.312 393.207C405.791 389.661 409.351 386.189 412.83 382.642C413.523 381.936 414.114 381.786 415.071 382.058C432.541 387.066 448.809 384.44 463.443 373.671C476.29 364.206 483.643 351.298 485.216 335.369C486.911 318.292 481.691 303.404 469.597 291.289C457.38 279.038 442.356 273.859 425.116 275.595C411.042 277.012 399.248 283.189 389.974 293.801C378.987 306.37 374.718 321.118 376.942 337.677C377.301 340.36 378 343.009 378.713 345.631C379.005 346.704 378.848 347.343 378.06 348.124C365.586 360.51 353.139 372.93 340.699 385.349C332.043 393.992 323.387 402.634 314.779 411.317C314.215 411.881 313.78 412.859 313.78 413.647C313.71 424.25 313.755 434.853 313.705 445.463C313.704 446.754 314.023 447.188 315.375 447.168C320.626 447.092 325.883 447.131 331.141 447.13L331.134 447.13ZM423.971 318.165C424.015 307.955 432.208 299.755 442.377 299.732C452.294 299.709 460.647 308.035 460.678 317.986C460.71 328.324 452.435 336.464 441.886 336.466C432.227 336.469 423.928 327.987 423.971 318.171L423.971 318.165Z" fill="#1F32D6"/>
</g>
<mask id="mask1_3816_3912" style="mask-type:alpha" maskUnits="userSpaceOnUse" x="241" y="343" width="174" height="174">
<path fill-rule="evenodd" clip-rule="evenodd" d="M363.378 384.27C364.147 385.039 364.294 386.232 363.734 387.165V387.165C363.368 387.775 362.741 388.169 362.057 388.368C360.734 388.754 359.46 389.487 358.387 390.561C355.271 393.677 355.019 398.475 357.822 401.279C360.626 404.083 365.425 403.831 368.541 400.715C369.965 399.291 370.791 397.516 371 395.74C371.065 395.191 371.343 394.679 371.816 394.395V394.395C372.435 394.023 373.228 394.12 373.739 394.631L412.527 433.419C415.651 436.544 415.651 441.609 412.527 444.733L342.608 514.652C339.484 517.777 334.418 517.777 331.294 514.652L243.887 427.245C240.763 424.121 240.763 419.056 243.887 415.932L313.807 346.012C316.931 342.888 321.996 342.888 325.12 346.012L363.378 384.27Z" fill="#BCC1F3"/>
</mask>
<g mask="url(#mask1_3816_3912)">
<path d="M308.467 469.796C313.527 469.795 318.595 469.794 323.655 469.792C325.122 469.792 325.856 469.033 325.856 467.516C325.858 459.97 325.88 452.423 325.841 444.877C325.835 443.674 326.086 443.213 327.411 443.226C335.195 443.285 342.986 443.229 350.77 443.281C351.979 443.288 352.312 442.935 352.306 441.753C352.267 434.063 352.323 426.374 352.257 418.678C352.244 417.279 352.543 416.797 354.051 416.817C361.787 416.896 369.524 416.833 377.268 416.866C378.259 416.865 378.952 416.58 379.645 415.873C383.124 412.327 386.684 408.855 390.163 405.308C390.856 404.602 391.447 404.452 392.404 404.724C409.874 409.732 426.142 407.106 440.776 396.337C453.623 386.872 460.976 373.964 462.549 358.035C464.244 340.958 459.024 326.07 446.93 313.955C434.713 301.704 419.689 296.525 402.449 298.262C388.375 299.678 376.581 305.855 367.307 316.467C356.32 329.036 352.051 343.784 354.275 360.343C354.634 363.026 355.333 365.675 356.046 368.297C356.338 369.37 356.181 370.009 355.393 370.79C342.919 383.176 330.472 395.596 318.032 408.015C309.376 416.658 300.72 425.3 292.112 433.983C291.548 434.547 291.113 435.525 291.113 436.313C291.043 446.916 291.088 457.519 291.038 468.129C291.037 469.42 291.356 469.854 292.708 469.834C297.959 469.758 303.216 469.797 308.474 469.796L308.467 469.796ZM401.304 340.831C401.348 330.621 409.541 322.421 419.71 322.398C429.627 322.375 437.98 330.701 438.011 340.652C438.043 350.99 429.768 359.13 419.219 359.132C409.56 359.135 401.261 350.653 401.304 340.837L401.304 340.831Z" fill="#BCC1F3"/>
</g>
<path d="M1103.17 457.82H1111.11C1110.77 457.1 1110.41 456.42 1110.01 455.82L1112.13 455.46C1112.51 456.16 1112.87 456.94 1113.21 457.82H1120.99V459.64H1103.17V457.82ZM1115.37 459.88C1117.59 461.6 1119.45 463.32 1120.97 465.04L1119.57 466.44C1118.27 464.8 1116.43 463.04 1114.07 461.14L1115.37 459.88ZM1115.21 463.66L1116.97 464.44C1116.05 466.18 1114.95 467.7 1113.63 469.02C1115.71 470.46 1118.25 471.54 1121.25 472.28L1120.07 474.06C1116.95 473.18 1114.31 471.94 1112.15 470.32C1109.95 472.04 1107.29 473.32 1104.17 474.14L1103.01 472.38C1106.01 471.64 1108.55 470.52 1110.61 469.04C1109.25 467.78 1108.11 466.34 1107.21 464.72L1108.85 463.78C1109.67 465.3 1110.75 466.66 1112.09 467.82C1113.37 466.62 1114.41 465.22 1115.21 463.66ZM1108.63 459.9L1110.01 461.12C1108.49 463.12 1106.61 464.84 1104.37 466.32L1103.13 464.72C1105.31 463.36 1107.15 461.74 1108.63 459.9ZM1128.33 463.64H1125.85V456.24H1138.39V463.64H1130.53C1130.23 464.08 1129.89 464.52 1129.53 464.92H1139.89C1139.83 467.12 1139.71 468.88 1139.53 470.24C1139.33 471.56 1139.03 472.5 1138.61 473.02C1138.19 473.54 1137.51 473.82 1136.55 473.86H1133.77L1133.27 472.08C1134.09 472.12 1134.87 472.16 1135.63 472.16C1136.53 472.16 1137.13 471.82 1137.41 471.14C1137.69 470.42 1137.89 468.92 1137.97 466.6H1136.41C1134.69 470.34 1131.97 472.82 1128.25 474.02L1127.17 472.44C1130.51 471.4 1132.95 469.44 1134.47 466.6H1132.31C1130.91 468.76 1128.69 470.46 1125.61 471.7L1124.39 470.22C1127.05 469.26 1129.01 468.06 1130.27 466.6H1127.67C1126.71 467.32 1125.61 467.96 1124.39 468.52L1123.35 466.84C1125.57 465.98 1127.23 464.92 1128.33 463.64ZM1136.53 462.04V460.68H1127.71V462.04H1136.53ZM1127.71 459.18H1136.53V457.86H1127.71V459.18ZM1160.89 461.6V465.64H1159.69V466.6C1159.09 468.08 1158.09 469.38 1156.73 470.5C1158.05 471.22 1159.61 471.84 1161.41 472.34L1160.29 474.06C1158.19 473.42 1156.43 472.62 1155.03 471.68C1153.41 472.64 1151.45 473.42 1149.15 474.02L1148.15 472.22C1150.21 471.76 1151.97 471.16 1153.43 470.44C1152.23 469.34 1151.35 468.1 1150.83 466.7H1149.99V465.64H1148.95V461.6H1156.73C1157.41 460.42 1158.01 459.18 1158.49 457.86L1160.27 458.52C1159.75 459.72 1159.21 460.76 1158.67 461.6H1160.89ZM1152.67 466.7C1153.23 467.72 1154.03 468.64 1155.09 469.44C1156.21 468.64 1157.07 467.74 1157.69 466.7H1152.67ZM1150.77 464.98H1159.05V463.42H1150.77V464.98ZM1154.81 458.14C1155.37 459.1 1155.79 459.96 1156.09 460.74L1154.55 461.32C1154.19 460.4 1153.73 459.48 1153.19 458.58L1154.81 458.14ZM1151.31 458.22C1151.87 459.14 1152.29 460 1152.57 460.76L1151.03 461.34C1150.67 460.42 1150.23 459.54 1149.69 458.66L1151.31 458.22ZM1159.87 455.62L1160.77 457.18C1157.93 457.7 1154.15 457.98 1149.43 457.98L1148.87 456.28C1153.23 456.28 1156.89 456.06 1159.87 455.62ZM1145.27 473.84H1143.57L1143.15 472.02C1143.65 472.1 1144.13 472.14 1144.61 472.14C1144.93 472.14 1145.09 471.98 1145.09 471.68V467.26C1144.49 467.48 1143.91 467.7 1143.31 467.9L1142.85 466.04C1143.61 465.86 1144.35 465.64 1145.09 465.36V460.94H1143.03V459.12H1145.09V455.62H1146.95V459.12H1148.65V460.94H1146.95V464.58C1147.47 464.32 1148.01 464.04 1148.53 463.74V465.66C1148.01 465.94 1147.47 466.2 1146.95 466.46V472.14C1146.95 473.26 1146.39 473.84 1145.27 473.84ZM1168.03 464.12V473.98H1166.15V464.34C1165.47 466.24 1164.63 467.98 1163.59 469.54L1162.75 467.38C1164.27 465.56 1165.37 463.5 1166.07 461.18H1163.17V459.36H1166.15V455.62H1168.03V459.36H1170.51V461.18H1168.03V462.1C1169.01 463 1169.99 464.02 1170.97 465.14L1169.87 466.8C1169.17 465.72 1168.55 464.82 1168.03 464.12ZM1178.21 458.48H1173.43C1173.67 461.24 1174.41 463.76 1175.67 466.02C1176.93 463.82 1177.77 461.3 1178.21 458.48ZM1174.57 467.74C1172.91 464.96 1171.93 461.88 1171.61 458.48H1170.87V456.66H1180.03V458.46C1179.47 462.08 1178.41 465.2 1176.81 467.84C1178.05 469.56 1179.59 471.12 1181.47 472.52L1180.17 474.06C1178.41 472.64 1176.91 471.1 1175.71 469.46C1174.35 471.24 1172.69 472.76 1170.77 474.02L1169.55 472.48C1171.57 471.14 1173.25 469.56 1174.57 467.74ZM1183.15 465H1200.99V466.62H1192.65L1192.11 467.74H1199.77V472.16C1199.77 473.4 1199.11 474.04 1197.83 474.04H1196.41L1195.99 472.42L1197.31 472.5C1197.73 472.5 1197.95 472.24 1197.95 471.76V469.34H1195.23V473.84H1193.41V469.34H1190.93V473.84H1189.13V469.34H1186.61V474.12H1184.81V467.74H1190.21L1190.73 466.62H1183.15V465ZM1184.37 456.18H1199.79V457.72H1192.99V458.64H1200.63V462.96H1198.81V460.1H1192.99V464.34H1191.15V460.1H1185.33V462.96H1183.51V458.64H1191.15V457.72H1184.37V456.18ZM1186.13 460.96H1190.33V462.16H1186.13V460.96ZM1186.13 462.92H1190.33V464.14H1186.13V462.92ZM1193.79 460.96H1197.97V462.16H1193.79V460.96ZM1193.81 462.92H1198.03V464.14H1193.81V462.92ZM1203.17 456.28H1220.97V457.98H1215.23V459.44H1219.77V464.74H1211.57C1211.27 465.24 1211.01 465.7 1210.77 466.14H1221.21V467.9H1217.03C1216.63 468.94 1215.99 469.84 1215.09 470.64C1216.99 471.22 1218.95 471.9 1220.95 472.66L1219.77 474.22C1217.65 473.32 1215.51 472.52 1213.37 471.82C1211.49 472.78 1208.41 473.56 1204.13 474.14L1203.41 472.46C1206.61 472.1 1209.11 471.64 1210.87 471.04C1209.33 470.58 1207.79 470.18 1206.25 469.82C1206.69 469.18 1207.13 468.54 1207.53 467.9H1202.91V466.14H1208.61C1208.89 465.66 1209.17 465.2 1209.43 464.74H1204.37V459.44H1208.91V457.98H1203.17V456.28ZM1213.03 470.04C1213.97 469.44 1214.65 468.74 1215.05 467.9H1209.71L1208.93 469.06C1210.27 469.34 1211.63 469.66 1213.03 470.04ZM1213.41 459.44V457.98H1210.73V459.44H1213.41ZM1217.95 463.12V461.06H1215.23V463.12H1217.95ZM1213.41 463.12V461.06H1210.73V463.12H1213.41ZM1208.91 463.12V461.06H1206.19V463.12H1208.91ZM1230.13 457.72H1232.71L1237.69 469.16H1237.75L1242.71 457.72H1245.29V472H1243.11V461.8H1243.03L1238.65 472H1236.77L1232.39 461.8H1232.31V472H1230.13V457.72ZM1254.28 455.6H1256.12L1249.14 474H1247.28L1254.28 455.6ZM1258.1 457.72H1260.3L1267.6 468.34H1267.68V457.72H1269.86V472H1267.74L1260.36 461.26H1260.28V472H1258.1V457.72ZM1286.97 461.56H1288.89V474.04H1286.97V461.56ZM1287.09 455.6H1288.77C1290.43 458.28 1293.27 460.66 1297.29 462.7L1296.15 464.44C1292.47 462.54 1289.73 460.18 1287.93 457.38C1285.77 460.44 1283.03 462.8 1279.71 464.46L1278.57 462.74C1282.25 460.9 1285.09 458.52 1287.09 455.6ZM1314.21 463.7C1315.29 466.58 1316.23 469.86 1317.07 473.58L1315.19 474.06C1315.03 473.34 1314.89 472.64 1314.73 471.96C1312.13 472.46 1309.31 472.92 1306.29 473.36L1305.93 471.54C1306.45 471.4 1306.75 471.18 1306.83 470.9L1310.93 456.14L1312.83 456.4L1308.69 471.12C1310.85 470.8 1312.71 470.5 1314.29 470.18C1313.77 468.14 1313.19 466.18 1312.53 464.28L1314.21 463.7ZM1299.19 460.84H1302.59V458.36C1301.65 458.48 1300.67 458.6 1299.67 458.68L1299.27 456.86C1302.15 456.66 1304.71 456.26 1306.95 455.66L1307.61 457.42C1306.63 457.66 1305.59 457.88 1304.49 458.08V460.84H1307.57V462.66H1304.49V463.3C1305.45 464.2 1306.43 465.2 1307.41 466.32L1306.33 467.92C1305.61 466.76 1305.01 465.8 1304.49 465.08V474H1302.59V465.56C1301.81 467.26 1300.83 468.82 1299.63 470.24L1298.77 468.08C1300.45 466.48 1301.69 464.68 1302.45 462.66H1299.19V460.84ZM1321.33 455.64L1323.17 456.02C1323.01 456.6 1322.85 457.16 1322.67 457.72H1326.75V459.5H1322.03C1321.69 460.3 1321.33 461.06 1320.93 461.76H1326.51V463.46H1324.11V465.5H1327.03V467.26H1324.11V471.42C1324.87 471.12 1325.65 470.74 1326.41 470.26L1326.69 471.78C1327.61 469.9 1328.07 467.66 1328.11 465.08V456.28H1336.47V471.98C1336.47 473.2 1335.85 473.82 1334.63 473.82H1332.37L1331.85 471.96C1332.63 472.02 1333.35 472.06 1334.03 472.06C1334.39 472.06 1334.59 471.8 1334.59 471.3V467.78H1329.77C1329.45 470.3 1328.73 472.44 1327.59 474.2L1326.11 472.82C1326.29 472.54 1326.45 472.26 1326.59 471.98C1325.35 472.64 1323.91 473.18 1322.27 473.62L1321.49 471.98C1322.01 471.82 1322.27 471.56 1322.27 471.22V467.26H1319.29V465.5H1322.27V463.46H1320.87V461.86C1320.61 462.3 1320.35 462.72 1320.11 463.12L1318.55 462.14C1319.85 460.14 1320.77 457.96 1321.33 455.64ZM1329.95 462.88V464.94C1329.95 465.3 1329.93 465.64 1329.91 465.98H1334.59V462.88H1329.95ZM1334.59 461.08V458.12H1329.95V461.08H1334.59ZM1344.93 455.98L1346.57 456.98C1345.65 458.62 1344.71 459.98 1343.77 461.02C1342.81 462.1 1341.49 463.24 1339.77 464.44L1338.73 462.78C1340.01 462.06 1341.21 461.08 1342.33 459.82C1343.25 458.76 1344.11 457.48 1344.93 455.98ZM1345.51 465.22H1341.77V463.4H1353.87C1353.79 465.96 1353.67 468.02 1353.47 469.62C1353.27 471.18 1352.95 472.28 1352.49 472.9C1352.03 473.5 1351.29 473.84 1350.27 473.9H1346.49L1345.97 472.02C1347.15 472.06 1348.27 472.1 1349.31 472.1C1350.31 472.1 1350.99 471.68 1351.31 470.84C1351.63 469.96 1351.85 468.08 1351.95 465.22H1347.43C1346.95 467.3 1346.31 468.96 1345.51 470.2C1344.47 471.64 1342.93 472.96 1340.89 474.12L1339.67 472.54C1341.47 471.58 1342.85 470.5 1343.77 469.32C1344.51 468.26 1345.09 466.9 1345.51 465.22ZM1351.01 455.72C1352.11 458.72 1354.13 461.1 1357.09 462.86L1355.81 464.36C1352.73 462.36 1350.57 459.8 1349.35 456.66L1351.01 455.72ZM1364.35 462.5V463.56C1364.35 464.24 1364.31 464.86 1364.27 465.46H1373.49V474.1H1371.59V467.28H1364.05C1363.55 470.2 1362.49 472.46 1360.85 474.06L1359.39 472.78C1361.39 470.86 1362.41 467.78 1362.45 463.56V456.18H1364.35V460.68H1369.77V455.6H1371.63V460.68H1375.85V462.5H1364.35ZM1199.3 480.64H1205.96V482.46H1202.48C1202.38 483.3 1202.26 484.12 1202.12 484.88H1205.66V486.52C1205.02 492.04 1203 495.88 1199.64 498.04L1198.7 496.36C1200.22 495.36 1201.42 493.96 1202.3 492.16C1201.58 491.46 1200.88 490.86 1200.16 490.38C1199.78 491.02 1199.38 491.62 1198.94 492.18L1197.98 490.32C1199.44 488.4 1200.34 485.78 1200.68 482.46H1199.3V480.64ZM1200.92 488.84C1201.68 489.3 1202.38 489.82 1203.04 490.38C1203.42 489.24 1203.72 487.98 1203.92 486.62H1201.7C1201.46 487.4 1201.2 488.14 1200.92 488.84ZM1209.56 497.92H1207.36L1206.92 496.1C1207.6 496.18 1208.26 496.22 1208.9 496.22C1209.4 496.22 1209.66 495.96 1209.66 495.48V479.66H1211.56V495.94C1211.56 497.26 1210.88 497.92 1209.56 497.92ZM1195.54 487.82C1195.12 488.42 1194.68 488.98 1194.24 489.54L1193.62 487.52C1195.28 485.22 1196.5 482.52 1197.3 479.44L1199.1 480.28C1198.66 481.82 1198.1 483.28 1197.42 484.64V498.1H1195.54V487.82ZM1206.6 481.46H1208.34V493.82H1206.6V481.46ZM1231.12 481.24V497.18H1229.28V495.96H1225.78V497.18H1223.92V481.24H1231.12ZM1225.78 494.12H1229.28V483.08H1225.78V494.12ZM1217.2 479.5L1219.12 479.66C1218.92 480.86 1218.7 482 1218.5 483.04H1222.6V484.12C1222.44 487.36 1221.72 490.16 1220.42 492.52C1221.54 493.34 1222.46 494.08 1223.18 494.74L1221.86 496.3C1221.18 495.62 1220.36 494.9 1219.4 494.14C1218.32 495.62 1216.98 496.9 1215.4 497.98L1214.14 496.4C1215.66 495.44 1216.94 494.3 1217.94 492.98C1216.94 492.18 1215.82 491.36 1214.58 490.48C1215.18 488.76 1215.7 486.9 1216.18 484.9H1214.04V483.04H1216.58C1216.8 481.88 1217 480.7 1217.2 479.5ZM1218.94 491.44C1219.98 489.54 1220.62 487.36 1220.82 484.9H1218.12C1217.68 486.9 1217.2 488.56 1216.7 489.9C1217.5 490.44 1218.26 490.96 1218.94 491.44ZM1245.9 481.44C1247.26 481.44 1248.4 481.82 1249.28 482.62C1250.14 483.42 1250.58 484.44 1250.58 485.7C1250.58 486.94 1250.1 488.06 1249.18 489.08C1248.62 489.66 1247.64 490.42 1246.22 491.38C1244.68 492.4 1243.76 493.3 1243.46 494.08H1250.6V496H1240.76C1240.76 494.58 1241.22 493.34 1242.18 492.26C1242.7 491.64 1243.78 490.78 1245.4 489.66C1246.36 488.98 1247.04 488.44 1247.44 488.02C1248.08 487.3 1248.42 486.52 1248.42 485.68C1248.42 484.88 1248.2 484.28 1247.76 483.88C1247.32 483.48 1246.66 483.28 1245.82 483.28C1244.92 483.28 1244.24 483.58 1243.78 484.2C1243.3 484.8 1243.06 485.66 1243.02 486.82H1240.84C1240.86 485.22 1241.32 483.94 1242.22 482.98C1243.14 481.94 1244.38 481.44 1245.9 481.44ZM1265.91 479.6H1267.75L1260.77 498H1258.91L1265.91 479.6ZM1281.21 481.44C1282.57 481.44 1283.71 481.82 1284.59 482.62C1285.45 483.42 1285.89 484.44 1285.89 485.7C1285.89 486.94 1285.41 488.06 1284.49 489.08C1283.93 489.66 1282.95 490.42 1281.53 491.38C1279.99 492.4 1279.07 493.3 1278.77 494.08H1285.91V496H1276.07C1276.07 494.58 1276.53 493.34 1277.49 492.26C1278.01 491.64 1279.09 490.78 1280.71 489.66C1281.67 488.98 1282.35 488.44 1282.75 488.02C1283.39 487.3 1283.73 486.52 1283.73 485.68C1283.73 484.88 1283.51 484.28 1283.07 483.88C1282.63 483.48 1281.97 483.28 1281.13 483.28C1280.23 483.28 1279.55 483.58 1279.09 484.2C1278.61 484.8 1278.37 485.66 1278.33 486.82H1276.15C1276.17 485.22 1276.63 483.94 1277.53 482.98C1278.45 481.94 1279.69 481.44 1281.21 481.44Z" fill="black"/>
<circle cx="1240" cy="321" r="100" fill="#1F32D6"/>
<path d="M1230.55 262.395L1200.56 273.677C1193.65 276.257 1188 284.418 1188 291.739V336.324C1188 343.405 1192.69 352.706 1198.4 356.967L1224.24 376.229C1232.71 382.59 1246.65 382.59 1255.13 376.229L1280.97 356.967C1286.68 352.706 1291.37 343.405 1291.37 336.324V291.739C1291.37 284.358 1285.72 276.197 1278.81 273.617L1248.82 262.395C1243.71 260.535 1235.54 260.535 1230.55 262.395Z" fill="white"/>
<path d="M1224.07 340.992C1225.25 340.992 1226.43 340.992 1227.61 340.992C1227.95 340.992 1228.12 340.815 1228.12 340.462C1228.12 338.706 1228.13 336.95 1228.12 335.193C1228.11 334.914 1228.17 334.806 1228.48 334.809C1230.29 334.823 1232.11 334.811 1233.92 334.823C1234.2 334.825 1234.28 334.743 1234.28 334.468C1234.27 332.678 1234.28 330.889 1234.26 329.098C1234.26 328.772 1234.33 328.66 1234.68 328.665C1236.48 328.683 1238.28 328.669 1240.08 328.677C1240.31 328.677 1240.48 328.611 1240.64 328.446C1241.45 327.621 1242.27 326.813 1243.08 325.988C1243.25 325.824 1243.38 325.789 1243.61 325.852C1247.67 327.019 1251.46 326.409 1254.86 323.903C1257.85 321.701 1259.56 318.697 1259.93 314.99C1260.32 311.016 1259.11 307.551 1256.29 304.731C1253.45 301.879 1249.95 300.673 1245.94 301.076C1242.66 301.404 1239.92 302.841 1237.76 305.311C1235.2 308.235 1234.21 311.667 1234.73 315.521C1234.81 316.146 1234.98 316.762 1235.14 317.373C1235.21 317.622 1235.17 317.771 1234.99 317.953C1232.09 320.835 1229.19 323.724 1226.3 326.614C1224.28 328.625 1222.27 330.636 1220.27 332.656C1220.13 332.787 1220.03 333.015 1220.03 333.198C1220.02 335.666 1220.03 338.134 1220.02 340.603C1220.02 340.903 1220.09 341.005 1220.41 341C1221.63 340.982 1222.85 340.992 1224.08 340.992H1224.07ZM1245.67 310.983C1245.68 308.607 1247.59 306.699 1249.96 306.694C1252.26 306.689 1254.21 308.627 1254.22 310.943C1254.22 313.349 1252.3 315.243 1249.84 315.243C1247.6 315.243 1245.66 313.269 1245.67 310.984V310.983Z" fill="#1F32D6"/>
<path d="M520 329H1112" stroke="#1F32D6" stroke-width="2" stroke-dasharray="8 8"/>
<circle cx="519" cy="329" r="6" transform="rotate(90 519 329)" fill="white" stroke="#1F32D6" stroke-width="4"/>
<circle cx="1112" cy="329" r="6" transform="rotate(90 1112 329)" fill="white" stroke="#1F32D6" stroke-width="4"/>
<path d="M388 449L715 449C719.418 449 723 445.418 723 441L723 329" stroke="#1F32D6" stroke-width="2" stroke-dasharray="8 8"/>
<circle cx="386" cy="449" r="6" transform="rotate(90 386 449)" fill="white" stroke="#1F32D6" stroke-width="4"/>
<path d="M270.94 600.72H289.04V602.6H270.94V600.72ZM301.92 595.36H299.4V600.56H301.92V595.36ZM303.68 600.56H306.28V595.36H303.68V600.56ZM296.72 600.48V602.38C296.2 602.66 295.68 602.92 295.16 603.16V609.08C295.16 610.34 294.54 610.98 293.32 610.98H291.58L291.16 609.12C291.68 609.2 292.18 609.24 292.66 609.24C293.06 609.24 293.28 609.02 293.28 608.62V603.98C292.62 604.22 291.96 604.46 291.28 604.68L290.82 602.88C291.66 602.68 292.48 602.42 293.28 602.12V597.94H291.1V596.12H293.28V592.66H295.16V596.12H296.78V597.94H295.16V601.3C295.68 601.04 296.2 600.76 296.72 600.48ZM308.08 593.54V602.32H299.4V608.1C299.4 608.54 299.68 608.78 300.26 608.78H305.92C306.48 608.74 306.86 608.54 307.06 608.18C307.18 607.86 307.34 607 307.5 605.58L309.28 606.14C309.12 607.5 308.94 608.48 308.72 609.08C308.4 610.04 307.68 610.52 306.54 610.56H299.48C298.16 610.56 297.52 609.98 297.52 608.82V593.54H308.08ZM326.28 600.7C327.36 603.58 328.3 606.86 329.14 610.58L327.26 611.06C327.1 610.34 326.96 609.64 326.8 608.96C324.2 609.46 321.38 609.92 318.36 610.36L318 608.54C318.52 608.4 318.82 608.18 318.9 607.9L323 593.14L324.9 593.4L320.76 608.12C322.92 607.8 324.78 607.5 326.36 607.18C325.84 605.14 325.26 603.18 324.6 601.28L326.28 600.7ZM311.26 597.84H314.66V595.36C313.72 595.48 312.74 595.6 311.74 595.68L311.34 593.86C314.22 593.66 316.78 593.26 319.02 592.66L319.68 594.42C318.7 594.66 317.66 594.88 316.56 595.08V597.84H319.64V599.66H316.56V600.3C317.52 601.2 318.5 602.2 319.48 603.32L318.4 604.92C317.68 603.76 317.08 602.8 316.56 602.08V611H314.66V602.56C313.88 604.26 312.9 605.82 311.7 607.24L310.84 605.08C312.52 603.48 313.76 601.68 314.52 599.66H311.26V597.84ZM333.4 592.64L335.24 593.02C335.08 593.6 334.92 594.16 334.74 594.72H338.82V596.5H334.1C333.76 597.3 333.4 598.06 333 598.76H338.58V600.46H336.18V602.5H339.1V604.26H336.18V608.42C336.94 608.12 337.72 607.74 338.48 607.26L338.76 608.78C339.68 606.9 340.14 604.66 340.18 602.08V593.28H348.54V608.98C348.54 610.2 347.92 610.82 346.7 610.82H344.44L343.92 608.96C344.7 609.02 345.42 609.06 346.1 609.06C346.46 609.06 346.66 608.8 346.66 608.3V604.78H341.84C341.52 607.3 340.8 609.44 339.66 611.2L338.18 609.82C338.36 609.54 338.52 609.26 338.66 608.98C337.42 609.64 335.98 610.18 334.34 610.62L333.56 608.98C334.08 608.82 334.34 608.56 334.34 608.22V604.26H331.36V602.5H334.34V600.46H332.94V598.86C332.68 599.3 332.42 599.72 332.18 600.12L330.62 599.14C331.92 597.14 332.84 594.96 333.4 592.64ZM342.02 599.88V601.94C342.02 602.3 342 602.64 341.98 602.98H346.66V599.88H342.02ZM346.66 598.08V595.12H342.02V598.08H346.66ZM353.84 606.14C354.36 606.14 354.78 606.34 355.14 606.76C355.46 607.2 355.64 607.74 355.64 608.42C355.64 609.44 355.34 610.32 354.74 611.08C354.14 611.84 353.34 612.36 352.34 612.64V611.4C352.88 611.2 353.34 610.9 353.7 610.46C354.02 610 354.2 609.54 354.2 609.06C354.08 609.1 353.92 609.12 353.72 609.12C353.3 609.12 352.96 608.98 352.68 608.7C352.4 608.42 352.26 608.06 352.26 607.64C352.26 607.18 352.4 606.82 352.7 606.54C352.98 606.26 353.36 606.14 353.84 606.14ZM379.72 592.5L381.42 593.38C381.14 593.68 380.88 593.96 380.62 594.22H385.96V595.7C383.8 599.54 379.8 601.72 373.94 602.2L373.14 600.48C374.82 600.38 376.32 600.16 377.64 599.8C377.08 599.12 376.48 598.5 375.88 597.94L377.52 597.16C378.18 597.8 378.82 598.48 379.42 599.2C381.26 598.42 382.72 597.32 383.78 595.9H378.4C376.84 596.82 375.02 597.5 372.92 597.96L371.8 596.22C375.34 595.58 377.98 594.34 379.72 592.5ZM379.4 605C380.12 605.72 380.8 606.48 381.44 607.3C383.4 606.42 384.98 605.24 386.14 603.74H380.66C378.92 604.54 376.88 605.18 374.54 605.64L373.4 603.94C377.76 603.52 380.98 602.24 383.02 600.08L384.64 600.96C384.28 601.34 383.88 601.7 383.48 602.02H388.58V603.5C385.72 608.18 380.4 610.62 372.6 610.82L371.84 609C374.86 609 377.46 608.66 379.64 607.98C379.02 607.18 378.38 606.44 377.72 605.8L379.4 605ZM399.04 598.56H400.96V611.04H399.04V598.56ZM399.16 592.6H400.84C402.5 595.28 405.34 597.66 409.36 599.7L408.22 601.44C404.54 599.54 401.8 597.18 400 594.38C397.84 597.44 395.1 599.8 391.78 601.46L390.64 599.74C394.32 597.9 397.16 595.52 399.16 592.6ZM426.28 600.7C427.36 603.58 428.3 606.86 429.14 610.58L427.26 611.06C427.1 610.34 426.96 609.64 426.8 608.96C424.2 609.46 421.38 609.92 418.36 610.36L418 608.54C418.52 608.4 418.82 608.18 418.9 607.9L423 593.14L424.9 593.4L420.76 608.12C422.92 607.8 424.78 607.5 426.36 607.18C425.84 605.14 425.26 603.18 424.6 601.28L426.28 600.7ZM411.26 597.84H414.66V595.36C413.72 595.48 412.74 595.6 411.74 595.68L411.34 593.86C414.22 593.66 416.78 593.26 419.02 592.66L419.68 594.42C418.7 594.66 417.66 594.88 416.56 595.08V597.84H419.64V599.66H416.56V600.3C417.52 601.2 418.5 602.2 419.48 603.32L418.4 604.92C417.68 603.76 417.08 602.8 416.56 602.08V611H414.66V602.56C413.88 604.26 412.9 605.82 411.7 607.24L410.84 605.08C412.52 603.48 413.76 601.68 414.52 599.66H411.26V597.84ZM433.4 592.64L435.24 593.02C435.08 593.6 434.92 594.16 434.74 594.72H438.82V596.5H434.1C433.76 597.3 433.4 598.06 433 598.76H438.58V600.46H436.18V602.5H439.1V604.26H436.18V608.42C436.94 608.12 437.72 607.74 438.48 607.26L438.76 608.78C439.68 606.9 440.14 604.66 440.18 602.08V593.28H448.54V608.98C448.54 610.2 447.92 610.82 446.7 610.82H444.44L443.92 608.96C444.7 609.02 445.42 609.06 446.1 609.06C446.46 609.06 446.66 608.8 446.66 608.3V604.78H441.84C441.52 607.3 440.8 609.44 439.66 611.2L438.18 609.82C438.36 609.54 438.52 609.26 438.66 608.98C437.42 609.64 435.98 610.18 434.34 610.62L433.56 608.98C434.08 608.82 434.34 608.56 434.34 608.22V604.26H431.36V602.5H434.34V600.46H432.94V598.86C432.68 599.3 432.42 599.72 432.18 600.12L430.62 599.14C431.92 597.14 432.84 594.96 433.4 592.64ZM442.02 599.88V601.94C442.02 602.3 442 602.64 441.98 602.98H446.66V599.88H442.02ZM446.66 598.08V595.12H442.02V598.08H446.66ZM457 592.98L458.64 593.98C457.72 595.62 456.78 596.98 455.84 598.02C454.88 599.1 453.56 600.24 451.84 601.44L450.8 599.78C452.08 599.06 453.28 598.08 454.4 596.82C455.32 595.76 456.18 594.48 457 592.98ZM457.58 602.22H453.84V600.4H465.94C465.86 602.96 465.74 605.02 465.54 606.62C465.34 608.18 465.02 609.28 464.56 609.9C464.1 610.5 463.36 610.84 462.34 610.9H458.56L458.04 609.02C459.22 609.06 460.34 609.1 461.38 609.1C462.38 609.1 463.06 608.68 463.38 607.84C463.7 606.96 463.92 605.08 464.02 602.22H459.5C459.02 604.3 458.38 605.96 457.58 607.2C456.54 608.64 455 609.96 452.96 611.12L451.74 609.54C453.54 608.58 454.92 607.5 455.84 606.32C456.58 605.26 457.16 603.9 457.58 602.22ZM463.08 592.72C464.18 595.72 466.2 598.1 469.16 599.86L467.88 601.36C464.8 599.36 462.64 596.8 461.42 593.66L463.08 592.72ZM476.42 599.5V600.56C476.42 601.24 476.38 601.86 476.34 602.46H485.56V611.1H483.66V604.28H476.12C475.62 607.2 474.56 609.46 472.92 611.06L471.46 609.78C473.46 607.86 474.48 604.78 474.52 600.56V593.18H476.42V597.68H481.84V592.6H483.7V597.68H487.92V599.5H476.42Z" fill="black"/>
<path d="M852.88 350.6H856.92C856.36 349.74 855.78 348.96 855.16 348.28L856.74 347.52C857.42 348.26 858.06 349.08 858.66 350L857.46 350.6H861.5C862.14 349.6 862.68 348.54 863.14 347.42L864.98 348.08C864.54 349 864.04 349.84 863.48 350.6H867.12V359.18H860.94V360.76H868.94V362.56H860.94V366.14H859.06V362.56H851.06V360.76H859.06V359.18H852.88V350.6ZM865.28 357.5V355.66H860.94V357.5H865.28ZM859.06 357.5V355.66H854.72V357.5H859.06ZM854.72 354.06H859.06V352.26H854.72V354.06ZM860.94 352.26V354.06H865.28V352.26H860.94ZM870.94 355.72H889.04V357.6H870.94V355.72ZM897.94 361.8V363.58C895.98 364.34 893.76 364.94 891.26 365.4L891.02 363.54C893.66 363.1 895.98 362.52 897.94 361.8ZM894.1 347.48L895.92 348.2C894.96 350.62 894 352.58 893.04 354.08C893.74 354 894.44 353.92 895.16 353.82C895.52 353.14 895.88 352.4 896.26 351.64L897.96 352.28C896.34 355.4 894.98 357.68 893.86 359.12C895.14 358.84 896.42 358.48 897.74 358.04V359.74C895.58 360.46 893.54 360.96 891.62 361.2L891.1 359.48C891.44 359.34 891.72 359.16 891.96 358.94C892.56 358.28 893.32 357.14 894.24 355.52C893.28 355.64 892.3 355.78 891.28 355.92L890.82 354.2C891.1 354.08 891.36 353.84 891.6 353.5C892.56 351.7 893.38 349.68 894.1 347.48ZM907.68 350.98L907.94 352.74L902.94 353.44C902.98 354.24 903.02 354.98 903.1 355.7L908.22 354.9L908.5 356.7L903.32 357.52L903.4 358.1C903.56 359.04 903.78 359.88 904.04 360.62C904.96 359.74 905.8 358.74 906.54 357.62L908.04 358.64C907.04 360.08 905.98 361.34 904.82 362.38C905.42 363.3 905.96 363.78 906.44 363.78C906.9 363.78 907.28 362.82 907.6 360.92L909.22 362C908.62 364.56 907.78 365.86 906.66 365.86C905.66 365.84 904.7 365.22 903.8 364.02C903.66 363.84 903.54 363.66 903.44 363.5C902 364.54 900.48 365.3 898.88 365.78L897.78 364.26C899.58 363.7 901.18 362.9 902.58 361.86C902.22 361.02 901.94 360.1 901.7 359.1C901.6 358.68 901.52 358.24 901.44 357.8L898.02 358.34L897.76 356.54L901.2 356C901.12 355.26 901.08 354.5 901.04 353.7L898.38 354.08L898.1 352.32L901 351.9V347.6H902.9V351.64L907.68 350.98ZM905.14 347.52C906.1 348.44 906.86 349.22 907.38 349.88L905.9 350.92C905.36 350.16 904.62 349.34 903.7 348.44L905.14 347.52ZM918.08 347.6H920.04V353.62H927.44V355.46H920.04V363.5H928.98V365.34H911.06V363.5H918.08V347.6ZM944.42 359.1L946.3 359.6C945.82 361.12 945.24 362.5 944.56 363.72H948.52V365.48H931.52V363.72H942.52C943.24 362.42 943.86 360.88 944.42 359.1ZM935.34 359.28C935.9 360.34 936.4 361.56 936.86 362.94L935.14 363.38C934.74 362.14 934.24 360.96 933.6 359.84L935.34 359.28ZM939.96 358.88C940.42 360 940.82 361.3 941.18 362.76L939.48 363.18C939.14 361.88 938.72 360.64 938.2 359.44L939.96 358.88ZM934.76 357.12C933.8 357.52 932.8 357.92 931.76 358.3L930.84 356.64C934.28 355.52 937.12 354.14 939.4 352.5H940.6C943.08 354.26 945.92 355.66 949.16 356.68L948.24 358.32C947.18 357.96 946.18 357.56 945.26 357.14V358.54H934.76V357.12ZM944.7 356.88C942.94 356.04 941.36 355.1 940 354.04C938.68 355.08 937.1 356.02 935.28 356.88H944.7ZM934.24 350.86C933.74 351.82 933.18 352.72 932.56 353.52L930.92 352.48C932.16 350.94 933.02 349.3 933.54 347.54L935.38 347.94C935.24 348.38 935.1 348.78 934.96 349.18H939.94V350.86H937.44C937.72 351.46 937.94 352.02 938.12 352.54L936.4 353.16C936.16 352.36 935.88 351.6 935.56 350.86H934.24ZM942.62 350.86C942.3 351.5 941.94 352.12 941.54 352.68L939.94 351.66C940.86 350.38 941.54 349.02 941.94 347.54L943.74 347.94C943.62 348.38 943.48 348.78 943.34 349.18H948.96V350.86H946.14C946.52 351.52 946.82 352.14 947.06 352.7L945.32 353.36C945 352.48 944.62 351.66 944.2 350.86H942.62ZM957.34 364.94V366H955.44V359.14C954.32 359.48 953.12 359.8 951.86 360.1L950.86 358.26C954.2 357.62 956.98 356.8 959.22 355.76C958.38 355.08 957.26 354.34 955.9 353.56L957.54 352.54C958.94 353.4 960.04 354.18 960.86 354.88C962.68 353.78 964.02 352.5 964.9 351.06H957.98C956.62 352.3 954.92 353.42 952.84 354.42L951.56 352.78C954.94 351.34 957.22 349.6 958.42 347.54L960.5 347.78C960.22 348.3 959.92 348.8 959.58 349.28H967.08V350.96C965.78 353.5 963.44 355.62 960.06 357.3H967.72V366H965.8V364.94H957.34ZM965.8 363.1V359.06H957.34V363.1H965.8Z" fill="black"/>
</g>
<rect x="1" y="1" width="1582" height="736" rx="23" stroke="#1F32D6" stroke-width="2"/>
<defs>
<clipPath id="clip0_3816_3912">
<rect width="1584" height="738" rx="24" fill="white"/>
</clipPath>
</defs>
</svg>
