<svg width="1600" height="754" viewBox="0 0 1600 754" fill="none" xmlns="http://www.w3.org/2000/svg">
<rect width="1600" height="754" fill="white"/>
<rect x="27" y="127" width="772" height="618" rx="23" fill="#1F32D6" fill-opacity="0.08"/>
<rect x="27" y="127" width="772" height="618" rx="23" stroke="#1F32D6" stroke-width="2"/>
<rect x="91" y="352" width="278" height="78" rx="7" fill="white"/>
<rect x="91" y="352" width="278" height="78" rx="7" stroke="#1F32D6" stroke-width="2"/>
<path d="M151.92 381.248V398H148.56V387.104L144.072 398H141.528L137.016 387.104V398H133.656V381.248H137.472L142.8 393.704L148.128 381.248H151.92ZM167.458 386.432C167.458 387.328 167.242 388.168 166.81 388.952C166.394 389.736 165.73 390.368 164.818 390.848C163.922 391.328 162.786 391.568 161.41 391.568H158.602V398H155.242V381.248H161.41C162.706 381.248 163.81 381.472 164.722 381.92C165.634 382.368 166.314 382.984 166.762 383.768C167.226 384.552 167.458 385.44 167.458 386.432ZM161.266 388.856C162.194 388.856 162.882 388.648 163.33 388.232C163.778 387.8 164.002 387.2 164.002 386.432C164.002 384.8 163.09 383.984 161.266 383.984H158.602V388.856H161.266ZM169.028 389.6C169.028 387.952 169.396 386.48 170.132 385.184C170.884 383.872 171.9 382.856 173.18 382.136C174.476 381.4 175.924 381.032 177.524 381.032C179.396 381.032 181.036 381.512 182.444 382.472C183.852 383.432 184.836 384.76 185.396 386.456H181.532C181.148 385.656 180.604 385.056 179.9 384.656C179.212 384.256 178.412 384.056 177.5 384.056C176.524 384.056 175.652 384.288 174.884 384.752C174.132 385.2 173.54 385.84 173.108 386.672C172.692 387.504 172.484 388.48 172.484 389.6C172.484 390.704 172.692 391.68 173.108 392.528C173.54 393.36 174.132 394.008 174.884 394.472C175.652 394.92 176.524 395.144 177.5 395.144C178.412 395.144 179.212 394.944 179.9 394.544C180.604 394.128 181.148 393.52 181.532 392.72H185.396C184.836 394.432 183.852 395.768 182.444 396.728C181.052 397.672 179.412 398.144 177.524 398.144C175.924 398.144 174.476 397.784 173.18 397.064C171.9 396.328 170.884 395.312 170.132 394.016C169.396 392.72 169.028 391.248 169.028 389.6ZM209.032 381.248L202.888 398H198.808L192.664 381.248H196.264L200.872 394.568L205.456 381.248H209.032ZM210.183 391.304C210.183 389.96 210.447 388.768 210.975 387.728C211.519 386.688 212.247 385.888 213.159 385.328C214.087 384.768 215.119 384.488 216.255 384.488C217.247 384.488 218.111 384.688 218.847 385.088C219.599 385.488 220.199 385.992 220.647 386.6V384.704H224.031V398H220.647V396.056C220.215 396.68 219.615 397.2 218.847 397.616C218.095 398.016 217.223 398.216 216.231 398.216C215.111 398.216 214.087 397.928 213.159 397.352C212.247 396.776 211.519 395.968 210.975 394.928C210.447 393.872 210.183 392.664 210.183 391.304ZM220.647 391.352C220.647 390.536 220.487 389.84 220.167 389.264C219.847 388.672 219.415 388.224 218.871 387.92C218.327 387.6 217.743 387.44 217.119 387.44C216.495 387.44 215.919 387.592 215.391 387.896C214.863 388.2 214.431 388.648 214.095 389.24C213.775 389.816 213.615 390.504 213.615 391.304C213.615 392.104 213.775 392.808 214.095 393.416C214.431 394.008 214.863 394.464 215.391 394.784C215.935 395.104 216.511 395.264 217.119 395.264C217.743 395.264 218.327 395.112 218.871 394.808C219.415 394.488 219.847 394.04 220.167 393.464C220.487 392.872 220.647 392.168 220.647 391.352ZM239.864 384.704V398H236.48V396.32C236.048 396.896 235.48 397.352 234.776 397.688C234.088 398.008 233.336 398.168 232.52 398.168C231.48 398.168 230.56 397.952 229.76 397.52C228.96 397.072 228.328 396.424 227.864 395.576C227.416 394.712 227.192 393.688 227.192 392.504V384.704H230.552V392.024C230.552 393.08 230.816 393.896 231.344 394.472C231.872 395.032 232.592 395.312 233.504 395.312C234.432 395.312 235.16 395.032 235.688 394.472C236.216 393.896 236.48 393.08 236.48 392.024V384.704H239.864ZM246.539 380.24V398H243.179V380.24H246.539ZM253.771 387.464V393.896C253.771 394.344 253.875 394.672 254.083 394.88C254.307 395.072 254.675 395.168 255.187 395.168H256.747V398H254.635C251.803 398 250.387 396.624 250.387 393.872V387.464H248.803V384.704H250.387V381.416H253.771V384.704H256.747V387.464H253.771ZM275.155 394.808H268.483L267.379 398H263.851L269.875 381.224H273.787L279.811 398H276.259L275.155 394.808ZM274.243 392.12L271.819 385.112L269.395 392.12H274.243Z" fill="#1F32D6"/>
<circle cx="313" cy="391" r="16" fill="#1F32D6"/>
<path d="M307.16 398.331C307.592 398.331 308.024 398.331 308.456 398.331C308.582 398.331 308.644 398.266 308.644 398.137C308.644 397.493 308.646 396.849 308.642 396.205C308.642 396.102 308.663 396.063 308.776 396.064C309.441 396.069 310.105 396.064 310.77 396.069C310.873 396.07 310.901 396.039 310.901 395.939C310.897 395.282 310.902 394.626 310.896 393.969C310.895 393.85 310.92 393.809 311.049 393.811C311.709 393.818 312.369 393.812 313.03 393.815C313.115 393.815 313.174 393.791 313.233 393.731C313.53 393.428 313.834 393.132 314.13 392.829C314.19 392.769 314.24 392.756 314.322 392.779C315.813 393.207 317.201 392.984 318.449 392.065C319.545 391.257 320.173 390.156 320.307 388.797C320.451 387.34 320.005 386.069 318.973 385.035C317.93 383.989 316.648 383.547 315.177 383.695C313.976 383.815 312.969 384.342 312.178 385.248C311.241 386.32 310.877 387.578 311.067 388.992C311.098 389.22 311.157 389.447 311.218 389.67C311.243 389.762 311.23 389.816 311.163 389.883C310.098 390.94 309.037 391.999 307.975 393.059C307.237 393.796 306.498 394.533 305.764 395.274C305.716 395.322 305.679 395.406 305.679 395.473C305.673 396.378 305.677 397.283 305.673 398.188C305.673 398.298 305.7 398.335 305.815 398.334C306.264 398.327 306.712 398.331 307.161 398.331H307.16ZM315.08 387.327C315.083 386.456 315.782 385.757 316.65 385.755C317.496 385.753 318.209 386.464 318.212 387.313C318.215 388.195 317.509 388.889 316.609 388.889C315.785 388.889 315.076 388.166 315.08 387.328V387.327Z" fill="white"/>
<rect x="457" y="352" width="278" height="78" rx="7" fill="white"/>
<rect x="457" y="352" width="278" height="78" rx="7" stroke="#1F32D6" stroke-width="2"/>
<path d="M518.92 381.248V398H515.56V387.104L511.072 398H508.528L504.016 387.104V398H500.656V381.248H504.472L509.8 393.704L515.128 381.248H518.92ZM534.458 386.432C534.458 387.328 534.242 388.168 533.81 388.952C533.394 389.736 532.73 390.368 531.818 390.848C530.922 391.328 529.786 391.568 528.41 391.568H525.602V398H522.242V381.248H528.41C529.706 381.248 530.81 381.472 531.722 381.92C532.634 382.368 533.314 382.984 533.762 383.768C534.226 384.552 534.458 385.44 534.458 386.432ZM528.266 388.856C529.194 388.856 529.882 388.648 530.33 388.232C530.778 387.8 531.002 387.2 531.002 386.432C531.002 384.8 530.09 383.984 528.266 383.984H525.602V388.856H528.266ZM536.028 389.6C536.028 387.952 536.396 386.48 537.132 385.184C537.884 383.872 538.9 382.856 540.18 382.136C541.476 381.4 542.924 381.032 544.524 381.032C546.396 381.032 548.036 381.512 549.444 382.472C550.852 383.432 551.836 384.76 552.396 386.456H548.532C548.148 385.656 547.604 385.056 546.9 384.656C546.212 384.256 545.412 384.056 544.5 384.056C543.524 384.056 542.652 384.288 541.884 384.752C541.132 385.2 540.54 385.84 540.108 386.672C539.692 387.504 539.484 388.48 539.484 389.6C539.484 390.704 539.692 391.68 540.108 392.528C540.54 393.36 541.132 394.008 541.884 394.472C542.652 394.92 543.524 395.144 544.5 395.144C545.412 395.144 546.212 394.944 546.9 394.544C547.604 394.128 548.148 393.52 548.532 392.72H552.396C551.836 394.432 550.852 395.768 549.444 396.728C548.052 397.672 546.412 398.144 544.524 398.144C542.924 398.144 541.476 397.784 540.18 397.064C538.9 396.328 537.884 395.312 537.132 394.016C536.396 392.72 536.028 391.248 536.028 389.6ZM576.032 381.248L569.888 398H565.808L559.664 381.248H563.264L567.872 394.568L572.456 381.248H576.032ZM577.183 391.304C577.183 389.96 577.447 388.768 577.975 387.728C578.519 386.688 579.247 385.888 580.159 385.328C581.087 384.768 582.119 384.488 583.255 384.488C584.247 384.488 585.111 384.688 585.847 385.088C586.599 385.488 587.199 385.992 587.647 386.6V384.704H591.031V398H587.647V396.056C587.215 396.68 586.615 397.2 585.847 397.616C585.095 398.016 584.223 398.216 583.231 398.216C582.111 398.216 581.087 397.928 580.159 397.352C579.247 396.776 578.519 395.968 577.975 394.928C577.447 393.872 577.183 392.664 577.183 391.304ZM587.647 391.352C587.647 390.536 587.487 389.84 587.167 389.264C586.847 388.672 586.415 388.224 585.871 387.92C585.327 387.6 584.743 387.44 584.119 387.44C583.495 387.44 582.919 387.592 582.391 387.896C581.863 388.2 581.431 388.648 581.095 389.24C580.775 389.816 580.615 390.504 580.615 391.304C580.615 392.104 580.775 392.808 581.095 393.416C581.431 394.008 581.863 394.464 582.391 394.784C582.935 395.104 583.511 395.264 584.119 395.264C584.743 395.264 585.327 395.112 585.871 394.808C586.415 394.488 586.847 394.04 587.167 393.464C587.487 392.872 587.647 392.168 587.647 391.352ZM606.864 384.704V398H603.48V396.32C603.048 396.896 602.48 397.352 601.776 397.688C601.088 398.008 600.336 398.168 599.52 398.168C598.48 398.168 597.56 397.952 596.76 397.52C595.96 397.072 595.328 396.424 594.864 395.576C594.416 394.712 594.192 393.688 594.192 392.504V384.704H597.552V392.024C597.552 393.08 597.816 393.896 598.344 394.472C598.872 395.032 599.592 395.312 600.504 395.312C601.432 395.312 602.16 395.032 602.688 394.472C603.216 393.896 603.48 393.08 603.48 392.024V384.704H606.864ZM613.539 380.24V398H610.179V380.24H613.539ZM620.771 387.464V393.896C620.771 394.344 620.875 394.672 621.083 394.88C621.307 395.072 621.675 395.168 622.187 395.168H623.747V398H621.635C618.803 398 617.387 396.624 617.387 393.872V387.464H615.803V384.704H617.387V381.416H620.771V384.704H623.747V387.464H620.771ZM641.387 389.408C642.331 389.584 643.107 390.056 643.715 390.824C644.323 391.592 644.627 392.472 644.627 393.464C644.627 394.36 644.403 395.152 643.955 395.84C643.523 396.512 642.891 397.04 642.059 397.424C641.227 397.808 640.243 398 639.107 398H631.883V381.248H638.795C639.931 381.248 640.907 381.432 641.723 381.8C642.555 382.168 643.179 382.68 643.595 383.336C644.027 383.992 644.243 384.736 644.243 385.568C644.243 386.544 643.979 387.36 643.451 388.016C642.939 388.672 642.251 389.136 641.387 389.408ZM635.243 388.16H638.315C639.115 388.16 639.731 387.984 640.163 387.632C640.595 387.264 640.811 386.744 640.811 386.072C640.811 385.4 640.595 384.88 640.163 384.512C639.731 384.144 639.115 383.96 638.315 383.96H635.243V388.16ZM638.627 395.264C639.443 395.264 640.075 395.072 640.523 394.688C640.987 394.304 641.219 393.76 641.219 393.056C641.219 392.336 640.979 391.776 640.499 391.376C640.019 390.96 639.371 390.752 638.555 390.752H635.243V395.264H638.627Z" fill="#1F32D6"/>
<circle cx="678" cy="391" r="16" fill="#1F32D6"/>
<path d="M672.16 398.331C672.592 398.331 673.024 398.331 673.456 398.331C673.582 398.331 673.644 398.266 673.644 398.137C673.644 397.493 673.646 396.849 673.642 396.205C673.642 396.102 673.663 396.063 673.776 396.064C674.441 396.069 675.105 396.064 675.77 396.069C675.873 396.07 675.901 396.039 675.901 395.939C675.897 395.282 675.902 394.626 675.896 393.969C675.895 393.85 675.92 393.809 676.049 393.811C676.709 393.818 677.369 393.812 678.03 393.815C678.115 393.815 678.174 393.791 678.233 393.731C678.53 393.428 678.834 393.132 679.13 392.829C679.19 392.769 679.24 392.756 679.322 392.779C680.813 393.207 682.201 392.984 683.449 392.065C684.545 391.257 685.173 390.156 685.307 388.797C685.451 387.34 685.005 386.069 683.973 385.035C682.93 383.989 681.648 383.547 680.177 383.695C678.976 383.815 677.969 384.342 677.178 385.248C676.241 386.32 675.877 387.578 676.067 388.992C676.098 389.22 676.157 389.447 676.218 389.67C676.243 389.762 676.23 389.816 676.163 389.883C675.098 390.94 674.037 391.999 672.975 393.059C672.237 393.796 671.498 394.533 670.764 395.274C670.716 395.322 670.679 395.406 670.679 395.473C670.673 396.378 670.677 397.283 670.673 398.188C670.673 398.298 670.7 398.335 670.815 398.334C671.264 398.327 671.712 398.331 672.161 398.331H672.16ZM680.08 387.327C680.083 386.456 680.782 385.757 681.65 385.755C682.496 385.753 683.209 386.464 683.212 387.313C683.215 388.195 682.509 388.889 681.609 388.889C680.785 388.889 680.076 388.166 680.08 387.328V387.327Z" fill="white"/>
<rect x="91" y="448" width="278" height="114" rx="7" fill="white"/>
<rect x="91" y="448" width="278" height="114" rx="7" stroke="#1F32D6" stroke-width="2" stroke-dasharray="8 8"/>
<path d="M158.082 511.144V513.688C155.85 514.528 153.306 515.224 150.474 515.752L150.114 513.112C153.138 512.632 155.802 511.96 158.082 511.144ZM153.594 494.128L155.946 495.04C154.89 497.776 153.786 500.032 152.682 501.808L154.794 501.52C155.226 500.608 155.658 499.6 156.138 498.544L158.322 499.336C156.498 503.176 154.962 505.984 153.714 507.784C154.818 507.496 155.946 507.112 157.05 506.656V508.888C154.842 509.752 152.778 510.304 150.834 510.592L150.186 508.336C150.618 508.144 151.002 507.928 151.314 507.64C151.938 506.896 152.73 505.6 153.69 503.752C152.634 503.896 151.554 504.064 150.402 504.232L149.778 501.952C150.162 501.808 150.522 501.496 150.81 501.04C151.866 498.952 152.802 496.648 153.594 494.128ZM163.002 507.088C165.45 507.76 167.706 508.576 169.77 509.536L168.546 511.456C166.338 510.424 164.034 509.608 161.682 509.032L163.002 507.088ZM160.098 510.832C163.938 511.84 167.466 513.04 170.634 514.48L169.29 516.568C165.858 515.032 162.33 513.808 158.682 512.92L160.098 510.832ZM162.018 494.176L164.562 494.488C164.37 495.136 164.178 495.76 163.962 496.336H170.418V498.352C169.482 500.176 168.354 501.784 167.058 503.176C168.69 504.232 170.466 505.144 172.41 505.912L171.114 508.168C168.978 507.232 167.034 506.128 165.306 504.832C163.386 506.416 161.13 507.64 158.586 508.504L157.362 506.296C159.618 505.624 161.634 504.616 163.386 503.272C162.594 502.552 161.85 501.832 161.178 501.064C160.65 501.664 160.098 502.24 159.498 502.792L157.914 500.752C159.93 498.952 161.298 496.768 162.018 494.176ZM165.114 501.76C166.026 500.824 166.818 499.816 167.538 498.736H162.81C162.69 498.928 162.57 499.12 162.474 499.312C163.29 500.176 164.154 500.992 165.114 501.76ZM174.018 498.04H176.85C176.562 496.936 176.226 495.928 175.866 494.992L178.362 494.584C178.65 495.592 178.938 496.744 179.226 498.04H181.794V500.392H174.018V498.04ZM176.562 501.376C176.946 504.064 177.282 507.184 177.594 510.688L175.602 511.168C175.314 508 174.93 504.976 174.498 502.048L176.562 501.376ZM181.674 510.712V513.112C179.466 513.88 177.09 514.552 174.57 515.104L173.922 512.656C175.314 512.44 176.682 512.152 178.026 511.816C178.458 508.456 178.794 504.928 179.01 501.184L181.242 501.496C180.978 505 180.594 508.24 180.114 511.216L181.674 510.712ZM192.594 498.664V495.28H194.97V500.848H183.018V495.28H185.418V498.664H187.746V494.344H190.194V498.664H192.594ZM182.25 502.216H195.906V504.52H189.906C189.762 505.096 189.618 505.648 189.426 506.176H195.426V514.312C195.426 515.704 194.826 516.4 193.626 516.4H192.546L191.946 514.192L192.906 514.264C193.098 514.264 193.218 514.12 193.218 513.856V508.384H191.754V515.968H189.69V508.384H188.418V515.992H186.354V508.384H184.962V516.4H182.706V506.176H186.978C187.17 505.624 187.314 505.072 187.434 504.52H182.25V502.216ZM202.626 503.152V506.608H207.906V503.152H202.626ZM202.506 508.912C202.194 511.888 201.306 514.384 199.842 516.352L197.922 514.624C199.338 512.608 200.058 510.04 200.106 506.92V495.04H218.706V513.16C218.706 515.008 217.746 515.944 215.85 515.944H213.09L212.418 513.496C213.378 513.592 214.242 513.64 215.058 513.64C215.778 513.64 216.162 513.16 216.162 512.248V508.912H210.45V515.68H207.906V508.912H202.506ZM216.162 506.608V503.152H210.45V506.608H216.162ZM216.162 500.848V497.488H210.45V500.848H216.162ZM207.906 497.488H202.626V500.848H207.906V497.488ZM239.73 499.432H226.914V503.248H239.73V499.432ZM226.89 505.696C226.746 509.92 225.666 513.568 223.602 516.64L221.73 514.936C223.506 512.368 224.418 509.032 224.442 504.952V496.984H232.098C231.714 496.096 231.306 495.28 230.85 494.512L233.538 494.08C233.922 494.944 234.282 495.904 234.666 496.984H242.274V505.696H226.89ZM248.946 494.296L251.346 494.824C251.178 495.496 251.01 496.12 250.818 496.744H254.922V499.12H250.002C249.666 499.936 249.33 500.704 248.97 501.424H254.274V503.68H252.33V506.104H255.306V508.408H252.33V512.608C253.386 512.128 254.418 511.504 255.474 510.736L255.882 512.992C254.154 514.216 252.162 515.224 249.906 515.992L248.874 513.856C249.546 513.616 249.882 513.304 249.882 512.872V508.408H246.666V506.104H249.882V503.68H248.586V502.144C248.346 502.576 248.106 502.984 247.866 503.392L245.826 502.096C247.314 499.648 248.346 497.056 248.946 494.296ZM266.538 498.28L266.898 500.584L261.402 501.448C261.426 502.336 261.474 503.176 261.546 503.992L267.162 502.984L267.546 505.336L261.81 506.368L261.858 506.824C262.026 507.856 262.242 508.792 262.482 509.608C263.418 508.624 264.282 507.52 265.074 506.32L266.97 507.592C265.866 509.248 264.666 510.688 263.394 511.936C263.994 512.992 264.546 513.544 265.05 513.544C265.482 513.544 265.842 512.44 266.178 510.256L268.338 511.672C267.642 514.696 266.634 516.208 265.314 516.208C264.162 516.184 263.082 515.44 262.026 514L261.666 513.448C259.818 514.888 257.826 515.92 255.714 516.568L254.322 514.672C256.674 513.904 258.786 512.8 260.61 511.336C260.226 510.352 259.89 509.272 259.626 508.096C259.53 507.664 259.434 507.232 259.386 506.8L255.858 507.424L255.498 505.072L259.05 504.448C258.954 503.584 258.906 502.72 258.858 501.832L256.026 502.288L255.666 499.984L258.81 499.504V494.272H261.354V499.096L266.538 498.28ZM263.874 494.176C264.93 495.256 265.722 496.192 266.274 496.96L264.33 498.328C263.754 497.44 262.962 496.456 261.978 495.376L263.874 494.176ZM284.562 501.376V509.248H276.09V512.944C276.09 513.544 276.426 513.856 277.146 513.856H288.042C288.522 513.808 288.834 513.616 289.002 513.256C289.122 512.992 289.266 512.152 289.41 510.76L291.786 511.552C291.618 512.992 291.426 514 291.21 514.6C290.874 515.608 290.106 516.136 288.858 516.184H276.09C274.41 516.184 273.57 515.44 273.57 513.952V502.48C273.09 503.008 272.634 503.512 272.154 503.992L270.378 501.88C272.442 500.056 274.218 497.44 275.754 494.08L278.298 494.656C278.01 495.328 277.698 495.976 277.41 496.6H290.418C290.418 502.984 290.274 506.92 290.034 508.408C289.794 509.896 288.786 510.664 287.01 510.664C286.722 510.664 286.194 510.616 285.474 510.544L284.874 508.312C285.546 508.384 286.122 508.432 286.602 508.432C287.178 508.432 287.514 508.048 287.61 507.28C287.754 506.464 287.826 503.704 287.874 498.976H276.09C275.562 499.84 275.034 500.632 274.482 501.376H284.562ZM276.09 506.992H282.042V503.632H276.09V506.992ZM306.642 496.864H308.754V514H305.946V500.248C304.914 501.184 303.618 501.88 302.034 502.336V499.552C302.802 499.36 303.618 499.024 304.482 498.544C305.346 498.016 306.066 497.464 306.642 496.864Z" fill="#1F32D6"/>
<rect x="91" y="580" width="278" height="114" rx="7" fill="white"/>
<rect x="91" y="580" width="278" height="114" rx="7" stroke="#1F32D6" stroke-width="2" stroke-dasharray="8 8"/>
<path d="M156.309 643.144V645.688C154.077 646.528 151.533 647.224 148.701 647.752L148.341 645.112C151.365 644.632 154.029 643.96 156.309 643.144ZM151.821 626.128L154.173 627.04C153.117 629.776 152.013 632.032 150.909 633.808L153.021 633.52C153.453 632.608 153.885 631.6 154.365 630.544L156.549 631.336C154.725 635.176 153.189 637.984 151.941 639.784C153.045 639.496 154.173 639.112 155.277 638.656V640.888C153.069 641.752 151.005 642.304 149.061 642.592L148.413 640.336C148.845 640.144 149.229 639.928 149.541 639.64C150.165 638.896 150.957 637.6 151.917 635.752C150.861 635.896 149.781 636.064 148.629 636.232L148.005 633.952C148.389 633.808 148.749 633.496 149.037 633.04C150.093 630.952 151.029 628.648 151.821 626.128ZM161.229 639.088C163.677 639.76 165.933 640.576 167.997 641.536L166.773 643.456C164.565 642.424 162.261 641.608 159.909 641.032L161.229 639.088ZM158.325 642.832C162.165 643.84 165.693 645.04 168.861 646.48L167.517 648.568C164.085 647.032 160.557 645.808 156.909 644.92L158.325 642.832ZM160.245 626.176L162.789 626.488C162.597 627.136 162.405 627.76 162.189 628.336H168.645V630.352C167.709 632.176 166.581 633.784 165.285 635.176C166.917 636.232 168.693 637.144 170.637 637.912L169.341 640.168C167.205 639.232 165.261 638.128 163.533 636.832C161.613 638.416 159.357 639.64 156.813 640.504L155.589 638.296C157.845 637.624 159.861 636.616 161.613 635.272C160.821 634.552 160.077 633.832 159.405 633.064C158.877 633.664 158.325 634.24 157.725 634.792L156.141 632.752C158.157 630.952 159.525 628.768 160.245 626.176ZM163.341 633.76C164.253 632.824 165.045 631.816 165.765 630.736H161.037C160.917 630.928 160.797 631.12 160.701 631.312C161.517 632.176 162.381 632.992 163.341 633.76ZM172.245 630.04H175.077C174.789 628.936 174.453 627.928 174.093 626.992L176.589 626.584C176.877 627.592 177.165 628.744 177.453 630.04H180.021V632.392H172.245V630.04ZM174.789 633.376C175.173 636.064 175.509 639.184 175.821 642.688L173.829 643.168C173.541 640 173.157 636.976 172.725 634.048L174.789 633.376ZM179.901 642.712V645.112C177.693 645.88 175.317 646.552 172.797 647.104L172.149 644.656C173.541 644.44 174.909 644.152 176.253 643.816C176.685 640.456 177.021 636.928 177.237 633.184L179.469 633.496C179.205 637 178.821 640.24 178.341 643.216L179.901 642.712ZM190.821 630.664V627.28H193.197V632.848H181.245V627.28H183.645V630.664H185.973V626.344H188.421V630.664H190.821ZM180.477 634.216H194.133V636.52H188.133C187.989 637.096 187.845 637.648 187.653 638.176H193.653V646.312C193.653 647.704 193.053 648.4 191.853 648.4H190.773L190.173 646.192L191.133 646.264C191.325 646.264 191.445 646.12 191.445 645.856V640.384H189.981V647.968H187.917V640.384H186.645V647.992H184.581V640.384H183.189V648.4H180.933V638.176H185.205C185.397 637.624 185.541 637.072 185.661 636.52H180.477V634.216ZM200.853 635.152V638.608H206.133V635.152H200.853ZM200.733 640.912C200.421 643.888 199.533 646.384 198.069 648.352L196.149 646.624C197.565 644.608 198.285 642.04 198.333 638.92V627.04H216.933V645.16C216.933 647.008 215.973 647.944 214.077 647.944H211.317L210.645 645.496C211.605 645.592 212.469 645.64 213.285 645.64C214.005 645.64 214.389 645.16 214.389 644.248V640.912H208.677V647.68H206.133V640.912H200.733ZM214.389 638.608V635.152H208.677V638.608H214.389ZM214.389 632.848V629.488H208.677V632.848H214.389ZM206.133 629.488H200.853V632.848H206.133V629.488ZM237.957 631.432H225.141V635.248H237.957V631.432ZM225.117 637.696C224.973 641.92 223.893 645.568 221.829 648.64L219.957 646.936C221.733 644.368 222.645 641.032 222.669 636.952V628.984H230.325C229.941 628.096 229.533 627.28 229.077 626.512L231.765 626.08C232.149 626.944 232.509 627.904 232.893 628.984H240.501V637.696H225.117ZM247.173 626.296L249.573 626.824C249.405 627.496 249.237 628.12 249.045 628.744H253.149V631.12H248.229C247.893 631.936 247.557 632.704 247.197 633.424H252.501V635.68H250.557V638.104H253.533V640.408H250.557V644.608C251.613 644.128 252.645 643.504 253.701 642.736L254.109 644.992C252.381 646.216 250.389 647.224 248.133 647.992L247.101 645.856C247.773 645.616 248.109 645.304 248.109 644.872V640.408H244.893V638.104H248.109V635.68H246.813V634.144C246.573 634.576 246.333 634.984 246.093 635.392L244.053 634.096C245.541 631.648 246.573 629.056 247.173 626.296ZM264.765 630.28L265.125 632.584L259.629 633.448C259.653 634.336 259.701 635.176 259.773 635.992L265.389 634.984L265.773 637.336L260.037 638.368L260.085 638.824C260.253 639.856 260.469 640.792 260.709 641.608C261.645 640.624 262.509 639.52 263.301 638.32L265.197 639.592C264.093 641.248 262.893 642.688 261.621 643.936C262.221 644.992 262.773 645.544 263.277 645.544C263.709 645.544 264.069 644.44 264.405 642.256L266.565 643.672C265.869 646.696 264.861 648.208 263.541 648.208C262.389 648.184 261.309 647.44 260.253 646L259.893 645.448C258.045 646.888 256.053 647.92 253.941 648.568L252.549 646.672C254.901 645.904 257.013 644.8 258.837 643.336C258.453 642.352 258.117 641.272 257.853 640.096C257.757 639.664 257.661 639.232 257.613 638.8L254.085 639.424L253.725 637.072L257.277 636.448C257.181 635.584 257.133 634.72 257.085 633.832L254.253 634.288L253.893 631.984L257.037 631.504V626.272H259.581V631.096L264.765 630.28ZM262.101 626.176C263.157 627.256 263.949 628.192 264.501 628.96L262.557 630.328C261.981 629.44 261.189 628.456 260.205 627.376L262.101 626.176ZM282.789 633.376V641.248H274.317V644.944C274.317 645.544 274.653 645.856 275.373 645.856H286.269C286.749 645.808 287.061 645.616 287.229 645.256C287.349 644.992 287.493 644.152 287.637 642.76L290.013 643.552C289.845 644.992 289.653 646 289.437 646.6C289.101 647.608 288.333 648.136 287.085 648.184H274.317C272.637 648.184 271.797 647.44 271.797 645.952V634.48C271.317 635.008 270.861 635.512 270.381 635.992L268.605 633.88C270.669 632.056 272.445 629.44 273.981 626.08L276.525 626.656C276.237 627.328 275.925 627.976 275.637 628.6H288.645C288.645 634.984 288.501 638.92 288.261 640.408C288.021 641.896 287.013 642.664 285.237 642.664C284.949 642.664 284.421 642.616 283.701 642.544L283.101 640.312C283.773 640.384 284.349 640.432 284.829 640.432C285.405 640.432 285.741 640.048 285.837 639.28C285.981 638.464 286.053 635.704 286.101 630.976H274.317C273.789 631.84 273.261 632.632 272.709 633.376H282.789ZM274.317 638.992H280.269V635.632H274.317V638.992ZM306.765 628.528C308.421 628.528 309.789 629.008 310.869 629.968C311.925 630.928 312.453 632.152 312.453 633.688C312.453 635.176 311.877 636.52 310.773 637.744C310.101 638.464 308.901 639.376 307.221 640.504C305.469 641.656 304.413 642.664 304.029 643.528H312.477V646H300.525C300.525 644.248 301.077 642.736 302.229 641.44C302.853 640.72 304.173 639.664 306.165 638.296C307.269 637.528 308.037 636.88 308.517 636.376C309.261 635.536 309.645 634.624 309.645 633.664C309.645 632.728 309.381 632.032 308.901 631.576C308.397 631.12 307.653 630.904 306.669 630.904C305.613 630.904 304.821 631.264 304.293 631.984C303.765 632.656 303.477 633.688 303.429 635.032H300.621C300.645 633.112 301.197 631.576 302.301 630.4C303.429 629.152 304.917 628.528 306.765 628.528Z" fill="#1F32D6"/>
<path d="M228 351L233.774 341H222.226L228 351ZM228 309.667V308.667H227V309.667H228ZM599 309.667H600V308.667H599V309.667ZM599 351L604.773 341H593.226L599 351ZM229 342V309.667H227V342H229ZM228 310.667H599V308.667H228V310.667ZM598 309.667V342H600V309.667H598Z" fill="#4C5BDE"/>
<path d="M413 271L413 310.365" stroke="#4C5BDE" stroke-width="2"/>
<path d="M90 506.9L80 501.127L80 512.674L90 506.9ZM58 506.9L57 506.9L57 507.9L58 507.9L58 506.9ZM58 391L58 390L57 390L57 391L58 391ZM81 505.9L58 505.9L58 507.9L81 507.9L81 505.9ZM59 506.9L59 391L57 391L57 506.9L59 506.9ZM58 392L90 392L90 390L58 390L58 392Z" fill="#4C5BDE"/>
<path d="M90 635L80 629.226L80 640.774L90 635ZM58 635L57 635L57 636L58 636L58 635ZM58 391L58 390L57 390L57 391L58 391ZM81 634L58 634L58 636L81 636L81 634ZM59 635L59 391L57 391L57 635L59 635ZM58 392L90 392L90 390L58 390L58 392Z" fill="#4C5BDE"/>
<rect x="285" y="179" width="257" height="91" rx="7" fill="#1F32D6"/>
<rect x="285" y="179" width="257" height="91" rx="7" stroke="#1F32D6" stroke-width="2"/>
<path d="M384.874 217.808H382.306V215.36H389.938V217.808H387.418V227.624C388.33 227.312 389.17 227 389.986 226.688V229.184C387.874 230.048 385.474 230.864 382.738 231.608L381.994 229.136C383.002 228.896 383.962 228.632 384.874 228.392V217.808ZM390.61 214.04H404.146V216.488H398.602C398.506 217.112 398.386 217.736 398.242 218.312H403.258V230.048H400.81V220.616H393.874V230.048H391.45V218.312H395.77C395.914 217.712 396.034 217.112 396.13 216.488H390.61V214.04ZM399.682 229.832C401.554 231.176 403.114 232.52 404.41 233.84L402.61 235.64C401.53 234.344 399.994 232.928 398.002 231.44L399.682 229.832ZM396.034 221.696H398.53V225.92C398.386 228.536 397.666 230.648 396.37 232.232C395.098 233.672 393.034 234.8 390.154 235.592L388.786 233.456C391.57 232.688 393.466 231.752 394.45 230.648C395.386 229.448 395.914 227.864 396.034 225.92V221.696ZM425.578 214.208V235.496H423.058V234.104H411.154V235.544H408.61V214.208H425.578ZM411.154 231.68H423.058V227.936H411.154V231.68ZM411.154 225.656H423.058V222.176H411.154V225.656ZM411.154 219.872H423.058V216.608H411.154V219.872ZM442.642 215.864H444.754V233H441.946V219.248C440.914 220.184 439.618 220.88 438.034 221.336V218.552C438.802 218.36 439.618 218.024 440.482 217.544C441.346 217.016 442.066 216.464 442.642 215.864Z" fill="white"/>
<rect x="823" y="127" width="772" height="618" rx="23" fill="#1F32D6" fill-opacity="0.08"/>
<rect x="823" y="127" width="772" height="618" rx="23" stroke="#1F32D6" stroke-width="2"/>
<rect x="887" y="352" width="278" height="78" rx="7" fill="white"/>
<rect x="887" y="352" width="278" height="78" rx="7" stroke="#1F32D6" stroke-width="2"/>
<path d="M947.92 381.248V398H944.56V387.104L940.072 398H937.528L933.016 387.104V398H929.656V381.248H933.472L938.8 393.704L944.128 381.248H947.92ZM963.458 386.432C963.458 387.328 963.242 388.168 962.81 388.952C962.394 389.736 961.73 390.368 960.818 390.848C959.922 391.328 958.786 391.568 957.41 391.568H954.602V398H951.242V381.248H957.41C958.706 381.248 959.81 381.472 960.722 381.92C961.634 382.368 962.314 382.984 962.762 383.768C963.226 384.552 963.458 385.44 963.458 386.432ZM957.266 388.856C958.194 388.856 958.882 388.648 959.33 388.232C959.778 387.8 960.002 387.2 960.002 386.432C960.002 384.8 959.09 383.984 957.266 383.984H954.602V388.856H957.266ZM965.028 389.6C965.028 387.952 965.396 386.48 966.132 385.184C966.884 383.872 967.9 382.856 969.18 382.136C970.476 381.4 971.924 381.032 973.524 381.032C975.396 381.032 977.036 381.512 978.444 382.472C979.852 383.432 980.836 384.76 981.396 386.456H977.532C977.148 385.656 976.604 385.056 975.9 384.656C975.212 384.256 974.412 384.056 973.5 384.056C972.524 384.056 971.652 384.288 970.884 384.752C970.132 385.2 969.54 385.84 969.108 386.672C968.692 387.504 968.484 388.48 968.484 389.6C968.484 390.704 968.692 391.68 969.108 392.528C969.54 393.36 970.132 394.008 970.884 394.472C971.652 394.92 972.524 395.144 973.5 395.144C974.412 395.144 975.212 394.944 975.9 394.544C976.604 394.128 977.148 393.52 977.532 392.72H981.396C980.836 394.432 979.852 395.768 978.444 396.728C977.052 397.672 975.412 398.144 973.524 398.144C971.924 398.144 970.476 397.784 969.18 397.064C967.9 396.328 966.884 395.312 966.132 394.016C965.396 392.72 965.028 391.248 965.028 389.6ZM1005.03 381.248L998.888 398H994.808L988.664 381.248H992.264L996.872 394.568L1001.46 381.248H1005.03ZM1006.18 391.304C1006.18 389.96 1006.45 388.768 1006.97 387.728C1007.52 386.688 1008.25 385.888 1009.16 385.328C1010.09 384.768 1011.12 384.488 1012.25 384.488C1013.25 384.488 1014.11 384.688 1014.85 385.088C1015.6 385.488 1016.2 385.992 1016.65 386.6V384.704H1020.03V398H1016.65V396.056C1016.21 396.68 1015.61 397.2 1014.85 397.616C1014.09 398.016 1013.22 398.216 1012.23 398.216C1011.11 398.216 1010.09 397.928 1009.16 397.352C1008.25 396.776 1007.52 395.968 1006.97 394.928C1006.45 393.872 1006.18 392.664 1006.18 391.304ZM1016.65 391.352C1016.65 390.536 1016.49 389.84 1016.17 389.264C1015.85 388.672 1015.41 388.224 1014.87 387.92C1014.33 387.6 1013.74 387.44 1013.12 387.44C1012.49 387.44 1011.92 387.592 1011.39 387.896C1010.86 388.2 1010.43 388.648 1010.09 389.24C1009.77 389.816 1009.61 390.504 1009.61 391.304C1009.61 392.104 1009.77 392.808 1010.09 393.416C1010.43 394.008 1010.86 394.464 1011.39 394.784C1011.93 395.104 1012.51 395.264 1013.12 395.264C1013.74 395.264 1014.33 395.112 1014.87 394.808C1015.41 394.488 1015.85 394.04 1016.17 393.464C1016.49 392.872 1016.65 392.168 1016.65 391.352ZM1035.86 384.704V398H1032.48V396.32C1032.05 396.896 1031.48 397.352 1030.78 397.688C1030.09 398.008 1029.34 398.168 1028.52 398.168C1027.48 398.168 1026.56 397.952 1025.76 397.52C1024.96 397.072 1024.33 396.424 1023.86 395.576C1023.42 394.712 1023.19 393.688 1023.19 392.504V384.704H1026.55V392.024C1026.55 393.08 1026.82 393.896 1027.34 394.472C1027.87 395.032 1028.59 395.312 1029.5 395.312C1030.43 395.312 1031.16 395.032 1031.69 394.472C1032.22 393.896 1032.48 393.08 1032.48 392.024V384.704H1035.86ZM1042.54 380.24V398H1039.18V380.24H1042.54ZM1049.77 387.464V393.896C1049.77 394.344 1049.88 394.672 1050.08 394.88C1050.31 395.072 1050.68 395.168 1051.19 395.168H1052.75V398H1050.64C1047.8 398 1046.39 396.624 1046.39 393.872V387.464H1044.8V384.704H1046.39V381.416H1049.77V384.704H1052.75V387.464H1049.77ZM1071.15 394.808H1064.48L1063.38 398H1059.85L1065.87 381.224H1069.79L1075.81 398H1072.26L1071.15 394.808ZM1070.24 392.12L1067.82 385.112L1065.39 392.12H1070.24Z" fill="#1F32D6"/>
<circle cx="1109" cy="391" r="16" fill="#1F32D6"/>
<path d="M1103.16 398.331C1103.59 398.331 1104.02 398.331 1104.46 398.331C1104.58 398.331 1104.64 398.266 1104.64 398.137C1104.64 397.493 1104.65 396.849 1104.64 396.205C1104.64 396.102 1104.66 396.063 1104.78 396.064C1105.44 396.069 1106.11 396.064 1106.77 396.069C1106.87 396.07 1106.9 396.039 1106.9 395.939C1106.9 395.282 1106.9 394.626 1106.9 393.969C1106.89 393.85 1106.92 393.809 1107.05 393.811C1107.71 393.818 1108.37 393.812 1109.03 393.815C1109.11 393.815 1109.17 393.791 1109.23 393.731C1109.53 393.428 1109.83 393.132 1110.13 392.829C1110.19 392.769 1110.24 392.756 1110.32 392.779C1111.81 393.207 1113.2 392.984 1114.45 392.065C1115.55 391.257 1116.17 390.156 1116.31 388.797C1116.45 387.34 1116.01 386.069 1114.97 385.035C1113.93 383.989 1112.65 383.547 1111.18 383.695C1109.98 383.815 1108.97 384.342 1108.18 385.248C1107.24 386.32 1106.88 387.578 1107.07 388.992C1107.1 389.22 1107.16 389.447 1107.22 389.67C1107.24 389.762 1107.23 389.816 1107.16 389.883C1106.1 390.94 1105.04 391.999 1103.98 393.059C1103.24 393.796 1102.5 394.533 1101.76 395.274C1101.72 395.322 1101.68 395.406 1101.68 395.473C1101.67 396.378 1101.68 397.283 1101.67 398.188C1101.67 398.298 1101.7 398.335 1101.82 398.334C1102.26 398.327 1102.71 398.331 1103.16 398.331H1103.16ZM1111.08 387.327C1111.08 386.456 1111.78 385.757 1112.65 385.755C1113.5 385.753 1114.21 386.464 1114.21 387.313C1114.22 388.195 1113.51 388.889 1112.61 388.889C1111.78 388.889 1111.08 388.166 1111.08 387.328V387.327Z" fill="white"/>
<rect x="1253" y="352" width="278" height="78" rx="7" fill="white"/>
<rect x="1253" y="352" width="278" height="78" rx="7" stroke="#1F32D6" stroke-width="2"/>
<path d="M1314.92 381.248V398H1311.56V387.104L1307.07 398H1304.53L1300.02 387.104V398H1296.66V381.248H1300.47L1305.8 393.704L1311.13 381.248H1314.92ZM1330.46 386.432C1330.46 387.328 1330.24 388.168 1329.81 388.952C1329.39 389.736 1328.73 390.368 1327.82 390.848C1326.92 391.328 1325.79 391.568 1324.41 391.568H1321.6V398H1318.24V381.248H1324.41C1325.71 381.248 1326.81 381.472 1327.72 381.92C1328.63 382.368 1329.31 382.984 1329.76 383.768C1330.23 384.552 1330.46 385.44 1330.46 386.432ZM1324.27 388.856C1325.19 388.856 1325.88 388.648 1326.33 388.232C1326.78 387.8 1327 387.2 1327 386.432C1327 384.8 1326.09 383.984 1324.27 383.984H1321.6V388.856H1324.27ZM1332.03 389.6C1332.03 387.952 1332.4 386.48 1333.13 385.184C1333.88 383.872 1334.9 382.856 1336.18 382.136C1337.48 381.4 1338.92 381.032 1340.52 381.032C1342.4 381.032 1344.04 381.512 1345.44 382.472C1346.85 383.432 1347.84 384.76 1348.4 386.456H1344.53C1344.15 385.656 1343.6 385.056 1342.9 384.656C1342.21 384.256 1341.41 384.056 1340.5 384.056C1339.52 384.056 1338.65 384.288 1337.88 384.752C1337.13 385.2 1336.54 385.84 1336.11 386.672C1335.69 387.504 1335.48 388.48 1335.48 389.6C1335.48 390.704 1335.69 391.68 1336.11 392.528C1336.54 393.36 1337.13 394.008 1337.88 394.472C1338.65 394.92 1339.52 395.144 1340.5 395.144C1341.41 395.144 1342.21 394.944 1342.9 394.544C1343.6 394.128 1344.15 393.52 1344.53 392.72H1348.4C1347.84 394.432 1346.85 395.768 1345.44 396.728C1344.05 397.672 1342.41 398.144 1340.52 398.144C1338.92 398.144 1337.48 397.784 1336.18 397.064C1334.9 396.328 1333.88 395.312 1333.13 394.016C1332.4 392.72 1332.03 391.248 1332.03 389.6ZM1372.03 381.248L1365.89 398H1361.81L1355.66 381.248H1359.26L1363.87 394.568L1368.46 381.248H1372.03ZM1373.18 391.304C1373.18 389.96 1373.45 388.768 1373.97 387.728C1374.52 386.688 1375.25 385.888 1376.16 385.328C1377.09 384.768 1378.12 384.488 1379.25 384.488C1380.25 384.488 1381.11 384.688 1381.85 385.088C1382.6 385.488 1383.2 385.992 1383.65 386.6V384.704H1387.03V398H1383.65V396.056C1383.21 396.68 1382.61 397.2 1381.85 397.616C1381.09 398.016 1380.22 398.216 1379.23 398.216C1378.11 398.216 1377.09 397.928 1376.16 397.352C1375.25 396.776 1374.52 395.968 1373.97 394.928C1373.45 393.872 1373.18 392.664 1373.18 391.304ZM1383.65 391.352C1383.65 390.536 1383.49 389.84 1383.17 389.264C1382.85 388.672 1382.41 388.224 1381.87 387.92C1381.33 387.6 1380.74 387.44 1380.12 387.44C1379.49 387.44 1378.92 387.592 1378.39 387.896C1377.86 388.2 1377.43 388.648 1377.09 389.24C1376.77 389.816 1376.61 390.504 1376.61 391.304C1376.61 392.104 1376.77 392.808 1377.09 393.416C1377.43 394.008 1377.86 394.464 1378.39 394.784C1378.93 395.104 1379.51 395.264 1380.12 395.264C1380.74 395.264 1381.33 395.112 1381.87 394.808C1382.41 394.488 1382.85 394.04 1383.17 393.464C1383.49 392.872 1383.65 392.168 1383.65 391.352ZM1402.86 384.704V398H1399.48V396.32C1399.05 396.896 1398.48 397.352 1397.78 397.688C1397.09 398.008 1396.34 398.168 1395.52 398.168C1394.48 398.168 1393.56 397.952 1392.76 397.52C1391.96 397.072 1391.33 396.424 1390.86 395.576C1390.42 394.712 1390.19 393.688 1390.19 392.504V384.704H1393.55V392.024C1393.55 393.08 1393.82 393.896 1394.34 394.472C1394.87 395.032 1395.59 395.312 1396.5 395.312C1397.43 395.312 1398.16 395.032 1398.69 394.472C1399.22 393.896 1399.48 393.08 1399.48 392.024V384.704H1402.86ZM1409.54 380.24V398H1406.18V380.24H1409.54ZM1416.77 387.464V393.896C1416.77 394.344 1416.88 394.672 1417.08 394.88C1417.31 395.072 1417.68 395.168 1418.19 395.168H1419.75V398H1417.64C1414.8 398 1413.39 396.624 1413.39 393.872V387.464H1411.8V384.704H1413.39V381.416H1416.77V384.704H1419.75V387.464H1416.77ZM1437.39 389.408C1438.33 389.584 1439.11 390.056 1439.71 390.824C1440.32 391.592 1440.63 392.472 1440.63 393.464C1440.63 394.36 1440.4 395.152 1439.95 395.84C1439.52 396.512 1438.89 397.04 1438.06 397.424C1437.23 397.808 1436.24 398 1435.11 398H1427.88V381.248H1434.79C1435.93 381.248 1436.91 381.432 1437.72 381.8C1438.55 382.168 1439.18 382.68 1439.59 383.336C1440.03 383.992 1440.24 384.736 1440.24 385.568C1440.24 386.544 1439.98 387.36 1439.45 388.016C1438.94 388.672 1438.25 389.136 1437.39 389.408ZM1431.24 388.16H1434.31C1435.11 388.16 1435.73 387.984 1436.16 387.632C1436.59 387.264 1436.81 386.744 1436.81 386.072C1436.81 385.4 1436.59 384.88 1436.16 384.512C1435.73 384.144 1435.11 383.96 1434.31 383.96H1431.24V388.16ZM1434.63 395.264C1435.44 395.264 1436.07 395.072 1436.52 394.688C1436.99 394.304 1437.22 393.76 1437.22 393.056C1437.22 392.336 1436.98 391.776 1436.5 391.376C1436.02 390.96 1435.37 390.752 1434.55 390.752H1431.24V395.264H1434.63Z" fill="#1F32D6"/>
<circle cx="1474" cy="391" r="16" fill="#1F32D6"/>
<path d="M1468.16 398.331C1468.59 398.331 1469.02 398.331 1469.46 398.331C1469.58 398.331 1469.64 398.266 1469.64 398.137C1469.64 397.493 1469.65 396.849 1469.64 396.205C1469.64 396.102 1469.66 396.063 1469.78 396.064C1470.44 396.069 1471.11 396.064 1471.77 396.069C1471.87 396.07 1471.9 396.039 1471.9 395.939C1471.9 395.282 1471.9 394.626 1471.9 393.969C1471.89 393.85 1471.92 393.809 1472.05 393.811C1472.71 393.818 1473.37 393.812 1474.03 393.815C1474.11 393.815 1474.17 393.791 1474.23 393.731C1474.53 393.428 1474.83 393.132 1475.13 392.829C1475.19 392.769 1475.24 392.756 1475.32 392.779C1476.81 393.207 1478.2 392.984 1479.45 392.065C1480.55 391.257 1481.17 390.156 1481.31 388.797C1481.45 387.34 1481.01 386.069 1479.97 385.035C1478.93 383.989 1477.65 383.547 1476.18 383.695C1474.98 383.815 1473.97 384.342 1473.18 385.248C1472.24 386.32 1471.88 387.578 1472.07 388.992C1472.1 389.22 1472.16 389.447 1472.22 389.67C1472.24 389.762 1472.23 389.816 1472.16 389.883C1471.1 390.94 1470.04 391.999 1468.98 393.059C1468.24 393.796 1467.5 394.533 1466.76 395.274C1466.72 395.322 1466.68 395.406 1466.68 395.473C1466.67 396.378 1466.68 397.283 1466.67 398.188C1466.67 398.298 1466.7 398.335 1466.82 398.334C1467.26 398.327 1467.71 398.331 1468.16 398.331H1468.16ZM1476.08 387.327C1476.08 386.456 1476.78 385.757 1477.65 385.755C1478.5 385.753 1479.21 386.464 1479.21 387.313C1479.22 388.195 1478.51 388.889 1477.61 388.889C1476.78 388.889 1476.08 388.166 1476.08 387.328V387.327Z" fill="white"/>
<rect x="887" y="448" width="278" height="114" rx="7" fill="white"/>
<rect x="887" y="448" width="278" height="114" rx="7" stroke="#1F32D6" stroke-width="2" stroke-dasharray="8 8"/>
<path d="M954.082 511.144V513.688C951.85 514.528 949.306 515.224 946.474 515.752L946.114 513.112C949.138 512.632 951.802 511.96 954.082 511.144ZM949.594 494.128L951.946 495.04C950.89 497.776 949.786 500.032 948.682 501.808L950.794 501.52C951.226 500.608 951.658 499.6 952.138 498.544L954.322 499.336C952.498 503.176 950.962 505.984 949.714 507.784C950.818 507.496 951.946 507.112 953.05 506.656V508.888C950.842 509.752 948.778 510.304 946.834 510.592L946.186 508.336C946.618 508.144 947.002 507.928 947.314 507.64C947.938 506.896 948.73 505.6 949.69 503.752C948.634 503.896 947.554 504.064 946.402 504.232L945.778 501.952C946.162 501.808 946.522 501.496 946.81 501.04C947.866 498.952 948.802 496.648 949.594 494.128ZM959.002 507.088C961.45 507.76 963.706 508.576 965.77 509.536L964.546 511.456C962.338 510.424 960.034 509.608 957.682 509.032L959.002 507.088ZM956.098 510.832C959.938 511.84 963.466 513.04 966.634 514.48L965.29 516.568C961.858 515.032 958.33 513.808 954.682 512.92L956.098 510.832ZM958.018 494.176L960.562 494.488C960.37 495.136 960.178 495.76 959.962 496.336H966.418V498.352C965.482 500.176 964.354 501.784 963.058 503.176C964.69 504.232 966.466 505.144 968.41 505.912L967.114 508.168C964.978 507.232 963.034 506.128 961.306 504.832C959.386 506.416 957.13 507.64 954.586 508.504L953.362 506.296C955.618 505.624 957.634 504.616 959.386 503.272C958.594 502.552 957.85 501.832 957.178 501.064C956.65 501.664 956.098 502.24 955.498 502.792L953.914 500.752C955.93 498.952 957.298 496.768 958.018 494.176ZM961.114 501.76C962.026 500.824 962.818 499.816 963.538 498.736H958.81C958.69 498.928 958.57 499.12 958.474 499.312C959.29 500.176 960.154 500.992 961.114 501.76ZM970.018 498.04H972.85C972.562 496.936 972.226 495.928 971.866 494.992L974.362 494.584C974.65 495.592 974.938 496.744 975.226 498.04H977.794V500.392H970.018V498.04ZM972.562 501.376C972.946 504.064 973.282 507.184 973.594 510.688L971.602 511.168C971.314 508 970.93 504.976 970.498 502.048L972.562 501.376ZM977.674 510.712V513.112C975.466 513.88 973.09 514.552 970.57 515.104L969.922 512.656C971.314 512.44 972.682 512.152 974.026 511.816C974.458 508.456 974.794 504.928 975.01 501.184L977.242 501.496C976.978 505 976.594 508.24 976.114 511.216L977.674 510.712ZM988.594 498.664V495.28H990.97V500.848H979.018V495.28H981.418V498.664H983.746V494.344H986.194V498.664H988.594ZM978.25 502.216H991.906V504.52H985.906C985.762 505.096 985.618 505.648 985.426 506.176H991.426V514.312C991.426 515.704 990.826 516.4 989.626 516.4H988.546L987.946 514.192L988.906 514.264C989.098 514.264 989.218 514.12 989.218 513.856V508.384H987.754V515.968H985.69V508.384H984.418V515.992H982.354V508.384H980.962V516.4H978.706V506.176H982.978C983.17 505.624 983.314 505.072 983.434 504.52H978.25V502.216ZM998.626 503.152V506.608H1003.91V503.152H998.626ZM998.506 508.912C998.194 511.888 997.306 514.384 995.842 516.352L993.922 514.624C995.338 512.608 996.058 510.04 996.106 506.92V495.04H1014.71V513.16C1014.71 515.008 1013.75 515.944 1011.85 515.944H1009.09L1008.42 513.496C1009.38 513.592 1010.24 513.64 1011.06 513.64C1011.78 513.64 1012.16 513.16 1012.16 512.248V508.912H1006.45V515.68H1003.91V508.912H998.506ZM1012.16 506.608V503.152H1006.45V506.608H1012.16ZM1012.16 500.848V497.488H1006.45V500.848H1012.16ZM1003.91 497.488H998.626V500.848H1003.91V497.488ZM1035.73 499.432H1022.91V503.248H1035.73V499.432ZM1022.89 505.696C1022.75 509.92 1021.67 513.568 1019.6 516.64L1017.73 514.936C1019.51 512.368 1020.42 509.032 1020.44 504.952V496.984H1028.1C1027.71 496.096 1027.31 495.28 1026.85 494.512L1029.54 494.08C1029.92 494.944 1030.28 495.904 1030.67 496.984H1038.27V505.696H1022.89ZM1044.95 494.296L1047.35 494.824C1047.18 495.496 1047.01 496.12 1046.82 496.744H1050.92V499.12H1046C1045.67 499.936 1045.33 500.704 1044.97 501.424H1050.27V503.68H1048.33V506.104H1051.31V508.408H1048.33V512.608C1049.39 512.128 1050.42 511.504 1051.47 510.736L1051.88 512.992C1050.15 514.216 1048.16 515.224 1045.91 515.992L1044.87 513.856C1045.55 513.616 1045.88 513.304 1045.88 512.872V508.408H1042.67V506.104H1045.88V503.68H1044.59V502.144C1044.35 502.576 1044.11 502.984 1043.87 503.392L1041.83 502.096C1043.31 499.648 1044.35 497.056 1044.95 494.296ZM1062.54 498.28L1062.9 500.584L1057.4 501.448C1057.43 502.336 1057.47 503.176 1057.55 503.992L1063.16 502.984L1063.55 505.336L1057.81 506.368L1057.86 506.824C1058.03 507.856 1058.24 508.792 1058.48 509.608C1059.42 508.624 1060.28 507.52 1061.07 506.32L1062.97 507.592C1061.87 509.248 1060.67 510.688 1059.39 511.936C1059.99 512.992 1060.55 513.544 1061.05 513.544C1061.48 513.544 1061.84 512.44 1062.18 510.256L1064.34 511.672C1063.64 514.696 1062.63 516.208 1061.31 516.208C1060.16 516.184 1059.08 515.44 1058.03 514L1057.67 513.448C1055.82 514.888 1053.83 515.92 1051.71 516.568L1050.32 514.672C1052.67 513.904 1054.79 512.8 1056.61 511.336C1056.23 510.352 1055.89 509.272 1055.63 508.096C1055.53 507.664 1055.43 507.232 1055.39 506.8L1051.86 507.424L1051.5 505.072L1055.05 504.448C1054.95 503.584 1054.91 502.72 1054.86 501.832L1052.03 502.288L1051.67 499.984L1054.81 499.504V494.272H1057.35V499.096L1062.54 498.28ZM1059.87 494.176C1060.93 495.256 1061.72 496.192 1062.27 496.96L1060.33 498.328C1059.75 497.44 1058.96 496.456 1057.98 495.376L1059.87 494.176ZM1080.56 501.376V509.248H1072.09V512.944C1072.09 513.544 1072.43 513.856 1073.15 513.856H1084.04C1084.52 513.808 1084.83 513.616 1085 513.256C1085.12 512.992 1085.27 512.152 1085.41 510.76L1087.79 511.552C1087.62 512.992 1087.43 514 1087.21 514.6C1086.87 515.608 1086.11 516.136 1084.86 516.184H1072.09C1070.41 516.184 1069.57 515.44 1069.57 513.952V502.48C1069.09 503.008 1068.63 503.512 1068.15 503.992L1066.38 501.88C1068.44 500.056 1070.22 497.44 1071.75 494.08L1074.3 494.656C1074.01 495.328 1073.7 495.976 1073.41 496.6H1086.42C1086.42 502.984 1086.27 506.92 1086.03 508.408C1085.79 509.896 1084.79 510.664 1083.01 510.664C1082.72 510.664 1082.19 510.616 1081.47 510.544L1080.87 508.312C1081.55 508.384 1082.12 508.432 1082.6 508.432C1083.18 508.432 1083.51 508.048 1083.61 507.28C1083.75 506.464 1083.83 503.704 1083.87 498.976H1072.09C1071.56 499.84 1071.03 500.632 1070.48 501.376H1080.56ZM1072.09 506.992H1078.04V503.632H1072.09V506.992ZM1102.64 496.864H1104.75V514H1101.95V500.248C1100.91 501.184 1099.62 501.88 1098.03 502.336V499.552C1098.8 499.36 1099.62 499.024 1100.48 498.544C1101.35 498.016 1102.07 497.464 1102.64 496.864Z" fill="#1F32D6"/>
<rect x="1253" y="448" width="278" height="114" rx="7" fill="white"/>
<rect x="1253" y="448" width="278" height="114" rx="7" stroke="#1F32D6" stroke-width="2" stroke-dasharray="8 8"/>
<path d="M1320.08 511.144V513.688C1317.85 514.528 1315.31 515.224 1312.47 515.752L1312.11 513.112C1315.14 512.632 1317.8 511.96 1320.08 511.144ZM1315.59 494.128L1317.95 495.04C1316.89 497.776 1315.79 500.032 1314.68 501.808L1316.79 501.52C1317.23 500.608 1317.66 499.6 1318.14 498.544L1320.32 499.336C1318.5 503.176 1316.96 505.984 1315.71 507.784C1316.82 507.496 1317.95 507.112 1319.05 506.656V508.888C1316.84 509.752 1314.78 510.304 1312.83 510.592L1312.19 508.336C1312.62 508.144 1313 507.928 1313.31 507.64C1313.94 506.896 1314.73 505.6 1315.69 503.752C1314.63 503.896 1313.55 504.064 1312.4 504.232L1311.78 501.952C1312.16 501.808 1312.52 501.496 1312.81 501.04C1313.87 498.952 1314.8 496.648 1315.59 494.128ZM1325 507.088C1327.45 507.76 1329.71 508.576 1331.77 509.536L1330.55 511.456C1328.34 510.424 1326.03 509.608 1323.68 509.032L1325 507.088ZM1322.1 510.832C1325.94 511.84 1329.47 513.04 1332.63 514.48L1331.29 516.568C1327.86 515.032 1324.33 513.808 1320.68 512.92L1322.1 510.832ZM1324.02 494.176L1326.56 494.488C1326.37 495.136 1326.18 495.76 1325.96 496.336H1332.42V498.352C1331.48 500.176 1330.35 501.784 1329.06 503.176C1330.69 504.232 1332.47 505.144 1334.41 505.912L1333.11 508.168C1330.98 507.232 1329.03 506.128 1327.31 504.832C1325.39 506.416 1323.13 507.64 1320.59 508.504L1319.36 506.296C1321.62 505.624 1323.63 504.616 1325.39 503.272C1324.59 502.552 1323.85 501.832 1323.18 501.064C1322.65 501.664 1322.1 502.24 1321.5 502.792L1319.91 500.752C1321.93 498.952 1323.3 496.768 1324.02 494.176ZM1327.11 501.76C1328.03 500.824 1328.82 499.816 1329.54 498.736H1324.81C1324.69 498.928 1324.57 499.12 1324.47 499.312C1325.29 500.176 1326.15 500.992 1327.11 501.76ZM1336.02 498.04H1338.85C1338.56 496.936 1338.23 495.928 1337.87 494.992L1340.36 494.584C1340.65 495.592 1340.94 496.744 1341.23 498.04H1343.79V500.392H1336.02V498.04ZM1338.56 501.376C1338.95 504.064 1339.28 507.184 1339.59 510.688L1337.6 511.168C1337.31 508 1336.93 504.976 1336.5 502.048L1338.56 501.376ZM1343.67 510.712V513.112C1341.47 513.88 1339.09 514.552 1336.57 515.104L1335.92 512.656C1337.31 512.44 1338.68 512.152 1340.03 511.816C1340.46 508.456 1340.79 504.928 1341.01 501.184L1343.24 501.496C1342.98 505 1342.59 508.24 1342.11 511.216L1343.67 510.712ZM1354.59 498.664V495.28H1356.97V500.848H1345.02V495.28H1347.42V498.664H1349.75V494.344H1352.19V498.664H1354.59ZM1344.25 502.216H1357.91V504.52H1351.91C1351.76 505.096 1351.62 505.648 1351.43 506.176H1357.43V514.312C1357.43 515.704 1356.83 516.4 1355.63 516.4H1354.55L1353.95 514.192L1354.91 514.264C1355.1 514.264 1355.22 514.12 1355.22 513.856V508.384H1353.75V515.968H1351.69V508.384H1350.42V515.992H1348.35V508.384H1346.96V516.4H1344.71V506.176H1348.98C1349.17 505.624 1349.31 505.072 1349.43 504.52H1344.25V502.216ZM1364.63 503.152V506.608H1369.91V503.152H1364.63ZM1364.51 508.912C1364.19 511.888 1363.31 514.384 1361.84 516.352L1359.92 514.624C1361.34 512.608 1362.06 510.04 1362.11 506.92V495.04H1380.71V513.16C1380.71 515.008 1379.75 515.944 1377.85 515.944H1375.09L1374.42 513.496C1375.38 513.592 1376.24 513.64 1377.06 513.64C1377.78 513.64 1378.16 513.16 1378.16 512.248V508.912H1372.45V515.68H1369.91V508.912H1364.51ZM1378.16 506.608V503.152H1372.45V506.608H1378.16ZM1378.16 500.848V497.488H1372.45V500.848H1378.16ZM1369.91 497.488H1364.63V500.848H1369.91V497.488ZM1401.73 499.432H1388.91V503.248H1401.73V499.432ZM1388.89 505.696C1388.75 509.92 1387.67 513.568 1385.6 516.64L1383.73 514.936C1385.51 512.368 1386.42 509.032 1386.44 504.952V496.984H1394.1C1393.71 496.096 1393.31 495.28 1392.85 494.512L1395.54 494.08C1395.92 494.944 1396.28 495.904 1396.67 496.984H1404.27V505.696H1388.89ZM1410.95 494.296L1413.35 494.824C1413.18 495.496 1413.01 496.12 1412.82 496.744H1416.92V499.12H1412C1411.67 499.936 1411.33 500.704 1410.97 501.424H1416.27V503.68H1414.33V506.104H1417.31V508.408H1414.33V512.608C1415.39 512.128 1416.42 511.504 1417.47 510.736L1417.88 512.992C1416.15 514.216 1414.16 515.224 1411.91 515.992L1410.87 513.856C1411.55 513.616 1411.88 513.304 1411.88 512.872V508.408H1408.67V506.104H1411.88V503.68H1410.59V502.144C1410.35 502.576 1410.11 502.984 1409.87 503.392L1407.83 502.096C1409.31 499.648 1410.35 497.056 1410.95 494.296ZM1428.54 498.28L1428.9 500.584L1423.4 501.448C1423.43 502.336 1423.47 503.176 1423.55 503.992L1429.16 502.984L1429.55 505.336L1423.81 506.368L1423.86 506.824C1424.03 507.856 1424.24 508.792 1424.48 509.608C1425.42 508.624 1426.28 507.52 1427.07 506.32L1428.97 507.592C1427.87 509.248 1426.67 510.688 1425.39 511.936C1425.99 512.992 1426.55 513.544 1427.05 513.544C1427.48 513.544 1427.84 512.44 1428.18 510.256L1430.34 511.672C1429.64 514.696 1428.63 516.208 1427.31 516.208C1426.16 516.184 1425.08 515.44 1424.03 514L1423.67 513.448C1421.82 514.888 1419.83 515.92 1417.71 516.568L1416.32 514.672C1418.67 513.904 1420.79 512.8 1422.61 511.336C1422.23 510.352 1421.89 509.272 1421.63 508.096C1421.53 507.664 1421.43 507.232 1421.39 506.8L1417.86 507.424L1417.5 505.072L1421.05 504.448C1420.95 503.584 1420.91 502.72 1420.86 501.832L1418.03 502.288L1417.67 499.984L1420.81 499.504V494.272H1423.35V499.096L1428.54 498.28ZM1425.87 494.176C1426.93 495.256 1427.72 496.192 1428.27 496.96L1426.33 498.328C1425.75 497.44 1424.96 496.456 1423.98 495.376L1425.87 494.176ZM1446.56 501.376V509.248H1438.09V512.944C1438.09 513.544 1438.43 513.856 1439.15 513.856H1450.04C1450.52 513.808 1450.83 513.616 1451 513.256C1451.12 512.992 1451.27 512.152 1451.41 510.76L1453.79 511.552C1453.62 512.992 1453.43 514 1453.21 514.6C1452.87 515.608 1452.11 516.136 1450.86 516.184H1438.09C1436.41 516.184 1435.57 515.44 1435.57 513.952V502.48C1435.09 503.008 1434.63 503.512 1434.15 503.992L1432.38 501.88C1434.44 500.056 1436.22 497.44 1437.75 494.08L1440.3 494.656C1440.01 495.328 1439.7 495.976 1439.41 496.6H1452.42C1452.42 502.984 1452.27 506.92 1452.03 508.408C1451.79 509.896 1450.79 510.664 1449.01 510.664C1448.72 510.664 1448.19 510.616 1447.47 510.544L1446.87 508.312C1447.55 508.384 1448.12 508.432 1448.6 508.432C1449.18 508.432 1449.51 508.048 1449.61 507.28C1449.75 506.464 1449.83 503.704 1449.87 498.976H1438.09C1437.56 499.84 1437.03 500.632 1436.48 501.376H1446.56ZM1438.09 506.992H1444.04V503.632H1438.09V506.992ZM1468.64 496.864H1470.75V514H1467.95V500.248C1466.91 501.184 1465.62 501.88 1464.03 502.336V499.552C1464.8 499.36 1465.62 499.024 1466.48 498.544C1467.35 498.016 1468.07 497.464 1468.64 496.864Z" fill="#1F32D6"/>
<rect x="1253" y="580" width="278" height="114" rx="7" fill="white"/>
<rect x="1253" y="580" width="278" height="114" rx="7" stroke="#1F32D6" stroke-width="2" stroke-dasharray="8 8"/>
<path d="M1318.31 643.144V645.688C1316.08 646.528 1313.53 647.224 1310.7 647.752L1310.34 645.112C1313.36 644.632 1316.03 643.96 1318.31 643.144ZM1313.82 626.128L1316.17 627.04C1315.12 629.776 1314.01 632.032 1312.91 633.808L1315.02 633.52C1315.45 632.608 1315.88 631.6 1316.36 630.544L1318.55 631.336C1316.72 635.176 1315.19 637.984 1313.94 639.784C1315.04 639.496 1316.17 639.112 1317.28 638.656V640.888C1315.07 641.752 1313 642.304 1311.06 642.592L1310.41 640.336C1310.84 640.144 1311.23 639.928 1311.54 639.64C1312.16 638.896 1312.96 637.6 1313.92 635.752C1312.86 635.896 1311.78 636.064 1310.63 636.232L1310 633.952C1310.39 633.808 1310.75 633.496 1311.04 633.04C1312.09 630.952 1313.03 628.648 1313.82 626.128ZM1323.23 639.088C1325.68 639.76 1327.93 640.576 1330 641.536L1328.77 643.456C1326.56 642.424 1324.26 641.608 1321.91 641.032L1323.23 639.088ZM1320.32 642.832C1324.16 643.84 1327.69 645.04 1330.86 646.48L1329.52 648.568C1326.08 647.032 1322.56 645.808 1318.91 644.92L1320.32 642.832ZM1322.24 626.176L1324.79 626.488C1324.6 627.136 1324.4 627.76 1324.19 628.336H1330.64V630.352C1329.71 632.176 1328.58 633.784 1327.28 635.176C1328.92 636.232 1330.69 637.144 1332.64 637.912L1331.34 640.168C1329.2 639.232 1327.26 638.128 1325.53 636.832C1323.61 638.416 1321.36 639.64 1318.81 640.504L1317.59 638.296C1319.84 637.624 1321.86 636.616 1323.61 635.272C1322.82 634.552 1322.08 633.832 1321.4 633.064C1320.88 633.664 1320.32 634.24 1319.72 634.792L1318.14 632.752C1320.16 630.952 1321.52 628.768 1322.24 626.176ZM1325.34 633.76C1326.25 632.824 1327.04 631.816 1327.76 630.736H1323.04C1322.92 630.928 1322.8 631.12 1322.7 631.312C1323.52 632.176 1324.38 632.992 1325.34 633.76ZM1334.24 630.04H1337.08C1336.79 628.936 1336.45 627.928 1336.09 626.992L1338.59 626.584C1338.88 627.592 1339.16 628.744 1339.45 630.04H1342.02V632.392H1334.24V630.04ZM1336.79 633.376C1337.17 636.064 1337.51 639.184 1337.82 642.688L1335.83 643.168C1335.54 640 1335.16 636.976 1334.72 634.048L1336.79 633.376ZM1341.9 642.712V645.112C1339.69 645.88 1337.32 646.552 1334.8 647.104L1334.15 644.656C1335.54 644.44 1336.91 644.152 1338.25 643.816C1338.68 640.456 1339.02 636.928 1339.24 633.184L1341.47 633.496C1341.2 637 1340.82 640.24 1340.34 643.216L1341.9 642.712ZM1352.82 630.664V627.28H1355.2V632.848H1343.24V627.28H1345.64V630.664H1347.97V626.344H1350.42V630.664H1352.82ZM1342.48 634.216H1356.13V636.52H1350.13C1349.99 637.096 1349.84 637.648 1349.65 638.176H1355.65V646.312C1355.65 647.704 1355.05 648.4 1353.85 648.4H1352.77L1352.17 646.192L1353.13 646.264C1353.32 646.264 1353.44 646.12 1353.44 645.856V640.384H1351.98V647.968H1349.92V640.384H1348.64V647.992H1346.58V640.384H1345.19V648.4H1342.93V638.176H1347.2C1347.4 637.624 1347.54 637.072 1347.66 636.52H1342.48V634.216ZM1362.85 635.152V638.608H1368.13V635.152H1362.85ZM1362.73 640.912C1362.42 643.888 1361.53 646.384 1360.07 648.352L1358.15 646.624C1359.56 644.608 1360.28 642.04 1360.33 638.92V627.04H1378.93V645.16C1378.93 647.008 1377.97 647.944 1376.08 647.944H1373.32L1372.64 645.496C1373.6 645.592 1374.47 645.64 1375.28 645.64C1376 645.64 1376.39 645.16 1376.39 644.248V640.912H1370.68V647.68H1368.13V640.912H1362.73ZM1376.39 638.608V635.152H1370.68V638.608H1376.39ZM1376.39 632.848V629.488H1370.68V632.848H1376.39ZM1368.13 629.488H1362.85V632.848H1368.13V629.488ZM1399.96 631.432H1387.14V635.248H1399.96V631.432ZM1387.12 637.696C1386.97 641.92 1385.89 645.568 1383.83 648.64L1381.96 646.936C1383.73 644.368 1384.64 641.032 1384.67 636.952V628.984H1392.32C1391.94 628.096 1391.53 627.28 1391.08 626.512L1393.76 626.08C1394.15 626.944 1394.51 627.904 1394.89 628.984H1402.5V637.696H1387.12ZM1409.17 626.296L1411.57 626.824C1411.4 627.496 1411.24 628.12 1411.04 628.744H1415.15V631.12H1410.23C1409.89 631.936 1409.56 632.704 1409.2 633.424H1414.5V635.68H1412.56V638.104H1415.53V640.408H1412.56V644.608C1413.61 644.128 1414.64 643.504 1415.7 642.736L1416.11 644.992C1414.38 646.216 1412.39 647.224 1410.13 647.992L1409.1 645.856C1409.77 645.616 1410.11 645.304 1410.11 644.872V640.408H1406.89V638.104H1410.11V635.68H1408.81V634.144C1408.57 634.576 1408.33 634.984 1408.09 635.392L1406.05 634.096C1407.54 631.648 1408.57 629.056 1409.17 626.296ZM1426.76 630.28L1427.12 632.584L1421.63 633.448C1421.65 634.336 1421.7 635.176 1421.77 635.992L1427.39 634.984L1427.77 637.336L1422.04 638.368L1422.08 638.824C1422.25 639.856 1422.47 640.792 1422.71 641.608C1423.64 640.624 1424.51 639.52 1425.3 638.32L1427.2 639.592C1426.09 641.248 1424.89 642.688 1423.62 643.936C1424.22 644.992 1424.77 645.544 1425.28 645.544C1425.71 645.544 1426.07 644.44 1426.4 642.256L1428.56 643.672C1427.87 646.696 1426.86 648.208 1425.54 648.208C1424.39 648.184 1423.31 647.44 1422.25 646L1421.89 645.448C1420.04 646.888 1418.05 647.92 1415.94 648.568L1414.55 646.672C1416.9 645.904 1419.01 644.8 1420.84 643.336C1420.45 642.352 1420.12 641.272 1419.85 640.096C1419.76 639.664 1419.66 639.232 1419.61 638.8L1416.08 639.424L1415.72 637.072L1419.28 636.448C1419.18 635.584 1419.13 634.72 1419.08 633.832L1416.25 634.288L1415.89 631.984L1419.04 631.504V626.272H1421.58V631.096L1426.76 630.28ZM1424.1 626.176C1425.16 627.256 1425.95 628.192 1426.5 628.96L1424.56 630.328C1423.98 629.44 1423.19 628.456 1422.2 627.376L1424.1 626.176ZM1444.79 633.376V641.248H1436.32V644.944C1436.32 645.544 1436.65 645.856 1437.37 645.856H1448.27C1448.75 645.808 1449.06 645.616 1449.23 645.256C1449.35 644.992 1449.49 644.152 1449.64 642.76L1452.01 643.552C1451.84 644.992 1451.65 646 1451.44 646.6C1451.1 647.608 1450.33 648.136 1449.08 648.184H1436.32C1434.64 648.184 1433.8 647.44 1433.8 645.952V634.48C1433.32 635.008 1432.86 635.512 1432.38 635.992L1430.6 633.88C1432.67 632.056 1434.44 629.44 1435.98 626.08L1438.52 626.656C1438.24 627.328 1437.92 627.976 1437.64 628.6H1450.64C1450.64 634.984 1450.5 638.92 1450.26 640.408C1450.02 641.896 1449.01 642.664 1447.24 642.664C1446.95 642.664 1446.42 642.616 1445.7 642.544L1445.1 640.312C1445.77 640.384 1446.35 640.432 1446.83 640.432C1447.4 640.432 1447.74 640.048 1447.84 639.28C1447.98 638.464 1448.05 635.704 1448.1 630.976H1436.32C1435.79 631.84 1435.26 632.632 1434.71 633.376H1444.79ZM1436.32 638.992H1442.27V635.632H1436.32V638.992ZM1468.76 628.528C1470.42 628.528 1471.79 629.008 1472.87 629.968C1473.92 630.928 1474.45 632.152 1474.45 633.688C1474.45 635.176 1473.88 636.52 1472.77 637.744C1472.1 638.464 1470.9 639.376 1469.22 640.504C1467.47 641.656 1466.41 642.664 1466.03 643.528H1474.48V646H1462.52C1462.52 644.248 1463.08 642.736 1464.23 641.44C1464.85 640.72 1466.17 639.664 1468.16 638.296C1469.27 637.528 1470.04 636.88 1470.52 636.376C1471.26 635.536 1471.64 634.624 1471.64 633.664C1471.64 632.728 1471.38 632.032 1470.9 631.576C1470.4 631.12 1469.65 630.904 1468.67 630.904C1467.61 630.904 1466.82 631.264 1466.29 631.984C1465.76 632.656 1465.48 633.688 1465.43 635.032H1462.62C1462.64 633.112 1463.2 631.576 1464.3 630.4C1465.43 629.152 1466.92 628.528 1468.76 628.528Z" fill="#1F32D6"/>
<path d="M1024 351L1029.77 341H1018.23L1024 351ZM1024 309.667V308.667H1023V309.667H1024ZM1395 309.667H1396V308.667H1395V309.667ZM1395 351L1400.77 341H1389.23L1395 351ZM1025 342V309.667H1023V342H1025ZM1024 310.667H1395V308.667H1024V310.667ZM1394 309.667V342H1396V309.667H1394Z" fill="#4C5BDE"/>
<path d="M1209 271L1209 310.365" stroke="#4C5BDE" stroke-width="2"/>
<path d="M886 506.9L876 501.127L876 512.674L886 506.9ZM854 506.9L853 506.9L853 507.9L854 507.9L854 506.9ZM854 391L854 390L853 390L853 391L854 391ZM877 505.9L854 505.9L854 507.9L877 507.9L877 505.9ZM855 506.9L855 391L853 391L853 506.9L855 506.9ZM854 392L886 392L886 390L854 390L854 392Z" fill="#4C5BDE"/>
<path d="M1252 506.9L1242 501.127L1242 512.674L1252 506.9ZM1220 506.9L1219 506.9L1219 507.9L1220 507.9L1220 506.9ZM1220 391L1220 390L1219 390L1219 391L1220 391ZM1243 505.9L1220 505.9L1220 507.9L1243 507.9L1243 505.9ZM1221 506.9L1221 391L1219 391L1219 506.9L1221 506.9ZM1220 392L1252 392L1252 390L1220 390L1220 392Z" fill="#4C5BDE"/>
<path d="M1252 635L1242 629.226L1242 640.774L1252 635ZM1220 635L1219 635L1219 636L1220 636L1220 635ZM1220 391L1220 390L1219 390L1219 391L1220 391ZM1243 634L1220 634L1220 636L1243 636L1243 634ZM1221 635L1221 391L1219 391L1219 635L1221 635ZM1220 392L1252 392L1252 390L1220 390L1220 392Z" fill="#4C5BDE"/>
<rect x="1081" y="179" width="257" height="91" rx="7" fill="#1F32D6"/>
<rect x="1081" y="179" width="257" height="91" rx="7" stroke="#1F32D6" stroke-width="2"/>
<path d="M1179.1 217.808H1176.53V215.36H1184.16V217.808H1181.64V227.624C1182.56 227.312 1183.4 227 1184.21 226.688V229.184C1182.1 230.048 1179.7 230.864 1176.96 231.608L1176.22 229.136C1177.23 228.896 1178.19 228.632 1179.1 228.392V217.808ZM1184.84 214.04H1198.37V216.488H1192.83C1192.73 217.112 1192.61 217.736 1192.47 218.312H1197.48V230.048H1195.04V220.616H1188.1V230.048H1185.68V218.312H1190C1190.14 217.712 1190.26 217.112 1190.36 216.488H1184.84V214.04ZM1193.91 229.832C1195.78 231.176 1197.34 232.52 1198.64 233.84L1196.84 235.64C1195.76 234.344 1194.22 232.928 1192.23 231.44L1193.91 229.832ZM1190.26 221.696H1192.76V225.92C1192.61 228.536 1191.89 230.648 1190.6 232.232C1189.32 233.672 1187.26 234.8 1184.38 235.592L1183.01 233.456C1185.8 232.688 1187.69 231.752 1188.68 230.648C1189.61 229.448 1190.14 227.864 1190.26 225.92V221.696ZM1219.8 214.208V235.496H1217.28V234.104H1205.38V235.544H1202.84V214.208H1219.8ZM1205.38 231.68H1217.28V227.936H1205.38V231.68ZM1205.38 225.656H1217.28V222.176H1205.38V225.656ZM1205.38 219.872H1217.28V216.608H1205.38V219.872ZM1238.76 215.528C1240.42 215.528 1241.79 216.008 1242.87 216.968C1243.92 217.928 1244.45 219.152 1244.45 220.688C1244.45 222.176 1243.88 223.52 1242.77 224.744C1242.1 225.464 1240.9 226.376 1239.22 227.504C1237.47 228.656 1236.41 229.664 1236.03 230.528H1244.48V233H1232.52C1232.52 231.248 1233.08 229.736 1234.23 228.44C1234.85 227.72 1236.17 226.664 1238.16 225.296C1239.27 224.528 1240.04 223.88 1240.52 223.376C1241.26 222.536 1241.64 221.624 1241.64 220.664C1241.64 219.728 1241.38 219.032 1240.9 218.576C1240.4 218.12 1239.65 217.904 1238.67 217.904C1237.61 217.904 1236.82 218.264 1236.29 218.984C1235.76 219.656 1235.48 220.688 1235.43 222.032H1232.62C1232.64 220.112 1233.2 218.576 1234.3 217.4C1235.43 216.152 1236.92 215.528 1238.76 215.528Z" fill="white"/>
<path d="M716 35.192V38.584C713.024 39.704 709.632 40.632 705.856 41.336L705.376 37.816C709.408 37.176 712.96 36.28 716 35.192ZM710.016 12.504L713.152 13.72C711.744 17.368 710.272 20.376 708.8 22.744L711.616 22.36C712.192 21.144 712.768 19.8 713.408 18.392L716.32 19.448C713.888 24.568 711.84 28.312 710.176 30.712C711.648 30.328 713.152 29.816 714.624 29.208V32.184C711.68 33.336 708.928 34.072 706.336 34.456L705.472 31.448C706.048 31.192 706.56 30.904 706.976 30.52C707.808 29.528 708.864 27.8 710.144 25.336C708.736 25.528 707.296 25.752 705.76 25.976L704.928 22.936C705.44 22.744 705.92 22.328 706.304 21.72C707.712 18.936 708.96 15.864 710.016 12.504ZM722.56 29.784C725.824 30.68 728.832 31.768 731.584 33.048L729.952 35.608C727.008 34.232 723.936 33.144 720.8 32.376L722.56 29.784ZM718.688 34.776C723.808 36.12 728.512 37.72 732.736 39.64L730.944 42.424C726.368 40.376 721.664 38.744 716.8 37.56L718.688 34.776ZM721.248 12.568L724.64 12.984C724.384 13.848 724.128 14.68 723.84 15.448H732.448V18.136C731.2 20.568 729.696 22.712 727.968 24.568C730.144 25.976 732.512 27.192 735.104 28.216L733.376 31.224C730.528 29.976 727.936 28.504 725.632 26.776C723.072 28.888 720.064 30.52 716.672 31.672L715.04 28.728C718.048 27.832 720.736 26.488 723.072 24.696C722.016 23.736 721.024 22.776 720.128 21.752C719.424 22.552 718.688 23.32 717.888 24.056L715.776 21.336C718.464 18.936 720.288 16.024 721.248 12.568ZM725.376 22.68C726.592 21.432 727.648 20.088 728.608 18.648H722.304C722.144 18.904 721.984 19.16 721.856 19.416C722.944 20.568 724.096 21.656 725.376 22.68ZM737.248 17.72H741.024C740.64 16.248 740.192 14.904 739.712 13.656L743.04 13.112C743.424 14.456 743.808 15.992 744.192 17.72H747.616V20.856H737.248V17.72ZM740.64 22.168C741.152 25.752 741.6 29.912 742.016 34.584L739.36 35.224C738.976 31 738.464 26.968 737.888 23.064L740.64 22.168ZM747.456 34.616V37.816C744.512 38.84 741.344 39.736 737.984 40.472L737.12 37.208C738.976 36.92 740.8 36.536 742.592 36.088C743.168 31.608 743.616 26.904 743.904 21.912L746.88 22.328C746.528 27 746.016 31.32 745.376 35.288L747.456 34.616ZM762.016 18.552V14.04H765.184V21.464H749.248V14.04H752.448V18.552H755.552V12.792H758.816V18.552H762.016ZM748.224 23.288H766.432V26.36H758.432C758.24 27.128 758.048 27.864 757.792 28.568H765.792V39.416C765.792 41.272 764.992 42.2 763.392 42.2H761.952L761.152 39.256L762.432 39.352C762.688 39.352 762.848 39.16 762.848 38.808V31.512H760.896V41.624H758.144V31.512H756.448V41.656H753.696V31.512H751.84V42.2H748.832V28.568H754.528C754.784 27.832 754.976 27.096 755.136 26.36H748.224V23.288ZM775.392 24.536V29.144H782.432V24.536H775.392ZM775.232 32.216C774.816 36.184 773.632 39.512 771.68 42.136L769.12 39.832C771.008 37.144 771.968 33.72 772.032 29.56V13.72H796.832V37.88C796.832 40.344 795.552 41.592 793.024 41.592H789.344L788.448 38.328C789.728 38.456 790.88 38.52 791.968 38.52C792.928 38.52 793.44 37.88 793.44 36.664V32.216H785.824V41.24H782.432V32.216H775.232ZM793.44 29.144V24.536H785.824V29.144H793.44ZM793.44 21.464V16.984H785.824V21.464H793.44ZM782.432 16.984H775.392V21.464H782.432V16.984ZM824.864 19.576H807.776V24.664H824.864V19.576ZM807.744 27.928C807.552 33.56 806.112 38.424 803.36 42.52L800.864 40.248C803.232 36.824 804.448 32.376 804.48 26.936V16.312H814.688C814.176 15.128 813.632 14.04 813.024 13.016L816.608 12.44C817.12 13.592 817.6 14.872 818.112 16.312H828.256V27.928H807.744ZM837.152 12.728L840.352 13.432C840.128 14.328 839.904 15.16 839.648 15.992H845.12V19.16H838.56C838.112 20.248 837.664 21.272 837.184 22.232H844.256V25.24H841.664V28.472H845.632V31.544H841.664V37.144C843.072 36.504 844.448 35.672 845.856 34.648L846.4 37.656C844.096 39.288 841.44 40.632 838.432 41.656L837.056 38.808C837.952 38.488 838.4 38.072 838.4 37.496V31.544H834.112V28.472H838.4V25.24H836.672V23.192C836.352 23.768 836.032 24.312 835.712 24.856L832.992 23.128C834.976 19.864 836.352 16.408 837.152 12.728ZM860.608 18.04L861.088 21.112L853.76 22.264C853.792 23.448 853.856 24.568 853.952 25.656L861.44 24.312L861.952 27.448L854.304 28.824L854.368 29.432C854.592 30.808 854.88 32.056 855.2 33.144C856.448 31.832 857.6 30.36 858.656 28.76L861.184 30.456C859.712 32.664 858.112 34.584 856.416 36.248C857.216 37.656 857.952 38.392 858.624 38.392C859.2 38.392 859.68 36.92 860.128 34.008L863.008 35.896C862.08 39.928 860.736 41.944 858.976 41.944C857.44 41.912 856 40.92 854.592 39L854.112 38.264C851.648 40.184 848.992 41.56 846.176 42.424L844.32 39.896C847.456 38.872 850.272 37.4 852.704 35.448C852.192 34.136 851.744 32.696 851.392 31.128C851.264 30.552 851.136 29.976 851.072 29.4L846.368 30.232L845.888 27.096L850.624 26.264C850.496 25.112 850.432 23.96 850.368 22.776L846.592 23.384L846.112 20.312L850.304 19.672V12.696H853.696V19.128L860.608 18.04ZM857.056 12.568C858.464 14.008 859.52 15.256 860.256 16.28L857.664 18.104C856.896 16.92 855.84 15.608 854.528 14.168L857.056 12.568ZM884.64 22.168V32.664H873.344V37.592C873.344 38.392 873.792 38.808 874.752 38.808H889.28C889.92 38.744 890.336 38.488 890.56 38.008C890.72 37.656 890.912 36.536 891.104 34.68L894.272 35.736C894.048 37.656 893.792 39 893.504 39.8C893.056 41.144 892.032 41.848 890.368 41.912H873.344C871.104 41.912 869.984 40.92 869.984 38.936V23.64C869.344 24.344 868.736 25.016 868.096 25.656L865.728 22.84C868.48 20.408 870.848 16.92 872.896 12.44L876.288 13.208C875.904 14.104 875.488 14.968 875.104 15.8H892.448C892.448 24.312 892.256 29.56 891.936 31.544C891.616 33.528 890.272 34.552 887.904 34.552C887.52 34.552 886.816 34.488 885.856 34.392L885.056 31.416C885.952 31.512 886.72 31.576 887.36 31.576C888.128 31.576 888.576 31.064 888.704 30.04C888.896 28.952 888.992 25.272 889.056 18.968H873.344C872.64 20.12 871.936 21.176 871.2 22.168H884.64ZM873.344 29.656H881.28V25.176H873.344V29.656Z" fill="#1F32D6"/>
</svg>
