<svg width="24" height="24" viewBox="0 0 24 24" fill="none" xmlns="http://www.w3.org/2000/svg">
<path fill-rule="evenodd" clip-rule="evenodd" d="M8 2C6.34315 2 5 3.34315 5 5V7.25H3.75C3.33579 7.25 3 7.58579 3 8C3 8.41421 3.33579 8.75 3.75 8.75H5V11.25H3.75C3.33579 11.25 3 11.5858 3 12C3 12.4142 3.33579 12.75 3.75 12.75H5V15.25H3.75C3.33579 15.25 3 15.5858 3 16C3 16.4142 3.33579 16.75 3.75 16.75H5V19C5 20.6569 6.34315 22 8 22H18C19.6569 22 21 20.6569 21 19V5C21 3.34315 19.6569 2 18 2H8ZM18 3.5H16.75V20.5H18C18.8284 20.5 19.5 19.8284 19.5 19V5C19.5 4.17157 18.8284 3.5 18 3.5ZM6.5 16.75V19C6.5 19.8284 7.17157 20.5 8 20.5H15.25V3.5H8C7.17157 3.5 6.5 4.17157 6.5 5V7.25H8.25C8.66421 7.25 9 7.58579 9 8C9 8.41421 8.66421 8.75 8.25 8.75H6.5V11.25H8.25C8.66421 11.25 9 11.5858 9 12C9 12.4142 8.66421 12.75 8.25 12.75H6.5V15.25H8.25C8.66421 15.25 9 15.5858 9 16C9 16.4142 8.66421 16.75 8.25 16.75H6.5Z" fill="#1F32D6"/>
</svg>
