<svg width="32" height="32" viewBox="0 0 32 32" fill="none" xmlns="http://www.w3.org/2000/svg">
<rect x="0.5" y="0.5" width="31" height="31" rx="15.5" stroke="#EDEEF3"/>
<path fill-rule="evenodd" clip-rule="evenodd" d="M8.49046 8.49049C9.63743 7.34352 11.3427 6.91666 13.5 6.91666H18.5C20.6573 6.91666 22.3625 7.34352 23.5095 8.49049C24.6564 9.63746 25.0833 11.3427 25.0833 13.5V16.8333C25.0833 17.2475 24.7475 17.5833 24.3333 17.5833C23.9191 17.5833 23.5833 17.2475 23.5833 16.8333V13.5C23.5833 11.4906 23.1768 10.2792 22.4488 9.55115C21.7208 8.82312 20.5093 8.41666 18.5 8.41666H13.5C11.4906 8.41666 10.2792 8.82312 9.55112 9.55115C8.82309 10.2792 8.41663 11.4906 8.41663 13.5V18.5C8.41663 20.5094 8.82309 21.7208 9.55112 22.4488C10.2792 23.1769 11.4906 23.5833 13.5 23.5833H16.8333C17.2475 23.5833 17.5833 23.9191 17.5833 24.3333C17.5833 24.7475 17.2475 25.0833 16.8333 25.0833H13.5C11.3427 25.0833 9.63743 24.6565 8.49046 23.5095C7.34349 22.3625 6.91663 20.6573 6.91663 18.5V13.5C6.91663 11.3427 7.34349 9.63746 8.49046 8.49049Z" fill="#1C1C1C"/>
<path fill-rule="evenodd" clip-rule="evenodd" d="M8.49046 8.49049C9.63743 7.34352 11.3427 6.91666 13.5 6.91666H18.5C20.6573 6.91666 22.3625 7.34352 23.5095 8.49049C24.6564 9.63746 25.0833 11.3427 25.0833 13.5V16.8333C25.0833 17.2475 24.7475 17.5833 24.3333 17.5833C23.9191 17.5833 23.5833 17.2475 23.5833 16.8333V13.5C23.5833 11.4906 23.1768 10.2792 22.4488 9.55115C21.7208 8.82312 20.5093 8.41666 18.5 8.41666H13.5C11.4906 8.41666 10.2792 8.82312 9.55112 9.55115C8.82309 10.2792 8.41663 11.4906 8.41663 13.5V18.5C8.41663 20.5094 8.82309 21.7208 9.55112 22.4488C10.2792 23.1769 11.4906 23.5833 13.5 23.5833H16.8333C17.2475 23.5833 17.5833 23.9191 17.5833 24.3333C17.5833 24.7475 17.2475 25.0833 16.8333 25.0833H13.5C11.3427 25.0833 9.63743 24.6565 8.49046 23.5095C7.34349 22.3625 6.91663 20.6573 6.91663 18.5V13.5C6.91663 11.3427 7.34349 9.63746 8.49046 8.49049Z" fill="#1C1C1C"/>
<path fill-rule="evenodd" clip-rule="evenodd" d="M8.49046 8.49049C9.63743 7.34352 11.3427 6.91666 13.5 6.91666H18.5C20.6573 6.91666 22.3625 7.34352 23.5095 8.49049C24.6564 9.63746 25.0833 11.3427 25.0833 13.5V16.8333C25.0833 17.2475 24.7475 17.5833 24.3333 17.5833C23.9191 17.5833 23.5833 17.2475 23.5833 16.8333V13.5C23.5833 11.4906 23.1768 10.2792 22.4488 9.55115C21.7208 8.82312 20.5093 8.41666 18.5 8.41666H13.5C11.4906 8.41666 10.2792 8.82312 9.55112 9.55115C8.82309 10.2792 8.41663 11.4906 8.41663 13.5V18.5C8.41663 20.5094 8.82309 21.7208 9.55112 22.4488C10.2792 23.1769 11.4906 23.5833 13.5 23.5833H16.8333C17.2475 23.5833 17.5833 23.9191 17.5833 24.3333C17.5833 24.7475 17.2475 25.0833 16.8333 25.0833H13.5C11.3427 25.0833 9.63743 24.6565 8.49046 23.5095C7.34349 22.3625 6.91663 20.6573 6.91663 18.5V13.5C6.91663 11.3427 7.34349 9.63746 8.49046 8.49049Z" fill="#1C1C1C"/>
<path fill-rule="evenodd" clip-rule="evenodd" d="M19.4166 22.4583C19.4166 22.0441 19.7524 21.7083 20.1666 21.7083H24.75C25.1642 21.7083 25.5 22.0441 25.5 22.4583C25.5 22.8726 25.1642 23.2083 24.75 23.2083H20.1666C19.7524 23.2083 19.4166 22.8726 19.4166 22.4583Z" fill="#1C1C1C"/>
<path fill-rule="evenodd" clip-rule="evenodd" d="M22.4584 19.4167C22.8726 19.4167 23.2084 19.7524 23.2084 20.1667V24.75C23.2084 25.1642 22.8726 25.5 22.4584 25.5C22.0442 25.5 21.7084 25.1642 21.7084 24.75V20.1667C21.7084 19.7524 22.0442 19.4167 22.4584 19.4167Z" fill="#1C1C1C"/>
<path fill-rule="evenodd" clip-rule="evenodd" d="M11.8334 14C12.2476 14 12.5834 14.3358 12.5834 14.75V17.25C12.5834 17.6642 12.2476 18 11.8334 18C11.4192 18 11.0834 17.6642 11.0834 17.25V14.75C11.0834 14.3358 11.4192 14 11.8334 14Z" fill="#1C1C1C"/>
<path fill-rule="evenodd" clip-rule="evenodd" d="M16 14C16.4142 14 16.75 14.3358 16.75 14.75V17.25C16.75 17.6642 16.4142 18 16 18C15.5858 18 15.25 17.6642 15.25 17.25V14.75C15.25 14.3358 15.5858 14 16 14Z" fill="#1C1C1C"/>
<path fill-rule="evenodd" clip-rule="evenodd" d="M20.1666 14C20.5808 14 20.9166 14.3358 20.9166 14.75V17.25C20.9166 17.6642 20.5808 18 20.1666 18C19.7524 18 19.4166 17.6642 19.4166 17.25V14.75C19.4166 14.3358 19.7524 14 20.1666 14Z" fill="#1C1C1C"/>
</svg>
