<svg width="34" height="34" viewBox="0 0 34 34" fill="none" xmlns="http://www.w3.org/2000/svg">
<rect x="1" y="1" width="32" height="32" rx="16" stroke="#EDEEF3"/>
<path d="M9 16.1259C9 16.8466 9.56 17.6789 10.2444 17.9706L16.28 20.5619C16.7422 20.7592 17.2667 20.7592 17.72 20.5619L23.7556 17.9706C24.44 17.6789 25 16.8466 25 16.1259M9 20.416C9 21.214 9.48889 21.9347 10.2444 22.2608L16.28 24.852C16.7422 25.0493 17.2667 25.0493 17.72 24.852L23.7556 22.2608C24.5111 21.9347 25 21.214 25 20.416M17.8978 9.19306L23.1422 11.4411C24.6533 12.0846 24.6533 13.1485 23.1422 13.7921L17.8978 16.0401C17.3022 16.2975 16.3244 16.2975 15.7289 16.0401L10.4844 13.7921C8.97333 13.1485 8.97333 12.0846 10.4844 11.4411L15.7289 9.19306C16.3244 8.93565 17.3022 8.93565 17.8978 9.19306Z" stroke="#1C1C1C" stroke-width="1.5" stroke-linecap="round" stroke-linejoin="round"/>
</svg>
