<svg width="16" height="16" viewBox="0 0 16 16" fill="none" xmlns="http://www.w3.org/2000/svg">
<path d="M8.00007 12.2C8.38667 12.2 8.70007 11.8866 8.70007 11.5C8.70007 11.1134 8.38667 10.8 8.00007 10.8C7.61347 10.8 7.30007 11.1134 7.30007 11.5C7.30007 11.8866 7.61347 12.2 8.00007 12.2ZM8.00007 3.79996C6.45307 3.79996 5.20007 5.05296 5.20007 6.59996H6.60007C6.60007 5.82996 7.23007 5.19996 8.00007 5.19996C8.77007 5.19996 9.40007 5.82996 9.40007 6.59996C9.40007 7.99996 7.30007 7.82496 7.30007 10.1H8.70007C8.70007 8.52496 10.8001 8.34996 10.8001 6.59996C10.8001 5.05296 9.54707 3.79996 8.00007 3.79996Z" fill="#73798B"/>
<path fill-rule="evenodd" clip-rule="evenodd" d="M8 2.3125C6.43037 2.3125 5.00939 2.94876 3.97908 3.97908C2.94876 5.00939 2.3125 6.43037 2.3125 8C2.3125 9.56963 2.94876 10.9906 3.97908 12.0209C5.00939 13.0512 6.43037 13.6875 8 13.6875C9.56963 13.6875 10.9906 13.0512 12.0209 12.0209C13.0512 10.9906 13.6875 9.56963 13.6875 8C13.6875 6.43037 13.0512 5.00939 12.0209 3.97908C10.9906 2.94876 9.56963 2.3125 8 2.3125ZM3.051 3.051C4.31709 1.78491 6.06788 1 8 1C9.93212 1 11.6829 1.78491 12.949 3.051C14.2151 4.31709 15 6.06788 15 8C15 9.93212 14.2151 11.6829 12.949 12.949C11.6829 14.2151 9.93212 15 8 15C6.06788 15 4.31709 14.2151 3.051 12.949C1.78491 11.6829 1 9.93212 1 8C1 6.06788 1.78491 4.31709 3.051 3.051Z" fill="#73798B"/>
</svg>
