<svg width="32" height="32" viewBox="0 0 32 32" fill="none" xmlns="http://www.w3.org/2000/svg">
<rect x="0.5" y="0.5" width="31" height="31" rx="15.5" stroke="#EDEEF3"/>
<path fill-rule="evenodd" clip-rule="evenodd" d="M11 8.91666H21C23.0711 8.91666 24.75 10.5956 24.75 12.6667V19.3333C24.75 21.4044 23.0711 23.0833 21 23.0833H11C8.92893 23.0833 7.25 21.4044 7.25 19.3333V12.6667C7.25 10.5956 8.92893 8.91666 11 8.91666ZM11 10.1667C9.61929 10.1667 8.5 11.2859 8.5 12.6667V19.3333C8.5 20.714 9.61929 21.8333 11 21.8333H21C22.3807 21.8333 23.5 20.714 23.5 19.3333V12.6667C23.5 11.2859 22.3807 10.1667 21 10.1667H11Z" fill="#1C1C1C"/>
<path fill-rule="evenodd" clip-rule="evenodd" d="M14.5416 14.0833C14.5416 13.7381 14.8214 13.4583 15.1666 13.4583H21C21.3451 13.4583 21.625 13.7381 21.625 14.0833C21.625 14.4285 21.3451 14.7083 21 14.7083H15.1666C14.8214 14.7083 14.5416 14.4285 14.5416 14.0833Z" fill="#1C1C1C"/>
<path fill-rule="evenodd" clip-rule="evenodd" d="M13.4419 12.6414C13.686 12.8854 13.686 13.2812 13.4419 13.5253L11.9419 15.0253C11.6979 15.2693 11.3021 15.2693 11.0581 15.0253L10.5581 14.5253C10.314 14.2812 10.314 13.8854 10.5581 13.6414C10.8021 13.3973 11.1979 13.3973 11.4419 13.6414L11.5 13.6994L12.5581 12.6414C12.8021 12.3973 13.1979 12.3973 13.4419 12.6414Z" fill="#1C1C1C"/>
<path fill-rule="evenodd" clip-rule="evenodd" d="M14.5416 17.83C14.5416 17.4849 14.8214 17.205 15.1666 17.205H18.9133C19.2585 17.205 19.5383 17.4849 19.5383 17.83C19.5383 18.1752 19.2585 18.455 18.9133 18.455H15.1666C14.8214 18.455 14.5416 18.1752 14.5416 17.83Z" fill="#1C1C1C"/>
<path fill-rule="evenodd" clip-rule="evenodd" d="M13.4419 16.4747C13.686 16.7188 13.686 17.1145 13.4419 17.3586L11.9419 18.8586C11.6979 19.1027 11.3021 19.1027 11.0581 18.8586L10.5581 18.3586C10.314 18.1145 10.314 17.7188 10.5581 17.4747C10.8021 17.2306 11.1979 17.2306 11.4419 17.4747L11.5 17.5328L12.5581 16.4747C12.8021 16.2306 13.1979 16.2306 13.4419 16.4747Z" fill="#1C1C1C"/>
</svg>
