<svg width="32" height="32" viewBox="0 0 32 32" fill="none" xmlns="http://www.w3.org/2000/svg">
<rect x="0.5" y="0.5" width="31" height="31" rx="15.5" stroke="#EDEEF3"/>
<path d="M7.25 15.1842C7.25 14.2201 7.99338 13.4229 8.91167 13.4229C10.4946 13.4229 11.1418 12.2363 10.346 10.7809C9.89118 9.94659 10.1623 8.86199 10.9581 8.37994L12.4711 7.46219C13.162 7.0265 14.0541 7.28606 14.4651 8.0184L14.5613 8.19454C15.3485 9.64995 16.6428 9.64995 17.4387 8.19454L17.5349 8.0184C17.9459 7.28606 18.838 7.0265 19.5289 7.46219L21.0419 8.37994C21.8377 8.86199 22.1088 9.94659 21.654 10.7809C20.8582 12.2363 21.5054 13.4229 23.0883 13.4229C23.9979 13.4229 24.75 14.2109 24.75 15.1842V16.8158C24.75 17.7799 24.0066 18.5771 23.0883 18.5771C21.5054 18.5771 20.8582 19.7637 21.654 21.2191C22.1088 22.0627 21.8377 23.138 21.0419 23.6201L19.5289 24.5378C18.838 24.9735 17.9459 24.7139 17.5349 23.9816L17.4387 23.8055C16.6515 22.3501 15.3572 22.3501 14.5613 23.8055L14.4651 23.9816C14.0541 24.7139 13.162 24.9735 12.4711 24.5378L10.9581 23.6201C10.1623 23.138 9.89118 22.0534 10.346 21.2191C11.1418 19.7637 10.4946 18.5771 8.91167 18.5771C7.99338 18.5771 7.25 17.7799 7.25 16.8158V15.1842Z" stroke="#1C1C1C" stroke-width="1.5" stroke-linecap="round" stroke-linejoin="round"/>
<path fill-rule="evenodd" clip-rule="evenodd" d="M16 18.5C14.6193 18.5 13.5 17.3807 13.5 16C13.5 14.6193 14.6193 13.5 16 13.5C17.3807 13.5 18.5 14.6193 18.5 16C18.5 17.3807 17.3807 18.5 16 18.5Z" stroke="#1C1C1C" stroke-width="1.5" stroke-linecap="round" stroke-linejoin="round"/>
</svg>
