<svg width="33" height="32" viewBox="0 0 33 32" fill="none" xmlns="http://www.w3.org/2000/svg">
<path d="M0.800024 0.4H27.6C30.0301 0.4 32 2.36995 32 4.8V27.2C32 29.6301 30.0301 31.6 27.6 31.6H0.800024V0.4Z" stroke="#EDEEF3" stroke-width="0.8"/>
<rect x="6.80005" y="6.40002" width="19.2" height="19.2" fill="white" fill-opacity="0.01"/>
<path d="M11.8824 11.4826C11.8824 12.0024 11.461 12.4238 10.9412 12.4238C10.4214 12.4238 10 12.0024 10 11.4826C10 10.9628 10.4214 10.5414 10.9412 10.5414C11.461 10.5414 11.8824 10.9628 11.8824 11.4826Z" fill="#1C1C1C"/>
<path d="M14.1412 11.4826C14.1412 11.1707 14.394 10.9179 14.7059 10.9179H22.2353C22.5472 10.9179 22.8 11.1707 22.8 11.4826C22.8 11.7945 22.5472 12.0473 22.2353 12.0473H14.7059C14.394 12.0473 14.1412 11.7945 14.1412 11.4826Z" fill="#1C1C1C"/>
<path d="M11.8824 16.0003C11.8824 16.5201 11.461 16.9414 10.9412 16.9414C10.4214 16.9414 10 16.5201 10 16.0003C10 15.4805 10.4214 15.0591 10.9412 15.0591C11.461 15.0591 11.8824 15.4805 11.8824 16.0003Z" fill="#1C1C1C"/>
<path d="M14.1412 16.0003C14.1412 15.6884 14.394 15.4356 14.7059 15.4356H22.2353C22.5472 15.4356 22.8 15.6884 22.8 16.0003C22.8 16.3121 22.5472 16.565 22.2353 16.565H14.7059C14.394 16.565 14.1412 16.3121 14.1412 16.0003Z" fill="#1C1C1C"/>
<path d="M11.8824 20.5179C11.8824 21.0377 11.461 21.4591 10.9412 21.4591C10.4214 21.4591 10 21.0377 10 20.5179C10 19.9981 10.4214 19.5767 10.9412 19.5767C11.461 19.5767 11.8824 19.9981 11.8824 20.5179Z" fill="#1C1C1C"/>
<path d="M14.7059 19.9532C14.394 19.9532 14.1412 20.206 14.1412 20.5179C14.1412 20.8298 14.394 21.0826 14.7059 21.0826H22.2353C22.5472 21.0826 22.8 20.8298 22.8 20.5179C22.8 20.206 22.5472 19.9532 22.2353 19.9532H14.7059Z" fill="#1C1C1C"/>
</svg>
