<svg width="32" height="32" viewBox="0 0 32 32" fill="none" xmlns="http://www.w3.org/2000/svg">
<rect x="0.5" y="0.5" width="31" height="31" rx="15.5" stroke="#EDEEF3"/>
<path d="M24.3333 13.0833C24.3333 16.075 21.9083 18.5 18.9167 18.5C18.775 18.5 18.625 18.4917 18.4833 18.4833C18.275 15.8417 16.1583 13.725 13.5167 13.5166C13.5083 13.375 13.5 13.225 13.5 13.0833C13.5 10.0917 15.925 7.66666 18.9167 7.66666C21.9083 7.66666 24.3333 10.0917 24.3333 13.0833Z" stroke="#1C1C1C" stroke-width="1.5" stroke-linecap="round" stroke-linejoin="round"/>
<path d="M18.5 18.9167C18.5 21.9083 16.075 24.3333 13.0833 24.3333C10.0916 24.3333 7.66663 21.9083 7.66663 18.9167C7.66663 15.925 10.0916 13.5 13.0833 13.5C13.225 13.5 13.375 13.5083 13.5166 13.5167C16.1583 13.725 18.275 15.8417 18.4833 18.4833C18.4916 18.625 18.5 18.775 18.5 18.9167Z" stroke="#1C1C1C" stroke-width="1.5" stroke-linecap="round" stroke-linejoin="round"/>
<path d="M10.6583 7.66666H8.49996C8.04163 7.66666 7.66663 8.04166 7.66663 8.49999V10.6583C7.66663 11.4 8.56662 11.775 9.09162 11.25L11.2499 9.09165C11.7666 8.56665 11.4 7.66666 10.6583 7.66666Z" stroke="#1C1C1C" stroke-width="1.5" stroke-linecap="round" stroke-linejoin="round"/>
<path d="M21.3416 24.3333H23.5C23.9583 24.3333 24.3333 23.9583 24.3333 23.5V21.3417C24.3333 20.6 23.4333 20.225 22.9083 20.75L20.75 22.9083C20.2333 23.4333 20.6 24.3333 21.3416 24.3333Z" stroke="#1C1C1C" stroke-width="1.5" stroke-linecap="round" stroke-linejoin="round"/>
</svg>
