<svg width="32" height="32" viewBox="0 0 32 32" fill="none" xmlns="http://www.w3.org/2000/svg">
<rect x="0.5" y="0.5" width="31" height="31" rx="15.5" stroke="#EDEEF3"/>
<path d="M14.0038 24H12C9.79086 24 8 22.2091 8 20V12C8 9.79086 9.79086 8 12 8H20C22.2091 8 24 9.79086 24 12V14.0038" stroke="#1C1C1C" stroke-width="1.5" stroke-linecap="round"/>
<path d="M16 17.7C16 17.2323 16.3242 16.8271 16.7805 16.7244L20 16L23.2195 16.7244C23.6758 16.8271 24 17.2323 24 17.7V21.2602C24 22.4408 23.3076 23.5116 22.2311 23.996L20 25L17.7689 23.996C16.6924 23.5116 16 22.4408 16 21.2602V17.7Z" stroke="#1C1C1C" stroke-width="1.5" stroke-linecap="round" stroke-linejoin="round"/>
<path d="M20 20L20 21" stroke="#1C1C1C" stroke-width="1.5" stroke-linecap="round" stroke-linejoin="round"/>
<path d="M12 12.5H20" stroke="black" stroke-width="1.5" stroke-linecap="round"/>
<path d="M12 16H14" stroke="black" stroke-width="1.5" stroke-linecap="round"/>
</svg>
