<svg width="43" height="33" viewBox="0 0 43 33" fill="none" xmlns="http://www.w3.org/2000/svg">
<rect width="42.6667" height="32.3333" fill="#1F32D6"/>
<path d="M23.6611 6.44444H19.0056C16.9833 6.44444 15.7778 7.65 15.7778 9.67222V14.3222C15.7778 16.35 16.9833 17.5556 19.0056 17.5556H23.6556C25.6778 17.5556 26.8833 16.35 26.8833 14.3278V9.67222C26.8889 7.65 25.6833 6.44444 23.6611 6.44444ZM20.1889 12.7056C19.8111 13.2722 19.2889 13.7333 18.6778 14.0389C18.6222 14.0667 18.5556 14.0833 18.4944 14.0833C18.3389 14.0833 18.1944 14 18.1222 13.8556C18.0167 13.65 18.1 13.4 18.3111 13.2944C18.7944 13.0556 19.2056 12.6889 19.5 12.2444C19.6 12.0944 19.6 11.9056 19.5 11.7556C19.2 11.3111 18.7889 10.9444 18.3111 10.7056C18.1 10.6056 18.0167 10.3556 18.1222 10.1444C18.2222 9.93889 18.4722 9.85555 18.6778 9.96111C19.2889 10.2667 19.8111 10.7278 20.1889 11.2944C20.4778 11.7222 20.4778 12.2778 20.1889 12.7056ZM24.1111 14.0833H21.8889C21.6611 14.0833 21.4722 13.8944 21.4722 13.6667C21.4722 13.4389 21.6611 13.25 21.8889 13.25H24.1111C24.3389 13.25 24.5278 13.4389 24.5278 13.6667C24.5278 13.8944 24.3389 14.0833 24.1111 14.0833Z" fill="white"/>
<path d="M6.34797 21.3667C6.8413 21.3667 7.27241 21.4622 7.6413 21.6533C8.01464 21.84 8.3013 22.1111 8.5013 22.4667C8.70575 22.8178 8.80797 23.2289 8.80797 23.7C8.80797 24.1711 8.70575 24.58 8.5013 24.9267C8.3013 25.2733 8.01464 25.54 7.6413 25.7267C7.27241 25.9089 6.8413 26 6.34797 26H4.83463V21.3667H6.34797ZM6.34797 25.38C6.89019 25.38 7.30575 25.2333 7.59464 24.94C7.88352 24.6467 8.02797 24.2333 8.02797 23.7C8.02797 23.1622 7.88352 22.7422 7.59464 22.44C7.30575 22.1378 6.89019 21.9867 6.34797 21.9867H5.59463V25.38H6.34797ZM12.9279 24.0733C12.9279 24.2111 12.919 24.3356 12.9012 24.4467H10.0945C10.1168 24.74 10.2256 24.9756 10.4212 25.1533C10.6168 25.3311 10.8568 25.42 11.1412 25.42C11.5501 25.42 11.839 25.2489 12.0079 24.9067H12.8279C12.7168 25.2444 12.5145 25.5222 12.2212 25.74C11.9323 25.9533 11.5723 26.06 11.1412 26.06C10.7901 26.06 10.4745 25.9822 10.1945 25.8267C9.91898 25.6667 9.7012 25.4444 9.5412 25.16C9.38564 24.8711 9.30786 24.5378 9.30786 24.16C9.30786 23.7822 9.38342 23.4511 9.53453 23.1667C9.69009 22.8778 9.90564 22.6556 10.1812 22.5C10.4612 22.3444 10.7812 22.2667 11.1412 22.2667C11.4879 22.2667 11.7968 22.3422 12.0679 22.4933C12.339 22.6444 12.5501 22.8578 12.7012 23.1333C12.8523 23.4044 12.9279 23.7178 12.9279 24.0733ZM12.1345 23.8333C12.1301 23.5533 12.0301 23.3289 11.8345 23.16C11.639 22.9911 11.3968 22.9067 11.1079 22.9067C10.8456 22.9067 10.6212 22.9911 10.4345 23.16C10.2479 23.3244 10.1368 23.5489 10.1012 23.8333H12.1345ZM15.0958 25.32L16.1358 22.3267H16.9424L15.5424 26H14.6358L13.2424 22.3267H14.0558L15.0958 25.32ZM20.8836 24.0733C20.8836 24.2111 20.8747 24.3356 20.8569 24.4467H18.0503C18.0725 24.74 18.1814 24.9756 18.3769 25.1533C18.5725 25.3311 18.8125 25.42 19.0969 25.42C19.5058 25.42 19.7947 25.2489 19.9636 24.9067H20.7836C20.6725 25.2444 20.4703 25.5222 20.1769 25.74C19.888 25.9533 19.528 26.06 19.0969 26.06C18.7458 26.06 18.4303 25.9822 18.1503 25.8267C17.8747 25.6667 17.6569 25.4444 17.4969 25.16C17.3414 24.8711 17.2636 24.5378 17.2636 24.16C17.2636 23.7822 17.3391 23.4511 17.4903 23.1667C17.6458 22.8778 17.8614 22.6556 18.1369 22.5C18.4169 22.3444 18.7369 22.2667 19.0969 22.2667C19.4436 22.2667 19.7525 22.3422 20.0236 22.4933C20.2947 22.6444 20.5058 22.8578 20.6569 23.1333C20.808 23.4044 20.8836 23.7178 20.8836 24.0733ZM20.0903 23.8333C20.0858 23.5533 19.9858 23.3289 19.7903 23.16C19.5947 22.9911 19.3525 22.9067 19.0636 22.9067C18.8014 22.9067 18.5769 22.9911 18.3903 23.16C18.2036 23.3244 18.0925 23.5489 18.0569 23.8333H20.0903ZM22.3915 21.0667V26H21.6315V21.0667H22.3915ZM24.9827 26.06C24.636 26.06 24.3227 25.9822 24.0427 25.8267C23.7627 25.6667 23.5427 25.4444 23.3827 25.16C23.2227 24.8711 23.1427 24.5378 23.1427 24.16C23.1427 23.7867 23.2249 23.4556 23.3893 23.1667C23.5538 22.8778 23.7782 22.6556 24.0627 22.5C24.3471 22.3444 24.6649 22.2667 25.016 22.2667C25.3671 22.2667 25.6849 22.3444 25.9693 22.5C26.2538 22.6556 26.4782 22.8778 26.6427 23.1667C26.8071 23.4556 26.8893 23.7867 26.8893 24.16C26.8893 24.5333 26.8049 24.8644 26.636 25.1533C26.4671 25.4422 26.236 25.6667 25.9427 25.8267C25.6538 25.9822 25.3338 26.06 24.9827 26.06ZM24.9827 25.4C25.1782 25.4 25.3604 25.3533 25.5293 25.26C25.7027 25.1667 25.8427 25.0267 25.9493 24.84C26.056 24.6533 26.1093 24.4267 26.1093 24.16C26.1093 23.8933 26.0582 23.6689 25.956 23.4867C25.8538 23.3 25.7182 23.16 25.5493 23.0667C25.3804 22.9733 25.1982 22.9267 25.0027 22.9267C24.8071 22.9267 24.6249 22.9733 24.456 23.0667C24.2915 23.16 24.1604 23.3 24.0627 23.4867C23.9649 23.6689 23.916 23.8933 23.916 24.16C23.916 24.5556 24.016 24.8622 24.216 25.08C24.4204 25.2933 24.676 25.4 24.9827 25.4ZM28.4006 22.8667C28.5295 22.6978 28.7051 22.5556 28.9273 22.44C29.1495 22.3244 29.4006 22.2667 29.6806 22.2667C30.0006 22.2667 30.2917 22.3467 30.554 22.5067C30.8206 22.6622 31.0295 22.8822 31.1806 23.1667C31.3317 23.4511 31.4073 23.7778 31.4073 24.1467C31.4073 24.5156 31.3317 24.8467 31.1806 25.14C31.0295 25.4289 30.8206 25.6556 30.554 25.82C30.2917 25.98 30.0006 26.06 29.6806 26.06C29.4006 26.06 29.1517 26.0044 28.934 25.8933C28.7162 25.7778 28.5384 25.6356 28.4006 25.4667V27.7467H27.6406V22.3267H28.4006V22.8667ZM30.634 24.1467C30.634 23.8933 30.5806 23.6756 30.474 23.4933C30.3717 23.3067 30.234 23.1667 30.0606 23.0733C29.8917 22.9756 29.7095 22.9267 29.514 22.9267C29.3228 22.9267 29.1406 22.9756 28.9673 23.0733C28.7984 23.1711 28.6606 23.3133 28.554 23.5C28.4517 23.6867 28.4006 23.9067 28.4006 24.16C28.4006 24.4133 28.4517 24.6356 28.554 24.8267C28.6606 25.0133 28.7984 25.1556 28.9673 25.2533C29.1406 25.3511 29.3228 25.4 29.514 25.4C29.7095 25.4 29.8917 25.3511 30.0606 25.2533C30.234 25.1511 30.3717 25.0044 30.474 24.8133C30.5806 24.6222 30.634 24.4 30.634 24.1467ZM35.5255 24.0733C35.5255 24.2111 35.5166 24.3356 35.4989 24.4467H32.6922C32.7144 24.74 32.8233 24.9756 33.0189 25.1533C33.2144 25.3311 33.4544 25.42 33.7389 25.42C34.1477 25.42 34.4366 25.2489 34.6055 24.9067H35.4255C35.3144 25.2444 35.1122 25.5222 34.8189 25.74C34.53 25.9533 34.17 26.06 33.7389 26.06C33.3877 26.06 33.0722 25.9822 32.7922 25.8267C32.5166 25.6667 32.2989 25.4444 32.1389 25.16C31.9833 24.8711 31.9055 24.5378 31.9055 24.16C31.9055 23.7822 31.9811 23.4511 32.1322 23.1667C32.2877 22.8778 32.5033 22.6556 32.7789 22.5C33.0589 22.3444 33.3789 22.2667 33.7389 22.2667C34.0855 22.2667 34.3944 22.3422 34.6655 22.4933C34.9366 22.6444 35.1477 22.8578 35.2989 23.1333C35.45 23.4044 35.5255 23.7178 35.5255 24.0733ZM34.7322 23.8333C34.7277 23.5533 34.6277 23.3289 34.4322 23.16C34.2366 22.9911 33.9944 22.9067 33.7055 22.9067C33.4433 22.9067 33.2189 22.9911 33.0322 23.16C32.8455 23.3244 32.7344 23.5489 32.6989 23.8333H34.7322ZM37.0334 22.86C37.1445 22.6733 37.2912 22.5289 37.4734 22.4267C37.6601 22.32 37.8801 22.2667 38.1334 22.2667V23.0533H37.9401C37.6423 23.0533 37.4157 23.1289 37.2601 23.28C37.109 23.4311 37.0334 23.6933 37.0334 24.0667V26H36.2734V22.3267H37.0334V22.86Z" fill="white"/>
</svg>
