<svg width="34" height="34" viewBox="0 0 34 34" fill="none" xmlns="http://www.w3.org/2000/svg">
<rect x="0.800049" y="1" width="32" height="32" rx="16" stroke="#EDEEF3"/>
<path d="M14.2175 19.5L16.7175 17M16.7175 17L19.2175 14.5M16.7175 17L19.2175 19.5M16.7175 17L14.2175 14.5M18.8925 9.5H14.5425C14.0325 9.5 13.3125 9.8 12.9525 10.16L9.87753 13.235C9.51753 13.595 9.21753 14.315 9.21753 14.825V19.175C9.21753 19.685 9.51753 20.405 9.87753 20.765L12.9525 23.84C13.3125 24.2 14.0325 24.5 14.5425 24.5H18.8925C19.4025 24.5 20.1225 24.2 20.4825 23.84L23.5575 20.765C23.9175 20.405 24.2175 19.685 24.2175 19.175V14.825C24.2175 14.315 23.9175 13.595 23.5575 13.235L20.4825 10.16C20.1225 9.8 19.4025 9.5 18.8925 9.5Z" stroke="#1C1C1C" stroke-width="1.5" stroke-linecap="round" stroke-linejoin="round"/>
</svg>
