<svg width="290" height="48" viewBox="0 0 290 48" fill="none" xmlns="http://www.w3.org/2000/svg">
<rect x="3.91748" y="1" width="285.833" height="40" rx="10" fill="#13192E" fill-opacity="0.04"/>
<rect x="4.33415" y="1.41667" width="285" height="39.1667" rx="9.58333" stroke="#13192E" stroke-opacity="0.06" stroke-width="0.833333"/>
<g filter="url(#filter0_d_3616_3890)">
<rect x="7.33411" y="4" width="139.167" height="33.3333" rx="8" fill="white"/>
</g>
<path d="M59.6931 19.698C59.6931 20.1087 59.5941 20.4937 59.3961 20.853C59.2054 21.2123 58.9011 21.502 58.4831 21.722C58.0724 21.942 57.5517 22.052 56.9211 22.052H55.6341V25H54.0941V17.322H56.9211C57.5151 17.322 58.0211 17.4247 58.4391 17.63C58.8571 17.8353 59.1687 18.1177 59.3741 18.477C59.5867 18.8363 59.6931 19.2433 59.6931 19.698ZM56.8551 20.809C57.2804 20.809 57.5957 20.7137 57.8011 20.523C58.0064 20.325 58.1091 20.05 58.1091 19.698C58.1091 18.95 57.6911 18.576 56.8551 18.576H55.6341V20.809H56.8551ZM66.4515 21.821C66.4515 22.041 66.4368 22.239 66.4075 22.415H61.9525C61.9891 22.855 62.1431 23.1997 62.4145 23.449C62.6858 23.6983 63.0195 23.823 63.4155 23.823C63.9875 23.823 64.3945 23.5773 64.6365 23.086H66.2975C66.1215 23.6727 65.7841 24.1567 65.2855 24.538C64.7868 24.912 64.1745 25.099 63.4485 25.099C62.8618 25.099 62.3338 24.9707 61.8645 24.714C61.4025 24.45 61.0395 24.0797 60.7755 23.603C60.5188 23.1263 60.3905 22.5763 60.3905 21.953C60.3905 21.3223 60.5188 20.7687 60.7755 20.292C61.0321 19.8153 61.3915 19.4487 61.8535 19.192C62.3155 18.9353 62.8471 18.807 63.4485 18.807C64.0278 18.807 64.5448 18.9317 64.9995 19.181C65.4615 19.4303 65.8171 19.786 66.0665 20.248C66.3231 20.7027 66.4515 21.227 66.4515 21.821ZM64.8565 21.381C64.8491 20.985 64.7061 20.6697 64.4275 20.435C64.1488 20.193 63.8078 20.072 63.4045 20.072C63.0231 20.072 62.7005 20.1893 62.4365 20.424C62.1798 20.6513 62.0221 20.9703 61.9635 21.381H64.8565ZM70.9525 18.818C71.6785 18.818 72.2652 19.049 72.7125 19.511C73.1599 19.9657 73.3835 20.6037 73.3835 21.425V25H71.8435V21.634C71.8435 21.15 71.7225 20.7797 71.4805 20.523C71.2385 20.259 70.9085 20.127 70.4905 20.127C70.0652 20.127 69.7279 20.259 69.4785 20.523C69.2365 20.7797 69.1155 21.15 69.1155 21.634V25H67.5755V18.906H69.1155V19.665C69.3209 19.401 69.5812 19.1957 69.8965 19.049C70.2192 18.895 70.5712 18.818 70.9525 18.818ZM74.452 21.931C74.452 21.315 74.573 20.7687 74.815 20.292C75.0643 19.8153 75.4017 19.4487 75.827 19.192C76.2523 18.9353 76.7253 18.807 77.246 18.807C77.642 18.807 78.0197 18.895 78.379 19.071C78.7383 19.2397 79.0243 19.467 79.237 19.753V16.86H80.799V25H79.237V24.098C79.0463 24.3987 78.7787 24.6407 78.434 24.824C78.0893 25.0073 77.6897 25.099 77.235 25.099C76.7217 25.099 76.2523 24.967 75.827 24.703C75.4017 24.439 75.0643 24.0687 74.815 23.592C74.573 23.108 74.452 22.5543 74.452 21.931ZM79.248 21.953C79.248 21.579 79.1747 21.26 79.028 20.996C78.8813 20.7247 78.6833 20.5193 78.434 20.38C78.1847 20.2333 77.917 20.16 77.631 20.16C77.345 20.16 77.081 20.2297 76.839 20.369C76.597 20.5083 76.399 20.7137 76.245 20.985C76.0983 21.249 76.025 21.5643 76.025 21.931C76.025 22.2977 76.0983 22.6203 76.245 22.899C76.399 23.1703 76.597 23.3793 76.839 23.526C77.0883 23.6727 77.3523 23.746 77.631 23.746C77.917 23.746 78.1847 23.6763 78.434 23.537C78.6833 23.3903 78.8813 23.185 79.028 22.921C79.1747 22.6497 79.248 22.327 79.248 21.953ZM83.0841 18.18C82.8127 18.18 82.5854 18.0957 82.4021 17.927C82.2261 17.751 82.1381 17.5347 82.1381 17.278C82.1381 17.0213 82.2261 16.8087 82.4021 16.64C82.5854 16.464 82.8127 16.376 83.0841 16.376C83.3554 16.376 83.5791 16.464 83.7551 16.64C83.9384 16.8087 84.0301 17.0213 84.0301 17.278C84.0301 17.5347 83.9384 17.751 83.7551 17.927C83.5791 18.0957 83.3554 18.18 83.0841 18.18ZM83.8431 18.906V25H82.3031V18.906H83.8431ZM88.7416 18.818C89.4676 18.818 90.0543 19.049 90.5016 19.511C90.9489 19.9657 91.1726 20.6037 91.1726 21.425V25H89.6326V21.634C89.6326 21.15 89.5116 20.7797 89.2696 20.523C89.0276 20.259 88.6976 20.127 88.2796 20.127C87.8543 20.127 87.5169 20.259 87.2676 20.523C87.0256 20.7797 86.9046 21.15 86.9046 21.634V25H85.3646V18.906H86.9046V19.665C87.1099 19.401 87.3703 19.1957 87.6856 19.049C88.0083 18.895 88.3603 18.818 88.7416 18.818ZM95.0241 18.807C95.4787 18.807 95.8784 18.8987 96.2231 19.082C96.5677 19.258 96.8391 19.489 97.0371 19.775V18.906H98.5881V25.044C98.5881 25.6087 98.4744 26.111 98.2471 26.551C98.0197 26.9983 97.6787 27.3503 97.2241 27.607C96.7694 27.871 96.2194 28.003 95.5741 28.003C94.7087 28.003 93.9974 27.8013 93.4401 27.398C92.8901 26.9947 92.5784 26.4447 92.5051 25.748H94.0341C94.1147 26.0267 94.2871 26.2467 94.5511 26.408C94.8224 26.5767 95.1487 26.661 95.5301 26.661C95.9774 26.661 96.3404 26.5253 96.6191 26.254C96.8977 25.99 97.0371 25.5867 97.0371 25.044V24.098C96.8391 24.384 96.5641 24.6223 96.2121 24.813C95.8674 25.0037 95.4714 25.099 95.0241 25.099C94.5107 25.099 94.0414 24.967 93.6161 24.703C93.1907 24.439 92.8534 24.0687 92.6041 23.592C92.3621 23.108 92.2411 22.5543 92.2411 21.931C92.2411 21.315 92.3621 20.7687 92.6041 20.292C92.8534 19.8153 93.1871 19.4487 93.6051 19.192C94.0304 18.9353 94.5034 18.807 95.0241 18.807ZM97.0371 21.953C97.0371 21.579 96.9637 21.26 96.8171 20.996C96.6704 20.7247 96.4724 20.5193 96.2231 20.38C95.9737 20.2333 95.7061 20.16 95.4201 20.16C95.1341 20.16 94.8701 20.2297 94.6281 20.369C94.3861 20.5083 94.1881 20.7137 94.0341 20.985C93.8874 21.249 93.8141 21.5643 93.8141 21.931C93.8141 22.2977 93.8874 22.6203 94.0341 22.899C94.1881 23.1703 94.3861 23.3793 94.6281 23.526C94.8774 23.6727 95.1414 23.746 95.4201 23.746C95.7061 23.746 95.9737 23.6763 96.2231 23.537C96.4724 23.3903 96.6704 23.185 96.8171 22.921C96.9637 22.6497 97.0371 22.327 97.0371 21.953Z" fill="#1F32D6"/>
<path opacity="0.5" d="M216.8 23.295H213.456L212.84 25H211.784L214.556 17.377H215.711L218.472 25H217.416L216.8 23.295ZM216.514 22.481L215.128 18.609L213.742 22.481H216.514ZM220.681 16.86V25H219.68V16.86H220.681ZM223.388 16.86V25H222.387V16.86H223.388Z" fill="#13192E"/>
<defs>
<filter id="filter0_d_3616_3890" x="0.66744" y="0.666667" width="152.5" height="46.6667" filterUnits="userSpaceOnUse" color-interpolation-filters="sRGB">
<feFlood flood-opacity="0" result="BackgroundImageFix"/>
<feColorMatrix in="SourceAlpha" type="matrix" values="0 0 0 0 0 0 0 0 0 0 0 0 0 0 0 0 0 0 127 0" result="hardAlpha"/>
<feOffset dy="3.33333"/>
<feGaussianBlur stdDeviation="3.33333"/>
<feComposite in2="hardAlpha" operator="out"/>
<feColorMatrix type="matrix" values="0 0 0 0 0.355208 0 0 0 0 0.374688 0 0 0 0 0.55 0 0 0 0.1 0"/>
<feBlend mode="normal" in2="BackgroundImageFix" result="effect1_dropShadow_3616_3890"/>
<feBlend mode="normal" in="SourceGraphic" in2="effect1_dropShadow_3616_3890" result="shape"/>
</filter>
</defs>
</svg>
