<svg width="120" height="32" viewBox="0 0 120 32" fill="none" xmlns="http://www.w3.org/2000/svg">
<rect width="120" height="32" rx="4.8" fill="#1F32D6"/>
<path d="M40.7888 14.5872V18.1152H39.5344V15.7968H38.392V14.5872H40.7888ZM40.7888 17.5216C41.2592 18.2608 42.144 18.5744 43.3312 18.6192C44.6976 18.6864 47.4192 18.6528 48.9648 18.5296C48.8304 18.8096 48.6288 19.4032 48.5728 19.7728C47.1616 19.84 44.72 19.8624 43.3312 19.8064C41.9312 19.7504 40.9792 19.4256 40.2512 18.5744C39.8368 19 39.4 19.4256 38.8848 19.9184L38.2576 18.6416C38.7056 18.328 39.2208 17.9248 39.6688 17.5216H40.7888ZM38.8288 10.3424L39.7136 9.5808C40.2848 9.9392 41.0128 10.488 41.36 10.9136L40.408 11.7648C40.1056 11.3392 39.4112 10.7344 38.8288 10.3424ZM38.4032 12.6832L39.2656 11.8768C39.8704 12.224 40.6432 12.7504 41.0128 13.1536L40.0944 14.0384C39.7584 13.624 39.008 13.0528 38.4032 12.6832ZM42.4688 12.3136V12.7616H43.8688V12.3136H42.4688ZM42.4688 11.104V11.5408H43.8688V11.104H42.4688ZM41.416 10.2864H44.9664V13.5792H41.416V10.2864ZM42.7712 9.4912L44.1264 9.592C43.9248 10.1184 43.6672 10.6336 43.4768 10.992L42.5024 10.8128C42.6144 10.4096 42.7264 9.872 42.7712 9.4912ZM41.0464 14.128H45.4368V15.024H41.0464V14.128ZM45.9296 11.1152H48.7296V12.2464H45.9296V11.1152ZM42.592 15.4272H44.3168V16.3344H42.592V15.4272ZM42.6368 13.4672H43.768V14.4752H42.6368V13.4672ZM43.9472 15.4272H45.0224C45.0224 15.4272 45.0112 15.6736 45 15.7968C44.944 17.1184 44.8656 17.7008 44.664 17.936C44.5072 18.1264 44.3056 18.2048 44.0704 18.2384C43.88 18.2608 43.5328 18.272 43.1856 18.2496C43.1744 17.9808 43.0736 17.6112 42.9504 17.376C43.208 17.4096 43.3984 17.4096 43.5104 17.4096C43.6224 17.4208 43.6896 17.4096 43.7568 17.32C43.8464 17.1968 43.8912 16.76 43.9472 15.5728V15.4272ZM42.144 14.5648H43.2416C43.152 16.1888 42.8944 17.4992 41.6848 18.2832C41.5616 18.0368 41.2592 17.6672 41.0128 17.488C41.9424 16.872 42.088 15.8304 42.144 14.5648ZM45.8176 9.5472L46.9936 9.7152C46.7248 11.5296 46.2208 13.2432 45.4592 14.352C45.2576 14.1616 44.7536 13.792 44.4848 13.6352C45.1904 12.6832 45.616 11.1376 45.8176 9.5472ZM47.2624 11.888L48.3824 11.9776C48.0464 14.912 47.2848 17.0512 45.5264 18.384C45.3808 18.16 44.9776 17.712 44.7536 17.5216C46.3776 16.4128 47.0272 14.4752 47.2624 11.888ZM46.3776 12.0672C46.7696 14.3072 47.576 16.4464 48.8864 17.4656C48.6288 17.6784 48.2704 18.0816 48.08 18.384C46.68 17.1408 45.896 14.8224 45.4592 12.2464L46.3776 12.0672ZM50.096 10.4656L50.9584 9.648C51.5632 10.152 52.3808 10.8688 52.7616 11.3504L51.8432 12.28C51.496 11.7872 50.7008 11.0144 50.096 10.4656ZM51.0256 19.896L50.7344 18.664L51.0032 18.2384L53.1984 16.5696C53.288 16.928 53.4896 17.4544 53.6352 17.7232C51.5968 19.3136 51.2272 19.6272 51.0256 19.896ZM49.5808 12.9408H51.7872V14.2288H49.5808V12.9408ZM51.0256 19.896C50.9248 19.5824 50.6 19.0224 50.376 18.7648C50.6224 18.5968 50.9472 18.216 50.9472 17.7008V12.9408H52.2352V18.608C52.2352 18.608 51.0256 19.4256 51.0256 19.896ZM54.8448 15.9872H58.2944V16.8496H54.8448V15.9872ZM53.4112 10.2528H59.6832V11.216H53.4112V10.2528ZM53.7136 11.664H59.3472V12.5712H53.7136V11.664ZM53.064 13.0416H60.0416V14.0048H53.064V13.0416ZM54.8224 17.4768H58.2832V18.3728H54.8224V17.4768ZM53.8256 14.4416H58.272V15.416H55.0688V20.0192H53.8256V14.4416ZM57.992 14.4416H59.2688V18.72C59.2688 19.3024 59.1568 19.6272 58.7424 19.8064C58.3504 19.9968 57.7904 20.008 57.0064 20.008C56.9616 19.672 56.8048 19.1792 56.648 18.8656C57.1072 18.888 57.6448 18.888 57.7904 18.8768C57.936 18.8768 57.992 18.832 57.992 18.6976V14.4416ZM55.8528 9.4912H57.1856V13.3552H55.8528V9.4912ZM62.4272 13.7024H65.0144V14.9344H62.4272V13.7024ZM64.4992 13.7024H65.8096C65.8096 13.7024 65.7984 14.0384 65.7984 14.1952C65.7536 16.5696 65.6976 17.5664 65.44 17.9136C65.216 18.1936 64.992 18.2944 64.6672 18.3504C64.3648 18.3952 63.8832 18.3952 63.3568 18.384C63.3344 17.992 63.1888 17.4656 62.9872 17.1296C63.3904 17.1744 63.7712 17.1744 63.9504 17.1744C64.1072 17.1744 64.208 17.152 64.2976 17.04C64.432 16.8608 64.4768 16.0768 64.4992 13.904V13.7024ZM67.8704 10.1968L68.6768 9.3792C69.2928 9.704 70.1216 10.2192 70.5248 10.5888L69.6624 11.496C69.2928 11.104 68.4976 10.5552 67.8704 10.1968ZM69.192 13.0752L70.5472 13.4C69.6064 16.3232 67.96 18.5968 65.7424 19.9632C65.5408 19.6832 65.048 19.1232 64.768 18.8544C66.9184 17.7008 68.4192 15.6736 69.192 13.0752ZM62.5056 11.1712H71.1408V12.4928H62.5056V11.1712ZM61.6096 11.1712H63.0208V14.464C63.0208 16.144 62.8304 18.6304 61.8112 20.1424C61.5872 19.8736 60.9824 19.3808 60.6688 19.224C61.5312 17.88 61.6096 15.92 61.6096 14.4528V11.1712ZM66.1568 9.5024H67.568C67.4896 14.072 68.52 18.5632 69.6512 18.5632C69.9088 18.5632 70.0432 17.992 70.1104 16.5808C70.4128 16.8944 70.8944 17.208 71.2528 17.3424C71.04 19.4256 70.592 19.9296 69.5392 19.9296C67.0976 19.9296 66.1904 14.6096 66.1568 9.5024ZM75.0048 11.0816V11.9328H79.4064V11.0816H75.0048ZM73.5936 9.9392H80.9072V13.0752H73.5936V9.9392ZM76.3936 15.5504H77.8496V16.5584C77.8496 17.7456 77.1776 19.1904 73.1232 20.1088C72.9552 19.8176 72.5296 19.2912 72.2048 19.0112C76.0576 18.3168 76.3936 17.2752 76.3936 16.5248V15.5504ZM77.6032 18.5184L78.2528 17.5216C79.4624 17.88 81.2992 18.5072 82.24 18.944L81.5568 20.0864C80.6832 19.6384 78.8688 18.944 77.6032 18.5184ZM73.112 13.8032H81.4224V17.768H79.9552V15.0352H74.512V17.9248H73.112V13.8032Z" fill="white"/>
</svg>
