<svg width="1440" height="529" viewBox="0 0 1440 529" fill="none" xmlns="http://www.w3.org/2000/svg">
<rect opacity="0.1" y="319" width="1440" height="210" rx="32" fill="#1F31D6"/>
<path d="M526.053 380.113L689.713 380.11C690.456 380.11 690.537 381.192 689.803 381.303L522.428 406.473C519.145 406.966 515.829 407.204 512.509 407.183L341.527 406.109L526.053 380.113Z" fill="url(#paint0_linear_3807_699)"/>
<path fill-rule="evenodd" clip-rule="evenodd" d="M697.739 388.002C697.739 383.11 693.389 379.364 688.552 380.09L518.465 405.622C518.072 405.681 517.675 405.711 517.277 405.711H344C339.582 405.711 336 409.293 336 413.711V473.711C336 478.129 339.582 481.711 344 481.711H517.235C517.661 481.711 518.085 481.677 518.506 481.61L691.01 453.864C694.888 453.24 697.739 449.893 697.739 445.965V388.002Z" fill="url(#paint1_linear_3807_699)"/>
<path d="M386.733 437.331H387.957C390.207 439.653 392.799 441.489 395.733 442.821L394.887 444.351C393.987 443.919 393.159 443.469 392.367 442.965V444.585H388.209V447.285H393.267V448.941H388.209V451.785H394.905V453.459H379.803V451.785H386.481V448.941H381.405V447.285H386.481V444.585H382.323V442.965C381.495 443.469 380.631 443.937 379.731 444.387L378.903 442.893C382.035 441.399 384.645 439.545 386.733 437.331ZM382.359 442.947H392.331C390.459 441.795 388.785 440.427 387.345 438.879C385.977 440.391 384.303 441.741 382.359 442.947ZM413.679 443.901L413.949 445.557L408.657 446.277V451.317C408.657 451.749 408.873 451.965 409.323 451.965H411.681C411.969 451.965 412.167 451.821 412.311 451.551C412.455 451.263 412.545 450.381 412.617 448.869L414.237 449.391C414.093 451.425 413.859 452.649 413.499 453.045C413.157 453.405 412.653 453.603 412.005 453.603H408.801C407.559 453.603 406.947 452.955 406.947 451.677V446.511L404.157 446.889L403.923 445.251L406.947 444.837V440.625C406.155 440.733 405.345 440.823 404.553 440.895L404.031 439.365C407.433 439.041 410.187 438.429 412.293 437.529L413.121 438.951C411.681 439.527 410.205 439.995 408.657 440.319V444.603L413.679 443.901ZM400.017 453.801H398.145L397.767 452.145C398.343 452.199 398.901 452.235 399.423 452.235C399.855 452.235 400.089 452.019 400.089 451.623V447.681C399.369 447.897 398.667 448.113 397.947 448.293L397.515 446.673C398.379 446.493 399.243 446.277 400.089 446.025V442.299H397.731V440.661H400.089V437.421H401.799V440.661H403.455V442.299H401.799V445.431C402.321 445.215 402.825 444.999 403.329 444.765V446.493C402.825 446.709 402.303 446.907 401.799 447.105V452.055C401.799 453.207 401.205 453.801 400.017 453.801ZM429.681 444.423V448.203H420.915V449.157H430.527V453.963H428.817V453.315H420.915V453.945H419.205V444.423H429.681ZM420.915 451.803H428.817V450.507H420.915V451.803ZM420.915 446.835H428.007V445.791H420.915V446.835ZM432.165 442.173V445.611H430.491V443.613H418.359V445.611H416.685V442.173H423.651C423.507 441.813 423.345 441.489 423.183 441.201L424.695 440.949L424.389 440.751C425.217 439.671 425.829 438.519 426.189 437.277L427.827 437.637C427.719 437.943 427.629 438.231 427.521 438.519H432.525V440.013H429.591C429.879 440.409 430.113 440.805 430.311 441.165L428.799 441.723C428.511 441.147 428.169 440.571 427.773 440.013H426.855C426.549 440.607 426.207 441.165 425.829 441.669L424.965 441.111C425.109 441.435 425.235 441.795 425.379 442.173H432.165ZM419.115 440.013C418.719 440.661 418.287 441.273 417.819 441.831L416.325 440.895C417.369 439.779 418.107 438.555 418.557 437.259L420.195 437.619C420.087 437.925 419.961 438.231 419.853 438.519H424.389V440.013H421.689C422.013 440.463 422.301 440.895 422.517 441.309L420.951 441.903C420.645 441.255 420.303 440.625 419.907 440.013H419.115ZM436.935 437.349L438.591 437.709C438.447 438.231 438.303 438.735 438.159 439.239H441.327V440.877H437.583C437.313 441.525 437.025 442.155 436.737 442.749H440.841V444.297H439.311V446.259H441.615V447.843H439.311V451.227C440.139 450.867 440.949 450.381 441.777 449.787L442.047 451.317C440.787 452.235 439.311 452.973 437.637 453.549L436.917 452.091C437.385 451.929 437.637 451.695 437.637 451.389V447.843H435.171V446.259H437.637V444.297H436.593V443.019C436.377 443.397 436.179 443.757 435.963 444.117L434.577 443.235C435.693 441.417 436.467 439.455 436.935 437.349ZM450.075 440.391L450.309 441.975L446.115 442.641C446.133 443.361 446.169 444.045 446.223 444.693L450.525 443.919L450.795 445.539L446.403 446.331L446.475 446.817C446.619 447.609 446.781 448.347 446.979 448.995C447.735 448.203 448.419 447.339 449.031 446.403L450.345 447.267C449.481 448.527 448.581 449.643 447.609 450.579C447.627 450.615 447.645 450.633 447.663 450.669C448.149 451.497 448.599 451.929 448.995 451.929C449.337 451.929 449.643 451.083 449.913 449.391L451.371 450.345C450.867 452.613 450.147 453.747 449.175 453.747C448.329 453.729 447.519 453.171 446.727 452.091C446.619 451.929 446.511 451.767 446.421 451.605C445.017 452.703 443.523 453.495 441.903 453.999L440.931 452.685C442.731 452.109 444.333 451.263 445.701 450.147C445.413 449.409 445.161 448.581 444.945 447.663C444.873 447.303 444.801 446.961 444.747 446.619L442.029 447.105L441.795 445.485L444.531 444.999C444.459 444.315 444.405 443.631 444.387 442.911L442.155 443.253L441.921 441.687L444.351 441.291V437.349H446.079V441.021L450.075 440.391ZM447.987 437.295C448.779 438.087 449.391 438.789 449.805 439.383L448.473 440.319C448.041 439.635 447.429 438.897 446.673 438.105L447.987 437.295ZM464.061 442.713V448.491H457.653V451.425C457.653 451.893 457.923 452.127 458.481 452.127H466.761C467.139 452.091 467.391 451.947 467.535 451.659C467.643 451.425 467.733 450.777 467.841 449.715L469.461 450.237C469.353 451.317 469.209 452.091 469.047 452.559C468.795 453.297 468.201 453.693 467.301 453.729H457.779C456.555 453.729 455.943 453.171 455.943 452.091V443.253C455.547 443.721 455.133 444.171 454.719 444.567L453.531 443.127C455.115 441.687 456.465 439.707 457.581 437.187L459.309 437.583C459.075 438.123 458.841 438.627 458.607 439.131H468.453C468.453 443.847 468.345 446.763 468.165 447.879C467.985 448.995 467.247 449.571 465.933 449.571C465.717 449.571 465.339 449.535 464.799 449.499L464.385 447.969C464.889 448.023 465.321 448.059 465.681 448.059C466.149 448.059 466.437 447.735 466.509 447.123C466.617 446.475 466.671 444.369 466.707 440.769H457.707C457.275 441.471 456.843 442.119 456.375 442.713H464.061ZM457.653 446.943H462.333V444.261H457.653V446.943Z" fill="white"/>
<path d="M752.053 380.113L915.714 380.11C916.456 380.11 916.537 381.192 915.803 381.303L748.428 406.473C745.145 406.966 741.829 407.204 738.509 407.183L567.527 406.109L752.053 380.113Z" fill="url(#paint2_linear_3807_699)"/>
<path fill-rule="evenodd" clip-rule="evenodd" d="M923.739 388.002C923.739 383.11 919.389 379.364 914.552 380.09L744.465 405.622C744.072 405.681 743.675 405.711 743.277 405.711H570C565.582 405.711 562 409.293 562 413.711V473.711C562 478.129 565.582 481.711 570 481.711H743.235C743.661 481.711 744.085 481.677 744.506 481.61L917.01 453.864C920.888 453.24 923.739 449.893 923.739 445.965V388.002Z" fill="url(#paint3_linear_3807_699)"/>
<path d="M608.798 439.148H611.12L615.602 449.444H615.656L620.12 439.148H622.442V452H620.48V442.82H620.408L616.466 452H614.774L610.832 442.82H610.76V452H608.798V439.148ZM625.51 439.148H630.838C633.898 439.148 635.428 440.444 635.428 443.054C635.428 445.682 633.88 446.996 630.802 446.996H627.472V452H625.51V439.148ZM627.472 440.822V445.322H630.676C631.648 445.322 632.35 445.142 632.8 444.782C633.232 444.422 633.466 443.846 633.466 443.054C633.466 442.262 633.232 441.686 632.782 441.362C632.332 441.002 631.63 440.822 630.676 440.822H627.472ZM643.372 438.896C644.866 438.896 646.108 439.274 647.08 440.066C648.016 440.822 648.592 441.866 648.79 443.162H646.882C646.666 442.298 646.252 441.65 645.64 441.236C645.028 440.822 644.272 440.624 643.336 440.624C641.95 440.624 640.906 441.092 640.204 442.046C639.538 442.91 639.214 444.098 639.214 445.592C639.214 447.14 639.538 448.328 640.186 449.174C640.87 450.074 641.932 450.524 643.372 450.524C644.308 450.524 645.1 450.29 645.712 449.822C646.36 449.318 646.81 448.562 647.062 447.554H648.97C648.682 449.048 648.016 450.218 646.954 451.064C645.964 451.856 644.776 452.252 643.39 452.252C641.284 452.252 639.7 451.568 638.638 450.236C637.702 449.084 637.252 447.536 637.252 445.592C637.252 443.684 637.72 442.136 638.692 440.93C639.772 439.562 641.32 438.896 643.372 438.896ZM659.742 437.24L661.398 437.6C661.254 438.122 661.11 438.626 660.966 439.13H664.134V440.768H660.39C660.12 441.416 659.832 442.046 659.544 442.64H663.648V444.188H662.118V446.15H664.422V447.734H662.118V451.118C662.946 450.758 663.756 450.272 664.584 449.678L664.854 451.208C663.594 452.126 662.118 452.864 660.444 453.44L659.724 451.982C660.192 451.82 660.444 451.586 660.444 451.28V447.734H657.978V446.15H660.444V444.188H659.4V442.91C659.184 443.288 658.986 443.648 658.77 444.008L657.384 443.126C658.5 441.308 659.274 439.346 659.742 437.24ZM672.882 440.282L673.116 441.866L668.922 442.532C668.94 443.252 668.976 443.936 669.03 444.584L673.332 443.81L673.602 445.43L669.21 446.222L669.282 446.708C669.426 447.5 669.588 448.238 669.786 448.886C670.542 448.094 671.226 447.23 671.838 446.294L673.152 447.158C672.288 448.418 671.388 449.534 670.416 450.47C670.434 450.506 670.452 450.524 670.47 450.56C670.956 451.388 671.406 451.82 671.802 451.82C672.144 451.82 672.45 450.974 672.72 449.282L674.178 450.236C673.674 452.504 672.954 453.638 671.982 453.638C671.136 453.62 670.326 453.062 669.534 451.982C669.426 451.82 669.318 451.658 669.228 451.496C667.824 452.594 666.33 453.386 664.71 453.89L663.738 452.576C665.538 452 667.14 451.154 668.508 450.038C668.22 449.3 667.968 448.472 667.752 447.554C667.68 447.194 667.608 446.852 667.554 446.51L664.836 446.996L664.602 445.376L667.338 444.89C667.266 444.206 667.212 443.522 667.194 442.802L664.962 443.144L664.728 441.578L667.158 441.182V437.24H668.886V440.912L672.882 440.282ZM670.794 437.186C671.586 437.978 672.198 438.68 672.612 439.274L671.28 440.21C670.848 439.526 670.236 438.788 669.48 437.996L670.794 437.186ZM686.868 442.604V448.382H680.46V451.316C680.46 451.784 680.73 452.018 681.288 452.018H689.568C689.946 451.982 690.198 451.838 690.342 451.55C690.45 451.316 690.54 450.668 690.648 449.606L692.268 450.128C692.16 451.208 692.016 451.982 691.854 452.45C691.602 453.188 691.008 453.584 690.108 453.62H680.586C679.362 453.62 678.75 453.062 678.75 451.982V443.144C678.354 443.612 677.94 444.062 677.526 444.458L676.338 443.018C677.922 441.578 679.272 439.598 680.388 437.078L682.116 437.474C681.882 438.014 681.648 438.518 681.414 439.022H691.26C691.26 443.738 691.152 446.654 690.972 447.77C690.792 448.886 690.054 449.462 688.74 449.462C688.524 449.462 688.146 449.426 687.606 449.39L687.192 447.86C687.696 447.914 688.128 447.95 688.488 447.95C688.956 447.95 689.244 447.626 689.316 447.014C689.424 446.366 689.478 444.26 689.514 440.66H680.514C680.082 441.362 679.65 442.01 679.182 442.604H686.868ZM680.46 446.834H685.14V444.152H680.46V446.834Z" fill="white"/>
<path d="M978.053 380.113L1141.71 380.11C1142.46 380.11 1142.54 381.192 1141.8 381.303L974.428 406.473C971.145 406.966 967.829 407.204 964.509 407.183L793.527 406.109L978.053 380.113Z" fill="url(#paint4_linear_3807_699)"/>
<path fill-rule="evenodd" clip-rule="evenodd" d="M1149.74 388.002C1149.74 383.11 1145.39 379.364 1140.55 380.09L970.465 405.622C970.072 405.681 969.675 405.711 969.277 405.711H796C791.582 405.711 788 409.293 788 413.711V473.711C788 478.129 791.582 481.711 796 481.711H969.235C969.661 481.711 970.085 481.677 970.506 481.61L1143.01 453.864C1146.89 453.24 1149.74 449.893 1149.74 445.965V388.002Z" fill="url(#paint5_linear_3807_699)"/>
<path d="M824.034 439.922C823.656 440.462 823.26 440.912 822.846 441.29H825.438C825.51 440.84 825.564 440.39 825.6 439.922H824.034ZM824.97 442.856H821.622V441.29H822.432L821.586 440.228C822.414 439.49 823.152 438.446 823.764 437.078L825.294 437.402C825.168 437.762 825.024 438.086 824.88 438.41H829.812V439.922H827.238C827.202 440.408 827.166 440.858 827.094 441.29H830.316V442.856H826.734C826.698 442.946 826.68 443.036 826.662 443.108C827.994 443.792 829.11 444.476 830.046 445.16L828.984 446.24H835.86V453.89H834.132V453.188H825.636V453.89H823.926V446.492C823.458 446.78 822.972 447.068 822.432 447.32L821.28 445.934C823.152 445.106 824.358 444.116 824.934 442.928L824.97 442.856ZM825.636 451.676H834.132V450.488H825.636V451.676ZM825.636 449.012H834.132V447.752H825.636V449.012ZM824.286 446.24H828.678C827.994 445.628 827.148 444.998 826.104 444.35C825.672 445.034 825.06 445.664 824.286 446.24ZM830.874 438.428H837.174V445.232H830.874V438.428ZM835.5 443.738V439.94H832.548V443.738H835.5ZM842.646 447.788V449.102H846.354V447.788H842.646ZM846.354 446.384V444.998H842.646V446.384H846.354ZM842.646 450.524V453.89H840.99V443.504H848.01V451.892C848.01 453.134 847.416 453.764 846.264 453.764H844.86L844.446 452.162L845.724 452.234C846.138 452.234 846.354 452 846.354 451.532V450.524H842.646ZM854.148 445.214H851.214C849.954 445.214 849.342 444.53 849.342 443.162V437.312H851.034V439.436C852.888 439.148 854.4 438.86 855.57 438.536L856.128 440.048C854.652 440.39 852.96 440.714 851.034 441.002V442.802C851.034 443.378 851.25 443.684 851.682 443.684H853.824C854.112 443.684 854.31 443.594 854.436 443.414C854.58 443.198 854.688 442.586 854.724 441.578L856.326 442.1C856.182 443.594 855.93 444.494 855.606 444.8C855.282 445.07 854.796 445.214 854.148 445.214ZM851.034 449.372V451.568C851.034 451.892 851.232 452.054 851.664 452.054H853.842C854.13 452.054 854.346 451.964 854.472 451.802C854.616 451.586 854.724 450.974 854.778 449.966L856.326 450.47C856.182 451.982 855.948 452.882 855.624 453.17C855.318 453.44 854.832 453.584 854.166 453.584H851.178C849.954 453.584 849.342 453.026 849.342 451.946V445.844H851.034V447.824C852.726 447.644 854.238 447.338 855.57 446.942L856.128 448.472C854.544 448.904 852.834 449.192 851.034 449.372ZM846.714 438.5C847.776 439.922 848.586 441.164 849.162 442.208L847.758 443.216C847.578 442.856 847.38 442.478 847.164 442.1C845.292 442.388 843.042 442.604 840.414 442.748L839.946 441.326C840.252 441.218 840.504 441.074 840.72 440.894C841.818 439.67 842.664 438.446 843.24 437.222L844.878 437.708C844.122 439.184 843.276 440.354 842.34 441.254C843.6 441.182 844.968 441.038 846.426 440.858C846.102 440.354 845.76 439.85 845.4 439.328L846.714 438.5ZM866.1 437.204H867.36C869.628 439.76 872.22 441.776 875.172 443.252L874.254 444.89C873.264 444.35 872.328 443.774 871.464 443.162V444.44H861.996V443.126C861.096 443.774 860.142 444.368 859.134 444.926L858.234 443.27C861.384 441.65 864.012 439.616 866.1 437.204ZM862.446 442.802H870.978C869.394 441.614 867.972 440.264 866.73 438.752C865.524 440.228 864.102 441.578 862.446 442.802ZM872.598 446.366V453.836H870.942V452.864H862.518V453.836H860.862V446.366H872.598ZM862.518 451.244H870.942V447.968H862.518V451.244ZM886.638 444.548C887.916 446.06 888.888 447.374 889.572 448.508L888.114 449.516C887.412 448.292 886.44 446.924 885.216 445.43L886.638 444.548ZM886.44 437.204L888.168 437.42C887.97 438.32 887.718 439.184 887.412 440.012H892.92C892.92 446.384 892.83 450.326 892.65 451.838C892.452 453.152 891.552 453.818 889.968 453.818C889.518 453.818 888.744 453.782 887.646 453.728L887.214 452.144C888.168 452.198 888.996 452.234 889.68 452.234C890.472 452.234 890.922 451.838 891.048 451.046C891.156 450.11 891.21 447.014 891.246 441.722H886.692C886.08 442.964 885.324 444.08 884.46 445.07L883.38 443.648C884.892 441.884 885.9 439.742 886.44 437.204ZM883.83 450.02V451.748C881.958 452.36 879.816 452.864 877.422 453.242L877.206 451.55C879.744 451.154 881.958 450.65 883.83 450.02ZM879.96 437.15L881.616 437.798C880.788 439.958 879.96 441.722 879.096 443.072C879.762 443 880.428 442.892 881.112 442.766C881.472 442.082 881.85 441.362 882.246 440.588L883.902 441.2C882.282 444.134 880.914 446.276 879.798 447.626C881.058 447.374 882.318 447.05 883.614 446.618V448.148C881.544 448.814 879.582 449.264 877.728 449.498L877.278 447.932C877.584 447.788 877.836 447.626 878.052 447.428C878.628 446.816 879.348 445.808 880.212 444.368L877.494 444.818L877.062 443.216C877.332 443.108 877.584 442.874 877.8 442.55C878.628 440.93 879.348 439.13 879.96 437.15ZM897.78 437.24L899.436 437.6C899.292 438.122 899.148 438.626 899.004 439.13H902.172V440.768H898.428C898.158 441.416 897.87 442.046 897.582 442.64H901.686V444.188H900.156V446.15H902.46V447.734H900.156V451.118C900.984 450.758 901.794 450.272 902.622 449.678L902.892 451.208C901.632 452.126 900.156 452.864 898.482 453.44L897.762 451.982C898.23 451.82 898.482 451.586 898.482 451.28V447.734H896.016V446.15H898.482V444.188H897.438V442.91C897.222 443.288 897.024 443.648 896.808 444.008L895.422 443.126C896.538 441.308 897.312 439.346 897.78 437.24ZM910.92 440.282L911.154 441.866L906.96 442.532C906.978 443.252 907.014 443.936 907.068 444.584L911.37 443.81L911.64 445.43L907.248 446.222L907.32 446.708C907.464 447.5 907.626 448.238 907.824 448.886C908.58 448.094 909.264 447.23 909.876 446.294L911.19 447.158C910.326 448.418 909.426 449.534 908.454 450.47C908.472 450.506 908.49 450.524 908.508 450.56C908.994 451.388 909.444 451.82 909.84 451.82C910.182 451.82 910.488 450.974 910.758 449.282L912.216 450.236C911.712 452.504 910.992 453.638 910.02 453.638C909.174 453.62 908.364 453.062 907.572 451.982C907.464 451.82 907.356 451.658 907.266 451.496C905.862 452.594 904.368 453.386 902.748 453.89L901.776 452.576C903.576 452 905.178 451.154 906.546 450.038C906.258 449.3 906.006 448.472 905.79 447.554C905.718 447.194 905.646 446.852 905.592 446.51L902.874 446.996L902.64 445.376L905.376 444.89C905.304 444.206 905.25 443.522 905.232 442.802L903 443.144L902.766 441.578L905.196 441.182V437.24H906.924V440.912L910.92 440.282ZM908.832 437.186C909.624 437.978 910.236 438.68 910.65 439.274L909.318 440.21C908.886 439.526 908.274 438.788 907.518 437.996L908.832 437.186ZM924.906 442.604V448.382H918.498V451.316C918.498 451.784 918.768 452.018 919.326 452.018H927.606C927.984 451.982 928.236 451.838 928.38 451.55C928.488 451.316 928.578 450.668 928.686 449.606L930.306 450.128C930.198 451.208 930.054 451.982 929.892 452.45C929.64 453.188 929.046 453.584 928.146 453.62H918.624C917.4 453.62 916.788 453.062 916.788 451.982V443.144C916.392 443.612 915.978 444.062 915.564 444.458L914.376 443.018C915.96 441.578 917.31 439.598 918.426 437.078L920.154 437.474C919.92 438.014 919.686 438.518 919.452 439.022H929.298C929.298 443.738 929.19 446.654 929.01 447.77C928.83 448.886 928.092 449.462 926.778 449.462C926.562 449.462 926.184 449.426 925.644 449.39L925.23 447.86C925.734 447.914 926.166 447.95 926.526 447.95C926.994 447.95 927.282 447.626 927.354 447.014C927.462 446.366 927.516 444.26 927.552 440.66H918.552C918.12 441.362 917.688 442.01 917.22 442.604H924.906ZM918.498 446.834H923.178V444.152H918.498V446.834Z" fill="white"/>
<path d="M1204.31 380.113L1367.97 380.11C1368.72 380.11 1368.8 381.192 1368.06 381.303L1200.69 406.473C1197.41 406.966 1194.09 407.204 1190.77 407.183L1019.79 406.109L1204.31 380.113Z" fill="url(#paint6_linear_3807_699)"/>
<path fill-rule="evenodd" clip-rule="evenodd" d="M1376 388.002C1376 383.11 1371.65 379.364 1366.81 380.09L1196.73 405.622C1196.33 405.681 1195.94 405.711 1195.54 405.711H1022.26C1017.84 405.711 1014.26 409.293 1014.26 413.711V473.711C1014.26 478.129 1017.84 481.711 1022.26 481.711H1195.5C1195.92 481.711 1196.35 481.677 1196.77 481.61L1369.27 453.864C1373.15 453.24 1376 449.893 1376 445.965V388.002Z" fill="url(#paint7_linear_3807_699)"/>
<path d="M1057.6 439.347H1064.74C1064.44 438.699 1064.11 438.087 1063.75 437.547L1065.66 437.223C1066 437.853 1066.33 438.555 1066.63 439.347H1073.63V440.985H1057.6V439.347ZM1068.58 441.201C1070.57 442.749 1072.25 444.297 1073.62 445.845L1072.36 447.105C1071.19 445.629 1069.53 444.045 1067.41 442.335L1068.58 441.201ZM1068.43 444.603L1070.02 445.305C1069.19 446.871 1068.2 448.239 1067.01 449.427C1068.88 450.723 1071.17 451.695 1073.87 452.361L1072.81 453.963C1070 453.171 1067.62 452.055 1065.68 450.597C1063.7 452.145 1061.3 453.297 1058.5 454.035L1057.45 452.451C1060.15 451.785 1062.44 450.777 1064.29 449.445C1063.07 448.311 1062.04 447.015 1061.23 445.557L1062.71 444.711C1063.45 446.079 1064.42 447.303 1065.62 448.347C1066.78 447.267 1067.71 446.007 1068.43 444.603ZM1062.51 441.219L1063.75 442.317C1062.38 444.117 1060.69 445.665 1058.68 446.997L1057.56 445.557C1059.52 444.333 1061.18 442.875 1062.51 441.219ZM1080.78 444.585H1078.55V437.925H1089.83V444.585H1082.76C1082.49 444.981 1082.18 445.377 1081.86 445.737H1091.18C1091.13 447.717 1091.02 449.301 1090.86 450.525C1090.68 451.713 1090.41 452.559 1090.03 453.027C1089.65 453.495 1089.04 453.747 1088.18 453.783H1085.68L1085.23 452.181C1085.96 452.217 1086.67 452.253 1087.35 452.253C1088.16 452.253 1088.7 451.947 1088.95 451.335C1089.2 450.687 1089.38 449.337 1089.46 447.249H1088.05C1086.5 450.615 1084.06 452.847 1080.71 453.927L1079.74 452.505C1082.74 451.569 1084.94 449.805 1086.31 447.249H1084.36C1083.1 449.193 1081.1 450.723 1078.33 451.839L1077.23 450.507C1079.63 449.643 1081.39 448.563 1082.53 447.249H1080.19C1079.32 447.897 1078.33 448.473 1077.23 448.977L1076.3 447.465C1078.3 446.691 1079.79 445.737 1080.78 444.585ZM1088.16 443.145V441.921H1080.22V443.145H1088.16ZM1080.22 440.571H1088.16V439.383H1080.22V440.571ZM1101.71 448.239H1097.02C1096.8 450.399 1096.28 452.307 1095.45 453.927L1094.26 452.703C1095.13 450.939 1095.59 448.833 1095.63 446.421V438.807C1097.86 438.537 1099.55 438.051 1100.71 437.367L1101.86 438.663C1100.56 439.347 1098.98 439.797 1097.14 440.049V441.795H1101.71V448.239ZM1097.14 443.451V446.421C1097.14 446.511 1097.12 446.601 1097.12 446.673H1100.15V443.451H1097.14ZM1104.5 444.405V446.889C1104.47 450.039 1104.07 452.415 1103.28 453.999L1101.73 453.225C1102.49 451.713 1102.9 449.607 1102.94 446.889V438.555C1105.53 438.465 1107.71 438.069 1109.51 437.349L1110.37 438.843C1108.61 439.491 1106.65 439.851 1104.49 439.959L1104.5 442.767H1110.95V444.405H1109.04V453.963H1107.37V444.405H1104.5ZM1115.2 437.349L1116.85 437.709C1116.71 438.231 1116.56 438.735 1116.42 439.239H1119.59V440.877H1115.84C1115.57 441.525 1115.29 442.155 1115 442.749H1119.1V444.297H1117.57V446.259H1119.88V447.843H1117.57V451.227C1118.4 450.867 1119.21 450.381 1120.04 449.787L1120.31 451.317C1119.05 452.235 1117.57 452.973 1115.9 453.549L1115.18 452.091C1115.65 451.929 1115.9 451.695 1115.9 451.389V447.843H1113.43V446.259H1115.9V444.297H1114.85V443.019C1114.64 443.397 1114.44 443.757 1114.22 444.117L1112.84 443.235C1113.95 441.417 1114.73 439.455 1115.2 437.349ZM1128.34 440.391L1128.57 441.975L1124.38 442.641C1124.39 443.361 1124.43 444.045 1124.48 444.693L1128.79 443.919L1129.06 445.539L1124.66 446.331L1124.74 446.817C1124.88 447.609 1125.04 448.347 1125.24 448.995C1126 448.203 1126.68 447.339 1127.29 446.403L1128.61 447.267C1127.74 448.527 1126.84 449.643 1125.87 450.579C1125.89 450.615 1125.91 450.633 1125.92 450.669C1126.41 451.497 1126.86 451.929 1127.26 451.929C1127.6 451.929 1127.9 451.083 1128.17 449.391L1129.63 450.345C1129.13 452.613 1128.41 453.747 1127.44 453.747C1126.59 453.729 1125.78 453.171 1124.99 452.091C1124.88 451.929 1124.77 451.767 1124.68 451.605C1123.28 452.703 1121.78 453.495 1120.16 453.999L1119.19 452.685C1120.99 452.109 1122.59 451.263 1123.96 450.147C1123.67 449.409 1123.42 448.581 1123.21 447.663C1123.13 447.303 1123.06 446.961 1123.01 446.619L1120.29 447.105L1120.06 445.485L1122.79 444.999C1122.72 444.315 1122.67 443.631 1122.65 442.911L1120.42 443.253L1120.18 441.687L1122.61 441.291V437.349H1124.34V441.021L1128.34 440.391ZM1126.25 437.295C1127.04 438.087 1127.65 438.789 1128.07 439.383L1126.73 440.319C1126.3 439.635 1125.69 438.897 1124.93 438.105L1126.25 437.295ZM1142.32 442.713V448.491H1135.91V451.425C1135.91 451.893 1136.18 452.127 1136.74 452.127H1145.02C1145.4 452.091 1145.65 451.947 1145.8 451.659C1145.9 451.425 1145.99 450.777 1146.1 449.715L1147.72 450.237C1147.61 451.317 1147.47 452.091 1147.31 452.559C1147.06 453.297 1146.46 453.693 1145.56 453.729H1136.04C1134.82 453.729 1134.2 453.171 1134.2 452.091V443.253C1133.81 443.721 1133.39 444.171 1132.98 444.567L1131.79 443.127C1133.38 441.687 1134.73 439.707 1135.84 437.187L1137.57 437.583C1137.34 438.123 1137.1 438.627 1136.87 439.131H1146.71C1146.71 443.847 1146.61 446.763 1146.43 447.879C1146.25 448.995 1145.51 449.571 1144.19 449.571C1143.98 449.571 1143.6 449.535 1143.06 449.499L1142.65 447.969C1143.15 448.023 1143.58 448.059 1143.94 448.059C1144.41 448.059 1144.7 447.735 1144.77 447.123C1144.88 446.475 1144.93 444.369 1144.97 440.769H1135.97C1135.54 441.471 1135.1 442.119 1134.64 442.713H1142.32ZM1135.91 446.943H1140.59V444.261H1135.91V446.943Z" fill="white"/>
<path d="M67.864 420.296L70.264 420.824C70.096 421.496 69.928 422.12 69.736 422.744H73.84V425.12H68.92C68.584 425.936 68.248 426.704 67.888 427.424H73.192V429.68H71.248V432.104H74.224V434.408H71.248V438.608C72.304 438.128 73.336 437.504 74.392 436.736L74.8 438.992C73.072 440.216 71.08 441.224 68.824 441.992L67.792 439.856C68.464 439.616 68.8 439.304 68.8 438.872V434.408H65.584V432.104H68.8V429.68H67.504V428.144C67.264 428.576 67.024 428.984 66.784 429.392L64.744 428.096C66.232 425.648 67.264 423.056 67.864 420.296ZM85.456 424.28L85.816 426.584L80.32 427.448C80.344 428.336 80.392 429.176 80.464 429.992L86.08 428.984L86.464 431.336L80.728 432.368L80.776 432.824C80.944 433.856 81.16 434.792 81.4 435.608C82.336 434.624 83.2 433.52 83.992 432.32L85.888 433.592C84.784 435.248 83.584 436.688 82.312 437.936C82.912 438.992 83.464 439.544 83.968 439.544C84.4 439.544 84.76 438.44 85.096 436.256L87.256 437.672C86.56 440.696 85.552 442.208 84.232 442.208C83.08 442.184 82 441.44 80.944 440L80.584 439.448C78.736 440.888 76.744 441.92 74.632 442.568L73.24 440.672C75.592 439.904 77.704 438.8 79.528 437.336C79.144 436.352 78.808 435.272 78.544 434.096C78.448 433.664 78.352 433.232 78.304 432.8L74.776 433.424L74.416 431.072L77.968 430.448C77.872 429.584 77.824 428.72 77.776 427.832L74.944 428.288L74.584 425.984L77.728 425.504V420.272H80.272V425.096L85.456 424.28ZM82.792 420.176C83.848 421.256 84.64 422.192 85.192 422.96L83.248 424.328C82.672 423.44 81.88 422.456 80.896 421.376L82.792 420.176ZM104.2 427.376V435.248H95.728V438.944C95.728 439.544 96.064 439.856 96.784 439.856H107.68C108.16 439.808 108.472 439.616 108.64 439.256C108.76 438.992 108.904 438.152 109.048 436.76L111.424 437.552C111.256 438.992 111.064 440 110.848 440.6C110.512 441.608 109.744 442.136 108.496 442.184H95.728C94.048 442.184 93.208 441.44 93.208 439.952V428.48C92.728 429.008 92.272 429.512 91.792 429.992L90.016 427.88C92.08 426.056 93.856 423.44 95.392 420.08L97.936 420.656C97.648 421.328 97.336 421.976 97.048 422.6H110.056C110.056 428.984 109.912 432.92 109.672 434.408C109.432 435.896 108.424 436.664 106.648 436.664C106.36 436.664 105.832 436.616 105.112 436.544L104.512 434.312C105.184 434.384 105.76 434.432 106.24 434.432C106.816 434.432 107.152 434.048 107.248 433.28C107.392 432.464 107.464 429.704 107.512 424.976H95.728C95.2 425.84 94.672 426.632 94.12 427.376H104.2ZM95.728 432.992H101.68V429.632H95.728V432.992ZM135.664 421.664V441.488H133.216V439.76H128.296V441.776H125.872V421.664H135.664ZM128.296 437.408H133.216V423.992H128.296V437.408ZM115.048 426.632H118.984V423.968C117.928 424.136 116.848 424.256 115.792 424.328L114.976 422.096C118.72 421.784 121.72 421.208 123.928 420.368L125.104 422.432C123.88 422.864 122.632 423.248 121.384 423.536V426.632H125.224V428.96H121.384V429.824C122.728 430.952 124.072 432.248 125.44 433.688L123.976 435.872C122.968 434.384 122.104 433.184 121.384 432.272V442.232H118.984V432.896C118.024 434.816 116.848 436.568 115.432 438.176L114.352 435.416C116.44 433.544 117.976 431.432 118.984 429.08V428.96H115.048V426.632ZM160.552 428.96L160.936 431.36L154.024 432.296V438.8C154.024 439.352 154.288 439.64 154.864 439.64H157.864C158.2 439.64 158.464 439.448 158.608 439.088C158.776 438.704 158.896 437.552 158.968 435.632L161.344 436.376C161.152 439.112 160.84 440.744 160.384 441.272C159.904 441.752 159.232 442.016 158.344 442.016H154.096C152.368 442.016 151.504 441.104 151.504 439.328V432.632L147.88 433.136L147.52 430.76L151.504 430.208V424.808C150.496 424.952 149.464 425.072 148.432 425.144L147.64 422.912C152.248 422.48 155.92 421.664 158.656 420.488L159.856 422.576C157.984 423.344 156.04 423.944 154.024 424.376V429.872L160.552 428.96ZM142.336 442.28H139.84L139.288 439.856C140.056 439.952 140.8 440 141.472 440C142.024 440 142.312 439.736 142.312 439.208V434.264C141.4 434.528 140.488 434.792 139.576 435.032L138.952 432.632C140.08 432.416 141.208 432.152 142.312 431.816V427.04H139.24V424.616H142.312V420.392H144.832V424.616H146.968V427.04H144.832V430.952C145.48 430.688 146.128 430.4 146.776 430.112V432.632C146.128 432.896 145.48 433.16 144.832 433.4V439.832C144.832 441.464 143.992 442.28 142.336 442.28ZM181.936 429.704V434.864H170.368V435.992H183.064V442.52H180.592V441.704H170.368V442.496H167.848V429.704H181.936ZM170.368 439.496H180.592V437.96H170.368V439.496ZM170.368 432.896H179.512V431.696H170.368V432.896ZM185.248 426.656V431.36H182.8V428.768H166.96V431.36H164.512V426.656H173.704C173.512 426.224 173.32 425.84 173.128 425.48L175.24 425.12L174.76 424.808C175.864 423.368 176.656 421.832 177.136 420.2L179.512 420.728C179.392 421.088 179.272 421.448 179.152 421.784H185.752V423.968H181.96C182.296 424.448 182.584 424.928 182.824 425.36L180.616 426.2C180.232 425.432 179.8 424.688 179.296 423.968H178.216C177.808 424.736 177.352 425.456 176.872 426.128L175.768 425.432C175.912 425.816 176.08 426.224 176.224 426.656H185.248ZM167.896 423.968C167.392 424.832 166.84 425.624 166.216 426.344L164.032 424.952C165.424 423.464 166.384 421.856 166.936 420.176L169.36 420.704C169.216 421.064 169.096 421.424 168.952 421.784H174.856V423.968H171.448C171.832 424.52 172.168 425.048 172.432 425.552L170.152 426.44C169.768 425.576 169.312 424.76 168.784 423.968H167.896ZM191.464 442.232H189.4L188.872 439.904C189.472 440 190.048 440.048 190.624 440.048C191.152 440.048 191.416 439.736 191.416 439.112V434.288C190.6 434.6 189.76 434.888 188.944 435.176L188.296 432.704C189.352 432.464 190.384 432.152 191.416 431.816V426.848H188.776V424.424H191.416V420.32H193.864V424.424H196.12V426.848H193.864V430.832C194.632 430.472 195.4 430.088 196.168 429.656V432.104C195.4 432.512 194.632 432.896 193.864 433.256V439.736C193.864 441.392 193.048 442.232 191.464 442.232ZM196.72 423.512H202.264V420.368H204.712V423.512H210.256V425.888H204.712V429.128H209.344V431.336C208.624 433.808 207.376 435.92 205.648 437.696C207.088 438.728 208.864 439.64 210.928 440.456L209.632 442.544C207.352 441.536 205.432 440.432 203.896 439.232C202.096 440.6 199.912 441.728 197.344 442.616L196.168 440.504C198.496 439.784 200.488 438.848 202.12 437.672C200.296 435.824 199.072 433.76 198.448 431.48H197.2V429.128H202.264V425.888H196.72V423.512ZM200.8 431.48C201.352 433.232 202.36 434.816 203.824 436.208C205.168 434.864 206.2 433.28 206.896 431.48H200.8ZM214.024 425.72H223.072V420.224H225.568V425.72H234.64V428.096H227.776C229.264 431.72 231.784 434.96 235.36 437.84L233.656 439.976C229.864 436.52 227.152 432.704 225.568 428.48V442.472H223.072V428.504C221.32 433.16 218.488 437 214.576 440.024L213.184 437.792C216.664 435.248 219.232 432.032 220.864 428.096H214.024V425.72ZM229.48 420.248C230.824 421.664 231.856 422.888 232.576 423.944L230.584 425.36C229.816 424.208 228.808 422.912 227.512 421.472L229.48 420.248Z" fill="black"/>
<rect opacity="0.03" width="1440" height="302" rx="32" fill="#1F31D6"/>
<path d="M512.096 141.814C515.453 141.274 518.848 141.003 522.248 141.003L912.556 141C913.294 141 913.38 142.074 912.652 142.192L745.715 169.279C742.327 169.829 738.899 170.105 735.466 170.105L336 170.108L512.096 141.814Z" fill="url(#paint8_linear_3807_699)"/>
<path fill-rule="evenodd" clip-rule="evenodd" d="M920 149.002C920 144.073 915.586 140.317 910.721 141.105L741.636 168.499C741.213 168.567 740.785 168.601 740.356 168.601H344C339.582 168.601 336 172.183 336 176.601V236.601C336 241.02 339.582 244.601 344 244.601H740.358C740.785 244.601 741.212 244.567 741.634 244.499L913.276 216.758C917.152 216.132 920 212.786 920 208.861V149.002Z" fill="url(#paint9_linear_3807_699)"/>
<path d="M485.625 198.44C487.285 198.44 488.665 198.86 489.745 199.74C490.785 200.58 491.425 201.74 491.645 203.18H489.525C489.285 202.22 488.825 201.5 488.145 201.04C487.465 200.58 486.625 200.36 485.585 200.36C484.045 200.36 482.885 200.88 482.105 201.94C481.365 202.9 481.005 204.22 481.005 205.88C481.005 207.6 481.365 208.92 482.085 209.86C482.845 210.86 484.025 211.36 485.625 211.36C486.665 211.36 487.545 211.1 488.225 210.58C488.945 210.02 489.445 209.18 489.725 208.06H491.845C491.525 209.72 490.785 211.02 489.605 211.96C488.505 212.84 487.185 213.28 485.645 213.28C483.305 213.28 481.545 212.52 480.365 211.04C479.325 209.76 478.825 208.04 478.825 205.88C478.825 203.76 479.345 202.04 480.425 200.7C481.625 199.18 483.345 198.44 485.625 198.44ZM499.214 202.38C500.774 202.38 502.034 202.9 502.974 203.94C503.894 204.96 504.374 206.26 504.374 207.84C504.374 209.4 503.914 210.7 502.994 211.7C502.034 212.74 500.774 213.28 499.214 213.28C497.654 213.28 496.394 212.74 495.434 211.7C494.514 210.7 494.054 209.4 494.054 207.84C494.054 206.26 494.514 204.96 495.454 203.94C496.394 202.9 497.654 202.38 499.214 202.38ZM499.214 204.12C498.234 204.12 497.474 204.5 496.934 205.28C496.454 205.94 496.234 206.8 496.234 207.84C496.234 208.88 496.454 209.72 496.934 210.38C497.474 211.14 498.234 211.54 499.214 211.54C500.194 211.54 500.954 211.14 501.514 210.38C501.994 209.7 502.234 208.86 502.234 207.84C502.234 206.8 501.994 205.94 501.514 205.28C500.954 204.5 500.194 204.12 499.214 204.12ZM506.987 198.44H509.107V204.2C509.947 202.98 510.987 202.38 512.267 202.38C513.747 202.38 514.907 202.92 515.767 204C516.547 205 516.947 206.26 516.947 207.78C516.947 209.36 516.547 210.66 515.747 211.66C514.867 212.74 513.687 213.28 512.167 213.28C510.747 213.28 509.687 212.76 508.967 211.76V213H506.987V198.44ZM511.787 204.1C510.987 204.1 510.347 204.4 509.867 205.04C509.307 205.72 509.047 206.62 509.047 207.74V207.92C509.047 208.96 509.267 209.8 509.707 210.46C510.207 211.18 510.927 211.56 511.847 211.56C512.887 211.56 513.647 211.18 514.147 210.44C514.547 209.8 514.767 208.92 514.767 207.78C514.767 206.64 514.547 205.76 514.107 205.16C513.607 204.44 512.827 204.1 511.787 204.1ZM524.3 202.38C525.86 202.38 527.12 202.9 528.06 203.94C528.98 204.96 529.46 206.26 529.46 207.84C529.46 209.4 529 210.7 528.08 211.7C527.12 212.74 525.86 213.28 524.3 213.28C522.74 213.28 521.48 212.74 520.52 211.7C519.6 210.7 519.14 209.4 519.14 207.84C519.14 206.26 519.6 204.96 520.54 203.94C521.48 202.9 522.74 202.38 524.3 202.38ZM524.3 204.12C523.32 204.12 522.56 204.5 522.02 205.28C521.54 205.94 521.32 206.8 521.32 207.84C521.32 208.88 521.54 209.72 522.02 210.38C522.56 211.14 523.32 211.54 524.3 211.54C525.28 211.54 526.04 211.14 526.6 210.38C527.08 209.7 527.32 208.86 527.32 207.84C527.32 206.8 527.08 205.94 526.6 205.28C526.04 204.5 525.28 204.12 524.3 204.12ZM539.534 198.72H545.454C548.854 198.72 550.554 200.16 550.554 203.06C550.554 205.98 548.834 207.44 545.414 207.44H541.714V213H539.534V198.72ZM541.714 200.58V205.58H545.274C546.354 205.58 547.134 205.38 547.634 204.98C548.114 204.58 548.374 203.94 548.374 203.06C548.374 202.18 548.114 201.54 547.614 201.18C547.114 200.78 546.334 200.58 545.274 200.58H541.714ZM557.741 202.38C559.301 202.38 560.561 202.9 561.501 203.94C562.421 204.96 562.901 206.26 562.901 207.84C562.901 209.4 562.441 210.7 561.521 211.7C560.561 212.74 559.301 213.28 557.741 213.28C556.181 213.28 554.921 212.74 553.961 211.7C553.041 210.7 552.581 209.4 552.581 207.84C552.581 206.26 553.041 204.96 553.981 203.94C554.921 202.9 556.181 202.38 557.741 202.38ZM557.741 204.12C556.761 204.12 556.001 204.5 555.461 205.28C554.981 205.94 554.761 206.8 554.761 207.84C554.761 208.88 554.981 209.72 555.461 210.38C556.001 211.14 556.761 211.54 557.741 211.54C558.721 211.54 559.481 211.14 560.041 210.38C560.521 209.7 560.761 208.86 560.761 207.84C560.761 206.8 560.521 205.94 560.041 205.28C559.481 204.5 558.721 204.12 557.741 204.12ZM570.314 202.38C570.834 202.38 571.294 202.46 571.654 202.64V204.76C571.134 204.6 570.634 204.54 570.154 204.54C569.514 204.54 568.934 204.8 568.434 205.32C567.894 205.88 567.634 206.62 567.634 207.52V213H565.514V202.66H567.634V204.22C567.894 203.66 568.234 203.24 568.634 202.96C569.114 202.56 569.674 202.38 570.314 202.38ZM576.696 199.32V202.66H579.056V204.42H576.696V210.42C576.696 210.7 576.756 210.9 576.876 211.04C576.996 211.16 577.176 211.24 577.436 211.24H578.796V213H577.096C576.216 213 575.556 212.76 575.156 212.3C574.756 211.86 574.576 211.24 574.576 210.42V204.42H572.656V202.66H574.576V200.2L576.696 199.32ZM586.023 202.38C587.543 202.38 588.663 202.76 589.383 203.52C590.003 204.18 590.323 205.14 590.323 206.4V213H588.363V211.54C587.963 212.06 587.463 212.48 586.863 212.78C586.183 213.1 585.383 213.28 584.463 213.28C583.383 213.28 582.543 213 581.943 212.46C581.283 211.92 580.963 211.22 580.963 210.36C580.963 209.2 581.423 208.3 582.343 207.68C583.183 207.08 584.383 206.78 585.903 206.74L588.223 206.68V206.26C588.223 204.82 587.443 204.1 585.883 204.1C585.223 204.1 584.683 204.22 584.283 204.46C583.803 204.74 583.503 205.16 583.383 205.74L581.283 205.56C581.503 204.44 582.063 203.6 582.943 203.08C583.703 202.6 584.743 202.38 586.023 202.38ZM588.223 208.22L586.043 208.28C584.103 208.32 583.143 209 583.143 210.28C583.143 210.68 583.303 211 583.643 211.26C583.963 211.52 584.403 211.66 584.943 211.66C585.843 211.66 586.603 211.38 587.243 210.84C587.883 210.3 588.223 209.62 588.223 208.82V208.22ZM593.59 198.44H595.71V213H593.59V198.44Z" fill="#1F31D6"/>
<path d="M968.096 141.814C971.453 141.274 974.848 141.003 978.248 141.003L1368.56 141C1369.29 141 1369.38 142.074 1368.65 142.192L1201.72 169.279C1198.33 169.829 1194.9 170.105 1191.47 170.105L792 170.108L968.096 141.814Z" fill="url(#paint10_linear_3807_699)"/>
<path fill-rule="evenodd" clip-rule="evenodd" d="M1376 149.002C1376 144.073 1371.59 140.317 1366.72 141.105L1197.64 168.499C1197.21 168.567 1196.78 168.601 1196.36 168.601H800C795.582 168.601 792 172.183 792 176.601V236.601C792 241.02 795.582 244.601 800 244.601H1196.36C1196.79 244.601 1197.21 244.567 1197.63 244.499L1369.28 216.758C1373.15 216.132 1376 212.786 1376 208.861V149.002Z" fill="url(#paint11_linear_3807_699)"/>
<path d="M897.543 196.6L899.383 197C899.223 197.58 899.063 198.14 898.903 198.7H902.423V200.52H898.263C897.963 201.24 897.643 201.94 897.323 202.6H901.883V204.32H900.183V206.5H902.743V208.26H900.183V212.02C901.103 211.62 902.003 211.08 902.923 210.42L903.223 212.12C901.823 213.14 900.183 213.96 898.323 214.6L897.523 212.98C898.043 212.8 898.323 212.54 898.323 212.2V208.26H895.583V206.5H898.323V204.32H897.163V202.9C896.923 203.32 896.703 203.72 896.463 204.12L894.923 203.14C896.163 201.12 897.023 198.94 897.543 196.6ZM912.143 199.98L912.403 201.74L907.743 202.48C907.763 203.28 907.803 204.04 907.863 204.76L912.643 203.9L912.943 205.7L908.063 206.58L908.143 207.12C908.303 208 908.483 208.82 908.703 209.54C909.543 208.66 910.303 207.7 910.983 206.66L912.443 207.62C911.483 209.02 910.483 210.26 909.403 211.3C909.423 211.34 909.443 211.36 909.463 211.4C910.003 212.32 910.503 212.8 910.943 212.8C911.323 212.8 911.663 211.86 911.963 209.98L913.583 211.04C913.023 213.56 912.223 214.82 911.143 214.82C910.203 214.8 909.303 214.18 908.423 212.98C908.303 212.8 908.183 212.62 908.083 212.44C906.523 213.66 904.863 214.54 903.063 215.1L901.983 213.64C903.983 213 905.763 212.06 907.283 210.82C906.963 210 906.683 209.08 906.443 208.06C906.363 207.66 906.283 207.28 906.223 206.9L903.203 207.44L902.943 205.64L905.983 205.1C905.903 204.34 905.843 203.58 905.823 202.78L903.343 203.16L903.083 201.42L905.783 200.98V196.6H907.703V200.68L912.143 199.98ZM909.823 196.54C910.703 197.42 911.383 198.2 911.843 198.86L910.363 199.9C909.883 199.14 909.203 198.32 908.363 197.44L909.823 196.54ZM927.683 202.56V208.98H920.563V212.24C920.563 212.76 920.863 213.02 921.483 213.02H930.683C931.103 212.98 931.383 212.82 931.543 212.5C931.663 212.24 931.763 211.52 931.883 210.34L933.683 210.92C933.563 212.12 933.403 212.98 933.223 213.5C932.943 214.32 932.283 214.76 931.283 214.8H920.703C919.343 214.8 918.663 214.18 918.663 212.98V203.16C918.223 203.68 917.763 204.18 917.303 204.62L915.983 203.02C917.743 201.42 919.243 199.22 920.483 196.42L922.403 196.86C922.143 197.46 921.883 198.02 921.623 198.58H932.563C932.563 203.82 932.443 207.06 932.243 208.3C932.043 209.54 931.223 210.18 929.763 210.18C929.523 210.18 929.103 210.14 928.503 210.1L928.043 208.4C928.603 208.46 929.083 208.5 929.483 208.5C930.003 208.5 930.323 208.14 930.403 207.46C930.523 206.74 930.583 204.4 930.623 200.4H920.623C920.143 201.18 919.663 201.9 919.143 202.56H927.683ZM920.563 207.26H925.763V204.28H920.563V207.26ZM939.063 202.88V205.2H943.263V202.88H939.063ZM943.263 201.18V198.98H939.063V201.18H943.263ZM937.043 214.5L936.383 212.68C936.923 212.48 937.203 212.16 937.203 211.7V197.28H945.023V206.96H939.063V212.06C940.583 211.62 941.943 211.16 943.143 210.68C942.803 210.12 942.463 209.58 942.123 209.02L943.563 208.1C944.803 210 945.743 211.66 946.403 213.06L944.923 214.1C944.643 213.5 944.343 212.9 944.023 212.26C941.983 213.12 939.643 213.86 937.043 214.5ZM951.843 212.32H950.243L949.743 210.48L951.223 210.54C951.783 210.54 952.063 210.26 952.063 209.74V199.08H949.003V215H947.103V197.3H953.963V210.16C953.963 211.6 953.243 212.32 951.843 212.32ZM959.883 203.7V206.62H962.683V203.7H959.883ZM962.683 202V199.04H959.883V202H962.683ZM959.843 208.34C959.703 211.06 959.223 213.32 958.403 215.1L956.963 213.8C957.763 212.06 958.163 209.84 958.183 207.14V197.32H964.403V212.96C964.403 214.32 963.783 215 962.563 215H960.963L960.503 213.32C961.063 213.38 961.563 213.42 962.043 213.42C962.463 213.42 962.683 213.06 962.683 212.36V208.34H959.843ZM967.543 206.36V213.5C968.583 212.94 969.463 212.22 970.203 211.38C969.043 209.9 968.243 208.22 967.803 206.36H967.543ZM967.543 213.56V215.08H965.763V197.32H974.183C974.183 199.92 974.063 201.64 973.823 202.5C973.583 203.34 972.823 203.76 971.543 203.76H969.863L969.363 202.16C969.683 202.16 970.123 202.18 970.683 202.18C971.103 202.18 971.423 202.14 971.623 202.08C971.823 202.02 971.983 201.84 972.103 201.56C972.223 201.22 972.303 200.38 972.343 199.04H967.543V204.68H974.303V206.28C973.943 208.24 973.343 209.92 972.503 211.3C973.323 212.08 974.283 212.78 975.363 213.42L974.423 215.02C973.283 214.34 972.283 213.58 971.443 212.76C970.623 213.68 969.643 214.44 968.523 215.04L967.543 213.56ZM969.423 206.36C969.823 207.66 970.423 208.84 971.243 209.9C971.843 208.86 972.303 207.68 972.623 206.36H969.423ZM983.263 196.52L985.203 196.8C985.003 197.28 984.783 197.74 984.543 198.16H993.103V199.7C991.903 201.08 990.443 202.28 988.743 203.28C990.883 204.08 993.263 204.62 995.903 204.86L995.043 206.64C991.943 206.28 989.143 205.52 986.663 204.34C984.263 205.42 981.463 206.2 978.303 206.68L977.423 204.9C980.103 204.56 982.503 204 984.583 203.22C983.623 202.66 982.743 202.02 981.923 201.34C981.243 201.92 980.503 202.46 979.683 202.96L978.523 201.44C980.863 200.1 982.443 198.46 983.263 196.52ZM986.643 202.34C988.023 201.66 989.243 200.86 990.323 199.94H983.303C983.243 200 983.203 200.04 983.183 200.08C984.223 200.94 985.383 201.7 986.643 202.34ZM985.203 205.56H987.083C987.083 206.28 987.023 206.96 986.923 207.6H993.823C993.783 211.1 993.483 213.2 992.923 213.88C992.363 214.56 991.363 214.92 989.963 214.92C989.283 214.92 988.443 214.88 987.483 214.82L987.003 213.1C988.043 213.14 988.883 213.18 989.523 213.22C990.543 213.2 991.183 212.98 991.443 212.58C991.703 212.16 991.863 211.06 991.923 209.3H986.503C986.323 209.78 986.123 210.24 985.883 210.66C984.883 212.46 982.543 213.94 978.843 215.12L977.583 213.58C980.843 212.62 982.983 211.46 983.983 210.08C984.143 209.82 984.303 209.56 984.423 209.3H978.803V207.6H985.003C985.123 206.96 985.203 206.28 985.203 205.56ZM1013.86 196.46H1015.64C1014.8 197.82 1014.16 199.2 1013.72 200.6C1013.12 202.32 1012.84 204.06 1012.84 205.8C1012.84 207.52 1013.12 209.26 1013.72 211C1014.16 212.38 1014.8 213.76 1015.64 215.14H1013.86C1012.92 213.82 1012.2 212.46 1011.7 211.06C1011.08 209.36 1010.78 207.62 1010.78 205.82C1010.78 204 1011.08 202.24 1011.7 200.56C1012.2 199.12 1012.92 197.76 1013.86 196.46ZM1017.94 198.72H1020.4L1023.18 209.84H1023.26L1026.18 198.72H1028.46L1031.38 209.84H1031.46L1034.24 198.72H1036.7L1032.58 213H1030.26L1027.36 201.98H1027.28L1024.38 213H1022.04L1017.94 198.72ZM1043.27 202.38C1044.79 202.38 1045.91 202.76 1046.63 203.52C1047.25 204.18 1047.57 205.14 1047.57 206.4V213H1045.61V211.54C1045.21 212.06 1044.71 212.48 1044.11 212.78C1043.43 213.1 1042.63 213.28 1041.71 213.28C1040.63 213.28 1039.79 213 1039.19 212.46C1038.53 211.92 1038.21 211.22 1038.21 210.36C1038.21 209.2 1038.67 208.3 1039.59 207.68C1040.43 207.08 1041.63 206.78 1043.15 206.74L1045.47 206.68V206.26C1045.47 204.82 1044.69 204.1 1043.13 204.1C1042.47 204.1 1041.93 204.22 1041.53 204.46C1041.05 204.74 1040.75 205.16 1040.63 205.74L1038.53 205.56C1038.75 204.44 1039.31 203.6 1040.19 203.08C1040.95 202.6 1041.99 202.38 1043.27 202.38ZM1045.47 208.22L1043.29 208.28C1041.35 208.32 1040.39 209 1040.39 210.28C1040.39 210.68 1040.55 211 1040.89 211.26C1041.21 211.52 1041.65 211.66 1042.19 211.66C1043.09 211.66 1043.85 211.38 1044.49 210.84C1045.13 210.3 1045.47 209.62 1045.47 208.82V208.22ZM1055.25 202.38C1056.77 202.38 1057.89 202.76 1058.61 203.52C1059.23 204.18 1059.55 205.14 1059.55 206.4V213H1057.59V211.54C1057.19 212.06 1056.69 212.48 1056.09 212.78C1055.41 213.1 1054.61 213.28 1053.69 213.28C1052.61 213.28 1051.77 213 1051.17 212.46C1050.51 211.92 1050.19 211.22 1050.19 210.36C1050.19 209.2 1050.65 208.3 1051.57 207.68C1052.41 207.08 1053.61 206.78 1055.13 206.74L1057.45 206.68V206.26C1057.45 204.82 1056.67 204.1 1055.11 204.1C1054.45 204.1 1053.91 204.22 1053.51 204.46C1053.03 204.74 1052.73 205.16 1052.61 205.74L1050.51 205.56C1050.73 204.44 1051.29 203.6 1052.17 203.08C1052.93 202.6 1053.97 202.38 1055.25 202.38ZM1057.45 208.22L1055.27 208.28C1053.33 208.32 1052.37 209 1052.37 210.28C1052.37 210.68 1052.53 211 1052.87 211.26C1053.19 211.52 1053.63 211.66 1054.17 211.66C1055.07 211.66 1055.83 211.38 1056.47 210.84C1057.11 210.3 1057.45 209.62 1057.45 208.82V208.22ZM1067.78 198.44C1069.44 198.44 1070.74 198.78 1071.68 199.5C1072.68 200.24 1073.24 201.38 1073.38 202.94H1071.22C1071.02 202.02 1070.66 201.34 1070.1 200.94C1069.54 200.52 1068.74 200.32 1067.66 200.32C1066.72 200.32 1066 200.46 1065.5 200.74C1064.88 201.06 1064.58 201.58 1064.58 202.3C1064.58 202.94 1064.92 203.44 1065.64 203.82C1065.96 204 1066.78 204.3 1068.12 204.7C1070.04 205.3 1071.3 205.76 1071.86 206.1C1073.08 206.84 1073.7 207.86 1073.7 209.18C1073.7 210.46 1073.2 211.46 1072.2 212.2C1071.2 212.92 1069.8 213.28 1068 213.28C1066.26 213.28 1064.9 212.92 1063.92 212.24C1062.74 211.4 1062.1 210.08 1061.98 208.28H1064.14C1064.3 209.4 1064.7 210.22 1065.34 210.7C1065.92 211.14 1066.8 211.36 1068 211.36C1069.08 211.36 1069.94 211.16 1070.58 210.8C1071.22 210.44 1071.54 209.94 1071.54 209.3C1071.54 208.5 1071.08 207.88 1070.18 207.42C1069.86 207.26 1068.92 206.94 1067.34 206.46C1065.58 205.9 1064.5 205.52 1064.06 205.28C1062.96 204.62 1062.42 203.66 1062.42 202.42C1062.42 201.16 1062.94 200.18 1064 199.46C1065 198.78 1066.26 198.44 1067.78 198.44ZM1076.53 196.46H1078.31C1079.23 197.76 1079.95 199.12 1080.47 200.56C1081.07 202.24 1081.39 204 1081.39 205.82C1081.39 207.62 1081.07 209.36 1080.47 211.06C1079.95 212.46 1079.23 213.82 1078.31 215.14H1076.53C1077.35 213.76 1077.99 212.38 1078.45 211C1079.03 209.26 1079.33 207.52 1079.33 205.8C1079.33 204.06 1079.03 202.32 1078.45 200.6C1077.99 199.2 1077.35 197.82 1076.53 196.46Z" fill="#1F31D6"/>
<path d="M512.095 57.8137C515.453 57.2742 518.848 57.0032 522.248 57.0032L1368.56 57C1369.29 57 1369.38 58.0741 1368.65 58.1923L1201.72 85.2788C1198.33 85.8287 1194.9 86.105 1191.47 86.105L336 86.1082L512.095 57.8137Z" fill="url(#paint12_linear_3807_699)"/>
<path fill-rule="evenodd" clip-rule="evenodd" d="M1376 65.0019C1376 60.073 1371.59 56.3166 1366.72 57.1049L1197.64 84.4985C1197.21 84.567 1196.78 84.6015 1196.36 84.6015H344C339.582 84.6015 336 88.1832 336 92.6015V144.601C336 149.02 339.582 152.601 344 152.601H1196.36C1196.79 152.601 1197.21 152.567 1197.63 152.499L1369.28 124.758C1373.15 124.132 1376 120.786 1376 116.861V65.0019Z" fill="url(#paint13_linear_3807_699)"/>
<path d="M682.908 112.44C684.568 112.44 685.948 112.86 687.028 113.74C688.068 114.58 688.708 115.74 688.928 117.18H686.808C686.568 116.22 686.108 115.5 685.428 115.04C684.748 114.58 683.908 114.36 682.868 114.36C681.328 114.36 680.168 114.88 679.388 115.94C678.648 116.9 678.288 118.22 678.288 119.88C678.288 121.6 678.648 122.92 679.368 123.86C680.128 124.86 681.308 125.36 682.908 125.36C683.948 125.36 684.828 125.1 685.508 124.58C686.228 124.02 686.728 123.18 687.008 122.06H689.128C688.808 123.72 688.068 125.02 686.888 125.96C685.788 126.84 684.468 127.28 682.928 127.28C680.588 127.28 678.828 126.52 677.648 125.04C676.608 123.76 676.108 122.04 676.108 119.88C676.108 117.76 676.628 116.04 677.708 114.7C678.908 113.18 680.628 112.44 682.908 112.44ZM696.497 116.38C698.057 116.38 699.317 116.9 700.257 117.94C701.177 118.96 701.657 120.26 701.657 121.84C701.657 123.4 701.197 124.7 700.277 125.7C699.317 126.74 698.057 127.28 696.497 127.28C694.937 127.28 693.677 126.74 692.717 125.7C691.797 124.7 691.337 123.4 691.337 121.84C691.337 120.26 691.797 118.96 692.737 117.94C693.677 116.9 694.937 116.38 696.497 116.38ZM696.497 118.12C695.517 118.12 694.757 118.5 694.217 119.28C693.737 119.94 693.517 120.8 693.517 121.84C693.517 122.88 693.737 123.72 694.217 124.38C694.757 125.14 695.517 125.54 696.497 125.54C697.477 125.54 698.237 125.14 698.797 124.38C699.277 123.7 699.517 122.86 699.517 121.84C699.517 120.8 699.277 119.94 698.797 119.28C698.237 118.5 697.477 118.12 696.497 118.12ZM704.27 112.44H706.39V118.2C707.23 116.98 708.27 116.38 709.55 116.38C711.03 116.38 712.19 116.92 713.05 118C713.83 119 714.23 120.26 714.23 121.78C714.23 123.36 713.83 124.66 713.03 125.66C712.15 126.74 710.97 127.28 709.45 127.28C708.03 127.28 706.97 126.76 706.25 125.76V127H704.27V112.44ZM709.07 118.1C708.27 118.1 707.63 118.4 707.15 119.04C706.59 119.72 706.33 120.62 706.33 121.74V121.92C706.33 122.96 706.55 123.8 706.99 124.46C707.49 125.18 708.21 125.56 709.13 125.56C710.17 125.56 710.93 125.18 711.43 124.44C711.83 123.8 712.05 122.92 712.05 121.78C712.05 120.64 711.83 119.76 711.39 119.16C710.89 118.44 710.11 118.1 709.07 118.1ZM721.583 116.38C723.143 116.38 724.403 116.9 725.343 117.94C726.263 118.96 726.743 120.26 726.743 121.84C726.743 123.4 726.283 124.7 725.363 125.7C724.403 126.74 723.143 127.28 721.583 127.28C720.023 127.28 718.763 126.74 717.803 125.7C716.883 124.7 716.423 123.4 716.423 121.84C716.423 120.26 716.883 118.96 717.823 117.94C718.763 116.9 720.023 116.38 721.583 116.38ZM721.583 118.12C720.603 118.12 719.843 118.5 719.303 119.28C718.823 119.94 718.603 120.8 718.603 121.84C718.603 122.88 718.823 123.72 719.303 124.38C719.843 125.14 720.603 125.54 721.583 125.54C722.563 125.54 723.323 125.14 723.883 124.38C724.363 123.7 724.603 122.86 724.603 121.84C724.603 120.8 724.363 119.94 723.883 119.28C723.323 118.5 722.563 118.12 721.583 118.12ZM736.817 112.72H742.737C746.137 112.72 747.837 114.16 747.837 117.06C747.837 119.98 746.117 121.44 742.697 121.44H738.997V127H736.817V112.72ZM738.997 114.58V119.58H742.557C743.637 119.58 744.417 119.38 744.917 118.98C745.397 118.58 745.657 117.94 745.657 117.06C745.657 116.18 745.397 115.54 744.897 115.18C744.397 114.78 743.617 114.58 742.557 114.58H738.997ZM755.024 116.38C756.584 116.38 757.844 116.9 758.784 117.94C759.704 118.96 760.184 120.26 760.184 121.84C760.184 123.4 759.724 124.7 758.804 125.7C757.844 126.74 756.584 127.28 755.024 127.28C753.464 127.28 752.204 126.74 751.244 125.7C750.324 124.7 749.864 123.4 749.864 121.84C749.864 120.26 750.324 118.96 751.264 117.94C752.204 116.9 753.464 116.38 755.024 116.38ZM755.024 118.12C754.044 118.12 753.284 118.5 752.744 119.28C752.264 119.94 752.044 120.8 752.044 121.84C752.044 122.88 752.264 123.72 752.744 124.38C753.284 125.14 754.044 125.54 755.024 125.54C756.004 125.54 756.764 125.14 757.324 124.38C757.804 123.7 758.044 122.86 758.044 121.84C758.044 120.8 757.804 119.94 757.324 119.28C756.764 118.5 756.004 118.12 755.024 118.12ZM767.598 116.38C768.118 116.38 768.578 116.46 768.938 116.64V118.76C768.418 118.6 767.918 118.54 767.438 118.54C766.798 118.54 766.218 118.8 765.718 119.32C765.178 119.88 764.918 120.62 764.918 121.52V127H762.798V116.66H764.918V118.22C765.178 117.66 765.518 117.24 765.918 116.96C766.398 116.56 766.958 116.38 767.598 116.38ZM773.979 113.32V116.66H776.339V118.42H773.979V124.42C773.979 124.7 774.039 124.9 774.159 125.04C774.279 125.16 774.459 125.24 774.719 125.24H776.079V127H774.379C773.499 127 772.839 126.76 772.439 126.3C772.039 125.86 771.859 125.24 771.859 124.42V118.42H769.939V116.66H771.859V114.2L773.979 113.32ZM783.306 116.38C784.826 116.38 785.946 116.76 786.666 117.52C787.286 118.18 787.606 119.14 787.606 120.4V127H785.646V125.54C785.246 126.06 784.746 126.48 784.146 126.78C783.466 127.1 782.666 127.28 781.746 127.28C780.666 127.28 779.826 127 779.226 126.46C778.566 125.92 778.246 125.22 778.246 124.36C778.246 123.2 778.706 122.3 779.626 121.68C780.466 121.08 781.666 120.78 783.186 120.74L785.506 120.68V120.26C785.506 118.82 784.726 118.1 783.166 118.1C782.506 118.1 781.966 118.22 781.566 118.46C781.086 118.74 780.786 119.16 780.666 119.74L778.566 119.56C778.786 118.44 779.346 117.6 780.226 117.08C780.986 116.6 782.026 116.38 783.306 116.38ZM785.506 122.22L783.326 122.28C781.386 122.32 780.426 123 780.426 124.28C780.426 124.68 780.586 125 780.926 125.26C781.246 125.52 781.686 125.66 782.226 125.66C783.126 125.66 783.886 125.38 784.526 124.84C785.166 124.3 785.506 123.62 785.506 122.82V122.22ZM790.873 112.44H792.993V127H790.873V112.44ZM807.793 112.72H810.273L815.773 127H813.433L812.093 123.32H805.953L804.613 127H802.293L807.793 112.72ZM806.613 121.52H811.433L809.073 115.06H808.993L806.613 121.52ZM822.75 116.38C824.27 116.38 825.45 116.92 826.33 118C827.13 119 827.53 120.28 827.53 121.88C827.53 123.4 827.13 124.66 826.35 125.66C825.51 126.74 824.33 127.28 822.85 127.28C821.57 127.28 820.53 126.68 819.69 125.48V130.96H817.57V116.66H819.55V117.9C820.27 116.88 821.35 116.38 822.75 116.38ZM822.43 118.1C821.51 118.1 820.79 118.46 820.29 119.2C819.85 119.84 819.63 120.7 819.63 121.76V121.94C819.63 123.04 819.89 123.94 820.45 124.62C820.93 125.24 821.57 125.56 822.37 125.56C823.41 125.56 824.17 125.22 824.67 124.54C825.11 123.9 825.35 123.02 825.35 121.88C825.35 120.74 825.13 119.86 824.73 119.22C824.23 118.46 823.47 118.1 822.43 118.1ZM835.303 116.38C836.823 116.38 838.003 116.92 838.883 118C839.683 119 840.083 120.28 840.083 121.88C840.083 123.4 839.683 124.66 838.903 125.66C838.063 126.74 836.883 127.28 835.403 127.28C834.123 127.28 833.083 126.68 832.243 125.48V130.96H830.123V116.66H832.103V117.9C832.823 116.88 833.903 116.38 835.303 116.38ZM834.983 118.1C834.063 118.1 833.343 118.46 832.843 119.2C832.403 119.84 832.183 120.7 832.183 121.76V121.94C832.183 123.04 832.443 123.94 833.003 124.62C833.483 125.24 834.123 125.56 834.923 125.56C835.963 125.56 836.723 125.22 837.223 124.54C837.663 123.9 837.903 123.02 837.903 121.88C837.903 120.74 837.683 119.86 837.283 119.22C836.783 118.46 836.023 118.1 834.983 118.1ZM846.536 116.38C849.216 116.38 850.696 117.46 850.936 119.64H848.876C848.716 119.08 848.476 118.7 848.136 118.48C847.776 118.24 847.216 118.12 846.496 118.12C845.856 118.12 845.376 118.2 845.056 118.4C844.676 118.6 844.496 118.92 844.496 119.32C844.496 119.68 844.776 119.98 845.336 120.24C845.696 120.4 846.376 120.6 847.416 120.86C848.596 121.14 849.476 121.48 850.036 121.84C850.856 122.36 851.276 123.08 851.276 124C851.276 126.18 849.736 127.28 846.676 127.28C843.836 127.28 842.316 126.06 842.076 123.66H844.156C844.276 124.36 844.536 124.86 844.896 125.14C845.256 125.4 845.816 125.54 846.616 125.54C848.256 125.54 849.096 125.06 849.096 124.14C849.096 123.64 848.776 123.24 848.176 122.96C847.856 122.8 847.156 122.6 846.096 122.36C844.876 122.08 844.016 121.78 843.536 121.46C842.736 120.96 842.336 120.26 842.336 119.38C842.336 118.44 842.716 117.7 843.496 117.18C844.276 116.64 845.296 116.38 846.536 116.38Z" fill="#1F31D6"/>
<path d="M75.112 140.224H76.888C79.888 143.296 83.344 145.72 87.256 147.496L86.008 149.728C84.856 149.176 83.752 148.576 82.696 147.928V150.088H77.272V153.448H83.944V155.872H77.272V159.424H86.128V161.872H65.896V159.424H74.728V155.872H68.032V153.448H74.728V150.088H69.304V147.904C68.224 148.576 67.096 149.2 65.896 149.776L64.672 147.544C68.848 145.576 72.328 143.152 75.112 140.224ZM69.688 147.664H82.288C79.912 146.176 77.824 144.448 76 142.504C74.248 144.4 72.136 146.128 69.688 147.664ZM89.944 141.04H111.52V143.44H102.112C101.92 144.232 101.704 145 101.416 145.744H110.44V162.568H108.016V161.632H93.496V162.568H91.072V145.744H98.896C99.184 145 99.4 144.232 99.568 143.44H89.944V141.04ZM93.496 159.328H96.016V148.024H93.496V159.328ZM98.344 159.328H103.096V156.928H98.344V159.328ZM105.424 159.328H108.016V148.024H105.424V159.328ZM98.344 154.792H103.096V152.488H98.344V154.792ZM98.344 150.328H103.096V148.024H98.344V150.328ZM123.448 144.184V161.008H121.048V159.808H117.496V161.704H115.096V144.184H117.4C117.832 142.912 118.144 141.592 118.336 140.224L120.856 140.56C120.592 141.856 120.232 143.08 119.8 144.184H123.448ZM117.496 157.504H121.048V152.968H117.496V157.504ZM117.496 150.736H121.048V146.536H117.496V150.736ZM127.816 150.016C129.352 151.96 130.528 153.664 131.368 155.152L129.352 156.544C128.464 154.96 127.264 153.208 125.776 151.288L127.816 150.016ZM135.808 144.184C135.808 152.584 135.688 157.768 135.448 159.736C135.208 161.416 134.056 162.256 131.992 162.256C131.512 162.256 130.648 162.208 129.4 162.112L128.8 159.832C129.856 159.904 130.792 159.952 131.584 159.952C132.448 159.952 132.952 159.472 133.096 158.536C133.24 157.384 133.312 153.424 133.36 146.632H127.552C126.904 148.072 126.136 149.368 125.248 150.52L123.736 148.528C125.32 146.272 126.376 143.488 126.952 140.2L129.424 140.512C129.184 141.808 128.872 143.032 128.512 144.184H135.808ZM150.568 140.008C150.904 140.752 151.216 141.592 151.504 142.528H159.784V144.904H155.8C155.56 145.912 155.248 146.872 154.864 147.832H160.288V150.256H143.344V153.376C143.248 157.144 142.408 160.168 140.776 162.448L138.88 160.744C140.104 158.968 140.752 156.52 140.8 153.376V147.832H145.624L144.832 144.904H140.608V142.528H148.936C148.624 141.76 148.288 141.064 147.928 140.44L150.568 140.008ZM148.096 147.832H152.44C152.848 146.872 153.16 145.912 153.4 144.904H147.304L148.096 147.832ZM167.992 141.04H181.792V149.608H167.992V141.04ZM179.272 147.256V143.392H170.512V147.256H179.272ZM173.8 151.192V162.136H171.376V161.008H167.2V162.136H164.752V151.192H173.8ZM167.2 158.68H171.376V153.544H167.2V158.68ZM185.008 151.192V162.136H182.512V161.008H178.12V162.136H175.672V151.192H185.008ZM178.12 158.68H182.512V153.544H178.12V158.68ZM197.152 156.448V158.848C194.848 159.976 192.232 160.888 189.28 161.56L188.968 159.064C192.088 158.416 194.824 157.552 197.152 156.448ZM192.904 140.176L195.28 141.112C194.104 143.8 192.904 146.008 191.704 147.712C192.544 147.616 193.384 147.52 194.224 147.4L195.664 144.736L197.92 145.6C195.904 149.2 194.176 151.888 192.784 153.616C194.296 153.232 195.832 152.752 197.368 152.152V154.456C194.632 155.464 192.04 156.16 189.616 156.496L188.968 154.192C189.4 154 189.784 153.76 190.096 153.472C190.84 152.752 191.752 151.48 192.856 149.704C191.704 149.848 190.504 150.016 189.256 150.184L188.632 147.88C189.016 147.712 189.376 147.4 189.712 146.92C190.912 144.88 191.992 142.624 192.904 140.176ZM208.744 141.328V159.256H210.64V161.656H196.528V159.256H198.472V141.328H208.744ZM200.92 159.256H206.296V155.608H200.92V159.256ZM200.92 153.256H206.296V149.56H200.92V153.256ZM200.92 147.208H206.296V143.728H200.92V147.208ZM223.408 140.224H225.232C228.232 143.584 231.688 146.248 235.624 148.168L234.256 150.592C232.984 149.92 231.784 149.176 230.68 148.384V150.04H217.96V148.36C216.808 149.152 215.584 149.92 214.288 150.64L212.944 148.192C217.144 146.056 220.624 143.392 223.408 140.224ZM218.992 147.616H229.624C227.656 146.104 225.88 144.4 224.32 142.504C222.808 144.376 221.032 146.08 218.992 147.616ZM232.24 152.392V162.472H229.816V161.248H218.824V162.472H216.4V152.392H232.24ZM218.824 158.872H229.816V154.744H218.824V158.872Z" fill="black"/>
<defs>
<linearGradient id="paint0_linear_3807_699" x1="344.039" y1="407.109" x2="697.739" y2="407.109" gradientUnits="userSpaceOnUse">
<stop stop-color="#1A2EC6"/>
<stop offset="1" stop-color="#000EAD"/>
</linearGradient>
<linearGradient id="paint1_linear_3807_699" x1="336" y1="446.223" x2="697.739" y2="446.223" gradientUnits="userSpaceOnUse">
<stop stop-color="#6576F7"/>
<stop offset="0.558885" stop-color="#1F32D6"/>
<stop offset="1" stop-color="#000F91"/>
</linearGradient>
<linearGradient id="paint2_linear_3807_699" x1="570.039" y1="407.109" x2="923.74" y2="407.109" gradientUnits="userSpaceOnUse">
<stop stop-color="#1A2EC6"/>
<stop offset="1" stop-color="#000EAD"/>
</linearGradient>
<linearGradient id="paint3_linear_3807_699" x1="562" y1="446.223" x2="923.739" y2="446.223" gradientUnits="userSpaceOnUse">
<stop stop-color="#6576F7"/>
<stop offset="0.558885" stop-color="#1F32D6"/>
<stop offset="1" stop-color="#000F91"/>
</linearGradient>
<linearGradient id="paint4_linear_3807_699" x1="796.039" y1="407.109" x2="1149.74" y2="407.109" gradientUnits="userSpaceOnUse">
<stop stop-color="#1A2EC6"/>
<stop offset="1" stop-color="#000EAD"/>
</linearGradient>
<linearGradient id="paint5_linear_3807_699" x1="788" y1="446.223" x2="1149.74" y2="446.223" gradientUnits="userSpaceOnUse">
<stop stop-color="#6576F7"/>
<stop offset="0.558885" stop-color="#1F32D6"/>
<stop offset="1" stop-color="#000F91"/>
</linearGradient>
<linearGradient id="paint6_linear_3807_699" x1="1022.3" y1="407.109" x2="1376" y2="407.109" gradientUnits="userSpaceOnUse">
<stop stop-color="#1A2EC6"/>
<stop offset="1" stop-color="#000EAD"/>
</linearGradient>
<linearGradient id="paint7_linear_3807_699" x1="1014.26" y1="446.223" x2="1376" y2="446.223" gradientUnits="userSpaceOnUse">
<stop stop-color="#6576F7"/>
<stop offset="0.558885" stop-color="#1F32D6"/>
<stop offset="1" stop-color="#000F91"/>
</linearGradient>
<linearGradient id="paint8_linear_3807_699" x1="348.5" y1="170" x2="920" y2="170" gradientUnits="userSpaceOnUse">
<stop stop-color="#687AFF"/>
<stop offset="1" stop-color="#495BEB"/>
</linearGradient>
<linearGradient id="paint9_linear_3807_699" x1="336" y1="208.454" x2="920" y2="208.454" gradientUnits="userSpaceOnUse">
<stop stop-color="#D7DAFF"/>
<stop offset="0.702406" stop-color="#919BFF"/>
<stop offset="1" stop-color="#4A5CEB"/>
</linearGradient>
<linearGradient id="paint10_linear_3807_699" x1="804.5" y1="170" x2="1376" y2="170" gradientUnits="userSpaceOnUse">
<stop stop-color="#687AFF"/>
<stop offset="1" stop-color="#495BEB"/>
</linearGradient>
<linearGradient id="paint11_linear_3807_699" x1="792" y1="208.454" x2="1376" y2="208.454" gradientUnits="userSpaceOnUse">
<stop stop-color="#D7DAFF"/>
<stop offset="0.702406" stop-color="#919BFF"/>
<stop offset="1" stop-color="#4A5CEB"/>
</linearGradient>
<linearGradient id="paint12_linear_3807_699" x1="336" y1="75.952" x2="1376" y2="72" gradientUnits="userSpaceOnUse">
<stop stop-color="#EBEDFF"/>
<stop offset="1" stop-color="#6F80FF"/>
</linearGradient>
<linearGradient id="paint13_linear_3807_699" x1="336" y1="119.245" x2="1376" y2="119.245" gradientUnits="userSpaceOnUse">
<stop stop-color="#F2F3FF"/>
<stop offset="0.826636" stop-color="#C2C7FF"/>
<stop offset="1" stop-color="#6C77F0"/>
</linearGradient>
</defs>
</svg>
