<svg width="66" height="32" viewBox="0 0 66 32" fill="none" xmlns="http://www.w3.org/2000/svg">
<rect x="0.4" y="0.4" width="64.8" height="31.2" rx="4.4" stroke="#EDEEF3" stroke-width="0.8"/>
<path d="M15.9723 12.216V13.2576H12.6683V15.5536H15.2443V16.5952H12.6683V20H11.3915V12.216H15.9723ZM17.8052 13.0112C17.5737 13.0112 17.3796 12.9328 17.2228 12.776C17.066 12.6192 16.9876 12.4251 16.9876 12.1936C16.9876 11.9621 17.066 11.768 17.2228 11.6112C17.3796 11.4544 17.5737 11.376 17.8052 11.376C18.0292 11.376 18.2196 11.4544 18.3764 11.6112C18.5332 11.768 18.6116 11.9621 18.6116 12.1936C18.6116 12.4251 18.5332 12.6192 18.3764 12.776C18.2196 12.9328 18.0292 13.0112 17.8052 13.0112ZM18.4324 13.8288V20H17.1556V13.8288H18.4324ZM21.3855 11.712V20H20.1087V11.712H21.3855ZM24.5515 14.8704V18.2864C24.5515 18.5179 24.6037 18.6859 24.7083 18.7904C24.8203 18.8875 25.0069 18.936 25.2683 18.936H26.0523V20H25.0443C24.4693 20 24.0288 19.8656 23.7227 19.5968C23.4165 19.328 23.2635 18.8912 23.2635 18.2864V14.8704H22.5355V13.8288H23.2635V12.2944H24.5515V13.8288H26.0523V14.8704H24.5515ZM32.885 16.7632C32.885 16.9947 32.8701 17.2037 32.8402 17.3904H28.125C28.1624 17.8832 28.3453 18.2789 28.6738 18.5776C29.0024 18.8763 29.4056 19.0256 29.8834 19.0256C30.5704 19.0256 31.0557 18.7381 31.3394 18.1632H32.717C32.5304 18.7307 32.1906 19.1973 31.6978 19.5632C31.2125 19.9216 30.6077 20.1008 29.8834 20.1008C29.2936 20.1008 28.7634 19.9701 28.293 19.7088C27.8301 19.44 27.4642 19.0667 27.1954 18.5888C26.9341 18.1035 26.8034 17.5435 26.8034 16.9088C26.8034 16.2741 26.9304 15.7179 27.1842 15.24C27.4456 14.7547 27.8077 14.3813 28.2706 14.12C28.741 13.8587 29.2786 13.728 29.8834 13.728C30.4658 13.728 30.9848 13.8549 31.4402 14.1088C31.8957 14.3627 32.2504 14.7211 32.5042 15.184C32.7581 15.6395 32.885 16.1659 32.885 16.7632ZM31.5522 16.36C31.5448 15.8896 31.3768 15.5125 31.0482 15.2288C30.7197 14.9451 30.3128 14.8032 29.8274 14.8032C29.3869 14.8032 29.0098 14.9451 28.6962 15.2288C28.3826 15.5051 28.196 15.8821 28.1362 16.36H31.5522ZM35.4183 14.7248C35.605 14.4112 35.8514 14.1685 36.1575 13.9968C36.4711 13.8176 36.8407 13.728 37.2663 13.728V15.0496H36.9415C36.4413 15.0496 36.0605 15.1765 35.7991 15.4304C35.5453 15.6843 35.4183 16.1248 35.4183 16.752V20H34.1415V13.8288H35.4183V14.7248Z" fill="#1C1C1C"/>
<path d="M49.0028 10.4L46.2512 14.8693M45.9163 10.4H53.2837C53.8977 10.4 54.4 10.9091 54.4 11.5315V12.7761C54.4 13.2287 54.1209 13.7944 53.8418 14.0773L51.4418 16.2271C51.107 16.51 50.8837 17.0757 50.8837 17.5283V19.961C50.8837 20.3005 50.6605 20.7531 50.3814 20.9228L49.6 21.432C48.8744 21.8846 47.8698 21.3754 47.8698 20.4702V17.4718C47.8698 17.0757 47.6465 16.5666 47.4232 16.2837L45.3023 14.0207C45.0232 13.7379 44.8 13.2287 44.8 12.8892V11.588C44.8 10.9091 45.3023 10.4 45.9163 10.4Z" stroke="#1C1C1C" stroke-width="1.2" stroke-miterlimit="10" stroke-linecap="round" stroke-linejoin="round"/>
</svg>
