<svg width="1600" height="754" viewBox="0 0 1600 754" fill="none" xmlns="http://www.w3.org/2000/svg">
<rect width="1600" height="754" fill="white"/>
<rect x="9" y="9" width="499" height="736" rx="23" fill="#1F32D6" fill-opacity="0.08"/>
<rect x="9" y="9" width="499" height="736" rx="23" stroke="#1F32D6" stroke-width="2"/>
<circle cx="259" cy="194" r="100" fill="white"/>
<mask id="mask0_2181_231" style="mask-type:alpha" maskUnits="userSpaceOnUse" x="213" y="148" width="92" height="92">
<path d="M222.502 239.815C225.201 239.815 227.904 239.815 230.602 239.815C231.385 239.815 231.776 239.41 231.776 238.601C231.776 234.576 231.787 230.552 231.765 226.527C231.762 225.885 231.896 225.639 232.602 225.646C236.754 225.679 240.909 225.65 245.061 225.679C245.706 225.683 245.883 225.494 245.88 224.864C245.858 220.763 245.887 216.662 245.851 212.557C245.843 211.811 246.003 211.554 246.807 211.565C250.933 211.608 255.06 211.575 259.19 211.594C259.719 211.594 260.088 211.441 260.458 211.065C262.313 209.174 264.211 207.322 266.066 205.431C266.435 205.055 266.75 204.975 267.261 205.12C276.579 207.793 285.255 206.395 293.059 200.653C299.91 195.606 303.829 188.723 304.666 180.228C305.568 171.12 302.782 163.179 296.33 156.716C289.813 150.181 281.799 147.416 272.605 148.34C265.098 149.094 258.809 152.387 253.864 158.046C248.006 164.748 245.731 172.613 246.919 181.445C247.111 182.876 247.485 184.289 247.865 185.687C248.021 186.26 247.937 186.6 247.517 187.017C240.866 193.621 234.229 200.243 227.596 206.866C222.98 211.474 218.365 216.082 213.775 220.712C213.474 221.013 213.242 221.534 213.242 221.955C213.206 227.61 213.231 233.265 213.206 238.924C213.206 239.612 213.376 239.844 214.097 239.833C216.898 239.793 219.702 239.815 222.506 239.815H222.502ZM272 171.044C272.022 165.599 276.391 161.226 281.814 161.215C287.103 161.205 291.559 165.646 291.577 170.953C291.595 176.467 287.183 180.807 281.557 180.807C276.405 180.807 271.978 176.283 272 171.048V171.044Z" fill="white"/>
</mask>
<g mask="url(#mask0_2181_231)">
<rect x="193.904" y="132.847" width="58.3016" height="152.5" transform="rotate(-45.17 193.904 132.847)" fill="#1F32D6"/>
<rect x="146.499" y="180.535" width="67.2411" height="152.5" transform="rotate(-45.17 146.499 180.535)" fill="#BCC1F3"/>
</g>
<path d="M259 331.5L259 482" stroke="#1F32D6" stroke-width="2" stroke-dasharray="8 8"/>
<circle cx="259" cy="330" r="6" transform="rotate(-180 259 330)" fill="white" stroke="#1F32D6" stroke-width="4"/>
<circle cx="259" cy="484" r="6" transform="rotate(-180 259 484)" fill="white" stroke="#1F32D6" stroke-width="4"/>
<rect x="160" y="521" width="198" height="118" rx="15" fill="#1F32D6"/>
<rect x="160" y="521" width="198" height="118" rx="15" stroke="#1F32D6" stroke-width="2"/>
<path d="M279.062 583.753C279.062 582.422 278.667 581.122 277.927 580.015C277.187 578.909 276.136 578.047 274.907 577.537C273.677 577.028 272.324 576.895 271.019 577.155C269.714 577.415 268.515 578.056 267.574 578.997C266.633 579.939 265.992 581.138 265.733 582.443C265.473 583.748 265.607 585.101 266.116 586.331C266.625 587.56 267.488 588.611 268.594 589.35C269.701 590.09 271.002 590.484 272.333 590.484C273.217 590.484 274.092 590.31 274.908 589.972C275.725 589.634 276.467 589.138 277.092 588.513C277.717 587.888 278.212 587.146 278.55 586.329C278.888 585.512 279.062 584.637 279.062 583.753ZM311.383 583.753C311.38 586.602 310.384 589.361 308.565 591.554C306.746 593.747 304.219 595.236 301.42 595.766C298.621 596.295 295.724 595.831 293.231 594.453C290.737 593.076 288.802 590.871 287.76 588.22L292.418 583.562V583.755C292.422 585.308 292.964 586.812 293.952 588.011C294.94 589.209 296.313 590.028 297.837 590.328C299.36 590.629 300.941 590.391 302.31 589.657C303.679 588.923 304.751 587.737 305.343 586.301C305.936 584.866 306.013 583.269 305.561 581.783C305.109 580.297 304.156 579.014 302.864 578.151C301.572 577.289 300.021 576.901 298.476 577.053C296.93 577.206 295.485 577.889 294.386 578.987L281.032 592.348C279.329 594.078 277.15 595.262 274.772 595.748C272.394 596.235 269.925 596.002 267.68 595.08C265.435 594.158 263.515 592.589 262.165 590.571C260.815 588.554 260.096 586.181 260.101 583.753V566.588C260.144 565.887 260.453 565.229 260.964 564.749C261.475 564.268 262.151 564 262.853 564C263.555 564 264.23 564.268 264.742 564.749C265.253 565.229 265.562 565.887 265.605 566.588V573.453C267.274 572.355 269.186 571.682 271.175 571.493C273.164 571.304 275.168 571.604 277.014 572.369C278.86 573.133 280.49 574.338 281.763 575.877C283.036 577.417 283.912 579.245 284.316 581.201L290.496 575.022C292.212 573.306 294.399 572.139 296.78 571.669C299.161 571.199 301.628 571.448 303.867 572.384C306.106 573.32 308.017 574.901 309.355 576.925C310.693 578.95 311.399 581.326 311.383 583.753ZM258.268 583.753C258.274 586.605 257.282 589.369 255.464 591.566C253.647 593.764 251.119 595.257 248.317 595.787C245.515 596.317 242.616 595.851 240.121 594.469C237.627 593.087 235.694 590.876 234.657 588.22L239.315 583.562V583.755C239.319 585.308 239.861 586.812 240.849 588.011C241.837 589.209 243.21 590.028 244.734 590.328C246.258 590.629 247.839 590.391 249.208 589.657C250.576 588.923 251.648 587.737 252.241 586.301C252.834 584.866 252.911 583.269 252.459 581.783C252.007 580.297 251.053 579.014 249.762 578.151C248.47 577.289 246.919 576.901 245.373 577.053C243.828 577.206 242.382 577.889 241.284 578.987L227.883 592.4C226.172 594.111 223.992 595.276 221.619 595.747C219.246 596.219 216.786 595.976 214.551 595.05C212.316 594.124 210.406 592.556 209.061 590.544C207.717 588.533 207 586.167 207 583.748C207 581.329 207.717 578.964 209.061 576.952C210.406 574.94 212.316 573.372 214.551 572.446C216.786 571.52 219.246 571.277 221.619 571.749C223.992 572.221 226.172 573.385 227.883 575.096C228.138 575.353 228.341 575.657 228.478 575.993C228.616 576.328 228.687 576.687 228.685 577.049C228.684 577.412 228.612 577.771 228.472 578.105C228.333 578.439 228.129 578.743 227.872 578.999C227.614 579.254 227.31 579.456 226.974 579.594C226.639 579.732 226.28 579.802 225.918 579.801C225.555 579.8 225.197 579.728 224.862 579.588C224.528 579.448 224.224 579.244 223.969 578.987C223.027 578.048 221.828 577.41 220.523 577.152C219.218 576.894 217.866 577.028 216.638 577.538C215.41 578.048 214.36 578.911 213.621 580.017C212.883 581.123 212.489 582.423 212.489 583.753C212.489 585.083 212.883 586.383 213.621 587.49C214.36 588.596 215.41 589.458 216.638 589.968C217.866 590.478 219.218 590.613 220.523 590.355C221.828 590.097 223.027 589.458 223.969 588.519L237.392 575.061C239.105 573.345 241.288 572.177 243.666 571.705C246.044 571.233 248.508 571.479 250.746 572.412C252.984 573.344 254.893 574.92 256.233 576.941C257.572 578.961 258.281 581.334 258.268 583.758V583.753Z" fill="white"/>
<rect x="550" y="9" width="499" height="736" rx="23" fill="#1F32D6" fill-opacity="0.08"/>
<rect x="550" y="9" width="499" height="736" rx="23" stroke="#1F32D6" stroke-width="2"/>
<circle cx="800" cy="194" r="100" fill="white"/>
<mask id="mask1_2181_231" style="mask-type:alpha" maskUnits="userSpaceOnUse" x="754" y="148" width="92" height="92">
<path d="M763.502 239.815C766.201 239.815 768.904 239.815 771.603 239.815C772.385 239.815 772.777 239.41 772.777 238.601C772.777 234.576 772.787 230.552 772.766 226.527C772.762 225.885 772.896 225.639 773.602 225.646C777.754 225.679 781.909 225.65 786.061 225.679C786.706 225.683 786.884 225.494 786.88 224.864C786.858 220.763 786.887 216.662 786.851 212.557C786.844 211.811 787.003 211.554 787.807 211.565C791.934 211.608 796.06 211.575 800.19 211.594C800.719 211.594 801.088 211.441 801.458 211.065C803.313 209.174 805.211 207.322 807.066 205.431C807.435 205.055 807.751 204.975 808.261 205.12C817.579 207.793 826.256 206.395 834.059 200.653C840.91 195.606 844.83 188.723 845.667 180.228C846.569 171.12 843.783 163.179 837.331 156.716C830.813 150.181 822.8 147.416 813.605 148.34C806.099 149.094 799.81 152.387 794.864 158.046C789.006 164.748 786.731 172.613 787.92 181.445C788.112 182.876 788.485 184.289 788.865 185.687C789.021 186.26 788.938 186.6 788.517 187.017C781.866 193.621 775.229 200.243 768.596 206.866C763.98 211.474 759.365 216.082 754.775 220.712C754.474 221.013 754.242 221.534 754.242 221.955C754.206 227.61 754.232 233.265 754.206 238.924C754.206 239.612 754.376 239.844 755.097 239.833C757.898 239.793 760.702 239.815 763.506 239.815H763.502ZM813 171.044C813.022 165.599 817.391 161.226 822.814 161.215C828.103 161.205 832.559 165.646 832.577 170.953C832.596 176.467 828.183 180.807 822.557 180.807C817.405 180.807 812.978 176.283 813 171.048V171.044Z" fill="white"/>
</mask>
<g mask="url(#mask1_2181_231)">
<rect x="734.904" y="132.847" width="58.3016" height="152.5" transform="rotate(-45.17 734.904 132.847)" fill="#BCC1F3"/>
<rect x="687.499" y="180.535" width="67.2411" height="152.5" transform="rotate(-45.17 687.499 180.535)" fill="#1F32D6"/>
</g>
<path d="M800 331.5L800 482" stroke="#1F32D6" stroke-width="2" stroke-dasharray="8 8"/>
<circle cx="800" cy="330" r="6" transform="rotate(-180 800 330)" fill="white" stroke="#1F32D6" stroke-width="4"/>
<circle cx="800" cy="484" r="6" transform="rotate(-180 800 484)" fill="white" stroke="#1F32D6" stroke-width="4"/>
<rect x="752" y="520" width="96" height="96" rx="48" fill="#1F32D6"/>
<path d="M777.999 588.5H821.999" stroke="white" stroke-width="3.5" stroke-miterlimit="10" stroke-linecap="round" stroke-linejoin="round"/>
<path d="M815.561 588.52V579.6" stroke="white" stroke-width="3.5" stroke-miterlimit="10" stroke-linecap="round" stroke-linejoin="round"/>
<path d="M815.601 566.28C813.161 566.28 811.201 568.24 811.201 570.68V575.22C811.201 577.66 813.161 579.62 815.601 579.62C818.041 579.62 820.001 577.66 820.001 575.22V570.68C820.001 568.24 818.041 566.28 815.601 566.28Z" stroke="white" stroke-width="3.5" stroke-miterlimit="10" stroke-linecap="round" stroke-linejoin="round"/>
<path d="M780.199 588.5V556.56C780.199 552.54 782.199 550.52 786.179 550.52H798.639C802.619 550.52 804.599 552.54 804.599 556.56V588.5" stroke="white" stroke-width="3.5" stroke-miterlimit="10" stroke-linecap="round" stroke-linejoin="round"/>
<path d="M787.6 561H797.5" stroke="white" stroke-width="3.5" stroke-miterlimit="10" stroke-linecap="round" stroke-linejoin="round"/>
<path d="M787.6 568.5H797.5" stroke="white" stroke-width="3.5" stroke-miterlimit="10" stroke-linecap="round" stroke-linejoin="round"/>
<path d="M792.5 588.5V581" stroke="white" stroke-width="3.5" stroke-miterlimit="10" stroke-linecap="round" stroke-linejoin="round"/>
<path d="M730.108 655.168C728.54 655.168 727.1 654.8 725.788 654.064C724.476 653.328 723.436 652.312 722.668 651.016C721.9 649.704 721.516 648.224 721.516 646.576C721.516 644.944 721.9 643.48 722.668 642.184C723.436 640.872 724.476 639.848 725.788 639.112C727.1 638.376 728.54 638.008 730.108 638.008C731.692 638.008 733.132 638.376 734.428 639.112C735.74 639.848 736.772 640.872 737.524 642.184C738.292 643.48 738.676 644.944 738.676 646.576C738.676 648.224 738.292 649.704 737.524 651.016C736.772 652.312 735.74 653.328 734.428 654.064C733.116 654.8 731.676 655.168 730.108 655.168ZM730.108 652.168C731.116 652.168 732.004 651.944 732.772 651.496C733.54 651.032 734.14 650.376 734.572 649.528C735.004 648.68 735.22 647.696 735.22 646.576C735.22 645.456 735.004 644.48 734.572 643.648C734.14 642.8 733.54 642.152 732.772 641.704C732.004 641.256 731.116 641.032 730.108 641.032C729.1 641.032 728.204 641.256 727.42 641.704C726.652 642.152 726.052 642.8 725.62 643.648C725.188 644.48 724.972 645.456 724.972 646.576C724.972 647.696 725.188 648.68 725.62 649.528C726.052 650.376 726.652 651.032 727.42 651.496C728.204 651.944 729.1 652.168 730.108 652.168ZM744.536 643.768C744.968 643.064 745.528 642.512 746.216 642.112C746.92 641.712 747.72 641.512 748.616 641.512V645.04H747.728C746.672 645.04 745.872 645.288 745.328 645.784C744.8 646.28 744.536 647.144 744.536 648.376V655H741.176V641.704H744.536V643.768ZM756.087 641.488C757.079 641.488 757.951 641.688 758.703 642.088C759.455 642.472 760.047 642.976 760.479 643.6V641.704H763.863V655.096C763.863 656.328 763.615 657.424 763.119 658.384C762.623 659.36 761.879 660.128 760.887 660.688C759.895 661.264 758.695 661.552 757.287 661.552C755.399 661.552 753.847 661.112 752.631 660.232C751.431 659.352 750.751 658.152 750.591 656.632H753.927C754.103 657.24 754.479 657.72 755.055 658.072C755.647 658.44 756.359 658.624 757.191 658.624C758.167 658.624 758.959 658.328 759.567 657.736C760.175 657.16 760.479 656.28 760.479 655.096V653.032C760.047 653.656 759.447 654.176 758.679 654.592C757.927 655.008 757.063 655.216 756.087 655.216C754.967 655.216 753.943 654.928 753.015 654.352C752.087 653.776 751.351 652.968 750.807 651.928C750.279 650.872 750.015 649.664 750.015 648.304C750.015 646.96 750.279 645.768 750.807 644.728C751.351 643.688 752.079 642.888 752.991 642.328C753.919 641.768 754.951 641.488 756.087 641.488ZM760.479 648.352C760.479 647.536 760.319 646.84 759.999 646.264C759.679 645.672 759.247 645.224 758.703 644.92C758.159 644.6 757.575 644.44 756.951 644.44C756.327 644.44 755.751 644.592 755.223 644.896C754.695 645.2 754.263 645.648 753.927 646.24C753.607 646.816 753.447 647.504 753.447 648.304C753.447 649.104 753.607 649.808 753.927 650.416C754.263 651.008 754.695 651.464 755.223 651.784C755.767 652.104 756.343 652.264 756.951 652.264C757.575 652.264 758.159 652.112 758.703 651.808C759.247 651.488 759.679 651.04 759.999 650.464C760.319 649.872 760.479 649.168 760.479 648.352ZM766.28 648.304C766.28 646.96 766.544 645.768 767.072 644.728C767.616 643.688 768.344 642.888 769.256 642.328C770.184 641.768 771.216 641.488 772.352 641.488C773.344 641.488 774.208 641.688 774.944 642.088C775.696 642.488 776.296 642.992 776.744 643.6V641.704H780.128V655H776.744V653.056C776.312 653.68 775.712 654.2 774.944 654.616C774.192 655.016 773.32 655.216 772.328 655.216C771.208 655.216 770.184 654.928 769.256 654.352C768.344 653.776 767.616 652.968 767.072 651.928C766.544 650.872 766.28 649.664 766.28 648.304ZM776.744 648.352C776.744 647.536 776.584 646.84 776.264 646.264C775.944 645.672 775.512 645.224 774.968 644.92C774.424 644.6 773.84 644.44 773.216 644.44C772.592 644.44 772.016 644.592 771.488 644.896C770.96 645.2 770.528 645.648 770.192 646.24C769.872 646.816 769.712 647.504 769.712 648.304C769.712 649.104 769.872 649.808 770.192 650.416C770.528 651.008 770.96 651.464 771.488 651.784C772.032 652.104 772.608 652.264 773.216 652.264C773.84 652.264 774.424 652.112 774.968 651.808C775.512 651.488 775.944 651.04 776.264 650.464C776.584 649.872 776.744 649.168 776.744 648.352ZM790.778 641.512C792.362 641.512 793.642 642.016 794.618 643.024C795.594 644.016 796.082 645.408 796.082 647.2V655H792.722V647.656C792.722 646.6 792.458 645.792 791.93 645.232C791.402 644.656 790.682 644.368 789.77 644.368C788.842 644.368 788.106 644.656 787.562 645.232C787.034 645.792 786.77 646.6 786.77 647.656V655H783.41V641.704H786.77V643.36C787.218 642.784 787.786 642.336 788.474 642.016C789.178 641.68 789.946 641.512 790.778 641.512ZM800.981 640.12C800.389 640.12 799.893 639.936 799.493 639.568C799.109 639.184 798.917 638.712 798.917 638.152C798.917 637.592 799.109 637.128 799.493 636.76C799.893 636.376 800.389 636.184 800.981 636.184C801.573 636.184 802.061 636.376 802.445 636.76C802.845 637.128 803.045 637.592 803.045 638.152C803.045 638.712 802.845 639.184 802.445 639.568C802.061 639.936 801.573 640.12 800.981 640.12ZM802.637 641.704V655H799.277V641.704H802.637ZM809.029 652.24H814.957V655H805.213V652.288L811.021 644.464H805.237V641.704H814.885V644.416L809.029 652.24ZM816.694 648.304C816.694 646.96 816.958 645.768 817.486 644.728C818.03 643.688 818.758 642.888 819.67 642.328C820.598 641.768 821.63 641.488 822.766 641.488C823.758 641.488 824.622 641.688 825.358 642.088C826.11 642.488 826.71 642.992 827.158 643.6V641.704H830.542V655H827.158V653.056C826.726 653.68 826.126 654.2 825.358 654.616C824.606 655.016 823.734 655.216 822.742 655.216C821.622 655.216 820.598 654.928 819.67 654.352C818.758 653.776 818.03 652.968 817.486 651.928C816.958 650.872 816.694 649.664 816.694 648.304ZM827.158 648.352C827.158 647.536 826.998 646.84 826.678 646.264C826.358 645.672 825.926 645.224 825.382 644.92C824.838 644.6 824.254 644.44 823.63 644.44C823.006 644.44 822.43 644.592 821.902 644.896C821.374 645.2 820.942 645.648 820.606 646.24C820.286 646.816 820.126 647.504 820.126 648.304C820.126 649.104 820.286 649.808 820.606 650.416C820.942 651.008 821.374 651.464 821.902 651.784C822.446 652.104 823.022 652.264 823.63 652.264C824.254 652.264 824.838 652.112 825.382 651.808C825.926 651.488 826.358 651.04 826.678 650.464C826.998 649.872 827.158 649.168 827.158 648.352ZM837.736 644.464V650.896C837.736 651.344 837.84 651.672 838.048 651.88C838.272 652.072 838.64 652.168 839.152 652.168H840.712V655H838.6C835.768 655 834.352 653.624 834.352 650.872V644.464H832.768V641.704H834.352V638.416H837.736V641.704H840.712V644.464H837.736ZM844.833 640.12C844.241 640.12 843.745 639.936 843.345 639.568C842.961 639.184 842.769 638.712 842.769 638.152C842.769 637.592 842.961 637.128 843.345 636.76C843.745 636.376 844.241 636.184 844.833 636.184C845.425 636.184 845.913 636.376 846.297 636.76C846.697 637.128 846.897 637.592 846.897 638.152C846.897 638.712 846.697 639.184 846.297 639.568C845.913 639.936 845.425 640.12 844.833 640.12ZM846.489 641.704V655H843.129V641.704H846.489ZM855.712 655.216C854.432 655.216 853.28 654.936 852.256 654.376C851.232 653.8 850.424 652.992 849.832 651.952C849.256 650.912 848.968 649.712 848.968 648.352C848.968 646.992 849.264 645.792 849.856 644.752C850.464 643.712 851.288 642.912 852.328 642.352C853.368 641.776 854.528 641.488 855.808 641.488C857.088 641.488 858.248 641.776 859.288 642.352C860.328 642.912 861.144 643.712 861.736 644.752C862.344 645.792 862.648 646.992 862.648 648.352C862.648 649.712 862.336 650.912 861.712 651.952C861.104 652.992 860.272 653.8 859.216 654.376C858.176 654.936 857.008 655.216 855.712 655.216ZM855.712 652.288C856.32 652.288 856.888 652.144 857.416 651.856C857.96 651.552 858.392 651.104 858.712 650.512C859.032 649.92 859.192 649.2 859.192 648.352C859.192 647.088 858.856 646.12 858.184 645.448C857.528 644.76 856.72 644.416 855.76 644.416C854.8 644.416 853.992 644.76 853.336 645.448C852.696 646.12 852.376 647.088 852.376 648.352C852.376 649.616 852.688 650.592 853.312 651.28C853.952 651.952 854.752 652.288 855.712 652.288ZM872.481 641.512C874.065 641.512 875.345 642.016 876.321 643.024C877.297 644.016 877.785 645.408 877.785 647.2V655H874.425V647.656C874.425 646.6 874.161 645.792 873.633 645.232C873.105 644.656 872.385 644.368 871.473 644.368C870.545 644.368 869.809 644.656 869.265 645.232C868.737 645.792 868.473 646.6 868.473 647.656V655H865.113V641.704H868.473V643.36C868.921 642.784 869.489 642.336 870.177 642.016C870.881 641.68 871.649 641.512 872.481 641.512Z" fill="#1F32D6"/>
<rect x="1091" y="9" width="499" height="736" rx="23" fill="#1F32D6" fill-opacity="0.08"/>
<rect x="1091" y="9" width="499" height="736" rx="23" stroke="#1F32D6" stroke-width="2"/>
<rect x="1293" y="520" width="96" height="96" rx="48" fill="#1F32D6"/>
<path d="M1341.32 570.58C1341.13 570.553 1340.89 570.553 1340.68 570.58C1335.99 570.42 1332.25 566.58 1332.25 561.86C1332.25 557.033 1336.15 553.113 1341 553.113C1345.83 553.113 1349.75 557.033 1349.75 561.86C1349.72 566.58 1346.01 570.42 1341.32 570.58Z" stroke="white" stroke-width="3.5" stroke-linecap="round" stroke-linejoin="round"/>
<path d="M1358.97 588.18C1354.23 592.527 1347.93 595.167 1341 595.167C1334.07 595.167 1327.77 592.527 1323.03 588.18C1323.29 585.673 1324.89 583.22 1327.75 581.3C1335.05 576.447 1347 576.447 1354.25 581.3C1357.11 583.22 1358.71 585.673 1358.97 588.18Z" stroke="white" stroke-width="3.5" stroke-linecap="round" stroke-linejoin="round"/>
<path d="M1341 595.167C1355.73 595.167 1367.67 583.228 1367.67 568.5C1367.67 553.772 1355.73 541.833 1341 541.833C1326.27 541.833 1314.33 553.772 1314.33 568.5C1314.33 583.228 1326.27 595.167 1341 595.167Z" stroke="white" stroke-width="3.5" stroke-linecap="round" stroke-linejoin="round"/>
<path d="M1318.8 638.248V648.616C1318.8 649.752 1319.1 650.624 1319.69 651.232C1320.28 651.824 1321.12 652.12 1322.19 652.12C1323.28 652.12 1324.12 651.824 1324.71 651.232C1325.3 650.624 1325.6 649.752 1325.6 648.616V638.248H1328.98V648.592C1328.98 650.016 1328.67 651.224 1328.04 652.216C1327.44 653.192 1326.61 653.928 1325.57 654.424C1324.55 654.92 1323.4 655.168 1322.14 655.168C1320.89 655.168 1319.76 654.92 1318.73 654.424C1317.72 653.928 1316.92 653.192 1316.33 652.216C1315.74 651.224 1315.44 650.016 1315.44 648.592V638.248H1318.8ZM1337.31 655.216C1336.23 655.216 1335.25 655.024 1334.39 654.64C1333.52 654.24 1332.83 653.704 1332.32 653.032C1331.83 652.36 1331.55 651.616 1331.51 650.8H1334.89C1334.95 651.312 1335.2 651.736 1335.63 652.072C1336.08 652.408 1336.63 652.576 1337.29 652.576C1337.93 652.576 1338.43 652.448 1338.78 652.192C1339.15 651.936 1339.33 651.608 1339.33 651.208C1339.33 650.776 1339.11 650.456 1338.66 650.248C1338.23 650.024 1337.53 649.784 1336.57 649.528C1335.58 649.288 1334.76 649.04 1334.12 648.784C1333.5 648.528 1332.95 648.136 1332.49 647.608C1332.04 647.08 1331.82 646.368 1331.82 645.472C1331.82 644.736 1332.03 644.064 1332.44 643.456C1332.87 642.848 1333.48 642.368 1334.27 642.016C1335.07 641.664 1336 641.488 1337.07 641.488C1338.66 641.488 1339.92 641.888 1340.87 642.688C1341.81 643.472 1342.33 644.536 1342.43 645.88H1339.21C1339.16 645.352 1338.94 644.936 1338.54 644.632C1338.15 644.312 1337.63 644.152 1336.98 644.152C1336.37 644.152 1335.9 644.264 1335.56 644.488C1335.24 644.712 1335.08 645.024 1335.08 645.424C1335.08 645.872 1335.31 646.216 1335.75 646.456C1336.2 646.68 1336.9 646.912 1337.84 647.152C1338.8 647.392 1339.59 647.64 1340.22 647.896C1340.84 648.152 1341.38 648.552 1341.83 649.096C1342.29 649.624 1342.53 650.328 1342.55 651.208C1342.55 651.976 1342.33 652.664 1341.9 653.272C1341.48 653.88 1340.87 654.36 1340.07 654.712C1339.29 655.048 1338.37 655.216 1337.31 655.216ZM1357.66 648.064C1357.66 648.544 1357.63 648.976 1357.57 649.36H1347.85C1347.93 650.32 1348.26 651.072 1348.86 651.616C1349.45 652.16 1350.18 652.432 1351.04 652.432C1352.29 652.432 1353.18 651.896 1353.7 650.824H1357.33C1356.94 652.104 1356.21 653.16 1355.12 653.992C1354.03 654.808 1352.7 655.216 1351.11 655.216C1349.83 655.216 1348.68 654.936 1347.66 654.376C1346.65 653.8 1345.86 652.992 1345.28 651.952C1344.72 650.912 1344.44 649.712 1344.44 648.352C1344.44 646.976 1344.72 645.768 1345.28 644.728C1345.84 643.688 1346.62 642.888 1347.63 642.328C1348.64 641.768 1349.8 641.488 1351.11 641.488C1352.38 641.488 1353.5 641.76 1354.5 642.304C1355.5 642.848 1356.28 643.624 1356.82 644.632C1357.38 645.624 1357.66 646.768 1357.66 648.064ZM1354.18 647.104C1354.17 646.24 1353.86 645.552 1353.25 645.04C1352.64 644.512 1351.9 644.248 1351.02 644.248C1350.18 644.248 1349.48 644.504 1348.9 645.016C1348.34 645.512 1348 646.208 1347.87 647.104H1354.18ZM1363.48 643.768C1363.91 643.064 1364.47 642.512 1365.16 642.112C1365.86 641.712 1366.66 641.512 1367.56 641.512V645.04H1366.67C1365.61 645.04 1364.81 645.288 1364.27 645.784C1363.74 646.28 1363.48 647.144 1363.48 648.376V655H1360.12V641.704H1363.48V643.768Z" fill="#1F32D6"/>
<rect x="1144.5" y="175.5" width="393" height="95" rx="47.5" fill="white"/>
<rect x="1144.5" y="175.5" width="393" height="95" rx="47.5" stroke="black"/>
<path d="M1241.44 222.024C1241.44 219.256 1241.9 217.096 1242.83 215.544C1243.78 213.976 1245.39 213.192 1247.68 213.192C1249.97 213.192 1251.58 213.976 1252.5 215.544C1253.45 217.096 1253.92 219.256 1253.92 222.024C1253.92 224.824 1253.45 227.016 1252.5 228.6C1251.58 230.168 1249.97 230.952 1247.68 230.952C1245.39 230.952 1243.78 230.168 1242.83 228.6C1241.9 227.016 1241.44 224.824 1241.44 222.024ZM1251.23 222.024C1251.23 220.728 1251.14 219.632 1250.97 218.736C1250.81 217.84 1250.47 217.112 1249.96 216.552C1249.45 215.976 1248.69 215.688 1247.68 215.688C1246.67 215.688 1245.91 215.976 1245.4 216.552C1244.89 217.112 1244.54 217.84 1244.37 218.736C1244.21 219.632 1244.13 220.728 1244.13 222.024C1244.13 223.368 1244.21 224.496 1244.37 225.408C1244.53 226.32 1244.86 227.056 1245.38 227.616C1245.9 228.176 1246.67 228.456 1247.68 228.456C1248.69 228.456 1249.45 228.176 1249.96 227.616C1250.49 227.056 1250.83 226.32 1250.99 225.408C1251.15 224.496 1251.23 223.368 1251.23 222.024ZM1262.84 224.304L1267.11 231H1264.02L1261.16 226.512L1258.47 231H1255.62L1259.89 224.496L1255.62 217.776H1258.71L1261.57 222.264L1264.26 217.776H1267.11L1262.84 224.304ZM1272.2 226.248C1272.36 227.048 1272.7 227.656 1273.23 228.072C1273.76 228.488 1274.47 228.696 1275.37 228.696C1276.5 228.696 1277.34 228.248 1277.86 227.352C1278.39 226.456 1278.66 224.928 1278.66 222.768C1278.27 223.312 1277.73 223.736 1277.02 224.04C1276.34 224.328 1275.58 224.472 1274.77 224.472C1273.73 224.472 1272.78 224.264 1271.94 223.848C1271.09 223.416 1270.42 222.784 1269.92 221.952C1269.44 221.104 1269.2 220.08 1269.2 218.88C1269.2 217.12 1269.71 215.72 1270.74 214.68C1271.78 213.624 1273.2 213.096 1275.01 213.096C1277.18 213.096 1278.73 213.824 1279.64 215.28C1280.57 216.72 1281.03 218.936 1281.03 221.928C1281.03 223.992 1280.86 225.68 1280.5 226.992C1280.17 228.304 1279.58 229.296 1278.73 229.968C1277.88 230.64 1276.7 230.976 1275.2 230.976C1273.49 230.976 1272.17 230.528 1271.24 229.632C1270.31 228.736 1269.79 227.608 1269.68 226.248H1272.2ZM1275.25 222.168C1276.21 222.168 1276.96 221.872 1277.5 221.28C1278.06 220.672 1278.34 219.872 1278.34 218.88C1278.34 217.776 1278.05 216.92 1277.46 216.312C1276.88 215.688 1276.09 215.376 1275.08 215.376C1274.07 215.376 1273.27 215.696 1272.68 216.336C1272.1 216.96 1271.82 217.784 1271.82 218.808C1271.82 219.784 1272.1 220.592 1272.66 221.232C1273.23 221.856 1274.1 222.168 1275.25 222.168ZM1286.98 221.856C1285.31 221.024 1284.48 219.712 1284.48 217.92C1284.48 217.056 1284.7 216.264 1285.13 215.544C1285.56 214.824 1286.21 214.256 1287.07 213.84C1287.94 213.408 1288.99 213.192 1290.24 213.192C1291.47 213.192 1292.52 213.408 1293.39 213.84C1294.27 214.256 1294.92 214.824 1295.35 215.544C1295.79 216.264 1296 217.056 1296 217.92C1296 218.816 1295.77 219.608 1295.31 220.296C1294.86 220.968 1294.26 221.488 1293.51 221.856C1294.42 222.192 1295.14 222.744 1295.67 223.512C1296.19 224.264 1296.46 225.152 1296.46 226.176C1296.46 227.216 1296.19 228.136 1295.67 228.936C1295.14 229.736 1294.4 230.352 1293.46 230.784C1292.51 231.216 1291.44 231.432 1290.24 231.432C1289.04 231.432 1287.97 231.216 1287.03 230.784C1286.1 230.352 1285.37 229.736 1284.84 228.936C1284.31 228.136 1284.05 227.216 1284.05 226.176C1284.05 225.136 1284.31 224.24 1284.84 223.488C1285.37 222.736 1286.08 222.192 1286.98 221.856ZM1293.39 218.256C1293.39 217.36 1293.11 216.672 1292.55 216.192C1291.99 215.712 1291.22 215.472 1290.24 215.472C1289.28 215.472 1288.52 215.712 1287.96 216.192C1287.4 216.672 1287.12 217.368 1287.12 218.28C1287.12 219.08 1287.41 219.736 1287.99 220.248C1288.58 220.744 1289.33 220.992 1290.24 220.992C1291.15 220.992 1291.91 220.736 1292.5 220.224C1293.09 219.712 1293.39 219.056 1293.39 218.256ZM1290.24 223.056C1289.19 223.056 1288.32 223.32 1287.65 223.848C1286.99 224.36 1286.67 225.104 1286.67 226.08C1286.67 226.992 1286.99 227.736 1287.63 228.312C1288.27 228.872 1289.14 229.152 1290.24 229.152C1291.33 229.152 1292.19 228.864 1292.81 228.288C1293.45 227.712 1293.77 226.976 1293.77 226.08C1293.77 225.12 1293.44 224.376 1292.79 223.848C1292.15 223.32 1291.3 223.056 1290.24 223.056ZM1310.61 215.856H1302.57V220.632C1302.91 220.184 1303.4 219.808 1304.06 219.504C1304.73 219.2 1305.44 219.048 1306.19 219.048C1307.54 219.048 1308.63 219.336 1309.46 219.912C1310.31 220.488 1310.91 221.216 1311.26 222.096C1311.63 222.976 1311.81 223.904 1311.81 224.88C1311.81 226.064 1311.58 227.12 1311.11 228.048C1310.67 228.96 1309.99 229.68 1309.07 230.208C1308.18 230.736 1307.07 231 1305.76 231C1304.02 231 1302.62 230.568 1301.56 229.704C1300.51 228.84 1299.87 227.696 1299.67 226.272H1302.33C1302.51 227.024 1302.9 227.624 1303.51 228.072C1304.11 228.504 1304.87 228.72 1305.79 228.72C1306.92 228.72 1307.77 228.376 1308.33 227.688C1308.91 227 1309.19 226.088 1309.19 224.952C1309.19 223.8 1308.91 222.92 1308.33 222.312C1307.75 221.688 1306.91 221.376 1305.79 221.376C1305 221.376 1304.34 221.576 1303.79 221.976C1303.27 222.36 1302.88 222.888 1302.64 223.56H1300.05V213.456H1310.61V215.856ZM1317.61 221.856C1315.95 221.024 1315.11 219.712 1315.11 217.92C1315.11 217.056 1315.33 216.264 1315.76 215.544C1316.19 214.824 1316.84 214.256 1317.71 213.84C1318.57 213.408 1319.63 213.192 1320.87 213.192C1322.11 213.192 1323.15 213.408 1324.02 213.84C1324.9 214.256 1325.55 214.824 1325.99 215.544C1326.42 216.264 1326.63 217.056 1326.63 217.92C1326.63 218.816 1326.4 219.608 1325.94 220.296C1325.49 220.968 1324.89 221.488 1324.14 221.856C1325.05 222.192 1325.77 222.744 1326.3 223.512C1326.83 224.264 1327.09 225.152 1327.09 226.176C1327.09 227.216 1326.83 228.136 1326.3 228.936C1325.77 229.736 1325.03 230.352 1324.09 230.784C1323.15 231.216 1322.07 231.432 1320.87 231.432C1319.67 231.432 1318.6 231.216 1317.66 230.784C1316.73 230.352 1316 229.736 1315.47 228.936C1314.95 228.136 1314.68 227.216 1314.68 226.176C1314.68 225.136 1314.95 224.24 1315.47 223.488C1316 222.736 1316.71 222.192 1317.61 221.856ZM1324.02 218.256C1324.02 217.36 1323.74 216.672 1323.18 216.192C1322.62 215.712 1321.85 215.472 1320.87 215.472C1319.91 215.472 1319.15 215.712 1318.59 216.192C1318.03 216.672 1317.75 217.368 1317.75 218.28C1317.75 219.08 1318.04 219.736 1318.62 220.248C1319.21 220.744 1319.96 220.992 1320.87 220.992C1321.79 220.992 1322.54 220.736 1323.13 220.224C1323.72 219.712 1324.02 219.056 1324.02 218.256ZM1320.87 223.056C1319.82 223.056 1318.95 223.32 1318.28 223.848C1317.63 224.36 1317.3 225.104 1317.3 226.08C1317.3 226.992 1317.62 227.736 1318.26 228.312C1318.9 228.872 1319.77 229.152 1320.87 229.152C1321.96 229.152 1322.82 228.864 1323.44 228.288C1324.08 227.712 1324.4 226.976 1324.4 226.08C1324.4 225.12 1324.07 224.376 1323.42 223.848C1322.78 223.32 1321.93 223.056 1320.87 223.056ZM1333.06 216.528V221.424H1338.82V223.656H1333.06V228.768H1339.54V231H1330.32V214.296H1339.54V216.528H1333.06ZM1348.45 220.008H1346.01V231H1343.25V220.008H1341.69V217.776H1343.25V216.84C1343.25 215.32 1343.65 214.216 1344.45 213.528C1345.26 212.824 1346.53 212.472 1348.26 212.472V214.752C1347.43 214.752 1346.85 214.912 1346.51 215.232C1346.17 215.536 1346.01 216.072 1346.01 216.84V217.776H1348.45V220.008ZM1360.69 214.32V216.552H1353.61V221.472H1359.13V223.704H1353.61V231H1350.88V214.32H1360.69ZM1368.68 214.32C1370.45 214.32 1372.01 214.664 1373.33 215.352C1374.68 216.024 1375.71 217 1376.43 218.28C1377.17 219.544 1377.53 221.024 1377.53 222.72C1377.53 224.416 1377.17 225.888 1376.43 227.136C1375.71 228.384 1374.68 229.344 1373.33 230.016C1372.01 230.672 1370.45 231 1368.68 231H1363.23V214.32H1368.68ZM1368.68 228.768C1370.63 228.768 1372.13 228.24 1373.17 227.184C1374.21 226.128 1374.73 224.64 1374.73 222.72C1374.73 220.784 1374.21 219.272 1373.17 218.184C1372.13 217.096 1370.63 216.552 1368.68 216.552H1365.97V228.768H1368.68ZM1381.4 227.28C1382.93 225.952 1384.14 224.864 1385.02 224.016C1385.92 223.152 1386.66 222.256 1387.25 221.328C1387.85 220.4 1388.14 219.472 1388.14 218.544C1388.14 217.584 1387.91 216.832 1387.45 216.288C1387 215.744 1386.29 215.472 1385.31 215.472C1384.37 215.472 1383.63 215.776 1383.1 216.384C1382.59 216.976 1382.32 217.776 1382.29 218.784H1379.65C1379.69 216.96 1380.24 215.568 1381.28 214.608C1382.33 213.632 1383.67 213.144 1385.29 213.144C1387.03 213.144 1388.39 213.624 1389.37 214.584C1390.36 215.544 1390.85 216.824 1390.85 218.424C1390.85 219.576 1390.56 220.688 1389.97 221.76C1389.39 222.816 1388.69 223.768 1387.88 224.616C1387.08 225.448 1386.05 226.416 1384.81 227.52L1383.73 228.48H1391.33V230.76H1379.67V228.768L1381.4 227.28ZM1393.69 217.824C1393.78 216.336 1394.35 215.176 1395.39 214.344C1396.45 213.512 1397.79 213.096 1399.42 213.096C1400.54 213.096 1401.51 213.296 1402.33 213.696C1403.14 214.096 1403.76 214.64 1404.18 215.328C1404.59 216.016 1404.8 216.792 1404.8 217.656C1404.8 218.648 1404.54 219.496 1404.01 220.2C1403.48 220.904 1402.85 221.376 1402.11 221.616V221.712C1403.06 222 1403.79 222.528 1404.32 223.296C1404.85 224.048 1405.11 225.016 1405.11 226.2C1405.11 227.144 1404.9 227.984 1404.46 228.72C1404.03 229.456 1403.39 230.04 1402.54 230.472C1401.7 230.888 1400.68 231.096 1399.5 231.096C1397.77 231.096 1396.34 230.656 1395.22 229.776C1394.12 228.88 1393.53 227.6 1393.45 225.936H1396.09C1396.15 226.784 1396.48 227.48 1397.07 228.024C1397.66 228.552 1398.46 228.816 1399.47 228.816C1400.45 228.816 1401.2 228.552 1401.73 228.024C1402.26 227.48 1402.52 226.784 1402.52 225.936C1402.52 224.816 1402.16 224.024 1401.44 223.56C1400.74 223.08 1399.65 222.84 1398.18 222.84H1397.55V220.584H1398.2C1399.5 220.568 1400.48 220.352 1401.15 219.936C1401.84 219.52 1402.18 218.864 1402.18 217.968C1402.18 217.2 1401.94 216.592 1401.44 216.144C1400.94 215.68 1400.24 215.448 1399.33 215.448C1398.43 215.448 1397.74 215.68 1397.24 216.144C1396.74 216.592 1396.45 217.152 1396.35 217.824H1393.69ZM1409.5 227.28C1411.03 225.952 1412.24 224.864 1413.12 224.016C1414.02 223.152 1414.76 222.256 1415.35 221.328C1415.95 220.4 1416.24 219.472 1416.24 218.544C1416.24 217.584 1416.01 216.832 1415.55 216.288C1415.1 215.744 1414.39 215.472 1413.41 215.472C1412.47 215.472 1411.73 215.776 1411.2 216.384C1410.69 216.976 1410.42 217.776 1410.39 218.784H1407.75C1407.79 216.96 1408.34 215.568 1409.38 214.608C1410.43 213.632 1411.77 213.144 1413.39 213.144C1415.13 213.144 1416.49 213.624 1417.47 214.584C1418.46 215.544 1418.95 216.824 1418.95 218.424C1418.95 219.576 1418.66 220.688 1418.07 221.76C1417.49 222.816 1416.79 223.768 1415.98 224.616C1415.18 225.448 1414.15 226.416 1412.91 227.52L1411.83 228.48H1419.43V230.76H1407.77V228.768L1409.5 227.28ZM1431.13 222.432C1432.02 222.592 1432.78 223.064 1433.41 223.848C1434.03 224.632 1434.34 225.52 1434.34 226.512C1434.34 227.36 1434.12 228.128 1433.67 228.816C1433.24 229.488 1432.61 230.024 1431.77 230.424C1430.94 230.808 1429.97 231 1428.87 231H1422.2V214.32H1428.56C1429.69 214.32 1430.67 214.512 1431.49 214.896C1432.3 215.28 1432.92 215.8 1433.33 216.456C1433.75 217.096 1433.96 217.816 1433.96 218.616C1433.96 219.576 1433.7 220.376 1433.19 221.016C1432.68 221.656 1431.99 222.128 1431.13 222.432ZM1424.93 221.328H1428.32C1429.21 221.328 1429.91 221.128 1430.41 220.728C1430.92 220.312 1431.17 219.72 1431.17 218.952C1431.17 218.2 1430.92 217.616 1430.41 217.2C1429.91 216.768 1429.21 216.552 1428.32 216.552H1424.93V221.328ZM1428.63 228.768C1429.56 228.768 1430.29 228.544 1430.81 228.096C1431.34 227.648 1431.61 227.024 1431.61 226.224C1431.61 225.408 1431.33 224.76 1430.77 224.28C1430.21 223.8 1429.46 223.56 1428.53 223.56H1424.93V228.768H1428.63ZM1436.62 227.352V225.288L1444.68 213.72H1448V224.976H1450.23V227.352H1448V231H1445.31V227.352H1436.62ZM1445.43 216.504L1439.76 224.976H1445.43V216.504ZM1452.49 222.024C1452.49 219.256 1452.96 217.096 1453.89 215.544C1454.83 213.976 1456.45 213.192 1458.73 213.192C1461.02 213.192 1462.63 213.976 1463.56 215.544C1464.5 217.096 1464.97 219.256 1464.97 222.024C1464.97 224.824 1464.5 227.016 1463.56 228.6C1462.63 230.168 1461.02 230.952 1458.73 230.952C1456.45 230.952 1454.83 230.168 1453.89 228.6C1452.96 227.016 1452.49 224.824 1452.49 222.024ZM1462.29 222.024C1462.29 220.728 1462.2 219.632 1462.02 218.736C1461.86 217.84 1461.53 217.112 1461.01 216.552C1460.5 215.976 1459.74 215.688 1458.73 215.688C1457.73 215.688 1456.97 215.976 1456.45 216.552C1455.94 217.112 1455.6 217.84 1455.42 218.736C1455.26 219.632 1455.18 220.728 1455.18 222.024C1455.18 223.368 1455.26 224.496 1455.42 225.408C1455.58 226.32 1455.92 227.056 1456.43 227.616C1456.96 228.176 1457.73 228.456 1458.73 228.456C1459.74 228.456 1460.5 228.176 1461.01 227.616C1461.54 227.056 1461.89 226.32 1462.05 225.408C1462.21 224.496 1462.29 223.368 1462.29 222.024ZM1467.82 217.824C1467.92 216.336 1468.49 215.176 1469.53 214.344C1470.58 213.512 1471.93 213.096 1473.56 213.096C1474.68 213.096 1475.65 213.296 1476.46 213.696C1477.28 214.096 1477.89 214.64 1478.31 215.328C1478.73 216.016 1478.93 216.792 1478.93 217.656C1478.93 218.648 1478.67 219.496 1478.14 220.2C1477.61 220.904 1476.98 221.376 1476.25 221.616V221.712C1477.19 222 1477.93 222.528 1478.45 223.296C1478.98 224.048 1479.25 225.016 1479.25 226.2C1479.25 227.144 1479.03 227.984 1478.6 228.72C1478.17 229.456 1477.53 230.04 1476.68 230.472C1475.83 230.888 1474.81 231.096 1473.63 231.096C1471.9 231.096 1470.48 230.656 1469.36 229.776C1468.25 228.88 1467.66 227.6 1467.58 225.936H1470.22C1470.29 226.784 1470.61 227.48 1471.21 228.024C1471.8 228.552 1472.6 228.816 1473.61 228.816C1474.58 228.816 1475.33 228.552 1475.86 228.024C1476.39 227.48 1476.65 226.784 1476.65 225.936C1476.65 224.816 1476.29 224.024 1475.57 223.56C1474.87 223.08 1473.78 222.84 1472.31 222.84H1471.69V220.584H1472.33C1473.63 220.568 1474.61 220.352 1475.29 219.936C1475.97 219.52 1476.32 218.864 1476.32 217.968C1476.32 217.2 1476.07 216.592 1475.57 216.144C1475.08 215.68 1474.37 215.448 1473.46 215.448C1472.57 215.448 1471.87 215.68 1471.37 216.144C1470.88 216.592 1470.58 217.152 1470.49 217.824H1467.82ZM1483.58 231.168C1483.09 231.168 1482.67 231 1482.34 230.664C1482 230.328 1481.83 229.912 1481.83 229.416C1481.83 228.92 1482 228.504 1482.34 228.168C1482.67 227.832 1483.09 227.664 1483.58 227.664C1484.06 227.664 1484.47 227.832 1484.81 228.168C1485.14 228.504 1485.31 228.92 1485.31 229.416C1485.31 229.912 1485.14 230.328 1484.81 230.664C1484.47 231 1484.06 231.168 1483.58 231.168ZM1489.37 231.168C1488.88 231.168 1488.46 231 1488.12 230.664C1487.79 230.328 1487.62 229.912 1487.62 229.416C1487.62 228.92 1487.79 228.504 1488.12 228.168C1488.46 227.832 1488.88 227.664 1489.37 227.664C1489.85 227.664 1490.26 227.832 1490.6 228.168C1490.93 228.504 1491.1 228.92 1491.1 229.416C1491.1 229.912 1490.93 230.328 1490.6 230.664C1490.26 231 1489.85 231.168 1489.37 231.168ZM1495.16 231.168C1494.67 231.168 1494.25 231 1493.91 230.664C1493.58 230.328 1493.41 229.912 1493.41 229.416C1493.41 228.92 1493.58 228.504 1493.91 228.168C1494.25 227.832 1494.67 227.664 1495.16 227.664C1495.64 227.664 1496.05 227.832 1496.39 228.168C1496.72 228.504 1496.89 228.92 1496.89 229.416C1496.89 229.912 1496.72 230.328 1496.39 230.664C1496.05 231 1495.64 231.168 1495.16 231.168Z" fill="#1C1C1C"/>
<circle cx="1192" cy="223" r="32.5" fill="white" stroke="#EDEEF3"/>
<path d="M1180.87 223.381L1192 229.957V204.914L1180.87 223.381Z" fill="#828489"/>
<path d="M1191.99 204.914V229.957L1203.12 223.381L1191.99 204.914Z" fill="#303132"/>
<path d="M1180.87 225.782L1192 241.086V232.2L1180.87 225.782Z" fill="#828489"/>
<path d="M1191.99 232.2V241.086L1203.12 225.782L1191.99 232.2Z" fill="#303032"/>
<path d="M1192 218.826L1180.87 223.381L1192 229.957L1203.13 223.381L1192 218.826Z" fill="#353537"/>
<path d="M1191.99 218.826L1203.12 223.381L1192 229.957L1191.99 218.826Z" fill="#141415"/>
<rect x="1144.5" y="311.5" width="393" height="95" rx="47.5" fill="white"/>
<rect x="1144.5" y="311.5" width="393" height="95" rx="47.5" stroke="black"/>
<circle cx="1192" cy="359" r="32" fill="#FF7F21"/>
<path fill-rule="evenodd" clip-rule="evenodd" d="M1204.73 355.238C1205.29 351.203 1202.41 349.034 1198.48 347.587L1199.75 342.121L1196.63 341.292L1195.39 346.613C1194.57 346.395 1193.73 346.19 1192.89 345.986L1194.14 340.629L1191.03 339.8L1189.75 345.264C1189.07 345.099 1188.4 344.936 1187.76 344.765L1187.76 344.748L1183.46 343.602L1182.63 347.155C1182.63 347.155 1184.94 347.721 1184.89 347.756C1186.16 348.093 1186.38 348.984 1186.35 349.691L1182.85 364.664C1182.69 365.074 1182.3 365.688 1181.42 365.455C1181.45 365.503 1179.15 364.851 1179.15 364.851L1177.6 368.66L1181.66 369.739C1182.11 369.86 1182.56 369.985 1183 370.108L1183 370.108C1183.3 370.19 1183.59 370.271 1183.88 370.351L1182.59 375.879L1185.71 376.709L1186.99 371.239C1187.84 371.485 1188.66 371.713 1189.47 371.927L1188.2 377.371L1191.32 378.2L1192.61 372.682C1197.93 373.756 1201.93 373.323 1203.61 368.191C1204.97 364.06 1203.54 361.677 1200.75 360.122C1202.78 359.621 1204.32 358.191 1204.73 355.238ZM1197.6 365.897C1196.72 369.688 1191.15 368.121 1188.61 367.404C1188.38 367.339 1188.18 367.281 1188 367.235L1189.71 359.911C1189.93 359.968 1190.19 360.03 1190.48 360.1L1190.48 360.1C1193.11 360.73 1198.51 362.022 1197.6 365.897ZM1191.01 356.701C1193.13 357.306 1197.76 358.623 1198.57 355.178C1199.39 351.654 1194.89 350.592 1192.69 350.073C1192.45 350.015 1192.23 349.963 1192.05 349.916L1190.5 356.559C1190.64 356.598 1190.82 356.647 1191.01 356.701Z" fill="white"/>
<path d="M1244.54 355.744C1245 355.104 1245.63 354.584 1246.43 354.184C1247.25 353.768 1248.15 353.56 1249.14 353.56C1250.31 353.56 1251.37 353.84 1252.31 354.4C1253.26 354.96 1254 355.76 1254.54 356.8C1255.09 357.824 1255.36 359 1255.36 360.328C1255.36 361.656 1255.09 362.848 1254.54 363.904C1254 364.944 1253.25 365.76 1252.29 366.352C1251.34 366.928 1250.3 367.216 1249.14 367.216C1248.12 367.216 1247.21 367.016 1246.41 366.616C1245.62 366.216 1245 365.704 1244.54 365.08V367H1241.8V349.24H1244.54V355.744ZM1252.58 360.328C1252.58 359.416 1252.38 358.632 1252 357.976C1251.63 357.304 1251.14 356.8 1250.51 356.464C1249.9 356.112 1249.25 355.936 1248.54 355.936C1247.86 355.936 1247.2 356.112 1246.58 356.464C1245.97 356.816 1245.47 357.328 1245.09 358C1244.72 358.672 1244.54 359.464 1244.54 360.376C1244.54 361.288 1244.72 362.088 1245.09 362.776C1245.47 363.448 1245.97 363.96 1246.58 364.312C1247.2 364.664 1247.86 364.84 1248.54 364.84C1249.25 364.84 1249.9 364.664 1250.51 364.312C1251.14 363.944 1251.63 363.416 1252 362.728C1252.38 362.04 1252.58 361.24 1252.58 360.328ZM1257.15 360.376C1257.15 359.016 1257.43 357.824 1257.97 356.8C1258.53 355.76 1259.3 354.96 1260.27 354.4C1261.25 353.84 1262.37 353.56 1263.63 353.56C1265.23 353.56 1266.55 353.944 1267.59 354.712C1268.65 355.464 1269.36 356.544 1269.73 357.952H1266.78C1266.54 357.296 1266.15 356.784 1265.63 356.416C1265.1 356.048 1264.43 355.864 1263.63 355.864C1262.51 355.864 1261.62 356.264 1260.95 357.064C1260.29 357.848 1259.96 358.952 1259.96 360.376C1259.96 361.8 1260.29 362.912 1260.95 363.712C1261.62 364.512 1262.51 364.912 1263.63 364.912C1265.22 364.912 1266.27 364.216 1266.78 362.824H1269.73C1269.35 364.168 1268.63 365.24 1267.57 366.04C1266.51 366.824 1265.2 367.216 1263.63 367.216C1262.37 367.216 1261.25 366.936 1260.27 366.376C1259.3 365.8 1258.53 365 1257.97 363.976C1257.43 362.936 1257.15 361.736 1257.15 360.376ZM1271.74 352V349.504H1276.73V367H1273.97V352H1271.74ZM1279.93 360.328C1279.93 359 1280.21 357.824 1280.75 356.8C1281.31 355.776 1282.06 354.984 1283.01 354.424C1283.97 353.848 1285.03 353.56 1286.2 353.56C1287.22 353.56 1288.13 353.768 1288.91 354.184C1289.71 354.6 1290.33 355.104 1290.76 355.696V353.776H1293.52V373.288H1290.76V365.08C1290.33 365.672 1289.7 366.176 1288.89 366.592C1288.07 367.008 1287.14 367.216 1286.1 367.216C1284.97 367.216 1283.93 366.928 1282.98 366.352C1282.05 365.76 1281.31 364.944 1280.75 363.904C1280.21 362.848 1279.93 361.656 1279.93 360.328ZM1290.76 360.376C1290.76 359.464 1290.57 358.672 1290.18 358C1289.81 357.328 1289.33 356.816 1288.72 356.464C1288.11 356.112 1287.45 355.936 1286.75 355.936C1286.05 355.936 1285.39 356.112 1284.78 356.464C1284.17 356.8 1283.68 357.304 1283.29 357.976C1282.93 358.632 1282.74 359.416 1282.74 360.328C1282.74 361.24 1282.93 362.04 1283.29 362.728C1283.68 363.416 1284.17 363.944 1284.78 364.312C1285.41 364.664 1286.06 364.84 1286.75 364.84C1287.45 364.84 1288.11 364.664 1288.72 364.312C1289.33 363.96 1289.81 363.448 1290.18 362.776C1290.57 362.088 1290.76 361.288 1290.76 360.376ZM1296.2 360.376C1296.2 359.016 1296.47 357.824 1297.02 356.8C1297.58 355.76 1298.34 354.96 1299.32 354.4C1300.3 353.84 1301.42 353.56 1302.68 353.56C1304.28 353.56 1305.6 353.944 1306.64 354.712C1307.7 355.464 1308.41 356.544 1308.78 357.952H1305.82C1305.58 357.296 1305.2 356.784 1304.67 356.416C1304.14 356.048 1303.48 355.864 1302.68 355.864C1301.56 355.864 1300.66 356.264 1299.99 357.064C1299.34 357.848 1299.01 358.952 1299.01 360.376C1299.01 361.8 1299.34 362.912 1299.99 363.712C1300.66 364.512 1301.56 364.912 1302.68 364.912C1304.26 364.912 1305.31 364.216 1305.82 362.824H1308.78C1308.39 364.168 1307.67 365.24 1306.62 366.04C1305.56 366.824 1304.25 367.216 1302.68 367.216C1301.42 367.216 1300.3 366.936 1299.32 366.376C1298.34 365.8 1297.58 365 1297.02 363.976C1296.47 362.936 1296.2 361.736 1296.2 360.376ZM1314.24 355.696C1314.64 355.024 1315.17 354.504 1315.82 354.136C1316.5 353.752 1317.29 353.56 1318.2 353.56V356.392H1317.5C1316.43 356.392 1315.62 356.664 1315.06 357.208C1314.51 357.752 1314.24 358.696 1314.24 360.04V367H1311.5V353.776H1314.24V355.696ZM1323.31 357.856C1321.64 357.024 1320.81 355.712 1320.81 353.92C1320.81 353.056 1321.03 352.264 1321.46 351.544C1321.89 350.824 1322.54 350.256 1323.4 349.84C1324.27 349.408 1325.32 349.192 1326.57 349.192C1327.8 349.192 1328.85 349.408 1329.71 349.84C1330.59 350.256 1331.25 350.824 1331.68 351.544C1332.11 352.264 1332.33 353.056 1332.33 353.92C1332.33 354.816 1332.1 355.608 1331.63 356.296C1331.19 356.968 1330.59 357.488 1329.83 357.856C1330.75 358.192 1331.47 358.744 1331.99 359.512C1332.52 360.264 1332.79 361.152 1332.79 362.176C1332.79 363.216 1332.52 364.136 1331.99 364.936C1331.47 365.736 1330.73 366.352 1329.79 366.784C1328.84 367.216 1327.77 367.432 1326.57 367.432C1325.37 367.432 1324.3 367.216 1323.35 366.784C1322.43 366.352 1321.7 365.736 1321.17 364.936C1320.64 364.136 1320.38 363.216 1320.38 362.176C1320.38 361.136 1320.64 360.24 1321.17 359.488C1321.7 358.736 1322.41 358.192 1323.31 357.856ZM1329.71 354.256C1329.71 353.36 1329.43 352.672 1328.87 352.192C1328.31 351.712 1327.55 351.472 1326.57 351.472C1325.61 351.472 1324.85 351.712 1324.29 352.192C1323.73 352.672 1323.45 353.368 1323.45 354.28C1323.45 355.08 1323.74 355.736 1324.31 356.248C1324.91 356.744 1325.66 356.992 1326.57 356.992C1327.48 356.992 1328.23 356.736 1328.83 356.224C1329.42 355.712 1329.71 355.056 1329.71 354.256ZM1326.57 359.056C1325.51 359.056 1324.65 359.32 1323.98 359.848C1323.32 360.36 1322.99 361.104 1322.99 362.08C1322.99 362.992 1323.31 363.736 1323.95 364.312C1324.59 364.872 1325.47 365.152 1326.57 365.152C1327.66 365.152 1328.51 364.864 1329.14 364.288C1329.78 363.712 1330.1 362.976 1330.1 362.08C1330.1 361.12 1329.77 360.376 1329.11 359.848C1328.47 359.32 1327.63 359.056 1326.57 359.056ZM1339.21 356.008V363.328C1339.21 363.824 1339.32 364.184 1339.55 364.408C1339.79 364.616 1340.19 364.72 1340.75 364.72H1342.43V367H1340.27C1339.03 367 1338.09 366.712 1337.43 366.136C1336.78 365.56 1336.45 364.624 1336.45 363.328V356.008H1334.89V353.776H1336.45V350.488H1339.21V353.776H1342.43V356.008H1339.21ZM1357.07 360.064C1357.07 360.56 1357.04 361.008 1356.97 361.408H1346.87C1346.95 362.464 1347.34 363.312 1348.04 363.952C1348.75 364.592 1349.61 364.912 1350.64 364.912C1352.11 364.912 1353.15 364.296 1353.76 363.064H1356.71C1356.31 364.28 1355.58 365.28 1354.52 366.064C1353.48 366.832 1352.19 367.216 1350.64 367.216C1349.37 367.216 1348.24 366.936 1347.23 366.376C1346.24 365.8 1345.45 365 1344.88 363.976C1344.32 362.936 1344.04 361.736 1344.04 360.376C1344.04 359.016 1344.31 357.824 1344.85 356.8C1345.41 355.76 1346.19 354.96 1347.18 354.4C1348.19 353.84 1349.34 353.56 1350.64 353.56C1351.88 353.56 1353 353.832 1353.97 354.376C1354.95 354.92 1355.71 355.688 1356.25 356.68C1356.8 357.656 1357.07 358.784 1357.07 360.064ZM1354.21 359.2C1354.2 358.192 1353.84 357.384 1353.13 356.776C1352.43 356.168 1351.56 355.864 1350.52 355.864C1349.57 355.864 1348.76 356.168 1348.09 356.776C1347.42 357.368 1347.02 358.176 1346.89 359.2H1354.21ZM1359.06 363.352V361.288L1367.13 349.72H1370.44V360.976H1372.67V363.352H1370.44V367H1367.75V363.352H1359.06ZM1367.87 352.504L1362.21 360.976H1367.87V352.504ZM1380.53 360.4L1386.63 367H1382.93L1378.04 361.312V367H1375.3V349.24H1378.04V359.56L1382.84 353.776H1386.63L1380.53 360.4ZM1391.33 355.696C1391.73 355.024 1392.25 354.504 1392.91 354.136C1393.58 353.752 1394.37 353.56 1395.29 353.56V356.392H1394.59C1393.52 356.392 1392.7 356.664 1392.14 357.208C1391.6 357.752 1391.33 358.696 1391.33 360.04V367H1388.59V353.776H1391.33V355.696ZM1406.85 353.56C1406.67 352.824 1406.35 352.272 1405.89 351.904C1405.42 351.536 1404.78 351.352 1403.94 351.352C1402.68 351.352 1401.74 351.84 1401.11 352.816C1400.49 353.776 1400.16 355.376 1400.13 357.616C1400.54 356.912 1401.15 356.368 1401.95 355.984C1402.75 355.6 1403.62 355.408 1404.54 355.408C1405.6 355.408 1406.53 355.64 1407.33 356.104C1408.14 356.552 1408.78 357.208 1409.22 358.072C1409.69 358.936 1409.92 359.968 1409.92 361.168C1409.92 362.288 1409.7 363.288 1409.25 364.168C1408.82 365.048 1408.17 365.744 1407.3 366.256C1406.44 366.752 1405.4 367 1404.18 367C1402.54 367 1401.24 366.64 1400.3 365.92C1399.37 365.184 1398.71 364.152 1398.33 362.824C1397.96 361.496 1397.78 359.84 1397.78 357.856C1397.78 352 1399.84 349.072 1403.97 349.072C1405.57 349.072 1406.82 349.504 1407.74 350.368C1408.66 351.232 1409.21 352.296 1409.37 353.56H1406.85ZM1403.94 357.712C1402.97 357.712 1402.14 358.008 1401.45 358.6C1400.78 359.176 1400.44 360.016 1400.44 361.12C1400.44 362.224 1400.75 363.104 1401.38 363.76C1402.02 364.4 1402.9 364.72 1404.04 364.72C1405.05 364.72 1405.84 364.408 1406.42 363.784C1407.01 363.16 1407.3 362.328 1407.3 361.288C1407.3 360.2 1407.02 359.336 1406.44 358.696C1405.88 358.04 1405.05 357.712 1403.94 357.712ZM1412.84 358.024C1412.84 355.256 1413.3 353.096 1414.23 351.544C1415.17 349.976 1416.79 349.192 1419.08 349.192C1421.37 349.192 1422.97 349.976 1423.9 351.544C1424.85 353.096 1425.32 355.256 1425.32 358.024C1425.32 360.824 1424.85 363.016 1423.9 364.6C1422.97 366.168 1421.37 366.952 1419.08 366.952C1416.79 366.952 1415.17 366.168 1414.23 364.6C1413.3 363.016 1412.84 360.824 1412.84 358.024ZM1422.63 358.024C1422.63 356.728 1422.54 355.632 1422.37 354.736C1422.21 353.84 1421.87 353.112 1421.36 352.552C1420.85 351.976 1420.09 351.688 1419.08 351.688C1418.07 351.688 1417.31 351.976 1416.8 352.552C1416.29 353.112 1415.94 353.84 1415.77 354.736C1415.61 355.632 1415.53 356.728 1415.53 358.024C1415.53 359.368 1415.61 360.496 1415.77 361.408C1415.93 362.32 1416.26 363.056 1416.77 363.616C1417.3 364.176 1418.07 364.456 1419.08 364.456C1420.09 364.456 1420.85 364.176 1421.36 363.616C1421.89 363.056 1422.23 362.32 1422.39 361.408C1422.55 360.496 1422.63 359.368 1422.63 358.024ZM1431.62 362.248C1431.78 363.048 1432.13 363.656 1432.65 364.072C1433.18 364.488 1433.89 364.696 1434.79 364.696C1435.93 364.696 1436.76 364.248 1437.29 363.352C1437.81 362.456 1438.08 360.928 1438.08 358.768C1437.69 359.312 1437.15 359.736 1436.45 360.04C1435.76 360.328 1435.01 360.472 1434.19 360.472C1433.15 360.472 1432.21 360.264 1431.36 359.848C1430.51 359.416 1429.84 358.784 1429.34 357.952C1428.86 357.104 1428.62 356.08 1428.62 354.88C1428.62 353.12 1429.13 351.72 1430.16 350.68C1431.2 349.624 1432.62 349.096 1434.43 349.096C1436.61 349.096 1438.15 349.824 1439.06 351.28C1439.99 352.72 1440.45 354.936 1440.45 357.928C1440.45 359.992 1440.28 361.68 1439.93 362.992C1439.59 364.304 1439 365.296 1438.15 365.968C1437.3 366.64 1436.13 366.976 1434.62 366.976C1432.91 366.976 1431.59 366.528 1430.66 365.632C1429.73 364.736 1429.21 363.608 1429.1 362.248H1431.62ZM1434.67 358.168C1435.63 358.168 1436.38 357.872 1436.93 357.28C1437.49 356.672 1437.77 355.872 1437.77 354.88C1437.77 353.776 1437.47 352.92 1436.88 352.312C1436.3 351.688 1435.51 351.376 1434.5 351.376C1433.49 351.376 1432.69 351.696 1432.1 352.336C1431.53 352.96 1431.24 353.784 1431.24 354.808C1431.24 355.784 1431.52 356.592 1432.08 357.232C1432.65 357.856 1433.52 358.168 1434.67 358.168ZM1449.14 353.56C1450.16 353.56 1451.06 353.768 1451.85 354.184C1452.65 354.584 1453.27 355.088 1453.72 355.696V353.776H1456.48V367.216C1456.48 368.432 1456.22 369.512 1455.71 370.456C1455.2 371.416 1454.46 372.168 1453.48 372.712C1452.52 373.256 1451.37 373.528 1450.02 373.528C1448.23 373.528 1446.74 373.104 1445.56 372.256C1444.38 371.424 1443.7 370.288 1443.54 368.848H1446.26C1446.46 369.536 1446.9 370.088 1447.58 370.504C1448.26 370.936 1449.08 371.152 1450.02 371.152C1451.13 371.152 1452.02 370.816 1452.69 370.144C1453.38 369.472 1453.72 368.496 1453.72 367.216V365.008C1453.26 365.632 1452.62 366.16 1451.82 366.592C1451.04 367.008 1450.14 367.216 1449.14 367.216C1447.98 367.216 1446.93 366.928 1445.97 366.352C1445.02 365.76 1444.27 364.944 1443.71 363.904C1443.17 362.848 1442.9 361.656 1442.9 360.328C1442.9 359 1443.17 357.824 1443.71 356.8C1444.27 355.776 1445.02 354.984 1445.97 354.424C1446.93 353.848 1447.98 353.56 1449.14 353.56ZM1453.72 360.376C1453.72 359.464 1453.53 358.672 1453.14 358C1452.78 357.328 1452.29 356.816 1451.68 356.464C1451.07 356.112 1450.42 355.936 1449.71 355.936C1449.01 355.936 1448.35 356.112 1447.74 356.464C1447.14 356.8 1446.64 357.304 1446.26 357.976C1445.89 358.632 1445.7 359.416 1445.7 360.328C1445.7 361.24 1445.89 362.04 1446.26 362.728C1446.64 363.416 1447.14 363.944 1447.74 364.312C1448.37 364.664 1449.02 364.84 1449.71 364.84C1450.42 364.84 1451.07 364.664 1451.68 364.312C1452.29 363.96 1452.78 363.448 1453.14 362.776C1453.53 362.088 1453.72 361.288 1453.72 360.376ZM1459.16 360.376C1459.16 359.016 1459.43 357.824 1459.98 356.8C1460.54 355.76 1461.31 354.96 1462.28 354.4C1463.26 353.84 1464.38 353.56 1465.64 353.56C1467.24 353.56 1468.56 353.944 1469.6 354.712C1470.66 355.464 1471.37 356.544 1471.74 357.952H1468.79C1468.55 357.296 1468.16 356.784 1467.63 356.416C1467.11 356.048 1466.44 355.864 1465.64 355.864C1464.52 355.864 1463.63 356.264 1462.95 357.064C1462.3 357.848 1461.97 358.952 1461.97 360.376C1461.97 361.8 1462.3 362.912 1462.95 363.712C1463.63 364.512 1464.52 364.912 1465.64 364.912C1467.23 364.912 1468.27 364.216 1468.79 362.824H1471.74C1471.35 364.168 1470.63 365.24 1469.58 366.04C1468.52 366.824 1467.21 367.216 1465.64 367.216C1464.38 367.216 1463.26 366.936 1462.28 366.376C1461.31 365.8 1460.54 365 1459.98 363.976C1459.43 362.936 1459.16 361.736 1459.16 360.376ZM1473.55 360.328C1473.55 359 1473.82 357.824 1474.37 356.8C1474.93 355.776 1475.68 354.984 1476.62 354.424C1477.58 353.848 1478.64 353.56 1479.79 353.56C1480.83 353.56 1481.74 353.768 1482.5 354.184C1483.29 354.584 1483.91 355.088 1484.38 355.696V353.776H1487.14V367H1484.38V365.032C1483.91 365.656 1483.28 366.176 1482.48 366.592C1481.68 367.008 1480.77 367.216 1479.74 367.216C1478.61 367.216 1477.57 366.928 1476.62 366.352C1475.68 365.76 1474.93 364.944 1474.37 363.904C1473.82 362.848 1473.55 361.656 1473.55 360.328ZM1484.38 360.376C1484.38 359.464 1484.18 358.672 1483.8 358C1483.43 357.328 1482.94 356.816 1482.34 356.464C1481.73 356.112 1481.07 355.936 1480.37 355.936C1479.66 355.936 1479.01 356.112 1478.4 356.464C1477.79 356.8 1477.3 357.304 1476.91 357.976C1476.54 358.632 1476.36 359.416 1476.36 360.328C1476.36 361.24 1476.54 362.04 1476.91 362.728C1477.3 363.416 1477.79 363.944 1478.4 364.312C1479.02 364.664 1479.68 364.84 1480.37 364.84C1481.07 364.84 1481.73 364.664 1482.34 364.312C1482.94 363.96 1483.43 363.448 1483.8 362.776C1484.18 362.088 1484.38 361.288 1484.38 360.376ZM1491.83 367.168C1491.34 367.168 1490.92 367 1490.59 366.664C1490.25 366.328 1490.08 365.912 1490.08 365.416C1490.08 364.92 1490.25 364.504 1490.59 364.168C1490.92 363.832 1491.34 363.664 1491.83 363.664C1492.31 363.664 1492.72 363.832 1493.06 364.168C1493.39 364.504 1493.56 364.92 1493.56 365.416C1493.56 365.912 1493.39 366.328 1493.06 366.664C1492.72 367 1492.31 367.168 1491.83 367.168ZM1497.62 367.168C1497.13 367.168 1496.71 367 1496.37 366.664C1496.04 366.328 1495.87 365.912 1495.87 365.416C1495.87 364.92 1496.04 364.504 1496.37 364.168C1496.71 363.832 1497.13 363.664 1497.62 363.664C1498.1 363.664 1498.51 363.832 1498.85 364.168C1499.18 364.504 1499.35 364.92 1499.35 365.416C1499.35 365.912 1499.18 366.328 1498.85 366.664C1498.51 367 1498.1 367.168 1497.62 367.168ZM1503.41 367.168C1502.92 367.168 1502.5 367 1502.16 366.664C1501.83 366.328 1501.66 365.912 1501.66 365.416C1501.66 364.92 1501.83 364.504 1502.16 364.168C1502.5 363.832 1502.92 363.664 1503.41 363.664C1503.89 363.664 1504.3 363.832 1504.64 364.168C1504.97 364.504 1505.14 364.92 1505.14 365.416C1505.14 365.912 1504.97 366.328 1504.64 366.664C1504.3 367 1503.89 367.168 1503.41 367.168Z" fill="#1C1C1C"/>
</svg>
