<svg width="1600" height="754" viewBox="0 0 1600 754" fill="none" xmlns="http://www.w3.org/2000/svg">
<rect width="1600" height="754" fill="white"/>
<rect x="9" y="9" width="499" height="736" rx="23" fill="black" fill-opacity="0.08"/>
<rect x="9" y="9" width="499" height="736" rx="23" stroke="black" stroke-width="2"/>
<circle cx="259" cy="418" r="100" fill="white"/>
<path d="M222.502 463.815C225.201 463.815 227.904 463.815 230.603 463.815C231.385 463.815 231.777 463.411 231.777 462.602C231.777 458.577 231.787 454.552 231.766 450.527C231.762 449.886 231.896 449.639 232.602 449.647C236.754 449.679 240.909 449.65 245.061 449.679C245.706 449.683 245.884 449.494 245.88 448.864C245.858 444.763 245.887 440.662 245.851 436.558C245.844 435.811 246.003 435.554 246.807 435.565C250.934 435.608 255.06 435.576 259.19 435.594C259.719 435.594 260.088 435.442 260.458 435.065C262.313 433.174 264.211 431.323 266.066 429.432C266.435 429.055 266.751 428.975 267.261 429.12C276.579 431.794 285.256 430.395 293.059 424.653C299.91 419.607 303.83 412.723 304.667 404.228C305.569 395.12 302.783 387.179 296.331 380.716C289.813 374.181 281.8 371.417 272.605 372.34C265.099 373.094 258.81 376.387 253.864 382.046C248.006 388.748 245.731 396.613 246.92 405.445C247.112 406.876 247.485 408.289 247.865 409.687C248.021 410.26 247.938 410.6 247.517 411.017C240.866 417.621 234.229 424.244 227.596 430.866C222.98 435.474 218.365 440.082 213.775 444.712C213.474 445.013 213.242 445.535 213.242 445.955C213.206 451.61 213.232 457.265 213.206 462.924C213.206 463.612 213.376 463.844 214.097 463.833C216.898 463.793 219.702 463.815 222.506 463.815H222.502ZM272 395.044C272.022 389.599 276.391 385.227 281.814 385.216C287.103 385.205 291.559 389.646 291.577 394.954C291.596 400.468 287.183 404.808 281.557 404.808C276.405 404.808 271.978 400.283 272 395.048V395.044Z" fill="black"/>
<path d="M326.999 509.333C339.833 509.333 350.333 498.833 350.333 486C350.333 473.167 339.833 462.667 326.999 462.667C314.166 462.667 303.666 473.167 303.666 486C303.666 498.833 314.166 509.333 326.999 509.333Z" fill="#E74E5A"/>
<path d="M320.396 492.603L333.603 479.396" stroke="white" stroke-width="2.5" stroke-linecap="round" stroke-linejoin="round"/>
<path d="M333.603 492.603L320.396 479.396" stroke="white" stroke-width="2.5" stroke-linecap="round" stroke-linejoin="round"/>
<path d="M185.855 230.576C185.855 231.771 185.567 232.891 184.991 233.936C184.437 234.981 183.551 235.824 182.335 236.464C181.141 237.104 179.626 237.424 177.791 237.424H174.047V246H169.567V223.664H177.791C179.519 223.664 180.991 223.963 182.207 224.56C183.423 225.157 184.33 225.979 184.927 227.024C185.546 228.069 185.855 229.253 185.855 230.576ZM177.599 233.808C178.837 233.808 179.754 233.531 180.351 232.976C180.949 232.4 181.247 231.6 181.247 230.576C181.247 228.4 180.031 227.312 177.599 227.312H174.047V233.808H177.599ZM193.516 231.024C194.092 230.085 194.839 229.349 195.756 228.816C196.695 228.283 197.761 228.016 198.956 228.016V232.72H197.772C196.364 232.72 195.297 233.051 194.572 233.712C193.868 234.373 193.516 235.525 193.516 237.168V246H189.036V228.272H193.516V231.024ZM204.246 226.16C203.456 226.16 202.795 225.915 202.262 225.424C201.75 224.912 201.494 224.283 201.494 223.536C201.494 222.789 201.75 222.171 202.262 221.68C202.795 221.168 203.456 220.912 204.246 220.912C205.035 220.912 205.686 221.168 206.198 221.68C206.731 222.171 206.998 222.789 206.998 223.536C206.998 224.283 206.731 224.912 206.198 225.424C205.686 225.915 205.035 226.16 204.246 226.16ZM206.454 228.272V246H201.974V228.272H206.454ZM218.272 241.872L222.752 228.272H227.52L220.96 246H215.52L208.992 228.272H213.792L218.272 241.872ZM228.884 237.072C228.884 235.28 229.236 233.691 229.94 232.304C230.665 230.917 231.636 229.851 232.852 229.104C234.089 228.357 235.465 227.984 236.98 227.984C238.303 227.984 239.455 228.251 240.436 228.784C241.439 229.317 242.239 229.989 242.836 230.8V228.272H247.348V246H242.836V243.408C242.26 244.24 241.46 244.933 240.436 245.488C239.433 246.021 238.271 246.288 236.948 246.288C235.455 246.288 234.089 245.904 232.852 245.136C231.636 244.368 230.665 243.291 229.94 241.904C229.236 240.496 228.884 238.885 228.884 237.072ZM242.836 237.136C242.836 236.048 242.623 235.12 242.196 234.352C241.769 233.563 241.193 232.965 240.468 232.56C239.743 232.133 238.964 231.92 238.132 231.92C237.3 231.92 236.532 232.123 235.828 232.528C235.124 232.933 234.548 233.531 234.1 234.32C233.673 235.088 233.46 236.005 233.46 237.072C233.46 238.139 233.673 239.077 234.1 239.888C234.548 240.677 235.124 241.285 235.828 241.712C236.553 242.139 237.321 242.352 238.132 242.352C238.964 242.352 239.743 242.149 240.468 241.744C241.193 241.317 241.769 240.72 242.196 239.952C242.623 239.163 242.836 238.224 242.836 237.136ZM256.94 231.952V240.528C256.94 241.125 257.078 241.563 257.356 241.84C257.654 242.096 258.145 242.224 258.828 242.224H260.908V246H258.092C254.316 246 252.428 244.165 252.428 240.496V231.952H250.316V228.272H252.428V223.888H256.94V228.272H260.908V231.952H256.94ZM280.61 236.752C280.61 237.392 280.567 237.968 280.482 238.48H267.522C267.629 239.76 268.077 240.763 268.866 241.488C269.655 242.213 270.626 242.576 271.778 242.576C273.442 242.576 274.626 241.861 275.33 240.432H280.162C279.65 242.139 278.669 243.547 277.218 244.656C275.767 245.744 273.986 246.288 271.874 246.288C270.167 246.288 268.631 245.915 267.266 245.168C265.922 244.4 264.866 243.323 264.098 241.936C263.351 240.549 262.978 238.949 262.978 237.136C262.978 235.301 263.351 233.691 264.098 232.304C264.845 230.917 265.89 229.851 267.234 229.104C268.578 228.357 270.125 227.984 271.874 227.984C273.559 227.984 275.063 228.347 276.386 229.072C277.73 229.797 278.765 230.832 279.49 232.176C280.237 233.499 280.61 235.024 280.61 236.752ZM275.97 235.472C275.949 234.32 275.533 233.403 274.722 232.72C273.911 232.016 272.919 231.664 271.746 231.664C270.637 231.664 269.698 232.005 268.93 232.688C268.183 233.349 267.725 234.277 267.554 235.472H275.97ZM304.113 246L295.985 236.048V246H291.505V223.664H295.985V233.68L304.113 223.664H309.521L300.305 234.736L309.777 246H304.113ZM329.204 236.752C329.204 237.392 329.161 237.968 329.076 238.48H316.116C316.222 239.76 316.67 240.763 317.46 241.488C318.249 242.213 319.22 242.576 320.372 242.576C322.036 242.576 323.22 241.861 323.924 240.432H328.756C328.244 242.139 327.262 243.547 325.812 244.656C324.361 245.744 322.58 246.288 320.468 246.288C318.761 246.288 317.225 245.915 315.86 245.168C314.516 244.4 313.46 243.323 312.692 241.936C311.945 240.549 311.572 238.949 311.572 237.136C311.572 235.301 311.945 233.691 312.692 232.304C313.438 230.917 314.484 229.851 315.828 229.104C317.172 228.357 318.718 227.984 320.468 227.984C322.153 227.984 323.657 228.347 324.98 229.072C326.324 229.797 327.358 230.832 328.084 232.176C328.83 233.499 329.204 235.024 329.204 236.752ZM324.564 235.472C324.542 234.32 324.126 233.403 323.316 232.72C322.505 232.016 321.513 231.664 320.34 231.664C319.23 231.664 318.292 232.005 317.524 232.688C316.777 233.349 316.318 234.277 316.148 235.472H324.564ZM349.434 228.272L338.458 254.384H333.69L337.53 245.552L330.426 228.272H335.45L340.026 240.656L344.666 228.272H349.434Z" fill="black"/>
<rect x="550" y="9" width="1040" height="736" rx="23" fill="#1F32D6" fill-opacity="0.08"/>
<rect x="550" y="9" width="1040" height="736" rx="23" stroke="#1F32D6" stroke-width="2"/>
<circle cx="790" cy="418" r="100" fill="white"/>
<mask id="mask0_2142_368" style="mask-type:alpha" maskUnits="userSpaceOnUse" x="744" y="372" width="92" height="92">
<path d="M753.502 463.815C756.201 463.815 758.904 463.815 761.603 463.815C762.385 463.815 762.777 463.41 762.777 462.601C762.777 458.576 762.787 454.551 762.766 450.526C762.762 449.885 762.896 449.639 763.602 449.646C767.754 449.679 771.909 449.65 776.061 449.679C776.706 449.682 776.884 449.494 776.88 448.864C776.858 444.763 776.887 440.662 776.851 436.557C776.844 435.811 777.003 435.554 777.807 435.564C781.934 435.608 786.06 435.575 790.19 435.593C790.719 435.593 791.088 435.441 791.458 435.064C793.313 433.173 795.211 431.322 797.066 429.431C797.435 429.054 797.751 428.975 798.261 429.119C807.579 431.793 816.256 430.395 824.059 424.653C830.91 419.606 834.83 412.723 835.667 404.227C836.569 395.12 833.783 387.179 827.331 380.716C820.813 374.18 812.8 371.416 803.605 372.34C796.099 373.093 789.81 376.387 784.864 382.045C779.006 388.747 776.731 396.612 777.92 405.445C778.112 406.876 778.485 408.289 778.865 409.687C779.021 410.259 778.938 410.6 778.517 411.017C771.866 417.621 765.229 424.243 758.596 430.866C753.98 435.474 749.365 440.082 744.775 444.712C744.474 445.013 744.242 445.534 744.242 445.954C744.206 451.61 744.232 457.265 744.206 462.923C744.206 463.612 744.376 463.844 745.097 463.833C747.898 463.793 750.702 463.815 753.506 463.815H753.502ZM803 395.044C803.022 389.599 807.391 385.226 812.814 385.215C818.103 385.204 822.559 389.646 822.577 394.953C822.596 400.467 818.183 404.807 812.557 404.807C807.405 404.807 802.978 400.282 803 395.047V395.044Z" fill="white"/>
</mask>
<g mask="url(#mask0_2142_368)">
<rect width="29.3653" height="119.684" transform="matrix(-0.656374 0.754435 -0.715431 -0.698683 819.031 449.445)" fill="#1F32D6" fill-opacity="0.6"/>
<rect width="41.3022" height="119.684" transform="matrix(-0.656374 0.754435 -0.715431 -0.698683 795.834 467.495)" fill="#1F32D6" fill-opacity="0.3"/>
<rect width="59.5696" height="119.684" transform="matrix(-0.656374 0.754435 -0.715431 -0.698683 858.133 404.502)" fill="#1F32D6"/>
</g>
<path d="M857.999 509.333C870.833 509.333 881.333 498.833 881.333 486C881.333 473.167 870.833 462.667 857.999 462.667C845.166 462.667 834.666 473.167 834.666 486C834.666 498.833 845.166 509.333 857.999 509.333Z" fill="#26C165"/>
<path d="M848.084 486L854.687 492.603L867.917 479.396" stroke="white" stroke-width="2.5" stroke-linecap="round" stroke-linejoin="round"/>
<circle cx="1070" cy="418" r="100" fill="white"/>
<path d="M1138 509.333C1150.83 509.333 1161.33 498.833 1161.33 486C1161.33 473.167 1150.83 462.667 1138 462.667C1125.17 462.667 1114.67 473.167 1114.67 486C1114.67 498.833 1125.17 509.333 1138 509.333Z" fill="#26C165"/>
<path d="M1128.08 486L1134.69 492.603L1147.92 479.396" stroke="white" stroke-width="2.5" stroke-linecap="round" stroke-linejoin="round"/>
<mask id="mask1_2142_368" style="mask-type:alpha" maskUnits="userSpaceOnUse" x="1024" y="372" width="92" height="92">
<path d="M1033.5 463.815C1036.2 463.815 1038.9 463.815 1041.6 463.815C1042.39 463.815 1042.78 463.41 1042.78 462.601C1042.78 458.576 1042.79 454.551 1042.77 450.526C1042.76 449.885 1042.9 449.639 1043.6 449.646C1047.75 449.679 1051.91 449.65 1056.06 449.679C1056.71 449.682 1056.88 449.494 1056.88 448.864C1056.86 444.763 1056.89 440.662 1056.85 436.557C1056.84 435.811 1057 435.554 1057.81 435.564C1061.93 435.608 1066.06 435.575 1070.19 435.593C1070.72 435.593 1071.09 435.441 1071.46 435.064C1073.31 433.173 1075.21 431.322 1077.07 429.431C1077.44 429.054 1077.75 428.975 1078.26 429.119C1087.58 431.793 1096.26 430.395 1104.06 424.653C1110.91 419.606 1114.83 412.723 1115.67 404.227C1116.57 395.12 1113.78 387.179 1107.33 380.716C1100.81 374.18 1092.8 371.416 1083.61 372.34C1076.1 373.093 1069.81 376.387 1064.86 382.045C1059.01 388.747 1056.73 396.612 1057.92 405.445C1058.11 406.876 1058.48 408.289 1058.87 409.687C1059.02 410.259 1058.94 410.6 1058.52 411.017C1051.87 417.621 1045.23 424.243 1038.6 430.866C1033.98 435.474 1029.37 440.082 1024.77 444.712C1024.47 445.013 1024.24 445.534 1024.24 445.954C1024.21 451.61 1024.23 457.265 1024.21 462.923C1024.21 463.612 1024.38 463.844 1025.1 463.833C1027.9 463.793 1030.7 463.815 1033.51 463.815H1033.5ZM1083 395.044C1083.02 389.599 1087.39 385.226 1092.81 385.215C1098.1 385.204 1102.56 389.646 1102.58 394.953C1102.6 400.467 1098.18 404.807 1092.56 404.807C1087.41 404.807 1082.98 400.282 1083 395.047V395.044Z" fill="white"/>
</mask>
<g mask="url(#mask1_2142_368)">
<rect width="29.3653" height="119.684" transform="matrix(-0.656374 0.754435 -0.715431 -0.698683 1099.03 449.445)" fill="#1F32D6"/>
<rect width="41.3022" height="119.684" transform="matrix(-0.656374 0.754435 -0.715431 -0.698683 1075.83 467.495)" fill="#1F32D6" fill-opacity="0.6"/>
<rect width="59.5696" height="119.684" transform="matrix(-0.656374 0.754435 -0.715431 -0.698683 1138.13 404.502)" fill="#1F32D6" fill-opacity="0.3"/>
</g>
<circle cx="1350" cy="418" r="100" fill="white"/>
<path d="M1418 509.333C1430.83 509.333 1441.33 498.833 1441.33 486C1441.33 473.167 1430.83 462.667 1418 462.667C1405.17 462.667 1394.67 473.167 1394.67 486C1394.67 498.833 1405.17 509.333 1418 509.333Z" fill="#26C165"/>
<path d="M1408.08 486L1414.69 492.603L1427.92 479.396" stroke="white" stroke-width="2.5" stroke-linecap="round" stroke-linejoin="round"/>
<mask id="mask2_2142_368" style="mask-type:alpha" maskUnits="userSpaceOnUse" x="1304" y="372" width="92" height="92">
<path d="M1313.5 463.815C1316.2 463.815 1318.9 463.815 1321.6 463.815C1322.39 463.815 1322.78 463.41 1322.78 462.601C1322.78 458.576 1322.79 454.551 1322.77 450.526C1322.76 449.885 1322.9 449.639 1323.6 449.646C1327.75 449.679 1331.91 449.65 1336.06 449.679C1336.71 449.682 1336.88 449.494 1336.88 448.864C1336.86 444.763 1336.89 440.662 1336.85 436.557C1336.84 435.811 1337 435.554 1337.81 435.564C1341.93 435.608 1346.06 435.575 1350.19 435.593C1350.72 435.593 1351.09 435.441 1351.46 435.064C1353.31 433.173 1355.21 431.322 1357.07 429.431C1357.44 429.054 1357.75 428.975 1358.26 429.119C1367.58 431.793 1376.26 430.395 1384.06 424.653C1390.91 419.606 1394.83 412.723 1395.67 404.227C1396.57 395.12 1393.78 387.179 1387.33 380.716C1380.81 374.18 1372.8 371.416 1363.61 372.34C1356.1 373.093 1349.81 376.387 1344.86 382.045C1339.01 388.747 1336.73 396.612 1337.92 405.445C1338.11 406.876 1338.48 408.289 1338.87 409.687C1339.02 410.259 1338.94 410.6 1338.52 411.017C1331.87 417.621 1325.23 424.243 1318.6 430.866C1313.98 435.474 1309.37 440.082 1304.77 444.712C1304.47 445.013 1304.24 445.534 1304.24 445.954C1304.21 451.61 1304.23 457.265 1304.21 462.923C1304.21 463.612 1304.38 463.844 1305.1 463.833C1307.9 463.793 1310.7 463.815 1313.51 463.815H1313.5ZM1363 395.044C1363.02 389.599 1367.39 385.226 1372.81 385.215C1378.1 385.204 1382.56 389.646 1382.58 394.953C1382.6 400.467 1378.18 404.807 1372.56 404.807C1367.41 404.807 1362.98 400.282 1363 395.047V395.044Z" fill="white"/>
</mask>
<g mask="url(#mask2_2142_368)">
<rect width="29.3653" height="119.684" transform="matrix(-0.656374 0.754435 -0.715431 -0.698683 1379.03 449.445)" fill="#1F32D6" fill-opacity="0.3"/>
<rect width="41.3022" height="119.684" transform="matrix(-0.656374 0.754435 -0.715431 -0.698683 1355.83 467.495)" fill="#1F32D6"/>
<rect width="59.5696" height="119.684" transform="matrix(-0.656374 0.754435 -0.715431 -0.698683 1418.13 404.502)" fill="#1F32D6" fill-opacity="0.6"/>
</g>
<path d="M856.157 223.664C858.503 223.664 860.562 224.123 862.333 225.04C864.125 225.957 865.501 227.269 866.461 228.976C867.442 230.661 867.933 232.624 867.933 234.864C867.933 237.104 867.442 239.067 866.461 240.752C865.501 242.416 864.125 243.707 862.333 244.624C860.562 245.541 858.503 246 856.157 246H848.349V223.664H856.157ZM855.997 242.192C858.343 242.192 860.157 241.552 861.437 240.272C862.717 238.992 863.357 237.189 863.357 234.864C863.357 232.539 862.717 230.725 861.437 229.424C860.157 228.101 858.343 227.44 855.997 227.44H852.829V242.192H855.997ZM873.558 226.16C872.769 226.16 872.107 225.915 871.574 225.424C871.062 224.912 870.806 224.283 870.806 223.536C870.806 222.789 871.062 222.171 871.574 221.68C872.107 221.168 872.769 220.912 873.558 220.912C874.347 220.912 874.998 221.168 875.51 221.68C876.043 222.171 876.31 222.789 876.31 223.536C876.31 224.283 876.043 224.912 875.51 225.424C874.998 225.915 874.347 226.16 873.558 226.16ZM875.766 228.272V246H871.286V228.272H875.766ZM886.976 246.288C885.526 246.288 884.224 246.032 883.072 245.52C881.92 244.987 881.003 244.272 880.32 243.376C879.659 242.48 879.296 241.488 879.232 240.4H883.744C883.83 241.083 884.16 241.648 884.736 242.096C885.334 242.544 886.07 242.768 886.944 242.768C887.798 242.768 888.459 242.597 888.928 242.256C889.419 241.915 889.664 241.477 889.664 240.944C889.664 240.368 889.366 239.941 888.768 239.664C888.192 239.365 887.264 239.045 885.984 238.704C884.662 238.384 883.574 238.053 882.72 237.712C881.888 237.371 881.163 236.848 880.544 236.144C879.947 235.44 879.648 234.491 879.648 233.296C879.648 232.315 879.926 231.419 880.48 230.608C881.056 229.797 881.867 229.157 882.912 228.688C883.979 228.219 885.227 227.984 886.656 227.984C888.768 227.984 890.454 228.517 891.712 229.584C892.971 230.629 893.664 232.048 893.792 233.84H889.504C889.44 233.136 889.142 232.581 888.608 232.176C888.096 231.749 887.403 231.536 886.528 231.536C885.718 231.536 885.088 231.685 884.64 231.984C884.214 232.283 884 232.699 884 233.232C884 233.829 884.299 234.288 884.896 234.608C885.494 234.907 886.422 235.216 887.68 235.536C888.96 235.856 890.016 236.187 890.848 236.528C891.68 236.869 892.395 237.403 892.992 238.128C893.611 238.832 893.931 239.771 893.952 240.944C893.952 241.968 893.664 242.885 893.088 243.696C892.534 244.507 891.723 245.147 890.656 245.616C889.611 246.064 888.384 246.288 886.976 246.288ZM902.846 231.952V240.528C902.846 241.125 902.985 241.563 903.262 241.84C903.561 242.096 904.051 242.224 904.734 242.224H906.814V246H903.998C900.222 246 898.334 244.165 898.334 240.496V231.952H896.222V228.272H898.334V223.888H902.846V228.272H906.814V231.952H902.846ZM914.516 231.024C915.092 230.085 915.839 229.349 916.756 228.816C917.695 228.283 918.761 228.016 919.956 228.016V232.72H918.772C917.364 232.72 916.297 233.051 915.572 233.712C914.868 234.373 914.516 235.525 914.516 237.168V246H910.036V228.272H914.516V231.024ZM925.246 226.16C924.456 226.16 923.795 225.915 923.262 225.424C922.75 224.912 922.494 224.283 922.494 223.536C922.494 222.789 922.75 222.171 923.262 221.68C923.795 221.168 924.456 220.912 925.246 220.912C926.035 220.912 926.686 221.168 927.198 221.68C927.731 222.171 927.998 222.789 927.998 223.536C927.998 224.283 927.731 224.912 927.198 225.424C926.686 225.915 926.035 226.16 925.246 226.16ZM927.454 228.272V246H922.974V228.272H927.454ZM936.36 230.864C936.936 230.011 937.725 229.317 938.728 228.784C939.752 228.251 940.915 227.984 942.216 227.984C943.731 227.984 945.096 228.357 946.312 229.104C947.549 229.851 948.52 230.917 949.224 232.304C949.949 233.669 950.312 235.259 950.312 237.072C950.312 238.885 949.949 240.496 949.224 241.904C948.52 243.291 947.549 244.368 946.312 245.136C945.096 245.904 943.731 246.288 942.216 246.288C940.893 246.288 939.731 246.032 938.728 245.52C937.747 244.987 936.957 244.304 936.36 243.472V246H931.88V222.32H936.36V230.864ZM945.736 237.072C945.736 236.005 945.512 235.088 945.064 234.32C944.637 233.531 944.061 232.933 943.336 232.528C942.632 232.123 941.864 231.92 941.032 231.92C940.221 231.92 939.453 232.133 938.728 232.56C938.024 232.965 937.448 233.563 937 234.352C936.573 235.141 936.36 236.069 936.36 237.136C936.36 238.203 936.573 239.131 937 239.92C937.448 240.709 938.024 241.317 938.728 241.744C939.453 242.149 940.221 242.352 941.032 242.352C941.864 242.352 942.632 242.139 943.336 241.712C944.061 241.285 944.637 240.677 945.064 239.888C945.512 239.099 945.736 238.16 945.736 237.072ZM970.303 228.272V246H965.791V243.76C965.215 244.528 964.458 245.136 963.519 245.584C962.602 246.011 961.599 246.224 960.511 246.224C959.125 246.224 957.898 245.936 956.831 245.36C955.765 244.763 954.922 243.899 954.303 242.768C953.706 241.616 953.407 240.251 953.407 238.672V228.272H957.887V238.032C957.887 239.44 958.239 240.528 958.943 241.296C959.647 242.043 960.607 242.416 961.823 242.416C963.061 242.416 964.031 242.043 964.735 241.296C965.439 240.528 965.791 239.44 965.791 238.032V228.272H970.303ZM979.94 231.952V240.528C979.94 241.125 980.078 241.563 980.356 241.84C980.654 242.096 981.145 242.224 981.828 242.224H983.908V246H981.092C977.316 246 975.428 244.165 975.428 240.496V231.952H973.316V228.272H975.428V223.888H979.94V228.272H983.908V231.952H979.94ZM1003.61 236.752C1003.61 237.392 1003.57 237.968 1003.48 238.48H990.522C990.629 239.76 991.077 240.763 991.866 241.488C992.655 242.213 993.626 242.576 994.778 242.576C996.442 242.576 997.626 241.861 998.33 240.432H1003.16C1002.65 242.139 1001.67 243.547 1000.22 244.656C998.767 245.744 996.986 246.288 994.874 246.288C993.167 246.288 991.631 245.915 990.266 245.168C988.922 244.4 987.866 243.323 987.098 241.936C986.351 240.549 985.978 238.949 985.978 237.136C985.978 235.301 986.351 233.691 987.098 232.304C987.845 230.917 988.89 229.851 990.234 229.104C991.578 228.357 993.125 227.984 994.874 227.984C996.559 227.984 998.063 228.347 999.386 229.072C1000.73 229.797 1001.76 230.832 1002.49 232.176C1003.24 233.499 1003.61 235.024 1003.61 236.752ZM998.97 235.472C998.949 234.32 998.533 233.403 997.722 232.72C996.911 232.016 995.919 231.664 994.746 231.664C993.637 231.664 992.698 232.005 991.93 232.688C991.183 233.349 990.725 234.277 990.554 235.472H998.97ZM1005.73 237.072C1005.73 235.28 1006.08 233.691 1006.78 232.304C1007.51 230.917 1008.49 229.851 1009.73 229.104C1010.97 228.357 1012.34 227.984 1013.86 227.984C1015.01 227.984 1016.11 228.24 1017.15 228.752C1018.2 229.243 1019.03 229.904 1019.65 230.736V222.32H1024.19V246H1019.65V243.376C1019.09 244.251 1018.31 244.955 1017.31 245.488C1016.31 246.021 1015.15 246.288 1013.82 246.288C1012.33 246.288 1010.97 245.904 1009.73 245.136C1008.49 244.368 1007.51 243.291 1006.78 241.904C1006.08 240.496 1005.73 238.885 1005.73 237.072ZM1019.68 237.136C1019.68 236.048 1019.47 235.12 1019.04 234.352C1018.61 233.563 1018.04 232.965 1017.31 232.56C1016.59 232.133 1015.81 231.92 1014.98 231.92C1014.14 231.92 1013.38 232.123 1012.67 232.528C1011.97 232.933 1011.39 233.531 1010.94 234.32C1010.52 235.088 1010.3 236.005 1010.3 237.072C1010.3 238.139 1010.52 239.077 1010.94 239.888C1011.39 240.677 1011.97 241.285 1012.67 241.712C1013.4 242.139 1014.17 242.352 1014.98 242.352C1015.81 242.352 1016.59 242.149 1017.31 241.744C1018.04 241.317 1018.61 240.72 1019.04 239.952C1019.47 239.163 1019.68 238.224 1019.68 237.136ZM1060.54 223.664V246H1056.06V231.472L1050.08 246H1046.69L1040.67 231.472V246H1036.19V223.664H1041.28L1048.38 240.272L1055.49 223.664H1060.54ZM1081.26 230.576C1081.26 231.771 1080.97 232.891 1080.4 233.936C1079.84 234.981 1078.96 235.824 1077.74 236.464C1076.55 237.104 1075.03 237.424 1073.2 237.424H1069.45V246H1064.97V223.664H1073.2C1074.93 223.664 1076.4 223.963 1077.61 224.56C1078.83 225.157 1079.74 225.979 1080.33 227.024C1080.95 228.069 1081.26 229.253 1081.26 230.576ZM1073.01 233.808C1074.24 233.808 1075.16 233.531 1075.76 232.976C1076.35 232.4 1076.65 231.6 1076.65 230.576C1076.65 228.4 1075.44 227.312 1073.01 227.312H1069.45V233.808H1073.01ZM1083.35 234.8C1083.35 232.603 1083.85 230.64 1084.83 228.912C1085.83 227.163 1087.18 225.808 1088.89 224.848C1090.62 223.867 1092.55 223.376 1094.68 223.376C1097.18 223.376 1099.37 224.016 1101.24 225.296C1103.12 226.576 1104.43 228.347 1105.18 230.608H1100.03C1099.51 229.541 1098.79 228.741 1097.85 228.208C1096.93 227.675 1095.87 227.408 1094.65 227.408C1093.35 227.408 1092.19 227.717 1091.16 228.336C1090.16 228.933 1089.37 229.787 1088.79 230.896C1088.24 232.005 1087.96 233.307 1087.96 234.8C1087.96 236.272 1088.24 237.573 1088.79 238.704C1089.37 239.813 1090.16 240.677 1091.16 241.296C1092.19 241.893 1093.35 242.192 1094.65 242.192C1095.87 242.192 1096.93 241.925 1097.85 241.392C1098.79 240.837 1099.51 240.027 1100.03 238.96H1105.18C1104.43 241.243 1103.12 243.024 1101.24 244.304C1099.39 245.563 1097.2 246.192 1094.68 246.192C1092.55 246.192 1090.62 245.712 1088.89 244.752C1087.18 243.771 1085.83 242.416 1084.83 240.688C1083.85 238.96 1083.35 236.997 1083.35 234.8ZM1129.24 246L1121.11 236.048V246H1116.63V223.664H1121.11V233.68L1129.24 223.664H1134.65L1125.43 234.736L1134.9 246H1129.24ZM1154.33 236.752C1154.33 237.392 1154.29 237.968 1154.2 238.48H1141.24C1141.35 239.76 1141.8 240.763 1142.58 241.488C1143.37 242.213 1144.34 242.576 1145.5 242.576C1147.16 242.576 1148.34 241.861 1149.05 240.432H1153.88C1153.37 242.139 1152.39 243.547 1150.94 244.656C1149.49 245.744 1147.7 246.288 1145.59 246.288C1143.89 246.288 1142.35 245.915 1140.98 245.168C1139.64 244.4 1138.58 243.323 1137.82 241.936C1137.07 240.549 1136.7 238.949 1136.7 237.136C1136.7 235.301 1137.07 233.691 1137.82 232.304C1138.56 230.917 1139.61 229.851 1140.95 229.104C1142.3 228.357 1143.84 227.984 1145.59 227.984C1147.28 227.984 1148.78 228.347 1150.1 229.072C1151.45 229.797 1152.48 230.832 1153.21 232.176C1153.96 233.499 1154.33 235.024 1154.33 236.752ZM1149.69 235.472C1149.67 234.32 1149.25 233.403 1148.44 232.72C1147.63 232.016 1146.64 231.664 1145.46 231.664C1144.36 231.664 1143.42 232.005 1142.65 232.688C1141.9 233.349 1141.44 234.277 1141.27 235.472H1149.69ZM1174.56 228.272L1163.58 254.384H1158.81L1162.65 245.552L1155.55 228.272H1160.57L1165.15 240.656L1169.79 228.272H1174.56ZM1192.31 246.224C1190.75 246.224 1189.35 245.957 1188.09 245.424C1186.85 244.891 1185.87 244.123 1185.14 243.12C1184.42 242.117 1184.04 240.933 1184.02 239.568H1188.82C1188.89 240.485 1189.21 241.211 1189.78 241.744C1190.38 242.277 1191.19 242.544 1192.21 242.544C1193.26 242.544 1194.08 242.299 1194.68 241.808C1195.28 241.296 1195.57 240.635 1195.57 239.824C1195.57 239.163 1195.37 238.619 1194.97 238.192C1194.56 237.765 1194.05 237.435 1193.43 237.2C1192.83 236.944 1192 236.667 1190.93 236.368C1189.48 235.941 1188.3 235.525 1187.38 235.12C1186.49 234.693 1185.71 234.064 1185.05 233.232C1184.41 232.379 1184.09 231.248 1184.09 229.84C1184.09 228.517 1184.42 227.365 1185.08 226.384C1185.74 225.403 1186.67 224.656 1187.86 224.144C1189.06 223.611 1190.42 223.344 1191.96 223.344C1194.26 223.344 1196.13 223.909 1197.56 225.04C1199.01 226.149 1199.81 227.707 1199.96 229.712H1195.03C1194.99 228.944 1194.66 228.315 1194.04 227.824C1193.44 227.312 1192.64 227.056 1191.64 227.056C1190.76 227.056 1190.06 227.28 1189.53 227.728C1189.01 228.176 1188.76 228.827 1188.76 229.68C1188.76 230.277 1188.95 230.779 1189.33 231.184C1189.74 231.568 1190.23 231.888 1190.81 232.144C1191.4 232.379 1192.24 232.656 1193.3 232.976C1194.75 233.403 1195.94 233.829 1196.85 234.256C1197.77 234.683 1198.56 235.323 1199.22 236.176C1199.88 237.029 1200.21 238.149 1200.21 239.536C1200.21 240.731 1199.91 241.84 1199.29 242.864C1198.67 243.888 1197.76 244.709 1196.57 245.328C1195.37 245.925 1193.95 246.224 1192.31 246.224ZM1214.08 228.016C1215.43 228.016 1216.62 228.315 1217.67 228.912C1218.71 229.488 1219.52 230.352 1220.1 231.504C1220.7 232.635 1220.99 234 1220.99 235.6V246H1216.51V236.208C1216.51 234.8 1216.16 233.723 1215.46 232.976C1214.75 232.208 1213.79 231.824 1212.58 231.824C1211.34 231.824 1210.36 232.208 1209.63 232.976C1208.93 233.723 1208.58 234.8 1208.58 236.208V246H1204.1V222.32H1208.58V230.48C1209.15 229.712 1209.92 229.115 1210.88 228.688C1211.84 228.24 1212.91 228.016 1214.08 228.016ZM1224.1 237.072C1224.1 235.28 1224.45 233.691 1225.16 232.304C1225.88 230.917 1226.85 229.851 1228.07 229.104C1229.31 228.357 1230.68 227.984 1232.2 227.984C1233.52 227.984 1234.67 228.251 1235.65 228.784C1236.66 229.317 1237.46 229.989 1238.05 230.8V228.272H1242.57V246H1238.05V243.408C1237.48 244.24 1236.68 244.933 1235.65 245.488C1234.65 246.021 1233.49 246.288 1232.17 246.288C1230.67 246.288 1229.31 245.904 1228.07 245.136C1226.85 244.368 1225.88 243.291 1225.16 241.904C1224.45 240.496 1224.1 238.885 1224.1 237.072ZM1238.05 237.136C1238.05 236.048 1237.84 235.12 1237.41 234.352C1236.99 233.563 1236.41 232.965 1235.69 232.56C1234.96 232.133 1234.18 231.92 1233.35 231.92C1232.52 231.92 1231.75 232.123 1231.05 232.528C1230.34 232.933 1229.77 233.531 1229.32 234.32C1228.89 235.088 1228.68 236.005 1228.68 237.072C1228.68 238.139 1228.89 239.077 1229.32 239.888C1229.77 240.677 1230.34 241.285 1231.05 241.712C1231.77 242.139 1232.54 242.352 1233.35 242.352C1234.18 242.352 1234.96 242.149 1235.69 241.744C1236.41 241.317 1236.99 240.72 1237.41 239.952C1237.84 239.163 1238.05 238.224 1238.05 237.136ZM1251.42 231.024C1252 230.085 1252.75 229.349 1253.66 228.816C1254.6 228.283 1255.67 228.016 1256.86 228.016V232.72H1255.68C1254.27 232.72 1253.2 233.051 1252.48 233.712C1251.77 234.373 1251.42 235.525 1251.42 237.168V246H1246.94V228.272H1251.42V231.024ZM1276.36 236.752C1276.36 237.392 1276.32 237.968 1276.23 238.48H1263.27C1263.38 239.76 1263.83 240.763 1264.62 241.488C1265.41 242.213 1266.38 242.576 1267.53 242.576C1269.19 242.576 1270.38 241.861 1271.08 240.432H1275.91C1275.4 242.139 1274.42 243.547 1272.97 244.656C1271.52 245.744 1269.74 246.288 1267.62 246.288C1265.92 246.288 1264.38 245.915 1263.02 245.168C1261.67 244.4 1260.62 243.323 1259.85 241.936C1259.1 240.549 1258.73 238.949 1258.73 237.136C1258.73 235.301 1259.1 233.691 1259.85 232.304C1260.59 230.917 1261.64 229.851 1262.98 229.104C1264.33 228.357 1265.87 227.984 1267.62 227.984C1269.31 227.984 1270.81 228.347 1272.14 229.072C1273.48 229.797 1274.51 230.832 1275.24 232.176C1275.99 233.499 1276.36 235.024 1276.36 236.752ZM1271.72 235.472C1271.7 234.32 1271.28 233.403 1270.47 232.72C1269.66 232.016 1268.67 231.664 1267.5 231.664C1266.39 231.664 1265.45 232.005 1264.68 232.688C1263.93 233.349 1263.47 234.277 1263.3 235.472H1271.72ZM1286.41 246.288C1284.96 246.288 1283.66 246.032 1282.51 245.52C1281.36 244.987 1280.44 244.272 1279.76 243.376C1279.1 242.48 1278.73 241.488 1278.67 240.4H1283.18C1283.27 241.083 1283.6 241.648 1284.17 242.096C1284.77 242.544 1285.51 242.768 1286.38 242.768C1287.24 242.768 1287.9 242.597 1288.37 242.256C1288.86 241.915 1289.1 241.477 1289.1 240.944C1289.1 240.368 1288.8 239.941 1288.21 239.664C1287.63 239.365 1286.7 239.045 1285.42 238.704C1284.1 238.384 1283.01 238.053 1282.16 237.712C1281.33 237.371 1280.6 236.848 1279.98 236.144C1279.38 235.44 1279.09 234.491 1279.09 233.296C1279.09 232.315 1279.36 231.419 1279.92 230.608C1280.49 229.797 1281.3 229.157 1282.35 228.688C1283.42 228.219 1284.66 227.984 1286.09 227.984C1288.21 227.984 1289.89 228.517 1291.15 229.584C1292.41 230.629 1293.1 232.048 1293.23 233.84H1288.94C1288.88 233.136 1288.58 232.581 1288.05 232.176C1287.53 231.749 1286.84 231.536 1285.97 231.536C1285.16 231.536 1284.53 231.685 1284.08 231.984C1283.65 232.283 1283.44 232.699 1283.44 233.232C1283.44 233.829 1283.74 234.288 1284.33 234.608C1284.93 234.907 1285.86 235.216 1287.12 235.536C1288.4 235.856 1289.45 236.187 1290.29 236.528C1291.12 236.869 1291.83 237.403 1292.43 238.128C1293.05 238.832 1293.37 239.771 1293.39 240.944C1293.39 241.968 1293.1 242.885 1292.53 243.696C1291.97 244.507 1291.16 245.147 1290.09 245.616C1289.05 246.064 1287.82 246.288 1286.41 246.288Z" fill="#1F32D6"/>
</svg>
