<svg width="110" height="32" viewBox="0 0 110 32" fill="none" xmlns="http://www.w3.org/2000/svg">
<path d="M0.647009 7.76411C0.647009 3.83344 3.83344 0.647009 7.76411 0.647009H101.324C105.255 0.647009 108.441 3.83345 108.441 7.76411V24.2359C108.441 28.1666 105.255 31.353 101.324 31.353H7.76412C3.83345 31.353 0.647009 28.1666 0.647009 24.2359V7.76411Z" stroke="#1F32D6" stroke-width="1.29402"/>
<path d="M32.674 14.1128H19.0868" stroke="#1F32D6" stroke-width="1.72536" stroke-linecap="round" stroke-linejoin="round"/>
<path d="M28.145 9.58377L32.6741 14.1128" stroke="#1F32D6" stroke-width="1.72536" stroke-linecap="round" stroke-linejoin="round"/>
<path d="M19.3885 17.8871H32.9758" stroke="#1F32D6" stroke-width="1.72536" stroke-linecap="round" stroke-linejoin="round"/>
<path d="M19.3885 17.8871L23.9176 22.4161" stroke="#1F32D6" stroke-width="1.72536" stroke-linecap="round" stroke-linejoin="round"/>
<path d="M46.6767 21.2848C45.9521 21.2848 45.2999 21.1606 44.7202 20.9121C44.1405 20.6533 43.685 20.291 43.3537 19.8251C43.0224 19.3593 42.8568 18.8158 42.8568 18.1947H44.7512C44.7927 18.6605 44.9738 19.0435 45.2947 19.3438C45.626 19.644 46.0867 19.7941 46.6767 19.7941C47.2875 19.7941 47.7637 19.6491 48.1053 19.3593C48.447 19.0591 48.6178 18.676 48.6178 18.2102C48.6178 17.8479 48.5091 17.5528 48.2917 17.3251C48.0846 17.0973 47.8207 16.9214 47.4997 16.7971C47.1892 16.6729 46.7544 16.5383 46.1954 16.3934C45.4914 16.2071 44.9169 16.0207 44.4717 15.8344C44.0369 15.6377 43.6643 15.3375 43.3537 14.9337C43.0431 14.53 42.8879 13.9917 42.8879 13.3188C42.8879 12.6977 43.0431 12.1542 43.3537 11.6883C43.6643 11.2225 44.0991 10.8653 44.6581 10.6169C45.2171 10.3684 45.8641 10.2442 46.5991 10.2442C47.6447 10.2442 48.4987 10.5082 49.1613 11.0362C49.8342 11.5538 50.2068 12.2681 50.2793 13.1791H48.3227C48.2917 12.7857 48.1053 12.4492 47.7637 12.1697C47.4221 11.8902 46.9718 11.7505 46.4128 11.7505C45.9055 11.7505 45.4914 11.8799 45.1705 12.1387C44.8496 12.3975 44.6891 12.7701 44.6891 13.2567C44.6891 13.588 44.7875 13.8623 44.9842 14.0797C45.1912 14.2867 45.45 14.4524 45.7606 14.5766C46.0711 14.7008 46.4956 14.8354 47.0339 14.9803C47.7482 15.177 48.3279 15.3737 48.7731 15.5704C49.2285 15.7671 49.6116 16.0725 49.9221 16.4866C50.2431 16.8903 50.4035 17.4338 50.4035 18.117C50.4035 18.6657 50.2534 19.1833 49.9532 19.6698C49.6633 20.1564 49.2337 20.5498 48.6644 20.85C48.1053 21.1399 47.4428 21.2848 46.6767 21.2848ZM63.9832 12.62L61.3279 21.1761H59.4645L57.7408 14.8561L56.0172 21.1761H54.1538L51.483 12.62H53.2842L55.07 19.499L56.8868 12.62H58.7347L60.4738 19.468L62.244 12.62H63.9832ZM66.2068 11.4865C65.8858 11.4865 65.6167 11.3778 65.3993 11.1604C65.1819 10.943 65.0732 10.6738 65.0732 10.3529C65.0732 10.032 65.1819 9.76284 65.3993 9.54545C65.6167 9.32805 65.8858 9.21935 66.2068 9.21935C66.5173 9.21935 66.7813 9.32805 66.9987 9.54545C67.2161 9.76284 67.3248 10.032 67.3248 10.3529C67.3248 10.6738 67.2161 10.943 66.9987 11.1604C66.7813 11.3778 66.5173 11.4865 66.2068 11.4865ZM67.0763 12.62V21.1761H65.3061V12.62H67.0763ZM71.4657 14.0642V18.8003C71.4657 19.1212 71.5382 19.3541 71.6831 19.499C71.8384 19.6336 72.0972 19.7009 72.4595 19.7009H73.5465V21.1761H72.149C71.3519 21.1761 70.7411 20.9897 70.3166 20.6171C69.8922 20.2444 69.68 19.6388 69.68 18.8003V14.0642H68.6707V12.62H69.68V10.4927H71.4657V12.62H73.5465V14.0642H71.4657ZM74.588 16.8903C74.588 16.0104 74.764 15.2391 75.116 14.5766C75.4783 13.9037 75.9752 13.3861 76.6067 13.0238C77.2381 12.6614 77.9628 12.4803 78.7806 12.4803C79.8158 12.4803 80.6699 12.7287 81.3428 13.2256C82.026 13.7122 82.4867 14.411 82.7248 15.3219H80.8148C80.6595 14.8975 80.4111 14.5662 80.0695 14.3281C79.7278 14.09 79.2982 13.971 78.7806 13.971C78.056 13.971 77.4762 14.2298 77.0415 14.7474C76.617 15.2547 76.4048 15.969 76.4048 16.8903C76.4048 17.8116 76.617 18.5311 77.0415 19.0487C77.4762 19.5663 78.056 19.8251 78.7806 19.8251C79.8055 19.8251 80.4835 19.3748 80.8148 18.4742H82.7248C82.4763 19.3438 82.0105 20.0374 81.3272 20.555C80.644 21.0622 79.7951 21.3158 78.7806 21.3158C77.9628 21.3158 77.2381 21.1347 76.6067 20.7724C75.9752 20.3997 75.4783 19.8821 75.116 19.2195C74.764 18.5466 74.588 17.7702 74.588 16.8903ZM88.9145 12.4803C89.5667 12.4803 90.1464 12.62 90.6536 12.8995C91.1713 13.1791 91.575 13.5931 91.8648 14.1418C92.1651 14.6905 92.3152 15.353 92.3152 16.1294V21.1761H90.5605V16.3934C90.5605 15.6273 90.369 15.0424 89.9859 14.6387C89.6029 14.2246 89.0801 14.0176 88.4176 14.0176C87.755 14.0176 87.2271 14.2246 86.8337 14.6387C86.4507 15.0424 86.2592 15.6273 86.2592 16.3934V21.1761H84.4889V9.6852H86.2592V13.6138C86.5594 13.2515 86.9372 12.972 87.3927 12.7753C87.8586 12.5786 88.3658 12.4803 88.9145 12.4803Z" fill="#1F32D6"/>
</svg>
