<svg width="1600" height="754" viewBox="0 0 1600 754" fill="none" xmlns="http://www.w3.org/2000/svg">
<rect width="1600" height="754" fill="white"/>
<g clip-path="url(#clip0_2199_2200)">
<rect x="8" y="8" width="1584" height="738" rx="24" fill="#1F32D6" fill-opacity="0.08"/>
<path d="M582.767 95.664V99.28H576.815V118H572.335V99.28H566.383V95.664H582.767ZM596.02 100.016C597.364 100.016 598.559 100.315 599.604 100.912C600.649 101.488 601.46 102.352 602.036 103.504C602.633 104.635 602.932 106 602.932 107.6V118H598.452V108.208C598.452 106.8 598.1 105.723 597.396 104.976C596.692 104.208 595.732 103.824 594.516 103.824C593.279 103.824 592.297 104.208 591.572 104.976C590.868 105.723 590.516 106.8 590.516 108.208V118H586.036V94.32H590.516V102.48C591.092 101.712 591.86 101.115 592.82 100.688C593.78 100.24 594.847 100.016 596.02 100.016ZM611.672 103.024C612.248 102.085 612.995 101.349 613.912 100.816C614.851 100.283 615.918 100.016 617.112 100.016V104.72H615.928C614.52 104.72 613.454 105.051 612.728 105.712C612.024 106.373 611.672 107.525 611.672 109.168V118H607.192V100.272H611.672V103.024ZM636.61 108.752C636.61 109.392 636.567 109.968 636.482 110.48H623.522C623.629 111.76 624.077 112.763 624.866 113.488C625.655 114.213 626.626 114.576 627.778 114.576C629.442 114.576 630.626 113.861 631.33 112.432H636.162C635.65 114.139 634.669 115.547 633.218 116.656C631.767 117.744 629.986 118.288 627.874 118.288C626.167 118.288 624.631 117.915 623.266 117.168C621.922 116.4 620.866 115.323 620.098 113.936C619.351 112.549 618.978 110.949 618.978 109.136C618.978 107.301 619.351 105.691 620.098 104.304C620.845 102.917 621.89 101.851 623.234 101.104C624.578 100.357 626.125 99.984 627.874 99.984C629.559 99.984 631.063 100.347 632.386 101.072C633.73 101.797 634.765 102.832 635.49 104.176C636.237 105.499 636.61 107.024 636.61 108.752ZM631.97 107.472C631.949 106.32 631.533 105.403 630.722 104.72C629.911 104.016 628.919 103.664 627.746 103.664C626.637 103.664 625.698 104.005 624.93 104.688C624.183 105.349 623.725 106.277 623.554 107.472H631.97ZM646.664 118.288C645.213 118.288 643.912 118.032 642.76 117.52C641.608 116.987 640.691 116.272 640.008 115.376C639.347 114.48 638.984 113.488 638.92 112.4H643.432C643.517 113.083 643.848 113.648 644.424 114.096C645.021 114.544 645.757 114.768 646.632 114.768C647.485 114.768 648.147 114.597 648.616 114.256C649.107 113.915 649.352 113.477 649.352 112.944C649.352 112.368 649.053 111.941 648.456 111.664C647.88 111.365 646.952 111.045 645.672 110.704C644.349 110.384 643.261 110.053 642.408 109.712C641.576 109.371 640.851 108.848 640.232 108.144C639.635 107.44 639.336 106.491 639.336 105.296C639.336 104.315 639.613 103.419 640.168 102.608C640.744 101.797 641.555 101.157 642.6 100.688C643.667 100.219 644.915 99.984 646.344 99.984C648.456 99.984 650.141 100.517 651.4 101.584C652.659 102.629 653.352 104.048 653.48 105.84H649.192C649.128 105.136 648.829 104.581 648.296 104.176C647.784 103.749 647.091 103.536 646.216 103.536C645.405 103.536 644.776 103.685 644.328 103.984C643.901 104.283 643.688 104.699 643.688 105.232C643.688 105.829 643.987 106.288 644.584 106.608C645.181 106.907 646.109 107.216 647.368 107.536C648.648 107.856 649.704 108.187 650.536 108.528C651.368 108.869 652.083 109.403 652.68 110.128C653.299 110.832 653.619 111.771 653.64 112.944C653.64 113.968 653.352 114.885 652.776 115.696C652.221 116.507 651.411 117.147 650.344 117.616C649.299 118.064 648.072 118.288 646.664 118.288ZM667.301 100.016C668.645 100.016 669.84 100.315 670.885 100.912C671.931 101.488 672.741 102.352 673.317 103.504C673.915 104.635 674.213 106 674.213 107.6V118H669.733V108.208C669.733 106.8 669.381 105.723 668.677 104.976C667.973 104.208 667.013 103.824 665.797 103.824C664.56 103.824 663.579 104.208 662.853 104.976C662.149 105.723 661.797 106.8 661.797 108.208V118H657.317V94.32H661.797V102.48C662.373 101.712 663.141 101.115 664.101 100.688C665.061 100.24 666.128 100.016 667.301 100.016ZM686.346 118.288C684.639 118.288 683.103 117.915 681.738 117.168C680.372 116.4 679.295 115.323 678.506 113.936C677.738 112.549 677.354 110.949 677.354 109.136C677.354 107.323 677.748 105.723 678.538 104.336C679.348 102.949 680.447 101.883 681.834 101.136C683.22 100.368 684.767 99.984 686.474 99.984C688.18 99.984 689.727 100.368 691.114 101.136C692.5 101.883 693.588 102.949 694.378 104.336C695.188 105.723 695.594 107.323 695.594 109.136C695.594 110.949 695.178 112.549 694.346 113.936C693.535 115.323 692.426 116.4 691.018 117.168C689.631 117.915 688.074 118.288 686.346 118.288ZM686.346 114.384C687.156 114.384 687.914 114.192 688.618 113.808C689.343 113.403 689.919 112.805 690.346 112.016C690.772 111.227 690.986 110.267 690.986 109.136C690.986 107.451 690.538 106.16 689.642 105.264C688.767 104.347 687.69 103.888 686.41 103.888C685.13 103.888 684.052 104.347 683.178 105.264C682.324 106.16 681.898 107.451 681.898 109.136C681.898 110.821 682.314 112.123 683.146 113.04C683.999 113.936 685.066 114.384 686.346 114.384ZM703.36 94.32V118H698.88V94.32H703.36ZM706.634 109.072C706.634 107.28 706.986 105.691 707.69 104.304C708.415 102.917 709.397 101.851 710.634 101.104C711.871 100.357 713.247 99.984 714.762 99.984C715.914 99.984 717.013 100.24 718.058 100.752C719.103 101.243 719.935 101.904 720.554 102.736V94.32H725.098V118H720.554V115.376C719.999 116.251 719.221 116.955 718.218 117.488C717.215 118.021 716.053 118.288 714.73 118.288C713.237 118.288 711.871 117.904 710.634 117.136C709.397 116.368 708.415 115.291 707.69 113.904C706.986 112.496 706.634 110.885 706.634 109.072ZM720.586 109.136C720.586 108.048 720.373 107.12 719.946 106.352C719.519 105.563 718.943 104.965 718.218 104.56C717.493 104.133 716.714 103.92 715.882 103.92C715.05 103.92 714.282 104.123 713.578 104.528C712.874 104.933 712.298 105.531 711.85 106.32C711.423 107.088 711.21 108.005 711.21 109.072C711.21 110.139 711.423 111.077 711.85 111.888C712.298 112.677 712.874 113.285 713.578 113.712C714.303 114.139 715.071 114.352 715.882 114.352C716.714 114.352 717.493 114.149 718.218 113.744C718.943 113.317 719.519 112.72 719.946 111.952C720.373 111.163 720.586 110.224 720.586 109.136ZM744.811 118.224C743.253 118.224 741.845 117.957 740.587 117.424C739.349 116.891 738.368 116.123 737.643 115.12C736.917 114.117 736.544 112.933 736.523 111.568H741.323C741.387 112.485 741.707 113.211 742.283 113.744C742.88 114.277 743.691 114.544 744.715 114.544C745.76 114.544 746.581 114.299 747.179 113.808C747.776 113.296 748.075 112.635 748.075 111.824C748.075 111.163 747.872 110.619 747.467 110.192C747.061 109.765 746.549 109.435 745.931 109.2C745.333 108.944 744.501 108.667 743.435 108.368C741.984 107.941 740.8 107.525 739.883 107.12C738.987 106.693 738.208 106.064 737.547 105.232C736.907 104.379 736.587 103.248 736.587 101.84C736.587 100.517 736.917 99.3653 737.579 98.384C738.24 97.4027 739.168 96.656 740.363 96.144C741.557 95.6107 742.923 95.344 744.459 95.344C746.763 95.344 748.629 95.9093 750.059 97.04C751.509 98.1493 752.309 99.7067 752.459 101.712H747.531C747.488 100.944 747.157 100.315 746.539 99.824C745.941 99.312 745.141 99.056 744.139 99.056C743.264 99.056 742.56 99.28 742.027 99.728C741.515 100.176 741.259 100.827 741.259 101.68C741.259 102.277 741.451 102.779 741.835 103.184C742.24 103.568 742.731 103.888 743.307 104.144C743.904 104.379 744.736 104.656 745.803 104.976C747.253 105.403 748.437 105.829 749.355 106.256C750.272 106.683 751.061 107.323 751.723 108.176C752.384 109.029 752.715 110.149 752.715 111.536C752.715 112.731 752.405 113.84 751.787 114.864C751.168 115.888 750.261 116.709 749.067 117.328C747.872 117.925 746.453 118.224 744.811 118.224ZM758.871 98.16C758.081 98.16 757.42 97.9147 756.887 97.424C756.375 96.912 756.119 96.2827 756.119 95.536C756.119 94.7893 756.375 94.1707 756.887 93.68C757.42 93.168 758.081 92.912 758.871 92.912C759.66 92.912 760.311 93.168 760.823 93.68C761.356 94.1707 761.623 94.7893 761.623 95.536C761.623 96.2827 761.356 96.912 760.823 97.424C760.311 97.9147 759.66 98.16 758.871 98.16ZM761.079 100.272V118H756.599V100.272H761.079ZM772.449 99.984C773.772 99.984 774.934 100.251 775.937 100.784C776.94 101.296 777.729 101.968 778.305 102.8V100.272H782.817V118.128C782.817 119.771 782.486 121.232 781.825 122.512C781.164 123.813 780.172 124.837 778.849 125.584C777.526 126.352 775.926 126.736 774.049 126.736C771.532 126.736 769.462 126.149 767.841 124.976C766.241 123.803 765.334 122.203 765.121 120.176H769.569C769.804 120.987 770.305 121.627 771.073 122.096C771.862 122.587 772.812 122.832 773.921 122.832C775.222 122.832 776.278 122.437 777.089 121.648C777.9 120.88 778.305 119.707 778.305 118.128V115.376C777.729 116.208 776.929 116.901 775.905 117.456C774.902 118.011 773.75 118.288 772.449 118.288C770.956 118.288 769.59 117.904 768.353 117.136C767.116 116.368 766.134 115.291 765.409 113.904C764.705 112.496 764.353 110.885 764.353 109.072C764.353 107.28 764.705 105.691 765.409 104.304C766.134 102.917 767.105 101.851 768.321 101.104C769.558 100.357 770.934 99.984 772.449 99.984ZM778.305 109.136C778.305 108.048 778.092 107.12 777.665 106.352C777.238 105.563 776.662 104.965 775.937 104.56C775.212 104.133 774.433 103.92 773.601 103.92C772.769 103.92 772.001 104.123 771.297 104.528C770.593 104.933 770.017 105.531 769.569 106.32C769.142 107.088 768.929 108.005 768.929 109.072C768.929 110.139 769.142 111.077 769.569 111.888C770.017 112.677 770.593 113.285 771.297 113.712C772.022 114.139 772.79 114.352 773.601 114.352C774.433 114.352 775.212 114.149 775.937 113.744C776.662 113.317 777.238 112.72 777.665 111.952C778.092 111.163 778.305 110.224 778.305 109.136ZM797.016 100.016C799.128 100.016 800.835 100.688 802.136 102.032C803.438 103.355 804.088 105.211 804.088 107.6V118H799.608V108.208C799.608 106.8 799.256 105.723 798.552 104.976C797.848 104.208 796.888 103.824 795.672 103.824C794.435 103.824 793.454 104.208 792.728 104.976C792.024 105.723 791.672 106.8 791.672 108.208V118H787.192V100.272H791.672V102.48C792.27 101.712 793.027 101.115 793.944 100.688C794.883 100.24 795.907 100.016 797.016 100.016ZM807.197 109.072C807.197 107.28 807.549 105.691 808.253 104.304C808.978 102.917 809.949 101.851 811.165 101.104C812.402 100.357 813.778 99.984 815.293 99.984C816.615 99.984 817.767 100.251 818.749 100.784C819.751 101.317 820.551 101.989 821.149 102.8V100.272H825.661V118H821.149V115.408C820.573 116.24 819.773 116.933 818.749 117.488C817.746 118.021 816.583 118.288 815.261 118.288C813.767 118.288 812.402 117.904 811.165 117.136C809.949 116.368 808.978 115.291 808.253 113.904C807.549 112.496 807.197 110.885 807.197 109.072ZM821.149 109.136C821.149 108.048 820.935 107.12 820.509 106.352C820.082 105.563 819.506 104.965 818.781 104.56C818.055 104.133 817.277 103.92 816.445 103.92C815.613 103.92 814.845 104.123 814.141 104.528C813.437 104.933 812.861 105.531 812.413 106.32C811.986 107.088 811.773 108.005 811.773 109.072C811.773 110.139 811.986 111.077 812.413 111.888C812.861 112.677 813.437 113.285 814.141 113.712C814.866 114.139 815.634 114.352 816.445 114.352C817.277 114.352 818.055 114.149 818.781 113.744C819.506 113.317 820.082 112.72 820.509 111.952C820.935 111.163 821.149 110.224 821.149 109.136ZM835.252 103.952V112.528C835.252 113.125 835.391 113.563 835.668 113.84C835.967 114.096 836.457 114.224 837.14 114.224H839.22V118H836.404C832.628 118 830.74 116.165 830.74 112.496V103.952H828.628V100.272H830.74V95.888H835.252V100.272H839.22V103.952H835.252ZM859.178 100.272V118H854.666V115.76C854.09 116.528 853.333 117.136 852.394 117.584C851.477 118.011 850.474 118.224 849.386 118.224C848 118.224 846.773 117.936 845.706 117.36C844.64 116.763 843.797 115.899 843.178 114.768C842.581 113.616 842.282 112.251 842.282 110.672V100.272H846.762V110.032C846.762 111.44 847.114 112.528 847.818 113.296C848.522 114.043 849.482 114.416 850.698 114.416C851.936 114.416 852.906 114.043 853.61 113.296C854.314 112.528 854.666 111.44 854.666 110.032V100.272H859.178ZM868.079 103.024C868.655 102.085 869.401 101.349 870.319 100.816C871.257 100.283 872.324 100.016 873.519 100.016V104.72H872.335C870.927 104.72 869.86 105.051 869.135 105.712C868.431 106.373 868.079 107.525 868.079 109.168V118H863.599V100.272H868.079V103.024ZM893.016 108.752C893.016 109.392 892.973 109.968 892.888 110.48H879.928C880.035 111.76 880.483 112.763 881.272 113.488C882.061 114.213 883.032 114.576 884.184 114.576C885.848 114.576 887.032 113.861 887.736 112.432H892.568C892.056 114.139 891.075 115.547 889.624 116.656C888.173 117.744 886.392 118.288 884.28 118.288C882.573 118.288 881.037 117.915 879.672 117.168C878.328 116.4 877.272 115.323 876.504 113.936C875.757 112.549 875.384 110.949 875.384 109.136C875.384 107.301 875.757 105.691 876.504 104.304C877.251 102.917 878.296 101.851 879.64 101.104C880.984 100.357 882.531 99.984 884.28 99.984C885.965 99.984 887.469 100.347 888.792 101.072C890.136 101.797 891.171 102.832 891.896 104.176C892.643 105.499 893.016 107.024 893.016 108.752ZM888.376 107.472C888.355 106.32 887.939 105.403 887.128 104.72C886.317 104.016 885.325 103.664 884.152 103.664C883.043 103.664 882.104 104.005 881.336 104.688C880.589 105.349 880.131 106.277 879.96 107.472H888.376ZM911.623 118.224C910.066 118.224 908.658 117.957 907.399 117.424C906.162 116.891 905.18 116.123 904.455 115.12C903.73 114.117 903.356 112.933 903.335 111.568H908.135C908.199 112.485 908.519 113.211 909.095 113.744C909.692 114.277 910.503 114.544 911.527 114.544C912.572 114.544 913.394 114.299 913.991 113.808C914.588 113.296 914.887 112.635 914.887 111.824C914.887 111.163 914.684 110.619 914.279 110.192C913.874 109.765 913.362 109.435 912.743 109.2C912.146 108.944 911.314 108.667 910.247 108.368C908.796 107.941 907.612 107.525 906.695 107.12C905.799 106.693 905.02 106.064 904.359 105.232C903.719 104.379 903.399 103.248 903.399 101.84C903.399 100.517 903.73 99.3653 904.391 98.384C905.052 97.4027 905.98 96.656 907.175 96.144C908.37 95.6107 909.735 95.344 911.271 95.344C913.575 95.344 915.442 95.9093 916.871 97.04C918.322 98.1493 919.122 99.7067 919.271 101.712H914.343C914.3 100.944 913.97 100.315 913.351 99.824C912.754 99.312 911.954 99.056 910.951 99.056C910.076 99.056 909.372 99.28 908.839 99.728C908.327 100.176 908.071 100.827 908.071 101.68C908.071 102.277 908.263 102.779 908.647 103.184C909.052 103.568 909.543 103.888 910.119 104.144C910.716 104.379 911.548 104.656 912.615 104.976C914.066 105.403 915.25 105.829 916.167 106.256C917.084 106.683 917.874 107.323 918.535 108.176C919.196 109.029 919.527 110.149 919.527 111.536C919.527 112.731 919.218 113.84 918.599 114.864C917.98 115.888 917.074 116.709 915.879 117.328C914.684 117.925 913.266 118.224 911.623 118.224ZM922.259 109.136C922.259 107.301 922.632 105.701 923.379 104.336C924.126 102.949 925.16 101.883 926.483 101.136C927.806 100.368 929.32 99.984 931.027 99.984C933.224 99.984 935.038 100.539 936.467 101.648C937.918 102.736 938.888 104.272 939.379 106.256H934.547C934.291 105.488 933.854 104.891 933.235 104.464C932.638 104.016 931.891 103.792 930.995 103.792C929.715 103.792 928.702 104.261 927.955 105.2C927.208 106.117 926.835 107.429 926.835 109.136C926.835 110.821 927.208 112.133 927.955 113.072C928.702 113.989 929.715 114.448 930.995 114.448C932.808 114.448 933.992 113.637 934.547 112.016H939.379C938.888 113.936 937.918 115.461 936.467 116.592C935.016 117.723 933.203 118.288 931.027 118.288C929.32 118.288 927.806 117.915 926.483 117.168C925.16 116.4 924.126 115.333 923.379 113.968C922.632 112.581 922.259 110.971 922.259 109.136ZM952.645 100.016C953.989 100.016 955.184 100.315 956.229 100.912C957.274 101.488 958.085 102.352 958.661 103.504C959.258 104.635 959.557 106 959.557 107.6V118H955.077V108.208C955.077 106.8 954.725 105.723 954.021 104.976C953.317 104.208 952.357 103.824 951.141 103.824C949.904 103.824 948.922 104.208 948.197 104.976C947.493 105.723 947.141 106.8 947.141 108.208V118H942.661V94.32H947.141V102.48C947.717 101.712 948.485 101.115 949.445 100.688C950.405 100.24 951.472 100.016 952.645 100.016ZM980.297 108.752C980.297 109.392 980.255 109.968 980.169 110.48H967.209C967.316 111.76 967.764 112.763 968.553 113.488C969.343 114.213 970.313 114.576 971.465 114.576C973.129 114.576 974.313 113.861 975.017 112.432H979.849C979.337 114.139 978.356 115.547 976.905 116.656C975.455 117.744 973.673 118.288 971.561 118.288C969.855 118.288 968.319 117.915 966.953 117.168C965.609 116.4 964.553 115.323 963.785 113.936C963.039 112.549 962.665 110.949 962.665 109.136C962.665 107.301 963.039 105.691 963.785 104.304C964.532 102.917 965.577 101.851 966.921 101.104C968.265 100.357 969.812 99.984 971.561 99.984C973.247 99.984 974.751 100.347 976.073 101.072C977.417 101.797 978.452 102.832 979.177 104.176C979.924 105.499 980.297 107.024 980.297 108.752ZM975.657 107.472C975.636 106.32 975.22 105.403 974.409 104.72C973.599 104.016 972.607 103.664 971.433 103.664C970.324 103.664 969.385 104.005 968.617 104.688C967.871 105.349 967.412 106.277 967.241 107.472H975.657ZM1005.58 100.016C1007.76 100.016 1009.51 100.688 1010.83 102.032C1012.18 103.355 1012.85 105.211 1012.85 107.6V118H1008.37V108.208C1008.37 106.821 1008.02 105.765 1007.31 105.04C1006.61 104.293 1005.65 103.92 1004.43 103.92C1003.22 103.92 1002.24 104.293 1001.52 105.04C1000.82 105.765 1000.46 106.821 1000.46 108.208V118H995.983V108.208C995.983 106.821 995.631 105.765 994.927 105.04C994.223 104.293 993.263 103.92 992.047 103.92C990.81 103.92 989.829 104.293 989.103 105.04C988.399 105.765 988.047 106.821 988.047 108.208V118H983.567V100.272H988.047V102.416C988.623 101.669 989.359 101.083 990.255 100.656C991.173 100.229 992.175 100.016 993.263 100.016C994.65 100.016 995.887 100.315 996.975 100.912C998.063 101.488 998.906 102.32 999.503 103.408C1000.08 102.384 1000.91 101.563 1002 100.944C1003.11 100.325 1004.3 100.016 1005.58 100.016ZM1033.58 108.752C1033.58 109.392 1033.54 109.968 1033.45 110.48H1020.49C1020.6 111.76 1021.05 112.763 1021.83 113.488C1022.62 114.213 1023.59 114.576 1024.75 114.576C1026.41 114.576 1027.59 113.861 1028.3 112.432H1033.13C1032.62 114.139 1031.64 115.547 1030.19 116.656C1028.74 117.744 1026.95 118.288 1024.84 118.288C1023.14 118.288 1021.6 117.915 1020.23 117.168C1018.89 116.4 1017.83 115.323 1017.07 113.936C1016.32 112.549 1015.95 110.949 1015.95 109.136C1015.95 107.301 1016.32 105.691 1017.07 104.304C1017.81 102.917 1018.86 101.851 1020.2 101.104C1021.55 100.357 1023.09 99.984 1024.84 99.984C1026.53 99.984 1028.03 100.347 1029.35 101.072C1030.7 101.797 1031.73 102.832 1032.46 104.176C1033.21 105.499 1033.58 107.024 1033.58 108.752ZM1028.94 107.472C1028.92 106.32 1028.5 105.403 1027.69 104.72C1026.88 104.016 1025.89 103.664 1024.71 103.664C1023.61 103.664 1022.67 104.005 1021.9 104.688C1021.15 105.349 1020.69 106.277 1020.52 107.472H1028.94Z" fill="#1F32D6"/>
<circle cx="388" cy="386" r="180" fill="white"/>
<mask id="mask0_2199_2200" style="mask-type:alpha" maskUnits="userSpaceOnUse" x="353" y="247" width="174" height="175">
<path fill-rule="evenodd" clip-rule="evenodd" d="M524.428 348.832C527.552 345.708 527.552 340.643 524.428 337.518L437.021 250.111C433.896 246.987 428.831 246.987 425.707 250.111L355.788 320.031C352.663 323.155 352.663 328.22 355.788 331.344L394.192 369.749C394.939 370.496 395.081 371.655 394.538 372.561C394.17 373.174 393.531 373.562 392.839 373.743C391.439 374.11 390.085 374.864 388.953 375.996C385.837 379.112 385.585 383.911 388.388 386.714C391.192 389.518 395.991 389.266 399.107 386.15C400.583 384.675 401.416 382.821 401.586 380.981C401.638 380.424 401.913 379.899 402.393 379.611C403.003 379.245 403.784 379.341 404.287 379.844L443.195 418.751C446.319 421.876 451.384 421.876 454.508 418.751L524.428 348.832Z" fill="white"/>
</mask>
<g mask="url(#mask0_2199_2200)">
<path d="M339.134 455.129C344.194 455.128 349.262 455.127 354.322 455.125C355.789 455.125 356.523 454.366 356.523 452.849C356.525 445.303 356.547 437.756 356.508 430.21C356.502 429.007 356.753 428.546 358.078 428.559C365.862 428.618 373.653 428.562 381.437 428.614C382.646 428.621 382.979 428.268 382.973 427.086C382.934 419.396 382.99 411.707 382.924 404.011C382.911 402.612 383.21 402.13 384.718 402.15C392.454 402.229 400.191 402.166 407.935 402.199C408.926 402.198 409.619 401.913 410.312 401.206C413.791 397.66 417.351 394.188 420.83 390.641C421.523 389.935 422.114 389.785 423.071 390.057C440.541 395.065 456.809 392.439 471.443 381.67C484.29 372.205 491.643 359.297 493.216 343.368C494.911 326.291 489.691 311.403 477.597 299.288C465.38 287.037 450.356 281.858 433.116 283.595C419.042 285.011 407.248 291.188 397.974 301.8C386.987 314.369 382.718 329.117 384.942 345.676C385.301 348.359 386 351.008 386.713 353.63C387.005 354.703 386.848 355.342 386.06 356.123C373.586 368.509 361.139 380.929 348.699 393.348C340.043 401.991 331.387 410.633 322.779 419.316C322.215 419.88 321.78 420.858 321.78 421.646C321.71 432.249 321.755 442.852 321.705 453.462C321.704 454.753 322.023 455.187 323.375 455.167C328.626 455.091 333.883 455.13 339.141 455.129L339.134 455.129ZM431.971 326.164C432.015 315.955 440.208 307.754 450.377 307.731C460.294 307.708 468.647 316.034 468.678 325.985C468.71 336.323 460.435 344.463 449.886 344.465C440.227 344.468 431.928 335.986 431.971 326.171L431.971 326.164Z" fill="#1F32D6"/>
</g>
<mask id="mask1_2199_2200" style="mask-type:alpha" maskUnits="userSpaceOnUse" x="249" y="351" width="174" height="174">
<path fill-rule="evenodd" clip-rule="evenodd" d="M371.378 392.27C372.147 393.038 372.294 394.232 371.734 395.164C371.368 395.774 370.741 396.168 370.057 396.367C368.734 396.753 367.46 397.487 366.387 398.561C363.271 401.676 363.019 406.475 365.822 409.279C368.626 412.083 373.425 411.83 376.541 408.715C377.965 407.291 378.791 405.515 379 403.739C379.065 403.191 379.343 402.678 379.816 402.394C380.435 402.022 381.228 402.12 381.739 402.631L420.527 441.419C423.651 444.543 423.651 449.608 420.527 452.733L350.608 522.652C347.484 525.776 342.418 525.776 339.294 522.652L251.887 435.245C248.763 432.121 248.763 427.055 251.887 423.931L321.807 354.012C324.931 350.888 329.996 350.888 333.12 354.012L371.378 392.27Z" fill="#BCC1F3"/>
</mask>
<g mask="url(#mask1_2199_2200)">
<path d="M316.467 477.796C321.527 477.795 326.595 477.794 331.655 477.792C333.122 477.792 333.856 477.033 333.856 475.516C333.858 467.97 333.88 460.423 333.841 452.877C333.835 451.674 334.086 451.213 335.411 451.226C343.195 451.285 350.986 451.229 358.77 451.281C359.979 451.288 360.312 450.935 360.306 449.753C360.267 442.063 360.323 434.374 360.257 426.678C360.244 425.279 360.543 424.797 362.051 424.817C369.787 424.896 377.524 424.833 385.268 424.866C386.259 424.865 386.952 424.58 387.645 423.873C391.124 420.327 394.684 416.855 398.163 413.308C398.856 412.602 399.447 412.452 400.404 412.724C417.874 417.732 434.142 415.106 448.776 404.337C461.623 394.872 468.976 381.964 470.549 366.035C472.244 348.958 467.024 334.07 454.93 321.955C442.713 309.704 427.689 304.525 410.449 306.262C396.375 307.678 384.581 313.855 375.307 324.467C364.32 337.036 360.051 351.784 362.275 368.343C362.634 371.026 363.333 373.675 364.046 376.297C364.338 377.37 364.181 378.009 363.393 378.79C350.919 391.176 338.472 403.596 326.032 416.015C317.376 424.658 308.72 433.3 300.112 441.983C299.548 442.547 299.113 443.525 299.113 444.313C299.043 454.916 299.088 465.519 299.038 476.129C299.037 477.42 299.356 477.854 300.708 477.834C305.959 477.758 311.216 477.797 316.474 477.796L316.467 477.796ZM409.304 348.831C409.348 338.621 417.541 330.421 427.71 330.398C437.627 330.375 445.98 338.701 446.011 348.652C446.043 358.99 437.768 367.13 427.219 367.132C417.56 367.135 409.261 358.653 409.304 348.837L409.304 348.831Z" fill="#BCC1F3"/>
</g>
<path d="M1131.23 466.1V480H1128.95V470.48L1124.71 480H1123.13L1118.87 470.48V480H1116.59V466.1H1119.05L1123.93 477L1128.79 466.1H1131.23ZM1144.2 480.18C1143.16 480.18 1142.22 479.947 1141.38 479.48C1140.54 479 1139.88 478.333 1139.4 477.48C1138.92 476.613 1138.68 475.613 1138.68 474.48C1138.68 473.36 1138.93 472.367 1139.42 471.5C1139.92 470.633 1140.59 469.967 1141.44 469.5C1142.3 469.033 1143.25 468.8 1144.3 468.8C1145.36 468.8 1146.31 469.033 1147.16 469.5C1148.02 469.967 1148.69 470.633 1149.18 471.5C1149.68 472.367 1149.92 473.36 1149.92 474.48C1149.92 475.6 1149.67 476.593 1149.16 477.46C1148.66 478.327 1147.96 479 1147.08 479.48C1146.22 479.947 1145.26 480.18 1144.2 480.18ZM1144.2 478.2C1144.79 478.2 1145.34 478.06 1145.84 477.78C1146.36 477.5 1146.78 477.08 1147.1 476.52C1147.42 475.96 1147.58 475.28 1147.58 474.48C1147.58 473.68 1147.43 473.007 1147.12 472.46C1146.82 471.9 1146.41 471.48 1145.9 471.2C1145.4 470.92 1144.85 470.78 1144.26 470.78C1143.68 470.78 1143.13 470.92 1142.62 471.2C1142.13 471.48 1141.74 471.9 1141.44 472.46C1141.15 473.007 1141 473.68 1141 474.48C1141 475.667 1141.3 476.587 1141.9 477.24C1142.52 477.88 1143.28 478.2 1144.2 478.2ZM1156.8 470.84H1154.76V480H1152.46V470.84H1151.16V468.98H1152.46V468.2C1152.46 466.933 1152.79 466.013 1153.46 465.44C1154.14 464.853 1155.2 464.56 1156.64 464.56V466.46C1155.94 466.46 1155.46 466.593 1155.18 466.86C1154.9 467.113 1154.76 467.56 1154.76 468.2V468.98H1156.8V470.84ZM1175.43 480H1173.15L1166.29 469.62V480H1164.01V466.08H1166.29L1173.15 476.44V466.08H1175.43V480ZM1187.98 474.5L1193.06 480H1189.98L1185.9 475.26V480H1183.62V465.2H1185.9V473.8L1189.9 468.98H1193.06L1187.98 474.5ZM1204.8 474.22C1204.8 474.633 1204.77 475.007 1204.72 475.34H1196.3C1196.36 476.22 1196.69 476.927 1197.28 477.46C1197.86 477.993 1198.58 478.26 1199.44 478.26C1200.66 478.26 1201.53 477.747 1202.04 476.72H1204.5C1204.16 477.733 1203.56 478.567 1202.68 479.22C1201.81 479.86 1200.73 480.18 1199.44 480.18C1198.38 480.18 1197.44 479.947 1196.6 479.48C1195.77 479 1195.12 478.333 1194.64 477.48C1194.17 476.613 1193.94 475.613 1193.94 474.48C1193.94 473.347 1194.16 472.353 1194.62 471.5C1195.08 470.633 1195.73 469.967 1196.56 469.5C1197.4 469.033 1198.36 468.8 1199.44 468.8C1200.48 468.8 1201.4 469.027 1202.22 469.48C1203.03 469.933 1203.66 470.573 1204.12 471.4C1204.57 472.213 1204.8 473.153 1204.8 474.22ZM1202.42 473.5C1202.4 472.66 1202.1 471.987 1201.52 471.48C1200.93 470.973 1200.2 470.72 1199.34 470.72C1198.55 470.72 1197.88 470.973 1197.32 471.48C1196.76 471.973 1196.42 472.647 1196.32 473.5H1202.42ZM1216.96 468.98L1210.2 485.18H1207.84L1210.08 479.82L1205.74 468.98H1208.28L1211.38 477.38L1214.6 468.98H1216.96ZM1227.88 480.18C1227.01 480.18 1226.23 480.027 1225.54 479.72C1224.86 479.4 1224.32 478.973 1223.92 478.44C1223.52 477.893 1223.3 477.287 1223.28 476.62H1225.64C1225.68 477.087 1225.9 477.48 1226.3 477.8C1226.71 478.107 1227.22 478.26 1227.84 478.26C1228.48 478.26 1228.97 478.14 1229.32 477.9C1229.68 477.647 1229.86 477.327 1229.86 476.94C1229.86 476.527 1229.66 476.22 1229.26 476.02C1228.87 475.82 1228.25 475.6 1227.4 475.36C1226.57 475.133 1225.9 474.913 1225.38 474.7C1224.86 474.487 1224.4 474.16 1224.02 473.72C1223.64 473.28 1223.46 472.7 1223.46 471.98C1223.46 471.393 1223.63 470.86 1223.98 470.38C1224.32 469.887 1224.82 469.5 1225.46 469.22C1226.11 468.94 1226.86 468.8 1227.7 468.8C1228.95 468.8 1229.96 469.12 1230.72 469.76C1231.49 470.387 1231.9 471.247 1231.96 472.34H1229.68C1229.64 471.847 1229.44 471.453 1229.08 471.16C1228.72 470.867 1228.23 470.72 1227.62 470.72C1227.02 470.72 1226.56 470.833 1226.24 471.06C1225.92 471.287 1225.76 471.587 1225.76 471.96C1225.76 472.253 1225.86 472.5 1226.08 472.7C1226.29 472.9 1226.55 473.06 1226.86 473.18C1227.16 473.287 1227.62 473.427 1228.22 473.6C1229.02 473.813 1229.67 474.033 1230.18 474.26C1230.7 474.473 1231.14 474.793 1231.52 475.22C1231.89 475.647 1232.08 476.213 1232.1 476.92C1232.1 477.547 1231.92 478.107 1231.58 478.6C1231.23 479.093 1230.74 479.48 1230.1 479.76C1229.47 480.04 1228.73 480.18 1227.88 480.18ZM1240.26 468.8C1241.1 468.8 1241.85 468.98 1242.5 469.34C1243.17 469.7 1243.69 470.233 1244.06 470.94C1244.45 471.647 1244.64 472.5 1244.64 473.5V480H1242.38V473.84C1242.38 472.853 1242.13 472.1 1241.64 471.58C1241.15 471.047 1240.47 470.78 1239.62 470.78C1238.77 470.78 1238.09 471.047 1237.58 471.58C1237.09 472.1 1236.84 472.853 1236.84 473.84V480H1234.56V465.2H1236.84V470.26C1237.23 469.793 1237.71 469.433 1238.3 469.18C1238.9 468.927 1239.55 468.8 1240.26 468.8ZM1246.79 474.44C1246.79 473.333 1247.01 472.353 1247.47 471.5C1247.93 470.647 1248.56 469.987 1249.35 469.52C1250.15 469.04 1251.03 468.8 1251.99 468.8C1252.85 468.8 1253.61 468.973 1254.25 469.32C1254.9 469.653 1255.42 470.073 1255.81 470.58V468.98H1258.11V480H1255.81V478.36C1255.42 478.88 1254.89 479.313 1254.23 479.66C1253.56 480.007 1252.8 480.18 1251.95 480.18C1251 480.18 1250.13 479.94 1249.35 479.46C1248.56 478.967 1247.93 478.287 1247.47 477.42C1247.01 476.54 1246.79 475.547 1246.79 474.44ZM1255.81 474.48C1255.81 473.72 1255.65 473.06 1255.33 472.5C1255.02 471.94 1254.61 471.513 1254.11 471.22C1253.6 470.927 1253.05 470.78 1252.47 470.78C1251.88 470.78 1251.33 470.927 1250.83 471.22C1250.32 471.5 1249.91 471.92 1249.59 472.48C1249.28 473.027 1249.13 473.68 1249.13 474.44C1249.13 475.2 1249.28 475.867 1249.59 476.44C1249.91 477.013 1250.32 477.453 1250.83 477.76C1251.35 478.053 1251.89 478.2 1252.47 478.2C1253.05 478.2 1253.6 478.053 1254.11 477.76C1254.61 477.467 1255.02 477.04 1255.33 476.48C1255.65 475.907 1255.81 475.24 1255.81 474.48ZM1263.38 470.58C1263.71 470.02 1264.15 469.587 1264.7 469.28C1265.26 468.96 1265.92 468.8 1266.68 468.8V471.16H1266.1C1265.21 471.16 1264.53 471.387 1264.06 471.84C1263.61 472.293 1263.38 473.08 1263.38 474.2V480H1261.1V468.98H1263.38V470.58ZM1278.88 474.22C1278.88 474.633 1278.85 475.007 1278.8 475.34H1270.38C1270.44 476.22 1270.77 476.927 1271.36 477.46C1271.94 477.993 1272.66 478.26 1273.52 478.26C1274.74 478.26 1275.61 477.747 1276.12 476.72H1278.58C1278.24 477.733 1277.64 478.567 1276.76 479.22C1275.89 479.86 1274.81 480.18 1273.52 480.18C1272.46 480.18 1271.52 479.947 1270.68 479.48C1269.85 479 1269.2 478.333 1268.72 477.48C1268.25 476.613 1268.02 475.613 1268.02 474.48C1268.02 473.347 1268.24 472.353 1268.7 471.5C1269.16 470.633 1269.81 469.967 1270.64 469.5C1271.48 469.033 1272.44 468.8 1273.52 468.8C1274.56 468.8 1275.48 469.027 1276.3 469.48C1277.11 469.933 1277.74 470.573 1278.2 471.4C1278.65 472.213 1278.88 473.153 1278.88 474.22ZM1276.5 473.5C1276.48 472.66 1276.18 471.987 1275.6 471.48C1275.01 470.973 1274.28 470.72 1273.42 470.72C1272.63 470.72 1271.96 470.973 1271.4 471.48C1270.84 471.973 1270.5 472.647 1270.4 473.5H1276.5ZM1285.12 480.18C1284.25 480.18 1283.47 480.027 1282.78 479.72C1282.1 479.4 1281.56 478.973 1281.16 478.44C1280.76 477.893 1280.55 477.287 1280.52 476.62H1282.88C1282.92 477.087 1283.14 477.48 1283.54 477.8C1283.95 478.107 1284.47 478.26 1285.08 478.26C1285.72 478.26 1286.21 478.14 1286.56 477.9C1286.92 477.647 1287.1 477.327 1287.1 476.94C1287.1 476.527 1286.9 476.22 1286.5 476.02C1286.11 475.82 1285.49 475.6 1284.64 475.36C1283.81 475.133 1283.14 474.913 1282.62 474.7C1282.1 474.487 1281.65 474.16 1281.26 473.72C1280.89 473.28 1280.7 472.7 1280.7 471.98C1280.7 471.393 1280.87 470.86 1281.22 470.38C1281.57 469.887 1282.06 469.5 1282.7 469.22C1283.35 468.94 1284.1 468.8 1284.94 468.8C1286.19 468.8 1287.2 469.12 1287.96 469.76C1288.73 470.387 1289.15 471.247 1289.2 472.34H1286.92C1286.88 471.847 1286.68 471.453 1286.32 471.16C1285.96 470.867 1285.47 470.72 1284.86 470.72C1284.26 470.72 1283.8 470.833 1283.48 471.06C1283.16 471.287 1283 471.587 1283 471.96C1283 472.253 1283.11 472.5 1283.32 472.7C1283.53 472.9 1283.79 473.06 1284.1 473.18C1284.41 473.287 1284.86 473.427 1285.46 473.6C1286.26 473.813 1286.91 474.033 1287.42 474.26C1287.94 474.473 1288.39 474.793 1288.76 475.22C1289.13 475.647 1289.33 476.213 1289.34 476.92C1289.34 477.547 1289.17 478.107 1288.82 478.6C1288.47 479.093 1287.98 479.48 1287.34 479.76C1286.71 480.04 1285.97 480.18 1285.12 480.18ZM1299.28 470.58C1299.61 470.02 1300.05 469.587 1300.6 469.28C1301.16 468.96 1301.82 468.8 1302.58 468.8V471.16H1302C1301.11 471.16 1300.43 471.387 1299.96 471.84C1299.51 472.293 1299.28 473.08 1299.28 474.2V480H1297V468.98H1299.28V470.58ZM1314.78 474.22C1314.78 474.633 1314.75 475.007 1314.7 475.34H1306.28C1306.34 476.22 1306.67 476.927 1307.26 477.46C1307.84 477.993 1308.56 478.26 1309.42 478.26C1310.64 478.26 1311.51 477.747 1312.02 476.72H1314.48C1314.14 477.733 1313.54 478.567 1312.66 479.22C1311.79 479.86 1310.71 480.18 1309.42 480.18C1308.36 480.18 1307.42 479.947 1306.58 479.48C1305.75 479 1305.1 478.333 1304.62 477.48C1304.15 476.613 1303.92 475.613 1303.92 474.48C1303.92 473.347 1304.14 472.353 1304.6 471.5C1305.06 470.633 1305.71 469.967 1306.54 469.5C1307.38 469.033 1308.34 468.8 1309.42 468.8C1310.46 468.8 1311.38 469.027 1312.2 469.48C1313.01 469.933 1313.64 470.573 1314.1 471.4C1314.55 472.213 1314.78 473.153 1314.78 474.22ZM1312.4 473.5C1312.38 472.66 1312.08 471.987 1311.5 471.48C1310.91 470.973 1310.18 470.72 1309.32 470.72C1308.53 470.72 1307.86 470.973 1307.3 471.48C1306.74 471.973 1306.4 472.647 1306.3 473.5H1312.4ZM1316.26 474.44C1316.26 473.333 1316.49 472.353 1316.94 471.5C1317.41 470.647 1318.03 469.987 1318.82 469.52C1319.62 469.04 1320.51 468.8 1321.48 468.8C1322.33 468.8 1323.09 468.973 1323.74 469.32C1324.41 469.667 1324.92 470.087 1325.28 470.58V468.98H1327.58V485.24H1325.28V478.4C1324.92 478.893 1324.4 479.313 1323.72 479.66C1323.04 480.007 1322.27 480.18 1321.4 480.18C1320.45 480.18 1319.59 479.94 1318.8 479.46C1318.03 478.967 1317.41 478.287 1316.94 477.42C1316.49 476.54 1316.26 475.547 1316.26 474.44ZM1325.28 474.48C1325.28 473.72 1325.12 473.06 1324.8 472.5C1324.49 471.94 1324.09 471.513 1323.58 471.22C1323.07 470.927 1322.53 470.78 1321.94 470.78C1321.35 470.78 1320.81 470.927 1320.3 471.22C1319.79 471.5 1319.38 471.92 1319.06 472.48C1318.75 473.027 1318.6 473.68 1318.6 474.44C1318.6 475.2 1318.75 475.867 1319.06 476.44C1319.38 477.013 1319.79 477.453 1320.3 477.76C1320.82 478.053 1321.37 478.2 1321.94 478.2C1322.53 478.2 1323.07 478.053 1323.58 477.76C1324.09 477.467 1324.49 477.04 1324.8 476.48C1325.12 475.907 1325.28 475.24 1325.28 474.48ZM1340.55 468.98V480H1338.27V478.7C1337.91 479.153 1337.44 479.513 1336.85 479.78C1336.28 480.033 1335.67 480.16 1335.01 480.16C1334.15 480.16 1333.37 479.98 1332.67 479.62C1331.99 479.26 1331.45 478.727 1331.05 478.02C1330.67 477.313 1330.47 476.46 1330.47 475.46V468.98H1332.73V475.12C1332.73 476.107 1332.98 476.867 1333.47 477.4C1333.97 477.92 1334.64 478.18 1335.49 478.18C1336.35 478.18 1337.02 477.92 1337.51 477.4C1338.02 476.867 1338.27 476.107 1338.27 475.12V468.98H1340.55ZM1344.72 467.52C1344.31 467.52 1343.96 467.38 1343.68 467.1C1343.4 466.82 1343.26 466.473 1343.26 466.06C1343.26 465.647 1343.4 465.3 1343.68 465.02C1343.96 464.74 1344.31 464.6 1344.72 464.6C1345.12 464.6 1345.46 464.74 1345.74 465.02C1346.02 465.3 1346.16 465.647 1346.16 466.06C1346.16 466.473 1346.02 466.82 1345.74 467.1C1345.46 467.38 1345.12 467.52 1344.72 467.52ZM1345.84 468.98V480H1343.56V468.98H1345.84ZM1351.12 470.58C1351.45 470.02 1351.89 469.587 1352.44 469.28C1353 468.96 1353.66 468.8 1354.42 468.8V471.16H1353.84C1352.94 471.16 1352.26 471.387 1351.8 471.84C1351.34 472.293 1351.12 473.08 1351.12 474.2V480H1348.84V468.98H1351.12V470.58ZM1366.61 474.22C1366.61 474.633 1366.59 475.007 1366.53 475.34H1358.11C1358.18 476.22 1358.51 476.927 1359.09 477.46C1359.68 477.993 1360.4 478.26 1361.25 478.26C1362.48 478.26 1363.35 477.747 1363.85 476.72H1366.31C1365.98 477.733 1365.37 478.567 1364.49 479.22C1363.63 479.86 1362.55 480.18 1361.25 480.18C1360.2 480.18 1359.25 479.947 1358.41 479.48C1357.59 479 1356.93 478.333 1356.45 477.48C1355.99 476.613 1355.75 475.613 1355.75 474.48C1355.75 473.347 1355.98 472.353 1356.43 471.5C1356.9 470.633 1357.55 469.967 1358.37 469.5C1359.21 469.033 1360.17 468.8 1361.25 468.8C1362.29 468.8 1363.22 469.027 1364.03 469.48C1364.85 469.933 1365.48 470.573 1365.93 471.4C1366.39 472.213 1366.61 473.153 1366.61 474.22ZM1364.23 473.5C1364.22 472.66 1363.92 471.987 1363.33 471.48C1362.75 470.973 1362.02 470.72 1361.15 470.72C1360.37 470.72 1359.69 470.973 1359.13 471.48C1358.57 471.973 1358.24 472.647 1358.13 473.5H1364.23ZM1368.1 474.44C1368.1 473.333 1368.32 472.353 1368.78 471.5C1369.24 470.647 1369.87 469.987 1370.66 469.52C1371.46 469.04 1372.34 468.8 1373.32 468.8C1374.04 468.8 1374.74 468.96 1375.44 469.28C1376.14 469.587 1376.7 470 1377.12 470.52V465.2H1379.42V480H1377.12V478.34C1376.74 478.873 1376.22 479.313 1375.56 479.66C1374.9 480.007 1374.15 480.18 1373.3 480.18C1372.34 480.18 1371.46 479.94 1370.66 479.46C1369.87 478.967 1369.24 478.287 1368.78 477.42C1368.32 476.54 1368.1 475.547 1368.1 474.44ZM1377.12 474.48C1377.12 473.72 1376.96 473.06 1376.64 472.5C1376.33 471.94 1375.92 471.513 1375.42 471.22C1374.91 470.927 1374.36 470.78 1373.78 470.78C1373.19 470.78 1372.64 470.927 1372.14 471.22C1371.63 471.5 1371.22 471.92 1370.9 472.48C1370.59 473.027 1370.44 473.68 1370.44 474.44C1370.44 475.2 1370.59 475.867 1370.9 476.44C1371.22 477.013 1371.63 477.453 1372.14 477.76C1372.66 478.053 1373.2 478.2 1373.78 478.2C1374.36 478.2 1374.91 478.053 1375.42 477.76C1375.92 477.467 1376.33 477.04 1376.64 476.48C1376.96 475.907 1377.12 475.24 1377.12 474.48ZM1110.16 494.84H1108.12V504H1105.82V494.84H1104.52V492.98H1105.82V492.2C1105.82 490.933 1106.16 490.013 1106.82 489.44C1107.5 488.853 1108.56 488.56 1110 488.56V490.46C1109.31 490.46 1108.82 490.593 1108.54 490.86C1108.26 491.113 1108.12 491.56 1108.12 492.2V492.98H1110.16V494.84ZM1116.97 504.18C1115.93 504.18 1114.99 503.947 1114.15 503.48C1113.31 503 1112.65 502.333 1112.17 501.48C1111.69 500.613 1111.45 499.613 1111.45 498.48C1111.45 497.36 1111.69 496.367 1112.19 495.5C1112.68 494.633 1113.35 493.967 1114.21 493.5C1115.06 493.033 1116.01 492.8 1117.07 492.8C1118.12 492.8 1119.07 493.033 1119.93 493.5C1120.78 493.967 1121.45 494.633 1121.95 495.5C1122.44 496.367 1122.69 497.36 1122.69 498.48C1122.69 499.6 1122.43 500.593 1121.93 501.46C1121.42 502.327 1120.73 503 1119.85 503.48C1118.98 503.947 1118.02 504.18 1116.97 504.18ZM1116.97 502.2C1117.55 502.2 1118.1 502.06 1118.61 501.78C1119.13 501.5 1119.55 501.08 1119.87 500.52C1120.19 499.96 1120.35 499.28 1120.35 498.48C1120.35 497.68 1120.19 497.007 1119.89 496.46C1119.58 495.9 1119.17 495.48 1118.67 495.2C1118.16 494.92 1117.61 494.78 1117.03 494.78C1116.44 494.78 1115.89 494.92 1115.39 495.2C1114.89 495.48 1114.5 495.9 1114.21 496.46C1113.91 497.007 1113.77 497.68 1113.77 498.48C1113.77 499.667 1114.07 500.587 1114.67 501.24C1115.28 501.88 1116.05 502.2 1116.97 502.2ZM1127.22 494.58C1127.55 494.02 1127.99 493.587 1128.54 493.28C1129.1 492.96 1129.76 492.8 1130.52 492.8V495.16H1129.94C1129.05 495.16 1128.37 495.387 1127.9 495.84C1127.45 496.293 1127.22 497.08 1127.22 498.2V504H1124.94V492.98H1127.22V494.58ZM1140.47 494.84V500.94C1140.47 501.353 1140.56 501.653 1140.75 501.84C1140.95 502.013 1141.28 502.1 1141.75 502.1H1143.15V504H1141.35C1140.32 504 1139.54 503.76 1138.99 503.28C1138.44 502.8 1138.17 502.02 1138.17 500.94V494.84H1136.87V492.98H1138.17V490.24H1140.47V492.98H1143.15V494.84H1140.47ZM1147.53 494.58C1147.87 494.02 1148.31 493.587 1148.85 493.28C1149.41 492.96 1150.07 492.8 1150.83 492.8V495.16H1150.25C1149.36 495.16 1148.68 495.387 1148.21 495.84C1147.76 496.293 1147.53 497.08 1147.53 498.2V504H1145.25V492.98H1147.53V494.58ZM1152.17 498.44C1152.17 497.333 1152.39 496.353 1152.85 495.5C1153.31 494.647 1153.94 493.987 1154.73 493.52C1155.53 493.04 1156.41 492.8 1157.37 492.8C1158.23 492.8 1158.99 492.973 1159.63 493.32C1160.28 493.653 1160.8 494.073 1161.19 494.58V492.98H1163.49V504H1161.19V502.36C1160.8 502.88 1160.27 503.313 1159.61 503.66C1158.94 504.007 1158.18 504.18 1157.33 504.18C1156.38 504.18 1155.51 503.94 1154.73 503.46C1153.94 502.967 1153.31 502.287 1152.85 501.42C1152.39 500.54 1152.17 499.547 1152.17 498.44ZM1161.19 498.48C1161.19 497.72 1161.03 497.06 1160.71 496.5C1160.4 495.94 1159.99 495.513 1159.49 495.22C1158.98 494.927 1158.43 494.78 1157.85 494.78C1157.26 494.78 1156.71 494.927 1156.21 495.22C1155.7 495.5 1155.29 495.92 1154.97 496.48C1154.66 497.027 1154.51 497.68 1154.51 498.44C1154.51 499.2 1154.66 499.867 1154.97 500.44C1155.29 501.013 1155.7 501.453 1156.21 501.76C1156.73 502.053 1157.27 502.2 1157.85 502.2C1158.43 502.2 1158.98 502.053 1159.49 501.76C1159.99 501.467 1160.4 501.04 1160.71 500.48C1161.03 499.907 1161.19 499.24 1161.19 498.48ZM1172.04 492.8C1172.91 492.8 1173.68 492.98 1174.36 493.34C1175.06 493.7 1175.6 494.233 1175.98 494.94C1176.37 495.647 1176.56 496.5 1176.56 497.5V504H1174.3V497.84C1174.3 496.853 1174.06 496.1 1173.56 495.58C1173.07 495.047 1172.4 494.78 1171.54 494.78C1170.69 494.78 1170.01 495.047 1169.5 495.58C1169.01 496.1 1168.76 496.853 1168.76 497.84V504H1166.48V492.98H1168.76V494.24C1169.14 493.787 1169.61 493.433 1170.18 493.18C1170.77 492.927 1171.39 492.8 1172.04 492.8ZM1183.47 504.18C1182.6 504.18 1181.82 504.027 1181.13 503.72C1180.45 503.4 1179.91 502.973 1179.51 502.44C1179.11 501.893 1178.9 501.287 1178.87 500.62H1181.23C1181.27 501.087 1181.49 501.48 1181.89 501.8C1182.3 502.107 1182.82 502.26 1183.43 502.26C1184.07 502.26 1184.56 502.14 1184.91 501.9C1185.27 501.647 1185.45 501.327 1185.45 500.94C1185.45 500.527 1185.25 500.22 1184.85 500.02C1184.46 499.82 1183.84 499.6 1182.99 499.36C1182.16 499.133 1181.49 498.913 1180.97 498.7C1180.45 498.487 1180 498.16 1179.61 497.72C1179.24 497.28 1179.05 496.7 1179.05 495.98C1179.05 495.393 1179.22 494.86 1179.57 494.38C1179.92 493.887 1180.41 493.5 1181.05 493.22C1181.7 492.94 1182.45 492.8 1183.29 492.8C1184.54 492.8 1185.55 493.12 1186.31 493.76C1187.08 494.387 1187.5 495.247 1187.55 496.34H1185.27C1185.23 495.847 1185.03 495.453 1184.67 495.16C1184.31 494.867 1183.82 494.72 1183.21 494.72C1182.61 494.72 1182.15 494.833 1181.83 495.06C1181.51 495.287 1181.35 495.587 1181.35 495.96C1181.35 496.253 1181.46 496.5 1181.67 496.7C1181.88 496.9 1182.14 497.06 1182.45 497.18C1182.76 497.287 1183.21 497.427 1183.81 497.6C1184.61 497.813 1185.26 498.033 1185.77 498.26C1186.29 498.473 1186.74 498.793 1187.11 499.22C1187.48 499.647 1187.68 500.213 1187.69 500.92C1187.69 501.547 1187.52 502.107 1187.17 502.6C1186.82 503.093 1186.33 503.48 1185.69 503.76C1185.06 504.04 1184.32 504.18 1183.47 504.18ZM1189.39 498.44C1189.39 497.333 1189.62 496.353 1190.07 495.5C1190.54 494.647 1191.17 493.987 1191.95 493.52C1192.75 493.04 1193.63 492.8 1194.59 492.8C1195.46 492.8 1196.21 492.973 1196.85 493.32C1197.51 493.653 1198.03 494.073 1198.41 494.58V492.98H1200.71V504H1198.41V502.36C1198.03 502.88 1197.5 503.313 1196.83 503.66C1196.17 504.007 1195.41 504.18 1194.55 504.18C1193.61 504.18 1192.74 503.94 1191.95 503.46C1191.17 502.967 1190.54 502.287 1190.07 501.42C1189.62 500.54 1189.39 499.547 1189.39 498.44ZM1198.41 498.48C1198.41 497.72 1198.25 497.06 1197.93 496.5C1197.63 495.94 1197.22 495.513 1196.71 495.22C1196.21 494.927 1195.66 494.78 1195.07 494.78C1194.49 494.78 1193.94 494.927 1193.43 495.22C1192.93 495.5 1192.51 495.92 1192.19 496.48C1191.89 497.027 1191.73 497.68 1191.73 498.44C1191.73 499.2 1191.89 499.867 1192.19 500.44C1192.51 501.013 1192.93 501.453 1193.43 501.76C1193.95 502.053 1194.5 502.2 1195.07 502.2C1195.66 502.2 1196.21 502.053 1196.71 501.76C1197.22 501.467 1197.63 501.04 1197.93 500.48C1198.25 499.907 1198.41 499.24 1198.41 498.48ZM1202.95 498.48C1202.95 497.347 1203.18 496.353 1203.63 495.5C1204.1 494.633 1204.74 493.967 1205.55 493.5C1206.36 493.033 1207.3 492.8 1208.35 492.8C1209.68 492.8 1210.78 493.12 1211.65 493.76C1212.53 494.387 1213.12 495.287 1213.43 496.46H1210.97C1210.77 495.913 1210.45 495.487 1210.01 495.18C1209.57 494.873 1209.02 494.72 1208.35 494.72C1207.42 494.72 1206.67 495.053 1206.11 495.72C1205.56 496.373 1205.29 497.293 1205.29 498.48C1205.29 499.667 1205.56 500.593 1206.11 501.26C1206.67 501.927 1207.42 502.26 1208.35 502.26C1209.67 502.26 1210.54 501.68 1210.97 500.52H1213.43C1213.11 501.64 1212.51 502.533 1211.63 503.2C1210.75 503.853 1209.66 504.18 1208.35 504.18C1207.3 504.18 1206.36 503.947 1205.55 503.48C1204.74 503 1204.1 502.333 1203.63 501.48C1203.18 500.613 1202.95 499.613 1202.95 498.48ZM1218.36 494.84V500.94C1218.36 501.353 1218.45 501.653 1218.64 501.84C1218.84 502.013 1219.17 502.1 1219.64 502.1H1221.04V504H1219.24C1218.21 504 1217.43 503.76 1216.88 503.28C1216.33 502.8 1216.06 502.02 1216.06 500.94V494.84H1214.76V492.98H1216.06V490.24H1218.36V492.98H1221.04V494.84H1218.36ZM1224.3 491.52C1223.89 491.52 1223.54 491.38 1223.26 491.1C1222.98 490.82 1222.84 490.473 1222.84 490.06C1222.84 489.647 1222.98 489.3 1223.26 489.02C1223.54 488.74 1223.89 488.6 1224.3 488.6C1224.7 488.6 1225.04 488.74 1225.32 489.02C1225.6 489.3 1225.74 489.647 1225.74 490.06C1225.74 490.473 1225.6 490.82 1225.32 491.1C1225.04 491.38 1224.7 491.52 1224.3 491.52ZM1225.42 492.98V504H1223.14V492.98H1225.42ZM1233.2 504.18C1232.16 504.18 1231.22 503.947 1230.38 503.48C1229.54 503 1228.88 502.333 1228.4 501.48C1227.92 500.613 1227.68 499.613 1227.68 498.48C1227.68 497.36 1227.92 496.367 1228.42 495.5C1228.91 494.633 1229.58 493.967 1230.44 493.5C1231.29 493.033 1232.24 492.8 1233.3 492.8C1234.35 492.8 1235.3 493.033 1236.16 493.5C1237.01 493.967 1237.68 494.633 1238.18 495.5C1238.67 496.367 1238.92 497.36 1238.92 498.48C1238.92 499.6 1238.66 500.593 1238.16 501.46C1237.65 502.327 1236.96 503 1236.08 503.48C1235.21 503.947 1234.25 504.18 1233.2 504.18ZM1233.2 502.2C1233.78 502.2 1234.33 502.06 1234.84 501.78C1235.36 501.5 1235.78 501.08 1236.1 500.52C1236.42 499.96 1236.58 499.28 1236.58 498.48C1236.58 497.68 1236.42 497.007 1236.12 496.46C1235.81 495.9 1235.4 495.48 1234.9 495.2C1234.39 494.92 1233.84 494.78 1233.26 494.78C1232.67 494.78 1232.12 494.92 1231.62 495.2C1231.12 495.48 1230.73 495.9 1230.44 496.46C1230.14 497.007 1230 497.68 1230 498.48C1230 499.667 1230.3 500.587 1230.9 501.24C1231.51 501.88 1232.28 502.2 1233.2 502.2ZM1246.73 492.8C1247.6 492.8 1248.37 492.98 1249.05 493.34C1249.74 493.7 1250.28 494.233 1250.67 494.94C1251.06 495.647 1251.25 496.5 1251.25 497.5V504H1248.99V497.84C1248.99 496.853 1248.74 496.1 1248.25 495.58C1247.76 495.047 1247.08 494.78 1246.23 494.78C1245.38 494.78 1244.7 495.047 1244.19 495.58C1243.7 496.1 1243.45 496.853 1243.45 497.84V504H1241.17V492.98H1243.45V494.24C1243.82 493.787 1244.3 493.433 1244.87 493.18C1245.46 492.927 1246.08 492.8 1246.73 492.8ZM1258.59 498.44C1258.59 497.333 1258.82 496.353 1259.27 495.5C1259.74 494.647 1260.37 493.987 1261.15 493.52C1261.95 493.04 1262.83 492.8 1263.79 492.8C1264.66 492.8 1265.41 492.973 1266.05 493.32C1266.71 493.653 1267.23 494.073 1267.61 494.58V492.98H1269.91V504H1267.61V502.36C1267.23 502.88 1266.7 503.313 1266.03 503.66C1265.37 504.007 1264.61 504.18 1263.75 504.18C1262.81 504.18 1261.94 503.94 1261.15 503.46C1260.37 502.967 1259.74 502.287 1259.27 501.42C1258.82 500.54 1258.59 499.547 1258.59 498.44ZM1267.61 498.48C1267.61 497.72 1267.45 497.06 1267.13 496.5C1266.83 495.94 1266.42 495.513 1265.91 495.22C1265.41 494.927 1264.86 494.78 1264.27 494.78C1263.69 494.78 1263.14 494.927 1262.63 495.22C1262.13 495.5 1261.71 495.92 1261.39 496.48C1261.09 497.027 1260.93 497.68 1260.93 498.44C1260.93 499.2 1261.09 499.867 1261.39 500.44C1261.71 501.013 1262.13 501.453 1262.63 501.76C1263.15 502.053 1263.7 502.2 1264.27 502.2C1264.86 502.2 1265.41 502.053 1265.91 501.76C1266.42 501.467 1266.83 501.04 1267.13 500.48C1267.45 499.907 1267.61 499.24 1267.61 498.48ZM1282.89 492.98V504H1280.61V502.7C1280.25 503.153 1279.77 503.513 1279.19 503.78C1278.61 504.033 1278 504.16 1277.35 504.16C1276.48 504.16 1275.7 503.98 1275.01 503.62C1274.33 503.26 1273.79 502.727 1273.39 502.02C1273 501.313 1272.81 500.46 1272.81 499.46V492.98H1275.07V499.12C1275.07 500.107 1275.31 500.867 1275.81 501.4C1276.3 501.92 1276.97 502.18 1277.83 502.18C1278.68 502.18 1279.35 501.92 1279.85 501.4C1280.35 500.867 1280.61 500.107 1280.61 499.12V492.98H1282.89ZM1288.56 494.84V500.94C1288.56 501.353 1288.65 501.653 1288.84 501.84C1289.04 502.013 1289.37 502.1 1289.84 502.1H1291.24V504H1289.44C1288.41 504 1287.62 503.76 1287.08 503.28C1286.53 502.8 1286.26 502.02 1286.26 500.94V494.84H1284.96V492.98H1286.26V490.24H1288.56V492.98H1291.24V494.84H1288.56ZM1299.04 492.8C1299.88 492.8 1300.62 492.98 1301.28 493.34C1301.94 493.7 1302.46 494.233 1302.84 494.94C1303.22 495.647 1303.42 496.5 1303.42 497.5V504H1301.16V497.84C1301.16 496.853 1300.91 496.1 1300.42 495.58C1299.92 495.047 1299.25 494.78 1298.4 494.78C1297.54 494.78 1296.86 495.047 1296.36 495.58C1295.86 496.1 1295.62 496.853 1295.62 497.84V504H1293.34V489.2H1295.62V494.26C1296 493.793 1296.49 493.433 1297.08 493.18C1297.68 492.927 1298.33 492.8 1299.04 492.8ZM1311.11 504.18C1310.07 504.18 1309.13 503.947 1308.29 503.48C1307.45 503 1306.79 502.333 1306.31 501.48C1305.83 500.613 1305.59 499.613 1305.59 498.48C1305.59 497.36 1305.83 496.367 1306.33 495.5C1306.82 494.633 1307.49 493.967 1308.35 493.5C1309.2 493.033 1310.15 492.8 1311.21 492.8C1312.26 492.8 1313.21 493.033 1314.07 493.5C1314.92 493.967 1315.59 494.633 1316.09 495.5C1316.58 496.367 1316.83 497.36 1316.83 498.48C1316.83 499.6 1316.57 500.593 1316.07 501.46C1315.56 502.327 1314.87 503 1313.99 503.48C1313.12 503.947 1312.16 504.18 1311.11 504.18ZM1311.11 502.2C1311.69 502.2 1312.24 502.06 1312.75 501.78C1313.27 501.5 1313.69 501.08 1314.01 500.52C1314.33 499.96 1314.49 499.28 1314.49 498.48C1314.49 497.68 1314.33 497.007 1314.03 496.46C1313.72 495.9 1313.31 495.48 1312.81 495.2C1312.3 494.92 1311.75 494.78 1311.17 494.78C1310.58 494.78 1310.03 494.92 1309.53 495.2C1309.03 495.48 1308.64 495.9 1308.35 496.46C1308.05 497.007 1307.91 497.68 1307.91 498.48C1307.91 499.667 1308.21 500.587 1308.81 501.24C1309.42 501.88 1310.19 502.2 1311.11 502.2ZM1321.36 494.58C1321.69 494.02 1322.13 493.587 1322.68 493.28C1323.24 492.96 1323.9 492.8 1324.66 492.8V495.16H1324.08C1323.19 495.16 1322.51 495.387 1322.04 495.84C1321.59 496.293 1321.36 497.08 1321.36 498.2V504H1319.08V492.98H1321.36V494.58ZM1327.92 491.52C1327.5 491.52 1327.16 491.38 1326.88 491.1C1326.6 490.82 1326.46 490.473 1326.46 490.06C1326.46 489.647 1326.6 489.3 1326.88 489.02C1327.16 488.74 1327.5 488.6 1327.92 488.6C1328.32 488.6 1328.66 488.74 1328.94 489.02C1329.22 489.3 1329.36 489.647 1329.36 490.06C1329.36 490.473 1329.22 490.82 1328.94 491.1C1328.66 491.38 1328.32 491.52 1327.92 491.52ZM1329.04 492.98V504H1326.76V492.98H1329.04ZM1334.05 502.14H1339.05V504H1331.41V502.14L1336.43 494.84H1331.41V492.98H1339.05V494.84L1334.05 502.14ZM1340.68 498.44C1340.68 497.333 1340.91 496.353 1341.36 495.5C1341.83 494.647 1342.46 493.987 1343.24 493.52C1344.04 493.04 1344.92 492.8 1345.88 492.8C1346.75 492.8 1347.5 492.973 1348.14 493.32C1348.8 493.653 1349.32 494.073 1349.7 494.58V492.98H1352V504H1349.7V502.36C1349.32 502.88 1348.79 503.313 1348.12 503.66C1347.46 504.007 1346.7 504.18 1345.84 504.18C1344.9 504.18 1344.03 503.94 1343.24 503.46C1342.46 502.967 1341.83 502.287 1341.36 501.42C1340.91 500.54 1340.68 499.547 1340.68 498.44ZM1349.7 498.48C1349.7 497.72 1349.54 497.06 1349.22 496.5C1348.92 495.94 1348.51 495.513 1348 495.22C1347.5 494.927 1346.95 494.78 1346.36 494.78C1345.78 494.78 1345.23 494.927 1344.72 495.22C1344.22 495.5 1343.8 495.92 1343.48 496.48C1343.18 497.027 1343.02 497.68 1343.02 498.44C1343.02 499.2 1343.18 499.867 1343.48 500.44C1343.8 501.013 1344.22 501.453 1344.72 501.76C1345.24 502.053 1345.79 502.2 1346.36 502.2C1346.95 502.2 1347.5 502.053 1348 501.76C1348.51 501.467 1348.92 501.04 1349.22 500.48C1349.54 499.907 1349.7 499.24 1349.7 498.48ZM1357.66 494.84V500.94C1357.66 501.353 1357.75 501.653 1357.94 501.84C1358.14 502.013 1358.47 502.1 1358.94 502.1H1360.34V504H1358.54C1357.51 504 1356.72 503.76 1356.18 503.28C1355.63 502.8 1355.36 502.02 1355.36 500.94V494.84H1354.06V492.98H1355.36V490.24H1357.66V492.98H1360.34V494.84H1357.66ZM1363.6 491.52C1363.19 491.52 1362.84 491.38 1362.56 491.1C1362.28 490.82 1362.14 490.473 1362.14 490.06C1362.14 489.647 1362.28 489.3 1362.56 489.02C1362.84 488.74 1363.19 488.6 1363.6 488.6C1364 488.6 1364.34 488.74 1364.62 489.02C1364.9 489.3 1365.04 489.647 1365.04 490.06C1365.04 490.473 1364.9 490.82 1364.62 491.1C1364.34 491.38 1364 491.52 1363.6 491.52ZM1364.72 492.98V504H1362.44V492.98H1364.72ZM1372.49 504.18C1371.45 504.18 1370.51 503.947 1369.67 503.48C1368.83 503 1368.17 502.333 1367.69 501.48C1367.21 500.613 1366.97 499.613 1366.97 498.48C1366.97 497.36 1367.22 496.367 1367.71 495.5C1368.21 494.633 1368.88 493.967 1369.73 493.5C1370.59 493.033 1371.54 492.8 1372.59 492.8C1373.65 492.8 1374.6 493.033 1375.45 493.5C1376.31 493.967 1376.98 494.633 1377.47 495.5C1377.97 496.367 1378.21 497.36 1378.21 498.48C1378.21 499.6 1377.96 500.593 1377.45 501.46C1376.95 502.327 1376.25 503 1375.37 503.48C1374.51 503.947 1373.55 504.18 1372.49 504.18ZM1372.49 502.2C1373.08 502.2 1373.63 502.06 1374.13 501.78C1374.65 501.5 1375.07 501.08 1375.39 500.52C1375.71 499.96 1375.87 499.28 1375.87 498.48C1375.87 497.68 1375.72 497.007 1375.41 496.46C1375.11 495.9 1374.7 495.48 1374.19 495.2C1373.69 494.92 1373.14 494.78 1372.55 494.78C1371.97 494.78 1371.42 494.92 1370.91 495.2C1370.42 495.48 1370.03 495.9 1369.73 496.46C1369.44 497.007 1369.29 497.68 1369.29 498.48C1369.29 499.667 1369.59 500.587 1370.19 501.24C1370.81 501.88 1371.57 502.2 1372.49 502.2ZM1386.03 492.8C1386.89 492.8 1387.67 492.98 1388.35 493.34C1389.04 493.7 1389.58 494.233 1389.97 494.94C1390.35 495.647 1390.55 496.5 1390.55 497.5V504H1388.29V497.84C1388.29 496.853 1388.04 496.1 1387.55 495.58C1387.05 495.047 1386.38 494.78 1385.53 494.78C1384.67 494.78 1383.99 495.047 1383.49 495.58C1382.99 496.1 1382.75 496.853 1382.75 497.84V504H1380.47V492.98H1382.75V494.24C1383.12 493.787 1383.59 493.433 1384.17 493.18C1384.75 492.927 1385.37 492.8 1386.03 492.8ZM1205.9 515.94V520.02H1210.7V521.88H1205.9V526.14H1211.3V528H1203.62V514.08H1211.3V515.94H1205.9ZM1215.03 528.14C1214.62 528.14 1214.27 528 1213.99 527.72C1213.71 527.44 1213.57 527.093 1213.57 526.68C1213.57 526.267 1213.71 525.92 1213.99 525.64C1214.27 525.36 1214.62 525.22 1215.03 525.22C1215.43 525.22 1215.77 525.36 1216.05 525.64C1216.33 525.92 1216.47 526.267 1216.47 526.68C1216.47 527.093 1216.33 527.44 1216.05 527.72C1215.77 528 1215.43 528.14 1215.03 528.14ZM1223.37 516.8C1224.23 516.8 1224.98 516.973 1225.63 517.32C1226.3 517.653 1226.82 518.073 1227.19 518.58V516.98H1229.49V528.18C1229.49 529.193 1229.28 530.093 1228.85 530.88C1228.43 531.68 1227.81 532.307 1226.99 532.76C1226.19 533.213 1225.23 533.44 1224.11 533.44C1222.62 533.44 1221.38 533.087 1220.39 532.38C1219.41 531.687 1218.85 530.74 1218.71 529.54H1220.97C1221.15 530.113 1221.51 530.573 1222.07 530.92C1222.65 531.28 1223.33 531.46 1224.11 531.46C1225.03 531.46 1225.77 531.18 1226.33 530.62C1226.91 530.06 1227.19 529.247 1227.19 528.18V526.34C1226.81 526.86 1226.28 527.3 1225.61 527.66C1224.96 528.007 1224.21 528.18 1223.37 528.18C1222.41 528.18 1221.53 527.94 1220.73 527.46C1219.95 526.967 1219.32 526.287 1218.85 525.42C1218.4 524.54 1218.17 523.547 1218.17 522.44C1218.17 521.333 1218.4 520.353 1218.85 519.5C1219.32 518.647 1219.95 517.987 1220.73 517.52C1221.53 517.04 1222.41 516.8 1223.37 516.8ZM1227.19 522.48C1227.19 521.72 1227.03 521.06 1226.71 520.5C1226.41 519.94 1226 519.513 1225.49 519.22C1224.99 518.927 1224.44 518.78 1223.85 518.78C1223.27 518.78 1222.72 518.927 1222.21 519.22C1221.71 519.5 1221.29 519.92 1220.97 520.48C1220.67 521.027 1220.51 521.68 1220.51 522.44C1220.51 523.2 1220.67 523.867 1220.97 524.44C1221.29 525.013 1221.71 525.453 1222.21 525.76C1222.73 526.053 1223.28 526.2 1223.85 526.2C1224.44 526.2 1224.99 526.053 1225.49 525.76C1226 525.467 1226.41 525.04 1226.71 524.48C1227.03 523.907 1227.19 523.24 1227.19 522.48ZM1233.41 528.14C1232.99 528.14 1232.65 528 1232.37 527.72C1232.09 527.44 1231.95 527.093 1231.95 526.68C1231.95 526.267 1232.09 525.92 1232.37 525.64C1232.65 525.36 1232.99 525.22 1233.41 525.22C1233.81 525.22 1234.15 525.36 1234.43 525.64C1234.71 525.92 1234.85 526.267 1234.85 526.68C1234.85 527.093 1234.71 527.44 1234.43 527.72C1234.15 528 1233.81 528.14 1233.41 528.14ZM1243.47 524.9C1244.75 523.793 1245.75 522.887 1246.49 522.18C1247.23 521.46 1247.85 520.713 1248.35 519.94C1248.84 519.167 1249.09 518.393 1249.09 517.62C1249.09 516.82 1248.89 516.193 1248.51 515.74C1248.13 515.287 1247.54 515.06 1246.73 515.06C1245.94 515.06 1245.33 515.313 1244.89 515.82C1244.46 516.313 1244.23 516.98 1244.21 517.82H1242.01C1242.05 516.3 1242.5 515.14 1243.37 514.34C1244.25 513.527 1245.36 513.12 1246.71 513.12C1248.16 513.12 1249.29 513.52 1250.11 514.32C1250.93 515.12 1251.35 516.187 1251.35 517.52C1251.35 518.48 1251.1 519.407 1250.61 520.3C1250.13 521.18 1249.55 521.973 1248.87 522.68C1248.2 523.373 1247.35 524.18 1246.31 525.1L1245.41 525.9H1251.75V527.8H1242.03V526.14L1243.47 524.9ZM1264.03 528.18C1262.99 528.18 1262.05 527.947 1261.21 527.48C1260.37 527 1259.71 526.333 1259.23 525.48C1258.75 524.613 1258.51 523.613 1258.51 522.48C1258.51 521.36 1258.75 520.367 1259.25 519.5C1259.74 518.633 1260.41 517.967 1261.27 517.5C1262.12 517.033 1263.07 516.8 1264.13 516.8C1265.18 516.8 1266.13 517.033 1266.99 517.5C1267.84 517.967 1268.51 518.633 1269.01 519.5C1269.5 520.367 1269.75 521.36 1269.75 522.48C1269.75 523.6 1269.49 524.593 1268.99 525.46C1268.48 526.327 1267.79 527 1266.91 527.48C1266.04 527.947 1265.08 528.18 1264.03 528.18ZM1264.03 526.2C1264.61 526.2 1265.16 526.06 1265.67 525.78C1266.19 525.5 1266.61 525.08 1266.93 524.52C1267.25 523.96 1267.41 523.28 1267.41 522.48C1267.41 521.68 1267.25 521.007 1266.95 520.46C1266.64 519.9 1266.23 519.48 1265.73 519.2C1265.22 518.92 1264.67 518.78 1264.09 518.78C1263.5 518.78 1262.95 518.92 1262.45 519.2C1261.95 519.48 1261.56 519.9 1261.27 520.46C1260.97 521.007 1260.83 521.68 1260.83 522.48C1260.83 523.667 1261.13 524.587 1261.73 525.24C1262.34 525.88 1263.11 526.2 1264.03 526.2ZM1276.62 518.84H1274.58V528H1272.28V518.84H1270.98V516.98H1272.28V516.2C1272.28 514.933 1272.61 514.013 1273.28 513.44C1273.96 512.853 1275.02 512.56 1276.46 512.56V514.46C1275.77 514.46 1275.28 514.593 1275 514.86C1274.72 515.113 1274.58 515.56 1274.58 516.2V516.98H1276.62V518.84ZM1284.8 524.9C1286.08 523.793 1287.08 522.887 1287.82 522.18C1288.56 521.46 1289.18 520.713 1289.68 519.94C1290.17 519.167 1290.42 518.393 1290.42 517.62C1290.42 516.82 1290.22 516.193 1289.84 515.74C1289.46 515.287 1288.87 515.06 1288.06 515.06C1287.27 515.06 1286.66 515.313 1286.22 515.82C1285.79 516.313 1285.56 516.98 1285.54 517.82H1283.34C1283.38 516.3 1283.83 515.14 1284.7 514.34C1285.58 513.527 1286.69 513.12 1288.04 513.12C1289.49 513.12 1290.62 513.52 1291.44 514.32C1292.26 515.12 1292.68 516.187 1292.68 517.52C1292.68 518.48 1292.43 519.407 1291.94 520.3C1291.46 521.18 1290.88 521.973 1290.2 522.68C1289.53 523.373 1288.68 524.18 1287.64 525.1L1286.74 525.9H1293.08V527.8H1283.36V526.14L1284.8 524.9Z" fill="black"/>
<circle cx="1248" cy="329" r="100" fill="#1F32D6"/>
<path d="M1238.55 270.395L1208.56 281.677C1201.65 284.257 1196 292.418 1196 299.739V344.324C1196 351.405 1200.69 360.706 1206.4 364.967L1232.24 384.229C1240.71 390.59 1254.65 390.59 1263.13 384.229L1288.97 364.967C1294.68 360.706 1299.37 351.405 1299.37 344.324V299.739C1299.37 292.358 1293.72 284.197 1286.81 281.617L1256.82 270.395C1251.71 268.535 1243.54 268.535 1238.55 270.395Z" fill="white"/>
<path d="M1232.07 348.992C1233.25 348.992 1234.43 348.992 1235.61 348.992C1235.95 348.992 1236.12 348.815 1236.12 348.462C1236.12 346.706 1236.13 344.95 1236.12 343.193C1236.11 342.914 1236.17 342.806 1236.48 342.809C1238.29 342.823 1240.11 342.811 1241.92 342.823C1242.2 342.825 1242.28 342.743 1242.28 342.468C1242.27 340.678 1242.28 338.889 1242.26 337.098C1242.26 336.772 1242.33 336.66 1242.68 336.665C1244.48 336.683 1246.28 336.669 1248.08 336.677C1248.31 336.677 1248.48 336.611 1248.64 336.446C1249.45 335.621 1250.27 334.813 1251.08 333.988C1251.25 333.824 1251.38 333.789 1251.61 333.852C1255.67 335.019 1259.46 334.409 1262.86 331.903C1265.85 329.701 1267.56 326.697 1267.93 322.99C1268.32 319.016 1267.11 315.551 1264.29 312.731C1261.45 309.879 1257.95 308.673 1253.94 309.076C1250.66 309.404 1247.92 310.841 1245.76 313.311C1243.2 316.235 1242.21 319.667 1242.73 323.521C1242.81 324.146 1242.98 324.762 1243.14 325.373C1243.21 325.622 1243.17 325.771 1242.99 325.953C1240.09 328.835 1237.19 331.724 1234.3 334.614C1232.28 336.625 1230.27 338.636 1228.27 340.656C1228.13 340.787 1228.03 341.015 1228.03 341.198C1228.02 343.666 1228.03 346.134 1228.02 348.603C1228.02 348.903 1228.09 349.005 1228.41 349C1229.63 348.982 1230.85 348.992 1232.08 348.992H1232.07ZM1253.67 318.983C1253.68 316.607 1255.59 314.699 1257.96 314.694C1260.26 314.689 1262.21 316.627 1262.22 318.943C1262.22 321.349 1260.3 323.243 1257.84 323.243C1255.6 323.243 1253.66 321.269 1253.67 318.984V318.983Z" fill="#1F32D6"/>
<path d="M528 337H1120" stroke="#1F32D6" stroke-width="2" stroke-dasharray="8 8"/>
<circle cx="527" cy="337" r="6" transform="rotate(90 527 337)" fill="white" stroke="#1F32D6" stroke-width="4"/>
<circle cx="1120" cy="337" r="6" transform="rotate(90 1120 337)" fill="white" stroke="#1F32D6" stroke-width="4"/>
<path d="M396 457L723 457C727.418 457 731 453.418 731 449L731 337" stroke="#1F32D6" stroke-width="2" stroke-dasharray="8 8"/>
<circle cx="394" cy="457" r="6" transform="rotate(90 394 457)" fill="white" stroke="#1F32D6" stroke-width="4"/>
<path d="M233.24 617.14C232.307 617.14 231.467 616.98 230.72 616.66C229.973 616.327 229.387 615.86 228.96 615.26C228.533 614.66 228.32 613.96 228.32 613.16H230.76C230.813 613.76 231.047 614.253 231.46 614.64C231.887 615.027 232.48 615.22 233.24 615.22C234.027 615.22 234.64 615.033 235.08 614.66C235.52 614.273 235.74 613.78 235.74 613.18C235.74 612.713 235.6 612.333 235.32 612.04C235.053 611.747 234.713 611.52 234.3 611.36C233.9 611.2 233.34 611.027 232.62 610.84C231.713 610.6 230.973 610.36 230.4 610.12C229.84 609.867 229.36 609.48 228.96 608.96C228.56 608.44 228.36 607.747 228.36 606.88C228.36 606.08 228.56 605.38 228.96 604.78C229.36 604.18 229.92 603.72 230.64 603.4C231.36 603.08 232.193 602.92 233.14 602.92C234.487 602.92 235.587 603.26 236.44 603.94C237.307 604.607 237.787 605.527 237.88 606.7H235.36C235.32 606.193 235.08 605.76 234.64 605.4C234.2 605.04 233.62 604.86 232.9 604.86C232.247 604.86 231.713 605.027 231.3 605.36C230.887 605.693 230.68 606.173 230.68 606.8C230.68 607.227 230.807 607.58 231.06 607.86C231.327 608.127 231.66 608.34 232.06 608.5C232.46 608.66 233.007 608.833 233.7 609.02C234.62 609.273 235.367 609.527 235.94 609.78C236.527 610.033 237.02 610.427 237.42 610.96C237.833 611.48 238.04 612.18 238.04 613.06C238.04 613.767 237.847 614.433 237.46 615.06C237.087 615.687 236.533 616.193 235.8 616.58C235.08 616.953 234.227 617.14 233.24 617.14ZM250.83 611.22C250.83 611.633 250.804 612.007 250.75 612.34H242.33C242.397 613.22 242.724 613.927 243.31 614.46C243.897 614.993 244.617 615.26 245.47 615.26C246.697 615.26 247.564 614.747 248.07 613.72H250.53C250.197 614.733 249.59 615.567 248.71 616.22C247.844 616.86 246.764 617.18 245.47 617.18C244.417 617.18 243.47 616.947 242.63 616.48C241.804 616 241.15 615.333 240.67 614.48C240.204 613.613 239.97 612.613 239.97 611.48C239.97 610.347 240.197 609.353 240.65 608.5C241.117 607.633 241.764 606.967 242.59 606.5C243.43 606.033 244.39 605.8 245.47 605.8C246.51 605.8 247.437 606.027 248.25 606.48C249.064 606.933 249.697 607.573 250.15 608.4C250.604 609.213 250.83 610.153 250.83 611.22ZM248.45 610.5C248.437 609.66 248.137 608.987 247.55 608.48C246.964 607.973 246.237 607.72 245.37 607.72C244.584 607.72 243.91 607.973 243.35 608.48C242.79 608.973 242.457 609.647 242.35 610.5H248.45ZM252.314 611.48C252.314 610.347 252.541 609.353 252.994 608.5C253.461 607.633 254.101 606.967 254.914 606.5C255.728 606.033 256.661 605.8 257.714 605.8C259.048 605.8 260.148 606.12 261.014 606.76C261.894 607.387 262.488 608.287 262.794 609.46H260.334C260.134 608.913 259.814 608.487 259.374 608.18C258.934 607.873 258.381 607.72 257.714 607.72C256.781 607.72 256.034 608.053 255.474 608.72C254.928 609.373 254.654 610.293 254.654 611.48C254.654 612.667 254.928 613.593 255.474 614.26C256.034 614.927 256.781 615.26 257.714 615.26C259.034 615.26 259.908 614.68 260.334 613.52H262.794C262.474 614.64 261.874 615.533 260.994 616.2C260.114 616.853 259.021 617.18 257.714 617.18C256.661 617.18 255.728 616.947 254.914 616.48C254.101 616 253.461 615.333 252.994 614.48C252.541 613.613 252.314 612.613 252.314 611.48ZM267.346 607.58C267.68 607.02 268.12 606.587 268.666 606.28C269.226 605.96 269.886 605.8 270.646 605.8V608.16H270.066C269.173 608.16 268.493 608.387 268.026 608.84C267.573 609.293 267.346 610.08 267.346 611.2V617H265.066V605.98H267.346V607.58ZM282.842 611.22C282.842 611.633 282.816 612.007 282.762 612.34H274.342C274.409 613.22 274.736 613.927 275.322 614.46C275.909 614.993 276.629 615.26 277.482 615.26C278.709 615.26 279.576 614.747 280.082 613.72H282.542C282.209 614.733 281.602 615.567 280.722 616.22C279.856 616.86 278.776 617.18 277.482 617.18C276.429 617.18 275.482 616.947 274.642 616.48C273.816 616 273.162 615.333 272.682 614.48C272.216 613.613 271.982 612.613 271.982 611.48C271.982 610.347 272.209 609.353 272.662 608.5C273.129 607.633 273.776 606.967 274.602 606.5C275.442 606.033 276.402 605.8 277.482 605.8C278.522 605.8 279.449 606.027 280.262 606.48C281.076 606.933 281.709 607.573 282.162 608.4C282.616 609.213 282.842 610.153 282.842 611.22ZM280.462 610.5C280.449 609.66 280.149 608.987 279.562 608.48C278.976 607.973 278.249 607.72 277.382 607.72C276.596 607.72 275.922 607.973 275.362 608.48C274.802 608.973 274.469 609.647 274.362 610.5H280.462ZM287.746 607.84V613.94C287.746 614.353 287.839 614.653 288.026 614.84C288.226 615.013 288.559 615.1 289.026 615.1H290.426V617H288.626C287.599 617 286.813 616.76 286.266 616.28C285.719 615.8 285.446 615.02 285.446 613.94V607.84H284.146V605.98H285.446V603.24H287.746V605.98H290.426V607.84H287.746ZM301.723 617.18C300.856 617.18 300.076 617.027 299.383 616.72C298.703 616.4 298.163 615.973 297.763 615.44C297.363 614.893 297.149 614.287 297.123 613.62H299.483C299.523 614.087 299.743 614.48 300.143 614.8C300.556 615.107 301.069 615.26 301.683 615.26C302.323 615.26 302.816 615.14 303.163 614.9C303.523 614.647 303.703 614.327 303.703 613.94C303.703 613.527 303.503 613.22 303.103 613.02C302.716 612.82 302.096 612.6 301.243 612.36C300.416 612.133 299.743 611.913 299.223 611.7C298.703 611.487 298.249 611.16 297.863 610.72C297.489 610.28 297.303 609.7 297.303 608.98C297.303 608.393 297.476 607.86 297.823 607.38C298.169 606.887 298.663 606.5 299.303 606.22C299.956 605.94 300.703 605.8 301.543 605.8C302.796 605.8 303.803 606.12 304.563 606.76C305.336 607.387 305.749 608.247 305.803 609.34H303.523C303.483 608.847 303.283 608.453 302.923 608.16C302.563 607.867 302.076 607.72 301.463 607.72C300.863 607.72 300.403 607.833 300.083 608.06C299.763 608.287 299.603 608.587 299.603 608.96C299.603 609.253 299.709 609.5 299.923 609.7C300.136 609.9 300.396 610.06 300.703 610.18C301.009 610.287 301.463 610.427 302.063 610.6C302.863 610.813 303.516 611.033 304.023 611.26C304.543 611.473 304.989 611.793 305.363 612.22C305.736 612.647 305.929 613.213 305.943 613.92C305.943 614.547 305.769 615.107 305.423 615.6C305.076 616.093 304.583 616.48 303.943 616.76C303.316 617.04 302.576 617.18 301.723 617.18ZM314.106 605.8C314.946 605.8 315.693 605.98 316.346 606.34C317.013 606.7 317.533 607.233 317.906 607.94C318.293 608.647 318.486 609.5 318.486 610.5V617H316.226V610.84C316.226 609.853 315.98 609.1 315.486 608.58C314.993 608.047 314.32 607.78 313.466 607.78C312.613 607.78 311.933 608.047 311.426 608.58C310.933 609.1 310.686 609.853 310.686 610.84V617H308.406V602.2H310.686V607.26C311.073 606.793 311.56 606.433 312.146 606.18C312.746 605.927 313.4 605.8 314.106 605.8ZM320.635 611.44C320.635 610.333 320.861 609.353 321.315 608.5C321.781 607.647 322.408 606.987 323.195 606.52C323.995 606.04 324.875 605.8 325.835 605.8C326.701 605.8 327.455 605.973 328.095 606.32C328.748 606.653 329.268 607.073 329.655 607.58V605.98H331.955V617H329.655V615.36C329.268 615.88 328.741 616.313 328.075 616.66C327.408 617.007 326.648 617.18 325.795 617.18C324.848 617.18 323.981 616.94 323.195 616.46C322.408 615.967 321.781 615.287 321.315 614.42C320.861 613.54 320.635 612.547 320.635 611.44ZM329.655 611.48C329.655 610.72 329.495 610.06 329.175 609.5C328.868 608.94 328.461 608.513 327.955 608.22C327.448 607.927 326.901 607.78 326.315 607.78C325.728 607.78 325.181 607.927 324.675 608.22C324.168 608.5 323.755 608.92 323.435 609.48C323.128 610.027 322.975 610.68 322.975 611.44C322.975 612.2 323.128 612.867 323.435 613.44C323.755 614.013 324.168 614.453 324.675 614.76C325.195 615.053 325.741 615.2 326.315 615.2C326.901 615.2 327.448 615.053 327.955 614.76C328.461 614.467 328.868 614.04 329.175 613.48C329.495 612.907 329.655 612.24 329.655 611.48ZM337.229 607.58C337.563 607.02 338.003 606.587 338.549 606.28C339.109 605.96 339.769 605.8 340.529 605.8V608.16H339.949C339.056 608.16 338.376 608.387 337.909 608.84C337.456 609.293 337.229 610.08 337.229 611.2V617H334.949V605.98H337.229V607.58ZM352.725 611.22C352.725 611.633 352.698 612.007 352.645 612.34H344.225C344.292 613.22 344.618 613.927 345.205 614.46C345.792 614.993 346.512 615.26 347.365 615.26C348.592 615.26 349.458 614.747 349.965 613.72H352.425C352.092 614.733 351.485 615.567 350.605 616.22C349.738 616.86 348.658 617.18 347.365 617.18C346.312 617.18 345.365 616.947 344.525 616.48C343.698 616 343.045 615.333 342.565 614.48C342.098 613.613 341.865 612.613 341.865 611.48C341.865 610.347 342.092 609.353 342.545 608.5C343.012 607.633 343.658 606.967 344.485 606.5C345.325 606.033 346.285 605.8 347.365 605.8C348.405 605.8 349.332 606.027 350.145 606.48C350.958 606.933 351.592 607.573 352.045 608.4C352.498 609.213 352.725 610.153 352.725 611.22ZM350.345 610.5C350.332 609.66 350.032 608.987 349.445 608.48C348.858 607.973 348.132 607.72 347.265 607.72C346.478 607.72 345.805 607.973 345.245 608.48C344.685 608.973 344.352 609.647 344.245 610.5H350.345ZM358.969 617.18C358.102 617.18 357.322 617.027 356.629 616.72C355.949 616.4 355.409 615.973 355.009 615.44C354.609 614.893 354.395 614.287 354.369 613.62H356.729C356.769 614.087 356.989 614.48 357.389 614.8C357.802 615.107 358.315 615.26 358.929 615.26C359.569 615.26 360.062 615.14 360.409 614.9C360.769 614.647 360.949 614.327 360.949 613.94C360.949 613.527 360.749 613.22 360.349 613.02C359.962 612.82 359.342 612.6 358.489 612.36C357.662 612.133 356.989 611.913 356.469 611.7C355.949 611.487 355.495 611.16 355.109 610.72C354.735 610.28 354.549 609.7 354.549 608.98C354.549 608.393 354.722 607.86 355.069 607.38C355.415 606.887 355.909 606.5 356.549 606.22C357.202 605.94 357.949 605.8 358.789 605.8C360.042 605.8 361.049 606.12 361.809 606.76C362.582 607.387 362.995 608.247 363.049 609.34H360.769C360.729 608.847 360.529 608.453 360.169 608.16C359.809 607.867 359.322 607.72 358.709 607.72C358.109 607.72 357.649 607.833 357.329 608.06C357.009 608.287 356.849 608.587 356.849 608.96C356.849 609.253 356.955 609.5 357.169 609.7C357.382 609.9 357.642 610.06 357.949 610.18C358.255 610.287 358.709 610.427 359.309 610.6C360.109 610.813 360.762 611.033 361.269 611.26C361.789 611.473 362.235 611.793 362.609 612.22C362.982 612.647 363.175 613.213 363.189 613.92C363.189 614.547 363.015 615.107 362.669 615.6C362.322 616.093 361.829 616.48 361.189 616.76C360.562 617.04 359.822 617.18 358.969 617.18ZM375.628 617.18C374.588 617.18 373.648 616.947 372.808 616.48C371.968 616 371.308 615.333 370.828 614.48C370.348 613.613 370.108 612.613 370.108 611.48C370.108 610.36 370.354 609.367 370.848 608.5C371.341 607.633 372.014 606.967 372.868 606.5C373.721 606.033 374.674 605.8 375.728 605.8C376.781 605.8 377.734 606.033 378.588 606.5C379.441 606.967 380.114 607.633 380.608 608.5C381.101 609.367 381.348 610.36 381.348 611.48C381.348 612.6 381.094 613.593 380.588 614.46C380.081 615.327 379.388 616 378.508 616.48C377.641 616.947 376.681 617.18 375.628 617.18ZM375.628 615.2C376.214 615.2 376.761 615.06 377.268 614.78C377.788 614.5 378.208 614.08 378.528 613.52C378.848 612.96 379.008 612.28 379.008 611.48C379.008 610.68 378.854 610.007 378.548 609.46C378.241 608.9 377.834 608.48 377.328 608.2C376.821 607.92 376.274 607.78 375.688 607.78C375.101 607.78 374.554 607.92 374.048 608.2C373.554 608.48 373.161 608.9 372.868 609.46C372.574 610.007 372.428 610.68 372.428 611.48C372.428 612.667 372.728 613.587 373.328 614.24C373.941 614.88 374.708 615.2 375.628 615.2ZM388.222 607.84H386.182V617H383.882V607.84H382.582V605.98H383.882V605.2C383.882 603.933 384.215 603.013 384.882 602.44C385.562 601.853 386.622 601.56 388.062 601.56V603.46C387.368 603.46 386.882 603.593 386.602 603.86C386.322 604.113 386.182 604.56 386.182 605.2V605.98H388.222V607.84ZM400.218 617.18C399.178 617.18 398.238 616.947 397.398 616.48C396.558 616 395.898 615.333 395.418 614.48C394.938 613.613 394.698 612.613 394.698 611.48C394.698 610.36 394.944 609.367 395.438 608.5C395.931 607.633 396.604 606.967 397.458 606.5C398.311 606.033 399.264 605.8 400.318 605.8C401.371 605.8 402.324 606.033 403.178 606.5C404.031 606.967 404.704 607.633 405.198 608.5C405.691 609.367 405.938 610.36 405.938 611.48C405.938 612.6 405.684 613.593 405.178 614.46C404.671 615.327 403.978 616 403.098 616.48C402.231 616.947 401.271 617.18 400.218 617.18ZM400.218 615.2C400.804 615.2 401.351 615.06 401.858 614.78C402.378 614.5 402.798 614.08 403.118 613.52C403.438 612.96 403.598 612.28 403.598 611.48C403.598 610.68 403.444 610.007 403.138 609.46C402.831 608.9 402.424 608.48 401.918 608.2C401.411 607.92 400.864 607.78 400.278 607.78C399.691 607.78 399.144 607.92 398.638 608.2C398.144 608.48 397.751 608.9 397.458 609.46C397.164 610.007 397.018 610.68 397.018 611.48C397.018 612.667 397.318 613.587 397.918 614.24C398.531 614.88 399.298 615.2 400.218 615.2ZM413.751 605.8C414.618 605.8 415.391 605.98 416.071 606.34C416.765 606.7 417.305 607.233 417.691 607.94C418.078 608.647 418.271 609.5 418.271 610.5V617H416.011V610.84C416.011 609.853 415.765 609.1 415.271 608.58C414.778 608.047 414.105 607.78 413.251 607.78C412.398 607.78 411.718 608.047 411.211 608.58C410.718 609.1 410.471 609.853 410.471 610.84V617H408.191V605.98H410.471V607.24C410.845 606.787 411.318 606.433 411.891 606.18C412.478 605.927 413.098 605.8 413.751 605.8ZM431.28 611.22C431.28 611.633 431.253 612.007 431.2 612.34H422.78C422.846 613.22 423.173 613.927 423.76 614.46C424.346 614.993 425.066 615.26 425.92 615.26C427.146 615.26 428.013 614.747 428.52 613.72H430.98C430.646 614.733 430.04 615.567 429.16 616.22C428.293 616.86 427.213 617.18 425.92 617.18C424.866 617.18 423.92 616.947 423.08 616.48C422.253 616 421.6 615.333 421.12 614.48C420.653 613.613 420.42 612.613 420.42 611.48C420.42 610.347 420.646 609.353 421.1 608.5C421.566 607.633 422.213 606.967 423.04 606.5C423.88 606.033 424.84 605.8 425.92 605.8C426.96 605.8 427.886 606.027 428.7 606.48C429.513 606.933 430.146 607.573 430.6 608.4C431.053 609.213 431.28 610.153 431.28 611.22ZM428.9 610.5C428.886 609.66 428.586 608.987 428 608.48C427.413 607.973 426.686 607.72 425.82 607.72C425.033 607.72 424.36 607.973 423.8 608.48C423.24 608.973 422.906 609.647 422.8 610.5H428.9ZM440.999 607.6C441.385 607.093 441.912 606.667 442.579 606.32C443.245 605.973 443.999 605.8 444.839 605.8C445.799 605.8 446.672 606.04 447.459 606.52C448.259 606.987 448.885 607.647 449.339 608.5C449.792 609.353 450.019 610.333 450.019 611.44C450.019 612.547 449.792 613.54 449.339 614.42C448.885 615.287 448.259 615.967 447.459 616.46C446.672 616.94 445.799 617.18 444.839 617.18C443.999 617.18 443.252 617.013 442.599 616.68C441.945 616.333 441.412 615.907 440.999 615.4V622.24H438.719V605.98H440.999V607.6ZM447.699 611.44C447.699 610.68 447.539 610.027 447.219 609.48C446.912 608.92 446.499 608.5 445.979 608.22C445.472 607.927 444.925 607.78 444.339 607.78C443.765 607.78 443.219 607.927 442.699 608.22C442.192 608.513 441.779 608.94 441.459 609.5C441.152 610.06 440.999 610.72 440.999 611.48C440.999 612.24 441.152 612.907 441.459 613.48C441.779 614.04 442.192 614.467 442.699 614.76C443.219 615.053 443.765 615.2 444.339 615.2C444.925 615.2 445.472 615.053 445.979 614.76C446.499 614.453 446.912 614.013 447.219 613.44C447.539 612.867 447.699 612.2 447.699 611.44ZM454.553 607.58C454.887 607.02 455.327 606.587 455.873 606.28C456.433 605.96 457.093 605.8 457.853 605.8V608.16H457.273C456.38 608.16 455.7 608.387 455.233 608.84C454.78 609.293 454.553 610.08 454.553 611.2V617H452.273V605.98H454.553V607.58ZM461.109 604.52C460.696 604.52 460.349 604.38 460.069 604.1C459.789 603.82 459.649 603.473 459.649 603.06C459.649 602.647 459.789 602.3 460.069 602.02C460.349 601.74 460.696 601.6 461.109 601.6C461.509 601.6 461.849 601.74 462.129 602.02C462.409 602.3 462.549 602.647 462.549 603.06C462.549 603.473 462.409 603.82 462.129 604.1C461.849 604.38 461.509 604.52 461.109 604.52ZM462.229 605.98V617H459.949V605.98H462.229ZM469.483 614.96L472.603 605.98H475.023L470.823 617H468.103L463.923 605.98H466.363L469.483 614.96ZM475.986 611.44C475.986 610.333 476.213 609.353 476.666 608.5C477.133 607.647 477.759 606.987 478.546 606.52C479.346 606.04 480.226 605.8 481.186 605.8C482.053 605.8 482.806 605.973 483.446 606.32C484.099 606.653 484.619 607.073 485.006 607.58V605.98H487.306V617H485.006V615.36C484.619 615.88 484.093 616.313 483.426 616.66C482.759 617.007 481.999 617.18 481.146 617.18C480.199 617.18 479.333 616.94 478.546 616.46C477.759 615.967 477.133 615.287 476.666 614.42C476.213 613.54 475.986 612.547 475.986 611.44ZM485.006 611.48C485.006 610.72 484.846 610.06 484.526 609.5C484.219 608.94 483.813 608.513 483.306 608.22C482.799 607.927 482.253 607.78 481.666 607.78C481.079 607.78 480.533 607.927 480.026 608.22C479.519 608.5 479.106 608.92 478.786 609.48C478.479 610.027 478.326 610.68 478.326 611.44C478.326 612.2 478.479 612.867 478.786 613.44C479.106 614.013 479.519 614.453 480.026 614.76C480.546 615.053 481.093 615.2 481.666 615.2C482.253 615.2 482.799 615.053 483.306 614.76C483.813 614.467 484.219 614.04 484.526 613.48C484.846 612.907 485.006 612.24 485.006 611.48ZM492.961 607.84V613.94C492.961 614.353 493.054 614.653 493.241 614.84C493.441 615.013 493.774 615.1 494.241 615.1H495.641V617H493.841C492.814 617 492.027 616.76 491.481 616.28C490.934 615.8 490.661 615.02 490.661 613.94V607.84H489.361V605.98H490.661V603.24H492.961V605.98H495.641V607.84H492.961ZM507.842 611.22C507.842 611.633 507.816 612.007 507.762 612.34H499.342C499.409 613.22 499.736 613.927 500.322 614.46C500.909 614.993 501.629 615.26 502.482 615.26C503.709 615.26 504.576 614.747 505.082 613.72H507.542C507.209 614.733 506.602 615.567 505.722 616.22C504.856 616.86 503.776 617.18 502.482 617.18C501.429 617.18 500.482 616.947 499.642 616.48C498.816 616 498.162 615.333 497.682 614.48C497.216 613.613 496.982 612.613 496.982 611.48C496.982 610.347 497.209 609.353 497.662 608.5C498.129 607.633 498.776 606.967 499.602 606.5C500.442 606.033 501.402 605.8 502.482 605.8C503.522 605.8 504.449 606.027 505.262 606.48C506.076 606.933 506.709 607.573 507.162 608.4C507.616 609.213 507.842 610.153 507.842 611.22ZM505.462 610.5C505.449 609.66 505.149 608.987 504.562 608.48C503.976 607.973 503.249 607.72 502.382 607.72C501.596 607.72 500.922 607.973 500.362 608.48C499.802 608.973 499.469 609.647 499.362 610.5H505.462ZM519.641 611.5L524.721 617H521.641L517.561 612.26V617H515.281V602.2H517.561V610.8L521.561 605.98H524.721L519.641 611.5ZM536.455 611.22C536.455 611.633 536.429 612.007 536.375 612.34H527.955C528.022 613.22 528.349 613.927 528.935 614.46C529.522 614.993 530.242 615.26 531.095 615.26C532.322 615.26 533.189 614.747 533.695 613.72H536.155C535.822 614.733 535.215 615.567 534.335 616.22C533.469 616.86 532.389 617.18 531.095 617.18C530.042 617.18 529.095 616.947 528.255 616.48C527.429 616 526.775 615.333 526.295 614.48C525.829 613.613 525.595 612.613 525.595 611.48C525.595 610.347 525.822 609.353 526.275 608.5C526.742 607.633 527.389 606.967 528.215 606.5C529.055 606.033 530.015 605.8 531.095 605.8C532.135 605.8 533.062 606.027 533.875 606.48C534.689 606.933 535.322 607.573 535.775 608.4C536.229 609.213 536.455 610.153 536.455 611.22ZM534.075 610.5C534.062 609.66 533.762 608.987 533.175 608.48C532.589 607.973 531.862 607.72 530.995 607.72C530.209 607.72 529.535 607.973 528.975 608.48C528.415 608.973 528.082 609.647 527.975 610.5H534.075ZM548.619 605.98L541.859 622.18H539.499L541.739 616.82L537.399 605.98H539.939L543.039 614.38L546.259 605.98H548.619Z" fill="black"/>
<path d="M772.11 372.14C770.816 372.14 769.623 371.84 768.53 371.24C767.45 370.627 766.59 369.78 765.95 368.7C765.323 367.607 765.01 366.38 765.01 365.02C765.01 363.66 765.323 362.44 765.95 361.36C766.59 360.28 767.45 359.44 768.53 358.84C769.623 358.227 770.816 357.92 772.11 357.92C773.416 357.92 774.61 358.227 775.69 358.84C776.783 359.44 777.643 360.28 778.27 361.36C778.896 362.44 779.21 363.66 779.21 365.02C779.21 366.38 778.896 367.607 778.27 368.7C777.643 369.78 776.783 370.627 775.69 371.24C774.61 371.84 773.416 372.14 772.11 372.14ZM772.11 370.16C773.03 370.16 773.85 369.953 774.57 369.54C775.29 369.113 775.85 368.513 776.25 367.74C776.663 366.953 776.87 366.047 776.87 365.02C776.87 363.993 776.663 363.093 776.25 362.32C775.85 361.547 775.29 360.953 774.57 360.54C773.85 360.127 773.03 359.92 772.11 359.92C771.19 359.92 770.37 360.127 769.65 360.54C768.93 360.953 768.363 361.547 767.95 362.32C767.55 363.093 767.35 363.993 767.35 365.02C767.35 366.047 767.55 366.953 767.95 367.74C768.363 368.513 768.93 369.113 769.65 369.54C770.37 369.953 771.19 370.16 772.11 370.16ZM787.013 360.8C787.88 360.8 788.653 360.98 789.333 361.34C790.026 361.7 790.566 362.233 790.953 362.94C791.34 363.647 791.533 364.5 791.533 365.5V372H789.273V365.84C789.273 364.853 789.026 364.1 788.533 363.58C788.04 363.047 787.366 362.78 786.513 362.78C785.66 362.78 784.98 363.047 784.473 363.58C783.98 364.1 783.733 364.853 783.733 365.84V372H781.453V360.98H783.733V362.24C784.106 361.787 784.58 361.433 785.153 361.18C785.74 360.927 786.36 360.8 787.013 360.8ZM804.541 366.22C804.541 366.633 804.515 367.007 804.461 367.34H796.041C796.108 368.22 796.435 368.927 797.021 369.46C797.608 369.993 798.328 370.26 799.181 370.26C800.408 370.26 801.275 369.747 801.781 368.72H804.241C803.908 369.733 803.301 370.567 802.421 371.22C801.555 371.86 800.475 372.18 799.181 372.18C798.128 372.18 797.181 371.947 796.341 371.48C795.515 371 794.861 370.333 794.381 369.48C793.915 368.613 793.681 367.613 793.681 366.48C793.681 365.347 793.908 364.353 794.361 363.5C794.828 362.633 795.475 361.967 796.301 361.5C797.141 361.033 798.101 360.8 799.181 360.8C800.221 360.8 801.148 361.027 801.961 361.48C802.775 361.933 803.408 362.573 803.861 363.4C804.315 364.213 804.541 365.153 804.541 366.22ZM802.161 365.5C802.148 364.66 801.848 363.987 801.261 363.48C800.675 362.973 799.948 362.72 799.081 362.72C798.295 362.72 797.621 362.973 797.061 363.48C796.501 363.973 796.168 364.647 796.061 365.5H802.161ZM815.98 372.18C815.114 372.18 814.334 372.027 813.64 371.72C812.96 371.4 812.42 370.973 812.02 370.44C811.62 369.893 811.407 369.287 811.38 368.62H813.74C813.78 369.087 814 369.48 814.4 369.8C814.814 370.107 815.327 370.26 815.94 370.26C816.58 370.26 817.074 370.14 817.42 369.9C817.78 369.647 817.96 369.327 817.96 368.94C817.96 368.527 817.76 368.22 817.36 368.02C816.974 367.82 816.354 367.6 815.5 367.36C814.674 367.133 814 366.913 813.48 366.7C812.96 366.487 812.507 366.16 812.12 365.72C811.747 365.28 811.56 364.7 811.56 363.98C811.56 363.393 811.734 362.86 812.08 362.38C812.427 361.887 812.92 361.5 813.56 361.22C814.214 360.94 814.96 360.8 815.8 360.8C817.054 360.8 818.06 361.12 818.82 361.76C819.594 362.387 820.007 363.247 820.06 364.34H817.78C817.74 363.847 817.54 363.453 817.18 363.16C816.82 362.867 816.334 362.72 815.72 362.72C815.12 362.72 814.66 362.833 814.34 363.06C814.02 363.287 813.86 363.587 813.86 363.96C813.86 364.253 813.967 364.5 814.18 364.7C814.394 364.9 814.654 365.06 814.96 365.18C815.267 365.287 815.72 365.427 816.32 365.6C817.12 365.813 817.774 366.033 818.28 366.26C818.8 366.473 819.247 366.793 819.62 367.22C819.994 367.647 820.187 368.213 820.2 368.92C820.2 369.547 820.027 370.107 819.68 370.6C819.334 371.093 818.84 371.48 818.2 371.76C817.574 372.04 816.834 372.18 815.98 372.18ZM823.824 359.52C823.411 359.52 823.064 359.38 822.784 359.1C822.504 358.82 822.364 358.473 822.364 358.06C822.364 357.647 822.504 357.3 822.784 357.02C823.064 356.74 823.411 356.6 823.824 356.6C824.224 356.6 824.564 356.74 824.844 357.02C825.124 357.3 825.264 357.647 825.264 358.06C825.264 358.473 825.124 358.82 824.844 359.1C824.564 359.38 824.224 359.52 823.824 359.52ZM824.944 360.98V372H822.664V360.98H824.944ZM833.498 360.8C834.364 360.8 835.138 360.98 835.818 361.34C836.511 361.7 837.051 362.233 837.438 362.94C837.824 363.647 838.018 364.5 838.018 365.5V372H835.758V365.84C835.758 364.853 835.511 364.1 835.018 363.58C834.524 363.047 833.851 362.78 832.998 362.78C832.144 362.78 831.464 363.047 830.958 363.58C830.464 364.1 830.218 364.853 830.218 365.84V372H827.938V360.98H830.218V362.24C830.591 361.787 831.064 361.433 831.638 361.18C832.224 360.927 832.844 360.8 833.498 360.8ZM845.366 360.8C846.219 360.8 846.972 360.973 847.626 361.32C848.292 361.653 848.812 362.073 849.186 362.58V360.98H851.486V372.18C851.486 373.193 851.272 374.093 850.846 374.88C850.419 375.68 849.799 376.307 848.986 376.76C848.186 377.213 847.226 377.44 846.106 377.44C844.612 377.44 843.372 377.087 842.386 376.38C841.399 375.687 840.839 374.74 840.706 373.54H842.966C843.139 374.113 843.506 374.573 844.066 374.92C844.639 375.28 845.319 375.46 846.106 375.46C847.026 375.46 847.766 375.18 848.326 374.62C848.899 374.06 849.186 373.247 849.186 372.18V370.34C848.799 370.86 848.272 371.3 847.606 371.66C846.952 372.007 846.206 372.18 845.366 372.18C844.406 372.18 843.526 371.94 842.726 371.46C841.939 370.967 841.312 370.287 840.846 369.42C840.392 368.54 840.166 367.547 840.166 366.44C840.166 365.333 840.392 364.353 840.846 363.5C841.312 362.647 841.939 361.987 842.726 361.52C843.526 361.04 844.406 360.8 845.366 360.8ZM849.186 366.48C849.186 365.72 849.026 365.06 848.706 364.5C848.399 363.94 847.992 363.513 847.486 363.22C846.979 362.927 846.432 362.78 845.846 362.78C845.259 362.78 844.712 362.927 844.206 363.22C843.699 363.5 843.286 363.92 842.966 364.48C842.659 365.027 842.506 365.68 842.506 366.44C842.506 367.2 842.659 367.867 842.966 368.44C843.286 369.013 843.699 369.453 844.206 369.76C844.726 370.053 845.272 370.2 845.846 370.2C846.432 370.2 846.979 370.053 847.486 369.76C847.992 369.467 848.399 369.04 848.706 368.48C849.026 367.907 849.186 367.24 849.186 366.48ZM856.76 357.2V372H854.48V357.2H856.76ZM869.854 366.22C869.854 366.633 869.827 367.007 869.774 367.34H861.354C861.421 368.22 861.747 368.927 862.334 369.46C862.921 369.993 863.641 370.26 864.494 370.26C865.721 370.26 866.587 369.747 867.094 368.72H869.554C869.221 369.733 868.614 370.567 867.734 371.22C866.867 371.86 865.787 372.18 864.494 372.18C863.441 372.18 862.494 371.947 861.654 371.48C860.827 371 860.174 370.333 859.694 369.48C859.227 368.613 858.994 367.613 858.994 366.48C858.994 365.347 859.221 364.353 859.674 363.5C860.141 362.633 860.787 361.967 861.614 361.5C862.454 361.033 863.414 360.8 864.494 360.8C865.534 360.8 866.461 361.027 867.274 361.48C868.087 361.933 868.721 362.573 869.174 363.4C869.627 364.213 869.854 365.153 869.854 366.22ZM867.474 365.5C867.461 364.66 867.161 363.987 866.574 363.48C865.987 362.973 865.261 362.72 864.394 362.72C863.607 362.72 862.934 362.973 862.374 363.48C861.814 363.973 861.481 364.647 861.374 365.5H867.474ZM882.073 372.18C881.033 372.18 880.093 371.947 879.253 371.48C878.413 371 877.753 370.333 877.273 369.48C876.793 368.613 876.553 367.613 876.553 366.48C876.553 365.36 876.8 364.367 877.293 363.5C877.786 362.633 878.46 361.967 879.313 361.5C880.166 361.033 881.12 360.8 882.173 360.8C883.226 360.8 884.18 361.033 885.033 361.5C885.886 361.967 886.56 362.633 887.053 363.5C887.546 364.367 887.793 365.36 887.793 366.48C887.793 367.6 887.54 368.593 887.033 369.46C886.526 370.327 885.833 371 884.953 371.48C884.086 371.947 883.126 372.18 882.073 372.18ZM882.073 370.2C882.66 370.2 883.206 370.06 883.713 369.78C884.233 369.5 884.653 369.08 884.973 368.52C885.293 367.96 885.453 367.28 885.453 366.48C885.453 365.68 885.3 365.007 884.993 364.46C884.686 363.9 884.28 363.48 883.773 363.2C883.266 362.92 882.72 362.78 882.133 362.78C881.546 362.78 881 362.92 880.493 363.2C880 363.48 879.606 363.9 879.313 364.46C879.02 365.007 878.873 365.68 878.873 366.48C878.873 367.667 879.173 368.587 879.773 369.24C880.386 369.88 881.153 370.2 882.073 370.2ZM895.607 360.8C896.474 360.8 897.247 360.98 897.927 361.34C898.62 361.7 899.16 362.233 899.547 362.94C899.934 363.647 900.127 364.5 900.127 365.5V372H897.867V365.84C897.867 364.853 897.62 364.1 897.127 363.58C896.634 363.047 895.96 362.78 895.107 362.78C894.254 362.78 893.574 363.047 893.067 363.58C892.574 364.1 892.327 364.853 892.327 365.84V372H890.047V360.98H892.327V362.24C892.7 361.787 893.174 361.433 893.747 361.18C894.334 360.927 894.954 360.8 895.607 360.8ZM911.495 363.8V365.72H903.275V363.8H911.495ZM913.974 366.48C913.974 365.347 914.201 364.353 914.654 363.5C915.121 362.633 915.761 361.967 916.574 361.5C917.388 361.033 918.321 360.8 919.374 360.8C920.708 360.8 921.808 361.12 922.674 361.76C923.554 362.387 924.148 363.287 924.454 364.46H921.994C921.794 363.913 921.474 363.487 921.034 363.18C920.594 362.873 920.041 362.72 919.374 362.72C918.441 362.72 917.694 363.053 917.134 363.72C916.588 364.373 916.314 365.293 916.314 366.48C916.314 367.667 916.588 368.593 917.134 369.26C917.694 369.927 918.441 370.26 919.374 370.26C920.694 370.26 921.568 369.68 921.994 368.52H924.454C924.134 369.64 923.534 370.533 922.654 371.2C921.774 371.853 920.681 372.18 919.374 372.18C918.321 372.18 917.388 371.947 916.574 371.48C915.761 371 915.121 370.333 914.654 369.48C914.201 368.613 913.974 367.613 913.974 366.48ZM932.427 360.8C933.267 360.8 934.013 360.98 934.667 361.34C935.333 361.7 935.853 362.233 936.227 362.94C936.613 363.647 936.807 364.5 936.807 365.5V372H934.547V365.84C934.547 364.853 934.3 364.1 933.807 363.58C933.313 363.047 932.64 362.78 931.787 362.78C930.933 362.78 930.253 363.047 929.747 363.58C929.253 364.1 929.007 364.853 929.007 365.84V372H926.727V357.2H929.007V362.26C929.393 361.793 929.88 361.433 930.467 361.18C931.067 360.927 931.72 360.8 932.427 360.8ZM938.955 366.44C938.955 365.333 939.182 364.353 939.635 363.5C940.102 362.647 940.728 361.987 941.515 361.52C942.315 361.04 943.195 360.8 944.155 360.8C945.022 360.8 945.775 360.973 946.415 361.32C947.068 361.653 947.588 362.073 947.975 362.58V360.98H950.275V372H947.975V370.36C947.588 370.88 947.062 371.313 946.395 371.66C945.728 372.007 944.968 372.18 944.115 372.18C943.168 372.18 942.302 371.94 941.515 371.46C940.728 370.967 940.102 370.287 939.635 369.42C939.182 368.54 938.955 367.547 938.955 366.44ZM947.975 366.48C947.975 365.72 947.815 365.06 947.495 364.5C947.188 363.94 946.782 363.513 946.275 363.22C945.768 362.927 945.222 362.78 944.635 362.78C944.048 362.78 943.502 362.927 942.995 363.22C942.488 363.5 942.075 363.92 941.755 364.48C941.448 365.027 941.295 365.68 941.295 366.44C941.295 367.2 941.448 367.867 941.755 368.44C942.075 369.013 942.488 369.453 942.995 369.76C943.515 370.053 944.062 370.2 944.635 370.2C945.222 370.2 945.768 370.053 946.275 369.76C946.782 369.467 947.188 369.04 947.495 368.48C947.815 367.907 947.975 367.24 947.975 366.48ZM954.43 359.52C954.016 359.52 953.67 359.38 953.39 359.1C953.11 358.82 952.97 358.473 952.97 358.06C952.97 357.647 953.11 357.3 953.39 357.02C953.67 356.74 954.016 356.6 954.43 356.6C954.83 356.6 955.17 356.74 955.45 357.02C955.73 357.3 955.87 357.647 955.87 358.06C955.87 358.473 955.73 358.82 955.45 359.1C955.17 359.38 954.83 359.52 954.43 359.52ZM955.55 360.98V372H953.27V360.98H955.55ZM964.103 360.8C964.97 360.8 965.743 360.98 966.423 361.34C967.116 361.7 967.656 362.233 968.043 362.94C968.43 363.647 968.623 364.5 968.623 365.5V372H966.363V365.84C966.363 364.853 966.116 364.1 965.623 363.58C965.13 363.047 964.456 362.78 963.603 362.78C962.75 362.78 962.07 363.047 961.563 363.58C961.07 364.1 960.823 364.853 960.823 365.84V372H958.543V360.98H960.823V362.24C961.196 361.787 961.67 361.433 962.243 361.18C962.83 360.927 963.45 360.8 964.103 360.8ZM980.727 372.18C979.86 372.18 979.08 372.027 978.387 371.72C977.707 371.4 977.167 370.973 976.767 370.44C976.367 369.893 976.153 369.287 976.127 368.62H978.487C978.527 369.087 978.747 369.48 979.147 369.8C979.56 370.107 980.073 370.26 980.687 370.26C981.327 370.26 981.82 370.14 982.167 369.9C982.527 369.647 982.707 369.327 982.707 368.94C982.707 368.527 982.507 368.22 982.107 368.02C981.72 367.82 981.1 367.6 980.247 367.36C979.42 367.133 978.747 366.913 978.227 366.7C977.707 366.487 977.253 366.16 976.867 365.72C976.493 365.28 976.307 364.7 976.307 363.98C976.307 363.393 976.48 362.86 976.827 362.38C977.173 361.887 977.667 361.5 978.307 361.22C978.96 360.94 979.707 360.8 980.547 360.8C981.8 360.8 982.807 361.12 983.567 361.76C984.34 362.387 984.753 363.247 984.807 364.34H982.527C982.487 363.847 982.287 363.453 981.927 363.16C981.567 362.867 981.08 362.72 980.467 362.72C979.867 362.72 979.407 362.833 979.087 363.06C978.767 363.287 978.607 363.587 978.607 363.96C978.607 364.253 978.713 364.5 978.927 364.7C979.14 364.9 979.4 365.06 979.707 365.18C980.013 365.287 980.467 365.427 981.067 365.6C981.867 365.813 982.52 366.033 983.027 366.26C983.547 366.473 983.993 366.793 984.367 367.22C984.74 367.647 984.933 368.213 984.947 368.92C984.947 369.547 984.773 370.107 984.427 370.6C984.08 371.093 983.587 371.48 982.947 371.76C982.32 372.04 981.58 372.18 980.727 372.18ZM988.57 359.52C988.157 359.52 987.81 359.38 987.53 359.1C987.25 358.82 987.11 358.473 987.11 358.06C987.11 357.647 987.25 357.3 987.53 357.02C987.81 356.74 988.157 356.6 988.57 356.6C988.97 356.6 989.31 356.74 989.59 357.02C989.87 357.3 990.01 357.647 990.01 358.06C990.01 358.473 989.87 358.82 989.59 359.1C989.31 359.38 988.97 359.52 988.57 359.52ZM989.69 360.98V372H987.41V360.98H989.69ZM997.124 360.8C997.977 360.8 998.73 360.973 999.384 361.32C1000.05 361.653 1000.57 362.073 1000.94 362.58V360.98H1003.24V372.18C1003.24 373.193 1003.03 374.093 1002.6 374.88C1002.18 375.68 1001.56 376.307 1000.74 376.76C999.944 377.213 998.984 377.44 997.864 377.44C996.37 377.44 995.13 377.087 994.144 376.38C993.157 375.687 992.597 374.74 992.464 373.54H994.724C994.897 374.113 995.264 374.573 995.824 374.92C996.397 375.28 997.077 375.46 997.864 375.46C998.784 375.46 999.524 375.18 1000.08 374.62C1000.66 374.06 1000.94 373.247 1000.94 372.18V370.34C1000.56 370.86 1000.03 371.3 999.364 371.66C998.71 372.007 997.964 372.18 997.124 372.18C996.164 372.18 995.284 371.94 994.484 371.46C993.697 370.967 993.07 370.287 992.604 369.42C992.15 368.54 991.924 367.547 991.924 366.44C991.924 365.333 992.15 364.353 992.604 363.5C993.07 362.647 993.697 361.987 994.484 361.52C995.284 361.04 996.164 360.8 997.124 360.8ZM1000.94 366.48C1000.94 365.72 1000.78 365.06 1000.46 364.5C1000.16 363.94 999.75 363.513 999.244 363.22C998.737 362.927 998.19 362.78 997.604 362.78C997.017 362.78 996.47 362.927 995.964 363.22C995.457 363.5 995.044 363.92 994.724 364.48C994.417 365.027 994.264 365.68 994.264 366.44C994.264 367.2 994.417 367.867 994.724 368.44C995.044 369.013 995.457 369.453 995.964 369.76C996.484 370.053 997.03 370.2 997.604 370.2C998.19 370.2 998.737 370.053 999.244 369.76C999.75 369.467 1000.16 369.04 1000.46 368.48C1000.78 367.907 1000.94 367.24 1000.94 366.48ZM1011.8 360.8C1012.66 360.8 1013.44 360.98 1014.12 361.34C1014.81 361.7 1015.35 362.233 1015.74 362.94C1016.12 363.647 1016.32 364.5 1016.32 365.5V372H1014.06V365.84C1014.06 364.853 1013.81 364.1 1013.32 363.58C1012.82 363.047 1012.15 362.78 1011.3 362.78C1010.44 362.78 1009.76 363.047 1009.26 363.58C1008.76 364.1 1008.52 364.853 1008.52 365.84V372H1006.24V360.98H1008.52V362.24C1008.89 361.787 1009.36 361.433 1009.94 361.18C1010.52 360.927 1011.14 360.8 1011.8 360.8ZM1018.47 366.44C1018.47 365.333 1018.69 364.353 1019.15 363.5C1019.61 362.647 1020.24 361.987 1021.03 361.52C1021.83 361.04 1022.71 360.8 1023.67 360.8C1024.53 360.8 1025.29 360.973 1025.93 361.32C1026.58 361.653 1027.1 362.073 1027.49 362.58V360.98H1029.79V372H1027.49V370.36C1027.1 370.88 1026.57 371.313 1025.91 371.66C1025.24 372.007 1024.48 372.18 1023.63 372.18C1022.68 372.18 1021.81 371.94 1021.03 371.46C1020.24 370.967 1019.61 370.287 1019.15 369.42C1018.69 368.54 1018.47 367.547 1018.47 366.44ZM1027.49 366.48C1027.49 365.72 1027.33 365.06 1027.01 364.5C1026.7 363.94 1026.29 363.513 1025.79 363.22C1025.28 362.927 1024.73 362.78 1024.15 362.78C1023.56 362.78 1023.01 362.927 1022.51 363.22C1022 363.5 1021.59 363.92 1021.27 364.48C1020.96 365.027 1020.81 365.68 1020.81 366.44C1020.81 367.2 1020.96 367.867 1021.27 368.44C1021.59 369.013 1022 369.453 1022.51 369.76C1023.03 370.053 1023.57 370.2 1024.15 370.2C1024.73 370.2 1025.28 370.053 1025.79 369.76C1026.29 369.467 1026.7 369.04 1027.01 368.48C1027.33 367.907 1027.49 367.24 1027.49 366.48ZM1035.44 362.84V368.94C1035.44 369.353 1035.53 369.653 1035.72 369.84C1035.92 370.013 1036.25 370.1 1036.72 370.1H1038.12V372H1036.32C1035.29 372 1034.51 371.76 1033.96 371.28C1033.41 370.8 1033.14 370.02 1033.14 368.94V362.84H1031.84V360.98H1033.14V358.24H1035.44V360.98H1038.12V362.84H1035.44ZM1050.2 360.98V372H1047.92V370.7C1047.56 371.153 1047.09 371.513 1046.5 371.78C1045.93 372.033 1045.32 372.16 1044.66 372.16C1043.8 372.16 1043.02 371.98 1042.32 371.62C1041.64 371.26 1041.1 370.727 1040.7 370.02C1040.32 369.313 1040.12 368.46 1040.12 367.46V360.98H1042.38V367.12C1042.38 368.107 1042.63 368.867 1043.12 369.4C1043.62 369.92 1044.29 370.18 1045.14 370.18C1046 370.18 1046.67 369.92 1047.16 369.4C1047.67 368.867 1047.92 368.107 1047.92 367.12V360.98H1050.2ZM1055.49 362.58C1055.82 362.02 1056.26 361.587 1056.81 361.28C1057.37 360.96 1058.03 360.8 1058.79 360.8V363.16H1058.21C1057.32 363.16 1056.64 363.387 1056.17 363.84C1055.72 364.293 1055.49 365.08 1055.49 366.2V372H1053.21V360.98H1055.49V362.58ZM1070.99 366.22C1070.99 366.633 1070.96 367.007 1070.91 367.34H1062.49C1062.55 368.22 1062.88 368.927 1063.47 369.46C1064.05 369.993 1064.77 370.26 1065.63 370.26C1066.85 370.26 1067.72 369.747 1068.23 368.72H1070.69C1070.35 369.733 1069.75 370.567 1068.87 371.22C1068 371.86 1066.92 372.18 1065.63 372.18C1064.57 372.18 1063.63 371.947 1062.79 371.48C1061.96 371 1061.31 370.333 1060.83 369.48C1060.36 368.613 1060.13 367.613 1060.13 366.48C1060.13 365.347 1060.35 364.353 1060.81 363.5C1061.27 362.633 1061.92 361.967 1062.75 361.5C1063.59 361.033 1064.55 360.8 1065.63 360.8C1066.67 360.8 1067.59 361.027 1068.41 361.48C1069.22 361.933 1069.85 362.573 1070.31 363.4C1070.76 364.213 1070.99 365.153 1070.99 366.22ZM1068.61 365.5C1068.59 364.66 1068.29 363.987 1067.71 363.48C1067.12 362.973 1066.39 362.72 1065.53 362.72C1064.74 362.72 1064.07 362.973 1063.51 363.48C1062.95 363.973 1062.61 364.647 1062.51 365.5H1068.61Z" fill="black"/>
</g>
<rect x="9" y="9" width="1582" height="736" rx="23" stroke="#1F32D6" stroke-width="2"/>
<defs>
<clipPath id="clip0_2199_2200">
<rect x="8" y="8" width="1584" height="738" rx="24" fill="white"/>
</clipPath>
</defs>
</svg>
