<svg width="34" height="34" viewBox="0 0 34 34" fill="none" xmlns="http://www.w3.org/2000/svg">
<rect x="1" y="1" width="32" height="32" rx="16" stroke="#EDEEF3"/>
<path d="M14.5297 24.2917H12.6666C10.4575 24.2917 8.66663 22.5008 8.66663 20.2917V12.6667C8.66663 10.4575 10.4575 8.66666 12.6666 8.66666H20.2916C22.5008 8.66666 24.2916 10.4575 24.2916 12.6667V14.5298" stroke="#1C1C1C" stroke-width="1.5" stroke-linecap="round"/>
<circle cx="13.5625" cy="13.5625" r="1.5625" stroke="#1C1C1C" stroke-width="1.5"/>
<circle cx="20.7697" cy="20.7033" r="1.25" fill="#1C1C1C"/>
<path d="M16.4791 20.3281C16.4791 19.8849 16.8436 19.5184 17.2939 19.5184C18.0701 19.5184 18.3875 18.9729 17.9972 18.3039C17.7742 17.9203 17.9072 17.4217 18.2974 17.2001L19.0393 16.7782C19.3781 16.5779 19.8155 16.6973 20.0171 17.0339L20.0643 17.1149C20.4502 17.784 21.0849 17.784 21.4752 17.1149L21.5223 17.0339C21.7239 16.6973 22.1613 16.5779 22.5001 16.7782L23.242 17.2001C23.6322 17.4217 23.7652 17.9203 23.5422 18.3039C23.1519 18.9729 23.4693 19.5184 24.2455 19.5184C24.6915 19.5184 25.0603 19.8806 25.0603 20.3281V21.0781C25.0603 21.5213 24.6958 21.8878 24.2455 21.8878C23.4693 21.8878 23.1519 22.4333 23.5422 23.1024C23.7652 23.4902 23.6322 23.9845 23.242 24.2061L22.5001 24.628C22.1613 24.8283 21.7239 24.709 21.5223 24.3723L21.4752 24.2913C21.0892 23.6223 20.4545 23.6223 20.0643 24.2913L20.0171 24.3723C19.8155 24.709 19.3781 24.8283 19.0393 24.628L18.2974 24.2061C17.9072 23.9845 17.7742 23.4859 17.9972 23.1024C18.3875 22.4333 18.0701 21.8878 17.2939 21.8878C16.8436 21.8878 16.4791 21.5213 16.4791 21.0781V20.3281Z" stroke="#1C1C1C" stroke-width="1.5" stroke-linecap="round" stroke-linejoin="round"/>
</svg>
