<svg width="34" height="34" viewBox="0 0 34 34" fill="none" xmlns="http://www.w3.org/2000/svg">
<rect x="1" y="1" width="32" height="32" rx="16" stroke="#EDEEF3"/>
<path fill-rule="evenodd" clip-rule="evenodd" d="M23.2902 10.6853C23.114 10.5092 22.875 10.4102 22.6258 10.4102C22.3767 10.4102 22.1377 10.5092 21.9615 10.6853L21.5085 11.1383L22.8608 12.4915L23.3137 12.0376C23.4899 11.8614 23.5889 11.6224 23.5889 11.3732C23.5889 11.124 23.4899 10.885 23.3137 10.7088L23.2902 10.6853ZM21.8647 13.4875L20.5115 12.1344L15.749 16.8977L15.344 18.6559L17.1013 18.2509L21.8647 13.4875ZM20.9654 9.6883C21.1835 9.47009 21.4425 9.29699 21.7276 9.17889C22.0127 9.06079 22.3182 9 22.6268 9C22.9353 9 23.2409 9.06079 23.526 9.17889C23.811 9.29699 24.07 9.47009 24.2882 9.6883L24.3117 9.7118C24.5299 9.92996 24.703 10.189 24.8211 10.474C24.9392 10.7591 25 11.0646 25 11.3732C25 11.6818 24.9392 11.9873 24.8211 12.2724C24.703 12.5574 24.5299 12.8164 24.3117 13.0346L17.9555 19.3889C17.8622 19.482 17.7447 19.5472 17.6162 19.5769L14.5622 20.2816C14.4457 20.3086 14.3243 20.3055 14.2093 20.2726C14.0944 20.2397 13.9897 20.1781 13.9051 20.0936C13.8206 20.0092 13.7589 19.9045 13.7259 19.7896C13.6928 19.6747 13.6896 19.5533 13.7164 19.4368L14.4212 16.3828C14.4509 16.2544 14.516 16.1368 14.6091 16.0435L20.9654 9.6883ZM12.5239 11.3732C11.9632 11.3732 11.4254 11.596 11.0289 11.9925C10.6323 12.389 10.4096 12.9268 10.4096 13.4875V21.4751C10.4096 22.0358 10.6323 22.5736 11.0289 22.9701C11.4254 23.3666 11.9632 23.5894 12.5239 23.5894H20.5115C21.0723 23.5894 21.61 23.3666 22.0066 22.9701C22.4031 22.5736 22.6258 22.0358 22.6258 21.4751V17.2464C22.6258 17.0595 22.7001 16.8802 22.8323 16.748C22.9644 16.6158 23.1437 16.5416 23.3306 16.5416C23.5176 16.5416 23.6968 16.6158 23.829 16.748C23.9612 16.8802 24.0354 17.0595 24.0354 17.2464V21.4751C24.0354 21.9378 23.9443 22.3961 23.7672 22.8236C23.5901 23.2511 23.3305 23.6396 23.0033 23.9668C22.6761 24.2941 22.2876 24.5536 21.86 24.7307C21.4325 24.9078 20.9743 24.999 20.5115 24.999H12.5239C12.0612 24.999 11.6029 24.9078 11.1754 24.7307C10.7478 24.5536 10.3594 24.2941 10.0321 23.9668C9.70491 23.6396 9.44534 23.2511 9.26824 22.8236C9.09115 22.3961 9 21.9378 9 21.4751V13.4875C9 12.5529 9.37127 11.6566 10.0321 10.9958C10.693 10.3349 11.5893 9.96364 12.5239 9.96364H16.7526C16.9396 9.96364 17.1188 10.0379 17.251 10.1701C17.3832 10.3022 17.4574 10.4815 17.4574 10.6684C17.4574 10.8553 17.3832 11.0346 17.251 11.1668C17.1188 11.2989 16.9396 11.3732 16.7526 11.3732H12.5239Z" fill="black"/>
</svg>
