<svg width="91" height="32" viewBox="0 0 91 32" fill="none" xmlns="http://www.w3.org/2000/svg">
<rect x="0.4" y="0.4" width="89.4" height="31.2" rx="4.4" fill="white"/>
<rect x="0.4" y="0.4" width="89.4" height="31.2" rx="4.4" stroke="#1F32D6" stroke-width="0.8"/>
<path d="M28 10.4L23.408 14.992M22.96 12.7352V15.44H25.6648M21.84 10.4H20.72C17.92 10.4 16.8 11.52 16.8 14.32V17.68C16.8 20.48 17.92 21.6 20.72 21.6H24.08C26.88 21.6 28 20.48 28 17.68V16.56" stroke="#1F32D6" stroke-width="1.26" stroke-linecap="round" stroke-linejoin="round"/>
<path d="M37.5408 12.1824V20H35.9728V12.1824H37.5408ZM46.7955 13.7056C47.5571 13.7056 48.1694 13.9408 48.6323 14.4112C49.1027 14.8741 49.3379 15.5237 49.3379 16.36V20H47.7699V16.5728C47.7699 16.0875 47.6467 15.7179 47.4003 15.464C47.1539 15.2027 46.8179 15.072 46.3923 15.072C45.9667 15.072 45.627 15.2027 45.3731 15.464C45.1267 15.7179 45.0035 16.0875 45.0035 16.5728V20H43.4355V16.5728C43.4355 16.0875 43.3123 15.7179 43.0659 15.464C42.8195 15.2027 42.4835 15.072 42.0579 15.072C41.6249 15.072 41.2814 15.2027 41.0275 15.464C40.7811 15.7179 40.6579 16.0875 40.6579 16.5728V20H39.0899V13.7952H40.6579V14.5456C40.8595 14.2843 41.1171 14.0789 41.4307 13.9296C41.7518 13.7803 42.1027 13.7056 42.4835 13.7056C42.9689 13.7056 43.4019 13.8101 43.7827 14.0192C44.1635 14.2208 44.4585 14.512 44.6675 14.8928C44.8691 14.5344 45.1603 14.2469 45.5411 14.0304C45.9294 13.8139 46.3475 13.7056 46.7955 13.7056ZM52.3939 14.6912C52.5955 14.4075 52.8717 14.1723 53.2227 13.9856C53.5811 13.7915 53.988 13.6944 54.4435 13.6944C54.9736 13.6944 55.4515 13.8251 55.8771 14.0864C56.3101 14.3477 56.6499 14.7211 56.8963 15.2064C57.1501 15.6843 57.2771 16.2405 57.2771 16.8752C57.2771 17.5099 57.1501 18.0736 56.8963 18.5664C56.6499 19.0517 56.3101 19.4288 55.8771 19.6976C55.4515 19.9664 54.9736 20.1008 54.4435 20.1008C53.988 20.1008 53.5848 20.0075 53.2339 19.8208C52.8904 19.6341 52.6104 19.3989 52.3939 19.1152V22.9568H50.8259V13.7952H52.3939V14.6912ZM55.6755 16.8752C55.6755 16.5019 55.5971 16.1808 55.4403 15.912C55.2909 15.6357 55.0893 15.4267 54.8355 15.2848C54.5891 15.1429 54.3203 15.072 54.0291 15.072C53.7453 15.072 53.4765 15.1467 53.2227 15.296C52.9763 15.4379 52.7747 15.6469 52.6179 15.9232C52.4685 16.1995 52.3939 16.5243 52.3939 16.8976C52.3939 17.2709 52.4685 17.5957 52.6179 17.872C52.7747 18.1483 52.9763 18.3611 53.2227 18.5104C53.4765 18.6523 53.7453 18.7232 54.0291 18.7232C54.3203 18.7232 54.5891 18.6485 54.8355 18.4992C55.0893 18.3499 55.2909 18.1371 55.4403 17.8608C55.5971 17.5845 55.6755 17.256 55.6755 16.8752ZM61.1717 20.1008C60.5744 20.1008 60.0368 19.9701 59.5589 19.7088C59.081 19.44 58.704 19.0629 58.4277 18.5776C58.1589 18.0923 58.0245 17.5323 58.0245 16.8976C58.0245 16.2629 58.1626 15.7029 58.4389 15.2176C58.7226 14.7323 59.1072 14.3589 59.5925 14.0976C60.0778 13.8288 60.6192 13.6944 61.2165 13.6944C61.8138 13.6944 62.3552 13.8288 62.8405 14.0976C63.3258 14.3589 63.7066 14.7323 63.9829 15.2176C64.2666 15.7029 64.4085 16.2629 64.4085 16.8976C64.4085 17.5323 64.2629 18.0923 63.9717 18.5776C63.688 19.0629 63.2997 19.44 62.8069 19.7088C62.3216 19.9701 61.7765 20.1008 61.1717 20.1008ZM61.1717 18.7344C61.4554 18.7344 61.7205 18.6672 61.9669 18.5328C62.2208 18.3909 62.4224 18.1819 62.5717 17.9056C62.721 17.6293 62.7957 17.2933 62.7957 16.8976C62.7957 16.3077 62.6389 15.856 62.3253 15.5424C62.0192 15.2213 61.6421 15.0608 61.1941 15.0608C60.7461 15.0608 60.369 15.2213 60.0629 15.5424C59.7642 15.856 59.6149 16.3077 59.6149 16.8976C59.6149 17.4875 59.7605 17.9429 60.0517 18.264C60.3504 18.5776 60.7237 18.7344 61.1717 18.7344ZM67.1267 14.7584C67.3283 14.4299 67.5896 14.1723 67.9107 13.9856C68.2392 13.7989 68.6126 13.7056 69.0307 13.7056V15.352H68.6163C68.1235 15.352 67.7502 15.4677 67.4963 15.6992C67.2499 15.9307 67.1267 16.3339 67.1267 16.9088V20H65.5587V13.7952H67.1267V14.7584ZM71.9124 15.0832V18.0848C71.9124 18.2939 71.9609 18.4469 72.058 18.544C72.1625 18.6336 72.3343 18.6784 72.5732 18.6784H73.3012V20H72.3156C70.994 20 70.3332 19.3579 70.3332 18.0736V15.0832H69.594V13.7952H70.3332V12.2608H71.9124V13.7952H73.3012V15.0832H71.9124Z" fill="#1F32D6"/>
</svg>
