<svg width="32" height="32" viewBox="0 0 32 32" fill="none" xmlns="http://www.w3.org/2000/svg">
<rect x="0.5" y="0.5" width="31" height="31" rx="15.5" stroke="#EDEEF3"/>
<rect x="6" y="6" width="20" height="20" rx="4" fill="#1F32D6"/>
<path d="M18.7086 16.5161C18.7085 16.3331 18.6542 16.1542 18.5525 16.0021C18.4508 15.8499 18.3063 15.7314 18.1372 15.6614C17.9681 15.5914 17.7821 15.5731 17.6026 15.6088C17.4232 15.6446 17.2583 15.7327 17.129 15.8621C16.9996 15.9915 16.9115 16.1564 16.8758 16.3359C16.8401 16.5154 16.8584 16.7014 16.9285 16.8704C16.9985 17.0395 17.1171 17.184 17.2693 17.2857C17.4214 17.3873 17.6003 17.4416 17.7833 17.4416C17.9048 17.4416 18.0252 17.4176 18.1374 17.3711C18.2497 17.3246 18.3517 17.2564 18.4377 17.1705C18.5236 17.0845 18.5917 16.9825 18.6382 16.8702C18.6847 16.7579 18.7086 16.6376 18.7086 16.5161ZM23.1527 16.5161C23.1523 16.9078 23.0153 17.2871 22.7652 17.5887C22.5152 17.8902 22.1677 18.095 21.7828 18.1678C21.3979 18.2405 20.9997 18.1767 20.6568 17.9873C20.3139 17.7979 20.0478 17.4948 19.9045 17.1302L20.545 16.4897V16.5163C20.5455 16.7299 20.6201 16.9367 20.7559 17.1014C20.8918 17.2662 21.0805 17.3789 21.2901 17.4201C21.4996 17.4614 21.717 17.4288 21.9052 17.3278C22.0934 17.2269 22.2408 17.0638 22.3223 16.8664C22.4038 16.669 22.4143 16.4495 22.3522 16.2451C22.29 16.0408 22.159 15.8644 21.9813 15.7458C21.8037 15.6272 21.5905 15.5739 21.3779 15.5948C21.1654 15.6158 20.9667 15.7097 20.8156 15.8607L18.9795 17.6979C18.7453 17.9357 18.4457 18.0985 18.1187 18.1654C17.7918 18.2323 17.4523 18.2003 17.1435 18.0735C16.8348 17.9467 16.5708 17.7309 16.3852 17.4535C16.1996 17.1762 16.1008 16.8498 16.1014 16.5161V14.1558C16.1073 14.0595 16.1498 13.969 16.2201 13.9029C16.2904 13.8368 16.3833 13.8 16.4798 13.8C16.5764 13.8 16.6692 13.8368 16.7396 13.9029C16.8099 13.969 16.8523 14.0595 16.8583 14.1558V15.0998C17.0877 14.9488 17.3506 14.8562 17.6241 14.8302C17.8975 14.8042 18.1732 14.8456 18.427 14.9507C18.6807 15.0558 18.9049 15.2214 19.0799 15.4331C19.255 15.6448 19.3755 15.8961 19.431 16.1652L20.2808 15.3156C20.5167 15.0796 20.8175 14.9191 21.1448 14.8544C21.4722 14.7898 21.8114 14.8241 22.1193 14.9528C22.4272 15.0815 22.6898 15.2988 22.8738 15.5772C23.0578 15.8556 23.1549 16.1824 23.1527 16.5161ZM15.8494 16.5161C15.8502 16.9082 15.7138 17.2882 15.4639 17.5904C15.214 17.8925 14.8664 18.0978 14.4811 18.1707C14.0958 18.2436 13.6972 18.1795 13.3542 17.9894C13.0112 17.7994 12.7455 17.4955 12.6029 17.1302L13.2434 16.4897V16.5163C13.244 16.7299 13.3185 16.9367 13.4543 17.1014C13.5902 17.2662 13.779 17.3789 13.9885 17.4201C14.198 17.4614 14.4154 17.4288 14.6036 17.3278C14.7918 17.2269 14.9392 17.0638 15.0207 16.8664C15.1022 16.669 15.1128 16.4495 15.0506 16.2451C14.9885 16.0408 14.8574 15.8644 14.6798 15.7458C14.5021 15.6272 14.2889 15.5739 14.0764 15.5948C13.8638 15.6158 13.6651 15.7097 13.5141 15.8607L11.6714 17.705C11.4362 17.9402 11.1364 18.1004 10.8101 18.1652C10.4838 18.2301 10.1457 18.1967 9.83832 18.0694C9.53098 17.9421 9.26831 17.7264 9.0835 17.4498C8.89869 17.1732 8.80005 16.848 8.80005 16.5153C8.80005 16.1827 8.89869 15.8575 9.0835 15.5809C9.26831 15.3042 9.53098 15.0886 9.83832 14.9613C10.1457 14.834 10.4838 14.8006 10.8101 14.8655C11.1364 14.9303 11.4362 15.0905 11.6714 15.3256C11.7066 15.361 11.7344 15.4029 11.7533 15.449C11.7723 15.4951 11.7819 15.5445 11.7818 15.5943C11.7817 15.6441 11.7717 15.6934 11.7525 15.7394C11.7333 15.7854 11.7052 15.8272 11.6699 15.8623C11.6345 15.8974 11.5926 15.9253 11.5465 15.9442C11.5004 15.9631 11.4511 15.9728 11.4012 15.9727C11.3514 15.9725 11.3021 15.9626 11.2561 15.9433C11.2101 15.9241 11.1684 15.8961 11.1332 15.8607C11.0037 15.7316 10.8388 15.6438 10.6594 15.6084C10.48 15.5729 10.2941 15.5914 10.1253 15.6615C9.95636 15.7316 9.81203 15.8502 9.71049 16.0023C9.60895 16.1544 9.55476 16.3332 9.55476 16.5161C9.55476 16.6989 9.60895 16.8777 9.71049 17.0298C9.81203 17.1819 9.95636 17.3005 10.1253 17.3706C10.2941 17.4407 10.48 17.4592 10.6594 17.4238C10.8388 17.3883 11.0037 17.3005 11.1332 17.1714L12.979 15.3209C13.2144 15.0849 13.5147 14.9243 13.8416 14.8594C14.1686 14.7946 14.5074 14.8284 14.8151 14.9566C15.1228 15.0848 15.3854 15.3015 15.5696 15.5794C15.7537 15.8572 15.8511 16.1835 15.8494 16.5168V16.5161Z" fill="white"/>
</svg>
