<svg width="34" height="34" viewBox="0 0 34 34" fill="none" xmlns="http://www.w3.org/2000/svg">
<path d="M23.4917 19.4417C21.775 21.15 19.3167 21.675 17.1584 21L13.2334 24.9167C12.95 25.2083 12.3917 25.3833 11.9917 25.325L10.175 25.075C9.57504 24.9917 9.01671 24.425 8.92504 23.825L8.67504 22.0083C8.61671 21.6083 8.80837 21.05 9.08337 20.7667L13 16.85C12.3334 14.6833 12.85 12.225 14.5667 10.5167C17.025 8.05833 21.0167 8.05833 23.4834 10.5167C25.95 12.975 25.95 16.9833 23.4917 19.4417Z" stroke="#1C1C1C" stroke-width="1.5" stroke-miterlimit="10" stroke-linecap="round" stroke-linejoin="round"/>
<path d="M12.7417 21.575L14.6584 23.4917" stroke="#1C1C1C" stroke-width="1.5" stroke-miterlimit="10" stroke-linecap="round" stroke-linejoin="round"/>
<path d="M19.0834 16.1667C19.7737 16.1667 20.3334 15.607 20.3334 14.9167C20.3334 14.2263 19.7737 13.6667 19.0834 13.6667C18.393 13.6667 17.8334 14.2263 17.8334 14.9167C17.8334 15.607 18.393 16.1667 19.0834 16.1667Z" stroke="#1C1C1C" stroke-width="1.5" stroke-linecap="round" stroke-linejoin="round"/>
<rect x="1" y="1" width="32" height="32" rx="16" stroke="#EDEEF3"/>
</svg>
