<svg width="1600" height="496" viewBox="0 0 1600 496" fill="none" xmlns="http://www.w3.org/2000/svg">
<g clip-path="url(#clip0_3807_1153)">
<rect width="1600" height="496" fill="white"/>
<rect width="1600" height="530" fill="white"/>
<g clip-path="url(#clip1_3807_1153)">
<rect width="1600" height="496" fill="white"/>
<g clip-path="url(#clip2_3807_1153)">
<rect width="533.333" height="74" fill="#1F32D6"/>
<path d="M533 0V72" stroke="white" stroke-width="2" stroke-linejoin="round"/>
</g>
<g clip-path="url(#clip3_3807_1153)">
<rect width="533.333" height="74" transform="translate(533.333)" fill="#1F32D6"/>
<path d="M569.499 34.88V36.904H567.167V33.318C565.825 35.188 563.449 36.816 560.039 38.202L558.829 36.222C561.755 35.298 563.845 34.308 565.099 33.208H558.961V31.074H567.167V26.894H569.499V31.074H577.705V33.208H569.499V33.362C572.403 34.11 575.087 34.99 577.507 36.046L576.253 37.96C574.053 36.684 571.787 35.672 569.499 34.88ZM568.179 42.008C567.761 42.734 567.277 43.372 566.749 43.944C565.341 45.352 562.899 46.474 559.401 47.31L558.477 45.176C561.425 44.538 563.537 43.658 564.857 42.514C565.209 42.184 565.539 41.832 565.803 41.48H558.785V39.346H566.837C567.013 38.774 567.145 38.18 567.233 37.564H569.565C569.477 38.18 569.367 38.774 569.235 39.346H577.881V41.48H570.357C572.293 43.284 574.933 44.56 578.233 45.308L577.067 47.376C573.195 46.32 570.225 44.516 568.179 42.008ZM563.229 27.224C563.823 28.126 564.351 29.16 564.835 30.348L562.899 30.854C562.459 29.82 561.909 28.83 561.249 27.884L563.229 27.224ZM573.415 27.18L575.417 27.708C574.955 28.896 574.361 29.93 573.635 30.832L571.721 30.15C572.381 29.358 572.931 28.368 573.415 27.18ZM581.247 27.708H591.851V29.732H589.827V32.394H592.335V34.506H589.827V39.104H587.627V34.506H585.339C585.075 36.662 584.261 38.268 582.941 39.368L581.203 37.85C582.215 37.08 582.831 35.958 583.095 34.506H580.675V32.394H583.227V29.732H581.247V27.708ZM585.449 29.732V32.394H587.627V29.732H585.449ZM593.171 28.434H595.349V35.958H593.171V28.434ZM581.819 40.82H589.277V39.346H591.565V40.82H598.869V42.932H591.565V44.758H600.079V46.848H580.587V44.758H589.277V42.932H581.819V40.82ZM597.263 39.39H594.315L593.809 37.234C594.755 37.322 595.657 37.388 596.493 37.388C596.911 37.388 597.131 37.036 597.131 36.332V27.224H599.353V36.882C599.353 38.554 598.649 39.39 597.263 39.39Z" fill="white"/>
<path d="M1066.33 0V72" stroke="white" stroke-width="2" stroke-linejoin="round"/>
</g>
<rect width="533.333" height="74" transform="translate(1066.67)" fill="#1F32D6"/>
<path d="M1093.75 27.092C1095.2 28.258 1096.43 29.424 1097.44 30.59L1095.86 32.174C1094.98 31.074 1093.75 29.886 1092.16 28.61L1093.75 27.092ZM1106.27 46.826C1105.06 46.826 1103.74 46.804 1102.33 46.782C1100.9 46.76 1099.73 46.65 1098.81 46.43C1097.93 46.166 1097.16 45.682 1096.5 44.978C1096.19 44.626 1095.93 44.45 1095.68 44.45C1095.24 44.45 1094.5 45.44 1093.4 47.42L1091.7 45.836C1092.8 44.076 1093.77 42.954 1094.65 42.47V36.442H1091.75V34.33H1096.78V42.69L1097.03 42.932C1097.53 43.548 1098.04 43.988 1098.57 44.274C1099.2 44.604 1100.17 44.802 1101.47 44.846C1102.75 44.868 1104.24 44.89 1105.96 44.89C1107.06 44.89 1108.16 44.868 1109.28 44.846C1110.38 44.824 1111.24 44.802 1111.85 44.758L1111.35 46.826H1106.27ZM1098.1 32.724H1103.58V30.414C1102.06 30.568 1100.44 30.656 1098.72 30.656L1098.06 28.61C1102.59 28.61 1106.42 28.038 1109.54 26.938L1110.6 28.742C1109.19 29.336 1107.59 29.798 1105.78 30.106V32.724H1111.3V34.814H1105.78V36.904H1109.96V43.636H1099.4V36.904H1103.58V34.814H1098.1V32.724ZM1107.81 41.656V38.884H1101.54V41.656H1107.81ZM1117.75 35.056V38.224H1122.59V35.056H1117.75ZM1117.64 40.336C1117.35 43.064 1116.54 45.352 1115.2 47.156L1113.44 45.572C1114.74 43.724 1115.4 41.37 1115.44 38.51V27.62H1132.49V44.23C1132.49 45.924 1131.61 46.782 1129.87 46.782H1127.34L1126.73 44.538C1127.61 44.626 1128.4 44.67 1129.15 44.67C1129.81 44.67 1130.16 44.23 1130.16 43.394V40.336H1124.92V46.54H1122.59V40.336H1117.64ZM1130.16 38.224V35.056H1124.92V38.224H1130.16ZM1130.16 32.944V29.864H1124.92V32.944H1130.16ZM1122.59 29.864H1117.75V32.944H1122.59V29.864ZM1137.22 27.62H1153.96V29.864H1147.01V34.968H1155.48V37.256H1147.01V44.648C1147.01 46.232 1146.17 47.046 1144.5 47.046H1140.98L1140.5 44.824C1141.62 44.912 1142.7 44.956 1143.71 44.956C1144.37 44.956 1144.7 44.648 1144.7 44.054V37.256H1135.86V34.968H1144.7V29.864H1137.22V27.62Z" fill="white"/>
<mask id="path-7-inside-1_3807_1153" fill="white">
<path d="M0 74H533.333V334H0V74Z"/>
</mask>
<path d="M0 74H533.333V334H0V74Z" fill="white"/>
<path d="M533.333 334V335H534.333V334H533.333ZM532.333 74V334H534.333V74H532.333ZM533.333 333H0V335H533.333V333Z" fill="black" mask="url(#path-7-inside-1_3807_1153)"/>
<path d="M25.188 106.314H33.79C33.438 105.566 33.042 104.862 32.602 104.202L35.176 103.762C35.572 104.532 35.968 105.39 36.342 106.314H44.834V108.492H25.188V106.314ZM38.696 108.624C41.116 110.494 43.184 112.364 44.856 114.234L43.162 115.95C41.754 114.146 39.73 112.21 37.134 110.12L38.696 108.624ZM38.366 112.782L40.478 113.728C39.488 115.62 38.278 117.27 36.87 118.678C39.114 120.196 41.886 121.362 45.142 122.176L43.712 124.332C40.324 123.386 37.442 122.022 35.088 120.262C32.668 122.154 29.786 123.518 26.398 124.398L24.968 122.286C28.224 121.494 30.974 120.284 33.218 118.7C31.766 117.336 30.534 115.774 29.566 114.036L31.546 112.914C32.426 114.542 33.57 115.972 35 117.226C36.364 115.928 37.486 114.454 38.366 112.782ZM31.15 108.646L32.822 110.098C31.15 112.298 29.06 114.19 26.596 115.818L25.122 113.882C27.498 112.386 29.522 110.648 31.15 108.646ZM53.348 112.892H50.752V104.598H64.678V112.892H56.032C55.724 113.332 55.394 113.772 55.042 114.168H66.35C66.284 116.588 66.152 118.546 65.954 120.042C65.734 121.516 65.382 122.55 64.92 123.144C64.458 123.716 63.71 124.024 62.654 124.068H59.508L58.936 121.912C59.838 121.978 60.718 122.022 61.554 122.022C62.5 122.022 63.116 121.648 63.424 120.944C63.732 120.196 63.93 118.612 64.018 116.192H62.456C60.564 120.24 57.572 122.946 53.524 124.266L52.226 122.33C55.79 121.23 58.408 119.184 60.08 116.192H57.946C56.406 118.524 53.964 120.372 50.62 121.714L49.168 119.932C51.984 118.942 54.074 117.688 55.438 116.192H52.798C51.742 116.94 50.576 117.622 49.278 118.238L48.024 116.214C50.378 115.334 52.16 114.212 53.348 112.892ZM62.412 110.956V109.636H53.018V110.956H62.412ZM53.018 107.832H62.412V106.534H53.018V107.832ZM77.108 108.866C78.208 110.252 79.242 111.572 80.188 112.848C80.936 111.396 81.552 109.856 82.014 108.228L84.28 108.624C83.642 110.956 82.784 113.068 81.728 114.96C83.004 116.764 84.082 118.414 84.962 119.932L82.872 121.384C82.124 120.02 81.266 118.634 80.32 117.182C79.022 118.942 77.504 120.46 75.788 121.758L74.248 119.778C76.074 118.414 77.614 116.83 78.868 115.026C77.768 113.398 76.558 111.748 75.238 110.032L77.108 108.866ZM72.51 104.62H87.294V113.706C87.294 116.962 87.382 119.074 87.58 119.998C87.734 120.9 87.932 121.362 88.152 121.362C88.306 121.362 88.438 120.526 88.57 118.898L90.616 119.888C90.33 121.604 90.022 122.726 89.67 123.276C89.274 123.826 88.856 124.112 88.394 124.112C87.206 124.112 86.348 123.408 85.798 122C85.226 120.636 84.94 117.886 84.94 113.706V106.864H74.82V113.42C74.776 117.754 73.874 121.384 72.136 124.332L70.2 122.748C71.674 120.284 72.444 117.16 72.51 113.42V104.62ZM105.268 117.468H100.494V115.334H112.286V117.468H107.578V121.472H113.1V123.694H99.614V121.472H105.268V117.468ZM95.588 124.09H93.652L93.146 121.868C93.718 121.956 94.268 122 94.796 122C95.28 122 95.522 121.736 95.522 121.252V116.808C94.752 117.094 93.982 117.358 93.212 117.6L92.64 115.268C93.608 115.048 94.576 114.784 95.522 114.454V110.12H93.08V107.898H95.522V103.96H97.854V107.898H99.438V110.12H97.854V113.53C98.404 113.266 98.954 112.98 99.504 112.694V115.026C98.932 115.29 98.382 115.554 97.854 115.818V121.846C97.854 123.342 97.084 124.09 95.588 124.09ZM106.632 103.674C106.94 104.422 107.27 105.236 107.578 106.138H112.638V110.692H110.504V108.184H102.298V110.692H100.142V106.138H105.268C104.982 105.39 104.652 104.708 104.278 104.07L106.632 103.674ZM103.816 109.152L105.818 109.944C104.872 112.1 103.618 113.75 102.056 114.894L100.406 113.442C101.946 112.342 103.068 110.912 103.816 109.152ZM108.744 109.108C110.064 110.494 111.208 112.034 112.198 113.706L110.174 114.74C109.162 112.936 108.062 111.352 106.852 109.944L108.744 109.108Z" fill="black"/>
<g clip-path="url(#clip4_3807_1153)">
<mask id="path-10-inside-2_3807_1153" fill="white">
<path d="M533.333 74H1066.67V334H533.333V74Z"/>
</mask>
<path d="M533.333 74H1066.67V334H533.333V74Z" fill="white"/>
<path d="M1066.67 74V334" stroke="black" stroke-width="2" stroke-linejoin="round"/>
<path d="M1066.67 74V334" stroke="black" stroke-width="2" stroke-linejoin="round"/>
<path d="M573.833 110.45C574.845 110.45 575.703 110.802 576.429 111.506C577.133 112.21 577.485 113.068 577.485 114.08C577.485 115.092 577.133 115.95 576.429 116.676C575.703 117.38 574.845 117.732 573.833 117.732C572.821 117.732 571.963 117.38 571.259 116.676C570.555 115.95 570.203 115.092 570.203 114.08C570.203 113.068 570.555 112.21 571.259 111.506C571.963 110.802 572.821 110.45 573.833 110.45ZM602.543 116.434H606.657V113.728H603.049L602.741 112.408C603.489 111.198 604.171 109.702 604.787 107.898H602.587V106.512H605.205C605.425 105.72 605.645 104.884 605.865 104.026L607.273 104.356C607.097 105.104 606.899 105.83 606.701 106.512H610.903V107.898H606.261C605.689 109.57 605.073 111.066 604.391 112.342H606.657V109.372H608.131V112.342H610.705V113.728H608.131V116.434H611.321V117.842H608.131V121.494H606.657V117.842H602.543V116.434ZM599.463 104.488C600.475 105.808 601.267 106.974 601.795 107.964L600.607 108.8C600.035 107.7 599.265 106.512 598.297 105.214L599.463 104.488ZM608.175 122.374C609.319 122.374 610.419 122.352 611.453 122.33L611.035 123.826H608.065C607.405 123.826 606.723 123.804 606.063 123.782C605.051 123.76 604.149 123.628 603.379 123.386C602.609 123.122 601.971 122.66 601.443 122.044C601.157 121.714 600.915 121.56 600.717 121.56C600.343 121.56 599.661 122.418 598.693 124.156L597.747 122.968C598.671 121.516 599.441 120.614 600.057 120.24V112.826H598.275V111.418H601.509V120.306C601.597 120.394 601.685 120.46 601.751 120.548C602.191 121.12 602.763 121.56 603.445 121.89C604.061 122.132 604.809 122.286 605.667 122.33C606.503 122.352 607.339 122.374 608.175 122.374ZM593.567 104.092L595.085 104.4C594.931 105.148 594.755 105.852 594.579 106.556H597.901V108.052H594.117C593.633 109.57 593.061 110.956 592.423 112.188L591.169 111.396C592.269 109.196 593.083 106.754 593.567 104.092ZM593.083 110.934H597.527V112.364H595.723V115.114H598.143V116.588H595.723V121.714C596.339 121.406 596.977 120.988 597.637 120.46L597.901 121.824C596.845 122.572 595.657 123.21 594.293 123.694L593.699 122.374C594.029 122.22 594.205 121.978 594.205 121.67V116.588H591.763V115.114H594.205V112.364H593.083V110.934ZM622.145 104.026H623.773V110.824H631.935V112.364H623.773V121.78H633.805V123.32H614.225V121.78H622.145V104.026ZM636.929 106.644H646.015C645.619 105.742 645.179 104.928 644.695 104.18L646.455 103.872C646.895 104.708 647.335 105.632 647.731 106.644H656.399V108.162H636.929V106.644ZM650.129 108.822C652.571 110.758 654.617 112.672 656.267 114.608L655.101 115.774C653.649 113.926 651.625 111.968 649.051 109.856L650.129 108.822ZM650.349 112.936L651.801 113.574C650.745 115.598 649.469 117.336 647.951 118.81C650.327 120.526 653.209 121.802 656.641 122.682L655.651 124.156C652.087 123.144 649.117 121.736 646.741 119.888C644.277 121.868 641.285 123.32 637.765 124.244L636.797 122.792C640.273 121.912 643.155 120.592 645.465 118.832C643.859 117.38 642.539 115.708 641.505 113.86L642.869 113.09C643.837 114.894 645.113 116.456 646.675 117.798C648.171 116.39 649.403 114.784 650.349 112.936ZM643.045 108.844L644.189 109.856C642.517 112.034 640.449 113.948 637.985 115.576L636.973 114.234C639.371 112.694 641.395 110.912 643.045 108.844ZM665.683 112.584H662.625V104.84H676.111V112.584H667.465C667.069 113.2 666.585 113.794 666.057 114.366H677.717C677.651 116.72 677.519 118.634 677.321 120.086C677.101 121.516 676.771 122.528 676.309 123.1C675.847 123.628 675.099 123.936 674.043 123.98H671.205L670.787 122.506C671.667 122.55 672.503 122.572 673.295 122.572C674.373 122.572 675.077 122.154 675.429 121.318C675.781 120.438 676.001 118.59 676.111 115.774H673.999C672.107 119.998 669.093 122.77 664.935 124.134L664.033 122.814C667.905 121.582 670.699 119.25 672.393 115.774H669.489C667.949 118.238 665.463 120.152 662.009 121.516L661.019 120.306C664.187 119.14 666.453 117.622 667.839 115.774H664.473C663.395 116.588 662.141 117.336 660.689 117.996L659.831 116.588C662.493 115.532 664.451 114.212 665.683 112.584ZM674.549 111.242V109.35H664.187V111.242H674.549ZM664.187 108.074H674.549V106.204H664.187V108.074ZM688.387 109.064C689.663 110.648 690.851 112.166 691.929 113.618C692.809 111.968 693.513 110.186 694.041 108.294L695.603 108.558C694.943 110.934 694.063 113.09 692.963 115.026C694.305 116.918 695.449 118.678 696.395 120.284L694.965 121.252C694.085 119.734 693.117 118.15 692.017 116.522C690.653 118.502 689.047 120.196 687.155 121.626L686.099 120.284C688.057 118.788 689.707 117.072 691.027 115.092C689.839 113.398 688.519 111.66 687.089 109.856L688.387 109.064ZM684.471 104.906H698.705V113.706C698.705 117.314 698.815 119.624 699.079 120.636C699.321 121.626 699.607 122.132 699.959 122.132C700.245 122.132 700.487 121.12 700.685 119.118L702.093 119.8C701.829 121.45 701.543 122.572 701.235 123.188C700.905 123.716 700.531 123.98 700.135 123.98C699.079 123.98 698.331 123.276 697.847 121.912C697.319 120.57 697.077 117.842 697.077 113.706V106.446H686.055V113.442C686.011 117.71 685.109 121.296 683.371 124.2L682.051 123.122C683.591 120.548 684.405 117.314 684.471 113.442V104.906ZM717.251 117.138H712.125V115.664H723.873V117.138H718.835V121.956H724.687V123.496H711.245V121.956H717.251V117.138ZM707.219 124.002H705.283L704.953 122.462C705.547 122.506 706.119 122.55 706.669 122.55C707.241 122.55 707.527 122.264 707.527 121.692V116.28C706.647 116.61 705.767 116.918 704.887 117.204L704.491 115.62C705.525 115.356 706.537 115.048 707.527 114.696V109.768H704.843V108.25H707.527V104.048H709.155V108.25H710.981V109.768H709.155V114.036C709.815 113.728 710.453 113.42 711.069 113.09V114.696C710.431 115.004 709.793 115.312 709.155 115.598V122.088C709.155 123.364 708.495 124.002 707.219 124.002ZM717.845 103.784C718.219 104.576 718.593 105.456 718.945 106.446H724.115V110.604H722.641V107.876H713.401V110.604H711.905V106.446H717.361C717.009 105.566 716.635 104.752 716.239 104.048L717.845 103.784ZM715.799 109.24L717.185 109.79C716.173 111.968 714.853 113.64 713.203 114.784L712.059 113.794C713.709 112.65 714.963 111.132 715.799 109.24ZM720.045 109.196C721.409 110.604 722.619 112.188 723.675 113.904L722.289 114.608C721.211 112.804 720.023 111.176 718.703 109.768L720.045 109.196Z" fill="black"/>
<path d="M606.833 143.45C607.845 143.45 608.703 143.802 609.429 144.506C610.133 145.21 610.485 146.068 610.485 147.08C610.485 148.092 610.133 148.95 609.429 149.676C608.703 150.38 607.845 150.732 606.833 150.732C605.821 150.732 604.963 150.38 604.259 149.676C603.555 148.95 603.203 148.092 603.203 147.08C603.203 146.068 603.555 145.21 604.259 144.506C604.963 143.802 605.821 143.45 606.833 143.45ZM633.761 137.004H634.905C637.699 140.238 640.933 142.79 644.585 144.638L643.727 146.156C640.053 144.176 636.929 141.602 634.333 138.434C631.935 141.426 628.767 144 624.851 146.2L624.015 144.682C627.931 142.614 631.165 140.062 633.761 137.004ZM641.285 148.312V157.178H639.745V155.858H628.921V157.178H627.381V148.312H641.285ZM628.921 154.34H639.745V149.808H628.921V154.34ZM628.613 144H640.053V145.518H628.613V144ZM658.379 145.98C660.007 147.872 661.239 149.544 662.097 150.952L660.755 151.898C659.875 150.358 658.643 148.664 657.081 146.794L658.379 145.98ZM658.709 136.982L660.293 137.18C660.029 138.39 659.677 139.534 659.281 140.59H666.167C666.167 148.18 666.057 152.866 665.837 154.648C665.595 156.298 664.495 157.134 662.515 157.134C662.009 157.134 661.129 157.09 659.875 157.046L659.479 155.572C660.579 155.616 661.503 155.66 662.295 155.66C663.483 155.66 664.165 155.11 664.341 154.01C664.473 152.734 664.561 148.796 664.605 142.196H658.599C657.829 143.736 656.905 145.144 655.805 146.376L654.815 145.078C656.729 142.878 658.027 140.172 658.709 136.982ZM655.233 152.822V154.45C652.945 155.22 650.327 155.836 647.401 156.32L647.203 154.758C650.283 154.274 652.945 153.614 655.233 152.822ZM650.789 136.96L652.329 137.576C651.251 140.392 650.151 142.658 649.051 144.374C650.063 144.242 651.097 144.066 652.109 143.868C652.571 143.01 653.055 142.108 653.561 141.14L655.079 141.712C652.967 145.584 651.185 148.334 649.777 149.962C651.493 149.654 653.231 149.214 654.969 148.664V150.072C652.505 150.864 650.129 151.392 647.863 151.7L647.445 150.226C647.731 150.094 647.973 149.94 648.171 149.764C649.029 148.884 650.063 147.432 651.273 145.364C650.041 145.584 648.809 145.782 647.555 145.98L647.159 144.506C647.401 144.396 647.621 144.198 647.841 143.89C648.963 141.866 649.953 139.556 650.789 136.96ZM669.929 139.644H679.015C678.619 138.742 678.179 137.928 677.695 137.18L679.455 136.872C679.895 137.708 680.335 138.632 680.731 139.644H689.399V141.162H669.929V139.644ZM683.129 141.822C685.571 143.758 687.617 145.672 689.267 147.608L688.101 148.774C686.649 146.926 684.625 144.968 682.051 142.856L683.129 141.822ZM683.349 145.936L684.801 146.574C683.745 148.598 682.469 150.336 680.951 151.81C683.327 153.526 686.209 154.802 689.641 155.682L688.651 157.156C685.087 156.144 682.117 154.736 679.741 152.888C677.277 154.868 674.285 156.32 670.765 157.244L669.797 155.792C673.273 154.912 676.155 153.592 678.465 151.832C676.859 150.38 675.539 148.708 674.505 146.86L675.869 146.09C676.837 147.894 678.113 149.456 679.675 150.798C681.171 149.39 682.403 147.784 683.349 145.936ZM676.045 141.844L677.189 142.856C675.517 145.034 673.449 146.948 670.985 148.576L669.973 147.234C672.371 145.694 674.395 143.912 676.045 141.844ZM692.941 137.972H711.641V139.512H700.069L699.167 143.142H708.671L706.911 154.89H712.213V156.43H692.545V154.89H705.349L705.965 151.018H695.625L698.463 139.512H692.941V137.972ZM706.207 149.544L706.977 144.616H698.793L697.561 149.544H706.207Z" fill="black" fill-opacity="0.5"/>
<path d="M573.833 224.45C574.845 224.45 575.703 224.802 576.429 225.506C577.133 226.21 577.485 227.068 577.485 228.08C577.485 229.092 577.133 229.95 576.429 230.676C575.703 231.38 574.845 231.732 573.833 231.732C572.821 231.732 571.963 231.38 571.259 230.676C570.555 229.95 570.203 229.092 570.203 228.08C570.203 227.068 570.555 226.21 571.259 225.506C571.963 224.802 572.821 224.45 573.833 224.45ZM602.543 230.434H606.657V227.728H603.049L602.741 226.408C603.489 225.198 604.171 223.702 604.787 221.898H602.587V220.512H605.205C605.425 219.72 605.645 218.884 605.865 218.026L607.273 218.356C607.097 219.104 606.899 219.83 606.701 220.512H610.903V221.898H606.261C605.689 223.57 605.073 225.066 604.391 226.342H606.657V223.372H608.131V226.342H610.705V227.728H608.131V230.434H611.321V231.842H608.131V235.494H606.657V231.842H602.543V230.434ZM599.463 218.488C600.475 219.808 601.267 220.974 601.795 221.964L600.607 222.8C600.035 221.7 599.265 220.512 598.297 219.214L599.463 218.488ZM608.175 236.374C609.319 236.374 610.419 236.352 611.453 236.33L611.035 237.826H608.065C607.405 237.826 606.723 237.804 606.063 237.782C605.051 237.76 604.149 237.628 603.379 237.386C602.609 237.122 601.971 236.66 601.443 236.044C601.157 235.714 600.915 235.56 600.717 235.56C600.343 235.56 599.661 236.418 598.693 238.156L597.747 236.968C598.671 235.516 599.441 234.614 600.057 234.24V226.826H598.275V225.418H601.509V234.306C601.597 234.394 601.685 234.46 601.751 234.548C602.191 235.12 602.763 235.56 603.445 235.89C604.061 236.132 604.809 236.286 605.667 236.33C606.503 236.352 607.339 236.374 608.175 236.374ZM593.567 218.092L595.085 218.4C594.931 219.148 594.755 219.852 594.579 220.556H597.901V222.052H594.117C593.633 223.57 593.061 224.956 592.423 226.188L591.169 225.396C592.269 223.196 593.083 220.754 593.567 218.092ZM593.083 224.934H597.527V226.364H595.723V229.114H598.143V230.588H595.723V235.714C596.339 235.406 596.977 234.988 597.637 234.46L597.901 235.824C596.845 236.572 595.657 237.21 594.293 237.694L593.699 236.374C594.029 236.22 594.205 235.978 594.205 235.67V230.588H591.763V229.114H594.205V226.364H593.083V224.934ZM614.203 219.192H633.761V220.754H624.213V224.076C626.941 225.44 629.713 227.024 632.529 228.828L631.583 230.236C628.657 228.3 626.193 226.804 624.213 225.748V238.244H622.607V220.754H614.203V219.192ZM636.929 220.644H646.015C645.619 219.742 645.179 218.928 644.695 218.18L646.455 217.872C646.895 218.708 647.335 219.632 647.731 220.644H656.399V222.162H636.929V220.644ZM650.129 222.822C652.571 224.758 654.617 226.672 656.267 228.608L655.101 229.774C653.649 227.926 651.625 225.968 649.051 223.856L650.129 222.822ZM650.349 226.936L651.801 227.574C650.745 229.598 649.469 231.336 647.951 232.81C650.327 234.526 653.209 235.802 656.641 236.682L655.651 238.156C652.087 237.144 649.117 235.736 646.741 233.888C644.277 235.868 641.285 237.32 637.765 238.244L636.797 236.792C640.273 235.912 643.155 234.592 645.465 232.832C643.859 231.38 642.539 229.708 641.505 227.86L642.869 227.09C643.837 228.894 645.113 230.456 646.675 231.798C648.171 230.39 649.403 228.784 650.349 226.936ZM643.045 222.844L644.189 223.856C642.517 226.034 640.449 227.948 637.985 229.576L636.973 228.234C639.371 226.694 641.395 224.912 643.045 222.844ZM665.683 226.584H662.625V218.84H676.111V226.584H667.465C667.069 227.2 666.585 227.794 666.057 228.366H677.717C677.651 230.72 677.519 232.634 677.321 234.086C677.101 235.516 676.771 236.528 676.309 237.1C675.847 237.628 675.099 237.936 674.043 237.98H671.205L670.787 236.506C671.667 236.55 672.503 236.572 673.295 236.572C674.373 236.572 675.077 236.154 675.429 235.318C675.781 234.438 676.001 232.59 676.111 229.774H673.999C672.107 233.998 669.093 236.77 664.935 238.134L664.033 236.814C667.905 235.582 670.699 233.25 672.393 229.774H669.489C667.949 232.238 665.463 234.152 662.009 235.516L661.019 234.306C664.187 233.14 666.453 231.622 667.839 229.774H664.473C663.395 230.588 662.141 231.336 660.689 231.996L659.831 230.588C662.493 229.532 664.451 228.212 665.683 226.584ZM674.549 225.242V223.35H664.187V225.242H674.549ZM664.187 222.074H674.549V220.204H664.187V222.074ZM688.387 223.064C689.663 224.648 690.851 226.166 691.929 227.618C692.809 225.968 693.513 224.186 694.041 222.294L695.603 222.558C694.943 224.934 694.063 227.09 692.963 229.026C694.305 230.918 695.449 232.678 696.395 234.284L694.965 235.252C694.085 233.734 693.117 232.15 692.017 230.522C690.653 232.502 689.047 234.196 687.155 235.626L686.099 234.284C688.057 232.788 689.707 231.072 691.027 229.092C689.839 227.398 688.519 225.66 687.089 223.856L688.387 223.064ZM684.471 218.906H698.705V227.706C698.705 231.314 698.815 233.624 699.079 234.636C699.321 235.626 699.607 236.132 699.959 236.132C700.245 236.132 700.487 235.12 700.685 233.118L702.093 233.8C701.829 235.45 701.543 236.572 701.235 237.188C700.905 237.716 700.531 237.98 700.135 237.98C699.079 237.98 698.331 237.276 697.847 235.912C697.319 234.57 697.077 231.842 697.077 227.706V220.446H686.055V227.442C686.011 231.71 685.109 235.296 683.371 238.2L682.051 237.122C683.591 234.548 684.405 231.314 684.471 227.442V218.906ZM717.251 231.138H712.125V229.664H723.873V231.138H718.835V235.956H724.687V237.496H711.245V235.956H717.251V231.138ZM707.219 238.002H705.283L704.953 236.462C705.547 236.506 706.119 236.55 706.669 236.55C707.241 236.55 707.527 236.264 707.527 235.692V230.28C706.647 230.61 705.767 230.918 704.887 231.204L704.491 229.62C705.525 229.356 706.537 229.048 707.527 228.696V223.768H704.843V222.25H707.527V218.048H709.155V222.25H710.981V223.768H709.155V228.036C709.815 227.728 710.453 227.42 711.069 227.09V228.696C710.431 229.004 709.793 229.312 709.155 229.598V236.088C709.155 237.364 708.495 238.002 707.219 238.002ZM717.845 217.784C718.219 218.576 718.593 219.456 718.945 220.446H724.115V224.604H722.641V221.876H713.401V224.604H711.905V220.446H717.361C717.009 219.566 716.635 218.752 716.239 218.048L717.845 217.784ZM715.799 223.24L717.185 223.79C716.173 225.968 714.853 227.64 713.203 228.784L712.059 227.794C713.709 226.65 714.963 225.132 715.799 223.24ZM720.045 223.196C721.409 224.604 722.619 226.188 723.675 227.904L722.289 228.608C721.211 226.804 720.023 225.176 718.703 223.768L720.045 223.196Z" fill="black"/>
<path d="M606.833 257.45C607.845 257.45 608.703 257.802 609.429 258.506C610.133 259.21 610.485 260.068 610.485 261.08C610.485 262.092 610.133 262.95 609.429 263.676C608.703 264.38 607.845 264.732 606.833 264.732C605.821 264.732 604.963 264.38 604.259 263.676C603.555 262.95 603.203 262.092 603.203 261.08C603.203 260.068 603.555 259.21 604.259 258.506C604.963 257.802 605.821 257.45 606.833 257.45ZM628.657 257.076H630.175V260.42H632.617V261.85H630.175V264.864C631.253 264.644 632.265 264.402 633.233 264.16V265.656C632.243 265.92 631.231 266.184 630.175 266.404V271.178H628.657V266.712C627.293 266.954 625.885 267.174 624.389 267.372L624.191 265.81C625.775 265.612 627.249 265.392 628.657 265.15V261.85H624.961L624.631 260.442C625.269 259.122 625.863 257.472 626.413 255.448H624.213V253.908H626.809C627.029 252.984 627.227 251.994 627.447 250.982L628.943 251.202C628.745 252.148 628.547 253.05 628.349 253.908H632.529V255.448H627.953C627.425 257.34 626.853 258.99 626.237 260.42H628.657V257.076ZM633.541 253.908H636.995C637.171 252.94 637.347 251.95 637.523 250.938L639.085 251.092C638.909 252.06 638.755 253.006 638.579 253.908H643.925V255.448H638.271L637.699 257.978H644.475V259.496H637.325C637.061 260.508 636.775 261.432 636.489 262.29H643.507V263.61C642.759 265.106 641.615 266.602 640.053 268.098C640.955 268.648 641.813 269.22 642.627 269.836L641.747 271.178C639.459 269.418 637.105 268.01 634.685 266.998L635.521 265.744C636.665 266.228 637.743 266.778 638.755 267.35C640.075 266.184 641.109 264.974 641.879 263.698H634.509C634.949 262.334 635.367 260.948 635.741 259.496H632.903V257.978H636.115C636.313 257.12 636.511 256.284 636.687 255.448H633.541V253.908ZM655.387 251.906V265.722H653.979V253.38H649.227V265.722H647.775V251.906H655.387ZM650.877 254.986H652.241V262.136C652.197 264.6 651.845 266.58 651.141 268.054C650.459 269.418 649.359 270.496 647.819 271.266L646.961 269.946C648.413 269.22 649.447 268.252 650.019 267.042C650.547 265.766 650.833 264.138 650.877 262.136V254.986ZM652.989 266.338C654.221 267.57 655.233 268.78 656.047 269.968L654.925 271.09C654.221 269.902 653.231 268.648 651.977 267.328L652.989 266.338ZM661.371 261.674H659.435V269.154C660.403 268.78 661.415 268.274 662.427 267.636L662.713 269.044C661.349 269.902 659.809 270.606 658.049 271.156L657.389 269.748C657.719 269.594 657.895 269.374 657.895 269.066V261.674H656.311V260.134H657.895V251.048H659.435V260.134H666.739V261.674H662.757C663.769 265.194 665.243 267.878 667.157 269.77L666.079 271.002C664.011 268.89 662.427 265.766 661.371 261.674ZM665.199 252.038L666.409 253.028C664.869 255.492 663.043 257.34 660.975 258.528L660.117 257.296C662.097 256.152 663.791 254.392 665.199 252.038ZM606.833 290.45C607.845 290.45 608.703 290.802 609.429 291.506C610.133 292.21 610.485 293.068 610.485 294.08C610.485 295.092 610.133 295.95 609.429 296.676C608.703 297.38 607.845 297.732 606.833 297.732C605.821 297.732 604.963 297.38 604.259 296.676C603.555 295.95 603.203 295.092 603.203 294.08C603.203 293.068 603.555 292.21 604.259 291.506C604.963 290.802 605.821 290.45 606.833 290.45ZM633.761 284.004H634.905C637.699 287.238 640.933 289.79 644.585 291.638L643.727 293.156C640.053 291.176 636.929 288.602 634.333 285.434C631.935 288.426 628.767 291 624.851 293.2L624.015 291.682C627.931 289.614 631.165 287.062 633.761 284.004ZM641.285 295.312V304.178H639.745V302.858H628.921V304.178H627.381V295.312H641.285ZM628.921 301.34H639.745V296.808H628.921V301.34ZM628.613 291H640.053V292.518H628.613V291ZM658.379 292.98C660.007 294.872 661.239 296.544 662.097 297.952L660.755 298.898C659.875 297.358 658.643 295.664 657.081 293.794L658.379 292.98ZM658.709 283.982L660.293 284.18C660.029 285.39 659.677 286.534 659.281 287.59H666.167C666.167 295.18 666.057 299.866 665.837 301.648C665.595 303.298 664.495 304.134 662.515 304.134C662.009 304.134 661.129 304.09 659.875 304.046L659.479 302.572C660.579 302.616 661.503 302.66 662.295 302.66C663.483 302.66 664.165 302.11 664.341 301.01C664.473 299.734 664.561 295.796 664.605 289.196H658.599C657.829 290.736 656.905 292.144 655.805 293.376L654.815 292.078C656.729 289.878 658.027 287.172 658.709 283.982ZM655.233 299.822V301.45C652.945 302.22 650.327 302.836 647.401 303.32L647.203 301.758C650.283 301.274 652.945 300.614 655.233 299.822ZM650.789 283.96L652.329 284.576C651.251 287.392 650.151 289.658 649.051 291.374C650.063 291.242 651.097 291.066 652.109 290.868C652.571 290.01 653.055 289.108 653.561 288.14L655.079 288.712C652.967 292.584 651.185 295.334 649.777 296.962C651.493 296.654 653.231 296.214 654.969 295.664V297.072C652.505 297.864 650.129 298.392 647.863 298.7L647.445 297.226C647.731 297.094 647.973 296.94 648.171 296.764C649.029 295.884 650.063 294.432 651.273 292.364C650.041 292.584 648.809 292.782 647.555 292.98L647.159 291.506C647.401 291.396 647.621 291.198 647.841 290.89C648.963 288.866 649.953 286.556 650.789 283.96ZM669.929 286.644H679.015C678.619 285.742 678.179 284.928 677.695 284.18L679.455 283.872C679.895 284.708 680.335 285.632 680.731 286.644H689.399V288.162H669.929V286.644ZM683.129 288.822C685.571 290.758 687.617 292.672 689.267 294.608L688.101 295.774C686.649 293.926 684.625 291.968 682.051 289.856L683.129 288.822ZM683.349 292.936L684.801 293.574C683.745 295.598 682.469 297.336 680.951 298.81C683.327 300.526 686.209 301.802 689.641 302.682L688.651 304.156C685.087 303.144 682.117 301.736 679.741 299.888C677.277 301.868 674.285 303.32 670.765 304.244L669.797 302.792C673.273 301.912 676.155 300.592 678.465 298.832C676.859 297.38 675.539 295.708 674.505 293.86L675.869 293.09C676.837 294.894 678.113 296.456 679.675 297.798C681.171 296.39 682.403 294.784 683.349 292.936ZM676.045 288.844L677.189 289.856C675.517 292.034 673.449 293.948 670.985 295.576L669.973 294.234C672.371 292.694 674.395 290.912 676.045 288.844ZM692.941 284.972H711.641V286.512H700.069L699.167 290.142H708.671L706.911 301.89H712.213V303.43H692.545V301.89H705.349L705.965 298.018H695.625L698.463 286.512H692.941V284.972ZM706.207 296.544L706.977 291.616H698.793L697.561 296.544H706.207Z" fill="black" fill-opacity="0.5"/>
<path d="M533.666 188H1063.67" stroke="black"/>
</g>
<path d="M1066.67 334V335H1067.67V334H1066.67ZM1065.67 74V334H1067.67V74H1065.67ZM1066.67 333H533.333V335H1066.67V333Z" fill="black" mask="url(#path-10-inside-2_3807_1153)"/>
<g clip-path="url(#clip5_3807_1153)">
<mask id="path-17-inside-3_3807_1153" fill="white">
<path d="M1066.67 74H1600V334H1066.67V74Z"/>
</mask>
<path d="M1066.67 74H1600V334H1066.67V74Z" fill="white"/>
<path d="M1107.34 110.45C1108.35 110.45 1109.21 110.802 1109.93 111.506C1110.64 112.21 1110.99 113.068 1110.99 114.08C1110.99 115.092 1110.64 115.95 1109.93 116.676C1109.21 117.38 1108.35 117.732 1107.34 117.732C1106.32 117.732 1105.47 117.38 1104.76 116.676C1104.06 115.95 1103.71 115.092 1103.71 114.08C1103.71 113.068 1104.06 112.21 1104.76 111.506C1105.47 110.802 1106.32 110.45 1107.34 110.45ZM1127.91 107.04C1127.38 107.854 1126.78 108.558 1126.12 109.152L1125.18 107.964C1126.23 106.996 1127.11 105.632 1127.84 103.872L1129.27 104.18C1129.07 104.708 1128.87 105.192 1128.68 105.632H1134.97V107.04H1131.65C1131.6 107.788 1131.54 108.514 1131.45 109.174H1135.58V110.626H1131.12C1131.05 110.846 1130.99 111.044 1130.94 111.242C1132.61 112.078 1134.02 112.936 1135.17 113.816L1134.04 114.938C1133.12 114.102 1131.93 113.266 1130.44 112.386C1129.56 113.926 1128.02 115.202 1125.84 116.214L1124.78 114.916C1127.07 113.904 1128.57 112.65 1129.29 111.154L1129.51 110.626H1125.09V109.174H1129.91C1130.04 108.492 1130.11 107.788 1130.15 107.04H1127.91ZM1136.51 105.522H1143.75V113.574H1136.51V105.522ZM1142.21 112.166V106.93H1138.05V112.166H1142.21ZM1142.18 115.158V124.244H1140.58V123.254H1129.69V124.244H1128.1V115.158H1142.18ZM1129.69 121.846H1140.58V119.954H1129.69V121.846ZM1129.69 118.568H1140.58V116.566H1129.69V118.568ZM1150.43 116.654V118.7H1155.52V116.654H1150.43ZM1155.52 115.334V113.2H1150.43V115.334H1155.52ZM1150.43 120.042V124.244H1148.92V111.814H1157.03V122.154C1157.03 123.43 1156.42 124.09 1155.19 124.09H1153.43L1153.03 122.594L1154.68 122.66C1155.23 122.66 1155.52 122.374 1155.52 121.824V120.042H1150.43ZM1164.76 113.64H1161.13C1159.78 113.64 1159.12 112.914 1159.12 111.484V104.092H1160.69V106.952C1163.11 106.578 1165.06 106.182 1166.58 105.786L1167.09 107.172C1165.24 107.634 1163.11 108.052 1160.69 108.404V111.154C1160.69 111.858 1160.97 112.21 1161.57 112.21H1164.45C1164.89 112.21 1165.2 112.078 1165.37 111.858C1165.59 111.55 1165.72 110.736 1165.81 109.372L1167.29 109.834C1167.13 111.638 1166.85 112.738 1166.45 113.134C1166.1 113.464 1165.53 113.64 1164.76 113.64ZM1160.69 118.612V121.758C1160.69 122.198 1160.95 122.44 1161.52 122.44H1164.51C1164.95 122.44 1165.28 122.33 1165.46 122.132C1165.7 121.824 1165.86 121.01 1165.94 119.668L1167.37 120.108C1167.24 121.89 1166.96 122.968 1166.54 123.364C1166.19 123.694 1165.61 123.87 1164.82 123.87H1161.08C1159.76 123.87 1159.12 123.276 1159.12 122.11V114.476H1160.69V117.182C1162.89 116.962 1164.84 116.588 1166.58 116.06L1167.09 117.468C1165.11 118.04 1162.97 118.414 1160.69 118.612ZM1155.45 105.588C1156.77 107.37 1157.8 108.91 1158.53 110.23L1157.23 111.154C1156.99 110.67 1156.73 110.186 1156.44 109.702C1154.09 110.076 1151.27 110.34 1148.01 110.516L1147.57 109.196C1147.86 109.108 1148.1 108.954 1148.3 108.778C1149.66 107.37 1150.81 105.786 1151.69 104.026L1153.18 104.488C1152.17 106.446 1151.07 107.986 1149.84 109.108C1151.69 108.998 1153.65 108.822 1155.71 108.558C1155.25 107.854 1154.75 107.106 1154.22 106.358L1155.45 105.588ZM1179.58 104.004H1180.73C1183.52 107.238 1186.76 109.79 1190.41 111.638L1189.55 113.156C1185.88 111.176 1182.75 108.602 1180.16 105.434C1177.76 108.426 1174.59 111 1170.67 113.2L1169.84 111.682C1173.75 109.614 1176.99 107.062 1179.58 104.004ZM1187.11 115.312V124.178H1185.57V122.858H1174.74V124.178H1173.2V115.312H1187.11ZM1174.74 121.34H1185.57V116.808H1174.74V121.34ZM1174.44 111H1185.88V112.518H1174.44V111ZM1204.2 112.98C1205.83 114.872 1207.06 116.544 1207.92 117.952L1206.58 118.898C1205.7 117.358 1204.47 115.664 1202.9 113.794L1204.2 112.98ZM1204.53 103.982L1206.12 104.18C1205.85 105.39 1205.5 106.534 1205.1 107.59H1211.99C1211.99 115.18 1211.88 119.866 1211.66 121.648C1211.42 123.298 1210.32 124.134 1208.34 124.134C1207.83 124.134 1206.95 124.09 1205.7 124.046L1205.3 122.572C1206.4 122.616 1207.33 122.66 1208.12 122.66C1209.31 122.66 1209.99 122.11 1210.16 121.01C1210.3 119.734 1210.38 115.796 1210.43 109.196H1204.42C1203.65 110.736 1202.73 112.144 1201.63 113.376L1200.64 112.078C1202.55 109.878 1203.85 107.172 1204.53 103.982ZM1201.06 119.822V121.45C1198.77 122.22 1196.15 122.836 1193.22 123.32L1193.03 121.758C1196.11 121.274 1198.77 120.614 1201.06 119.822ZM1196.61 103.96L1198.15 104.576C1197.07 107.392 1195.97 109.658 1194.87 111.374C1195.89 111.242 1196.92 111.066 1197.93 110.868C1198.39 110.01 1198.88 109.108 1199.38 108.14L1200.9 108.712C1198.79 112.584 1197.01 115.334 1195.6 116.962C1197.32 116.654 1199.05 116.214 1200.79 115.664V117.072C1198.33 117.864 1195.95 118.392 1193.69 118.7L1193.27 117.226C1193.55 117.094 1193.8 116.94 1193.99 116.764C1194.85 115.884 1195.89 114.432 1197.1 112.364C1195.86 112.584 1194.63 112.782 1193.38 112.98L1192.98 111.506C1193.22 111.396 1193.44 111.198 1193.66 110.89C1194.79 108.866 1195.78 106.556 1196.61 103.96ZM1218.35 104.026L1219.89 104.356C1219.69 105.104 1219.47 105.83 1219.25 106.512H1223.41V108.03H1218.72C1218.13 109.526 1217.45 110.89 1216.68 112.122L1215.38 111.308C1216.74 109.108 1217.73 106.688 1218.35 104.026ZM1217.69 110.78H1222.81V112.232H1220.72V115.092H1223.76V116.544H1220.72V121.406C1221.82 120.944 1222.92 120.306 1224.05 119.514L1224.31 120.944C1222.81 122.022 1221.1 122.902 1219.12 123.562L1218.46 122.22C1218.92 122.066 1219.16 121.846 1219.16 121.538V116.544H1216.02V115.092H1219.16V112.232H1217.69V110.78ZM1234.19 107.92L1234.41 109.372L1229.08 110.23C1229.11 111.286 1229.17 112.276 1229.26 113.222L1234.74 112.232L1234.98 113.728L1229.41 114.718C1229.46 115.07 1229.5 115.422 1229.57 115.774C1229.74 116.83 1229.99 117.798 1230.29 118.656C1231.35 117.622 1232.3 116.456 1233.13 115.136L1234.34 115.928C1233.26 117.534 1232.12 118.92 1230.89 120.086C1230.98 120.284 1231.06 120.482 1231.17 120.658C1231.83 121.736 1232.45 122.286 1233 122.286C1233.51 122.286 1233.95 121.164 1234.32 118.92L1235.66 119.822C1235.09 122.572 1234.28 123.958 1233.18 123.958C1232.16 123.914 1231.2 123.254 1230.25 121.934C1230.05 121.67 1229.88 121.384 1229.74 121.098C1227.98 122.506 1226.07 123.54 1224.05 124.156L1223.14 122.946C1225.39 122.22 1227.39 121.142 1229.11 119.734C1228.71 118.788 1228.4 117.71 1228.14 116.522C1228.03 115.994 1227.94 115.488 1227.85 115.004L1224.29 115.642L1224.07 114.146L1227.65 113.508C1227.54 112.54 1227.48 111.528 1227.46 110.494L1224.46 110.978L1224.22 109.504L1227.41 108.998V104.026H1229.04V108.734L1234.19 107.92ZM1231.37 104.004C1232.38 105.016 1233.15 105.874 1233.68 106.622L1232.45 107.48C1231.88 106.644 1231.13 105.742 1230.16 104.752L1231.37 104.004ZM1251.06 110.714V117.402H1243.12V121.472C1243.12 122.088 1243.49 122.418 1244.2 122.418H1254.69C1255.2 122.396 1255.55 122.176 1255.75 121.758C1255.92 121.406 1256.06 120.526 1256.17 119.162L1257.66 119.646C1257.53 121.01 1257.38 121.978 1257.18 122.55C1256.85 123.43 1256.17 123.87 1255.15 123.914H1243.6C1242.22 123.914 1241.54 123.276 1241.54 122.044V110.714H1251.06ZM1243.12 115.95H1249.48V112.166H1243.12V115.95ZM1243.58 103.828L1245.17 104.18C1244.86 104.928 1244.51 105.676 1244.15 106.38H1256.43C1256.43 111.946 1256.32 115.378 1256.1 116.698C1255.9 118.106 1255.04 118.81 1253.53 118.81C1253.26 118.81 1252.8 118.788 1252.14 118.744L1251.77 117.314C1252.36 117.358 1252.87 117.402 1253.31 117.402C1254.03 117.402 1254.45 116.962 1254.56 116.082C1254.69 115.202 1254.78 112.474 1254.82 107.898H1243.32C1242.22 109.702 1240.99 111.286 1239.6 112.628L1238.5 111.308C1240.57 109.416 1242.26 106.908 1243.58 103.828Z" fill="black"/>
<path d="M1107.34 224.45C1108.35 224.45 1109.21 224.802 1109.93 225.506C1110.64 226.21 1110.99 227.068 1110.99 228.08C1110.99 229.092 1110.64 229.95 1109.93 230.676C1109.21 231.38 1108.35 231.732 1107.34 231.732C1106.32 231.732 1105.47 231.38 1104.76 230.676C1104.06 229.95 1103.71 229.092 1103.71 228.08C1103.71 227.068 1104.06 226.21 1104.76 225.506C1105.47 224.802 1106.32 224.45 1107.34 224.45ZM1134.26 218.092H1135.41C1138.18 220.996 1141.37 223.262 1144.98 224.934L1144.19 226.342C1140.53 224.582 1137.43 222.316 1134.84 219.522C1132.44 222.184 1129.29 224.494 1125.4 226.452L1124.63 225.066C1128.5 223.196 1131.71 220.864 1134.26 218.092ZM1128.7 225.044H1140.97V226.562H1135.65V230.39H1142.01V231.908H1135.65V235.978H1144.01V237.54H1125.68V235.978H1134.02V231.908H1127.64V230.39H1134.02V226.562H1128.7V225.044ZM1150.63 222.514C1151.16 223.526 1151.67 224.758 1152.11 226.21H1154.42C1155.05 225 1155.6 223.702 1156.04 222.338L1157.52 222.844C1157.06 224.098 1156.55 225.22 1155.98 226.21H1158.64V227.75H1147.62V226.21H1150.59C1150.19 225.066 1149.73 224.01 1149.18 223.042L1150.63 222.514ZM1159.65 218.95H1166.87V220.138C1166.19 222.448 1165.46 224.604 1164.67 226.584C1166.32 228.652 1167.15 230.368 1167.18 231.688C1167.18 233.052 1166.89 233.998 1166.32 234.526C1165.7 235.054 1164.49 235.34 1162.69 235.34L1162.18 233.668C1162.8 233.712 1163.3 233.756 1163.72 233.756C1164.51 233.712 1165.02 233.558 1165.24 233.294C1165.46 233.008 1165.57 232.48 1165.59 231.688C1165.57 230.39 1164.69 228.696 1162.97 226.584C1163.7 224.846 1164.43 222.778 1165.13 220.402H1161.19V238.156H1159.65V218.95ZM1148.04 220.16H1152.46C1152.19 219.434 1151.93 218.774 1151.64 218.18L1153.27 217.894C1153.51 218.554 1153.76 219.324 1154 220.16H1158.49V221.7H1148.04V220.16ZM1157.63 229.752V238.046H1156.07V236.814H1150.43V238.046H1148.87V229.752H1157.63ZM1150.43 235.318H1156.07V231.248H1150.43V235.318ZM1173.03 218.026L1174.57 218.356C1174.37 219.104 1174.15 219.83 1173.93 220.512H1178.09V222.03H1173.4C1172.81 223.526 1172.13 224.89 1171.36 226.122L1170.06 225.308C1171.42 223.108 1172.41 220.688 1173.03 218.026ZM1172.37 224.78H1177.49V226.232H1175.4V229.092H1178.44V230.544H1175.4V235.406C1176.5 234.944 1177.6 234.306 1178.73 233.514L1178.99 234.944C1177.49 236.022 1175.78 236.902 1173.8 237.562L1173.14 236.22C1173.6 236.066 1173.84 235.846 1173.84 235.538V230.544H1170.7V229.092H1173.84V226.232H1172.37V224.78ZM1188.87 221.92L1189.09 223.372L1183.76 224.23C1183.79 225.286 1183.85 226.276 1183.94 227.222L1189.42 226.232L1189.66 227.728L1184.09 228.718C1184.14 229.07 1184.18 229.422 1184.25 229.774C1184.42 230.83 1184.67 231.798 1184.97 232.656C1186.03 231.622 1186.98 230.456 1187.81 229.136L1189.02 229.928C1187.94 231.534 1186.8 232.92 1185.57 234.086C1185.66 234.284 1185.74 234.482 1185.85 234.658C1186.51 235.736 1187.13 236.286 1187.68 236.286C1188.19 236.286 1188.63 235.164 1189 232.92L1190.34 233.822C1189.77 236.572 1188.96 237.958 1187.86 237.958C1186.84 237.914 1185.88 237.254 1184.93 235.934C1184.73 235.67 1184.56 235.384 1184.42 235.098C1182.66 236.506 1180.75 237.54 1178.73 238.156L1177.82 236.946C1180.07 236.22 1182.07 235.142 1183.79 233.734C1183.39 232.788 1183.08 231.71 1182.82 230.522C1182.71 229.994 1182.62 229.488 1182.53 229.004L1178.97 229.642L1178.75 228.146L1182.33 227.508C1182.22 226.54 1182.16 225.528 1182.14 224.494L1179.14 224.978L1178.9 223.504L1182.09 222.998V218.026H1183.72V222.734L1188.87 221.92ZM1186.05 218.004C1187.06 219.016 1187.83 219.874 1188.36 220.622L1187.13 221.48C1186.56 220.644 1185.81 219.742 1184.84 218.752L1186.05 218.004ZM1205.74 224.714V231.402H1197.8V235.472C1197.8 236.088 1198.17 236.418 1198.88 236.418H1209.37C1209.88 236.396 1210.23 236.176 1210.43 235.758C1210.6 235.406 1210.74 234.526 1210.85 233.162L1212.34 233.646C1212.21 235.01 1212.06 235.978 1211.86 236.55C1211.53 237.43 1210.85 237.87 1209.83 237.914H1198.28C1196.9 237.914 1196.22 237.276 1196.22 236.044V224.714H1205.74ZM1197.8 229.95H1204.16V226.166H1197.8V229.95ZM1198.26 217.828L1199.85 218.18C1199.54 218.928 1199.19 219.676 1198.83 220.38H1211.11C1211.11 225.946 1211 229.378 1210.78 230.698C1210.58 232.106 1209.72 232.81 1208.21 232.81C1207.94 232.81 1207.48 232.788 1206.82 232.744L1206.45 231.314C1207.04 231.358 1207.55 231.402 1207.99 231.402C1208.71 231.402 1209.13 230.962 1209.24 230.082C1209.37 229.202 1209.46 226.474 1209.5 221.898H1198C1196.9 223.702 1195.67 225.286 1194.28 226.628L1193.18 225.308C1195.25 223.416 1196.94 220.908 1198.26 217.828Z" fill="black"/>
<path d="M1066.33 188H1600" stroke="black"/>
</g>
<path d="M1600 333H1066.67V335H1600V333Z" fill="black" mask="url(#path-17-inside-3_3807_1153)"/>
<mask id="path-22-inside-4_3807_1153" fill="white">
<path d="M0 334H533.333V415H0V334Z"/>
</mask>
<path d="M0 334H533.333V415H0V334Z" fill="white"/>
<path d="M533.333 415V416H534.333V415H533.333ZM532.333 334V415H534.333V334H532.333ZM533.333 414H0V416H533.333V414Z" fill="black" mask="url(#path-22-inside-4_3807_1153)"/>
<path d="M31.458 364.07H33.768V381.296H36.188V364.07H38.498V381.296H44.834V383.54H25.166V381.296H31.458V364.07ZM42.392 368.228L44.416 368.8C43.58 372.562 42.524 375.862 41.248 378.678L39.18 377.952C40.412 375.4 41.468 372.144 42.392 368.228ZM27.52 368.162C28.62 371.088 29.61 374.454 30.468 378.238L28.378 378.744C27.63 375.312 26.706 372.012 25.562 368.822L27.52 368.162ZM53.832 363.828L56.164 364.18C55.944 364.686 55.724 365.17 55.482 365.61H64.832V367.458C63.534 368.954 61.994 370.23 60.19 371.286C62.5 372.122 65.074 372.672 67.89 372.936L66.856 375.07C63.446 374.674 60.388 373.86 57.66 372.584C55.042 373.75 52.006 374.608 48.53 375.136L47.474 372.98C50.334 372.628 52.886 372.034 55.13 371.242C54.162 370.648 53.26 370.01 52.424 369.328C51.698 369.922 50.906 370.472 50.07 371L48.684 369.174C51.236 367.722 52.952 365.94 53.832 363.828ZM57.638 370.186C59.046 369.482 60.3 368.69 61.422 367.766H53.986L53.942 367.81C55.086 368.734 56.318 369.526 57.638 370.186ZM55.966 373.838H58.232C58.232 374.586 58.166 375.312 58.078 375.972H65.602C65.558 379.888 65.228 382.22 64.612 382.99C63.996 383.76 62.918 384.156 61.378 384.156C60.608 384.156 59.684 384.112 58.584 384.024L58.012 381.956C59.178 382.022 60.124 382.066 60.872 382.088C61.906 382.066 62.544 381.846 62.808 381.428C63.094 380.988 63.27 379.866 63.314 378.04H57.55C57.374 378.546 57.154 379.03 56.89 379.47C55.834 381.428 53.26 383.056 49.168 384.376L47.65 382.506C51.214 381.472 53.546 380.218 54.624 378.744C54.778 378.502 54.91 378.26 55.042 378.04H49.014V375.972H55.746C55.878 375.29 55.944 374.586 55.966 373.838ZM77.108 368.866C78.208 370.252 79.242 371.572 80.188 372.848C80.936 371.396 81.552 369.856 82.014 368.228L84.28 368.624C83.642 370.956 82.784 373.068 81.728 374.96C83.004 376.764 84.082 378.414 84.962 379.932L82.872 381.384C82.124 380.02 81.266 378.634 80.32 377.182C79.022 378.942 77.504 380.46 75.788 381.758L74.248 379.778C76.074 378.414 77.614 376.83 78.868 375.026C77.768 373.398 76.558 371.748 75.238 370.032L77.108 368.866ZM72.51 364.62H87.294V373.706C87.294 376.962 87.382 379.074 87.58 379.998C87.734 380.9 87.932 381.362 88.152 381.362C88.306 381.362 88.438 380.526 88.57 378.898L90.616 379.888C90.33 381.604 90.022 382.726 89.67 383.276C89.274 383.826 88.856 384.112 88.394 384.112C87.206 384.112 86.348 383.408 85.798 382C85.226 380.636 84.94 377.886 84.94 373.706V366.864H74.82V373.42C74.776 377.754 73.874 381.384 72.136 384.332L70.2 382.748C71.674 380.284 72.444 377.16 72.51 373.42V364.62ZM105.268 377.468H100.494V375.334H112.286V377.468H107.578V381.472H113.1V383.694H99.614V381.472H105.268V377.468ZM95.588 384.09H93.652L93.146 381.868C93.718 381.956 94.268 382 94.796 382C95.28 382 95.522 381.736 95.522 381.252V376.808C94.752 377.094 93.982 377.358 93.212 377.6L92.64 375.268C93.608 375.048 94.576 374.784 95.522 374.454V370.12H93.08V367.898H95.522V363.96H97.854V367.898H99.438V370.12H97.854V373.53C98.404 373.266 98.954 372.98 99.504 372.694V375.026C98.932 375.29 98.382 375.554 97.854 375.818V381.846C97.854 383.342 97.084 384.09 95.588 384.09ZM106.632 363.674C106.94 364.422 107.27 365.236 107.578 366.138H112.638V370.692H110.504V368.184H102.298V370.692H100.142V366.138H105.268C104.982 365.39 104.652 364.708 104.278 364.07L106.632 363.674ZM103.816 369.152L105.818 369.944C104.872 372.1 103.618 373.75 102.056 374.894L100.406 373.442C101.946 372.342 103.068 370.912 103.816 369.152ZM108.744 369.108C110.064 370.494 111.208 372.034 112.198 373.706L110.174 374.74C109.162 372.936 108.062 371.352 106.852 369.944L108.744 369.108Z" fill="black"/>
<g clip-path="url(#clip6_3807_1153)">
<mask id="path-25-inside-5_3807_1153" fill="white">
<path d="M533.333 334H1066.67V415H533.333V334Z"/>
</mask>
<path d="M533.333 334H1066.67V415H533.333V334Z" fill="white"/>
<path d="M573.833 370.45C574.845 370.45 575.703 370.802 576.429 371.506C577.133 372.21 577.485 373.068 577.485 374.08C577.485 375.092 577.133 375.95 576.429 376.676C575.703 377.38 574.845 377.732 573.833 377.732C572.821 377.732 571.963 377.38 571.259 376.676C570.555 375.95 570.203 375.092 570.203 374.08C570.203 373.068 570.555 372.21 571.259 371.506C571.963 370.802 572.821 370.45 573.833 370.45ZM602.543 376.434H606.657V373.728H603.049L602.741 372.408C603.489 371.198 604.171 369.702 604.787 367.898H602.587V366.512H605.205C605.425 365.72 605.645 364.884 605.865 364.026L607.273 364.356C607.097 365.104 606.899 365.83 606.701 366.512H610.903V367.898H606.261C605.689 369.57 605.073 371.066 604.391 372.342H606.657V369.372H608.131V372.342H610.705V373.728H608.131V376.434H611.321V377.842H608.131V381.494H606.657V377.842H602.543V376.434ZM599.463 364.488C600.475 365.808 601.267 366.974 601.795 367.964L600.607 368.8C600.035 367.7 599.265 366.512 598.297 365.214L599.463 364.488ZM608.175 382.374C609.319 382.374 610.419 382.352 611.453 382.33L611.035 383.826H608.065C607.405 383.826 606.723 383.804 606.063 383.782C605.051 383.76 604.149 383.628 603.379 383.386C602.609 383.122 601.971 382.66 601.443 382.044C601.157 381.714 600.915 381.56 600.717 381.56C600.343 381.56 599.661 382.418 598.693 384.156L597.747 382.968C598.671 381.516 599.441 380.614 600.057 380.24V372.826H598.275V371.418H601.509V380.306C601.597 380.394 601.685 380.46 601.751 380.548C602.191 381.12 602.763 381.56 603.445 381.89C604.061 382.132 604.809 382.286 605.667 382.33C606.503 382.352 607.339 382.374 608.175 382.374ZM593.567 364.092L595.085 364.4C594.931 365.148 594.755 365.852 594.579 366.556H597.901V368.052H594.117C593.633 369.57 593.061 370.956 592.423 372.188L591.169 371.396C592.269 369.196 593.083 366.754 593.567 364.092ZM593.083 370.934H597.527V372.364H595.723V375.114H598.143V376.588H595.723V381.714C596.339 381.406 596.977 380.988 597.637 380.46L597.901 381.824C596.845 382.572 595.657 383.21 594.293 383.694L593.699 382.374C594.029 382.22 594.205 381.978 594.205 381.67V376.588H591.763V375.114H594.205V372.364H593.083V370.934ZM614.203 365.192H633.761V366.754H624.213V370.076C626.941 371.44 629.713 373.024 632.529 374.828L631.583 376.236C628.657 374.3 626.193 372.804 624.213 371.748V384.244H622.607V366.754H614.203V365.192Z" fill="black"/>
<path d="M1066.67 334V415" stroke="black" stroke-width="2" stroke-linejoin="round"/>
<path d="M1066.67 334V415" stroke="black" stroke-width="2" stroke-linejoin="round"/>
</g>
<path d="M1066.67 415V416H1067.67V415H1066.67ZM1065.67 334V415H1067.67V334H1065.67ZM1066.67 414H533.333V416H1066.67V414Z" fill="black" mask="url(#path-25-inside-5_3807_1153)"/>
<mask id="path-30-inside-6_3807_1153" fill="white">
<path d="M1066.67 334H1600V415H1066.67V334Z"/>
</mask>
<path d="M1066.67 334H1600V415H1066.67V334Z" fill="white"/>
<path d="M1600 414H1066.67V416H1600V414Z" fill="black" mask="url(#path-30-inside-6_3807_1153)"/>
<path d="M1107.17 370.45C1108.18 370.45 1109.04 370.802 1109.76 371.506C1110.47 372.21 1110.82 373.068 1110.82 374.08C1110.82 375.092 1110.47 375.95 1109.76 376.676C1109.04 377.38 1108.18 377.732 1107.17 377.732C1106.16 377.732 1105.3 377.38 1104.59 376.676C1103.89 375.95 1103.54 375.092 1103.54 374.08C1103.54 373.068 1103.89 372.21 1104.59 371.506C1105.3 370.802 1106.16 370.45 1107.17 370.45ZM1134.1 364.092H1135.24C1138.01 366.996 1141.2 369.262 1144.81 370.934L1144.02 372.342C1140.37 370.582 1137.26 368.316 1134.67 365.522C1132.27 368.184 1129.12 370.494 1125.23 372.452L1124.46 371.066C1128.33 369.196 1131.54 366.864 1134.1 364.092ZM1128.53 371.044H1140.81V372.562H1135.48V376.39H1141.84V377.908H1135.48V381.978H1143.84V383.54H1125.52V381.978H1133.85V377.908H1127.47V376.39H1133.85V372.562H1128.53V371.044ZM1150.46 368.514C1150.99 369.526 1151.5 370.758 1151.94 372.21H1154.25C1154.89 371 1155.44 369.702 1155.88 368.338L1157.35 368.844C1156.89 370.098 1156.38 371.22 1155.81 372.21H1158.47V373.75H1147.45V372.21H1150.42C1150.02 371.066 1149.56 370.01 1149.01 369.042L1150.46 368.514ZM1159.48 364.95H1166.7V366.138C1166.02 368.448 1165.29 370.604 1164.5 372.584C1166.15 374.652 1166.99 376.368 1167.01 377.688C1167.01 379.052 1166.72 379.998 1166.15 380.526C1165.53 381.054 1164.32 381.34 1162.52 381.34L1162.01 379.668C1162.63 379.712 1163.14 379.756 1163.55 379.756C1164.35 379.712 1164.85 379.558 1165.07 379.294C1165.29 379.008 1165.4 378.48 1165.42 377.688C1165.4 376.39 1164.52 374.696 1162.81 372.584C1163.53 370.846 1164.26 368.778 1164.96 366.402H1161.02V384.156H1159.48V364.95ZM1147.87 366.16H1152.29C1152.03 365.434 1151.76 364.774 1151.48 364.18L1153.1 363.894C1153.35 364.554 1153.59 365.324 1153.83 366.16H1158.32V367.7H1147.87V366.16ZM1157.46 375.752V384.046H1155.9V382.814H1150.27V384.046H1148.7V375.752H1157.46ZM1150.27 381.318H1155.9V377.248H1150.27V381.318ZM1172.86 364.026L1174.4 364.356C1174.2 365.104 1173.98 365.83 1173.76 366.512H1177.92V368.03H1173.23C1172.64 369.526 1171.96 370.89 1171.19 372.122L1169.89 371.308C1171.25 369.108 1172.24 366.688 1172.86 364.026ZM1172.2 370.78H1177.33V372.232H1175.24V375.092H1178.27V376.544H1175.24V381.406C1176.34 380.944 1177.44 380.306 1178.56 379.514L1178.82 380.944C1177.33 382.022 1175.61 382.902 1173.63 383.562L1172.97 382.22C1173.43 382.066 1173.67 381.846 1173.67 381.538V376.544H1170.53V375.092H1173.67V372.232H1172.2V370.78ZM1188.7 367.92L1188.92 369.372L1183.6 370.23C1183.62 371.286 1183.68 372.276 1183.77 373.222L1189.25 372.232L1189.49 373.728L1183.93 374.718C1183.97 375.07 1184.01 375.422 1184.08 375.774C1184.26 376.83 1184.5 377.798 1184.81 378.656C1185.86 377.622 1186.81 376.456 1187.64 375.136L1188.85 375.928C1187.78 377.534 1186.63 378.92 1185.4 380.086C1185.49 380.284 1185.58 380.482 1185.69 380.658C1186.35 381.736 1186.96 382.286 1187.51 382.286C1188.02 382.286 1188.46 381.164 1188.83 378.92L1190.17 379.822C1189.6 382.572 1188.79 383.958 1187.69 383.958C1186.68 383.914 1185.71 383.254 1184.76 381.934C1184.56 381.67 1184.39 381.384 1184.26 381.098C1182.5 382.506 1180.58 383.54 1178.56 384.156L1177.66 382.946C1179.9 382.22 1181.9 381.142 1183.62 379.734C1183.22 378.788 1182.91 377.71 1182.65 376.522C1182.54 375.994 1182.45 375.488 1182.36 375.004L1178.8 375.642L1178.58 374.146L1182.17 373.508C1182.06 372.54 1181.99 371.528 1181.97 370.494L1178.98 370.978L1178.73 369.504L1181.92 368.998V364.026H1183.55V368.734L1188.7 367.92ZM1185.88 364.004C1186.9 365.016 1187.67 365.874 1188.19 366.622L1186.96 367.48C1186.39 366.644 1185.64 365.742 1184.67 364.752L1185.88 364.004ZM1205.57 370.714V377.402H1197.63V381.472C1197.63 382.088 1198.01 382.418 1198.71 382.418H1209.2C1209.71 382.396 1210.06 382.176 1210.26 381.758C1210.44 381.406 1210.57 380.526 1210.68 379.162L1212.17 379.646C1212.04 381.01 1211.89 381.978 1211.69 382.55C1211.36 383.43 1210.68 383.87 1209.67 383.914H1198.12C1196.73 383.914 1196.05 383.276 1196.05 382.044V370.714H1205.57ZM1197.63 375.95H1203.99V372.166H1197.63V375.95ZM1198.09 363.828L1199.68 364.18C1199.37 364.928 1199.02 365.676 1198.67 366.38H1210.94C1210.94 371.946 1210.83 375.378 1210.61 376.698C1210.41 378.106 1209.56 378.81 1208.04 378.81C1207.77 378.81 1207.31 378.788 1206.65 378.744L1206.28 377.314C1206.87 377.358 1207.38 377.402 1207.82 377.402C1208.54 377.402 1208.96 376.962 1209.07 376.082C1209.2 375.202 1209.29 372.474 1209.34 367.898H1197.83C1196.73 369.702 1195.5 371.286 1194.11 372.628L1193.01 371.308C1195.08 369.416 1196.77 366.908 1198.09 363.828Z" fill="black"/>
<mask id="path-33-inside-7_3807_1153" fill="white">
<path d="M0 415H533.333V496H0V415Z"/>
</mask>
<path d="M0 415H533.333V496H0V415Z" fill="white"/>
<path d="M532.333 415V496H534.333V415H532.333Z" fill="black" mask="url(#path-33-inside-7_3807_1153)"/>
<path d="M29.082 453.056V456.224H33.922V453.056H29.082ZM28.972 458.336C28.686 461.064 27.872 463.352 26.53 465.156L24.77 463.572C26.068 461.724 26.728 459.37 26.772 456.51V445.62H43.822V462.23C43.822 463.924 42.942 464.782 41.204 464.782H38.674L38.058 462.538C38.938 462.626 39.73 462.67 40.478 462.67C41.138 462.67 41.49 462.23 41.49 461.394V458.336H36.254V464.54H33.922V458.336H28.972ZM41.49 456.224V453.056H36.254V456.224H41.49ZM41.49 450.944V447.864H36.254V450.944H41.49ZM33.922 447.864H29.082V450.944H33.922V447.864ZM63.754 449.646H52.006V453.144H63.754V449.646ZM51.984 455.388C51.852 459.26 50.862 462.604 48.97 465.42L47.254 463.858C48.882 461.504 49.718 458.446 49.74 454.706V447.402H56.758C56.406 446.588 56.032 445.84 55.614 445.136L58.078 444.74C58.43 445.532 58.76 446.412 59.112 447.402H66.086V455.388H51.984ZM75.15 456.4V456.488C75.128 457.148 75.084 457.764 75.018 458.358H79.572V456.4H75.15ZM74.688 460.382C74.204 462.318 73.39 463.99 72.224 465.398L70.464 463.792C72.048 461.944 72.862 459.568 72.906 456.664V451.978C72.51 452.264 72.092 452.528 71.696 452.792L70.222 451.01C72.774 449.558 74.974 447.468 76.844 444.784L79.154 445.312C78.89 445.708 78.604 446.104 78.34 446.5H86.172V448.172C85.402 448.92 84.632 449.602 83.862 450.174H88.944V463C88.944 464.452 88.086 465.178 86.414 465.178H83.664L83.114 463.066C84.06 463.132 84.94 463.176 85.754 463.176C86.37 463.176 86.678 462.846 86.678 462.208V460.382H81.838V464.892H79.572V460.382H74.688ZM86.678 458.358V456.4H81.838V458.358H86.678ZM86.678 454.376V452.242H81.838V454.376H86.678ZM75.128 450.174H80.65C81.42 449.668 82.19 449.096 82.982 448.48H76.778C76.25 449.074 75.7 449.646 75.128 450.174ZM79.572 452.242H75.15V454.376H79.572V452.242ZM102.232 453.166H97.81V456.4H102.232V453.166ZM104.542 456.4H108.964V453.166H104.542V456.4ZM106.676 451.01H111.274V458.578H97.81V461.768C97.81 462.384 98.118 462.714 98.778 462.714H108.832C109.47 462.67 109.888 462.472 110.108 462.098C110.284 461.834 110.46 460.998 110.636 459.568L112.902 460.272C112.726 461.702 112.506 462.714 112.264 463.33C111.868 464.342 110.988 464.892 109.602 464.936H97.788C96.248 464.936 95.478 464.188 95.478 462.692V452.11L94.29 452.902L92.75 451.01C95.368 449.558 97.656 447.468 99.592 444.784L101.946 445.312C101.594 445.796 101.264 446.28 100.912 446.764H108.612V448.48C107.974 449.448 107.336 450.284 106.676 451.01ZM99.196 448.832C98.448 449.624 97.678 450.35 96.886 451.01H103.662C104.3 450.394 104.96 449.668 105.62 448.832H99.196ZM119.37 444.85L121.636 445.026L121.372 447.666H134.154V449.866H121.152L120.844 452.792H132.966C132.966 458.996 132.526 462.582 131.69 463.572C130.854 464.496 129.05 464.98 126.3 464.98C125.574 464.98 124.826 464.936 124.056 464.87L123.418 462.78C124.562 462.89 125.376 462.956 125.816 462.956C128.104 462.956 129.49 462.582 129.93 461.834C130.414 461.042 130.656 458.732 130.656 454.926H118.292L119.37 444.85ZM115.674 457.786H128.06V459.986H115.674V457.786ZM143.966 454.618V465.222H141.678V455.014C140.974 456.994 140.094 458.798 139.038 460.426L138.004 457.786C139.632 455.872 140.842 453.672 141.59 451.208H138.488V448.986H141.678V444.938H143.966V448.986H146.628V451.208H143.966V452.11C145.022 453.078 146.078 454.178 147.134 455.366L145.814 457.368C145.11 456.268 144.494 455.344 143.966 454.618ZM154.878 448.238H149.928C150.192 451.142 150.962 453.804 152.26 456.202C153.558 453.826 154.438 451.186 154.878 448.238ZM150.94 458.27C149.158 455.234 148.102 451.89 147.75 448.238H146.936V446.016H157.122V448.194C156.506 452.11 155.34 455.52 153.624 458.38C154.988 460.272 156.66 461.966 158.684 463.462L157.122 465.31C155.208 463.77 153.602 462.098 152.304 460.338C150.808 462.274 149.048 463.924 146.98 465.266L145.484 463.396C147.684 461.944 149.51 460.228 150.94 458.27ZM161.5 445.62H168.804V447.424C168.144 449.272 167.396 451.23 166.538 453.298C167.902 455.344 168.628 457.104 168.738 458.6C168.738 459.656 168.518 460.426 168.078 460.866C167.418 461.438 166.252 461.746 164.624 461.768L163.876 459.436C164.36 459.524 164.778 459.568 165.108 459.568C165.636 459.524 165.988 459.458 166.164 459.326C166.34 459.194 166.428 458.952 166.428 458.6C166.428 457.126 165.68 455.476 164.206 453.65C165.174 451.472 165.944 449.514 166.494 447.776H163.744V465.31H161.5V445.62ZM171.686 451.67V453.496H177.252V451.67H171.686ZM177.252 449.602V447.754H171.686V449.602H177.252ZM173.556 455.586H171.686V462.186C172.808 461.834 173.908 461.416 175.008 460.888L175.558 463.022C173.93 463.704 171.884 464.364 169.42 464.98L168.87 462.956C169.222 462.846 169.42 462.626 169.42 462.318V445.598H179.496V455.586H175.624C175.844 456.642 176.196 457.61 176.68 458.512C177.604 457.94 178.484 457.17 179.32 456.158L180.772 457.632C179.87 458.688 178.858 459.524 177.758 460.14C178.66 461.284 179.826 462.296 181.278 463.132L180.002 465.156C176.438 462.802 174.282 459.612 173.556 455.586Z" fill="black"/>
<g clip-path="url(#clip7_3807_1153)">
<mask id="path-36-inside-8_3807_1153" fill="white">
<path d="M533.333 415H1066.67V496H533.333V415Z"/>
</mask>
<path d="M533.333 415H1066.67V496H533.333V415Z" fill="white"/>
<path d="M573.833 451.45C574.845 451.45 575.703 451.802 576.429 452.506C577.133 453.21 577.485 454.068 577.485 455.08C577.485 456.092 577.133 456.95 576.429 457.676C575.703 458.38 574.845 458.732 573.833 458.732C572.821 458.732 571.963 458.38 571.259 457.676C570.555 456.95 570.203 456.092 570.203 455.08C570.203 454.068 570.555 453.21 571.259 452.506C571.963 451.802 572.821 451.45 573.833 451.45ZM602.543 457.434H606.657V454.728H603.049L602.741 453.408C603.489 452.198 604.171 450.702 604.787 448.898H602.587V447.512H605.205C605.425 446.72 605.645 445.884 605.865 445.026L607.273 445.356C607.097 446.104 606.899 446.83 606.701 447.512H610.903V448.898H606.261C605.689 450.57 605.073 452.066 604.391 453.342H606.657V450.372H608.131V453.342H610.705V454.728H608.131V457.434H611.321V458.842H608.131V462.494H606.657V458.842H602.543V457.434ZM599.463 445.488C600.475 446.808 601.267 447.974 601.795 448.964L600.607 449.8C600.035 448.7 599.265 447.512 598.297 446.214L599.463 445.488ZM608.175 463.374C609.319 463.374 610.419 463.352 611.453 463.33L611.035 464.826H608.065C607.405 464.826 606.723 464.804 606.063 464.782C605.051 464.76 604.149 464.628 603.379 464.386C602.609 464.122 601.971 463.66 601.443 463.044C601.157 462.714 600.915 462.56 600.717 462.56C600.343 462.56 599.661 463.418 598.693 465.156L597.747 463.968C598.671 462.516 599.441 461.614 600.057 461.24V453.826H598.275V452.418H601.509V461.306C601.597 461.394 601.685 461.46 601.751 461.548C602.191 462.12 602.763 462.56 603.445 462.89C604.061 463.132 604.809 463.286 605.667 463.33C606.503 463.352 607.339 463.374 608.175 463.374ZM593.567 445.092L595.085 445.4C594.931 446.148 594.755 446.852 594.579 447.556H597.901V449.052H594.117C593.633 450.57 593.061 451.956 592.423 453.188L591.169 452.396C592.269 450.196 593.083 447.754 593.567 445.092ZM593.083 451.934H597.527V453.364H595.723V456.114H598.143V457.588H595.723V462.714C596.339 462.406 596.977 461.988 597.637 461.46L597.901 462.824C596.845 463.572 595.657 464.21 594.293 464.694L593.699 463.374C594.029 463.22 594.205 462.978 594.205 462.67V457.588H591.763V456.114H594.205V453.364H593.083V451.934ZM614.203 446.192H633.761V447.754H624.213V451.076C626.941 452.44 629.713 454.024 632.529 455.828L631.583 457.236C628.657 455.3 626.193 453.804 624.213 452.748V465.244H622.607V447.754H614.203V446.192Z" fill="black"/>
<path d="M1066.67 415V496" stroke="black" stroke-width="2" stroke-linejoin="round"/>
<path d="M1066.67 415V496" stroke="black" stroke-width="2" stroke-linejoin="round"/>
</g>
<path d="M1065.67 415V496H1067.67V415H1065.67Z" fill="black" mask="url(#path-36-inside-8_3807_1153)"/>
<path d="M1066.67 415H1600V496H1066.67V415Z" fill="white"/>
<path d="M1107.17 451.45C1108.18 451.45 1109.04 451.802 1109.76 452.506C1110.47 453.21 1110.82 454.068 1110.82 455.08C1110.82 456.092 1110.47 456.95 1109.76 457.676C1109.04 458.38 1108.18 458.732 1107.17 458.732C1106.16 458.732 1105.3 458.38 1104.59 457.676C1103.89 456.95 1103.54 456.092 1103.54 455.08C1103.54 454.068 1103.89 453.21 1104.59 452.506C1105.3 451.802 1106.16 451.45 1107.17 451.45ZM1134.1 445.092H1135.24C1138.01 447.996 1141.2 450.262 1144.81 451.934L1144.02 453.342C1140.37 451.582 1137.26 449.316 1134.67 446.522C1132.27 449.184 1129.12 451.494 1125.23 453.452L1124.46 452.066C1128.33 450.196 1131.54 447.864 1134.1 445.092ZM1128.53 452.044H1140.81V453.562H1135.48V457.39H1141.84V458.908H1135.48V462.978H1143.84V464.54H1125.52V462.978H1133.85V458.908H1127.47V457.39H1133.85V453.562H1128.53V452.044ZM1150.46 449.514C1150.99 450.526 1151.5 451.758 1151.94 453.21H1154.25C1154.89 452 1155.44 450.702 1155.88 449.338L1157.35 449.844C1156.89 451.098 1156.38 452.22 1155.81 453.21H1158.47V454.75H1147.45V453.21H1150.42C1150.02 452.066 1149.56 451.01 1149.01 450.042L1150.46 449.514ZM1159.48 445.95H1166.7V447.138C1166.02 449.448 1165.29 451.604 1164.5 453.584C1166.15 455.652 1166.99 457.368 1167.01 458.688C1167.01 460.052 1166.72 460.998 1166.15 461.526C1165.53 462.054 1164.32 462.34 1162.52 462.34L1162.01 460.668C1162.63 460.712 1163.14 460.756 1163.55 460.756C1164.35 460.712 1164.85 460.558 1165.07 460.294C1165.29 460.008 1165.4 459.48 1165.42 458.688C1165.4 457.39 1164.52 455.696 1162.81 453.584C1163.53 451.846 1164.26 449.778 1164.96 447.402H1161.02V465.156H1159.48V445.95ZM1147.87 447.16H1152.29C1152.03 446.434 1151.76 445.774 1151.48 445.18L1153.1 444.894C1153.35 445.554 1153.59 446.324 1153.83 447.16H1158.32V448.7H1147.87V447.16ZM1157.46 456.752V465.046H1155.9V463.814H1150.27V465.046H1148.7V456.752H1157.46ZM1150.27 462.318H1155.9V458.248H1150.27V462.318ZM1172.86 445.026L1174.4 445.356C1174.2 446.104 1173.98 446.83 1173.76 447.512H1177.92V449.03H1173.23C1172.64 450.526 1171.96 451.89 1171.19 453.122L1169.89 452.308C1171.25 450.108 1172.24 447.688 1172.86 445.026ZM1172.2 451.78H1177.33V453.232H1175.24V456.092H1178.27V457.544H1175.24V462.406C1176.34 461.944 1177.44 461.306 1178.56 460.514L1178.82 461.944C1177.33 463.022 1175.61 463.902 1173.63 464.562L1172.97 463.22C1173.43 463.066 1173.67 462.846 1173.67 462.538V457.544H1170.53V456.092H1173.67V453.232H1172.2V451.78ZM1188.7 448.92L1188.92 450.372L1183.6 451.23C1183.62 452.286 1183.68 453.276 1183.77 454.222L1189.25 453.232L1189.49 454.728L1183.93 455.718C1183.97 456.07 1184.01 456.422 1184.08 456.774C1184.26 457.83 1184.5 458.798 1184.81 459.656C1185.86 458.622 1186.81 457.456 1187.64 456.136L1188.85 456.928C1187.78 458.534 1186.63 459.92 1185.4 461.086C1185.49 461.284 1185.58 461.482 1185.69 461.658C1186.35 462.736 1186.96 463.286 1187.51 463.286C1188.02 463.286 1188.46 462.164 1188.83 459.92L1190.17 460.822C1189.6 463.572 1188.79 464.958 1187.69 464.958C1186.68 464.914 1185.71 464.254 1184.76 462.934C1184.56 462.67 1184.39 462.384 1184.26 462.098C1182.5 463.506 1180.58 464.54 1178.56 465.156L1177.66 463.946C1179.9 463.22 1181.9 462.142 1183.62 460.734C1183.22 459.788 1182.91 458.71 1182.65 457.522C1182.54 456.994 1182.45 456.488 1182.36 456.004L1178.8 456.642L1178.58 455.146L1182.17 454.508C1182.06 453.54 1181.99 452.528 1181.97 451.494L1178.98 451.978L1178.73 450.504L1181.92 449.998V445.026H1183.55V449.734L1188.7 448.92ZM1185.88 445.004C1186.9 446.016 1187.67 446.874 1188.19 447.622L1186.96 448.48C1186.39 447.644 1185.64 446.742 1184.67 445.752L1185.88 445.004ZM1205.57 451.714V458.402H1197.63V462.472C1197.63 463.088 1198.01 463.418 1198.71 463.418H1209.2C1209.71 463.396 1210.06 463.176 1210.26 462.758C1210.44 462.406 1210.57 461.526 1210.68 460.162L1212.17 460.646C1212.04 462.01 1211.89 462.978 1211.69 463.55C1211.36 464.43 1210.68 464.87 1209.67 464.914H1198.12C1196.73 464.914 1196.05 464.276 1196.05 463.044V451.714H1205.57ZM1197.63 456.95H1203.99V453.166H1197.63V456.95ZM1198.09 444.828L1199.68 445.18C1199.37 445.928 1199.02 446.676 1198.67 447.38H1210.94C1210.94 452.946 1210.83 456.378 1210.61 457.698C1210.41 459.106 1209.56 459.81 1208.04 459.81C1207.77 459.81 1207.31 459.788 1206.65 459.744L1206.28 458.314C1206.87 458.358 1207.38 458.402 1207.82 458.402C1208.54 458.402 1208.96 457.962 1209.07 457.082C1209.2 456.202 1209.29 453.474 1209.34 448.898H1197.83C1196.73 450.702 1195.5 452.286 1194.11 453.628L1193.01 452.308C1195.08 450.416 1196.77 447.908 1198.09 444.828Z" fill="black"/>
</g>
</g>
<rect x="0.5" y="0.5" width="1599" height="495" stroke="black"/>
<defs>
<clipPath id="clip0_3807_1153">
<rect width="1600" height="496" fill="white"/>
</clipPath>
<clipPath id="clip1_3807_1153">
<rect width="1600" height="496" fill="white"/>
</clipPath>
<clipPath id="clip2_3807_1153">
<rect width="533.333" height="74" fill="white"/>
</clipPath>
<clipPath id="clip3_3807_1153">
<rect width="533.333" height="74" fill="white" transform="translate(533.333)"/>
</clipPath>
<clipPath id="clip4_3807_1153">
<path d="M533.333 74H1066.67V334H533.333V74Z" fill="white"/>
</clipPath>
<clipPath id="clip5_3807_1153">
<path d="M1066.67 74H1600V334H1066.67V74Z" fill="white"/>
</clipPath>
<clipPath id="clip6_3807_1153">
<path d="M533.333 334H1066.67V415H533.333V334Z" fill="white"/>
</clipPath>
<clipPath id="clip7_3807_1153">
<path d="M533.333 415H1066.67V496H533.333V415Z" fill="white"/>
</clipPath>
</defs>
</svg>
