<svg width="426" height="428" viewBox="0 0 426 428" fill="none" xmlns="http://www.w3.org/2000/svg">
<g clip-path="url(#clip0_3885_3645)">
<mask id="path-3-inside-1_3885_3645" fill="white">
<path d="M0 0H426V52H0V0Z"/>
</mask>
<path d="M0 0H426V52H0V0Z" fill="#F8F9FC"/>
<path d="M426 51H0V53H426V51Z" fill="#EDEEF3" mask="url(#path-3-inside-1_3885_3645)"/>
<path d="M25.278 18.752H40.722V19.886H25.278V18.752ZM29.202 23.882H37.41V24.836H29.202V23.882ZM29.202 25.988H37.41V26.978H29.202V25.988ZM25.08 28.184H40.902V29.336H25.08V28.184ZM35.448 19.004C36.672 20.822 39.138 22.586 41.406 23.378C41.118 23.63 40.722 24.098 40.524 24.422C38.238 23.468 35.754 21.524 34.386 19.436L35.448 19.004ZM28.518 21.65H37.392V22.73H29.886V28.688H28.518V21.65ZM26.322 32.072C29.148 31.964 33.792 31.73 38.202 31.478L38.166 32.558C33.936 32.864 29.418 33.134 26.484 33.314L26.322 32.072ZM29.778 28.58L31.326 28.724C30.75 30.092 29.994 31.622 29.382 32.612L28.122 32.414C28.716 31.352 29.418 29.732 29.778 28.58ZM35.124 30.002L36.24 29.426C37.536 30.47 39.21 32 40.038 32.99L38.85 33.674C38.076 32.684 36.456 31.1 35.124 30.002ZM31.74 16.88L33.162 17.132C31.902 19.94 29.418 22.766 25.332 24.566C25.17 24.242 24.774 23.774 24.504 23.558C28.41 21.956 30.786 19.292 31.74 16.88ZM46.77 16.88H47.922V19.85H46.77V16.88ZM47.238 17.672H51V18.572H47.238V17.672ZM45.798 19.454H49.92V20.354H45.06L45.798 19.454ZM49.596 19.454H49.83L50.046 19.418L50.766 19.814C49.416 22.514 46.32 24.116 43.332 24.89C43.188 24.602 42.918 24.206 42.702 23.972C45.474 23.36 48.48 21.866 49.596 19.652V19.454ZM44.304 21.218L45.006 20.606C45.924 21.002 47.076 21.632 47.67 22.136L46.95 22.802C46.392 22.334 45.24 21.65 44.304 21.218ZM45.402 19.184L46.428 19.49C45.672 20.498 44.43 21.47 43.296 22.082C43.116 21.902 42.702 21.542 42.45 21.38C43.602 20.84 44.754 20.048 45.402 19.184ZM51.738 17.672H57.336V18.662H51.738V17.672ZM57.012 17.672H57.264L57.462 17.618L58.236 17.96C57.21 20.696 54.798 22.478 52.332 23.342C52.188 23.054 51.882 22.604 51.648 22.37C53.916 21.686 56.166 20.048 57.012 17.852V17.672ZM51.684 20.084L52.458 19.328C54.69 20.336 57.444 21.974 58.83 23.18L58.002 24.062C56.67 22.838 53.934 21.146 51.684 20.084ZM50.91 23.288C49.29 24.728 46.284 26.222 43.296 27.104C43.17 26.816 42.918 26.402 42.702 26.15C45.744 25.34 48.75 23.882 50.298 22.388H51.396C53.448 24.062 56.598 25.358 59.352 25.934C59.1 26.222 58.83 26.672 58.686 26.96C56.04 26.294 52.8 24.854 50.91 23.288ZM46.86 26.15H55.986V30.29H46.86V29.462H54.708V26.978H46.86V26.15ZM46.158 26.15H47.436V32.432L46.158 32.54V26.15ZM56.67 29.48L57.66 30.11C56.526 30.83 55.086 31.586 53.952 32.054L53.214 31.514C54.33 31.01 55.824 30.128 56.67 29.48ZM51.144 29.786C52.476 31.406 55.518 32.216 59.046 32.45C58.794 32.684 58.506 33.134 58.362 33.458C54.708 33.116 51.648 32.09 50.136 30.092L51.144 29.786ZM46.86 27.806H55.14V28.562H46.86V27.806ZM48.624 24.692H53.322V25.52H48.624V24.692ZM44.124 32.162C46.032 32 48.984 31.73 51.846 31.424V32.45C49.146 32.738 46.284 33.044 44.286 33.242L44.124 32.162ZM63.51 18.158H75.156V19.454H63.51V18.158ZM63.51 22.352H75.138V23.63H63.51V22.352ZM63.42 26.654H75.174V27.932H63.42V26.654ZM62.754 18.158H64.086V24.692C64.086 27.428 63.762 31.154 61.62 33.548C61.404 33.278 60.864 32.828 60.576 32.648C62.556 30.416 62.754 27.212 62.754 24.674V18.158ZM74.616 18.158H75.948V31.604C75.948 32.486 75.732 32.9 75.138 33.134C74.526 33.35 73.482 33.368 71.772 33.35C71.718 32.99 71.502 32.396 71.304 32.036C72.582 32.09 73.806 32.072 74.148 32.072C74.49 32.054 74.616 31.946 74.616 31.604V18.158ZM68.406 18.644H69.774V33.278H68.406V18.644ZM82.482 20.03V21.038H91.446V20.03H82.482ZM82.482 18.284V19.256H91.446V18.284H82.482ZM81.186 17.474H92.796V21.848H81.186V17.474ZM82.14 27.104V28.13H91.986V27.104H82.14ZM82.14 25.286V26.294H91.986V25.286H82.14ZM80.862 24.44H93.318V28.958H80.862V24.44ZM86.298 24.746H87.63V32.504H86.298V24.746ZM78.936 22.604H95.082V23.648H78.936V22.604ZM80.358 29.948H93.714V30.902H80.358V29.948ZM78.828 31.946H95.172V33.008H78.828V31.946Z" fill="#1C1C1C"/>
<rect width="414" height="464" transform="translate(0 52)" fill="white"/>
<g clip-path="url(#clip1_3885_3645)">
<mask id="path-8-inside-2_3885_3645" fill="white">
<path d="M24 76H352V124H24V76Z"/>
</mask>
<path d="M24 76H352V124H24V76Z" fill="#F8F9FC"/>
<path d="M352 123H24V125H352V123Z" fill="#EDEEF3" mask="url(#path-8-inside-2_3885_3645)"/>
<path d="M47.936 93.728C46.624 95.68 44.048 98.064 41.344 99.648C41.184 99.36 40.848 98.944 40.592 98.688C43.344 97.168 46.016 94.624 47.248 92.544H48.48C50.144 94.912 52.944 97.248 55.456 98.496C55.152 98.8 54.864 99.2 54.656 99.552C52.176 98.128 49.376 95.744 47.936 93.728ZM42.528 102.048H53.44V103.12H42.528V102.048ZM43.248 98.464H52.816V99.552H43.248V98.464ZM41.216 105.76H54.848V106.848H41.216V105.76ZM47.312 98.912H48.576V106.368H47.312V98.912ZM65.76 94.528H66.96V105.04C66.96 105.712 67.072 105.84 67.632 105.84C67.888 105.84 69.216 105.84 69.552 105.84C70.096 105.84 70.176 105.344 70.24 103.28C70.528 103.504 71.024 103.712 71.36 103.792C71.216 106.192 70.928 106.976 69.648 106.976C69.344 106.976 67.76 106.976 67.488 106.976C66.144 106.976 65.76 106.56 65.76 105.024V94.528ZM69.168 92.784L70.208 93.712C68.288 94.528 65.344 95.136 62.816 95.52C62.768 95.264 62.592 94.816 62.448 94.544C64.864 94.16 67.664 93.504 69.168 92.784ZM62.368 99.728L71.088 98.432L71.264 99.536L62.56 100.864L62.368 99.728ZM56.528 101.04C57.936 100.688 60.032 100.112 62.032 99.52L62.176 100.624C60.336 101.184 58.368 101.776 56.88 102.192L56.528 101.04ZM56.72 95.792H62.08V96.928H56.72V95.792ZM58.88 92.576H60.064V105.76C60.064 106.432 59.904 106.768 59.472 106.944C59.056 107.136 58.384 107.168 57.296 107.168C57.248 106.864 57.072 106.368 56.928 106.048C57.68 106.08 58.368 106.064 58.576 106.064C58.8 106.064 58.88 105.984 58.88 105.76V92.576ZM76.32 105.824H84.784V106.752H76.32V105.824ZM79.376 95.808H80.544V97.584H79.376V95.808ZM73.296 97.056H86.816V100.064H85.632V98.016H74.448V100.064H73.296V97.056ZM76.256 99.008H84.464V102.224H76.256V101.296H83.28V99.92H76.256V99.008ZM76.304 103.328H85.488V107.264H84.304V104.272H76.304V103.328ZM75.616 99.008H76.768V107.296H75.616V99.008ZM74.608 93.792H79.776V94.784H74.608V93.792ZM80.848 93.792H87.312V94.784H80.848V93.792ZM74.912 92.496L76.048 92.784C75.456 94.192 74.512 95.584 73.584 96.496C73.36 96.32 72.88 95.984 72.592 95.84C73.552 95.008 74.416 93.744 74.912 92.496ZM81.216 92.496L82.352 92.768C81.776 94.16 80.768 95.456 79.76 96.288C79.52 96.112 79.024 95.824 78.72 95.68C79.776 94.912 80.704 93.728 81.216 92.496ZM75.504 94.544L76.544 94.272C76.912 94.832 77.328 95.616 77.488 96.112L76.4 96.432C76.256 95.936 75.872 95.136 75.504 94.544ZM82.288 94.56L83.344 94.24C83.84 94.8 84.416 95.584 84.656 96.112L83.568 96.464C83.344 95.952 82.8 95.136 82.288 94.56ZM90.896 92.608L91.984 92.928C91.36 94.688 90.32 96.448 89.168 97.6C89.072 97.36 88.752 96.752 88.544 96.48C89.52 95.536 90.4 94.112 90.896 92.608ZM90.576 94.368H94.4V95.52H90.336L90.576 94.368ZM91.104 107.168L90.928 106.064L91.328 105.584L94.528 103.744C94.576 104.064 94.704 104.528 94.816 104.768C91.808 106.576 91.376 106.864 91.104 107.168ZM89.76 97.248H94.176V98.336H89.76V97.248ZM88.992 100.512H94.608V101.6H88.992V100.512ZM95.104 96.416L102.464 95.312L102.656 96.368L95.312 97.488L95.104 96.416ZM94.784 99.856L102.896 98.336L103.104 99.392L94.976 100.928L94.784 99.856ZM97.424 92.544H98.576C98.528 100.096 99.76 106.08 101.808 106.096C102.24 106.096 102.4 105.712 102.464 104.304C102.704 104.544 103.088 104.8 103.36 104.912C103.136 106.688 102.768 107.216 101.696 107.216C98.544 107.216 97.488 100.368 97.424 92.544ZM99.2 93.52L99.888 92.864C100.688 93.216 101.696 93.792 102.208 94.224L101.504 94.976C100.992 94.528 100 93.904 99.2 93.52ZM102.192 100.432L103.184 100.88C101.536 103.616 98.624 105.776 95.328 107.008C95.152 106.72 94.864 106.304 94.592 106.048C97.792 104.96 100.656 102.944 102.192 100.432ZM91.104 107.168C90.992 106.912 90.688 106.496 90.512 106.304C90.784 106.112 91.328 105.616 91.328 104.88V97.584H92.416V105.744C92.416 105.744 91.104 106.72 91.104 107.168ZM108.512 92.48L109.76 92.832C108.752 95.328 107.184 97.696 105.552 99.232C105.312 99.008 104.8 98.576 104.48 98.384C106.144 96.992 107.616 94.768 108.512 92.48ZM108.32 94.4H117.344V95.536H107.744L108.32 94.4ZM116.96 94.4H118.16C118.16 94.4 118.16 94.8 118.16 94.976C118 100.368 117.84 102.272 117.376 102.864C117.088 103.232 116.768 103.36 116.288 103.408C115.84 103.456 115.04 103.44 114.176 103.408C114.16 103.056 114.032 102.576 113.84 102.256C114.656 102.336 115.424 102.352 115.728 102.352C115.984 102.352 116.16 102.304 116.288 102.128C116.656 101.712 116.816 99.872 116.96 94.64V94.4ZM107.472 101.056H112.448V98.32H107.136V97.248H113.648V102.128H107.472V101.056ZM106.896 101.056H108.096V105.168C108.096 105.824 108.416 105.968 110.144 105.968C110.96 105.968 115.104 105.968 116.176 105.968C117.632 105.968 117.872 105.648 118.016 103.808C118.32 103.984 118.832 104.176 119.168 104.24C118.928 106.544 118.464 107.104 116.192 107.104C115.6 107.104 110.768 107.104 110.208 107.104C107.648 107.104 106.896 106.752 106.896 105.168V101.056Z" fill="#1C1C1C"/>
<rect x="128" y="88" width="52" height="24" rx="4" fill="#EDEEF3"/>
<path d="M141.58 94.844H146.824V95.684H141.58V94.844ZM141.064 97.712H147.46V98.552H141.064V97.712ZM143.62 98.12H144.532V103.808C144.532 104.324 144.436 104.588 144.088 104.744C143.728 104.9 143.176 104.912 142.336 104.912C142.3 104.648 142.18 104.264 142.06 103.988C142.672 104.012 143.236 104.012 143.404 104C143.572 103.988 143.62 103.952 143.62 103.796V98.12ZM145.348 100.112L146.116 99.872C146.692 101.036 147.28 102.56 147.484 103.508L146.656 103.808C146.464 102.86 145.912 101.3 145.348 100.112ZM141.892 99.896L142.708 100.088C142.348 101.468 141.736 102.872 141.088 103.796C140.932 103.664 140.56 103.424 140.368 103.316C141.028 102.464 141.568 101.168 141.892 99.896ZM136.588 96.464H140.884V97.316H136.588V96.464ZM138.424 93.92H139.312V104.948H138.424V93.92ZM138.304 96.968L138.916 97.16C138.52 98.936 137.68 101.144 136.78 102.272C136.684 102.032 136.444 101.648 136.276 101.432C137.116 100.448 137.944 98.528 138.304 96.968ZM139.252 97.568C139.54 97.88 140.692 99.344 140.944 99.68L140.404 100.4C140.104 99.824 139.156 98.42 138.796 97.976L139.252 97.568ZM153.184 98.672H158.944V99.488H153.184V98.672ZM153.184 101.096H158.944V101.9H153.184V101.096ZM153.22 103.544H159.508V104.396H153.22V103.544ZM155.716 96.572H156.58V104.048H155.716V96.572ZM156.616 93.98L157.528 94.232C157.204 95.12 156.808 96.176 156.484 96.848L155.752 96.596C156.064 95.9 156.424 94.76 156.616 93.98ZM153.7 93.92L154.576 94.16C153.904 96.14 152.836 98.072 151.672 99.32C151.528 99.14 151.204 98.78 151 98.624C152.14 97.496 153.112 95.732 153.7 93.92ZM153.592 96.296H159.232V97.112H153.592V104.96H152.74V96.992L153.412 96.296H153.592ZM148.78 95.288L149.356 94.664C150.124 95.156 151.084 95.876 151.528 96.392L150.928 97.1C150.496 96.572 149.56 95.804 148.78 95.288ZM148.432 103.436C149.068 102.596 150.004 101.192 150.724 99.956L151.384 100.544C150.724 101.696 149.896 103.028 149.188 104.036L148.432 103.436ZM166.264 94.46H171.28V95.288H166.264V94.46ZM161.608 97.244H165.256V98.048H161.608V97.244ZM166.288 97.568H170.572V98.408H166.288V97.568ZM163.372 93.896H164.2V97.724H163.372V93.896ZM165.808 94.46H166.66V97.916C166.66 99.956 166.504 102.932 165.412 104.948C165.256 104.804 164.884 104.588 164.668 104.516C165.724 102.572 165.808 99.848 165.808 97.916V94.46ZM161.644 99.8H164.536V104.948H163.696V100.604H161.644V99.8ZM161.248 94.172H162.064V98.924C162.064 101.024 161.932 103.316 160.936 104.984C160.804 104.816 160.504 104.564 160.3 104.444C161.14 102.908 161.248 100.76 161.248 98.936V94.172ZM170.308 97.568H170.464L170.62 97.544L171.172 97.712C170.608 101.432 168.952 103.772 166.792 104.96C166.672 104.744 166.42 104.408 166.228 104.228C168.196 103.256 169.816 100.964 170.308 97.748V97.568ZM167.536 98.096C168.136 100.964 169.42 103.268 171.664 104.24C171.472 104.408 171.196 104.744 171.04 104.984C168.724 103.832 167.464 101.408 166.804 98.276L167.536 98.096Z" fill="#363F72"/>
<path fill-rule="evenodd" clip-rule="evenodd" d="M336 94V106H324V94H336Z" fill="white" fill-opacity="0.01"/>
<path fill-rule="evenodd" clip-rule="evenodd" d="M326.129 101.419C325.657 102.081 326.13 103 326.943 103H333.057C333.87 103 334.343 102.081 333.871 101.419L330.814 97.1392C330.415 96.5809 329.585 96.5809 329.186 97.1392L326.129 101.419Z" fill="#1F32D6"/>
<mask id="path-15-inside-3_3885_3645" fill="white">
<path d="M24 124H402V180H24V124Z"/>
</mask>
<path d="M24 124H402V180H24V124Z" fill="white"/>
<path d="M402 179H24V181H402V179Z" fill="#EDEEF3" mask="url(#path-15-inside-3_3885_3645)"/>
<path d="M45.532 138.64H46.42V142.168H45.532V138.64ZM45.52 145.864H46.42V148.96H45.52V145.864ZM44.98 142.18L45.808 142.564C45.124 143.164 44.248 143.8 43.576 144.22L42.952 143.86C43.624 143.416 44.488 142.696 44.98 142.18ZM47.824 142.732L48.616 143.176C47.176 144.208 45.208 145.36 43.66 146.092L43.072 145.672C44.608 144.928 46.636 143.68 47.824 142.732ZM41.752 143.692L42.388 143.212C43.324 143.656 44.512 144.352 45.124 144.868L44.452 145.408C43.876 144.904 42.7 144.172 41.752 143.692ZM47.62 144.724L48.28 144.268C49.36 144.808 50.68 145.66 51.352 146.284L50.656 146.788C50.02 146.164 48.712 145.288 47.62 144.724ZM47.572 147.076L48.232 146.608C49.228 147.064 50.536 147.808 51.22 148.336L50.524 148.864C49.9 148.348 48.604 147.568 47.572 147.076ZM40.804 145.6C43.036 145.6 46.66 145.54 50.068 145.468L50.02 146.152C46.684 146.248 43.108 146.332 40.84 146.356L40.804 145.6ZM43.432 146.632L44.236 146.944C43.468 147.676 42.28 148.396 41.284 148.864C41.14 148.708 40.804 148.408 40.6 148.264C41.62 147.868 42.736 147.256 43.432 146.632ZM42.436 140.776V141.832H49.576V140.776H42.436ZM42.436 139.06V140.092H49.576V139.06H42.436ZM41.584 138.34H50.464V142.552H41.584V138.34ZM53.644 138.712L54.22 138.136C54.892 138.664 55.744 139.432 56.14 139.936L55.54 140.596C55.144 140.092 54.304 139.276 53.644 138.712ZM54.34 148.732L54.172 147.844L54.436 147.46L56.836 145.816C56.896 146.068 57.04 146.44 57.136 146.62C54.868 148.228 54.532 148.48 54.34 148.732ZM52.552 141.688H55.012V142.588H52.552V141.688ZM56.452 141.904H63.508V142.828H56.452V141.904ZM59.5 137.956H60.448V148.96H59.5V137.956ZM54.34 148.732C54.256 148.492 54.028 148.096 53.86 147.904C54.088 147.76 54.448 147.412 54.448 146.896V141.688H55.36V147.7C55.36 147.7 54.34 148.384 54.34 148.732ZM69.736 140.596V141.556H73.744V140.596H69.736ZM69.736 139V139.96H73.744V139H69.736ZM68.908 138.316H74.608V142.252H68.908V138.316ZM68.356 143.116H75.268V143.872H68.356V143.116ZM71.308 143.488H72.148V148.396L71.308 148.048V143.488ZM69.7 145.696C70.312 147.688 71.632 147.988 73.3 147.988C73.6 147.988 75.22 147.988 75.64 147.976C75.52 148.168 75.4 148.552 75.376 148.78H73.264C71.26 148.78 69.88 148.348 69.148 145.9L69.7 145.696ZM71.884 145.276H74.668V146.02H71.884V145.276ZM69.148 144.436L69.964 144.532C69.724 146.512 69.1 148 68.02 148.96C67.876 148.816 67.528 148.552 67.348 148.42C68.416 147.568 68.956 146.212 69.148 144.436ZM64.336 144.304C65.272 144.052 66.664 143.62 68.008 143.188L68.14 144.016C66.892 144.424 65.584 144.856 64.564 145.18L64.336 144.304ZM64.468 140.344H68.128V141.184H64.468V140.344ZM65.956 137.932H66.796V147.844C66.796 148.336 66.688 148.576 66.388 148.72C66.112 148.864 65.644 148.888 64.888 148.888C64.852 148.672 64.744 148.3 64.624 148.048C65.152 148.06 65.608 148.06 65.752 148.06C65.908 148.06 65.956 148.012 65.956 147.832V137.932ZM85.672 141.124L86.188 141.868C83.968 142.384 80.608 142.732 77.728 142.888C77.704 142.672 77.608 142.348 77.512 142.144C80.404 141.964 83.74 141.604 85.672 141.124ZM81.1 142.288H82V147.472C82 147.952 82.144 148.06 82.888 148.06C83.236 148.06 85.072 148.06 85.528 148.06C86.116 148.06 86.224 147.844 86.296 146.74C86.512 146.884 86.872 147.016 87.124 147.076C87.004 148.456 86.716 148.852 85.588 148.852C85.276 148.852 83.128 148.852 82.84 148.852C81.472 148.852 81.1 148.576 81.1 147.472V142.288ZM77.284 144.028L86.152 143.284L86.236 144.028L77.368 144.796L77.284 144.028ZM76.684 146.092L87.232 145.204L87.328 145.972L76.78 146.896L76.684 146.092ZM77.992 139.06H81.712V139.84H77.992V139.06ZM82.648 139.06H87.208V139.84H82.648V139.06ZM78.208 137.872L79.072 138.088C78.628 139.396 77.908 140.704 77.188 141.556C77.008 141.412 76.636 141.172 76.42 141.052C77.176 140.272 77.824 139.072 78.208 137.872ZM82.936 137.872L83.812 138.076C83.404 139.384 82.684 140.62 81.904 141.424C81.736 141.268 81.352 141.016 81.136 140.896C81.94 140.164 82.576 139.048 82.936 137.872ZM78.82 139.612L79.576 139.348C79.936 139.936 80.32 140.716 80.476 141.208L79.684 141.52C79.552 141.028 79.168 140.212 78.82 139.612ZM83.8 139.636L84.556 139.384C84.868 139.852 85.228 140.488 85.36 140.896L84.58 141.184C84.448 140.776 84.1 140.116 83.8 139.636ZM93.952 138.796C92.956 140.224 91.024 141.88 88.996 142.96C88.888 142.744 88.636 142.432 88.444 142.24C90.52 141.196 92.512 139.42 93.436 137.908H94.36C95.632 139.648 97.708 141.256 99.592 142.096C99.376 142.312 99.16 142.624 99.004 142.888C97.144 141.928 95.056 140.284 93.952 138.796ZM90.976 141.58H97V142.396H90.976V141.58ZM89.428 143.992H98.56V144.796H89.428V143.992ZM88.876 147.784H99.136V148.576H88.876V147.784ZM93.472 141.892H94.42V148.204H93.472V141.892ZM90.424 145.408L91.156 145.108C91.648 145.768 92.14 146.68 92.308 147.28L91.528 147.616C91.372 147.016 90.904 146.08 90.424 145.408ZM96.7 145.084L97.552 145.432C97.096 146.188 96.532 147.052 96.088 147.616L95.404 147.316C95.836 146.728 96.4 145.768 96.7 145.084ZM106.168 138.64H111.436V139.432H106.168V138.64ZM108.484 139.096L109.264 139.288C109.024 139.924 108.784 140.608 108.556 141.076L107.872 140.884C108.076 140.392 108.352 139.612 108.484 139.096ZM106.36 140.68H110.98V146.32H110.188V141.412H107.14V146.344H106.36V140.68ZM108.316 142.084H109.096C109.036 146.068 108.784 147.976 105.952 149.008C105.868 148.816 105.64 148.516 105.484 148.372C108.1 147.46 108.256 145.804 108.316 142.084ZM108.844 146.992L109.336 146.44C110.116 147.004 111.148 147.796 111.652 148.3L111.148 148.936C110.656 148.408 109.648 147.58 108.844 146.992ZM100.732 139.084H105.964V140.896H105.136V139.828H101.524V140.896H100.732V139.084ZM101.512 145.204H105.256V148.852H104.416V145.936H102.316V148.876H101.512V145.204ZM101.812 147.76H104.8V148.492H101.812V147.76ZM102.556 140.224L103.372 140.368C102.892 141.364 102.16 142.42 101.008 143.248C100.888 143.068 100.648 142.792 100.48 142.684C101.512 141.988 102.196 141.028 102.556 140.224ZM102.664 141.064H104.824V141.76H102.304L102.664 141.064ZM104.656 141.064H104.848L105.004 141.028L105.496 141.352C104.608 143.308 102.724 144.688 100.828 145.408C100.768 145.168 100.588 144.76 100.456 144.604C102.232 144.004 103.96 142.804 104.656 141.22V141.064ZM102.568 138.16L103.384 137.968C103.636 138.388 103.96 138.976 104.116 139.324L103.252 139.564C103.108 139.204 102.82 138.604 102.568 138.16ZM101.776 143.008L102.352 142.48C103.528 143.056 105.16 143.932 106.012 144.484L105.4 145.12C104.596 144.556 102.988 143.632 101.776 143.008Z" fill="#73798B"/>
<rect opacity="0.1" x="40" y="160" width="255" height="8" rx="4" fill="#26C165"/>
<path d="M40 164C40 161.791 41.7909 160 44 160H59.2995C61.5086 160 63.2995 161.791 63.2995 164V164C63.2995 166.209 61.5086 168 59.2995 168H44C41.7909 168 40 166.209 40 164V164Z" fill="#26C165"/>
<rect x="311" y="140" width="75" height="24" rx="4" fill="#26C165" fill-opacity="0.1"/>
<path d="M319.976 148.752H320.9V154.8C320.9 155.556 321.164 155.736 322.484 155.736C323.12 155.736 326.252 155.736 327.056 155.736C328.376 155.736 328.58 155.328 328.736 153.384C328.988 153.552 329.384 153.708 329.66 153.756C329.42 155.976 329.036 156.624 327.056 156.624C326.564 156.624 322.988 156.624 322.544 156.624C320.588 156.624 319.976 156.276 319.976 154.776V148.752ZM320.48 150.72H327.56V151.62H320.48V150.72ZM319.352 146.676H328.124V152.208H327.2V147.564H319.352V146.676ZM334.076 147.252H341.78V148.092H334.076V147.252ZM335.264 150.024V151.824H340.508V150.024H335.264ZM334.436 149.256H341.384V152.592H334.436V149.256ZM335.18 152.832C336.308 154.716 338.768 155.832 341.888 156.18C341.696 156.372 341.468 156.732 341.348 156.984C338.168 156.528 335.708 155.28 334.436 153.084L335.18 152.832ZM337.412 145.968H338.3V151.284C338.3 153.6 337.904 155.904 334.184 157.008C334.076 156.804 333.824 156.444 333.644 156.252C337.208 155.352 337.412 153.3 337.412 151.272V145.968ZM333.56 145.896L334.412 146.16C333.596 148.188 332.312 150.204 330.98 151.536C330.896 151.332 330.644 150.864 330.476 150.648C331.688 149.508 332.864 147.72 333.56 145.896ZM332.3 149.04L333.152 148.188L333.164 148.2V157.02H332.3V149.04ZM344.576 146.772H352.34V147.636H344.576V146.772ZM344.576 149.568H352.328V150.42H344.576V149.568ZM344.516 152.436H352.352V153.288H344.516V152.436ZM344.072 146.772H344.96V151.128C344.96 152.952 344.744 155.436 343.316 157.032C343.172 156.852 342.812 156.552 342.62 156.432C343.94 154.944 344.072 152.808 344.072 151.116V146.772ZM351.98 146.772H352.868V155.736C352.868 156.324 352.724 156.6 352.328 156.756C351.92 156.9 351.224 156.912 350.084 156.9C350.048 156.66 349.904 156.264 349.772 156.024C350.624 156.06 351.44 156.048 351.668 156.048C351.896 156.036 351.98 155.964 351.98 155.736V146.772ZM347.84 147.096H348.752V156.852H347.84V147.096ZM357.894 148.5V147.252H360.39V156H359.01V148.5H357.894ZM362.269 151.512C362.269 150.128 362.501 149.048 362.965 148.272C363.437 147.488 364.245 147.096 365.389 147.096C366.533 147.096 367.337 147.488 367.801 148.272C368.273 149.048 368.509 150.128 368.509 151.512C368.509 152.912 368.273 154.008 367.801 154.8C367.337 155.584 366.533 155.976 365.389 155.976C364.245 155.976 363.437 155.584 362.965 154.8C362.501 154.008 362.269 152.912 362.269 151.512ZM367.165 151.512C367.165 150.864 367.121 150.316 367.033 149.868C366.953 149.42 366.785 149.056 366.529 148.776C366.273 148.488 365.893 148.344 365.389 148.344C364.885 148.344 364.505 148.488 364.249 148.776C363.993 149.056 363.821 149.42 363.733 149.868C363.653 150.316 363.613 150.864 363.613 151.512C363.613 152.184 363.653 152.748 363.733 153.204C363.813 153.66 363.981 154.028 364.237 154.308C364.501 154.588 364.885 154.728 365.389 154.728C365.893 154.728 366.273 154.588 366.529 154.308C366.793 154.028 366.965 153.66 367.045 153.204C367.125 152.748 367.165 152.184 367.165 151.512ZM369.74 149.364C369.74 148.78 369.908 148.324 370.244 147.996C370.588 147.66 371.028 147.492 371.564 147.492C372.1 147.492 372.536 147.66 372.872 147.996C373.216 148.324 373.388 148.78 373.388 149.364C373.388 149.948 373.216 150.408 372.872 150.744C372.536 151.08 372.1 151.248 371.564 151.248C371.028 151.248 370.588 151.08 370.244 150.744C369.908 150.408 369.74 149.948 369.74 149.364ZM377.06 147.648L372.272 156H370.928L375.716 147.648H377.06ZM371.564 148.32C371.06 148.32 370.808 148.668 370.808 149.364C370.808 150.068 371.06 150.42 371.564 150.42C371.804 150.42 371.988 150.336 372.116 150.168C372.252 149.992 372.32 149.724 372.32 149.364C372.32 148.668 372.068 148.32 371.564 148.32ZM374.624 154.272C374.624 153.688 374.792 153.232 375.128 152.904C375.472 152.568 375.912 152.4 376.448 152.4C376.976 152.4 377.408 152.568 377.744 152.904C378.088 153.232 378.26 153.688 378.26 154.272C378.26 154.856 378.088 155.316 377.744 155.652C377.408 155.988 376.976 156.156 376.448 156.156C375.912 156.156 375.472 155.988 375.128 155.652C374.792 155.316 374.624 154.856 374.624 154.272ZM376.436 153.228C375.932 153.228 375.68 153.576 375.68 154.272C375.68 154.968 375.932 155.316 376.436 155.316C376.94 155.316 377.192 154.968 377.192 154.272C377.192 153.576 376.94 153.228 376.436 153.228Z" fill="#26C165"/>
<mask id="path-22-inside-4_3885_3645" fill="white">
<path d="M24 180H402V236H24V180Z"/>
</mask>
<path d="M24 180H402V236H24V180Z" fill="white"/>
<path d="M402 235H24V237H402V235Z" fill="#EDEEF3" mask="url(#path-22-inside-4_3885_3645)"/>
<path d="M41.008 194.988L41.476 194.364C42.34 194.652 43.444 195.168 43.996 195.588L43.528 196.296C42.988 195.864 41.896 195.312 41.008 194.988ZM40.588 198.06C41.464 197.808 42.76 197.4 44.068 196.98L44.212 197.772C43.036 198.168 41.812 198.564 40.852 198.888L40.588 198.06ZM45.808 193.968L46.66 194.088C46.252 195.144 45.604 196.248 44.524 197.124C44.38 196.92 44.092 196.668 43.888 196.56C44.872 195.828 45.496 194.808 45.808 193.968ZM45.82 195.036H50.368V195.744H45.316L45.82 195.036ZM50.164 195.036H50.308L50.464 195L51.112 195.18C50.8 195.84 50.452 196.56 50.14 197.04L49.36 196.812C49.624 196.392 49.948 195.732 50.164 195.156V195.036ZM42.184 199.548H49.948V202.812H49.024V200.376H43.072V202.896H42.184V199.548ZM45.664 200.736H46.552C46.144 203.124 45.04 204.42 40.996 204.984C40.936 204.78 40.744 204.432 40.588 204.252C44.404 203.784 45.316 202.716 45.664 200.736ZM46.18 203.112L46.684 202.452C48.16 202.896 50.164 203.652 51.22 204.168L50.692 204.924C49.672 204.384 47.692 203.592 46.18 203.112ZM47.308 195.396H48.208C47.824 197.148 46.924 198.564 44.392 199.332C44.296 199.128 44.08 198.816 43.9 198.672C46.24 198.048 46.984 196.788 47.308 195.396ZM47.836 196.212C48.46 197.328 49.816 198.192 51.388 198.528C51.196 198.696 50.968 199.02 50.848 199.248C49.216 198.78 47.848 197.748 47.164 196.404L47.836 196.212ZM54.004 198.444H63.136V199.332H54.004V198.444ZM53.32 195.372H62.824V196.224H53.32V195.372ZM53.488 198.444H54.424V200.1C54.424 201.54 54.208 203.64 53.164 205.056C53.008 204.876 52.612 204.54 52.42 204.432C53.368 203.124 53.488 201.348 53.488 200.076V198.444ZM55.144 196.668L55.936 196.344C56.332 196.848 56.788 197.568 56.992 198.036L56.176 198.408C55.984 197.94 55.552 197.196 55.144 196.668ZM60.256 196.404L61.24 196.728C60.82 197.436 60.34 198.264 59.944 198.792L59.248 198.492C59.596 197.928 60.028 197.028 60.256 196.404ZM57.1 194.16L57.988 193.908C58.36 194.34 58.732 194.952 58.9 195.36L57.952 195.66C57.808 195.24 57.448 194.616 57.1 194.16ZM71.32 195.396H72.22V203.28C72.22 203.784 72.304 203.88 72.724 203.88C72.916 203.88 73.912 203.88 74.164 203.88C74.572 203.88 74.632 203.508 74.68 201.96C74.896 202.128 75.268 202.284 75.52 202.344C75.412 204.144 75.196 204.732 74.236 204.732C74.008 204.732 72.82 204.732 72.616 204.732C71.608 204.732 71.32 204.42 71.32 203.268V195.396ZM73.876 194.088L74.656 194.784C73.216 195.396 71.008 195.852 69.112 196.14C69.076 195.948 68.944 195.612 68.836 195.408C70.648 195.12 72.748 194.628 73.876 194.088ZM68.776 199.296L75.316 198.324L75.448 199.152L68.92 200.148L68.776 199.296ZM64.396 200.28C65.452 200.016 67.024 199.584 68.524 199.14L68.632 199.968C67.252 200.388 65.776 200.832 64.66 201.144L64.396 200.28ZM64.54 196.344H68.56V197.196H64.54V196.344ZM66.16 193.932H67.048V203.82C67.048 204.324 66.928 204.576 66.604 204.708C66.292 204.852 65.788 204.876 64.972 204.876C64.936 204.648 64.804 204.276 64.696 204.036C65.26 204.06 65.776 204.048 65.932 204.048C66.1 204.048 66.16 203.988 66.16 203.82V193.932ZM79.24 203.868H85.588V204.564H79.24V203.868ZM81.532 196.356H82.408V197.688H81.532V196.356ZM76.972 197.292H87.112V199.548H86.224V198.012H77.836V199.548H76.972V197.292ZM79.192 198.756H85.348V201.168H79.192V200.472H84.46V199.44H79.192V198.756ZM79.228 201.996H86.116V204.948H85.228V202.704H79.228V201.996ZM78.712 198.756H79.576V204.972H78.712V198.756ZM77.956 194.844H81.832V195.588H77.956V194.844ZM82.636 194.844H87.484V195.588H82.636V194.844ZM78.184 193.872L79.036 194.088C78.592 195.144 77.884 196.188 77.188 196.872C77.02 196.74 76.66 196.488 76.444 196.38C77.164 195.756 77.812 194.808 78.184 193.872ZM82.912 193.872L83.764 194.076C83.332 195.12 82.576 196.092 81.82 196.716C81.64 196.584 81.268 196.368 81.04 196.26C81.832 195.684 82.528 194.796 82.912 193.872ZM78.628 195.408L79.408 195.204C79.684 195.624 79.996 196.212 80.116 196.584L79.3 196.824C79.192 196.452 78.904 195.852 78.628 195.408ZM83.716 195.42L84.508 195.18C84.88 195.6 85.312 196.188 85.492 196.584L84.676 196.848C84.508 196.464 84.1 195.852 83.716 195.42ZM93.952 194.796C92.956 196.224 91.024 197.88 88.996 198.96C88.888 198.744 88.636 198.432 88.444 198.24C90.52 197.196 92.512 195.42 93.436 193.908H94.36C95.632 195.648 97.708 197.256 99.592 198.096C99.376 198.312 99.16 198.624 99.004 198.888C97.144 197.928 95.056 196.284 93.952 194.796ZM90.976 197.58H97V198.396H90.976V197.58ZM89.428 199.992H98.56V200.796H89.428V199.992ZM88.876 203.784H99.136V204.576H88.876V203.784ZM93.472 197.892H94.42V204.204H93.472V197.892ZM90.424 201.408L91.156 201.108C91.648 201.768 92.14 202.68 92.308 203.28L91.528 203.616C91.372 203.016 90.904 202.08 90.424 201.408ZM96.7 201.084L97.552 201.432C97.096 202.188 96.532 203.052 96.088 203.616L95.404 203.316C95.836 202.728 96.4 201.768 96.7 201.084ZM106.168 194.64H111.436V195.432H106.168V194.64ZM108.484 195.096L109.264 195.288C109.024 195.924 108.784 196.608 108.556 197.076L107.872 196.884C108.076 196.392 108.352 195.612 108.484 195.096ZM106.36 196.68H110.98V202.32H110.188V197.412H107.14V202.344H106.36V196.68ZM108.316 198.084H109.096C109.036 202.068 108.784 203.976 105.952 205.008C105.868 204.816 105.64 204.516 105.484 204.372C108.1 203.46 108.256 201.804 108.316 198.084ZM108.844 202.992L109.336 202.44C110.116 203.004 111.148 203.796 111.652 204.3L111.148 204.936C110.656 204.408 109.648 203.58 108.844 202.992ZM100.732 195.084H105.964V196.896H105.136V195.828H101.524V196.896H100.732V195.084ZM101.512 201.204H105.256V204.852H104.416V201.936H102.316V204.876H101.512V201.204ZM101.812 203.76H104.8V204.492H101.812V203.76ZM102.556 196.224L103.372 196.368C102.892 197.364 102.16 198.42 101.008 199.248C100.888 199.068 100.648 198.792 100.48 198.684C101.512 197.988 102.196 197.028 102.556 196.224ZM102.664 197.064H104.824V197.76H102.304L102.664 197.064ZM104.656 197.064H104.848L105.004 197.028L105.496 197.352C104.608 199.308 102.724 200.688 100.828 201.408C100.768 201.168 100.588 200.76 100.456 200.604C102.232 200.004 103.96 198.804 104.656 197.22V197.064ZM102.568 194.16L103.384 193.968C103.636 194.388 103.96 194.976 104.116 195.324L103.252 195.564C103.108 195.204 102.82 194.604 102.568 194.16ZM101.776 199.008L102.352 198.48C103.528 199.056 105.16 199.932 106.012 200.484L105.4 201.12C104.596 200.556 102.988 199.632 101.776 199.008Z" fill="#73798B"/>
<rect opacity="0.1" x="40" y="216" width="255" height="8" rx="4" fill="#26C165"/>
<path d="M40 220C40 217.791 41.7909 216 44 216H162.884C165.093 216 166.884 217.791 166.884 220V220C166.884 222.209 165.093 224 162.884 224H44C41.7909 224 40 222.209 40 220V220Z" fill="#26C165"/>
<rect x="311" y="196" width="75" height="24" rx="4" fill="#26C165" fill-opacity="0.1"/>
<path d="M317.742 204.752H318.666V210.8C318.666 211.556 318.93 211.736 320.25 211.736C320.886 211.736 324.018 211.736 324.822 211.736C326.142 211.736 326.346 211.328 326.502 209.384C326.754 209.552 327.15 209.708 327.426 209.756C327.186 211.976 326.802 212.624 324.822 212.624C324.33 212.624 320.754 212.624 320.31 212.624C318.354 212.624 317.742 212.276 317.742 210.776V204.752ZM318.246 206.72H325.326V207.62H318.246V206.72ZM317.118 202.676H325.89V208.208H324.966V203.564H317.118V202.676ZM331.842 203.252H339.546V204.092H331.842V203.252ZM333.03 206.024V207.824H338.274V206.024H333.03ZM332.202 205.256H339.15V208.592H332.202V205.256ZM332.946 208.832C334.074 210.716 336.534 211.832 339.654 212.18C339.462 212.372 339.234 212.732 339.114 212.984C335.934 212.528 333.474 211.28 332.202 209.084L332.946 208.832ZM335.178 201.968H336.066V207.284C336.066 209.6 335.67 211.904 331.95 213.008C331.842 212.804 331.59 212.444 331.41 212.252C334.974 211.352 335.178 209.3 335.178 207.272V201.968ZM331.326 201.896L332.178 202.16C331.362 204.188 330.078 206.204 328.746 207.536C328.662 207.332 328.41 206.864 328.242 206.648C329.454 205.508 330.63 203.72 331.326 201.896ZM330.066 205.04L330.918 204.188L330.93 204.2V213.02H330.066V205.04ZM342.342 202.772H350.106V203.636H342.342V202.772ZM342.342 205.568H350.094V206.42H342.342V205.568ZM342.282 208.436H350.118V209.288H342.282V208.436ZM341.838 202.772H342.726V207.128C342.726 208.952 342.51 211.436 341.082 213.032C340.938 212.852 340.578 212.552 340.386 212.432C341.706 210.944 341.838 208.808 341.838 207.116V202.772ZM349.746 202.772H350.634V211.736C350.634 212.324 350.49 212.6 350.094 212.756C349.686 212.9 348.99 212.912 347.85 212.9C347.814 212.66 347.67 212.264 347.538 212.024C348.39 212.06 349.206 212.048 349.434 212.048C349.662 212.036 349.746 211.964 349.746 211.736V202.772ZM345.606 203.096H346.518V212.852H345.606V203.096ZM361.479 204.428H357.459V206.816C357.627 206.592 357.875 206.404 358.203 206.252C358.539 206.1 358.895 206.024 359.271 206.024C359.943 206.024 360.487 206.168 360.903 206.456C361.327 206.744 361.627 207.108 361.803 207.548C361.987 207.988 362.079 208.452 362.079 208.94C362.079 209.532 361.963 210.06 361.731 210.524C361.507 210.98 361.167 211.34 360.711 211.604C360.263 211.868 359.711 212 359.055 212C358.183 212 357.483 211.784 356.955 211.352C356.427 210.92 356.111 210.348 356.007 209.636H357.339C357.427 210.012 357.623 210.312 357.927 210.536C358.231 210.752 358.611 210.86 359.067 210.86C359.635 210.86 360.059 210.688 360.339 210.344C360.627 210 360.771 209.544 360.771 208.976C360.771 208.4 360.627 207.96 360.339 207.656C360.051 207.344 359.627 207.188 359.067 207.188C358.675 207.188 358.343 207.288 358.071 207.488C357.807 207.68 357.615 207.944 357.495 208.28H356.199V203.228H361.479V204.428ZM363.503 207.512C363.503 206.128 363.735 205.048 364.199 204.272C364.671 203.488 365.479 203.096 366.623 203.096C367.767 203.096 368.571 203.488 369.035 204.272C369.507 205.048 369.743 206.128 369.743 207.512C369.743 208.912 369.507 210.008 369.035 210.8C368.571 211.584 367.767 211.976 366.623 211.976C365.479 211.976 364.671 211.584 364.199 210.8C363.735 210.008 363.503 208.912 363.503 207.512ZM368.399 207.512C368.399 206.864 368.355 206.316 368.267 205.868C368.187 205.42 368.019 205.056 367.763 204.776C367.507 204.488 367.127 204.344 366.623 204.344C366.119 204.344 365.739 204.488 365.483 204.776C365.227 205.056 365.055 205.42 364.967 205.868C364.887 206.316 364.847 206.864 364.847 207.512C364.847 208.184 364.887 208.748 364.967 209.204C365.047 209.66 365.215 210.028 365.471 210.308C365.735 210.588 366.119 210.728 366.623 210.728C367.127 210.728 367.507 210.588 367.763 210.308C368.027 210.028 368.199 209.66 368.279 209.204C368.359 208.748 368.399 208.184 368.399 207.512ZM370.975 205.364C370.975 204.78 371.143 204.324 371.479 203.996C371.823 203.66 372.263 203.492 372.799 203.492C373.335 203.492 373.771 203.66 374.107 203.996C374.451 204.324 374.623 204.78 374.623 205.364C374.623 205.948 374.451 206.408 374.107 206.744C373.771 207.08 373.335 207.248 372.799 207.248C372.263 207.248 371.823 207.08 371.479 206.744C371.143 206.408 370.975 205.948 370.975 205.364ZM378.295 203.648L373.507 212H372.163L376.951 203.648H378.295ZM372.799 204.32C372.295 204.32 372.043 204.668 372.043 205.364C372.043 206.068 372.295 206.42 372.799 206.42C373.039 206.42 373.223 206.336 373.351 206.168C373.487 205.992 373.555 205.724 373.555 205.364C373.555 204.668 373.303 204.32 372.799 204.32ZM375.859 210.272C375.859 209.688 376.027 209.232 376.363 208.904C376.707 208.568 377.147 208.4 377.683 208.4C378.211 208.4 378.643 208.568 378.979 208.904C379.323 209.232 379.495 209.688 379.495 210.272C379.495 210.856 379.323 211.316 378.979 211.652C378.643 211.988 378.211 212.156 377.683 212.156C377.147 212.156 376.707 211.988 376.363 211.652C376.027 211.316 375.859 210.856 375.859 210.272ZM377.671 209.228C377.167 209.228 376.915 209.576 376.915 210.272C376.915 210.968 377.167 211.316 377.671 211.316C378.175 211.316 378.427 210.968 378.427 210.272C378.427 209.576 378.175 209.228 377.671 209.228Z" fill="#26C165"/>
<mask id="path-29-inside-5_3885_3645" fill="white">
<path d="M24 236H402V292H24V236Z"/>
</mask>
<path d="M24 236H402V292H24V236Z" fill="white"/>
<path d="M402 291H24V293H402V291Z" fill="#EDEEF3" mask="url(#path-29-inside-5_3885_3645)"/>
<path d="M45.868 258.14H42.22L41.548 260H40.396L43.42 251.684H44.68L47.692 260H46.54L45.868 258.14ZM45.556 257.252L44.044 253.028L42.532 257.252H45.556ZM54.6019 254.084C54.6019 254.78 54.3619 255.36 53.8819 255.824C53.4099 256.28 52.6859 256.508 51.7099 256.508H50.1019V260H49.0099V251.636H51.7099C52.6539 251.636 53.3699 251.864 53.8579 252.32C54.3539 252.776 54.6019 253.364 54.6019 254.084ZM51.7099 255.608C52.3179 255.608 52.7659 255.476 53.0539 255.212C53.3419 254.948 53.4859 254.572 53.4859 254.084C53.4859 253.052 52.8939 252.536 51.7099 252.536H50.1019V255.608H51.7099ZM57.0512 251.636V260H55.9592V251.636H57.0512ZM65.7835 250.472H66.5875V254.948C66.5875 256.784 66.4195 259.316 65.2435 260.96C65.0995 260.816 64.7635 260.576 64.5835 260.48C65.6755 258.92 65.7835 256.676 65.7835 254.948V250.472ZM66.2875 250.472H71.8195V251.276H66.2875V250.472ZM71.4595 250.472H72.2635V259.88C72.2635 260.372 72.1555 260.624 71.8315 260.78C71.5195 260.912 71.0035 260.936 70.1515 260.924C70.1155 260.708 69.9835 260.324 69.8635 260.096C70.4875 260.132 71.0515 260.12 71.2195 260.12C71.3875 260.108 71.4595 260.048 71.4595 259.88V250.472ZM67.3315 252.644H70.6915V253.328H67.3315V252.644ZM67.0675 254.564H71.0035V255.236H67.0675V254.564ZM68.6155 251.636H69.3595V255.044H68.6155V251.636ZM67.7155 256.232H70.5595V259.04H67.7155V258.356H69.8515V256.904H67.7155V256.232ZM67.3315 256.232H68.0275V259.58H67.3315V256.232ZM62.4475 250.736L63.0355 250.196C63.6835 250.724 64.4995 251.492 64.8835 251.996L64.2595 252.62C63.8875 252.104 63.0835 251.3 62.4475 250.736ZM63.2755 260.624L63.1075 259.796L63.3235 259.436L65.1355 258.044C65.2195 258.284 65.3755 258.62 65.4835 258.788C63.7435 260.168 63.4435 260.408 63.2755 260.624ZM61.7035 253.688H63.8275V254.564H61.7035V253.688ZM63.2755 260.624C63.1795 260.456 62.8795 260.156 62.7115 260.012C62.9635 259.82 63.3955 259.352 63.3955 258.716V253.688H64.2595V259.34C64.2595 259.34 63.2755 260.264 63.2755 260.624ZM75.5275 250.772H83.2915V251.636H75.5275V250.772ZM75.5275 253.568H83.2795V254.42H75.5275V253.568ZM75.4675 256.436H83.3035V257.288H75.4675V256.436ZM75.0235 250.772H75.9115V255.128C75.9115 256.952 75.6955 259.436 74.2675 261.032C74.1235 260.852 73.7635 260.552 73.5715 260.432C74.8915 258.944 75.0235 256.808 75.0235 255.116V250.772ZM82.9315 250.772H83.8195V259.736C83.8195 260.324 83.6755 260.6 83.2795 260.756C82.8715 260.9 82.1755 260.912 81.0355 260.9C80.9995 260.66 80.8555 260.264 80.7235 260.024C81.5755 260.06 82.3915 260.048 82.6195 260.048C82.8475 260.036 82.9315 259.964 82.9315 259.736V250.772ZM78.7915 251.096H79.7035V260.852H78.7915V251.096ZM90.5275 249.956L91.4635 250.124C90.9835 252.2 90.1915 254.156 89.2195 255.428C89.0395 255.284 88.6075 255.044 88.3555 254.924C89.3755 253.748 90.1075 251.876 90.5275 249.956ZM92.5075 252.896H92.9635V254.504C92.9635 255.572 93.5515 258.752 96.8155 260.156C96.6475 260.372 96.3715 260.744 96.2275 260.96C93.7075 259.808 92.6875 257.324 92.4955 256.196C92.2915 257.336 91.1995 259.748 88.2955 260.96C88.1875 260.768 87.9115 260.396 87.7435 260.228C91.4035 258.788 92.0275 255.644 92.0275 254.504V252.896H92.5075ZM85.6315 258.488C86.3275 257.84 87.4195 256.736 88.4395 255.668L88.9315 256.448C88.0435 257.408 87.0355 258.452 86.2195 259.232L85.6315 258.488ZM86.0155 251.372L86.6515 250.724C87.4315 251.228 88.4035 251.984 88.8715 252.5L88.1995 253.232C87.7435 252.704 86.7955 251.912 86.0155 251.372ZM90.5515 252.092H95.9515V252.98H90.1435L90.5515 252.092ZM95.6395 252.092H95.7835L95.9515 252.032L96.6115 252.404C96.2995 253.556 95.7355 254.804 95.2915 255.608C95.0995 255.5 94.7515 255.32 94.5235 255.224C94.9195 254.504 95.4355 253.232 95.6395 252.308V252.092ZM97.6555 256.328H103.548V257.084H97.6555V256.328ZM97.7275 252.14H103.512V252.872H97.7275V252.14ZM99.8875 255.296L100.728 255.476C100.188 256.652 99.4315 258.116 98.8795 259.064L98.0875 258.788C98.6275 257.876 99.3835 256.4 99.8875 255.296ZM101.688 256.772L102.528 256.88C102.12 259.22 100.86 260.372 98.0875 260.96C98.0275 260.72 97.8475 260.396 97.6795 260.216C100.188 259.796 101.316 258.812 101.688 256.772ZM102.444 250.16L103.212 250.496C102.864 251.048 102.468 251.648 102.132 252.056L101.532 251.756C101.832 251.324 102.228 250.628 102.444 250.16ZM100.212 249.92H101.04V255.44H100.212V249.92ZM98.1715 250.496L98.8555 250.208C99.1915 250.688 99.5155 251.324 99.6355 251.756L98.9275 252.08C98.8195 251.648 98.5075 250.988 98.1715 250.496ZM100.224 252.464L100.836 252.824C100.248 253.832 99.1195 254.9 98.0875 255.464C97.9795 255.26 97.7635 254.96 97.5955 254.78C98.5915 254.348 99.6955 253.388 100.224 252.464ZM100.944 252.884C101.376 253.112 102.84 254.036 103.188 254.288L102.696 254.948C102.264 254.54 101.016 253.604 100.512 253.268L100.944 252.884ZM104.424 252.14H108.696V252.98H104.424V252.14ZM104.724 249.92L105.636 250.052C105.24 252.404 104.532 254.552 103.476 255.956C103.332 255.788 102.96 255.488 102.744 255.344C103.764 254.072 104.388 252.044 104.724 249.92ZM107.088 252.62L108 252.716C107.424 256.856 106.152 259.436 103.128 260.996C103.032 260.78 102.768 260.384 102.588 260.192C105.444 258.848 106.596 256.424 107.088 252.62ZM104.904 252.884C105.432 256.184 106.584 259.016 108.816 260.192C108.6 260.372 108.312 260.72 108.18 260.96C105.828 259.58 104.688 256.652 104.088 253.016L104.904 252.884ZM98.8075 258.62L99.2875 258.008C100.728 258.56 102.216 259.352 103.08 260.012L102.456 260.66C101.628 259.988 100.2 259.184 98.8075 258.62Z" fill="#73798B"/>
<rect opacity="0.1" x="40" y="272" width="255" height="8" rx="4" fill="#26C165"/>
<path d="M40 276C40 273.791 41.7909 272 44 272H122.232C124.441 272 126.232 273.791 126.232 276V276C126.232 278.209 124.441 280 122.232 280H44C41.7909 280 40 278.209 40 276V276Z" fill="#26C165"/>
<rect x="311" y="252" width="75" height="24" rx="4" fill="#26C165" fill-opacity="0.1"/>
<path d="M318.011 260.752H318.935V266.8C318.935 267.556 319.199 267.736 320.519 267.736C321.155 267.736 324.287 267.736 325.091 267.736C326.411 267.736 326.615 267.328 326.771 265.384C327.023 265.552 327.419 265.708 327.695 265.756C327.455 267.976 327.071 268.624 325.091 268.624C324.599 268.624 321.023 268.624 320.579 268.624C318.623 268.624 318.011 268.276 318.011 266.776V260.752ZM318.515 262.72H325.595V263.62H318.515V262.72ZM317.387 258.676H326.159V264.208H325.235V259.564H317.387V258.676ZM332.111 259.252H339.815V260.092H332.111V259.252ZM333.299 262.024V263.824H338.543V262.024H333.299ZM332.471 261.256H339.419V264.592H332.471V261.256ZM333.215 264.832C334.343 266.716 336.803 267.832 339.923 268.18C339.731 268.372 339.503 268.732 339.383 268.984C336.203 268.528 333.743 267.28 332.471 265.084L333.215 264.832ZM335.447 257.968H336.335V263.284C336.335 265.6 335.939 267.904 332.219 269.008C332.111 268.804 331.859 268.444 331.679 268.252C335.243 267.352 335.447 265.3 335.447 263.272V257.968ZM331.595 257.896L332.447 258.16C331.631 260.188 330.347 262.204 329.015 263.536C328.931 263.332 328.679 262.864 328.511 262.648C329.723 261.508 330.899 259.72 331.595 257.896ZM330.335 261.04L331.187 260.188L331.199 260.2V269.02H330.335V261.04ZM342.611 258.772H350.375V259.636H342.611V258.772ZM342.611 261.568H350.363V262.42H342.611V261.568ZM342.551 264.436H350.387V265.288H342.551V264.436ZM342.107 258.772H342.995V263.128C342.995 264.952 342.779 267.436 341.351 269.032C341.207 268.852 340.847 268.552 340.655 268.432C341.975 266.944 342.107 264.808 342.107 263.116V258.772ZM350.015 258.772H350.903V267.736C350.903 268.324 350.759 268.6 350.363 268.756C349.955 268.9 349.259 268.912 348.119 268.9C348.083 268.66 347.939 268.264 347.807 268.024C348.659 268.06 349.475 268.048 349.703 268.048C349.931 268.036 350.015 267.964 350.015 267.736V258.772ZM345.875 259.096H346.787V268.852H345.875V259.096ZM356.085 261.412C356.133 260.668 356.417 260.088 356.937 259.672C357.465 259.256 358.137 259.048 358.953 259.048C359.513 259.048 359.997 259.148 360.405 259.348C360.813 259.548 361.121 259.82 361.329 260.164C361.537 260.508 361.641 260.896 361.641 261.328C361.641 261.824 361.509 262.248 361.245 262.6C360.981 262.952 360.665 263.188 360.297 263.308V263.356C360.769 263.5 361.137 263.764 361.401 264.148C361.665 264.524 361.797 265.008 361.797 265.6C361.797 266.072 361.689 266.492 361.473 266.86C361.257 267.228 360.937 267.52 360.513 267.736C360.089 267.944 359.581 268.048 358.989 268.048C358.125 268.048 357.413 267.828 356.853 267.388C356.301 266.94 356.005 266.3 355.965 265.468H357.285C357.317 265.892 357.481 266.24 357.777 266.512C358.073 266.776 358.473 266.908 358.977 266.908C359.465 266.908 359.841 266.776 360.105 266.512C360.369 266.24 360.501 265.892 360.501 265.468C360.501 264.908 360.321 264.512 359.961 264.28C359.609 264.04 359.065 263.92 358.329 263.92H358.017V262.792H358.341C358.989 262.784 359.481 262.676 359.817 262.468C360.161 262.26 360.333 261.932 360.333 261.484C360.333 261.1 360.209 260.796 359.961 260.572C359.713 260.34 359.361 260.224 358.905 260.224C358.457 260.224 358.109 260.34 357.861 260.572C357.613 260.796 357.465 261.076 357.417 261.412H356.085ZM363.234 263.512C363.234 262.128 363.466 261.048 363.93 260.272C364.402 259.488 365.21 259.096 366.354 259.096C367.498 259.096 368.302 259.488 368.766 260.272C369.238 261.048 369.474 262.128 369.474 263.512C369.474 264.912 369.238 266.008 368.766 266.8C368.302 267.584 367.498 267.976 366.354 267.976C365.21 267.976 364.402 267.584 363.93 266.8C363.466 266.008 363.234 264.912 363.234 263.512ZM368.13 263.512C368.13 262.864 368.086 262.316 367.998 261.868C367.918 261.42 367.75 261.056 367.494 260.776C367.238 260.488 366.858 260.344 366.354 260.344C365.85 260.344 365.47 260.488 365.214 260.776C364.958 261.056 364.786 261.42 364.698 261.868C364.618 262.316 364.578 262.864 364.578 263.512C364.578 264.184 364.618 264.748 364.698 265.204C364.778 265.66 364.946 266.028 365.202 266.308C365.466 266.588 365.85 266.728 366.354 266.728C366.858 266.728 367.238 266.588 367.494 266.308C367.758 266.028 367.93 265.66 368.01 265.204C368.09 264.748 368.13 264.184 368.13 263.512ZM370.705 261.364C370.705 260.78 370.873 260.324 371.209 259.996C371.553 259.66 371.993 259.492 372.529 259.492C373.065 259.492 373.501 259.66 373.837 259.996C374.181 260.324 374.353 260.78 374.353 261.364C374.353 261.948 374.181 262.408 373.837 262.744C373.501 263.08 373.065 263.248 372.529 263.248C371.993 263.248 371.553 263.08 371.209 262.744C370.873 262.408 370.705 261.948 370.705 261.364ZM378.025 259.648L373.237 268H371.893L376.681 259.648H378.025ZM372.529 260.32C372.025 260.32 371.773 260.668 371.773 261.364C371.773 262.068 372.025 262.42 372.529 262.42C372.769 262.42 372.953 262.336 373.081 262.168C373.217 261.992 373.285 261.724 373.285 261.364C373.285 260.668 373.033 260.32 372.529 260.32ZM375.589 266.272C375.589 265.688 375.757 265.232 376.093 264.904C376.437 264.568 376.877 264.4 377.413 264.4C377.941 264.4 378.373 264.568 378.709 264.904C379.053 265.232 379.225 265.688 379.225 266.272C379.225 266.856 379.053 267.316 378.709 267.652C378.373 267.988 377.941 268.156 377.413 268.156C376.877 268.156 376.437 267.988 376.093 267.652C375.757 267.316 375.589 266.856 375.589 266.272ZM377.401 265.228C376.897 265.228 376.645 265.576 376.645 266.272C376.645 266.968 376.897 267.316 377.401 267.316C377.905 267.316 378.157 266.968 378.157 266.272C378.157 265.576 377.905 265.228 377.401 265.228Z" fill="#26C165"/>
<mask id="path-36-inside-6_3885_3645" fill="white">
<path d="M24 292H402V348H24V292Z"/>
</mask>
<path d="M24 292H402V348H24V292Z" fill="white"/>
<path d="M402 347H24V349H402V347Z" fill="#EDEEF3" mask="url(#path-36-inside-6_3885_3645)"/>
<path d="M42.172 305.956L42.988 306.196C42.52 307.516 41.74 308.836 40.876 309.7C40.804 309.52 40.564 309.064 40.408 308.86C41.14 308.152 41.8 307.084 42.172 305.956ZM41.932 307.276H44.8V308.14H41.752L41.932 307.276ZM42.328 316.876L42.196 316.048L42.496 315.688L44.896 314.308C44.932 314.548 45.028 314.896 45.112 315.076C42.856 316.432 42.532 316.648 42.328 316.876ZM41.32 309.436H44.632V310.252H41.32V309.436ZM40.744 311.884H44.956V312.7H40.744V311.884ZM45.328 308.812L50.848 307.984L50.992 308.776L45.484 309.616L45.328 308.812ZM45.088 311.392L51.172 310.252L51.328 311.044L45.232 312.196L45.088 311.392ZM47.068 305.908H47.932C47.896 311.572 48.82 316.06 50.356 316.072C50.68 316.072 50.8 315.784 50.848 314.728C51.028 314.908 51.316 315.1 51.52 315.184C51.352 316.516 51.076 316.912 50.272 316.912C47.908 316.912 47.116 311.776 47.068 305.908ZM48.4 306.64L48.916 306.148C49.516 306.412 50.272 306.844 50.656 307.168L50.128 307.732C49.744 307.396 49 306.928 48.4 306.64ZM50.644 311.824L51.388 312.16C50.152 314.212 47.968 315.832 45.496 316.756C45.364 316.54 45.148 316.228 44.944 316.036C47.344 315.22 49.492 313.708 50.644 311.824ZM42.328 316.876C42.244 316.684 42.016 316.372 41.884 316.228C42.088 316.084 42.496 315.712 42.496 315.16V309.688H43.312V315.808C43.312 315.808 42.328 316.54 42.328 316.876ZM55.384 305.86L56.32 306.124C55.564 307.996 54.388 309.772 53.164 310.924C52.984 310.756 52.6 310.432 52.36 310.288C53.608 309.244 54.712 307.576 55.384 305.86ZM55.24 307.3H62.008V308.152H54.808L55.24 307.3ZM61.72 307.3H62.62C62.62 307.3 62.62 307.6 62.62 307.732C62.5 311.776 62.38 313.204 62.032 313.648C61.816 313.924 61.576 314.02 61.216 314.056C60.88 314.092 60.28 314.08 59.632 314.056C59.62 313.792 59.524 313.432 59.38 313.192C59.992 313.252 60.568 313.264 60.796 313.264C60.988 313.264 61.12 313.228 61.216 313.096C61.492 312.784 61.612 311.404 61.72 307.48V307.3ZM54.604 312.292H58.336V310.24H54.352V309.436H59.236V313.096H54.604V312.292ZM54.172 312.292H55.072V315.376C55.072 315.868 55.312 315.976 56.608 315.976C57.22 315.976 60.328 315.976 61.132 315.976C62.224 315.976 62.404 315.736 62.512 314.356C62.74 314.488 63.124 314.632 63.376 314.68C63.196 316.408 62.848 316.828 61.144 316.828C60.7 316.828 57.076 316.828 56.656 316.828C54.736 316.828 54.172 316.564 54.172 315.376V312.292ZM71.62 305.92H72.472V314.284H71.62V305.92ZM67.84 310.876L74.308 308.152L74.644 308.92L68.188 311.668L67.84 310.876ZM69.136 307.048H70V315.076C70 315.736 70.144 315.88 70.948 315.88C71.344 315.88 73.36 315.88 73.84 315.88C74.548 315.88 74.668 315.556 74.752 314.176C74.968 314.32 75.316 314.464 75.568 314.512C75.424 316.168 75.136 316.696 73.876 316.696C73.552 316.696 71.224 316.696 70.924 316.696C69.544 316.696 69.136 316.372 69.136 315.064V307.048ZM74.152 308.272H74.044L74.26 308.092L74.416 307.96L75.052 308.2L75.016 308.368C75.016 310.624 74.98 312.424 74.896 312.892C74.824 313.372 74.596 313.6 74.248 313.684C73.924 313.768 73.444 313.768 73.12 313.768C73.084 313.528 73.012 313.192 72.904 312.988C73.18 313 73.576 313 73.708 313C73.888 313 74.008 312.952 74.068 312.676C74.14 312.364 74.152 310.66 74.152 308.272ZM64.492 308.812H68.308V309.664H64.492V308.812ZM66.04 306.064H66.892V313.852H66.04V306.064ZM64.384 314.164C65.356 313.804 66.832 313.18 68.26 312.568L68.452 313.372C67.168 313.984 65.812 314.596 64.744 315.052L64.384 314.164ZM84.172 310.084H87.364V310.948H84.172V310.084ZM79.732 315.676H87.544V316.528H79.732V315.676ZM83.86 306.004H84.772V316.108H83.86V306.004ZM81.208 308.548H82.084V316.06H81.208V308.548ZM76.528 308.812H80.596V309.664H76.528V308.812ZM78.172 306.076H79.024V313.756H78.172V306.076ZM76.408 314.056C77.452 313.696 79.036 313.06 80.548 312.472L80.716 313.264C79.348 313.864 77.86 314.488 76.744 314.944L76.408 314.056ZM88.468 312.328H94.36V313.084H88.468V312.328ZM88.54 308.14H94.324V308.872H88.54V308.14ZM90.7 311.296L91.54 311.476C91 312.652 90.244 314.116 89.692 315.064L88.9 314.788C89.44 313.876 90.196 312.4 90.7 311.296ZM92.5 312.772L93.34 312.88C92.932 315.22 91.672 316.372 88.9 316.96C88.84 316.72 88.66 316.396 88.492 316.216C91 315.796 92.128 314.812 92.5 312.772ZM93.256 306.16L94.024 306.496C93.676 307.048 93.28 307.648 92.944 308.056L92.344 307.756C92.644 307.324 93.04 306.628 93.256 306.16ZM91.024 305.92H91.852V311.44H91.024V305.92ZM88.984 306.496L89.668 306.208C90.004 306.688 90.328 307.324 90.448 307.756L89.74 308.08C89.632 307.648 89.32 306.988 88.984 306.496ZM91.036 308.464L91.648 308.824C91.06 309.832 89.932 310.9 88.9 311.464C88.792 311.26 88.576 310.96 88.408 310.78C89.404 310.348 90.508 309.388 91.036 308.464ZM91.756 308.884C92.188 309.112 93.652 310.036 94 310.288L93.508 310.948C93.076 310.54 91.828 309.604 91.324 309.268L91.756 308.884ZM95.236 308.14H99.508V308.98H95.236V308.14ZM95.536 305.92L96.448 306.052C96.052 308.404 95.344 310.552 94.288 311.956C94.144 311.788 93.772 311.488 93.556 311.344C94.576 310.072 95.2 308.044 95.536 305.92ZM97.9 308.62L98.812 308.716C98.236 312.856 96.964 315.436 93.94 316.996C93.844 316.78 93.58 316.384 93.4 316.192C96.256 314.848 97.408 312.424 97.9 308.62ZM95.716 308.884C96.244 312.184 97.396 315.016 99.628 316.192C99.412 316.372 99.124 316.72 98.992 316.96C96.64 315.58 95.5 312.652 94.9 309.016L95.716 308.884ZM89.62 314.62L90.1 314.008C91.54 314.56 93.028 315.352 93.892 316.012L93.268 316.66C92.44 315.988 91.012 315.184 89.62 314.62Z" fill="#73798B"/>
<rect opacity="0.1" x="40" y="328" width="247" height="8" rx="4" fill="#26C165"/>
<path d="M40 332C40 329.791 41.7909 328 44 328H244V336H44C41.7909 336 40 334.209 40 332V332Z" fill="#26C165"/>
<path d="M295 332C295 329.791 293.209 328 291 328H247V336H291C293.209 336 295 334.209 295 332V332Z" fill="#E74E5A"/>
<rect x="244" y="325" width="3" height="14" fill="#1C1C1C"/>
<rect x="311" y="308" width="75" height="24" rx="4" fill="#E74E5A" fill-opacity="0.1"/>
<path d="M317.879 316.752H318.803V322.8C318.803 323.556 319.067 323.736 320.387 323.736C321.023 323.736 324.155 323.736 324.959 323.736C326.279 323.736 326.483 323.328 326.639 321.384C326.891 321.552 327.287 321.708 327.563 321.756C327.323 323.976 326.939 324.624 324.959 324.624C324.467 324.624 320.891 324.624 320.447 324.624C318.491 324.624 317.879 324.276 317.879 322.776V316.752ZM318.383 318.72H325.463V319.62H318.383V318.72ZM317.255 314.676H326.027V320.208H325.103V315.564H317.255V314.676ZM331.979 315.252H339.683V316.092H331.979V315.252ZM333.167 318.024V319.824H338.411V318.024H333.167ZM332.339 317.256H339.287V320.592H332.339V317.256ZM333.083 320.832C334.211 322.716 336.671 323.832 339.791 324.18C339.599 324.372 339.371 324.732 339.251 324.984C336.071 324.528 333.611 323.28 332.339 321.084L333.083 320.832ZM335.315 313.968H336.203V319.284C336.203 321.6 335.807 323.904 332.087 325.008C331.979 324.804 331.727 324.444 331.547 324.252C335.111 323.352 335.315 321.3 335.315 319.272V313.968ZM331.463 313.896L332.315 314.16C331.499 316.188 330.215 318.204 328.883 319.536C328.799 319.332 328.547 318.864 328.379 318.648C329.591 317.508 330.767 315.72 331.463 313.896ZM330.203 317.04L331.055 316.188L331.067 316.2V325.02H330.203V317.04ZM342.479 314.772H350.243V315.636H342.479V314.772ZM342.479 317.568H350.231V318.42H342.479V317.568ZM342.419 320.436H350.255V321.288H342.419V320.436ZM341.975 314.772H342.863V319.128C342.863 320.952 342.647 323.436 341.219 325.032C341.075 324.852 340.715 324.552 340.523 324.432C341.843 322.944 341.975 320.808 341.975 319.116V314.772ZM349.883 314.772H350.771V323.736C350.771 324.324 350.627 324.6 350.231 324.756C349.823 324.9 349.127 324.912 347.987 324.9C347.951 324.66 347.807 324.264 347.675 324.024C348.527 324.06 349.343 324.048 349.571 324.048C349.799 324.036 349.883 323.964 349.883 323.736V314.772ZM345.743 315.096H346.655V324.852H345.743V315.096ZM355.796 316.5V315.252H358.292V324H356.912V316.5H355.796ZM359.991 316.5V315.252H362.487V324H361.107V316.5H359.991ZM364.366 319.512C364.366 318.128 364.598 317.048 365.062 316.272C365.534 315.488 366.342 315.096 367.486 315.096C368.63 315.096 369.434 315.488 369.898 316.272C370.37 317.048 370.606 318.128 370.606 319.512C370.606 320.912 370.37 322.008 369.898 322.8C369.434 323.584 368.63 323.976 367.486 323.976C366.342 323.976 365.534 323.584 365.062 322.8C364.598 322.008 364.366 320.912 364.366 319.512ZM369.262 319.512C369.262 318.864 369.218 318.316 369.13 317.868C369.05 317.42 368.882 317.056 368.626 316.776C368.37 316.488 367.99 316.344 367.486 316.344C366.982 316.344 366.602 316.488 366.346 316.776C366.09 317.056 365.918 317.42 365.83 317.868C365.75 318.316 365.71 318.864 365.71 319.512C365.71 320.184 365.75 320.748 365.83 321.204C365.91 321.66 366.078 322.028 366.334 322.308C366.598 322.588 366.982 322.728 367.486 322.728C367.99 322.728 368.37 322.588 368.626 322.308C368.89 322.028 369.062 321.66 369.142 321.204C369.222 320.748 369.262 320.184 369.262 319.512ZM371.838 317.364C371.838 316.78 372.006 316.324 372.342 315.996C372.686 315.66 373.126 315.492 373.662 315.492C374.198 315.492 374.634 315.66 374.97 315.996C375.314 316.324 375.486 316.78 375.486 317.364C375.486 317.948 375.314 318.408 374.97 318.744C374.634 319.08 374.198 319.248 373.662 319.248C373.126 319.248 372.686 319.08 372.342 318.744C372.006 318.408 371.838 317.948 371.838 317.364ZM379.158 315.648L374.37 324H373.026L377.814 315.648H379.158ZM373.662 316.32C373.158 316.32 372.906 316.668 372.906 317.364C372.906 318.068 373.158 318.42 373.662 318.42C373.902 318.42 374.086 318.336 374.214 318.168C374.35 317.992 374.418 317.724 374.418 317.364C374.418 316.668 374.166 316.32 373.662 316.32ZM376.722 322.272C376.722 321.688 376.89 321.232 377.226 320.904C377.57 320.568 378.01 320.4 378.546 320.4C379.074 320.4 379.506 320.568 379.842 320.904C380.186 321.232 380.358 321.688 380.358 322.272C380.358 322.856 380.186 323.316 379.842 323.652C379.506 323.988 379.074 324.156 378.546 324.156C378.01 324.156 377.57 323.988 377.226 323.652C376.89 323.316 376.722 322.856 376.722 322.272ZM378.534 321.228C378.03 321.228 377.778 321.576 377.778 322.272C377.778 322.968 378.03 323.316 378.534 323.316C379.038 323.316 379.29 322.968 379.29 322.272C379.29 321.576 379.038 321.228 378.534 321.228Z" fill="#E74E5A"/>
<mask id="path-45-inside-7_3885_3645" fill="white">
<path d="M24 348H386V396H24V348Z"/>
</mask>
<path d="M24 348H386V396H24V348Z" fill="#F8F9FC"/>
<path d="M386 395H24V397H386V395Z" fill="#EDEEF3" mask="url(#path-45-inside-7_3885_3645)"/>
<path d="M52.912 366.88V378H51.088V370.384L47.696 378H46.432L43.024 370.384V378H41.2V366.88H43.168L47.072 375.6L50.96 366.88H52.912ZM63.0854 370.192C63.0854 370.757 62.952 371.291 62.6854 371.792C62.4187 372.293 61.992 372.704 61.4054 373.024C60.8187 373.333 60.0667 373.488 59.1494 373.488H57.1334V378H55.3094V366.88H59.1494C60.0027 366.88 60.7227 367.029 61.3094 367.328C61.9067 367.616 62.3494 368.011 62.6374 368.512C62.936 369.013 63.0854 369.573 63.0854 370.192ZM59.1494 372C59.8427 372 60.36 371.845 60.7014 371.536C61.0427 371.216 61.2134 370.768 61.2134 370.192C61.2134 368.976 60.5254 368.368 59.1494 368.368H57.1334V372H59.1494ZM64.217 372.416C64.217 371.328 64.4677 370.352 64.969 369.488C65.481 368.624 66.169 367.952 67.033 367.472C67.9077 366.981 68.8623 366.736 69.897 366.736C71.081 366.736 72.1317 367.029 73.049 367.616C73.977 368.192 74.649 369.013 75.065 370.08H72.873C72.585 369.493 72.185 369.056 71.673 368.768C71.161 368.48 70.569 368.336 69.897 368.336C69.161 368.336 68.505 368.501 67.929 368.832C67.353 369.163 66.8997 369.637 66.569 370.256C66.249 370.875 66.089 371.595 66.089 372.416C66.089 373.237 66.249 373.957 66.569 374.576C66.8997 375.195 67.353 375.675 67.929 376.016C68.505 376.347 69.161 376.512 69.897 376.512C70.569 376.512 71.161 376.368 71.673 376.08C72.185 375.792 72.585 375.355 72.873 374.768H75.065C74.649 375.835 73.977 376.656 73.049 377.232C72.1317 377.808 71.081 378.096 69.897 378.096C68.8517 378.096 67.897 377.856 67.033 377.376C66.169 376.885 65.481 376.208 64.969 375.344C64.4677 374.48 64.217 373.504 64.217 372.416ZM83.0523 364.608L84.1403 364.928C83.5163 366.688 82.4763 368.448 81.3243 369.6C81.2283 369.36 80.9083 368.752 80.7003 368.48C81.6763 367.536 82.5563 366.112 83.0523 364.608ZM82.7323 366.368H86.5563V367.52H82.4923L82.7323 366.368ZM83.2603 379.168L83.0843 378.064L83.4843 377.584L86.6843 375.744C86.7323 376.064 86.8603 376.528 86.9723 376.768C83.9643 378.576 83.5323 378.864 83.2603 379.168ZM81.9163 369.248H86.3323V370.336H81.9163V369.248ZM81.1483 372.512H86.7643V373.6H81.1483V372.512ZM87.2603 368.416L94.6203 367.312L94.8123 368.368L87.4683 369.488L87.2603 368.416ZM86.9403 371.856L95.0523 370.336L95.2603 371.392L87.1323 372.928L86.9403 371.856ZM89.5803 364.544H90.7323C90.6843 372.096 91.9163 378.08 93.9643 378.096C94.3963 378.096 94.5563 377.712 94.6203 376.304C94.8603 376.544 95.2443 376.8 95.5163 376.912C95.2923 378.688 94.9243 379.216 93.8523 379.216C90.7003 379.216 89.6443 372.368 89.5803 364.544ZM91.3563 365.52L92.0443 364.864C92.8443 365.216 93.8523 365.792 94.3643 366.224L93.6603 366.976C93.1483 366.528 92.1563 365.904 91.3563 365.52ZM94.3483 372.432L95.3403 372.88C93.6923 375.616 90.7803 377.776 87.4843 379.008C87.3083 378.72 87.0203 378.304 86.7483 378.048C89.9483 376.96 92.8123 374.944 94.3483 372.432ZM83.2603 379.168C83.1483 378.912 82.8443 378.496 82.6683 378.304C82.9403 378.112 83.4843 377.616 83.4843 376.88V369.584H84.5723V377.744C84.5723 377.744 83.2603 378.72 83.2603 379.168ZM100.668 364.48L101.916 364.832C100.908 367.328 99.3403 369.696 97.7083 371.232C97.4683 371.008 96.9563 370.576 96.6363 370.384C98.3003 368.992 99.7723 366.768 100.668 364.48ZM100.476 366.4H109.5V367.536H99.9003L100.476 366.4ZM109.116 366.4H110.316C110.316 366.4 110.316 366.8 110.316 366.976C110.156 372.368 109.996 374.272 109.532 374.864C109.244 375.232 108.924 375.36 108.444 375.408C107.996 375.456 107.196 375.44 106.332 375.408C106.316 375.056 106.188 374.576 105.996 374.256C106.812 374.336 107.58 374.352 107.884 374.352C108.14 374.352 108.316 374.304 108.444 374.128C108.812 373.712 108.972 371.872 109.116 366.64V366.4ZM99.6283 373.056H104.604V370.32H99.2923V369.248H105.804V374.128H99.6283V373.056ZM99.0523 373.056H100.252V377.168C100.252 377.824 100.572 377.968 102.3 377.968C103.116 377.968 107.26 377.968 108.332 377.968C109.788 377.968 110.028 377.648 110.172 375.808C110.476 375.984 110.988 376.176 111.324 376.24C111.084 378.544 110.62 379.104 108.348 379.104C107.756 379.104 102.924 379.104 102.364 379.104C99.8043 379.104 99.0523 378.752 99.0523 377.168V373.056Z" fill="#1C1C1C"/>
<rect x="121" y="360" width="52" height="24" rx="4" fill="#EDEEF3"/>
<path d="M134.58 366.844H139.824V367.684H134.58V366.844ZM134.064 369.712H140.46V370.552H134.064V369.712ZM136.62 370.12H137.532V375.808C137.532 376.324 137.436 376.588 137.088 376.744C136.728 376.9 136.176 376.912 135.336 376.912C135.3 376.648 135.18 376.264 135.06 375.988C135.672 376.012 136.236 376.012 136.404 376C136.572 375.988 136.62 375.952 136.62 375.796V370.12ZM138.348 372.112L139.116 371.872C139.692 373.036 140.28 374.56 140.484 375.508L139.656 375.808C139.464 374.86 138.912 373.3 138.348 372.112ZM134.892 371.896L135.708 372.088C135.348 373.468 134.736 374.872 134.088 375.796C133.932 375.664 133.56 375.424 133.368 375.316C134.028 374.464 134.568 373.168 134.892 371.896ZM129.588 368.464H133.884V369.316H129.588V368.464ZM131.424 365.92H132.312V376.948H131.424V365.92ZM131.304 368.968L131.916 369.16C131.52 370.936 130.68 373.144 129.78 374.272C129.684 374.032 129.444 373.648 129.276 373.432C130.116 372.448 130.944 370.528 131.304 368.968ZM132.252 369.568C132.54 369.88 133.692 371.344 133.944 371.68L133.404 372.4C133.104 371.824 132.156 370.42 131.796 369.976L132.252 369.568ZM146.184 370.672H151.944V371.488H146.184V370.672ZM146.184 373.096H151.944V373.9H146.184V373.096ZM146.22 375.544H152.508V376.396H146.22V375.544ZM148.716 368.572H149.58V376.048H148.716V368.572ZM149.616 365.98L150.528 366.232C150.204 367.12 149.808 368.176 149.484 368.848L148.752 368.596C149.064 367.9 149.424 366.76 149.616 365.98ZM146.7 365.92L147.576 366.16C146.904 368.14 145.836 370.072 144.672 371.32C144.528 371.14 144.204 370.78 144 370.624C145.14 369.496 146.112 367.732 146.7 365.92ZM146.592 368.296H152.232V369.112H146.592V376.96H145.74V368.992L146.412 368.296H146.592ZM141.78 367.288L142.356 366.664C143.124 367.156 144.084 367.876 144.528 368.392L143.928 369.1C143.496 368.572 142.56 367.804 141.78 367.288ZM141.432 375.436C142.068 374.596 143.004 373.192 143.724 371.956L144.384 372.544C143.724 373.696 142.896 375.028 142.188 376.036L141.432 375.436ZM159.264 366.46H164.28V367.288H159.264V366.46ZM154.608 369.244H158.256V370.048H154.608V369.244ZM159.288 369.568H163.572V370.408H159.288V369.568ZM156.372 365.896H157.2V369.724H156.372V365.896ZM158.808 366.46H159.66V369.916C159.66 371.956 159.504 374.932 158.412 376.948C158.256 376.804 157.884 376.588 157.668 376.516C158.724 374.572 158.808 371.848 158.808 369.916V366.46ZM154.644 371.8H157.536V376.948H156.696V372.604H154.644V371.8ZM154.248 366.172H155.064V370.924C155.064 373.024 154.932 375.316 153.936 376.984C153.804 376.816 153.504 376.564 153.3 376.444C154.14 374.908 154.248 372.76 154.248 370.936V366.172ZM163.308 369.568H163.464L163.62 369.544L164.172 369.712C163.608 373.432 161.952 375.772 159.792 376.96C159.672 376.744 159.42 376.408 159.228 376.228C161.196 375.256 162.816 372.964 163.308 369.748V369.568ZM160.536 370.096C161.136 372.964 162.42 375.268 164.664 376.24C164.472 376.408 164.196 376.744 164.04 376.984C161.724 375.832 160.464 373.408 159.804 370.276L160.536 370.096Z" fill="#363F72"/>
<path fill-rule="evenodd" clip-rule="evenodd" d="M358 378L358 366L370 366L370 378L358 378Z" fill="white" fill-opacity="0.01"/>
<path fill-rule="evenodd" clip-rule="evenodd" d="M367.871 370.581C368.343 369.919 367.87 369 367.057 369L360.943 369C360.13 369 359.657 369.919 360.129 370.581L363.186 374.861C363.585 375.419 364.415 375.419 364.814 374.861L367.871 370.581Z" fill="#73798B"/>
<mask id="path-52-inside-8_3885_3645" fill="white">
<path d="M24 396H296V444H24V396Z"/>
</mask>
<path d="M24 396H296V444H24V396Z" fill="#F8F9FC"/>
<path d="M296 443H24V445H296V443Z" fill="#EDEEF3" mask="url(#path-52-inside-8_3885_3645)"/>
<path d="M43.12 420.688H52.976V427.248H51.744V421.68H44.288V427.28H43.12V420.688ZM43.792 423.184H52.192V424.112H43.792V423.184ZM42.512 413.888H47.616V414.864H42.512V413.888ZM40.784 416.4H48.032V417.376H40.784V416.4ZM43.792 425.696H52.192V426.688H43.792V425.696ZM44.112 414.24H45.264V415.824C45.264 417.376 44.8 419.52 41.408 421.04C41.248 420.8 40.912 420.416 40.64 420.224C43.872 418.944 44.112 417.072 44.112 415.808V414.24ZM42.592 412.512L43.68 412.736C43.264 414.112 42.528 415.44 41.744 416.32C41.536 416.16 41.056 415.856 40.784 415.744C41.6 414.928 42.24 413.728 42.592 412.512ZM44.912 417.616C45.488 417.92 47.44 419.104 47.904 419.424L47.072 420.256C46.48 419.76 44.816 418.576 44.128 418.144L44.912 417.616ZM49.824 414.944V418.352H53.152V414.944H49.824ZM48.704 413.872H54.336V419.456H48.704V413.872ZM59.312 412.56L60.56 412.848C59.984 414.176 59.232 415.728 58.592 416.736L57.568 416.432C58.176 415.408 58.928 413.728 59.312 412.56ZM56.624 415.952C58.304 415.904 60.848 415.792 63.36 415.68L63.344 416.752C60.96 416.896 58.48 417.024 56.736 417.12L56.624 415.952ZM57.6 418.272H62.672V419.296H58.72V427.264H57.6V418.272ZM62.128 418.272H63.312V425.904C63.312 426.512 63.184 426.848 62.752 427.04C62.304 427.232 61.6 427.248 60.592 427.248C60.528 426.928 60.352 426.448 60.192 426.144C60.944 426.176 61.632 426.16 61.856 426.144C62.064 426.144 62.128 426.096 62.128 425.888V418.272ZM58.128 420.656H62.752V421.6H58.128V420.656ZM58.128 423.056H62.752V424.016H58.128V423.056ZM64.816 412.592H66V417.888C66 418.4 66.128 418.512 66.864 418.512C67.2 418.512 68.944 418.512 69.408 418.512C70.032 418.512 70.144 418.24 70.208 416.656C70.464 416.864 70.944 417.04 71.296 417.12C71.152 419.072 70.8 419.6 69.504 419.6C69.168 419.6 67.072 419.6 66.752 419.6C65.216 419.6 64.816 419.232 64.816 417.904V412.592ZM69.712 413.776L70.512 414.656C69.152 415.296 67.232 415.92 65.584 416.384C65.52 416.128 65.36 415.776 65.216 415.536C66.8 415.04 68.624 414.336 69.712 413.776ZM64.816 420.032H66V425.44C66 425.984 66.144 426.08 66.912 426.08C67.248 426.08 69.056 426.08 69.536 426.08C70.224 426.08 70.32 425.776 70.4 423.968C70.672 424.16 71.152 424.352 71.488 424.416C71.328 426.576 70.976 427.152 69.632 427.152C69.28 427.152 67.12 427.152 66.784 427.152C65.232 427.152 64.816 426.784 64.816 425.456V420.032ZM69.904 420.912L70.704 421.808C69.36 422.576 67.312 423.232 65.584 423.696C65.52 423.456 65.344 423.072 65.216 422.832C66.88 422.352 68.816 421.616 69.904 420.912ZM61.312 414.08L62.304 413.68C63.152 414.8 64.048 416.272 64.416 417.264L63.36 417.728C63.024 416.752 62.16 415.216 61.312 414.08ZM75.968 417.792H84.048V418.864H75.968V417.792ZM75.68 425.568H84.256V426.64H75.68V425.568ZM75.136 420.88H84.928V427.296H83.712V421.968H76.304V427.296H75.136V420.88ZM79.952 413.792C78.64 415.744 76.016 418.016 73.28 419.504C73.12 419.232 72.8 418.8 72.528 418.544C75.344 417.12 78.016 414.672 79.28 412.608H80.496C82.224 414.992 85.024 417.216 87.584 418.352C87.28 418.64 86.992 419.056 86.784 419.408C84.272 418.096 81.456 415.84 79.952 413.792ZM89.072 423.072C89.008 422.832 88.832 422.272 88.704 421.984C89.056 421.904 89.456 421.504 89.968 420.928C90.528 420.368 92.32 418.128 93.52 415.968L94.512 416.576C93.152 418.752 91.488 420.896 89.856 422.448V422.464C89.856 422.464 89.072 422.816 89.072 423.072ZM89.072 423.072L89.024 422.08L89.648 421.68L94.56 420.96C94.544 421.28 94.56 421.728 94.592 421.984C90.032 422.736 89.44 422.864 89.072 423.072ZM88.96 419.216C88.896 418.976 88.704 418.4 88.56 418.08C88.864 418.016 89.168 417.648 89.536 417.12C89.92 416.576 91.184 414.544 91.92 412.624L93.056 413.104C92.128 415.088 90.912 417.136 89.744 418.56V418.592C89.744 418.592 88.96 418.976 88.96 419.216ZM88.96 419.216L88.944 418.352L89.52 418L93.008 417.68C92.96 417.968 92.912 418.416 92.928 418.64C89.728 418.992 89.248 419.072 88.96 419.216ZM88.624 425.168C90.16 424.928 92.496 424.48 94.752 424.048L94.832 425.104C92.688 425.552 90.464 426 88.816 426.32L88.624 425.168ZM96.368 415.504H102.08V416.624H96.368V415.504ZM101.6 415.504H102.752C102.752 415.504 102.752 415.968 102.752 416.128C102.528 423.344 102.336 425.776 101.728 426.528C101.376 426.992 101.024 427.136 100.464 427.184C99.936 427.232 99.008 427.216 98.128 427.168C98.112 426.832 97.952 426.336 97.744 426.016C98.752 426.096 99.664 426.096 100.032 426.096C100.336 426.112 100.512 426.064 100.688 425.856C101.184 425.296 101.424 422.704 101.6 415.776V415.504ZM97.04 412.576L98.208 412.8C97.584 415.168 96.64 417.472 95.536 418.992C95.328 418.816 94.816 418.464 94.544 418.32C95.648 416.928 96.528 414.752 97.04 412.576ZM95.952 419.376L96.784 418.704C97.968 419.696 99.344 421.12 99.936 422.112L99.056 422.864C98.464 421.888 97.136 420.416 95.952 419.376ZM106.896 412.608L107.984 412.928C107.36 414.688 106.32 416.448 105.168 417.6C105.072 417.36 104.752 416.752 104.544 416.48C105.52 415.536 106.4 414.112 106.896 412.608ZM106.576 414.368H110.4V415.52H106.336L106.576 414.368ZM107.104 427.168L106.928 426.064L107.328 425.584L110.528 423.744C110.576 424.064 110.704 424.528 110.816 424.768C107.808 426.576 107.376 426.864 107.104 427.168ZM105.76 417.248H110.176V418.336H105.76V417.248ZM104.992 420.512H110.608V421.6H104.992V420.512ZM111.104 416.416L118.464 415.312L118.656 416.368L111.312 417.488L111.104 416.416ZM110.784 419.856L118.896 418.336L119.104 419.392L110.976 420.928L110.784 419.856ZM113.424 412.544H114.576C114.528 420.096 115.76 426.08 117.808 426.096C118.24 426.096 118.4 425.712 118.464 424.304C118.704 424.544 119.088 424.8 119.36 424.912C119.136 426.688 118.768 427.216 117.696 427.216C114.544 427.216 113.488 420.368 113.424 412.544ZM115.2 413.52L115.888 412.864C116.688 413.216 117.696 413.792 118.208 414.224L117.504 414.976C116.992 414.528 116 413.904 115.2 413.52ZM118.192 420.432L119.184 420.88C117.536 423.616 114.624 425.776 111.328 427.008C111.152 426.72 110.864 426.304 110.592 426.048C113.792 424.96 116.656 422.944 118.192 420.432ZM107.104 427.168C106.992 426.912 106.688 426.496 106.512 426.304C106.784 426.112 107.328 425.616 107.328 424.88V417.584H108.416V425.744C108.416 425.744 107.104 426.72 107.104 427.168ZM124.512 412.48L125.76 412.832C124.752 415.328 123.184 417.696 121.552 419.232C121.312 419.008 120.8 418.576 120.48 418.384C122.144 416.992 123.616 414.768 124.512 412.48ZM124.32 414.4H133.344V415.536H123.744L124.32 414.4ZM132.96 414.4H134.16C134.16 414.4 134.16 414.8 134.16 414.976C134 420.368 133.84 422.272 133.376 422.864C133.088 423.232 132.768 423.36 132.288 423.408C131.84 423.456 131.04 423.44 130.176 423.408C130.16 423.056 130.032 422.576 129.84 422.256C130.656 422.336 131.424 422.352 131.728 422.352C131.984 422.352 132.16 422.304 132.288 422.128C132.656 421.712 132.816 419.872 132.96 414.64V414.4ZM123.472 421.056H128.448V418.32H123.136V417.248H129.648V422.128H123.472V421.056ZM122.896 421.056H124.096V425.168C124.096 425.824 124.416 425.968 126.144 425.968C126.96 425.968 131.104 425.968 132.176 425.968C133.632 425.968 133.872 425.648 134.016 423.808C134.32 423.984 134.832 424.176 135.168 424.24C134.928 426.544 134.464 427.104 132.192 427.104C131.6 427.104 126.768 427.104 126.208 427.104C123.648 427.104 122.896 426.752 122.896 425.168V421.056Z" fill="#1C1C1C"/>
<rect x="144" y="408" width="52" height="24" rx="4" fill="#EDEEF3"/>
<path d="M157.58 414.844H162.824V415.684H157.58V414.844ZM157.064 417.712H163.46V418.552H157.064V417.712ZM159.62 418.12H160.532V423.808C160.532 424.324 160.436 424.588 160.088 424.744C159.728 424.9 159.176 424.912 158.336 424.912C158.3 424.648 158.18 424.264 158.06 423.988C158.672 424.012 159.236 424.012 159.404 424C159.572 423.988 159.62 423.952 159.62 423.796V418.12ZM161.348 420.112L162.116 419.872C162.692 421.036 163.28 422.56 163.484 423.508L162.656 423.808C162.464 422.86 161.912 421.3 161.348 420.112ZM157.892 419.896L158.708 420.088C158.348 421.468 157.736 422.872 157.088 423.796C156.932 423.664 156.56 423.424 156.368 423.316C157.028 422.464 157.568 421.168 157.892 419.896ZM152.588 416.464H156.884V417.316H152.588V416.464ZM154.424 413.92H155.312V424.948H154.424V413.92ZM154.304 416.968L154.916 417.16C154.52 418.936 153.68 421.144 152.78 422.272C152.684 422.032 152.444 421.648 152.276 421.432C153.116 420.448 153.944 418.528 154.304 416.968ZM155.252 417.568C155.54 417.88 156.692 419.344 156.944 419.68L156.404 420.4C156.104 419.824 155.156 418.42 154.796 417.976L155.252 417.568ZM169.184 418.672H174.944V419.488H169.184V418.672ZM169.184 421.096H174.944V421.9H169.184V421.096ZM169.22 423.544H175.508V424.396H169.22V423.544ZM171.716 416.572H172.58V424.048H171.716V416.572ZM172.616 413.98L173.528 414.232C173.204 415.12 172.808 416.176 172.484 416.848L171.752 416.596C172.064 415.9 172.424 414.76 172.616 413.98ZM169.7 413.92L170.576 414.16C169.904 416.14 168.836 418.072 167.672 419.32C167.528 419.14 167.204 418.78 167 418.624C168.14 417.496 169.112 415.732 169.7 413.92ZM169.592 416.296H175.232V417.112H169.592V424.96H168.74V416.992L169.412 416.296H169.592ZM164.78 415.288L165.356 414.664C166.124 415.156 167.084 415.876 167.528 416.392L166.928 417.1C166.496 416.572 165.56 415.804 164.78 415.288ZM164.432 423.436C165.068 422.596 166.004 421.192 166.724 419.956L167.384 420.544C166.724 421.696 165.896 423.028 165.188 424.036L164.432 423.436ZM182.264 414.46H187.28V415.288H182.264V414.46ZM177.608 417.244H181.256V418.048H177.608V417.244ZM182.288 417.568H186.572V418.408H182.288V417.568ZM179.372 413.896H180.2V417.724H179.372V413.896ZM181.808 414.46H182.66V417.916C182.66 419.956 182.504 422.932 181.412 424.948C181.256 424.804 180.884 424.588 180.668 424.516C181.724 422.572 181.808 419.848 181.808 417.916V414.46ZM177.644 419.8H180.536V424.948H179.696V420.604H177.644V419.8ZM177.248 414.172H178.064V418.924C178.064 421.024 177.932 423.316 176.936 424.984C176.804 424.816 176.504 424.564 176.3 424.444C177.14 422.908 177.248 420.76 177.248 418.936V414.172ZM186.308 417.568H186.464L186.62 417.544L187.172 417.712C186.608 421.432 184.952 423.772 182.792 424.96C182.672 424.744 182.42 424.408 182.228 424.228C184.196 423.256 185.816 420.964 186.308 417.748V417.568ZM183.536 418.096C184.136 420.964 185.42 423.268 187.664 424.24C187.472 424.408 187.196 424.744 187.04 424.984C184.724 423.832 183.464 421.408 182.804 418.276L183.536 418.096Z" fill="#363F72"/>
<path fill-rule="evenodd" clip-rule="evenodd" d="M268 426L268 414L280 414L280 426L268 426Z" fill="white" fill-opacity="0.01"/>
<path fill-rule="evenodd" clip-rule="evenodd" d="M277.871 418.581C278.343 417.919 277.87 417 277.057 417L270.943 417C270.13 417 269.657 417.919 270.129 418.581L273.186 422.861C273.585 423.419 274.415 423.419 274.814 422.861L277.871 418.581Z" fill="#73798B"/>
</g>
<rect x="24.5" y="76.5" width="377" height="415" rx="9.5" stroke="#EDEEF3"/>
<rect x="418" y="60" width="4" height="180" rx="2" fill="#B9BCC5"/>
</g>
<rect x="0.5" y="0.5" width="425" height="427" rx="9.5" stroke="#EDEEF3"/>
<defs>
<clipPath id="clip0_3885_3645">
<rect width="426" height="428" rx="10" fill="white"/>
</clipPath>
<clipPath id="clip1_3885_3645">
<rect x="24" y="76" width="378" height="416" rx="10" fill="white"/>
</clipPath>
</defs>
</svg>
