<svg width="878" height="428" viewBox="0 0 878 428" fill="none" xmlns="http://www.w3.org/2000/svg">
<g clip-path="url(#clip0_2650_10628)">
<mask id="path-3-inside-1_2650_10628" fill="white">
<path d="M0 0H878V52H0V0Z"/>
</mask>
<path d="M0 0H878V52H0V0Z" fill="#F8F9FC"/>
<path d="M878 51H0V53H878V51Z" fill="#EDEEF3" mask="url(#path-3-inside-1_2650_10628)"/>
<path d="M34.098 23.216C34.098 23.852 33.948 24.452 33.648 25.016C33.348 25.58 32.868 26.042 32.208 26.402C31.548 26.75 30.702 26.924 29.67 26.924H27.402V32H25.35V19.49H29.67C30.63 19.49 31.44 19.658 32.1 19.994C32.772 20.318 33.27 20.762 33.594 21.326C33.93 21.89 34.098 22.52 34.098 23.216ZM29.67 25.25C30.45 25.25 31.032 25.076 31.416 24.728C31.8 24.368 31.992 23.864 31.992 23.216C31.992 21.848 31.218 21.164 29.67 21.164H27.402V25.25H29.67ZM40.3571 32.162C39.4211 32.162 38.5751 31.952 37.8191 31.532C37.0631 31.1 36.4691 30.5 36.0371 29.732C35.6051 28.952 35.3891 28.052 35.3891 27.032C35.3891 26.024 35.6111 25.13 36.0551 24.35C36.4991 23.57 37.1051 22.97 37.8731 22.55C38.6411 22.13 39.4991 21.92 40.4471 21.92C41.3951 21.92 42.2531 22.13 43.0211 22.55C43.7891 22.97 44.3951 23.57 44.8391 24.35C45.2831 25.13 45.5051 26.024 45.5051 27.032C45.5051 28.04 45.2771 28.934 44.8211 29.714C44.3651 30.494 43.7411 31.1 42.9491 31.532C42.1691 31.952 41.3051 32.162 40.3571 32.162ZM40.3571 30.38C40.8851 30.38 41.3771 30.254 41.8331 30.002C42.3011 29.75 42.6791 29.372 42.9671 28.868C43.2551 28.364 43.3991 27.752 43.3991 27.032C43.3991 26.312 43.2611 25.706 42.9851 25.214C42.7091 24.71 42.3431 24.332 41.8871 24.08C41.4311 23.828 40.9391 23.702 40.4111 23.702C39.8831 23.702 39.3911 23.828 38.9351 24.08C38.4911 24.332 38.1371 24.71 37.8731 25.214C37.6091 25.706 37.4771 26.312 37.4771 27.032C37.4771 28.1 37.7471 28.928 38.2871 29.516C38.8391 30.092 39.5291 30.38 40.3571 30.38ZM49.5856 23.522C49.8856 23.018 50.2816 22.628 50.7736 22.352C51.2776 22.064 51.8716 21.92 52.5556 21.92V24.044H52.0336C51.2296 24.044 50.6176 24.248 50.1976 24.656C49.7896 25.064 49.5856 25.772 49.5856 26.78V32H47.5336V22.082H49.5856V23.522ZM56.8358 23.756V29.246C56.8358 29.618 56.9198 29.888 57.0878 30.056C57.2678 30.212 57.5678 30.29 57.9878 30.29H59.2478V32H57.6278C56.7038 32 55.9958 31.784 55.5038 31.352C55.0118 30.92 54.7658 30.218 54.7658 29.246V23.756H53.5958V22.082H54.7658V19.616H56.8358V22.082H59.2478V23.756H56.8358ZM65.2971 23.756H63.4611V32H61.3911V23.756H60.2211V22.082H61.3911V21.38C61.3911 20.24 61.6911 19.412 62.2911 18.896C62.9031 18.368 63.8571 18.104 65.1531 18.104V19.814C64.5291 19.814 64.0911 19.934 63.8391 20.174C63.5871 20.402 63.4611 20.804 63.4611 21.38V22.082H65.2971V23.756ZM71.4176 32.162C70.4816 32.162 69.6356 31.952 68.8796 31.532C68.1236 31.1 67.5296 30.5 67.0976 29.732C66.6656 28.952 66.4496 28.052 66.4496 27.032C66.4496 26.024 66.6716 25.13 67.1156 24.35C67.5596 23.57 68.1656 22.97 68.9336 22.55C69.7016 22.13 70.5596 21.92 71.5076 21.92C72.4556 21.92 73.3136 22.13 74.0816 22.55C74.8496 22.97 75.4556 23.57 75.8996 24.35C76.3436 25.13 76.5656 26.024 76.5656 27.032C76.5656 28.04 76.3376 28.934 75.8816 29.714C75.4256 30.494 74.8016 31.1 74.0096 31.532C73.2296 31.952 72.3656 32.162 71.4176 32.162ZM71.4176 30.38C71.9456 30.38 72.4376 30.254 72.8936 30.002C73.3616 29.75 73.7396 29.372 74.0276 28.868C74.3156 28.364 74.4596 27.752 74.4596 27.032C74.4596 26.312 74.3216 25.706 74.0456 25.214C73.7696 24.71 73.4036 24.332 72.9476 24.08C72.4916 23.828 71.9996 23.702 71.4716 23.702C70.9436 23.702 70.4516 23.828 69.9956 24.08C69.5516 24.332 69.1976 24.71 68.9336 25.214C68.6696 25.706 68.5376 26.312 68.5376 27.032C68.5376 28.1 68.8076 28.928 69.3476 29.516C69.8996 30.092 70.5896 30.38 71.4176 30.38ZM80.6461 18.68V32H78.5941V18.68H80.6461ZM84.3842 20.768C84.0122 20.768 83.7002 20.642 83.4482 20.39C83.1962 20.138 83.0702 19.826 83.0702 19.454C83.0702 19.082 83.1962 18.77 83.4482 18.518C83.7002 18.266 84.0122 18.14 84.3842 18.14C84.7442 18.14 85.0502 18.266 85.3022 18.518C85.5542 18.77 85.6802 19.082 85.6802 19.454C85.6802 19.826 85.5542 20.138 85.3022 20.39C85.0502 20.642 84.7442 20.768 84.3842 20.768ZM85.3922 22.082V32H83.3402V22.082H85.3922ZM92.3883 32.162C91.4523 32.162 90.6063 31.952 89.8503 31.532C89.0943 31.1 88.5003 30.5 88.0683 29.732C87.6363 28.952 87.4203 28.052 87.4203 27.032C87.4203 26.024 87.6423 25.13 88.0863 24.35C88.5303 23.57 89.1363 22.97 89.9043 22.55C90.6723 22.13 91.5303 21.92 92.4783 21.92C93.4263 21.92 94.2843 22.13 95.0523 22.55C95.8203 22.97 96.4263 23.57 96.8703 24.35C97.3143 25.13 97.5363 26.024 97.5363 27.032C97.5363 28.04 97.3083 28.934 96.8523 29.714C96.3963 30.494 95.7723 31.1 94.9803 31.532C94.2003 31.952 93.3363 32.162 92.3883 32.162ZM92.3883 30.38C92.9163 30.38 93.4083 30.254 93.8643 30.002C94.3323 29.75 94.7103 29.372 94.9983 28.868C95.2863 28.364 95.4303 27.752 95.4303 27.032C95.4303 26.312 95.2923 25.706 95.0163 25.214C94.7403 24.71 94.3743 24.332 93.9183 24.08C93.4623 23.828 92.9703 23.702 92.4423 23.702C91.9143 23.702 91.4223 23.828 90.9663 24.08C90.5223 24.332 90.1683 24.71 89.9043 25.214C89.6403 25.706 89.5083 26.312 89.5083 27.032C89.5083 28.1 89.7783 28.928 90.3183 29.516C90.8703 30.092 91.5603 30.38 92.3883 30.38Z" fill="#1C1C1C"/>
<rect width="878" height="376" transform="translate(0 52)" fill="white"/>
<mask id="path-6-inside-2_2650_10628" fill="white">
<path d="M24 76H110V116H24V76Z"/>
</mask>
<path d="M110 114H24V118H110V114Z" fill="#1F32D6" mask="url(#path-6-inside-2_2650_10628)"/>
<path d="M47.952 99.872H43.504L42.768 102H40.416L44.432 90.816H47.04L51.056 102H48.688L47.952 99.872ZM47.344 98.08L45.728 93.408L44.112 98.08H47.344ZM55.9491 102.144C55.2238 102.144 54.5731 102.016 53.9971 101.76C53.4211 101.493 52.9625 101.136 52.6211 100.688C52.2905 100.24 52.1091 99.744 52.0771 99.2H54.3331C54.3758 99.5413 54.5411 99.824 54.8291 100.048C55.1278 100.272 55.4958 100.384 55.9331 100.384C56.3598 100.384 56.6905 100.299 56.9251 100.128C57.1705 99.9573 57.2931 99.7387 57.2931 99.472C57.2931 99.184 57.1438 98.9707 56.8451 98.832C56.5571 98.6827 56.0931 98.5227 55.4531 98.352C54.7918 98.192 54.2478 98.0267 53.8211 97.856C53.4051 97.6853 53.0425 97.424 52.7331 97.072C52.4345 96.72 52.2851 96.2453 52.2851 95.648C52.2851 95.1573 52.4238 94.7093 52.7011 94.304C52.9891 93.8987 53.3945 93.5787 53.9171 93.344C54.4505 93.1093 55.0745 92.992 55.7891 92.992C56.8451 92.992 57.6878 93.2587 58.3171 93.792C58.9465 94.3147 59.2931 95.024 59.3571 95.92H57.2131C57.1811 95.568 57.0318 95.2907 56.7651 95.088C56.5091 94.8747 56.1625 94.768 55.7251 94.768C55.3198 94.768 55.0051 94.8427 54.7811 94.992C54.5678 95.1413 54.4611 95.3493 54.4611 95.616C54.4611 95.9147 54.6105 96.144 54.9091 96.304C55.2078 96.4533 55.6718 96.608 56.3011 96.768C56.9411 96.928 57.4691 97.0933 57.8851 97.264C58.3011 97.4347 58.6585 97.7013 58.9571 98.064C59.2665 98.416 59.4265 98.8853 59.4371 99.472C59.4371 99.984 59.2931 100.443 59.0051 100.848C58.7278 101.253 58.3225 101.573 57.7891 101.808C57.2665 102.032 56.6531 102.144 55.9491 102.144ZM64.6679 102.144C63.9425 102.144 63.2919 102.016 62.7159 101.76C62.1399 101.493 61.6812 101.136 61.3399 100.688C61.0092 100.24 60.8279 99.744 60.7959 99.2H63.0519C63.0945 99.5413 63.2599 99.824 63.5479 100.048C63.8465 100.272 64.2145 100.384 64.6519 100.384C65.0785 100.384 65.4092 100.299 65.6439 100.128C65.8892 99.9573 66.0119 99.7387 66.0119 99.472C66.0119 99.184 65.8625 98.9707 65.5639 98.832C65.2759 98.6827 64.8119 98.5227 64.1719 98.352C63.5105 98.192 62.9665 98.0267 62.5399 97.856C62.1239 97.6853 61.7612 97.424 61.4519 97.072C61.1532 96.72 61.0039 96.2453 61.0039 95.648C61.0039 95.1573 61.1425 94.7093 61.4199 94.304C61.7079 93.8987 62.1132 93.5787 62.6359 93.344C63.1692 93.1093 63.7932 92.992 64.5079 92.992C65.5639 92.992 66.4065 93.2587 67.0359 93.792C67.6652 94.3147 68.0119 95.024 68.0759 95.92H65.9319C65.8999 95.568 65.7505 95.2907 65.4839 95.088C65.2279 94.8747 64.8812 94.768 64.4439 94.768C64.0385 94.768 63.7239 94.8427 63.4999 94.992C63.2865 95.1413 63.1799 95.3493 63.1799 95.616C63.1799 95.9147 63.3292 96.144 63.6279 96.304C63.9265 96.4533 64.3905 96.608 65.0199 96.768C65.6599 96.928 66.1879 97.0933 66.6039 97.264C67.0199 97.4347 67.3772 97.7013 67.6759 98.064C67.9852 98.416 68.1452 98.8853 68.1559 99.472C68.1559 99.984 68.0119 100.443 67.7239 100.848C67.4465 101.253 67.0412 101.573 66.5079 101.808C65.9852 102.032 65.3719 102.144 64.6679 102.144ZM78.2346 97.376C78.2346 97.696 78.2133 97.984 78.1706 98.24H71.6906C71.744 98.88 71.968 99.3813 72.3626 99.744C72.7573 100.107 73.2426 100.288 73.8186 100.288C74.6506 100.288 75.2426 99.9307 75.5946 99.216H78.0106C77.7546 100.069 77.264 100.773 76.5386 101.328C75.8133 101.872 74.9226 102.144 73.8666 102.144C73.0133 102.144 72.2453 101.957 71.5626 101.584C70.8906 101.2 70.3626 100.661 69.9786 99.968C69.6053 99.2747 69.4186 98.4747 69.4186 97.568C69.4186 96.6507 69.6053 95.8453 69.9786 95.152C70.352 94.4587 70.8746 93.9253 71.5466 93.552C72.2186 93.1787 72.992 92.992 73.8666 92.992C74.7093 92.992 75.4613 93.1733 76.1226 93.536C76.7946 93.8987 77.312 94.416 77.6746 95.088C78.048 95.7493 78.2346 96.512 78.2346 97.376ZM75.9146 96.736C75.904 96.16 75.696 95.7013 75.2906 95.36C74.8853 95.008 74.3893 94.832 73.8026 94.832C73.248 94.832 72.7786 95.0027 72.3946 95.344C72.0213 95.6747 71.792 96.1387 71.7066 96.736H75.9146ZM82.4776 94.976V99.264C82.4776 99.5627 82.547 99.7813 82.6856 99.92C82.835 100.048 83.0803 100.112 83.4216 100.112H84.4616V102H83.0536C81.1656 102 80.2216 101.083 80.2216 99.248V94.976H79.1656V93.136H80.2216V90.944H82.4776V93.136H84.4616V94.976H82.4776ZM89.4648 102.144C88.7394 102.144 88.0888 102.016 87.5128 101.76C86.9368 101.493 86.4781 101.136 86.1368 100.688C85.8061 100.24 85.6248 99.744 85.5928 99.2H87.8488C87.8914 99.5413 88.0568 99.824 88.3448 100.048C88.6434 100.272 89.0114 100.384 89.4488 100.384C89.8754 100.384 90.2061 100.299 90.4408 100.128C90.6861 99.9573 90.8088 99.7387 90.8088 99.472C90.8088 99.184 90.6594 98.9707 90.3608 98.832C90.0728 98.6827 89.6088 98.5227 88.9688 98.352C88.3074 98.192 87.7634 98.0267 87.3368 97.856C86.9208 97.6853 86.5581 97.424 86.2488 97.072C85.9501 96.72 85.8008 96.2453 85.8008 95.648C85.8008 95.1573 85.9394 94.7093 86.2168 94.304C86.5048 93.8987 86.9101 93.5787 87.4328 93.344C87.9661 93.1093 88.5901 92.992 89.3048 92.992C90.3608 92.992 91.2034 93.2587 91.8328 93.792C92.4621 94.3147 92.8088 95.024 92.8728 95.92H90.7288C90.6968 95.568 90.5474 95.2907 90.2808 95.088C90.0248 94.8747 89.6781 94.768 89.2408 94.768C88.8354 94.768 88.5208 94.8427 88.2968 94.992C88.0834 95.1413 87.9768 95.3493 87.9768 95.616C87.9768 95.9147 88.1261 96.144 88.4248 96.304C88.7234 96.4533 89.1874 96.608 89.8168 96.768C90.4568 96.928 90.9848 97.0933 91.4008 97.264C91.8168 97.4347 92.1741 97.7013 92.4728 98.064C92.7821 98.416 92.9421 98.8853 92.9528 99.472C92.9528 99.984 92.8088 100.443 92.5208 100.848C92.2434 101.253 91.8381 101.573 91.3048 101.808C90.7821 102.032 90.1688 102.144 89.4648 102.144Z" fill="#1C1C1C"/>
<path d="M165.68 90.88L162.384 102H160.32L157.984 93.584L155.504 102L153.456 102.016L150.304 90.88H152.24L154.544 99.936L157.04 90.88H159.088L161.408 99.888L163.728 90.88H165.68ZM166.576 97.552C166.576 96.6667 166.758 95.8827 167.12 95.2C167.494 94.5173 167.995 93.9893 168.624 93.616C169.264 93.232 169.968 93.04 170.736 93.04C171.43 93.04 172.032 93.1787 172.544 93.456C173.067 93.7227 173.483 94.0587 173.792 94.464V93.184H175.632V102H173.792V100.688C173.483 101.104 173.062 101.451 172.528 101.728C171.995 102.005 171.387 102.144 170.704 102.144C169.947 102.144 169.254 101.952 168.624 101.568C167.995 101.173 167.494 100.629 167.12 99.936C166.758 99.232 166.576 98.4373 166.576 97.552ZM173.792 97.584C173.792 96.976 173.664 96.448 173.408 96C173.163 95.552 172.838 95.2107 172.432 94.976C172.027 94.7413 171.59 94.624 171.12 94.624C170.651 94.624 170.214 94.7413 169.808 94.976C169.403 95.2 169.072 95.536 168.816 95.984C168.571 96.4213 168.448 96.944 168.448 97.552C168.448 98.16 168.571 98.6933 168.816 99.152C169.072 99.6107 169.403 99.9627 169.808 100.208C170.224 100.443 170.662 100.56 171.12 100.56C171.59 100.56 172.027 100.443 172.432 100.208C172.838 99.9733 173.163 99.632 173.408 99.184C173.664 98.7253 173.792 98.192 173.792 97.584ZM179.852 90.16V102H178.028V90.16H179.852ZM184.071 90.16V102H182.247V90.16H184.071ZM194.546 97.376C194.546 97.7067 194.524 98.0053 194.482 98.272H187.746C187.799 98.976 188.06 99.5413 188.53 99.968C188.999 100.395 189.575 100.608 190.258 100.608C191.239 100.608 191.932 100.197 192.338 99.376H194.306C194.039 100.187 193.554 100.853 192.85 101.376C192.156 101.888 191.292 102.144 190.258 102.144C189.415 102.144 188.658 101.957 187.986 101.584C187.324 101.2 186.802 100.667 186.418 99.984C186.044 99.2907 185.858 98.4907 185.858 97.584C185.858 96.6773 186.039 95.8827 186.402 95.2C186.775 94.5067 187.292 93.9733 187.954 93.6C188.626 93.2267 189.394 93.04 190.258 93.04C191.09 93.04 191.831 93.2213 192.482 93.584C193.132 93.9467 193.639 94.4587 194.002 95.12C194.364 95.7707 194.546 96.5227 194.546 97.376ZM192.642 96.8C192.631 96.128 192.391 95.5893 191.922 95.184C191.452 94.7787 190.871 94.576 190.178 94.576C189.548 94.576 189.01 94.7787 188.562 95.184C188.114 95.5787 187.847 96.1173 187.762 96.8H192.642ZM198.469 94.672V99.552C198.469 99.8827 198.543 100.123 198.693 100.272C198.853 100.411 199.119 100.48 199.493 100.48H200.613V102H199.173C198.351 102 197.722 101.808 197.285 101.424C196.847 101.04 196.629 100.416 196.629 99.552V94.672H195.589V93.184H196.629V90.992H198.469V93.184H200.613V94.672H198.469ZM205.494 102.144C204.8 102.144 204.176 102.021 203.622 101.776C203.078 101.52 202.646 101.179 202.326 100.752C202.006 100.315 201.835 99.8293 201.814 99.296H203.702C203.734 99.6693 203.91 99.984 204.23 100.24C204.56 100.485 204.971 100.608 205.462 100.608C205.974 100.608 206.368 100.512 206.646 100.32C206.934 100.117 207.078 99.8613 207.078 99.552C207.078 99.2213 206.918 98.976 206.598 98.816C206.288 98.656 205.792 98.48 205.11 98.288C204.448 98.1067 203.91 97.9307 203.494 97.76C203.078 97.5893 202.715 97.328 202.406 96.976C202.107 96.624 201.958 96.16 201.958 95.584C201.958 95.1147 202.096 94.688 202.374 94.304C202.651 93.9093 203.046 93.6 203.558 93.376C204.08 93.152 204.678 93.04 205.35 93.04C206.352 93.04 207.158 93.296 207.766 93.808C208.384 94.3093 208.715 94.9973 208.758 95.872H206.934C206.902 95.4773 206.742 95.1627 206.454 94.928C206.166 94.6933 205.776 94.576 205.286 94.576C204.806 94.576 204.438 94.6667 204.182 94.848C203.926 95.0293 203.798 95.2693 203.798 95.568C203.798 95.8027 203.883 96 204.054 96.16C204.224 96.32 204.432 96.448 204.678 96.544C204.923 96.6293 205.286 96.7413 205.766 96.88C206.406 97.0507 206.928 97.2267 207.334 97.408C207.75 97.5787 208.107 97.8347 208.406 98.176C208.704 98.5173 208.859 98.9707 208.87 99.536C208.87 100.037 208.731 100.485 208.454 100.88C208.176 101.275 207.782 101.584 207.27 101.808C206.768 102.032 206.176 102.144 205.494 102.144Z" fill="#73798B"/>
<path d="M224 100.8C224.442 100.8 224.8 100.442 224.8 100C224.8 99.5584 224.442 99.2002 224 99.2002C223.558 99.2002 223.2 99.5584 223.2 100C223.2 100.442 223.558 100.8 224 100.8ZM224 91.2002C222.232 91.2002 220.8 92.6322 220.8 94.4002H222.4C222.4 93.5202 223.12 92.8002 224 92.8002C224.88 92.8002 225.6 93.5202 225.6 94.4002C225.6 96.0002 223.2 95.8002 223.2 98.4002H224.8C224.8 96.6002 227.2 96.4002 227.2 94.4002C227.2 92.6322 225.768 91.2002 224 91.2002Z" fill="#73798B"/>
<path fill-rule="evenodd" clip-rule="evenodd" d="M224 89.5C222.206 89.5 220.582 90.2272 219.405 91.4047C218.227 92.5822 217.5 94.2061 217.5 96C217.5 97.7939 218.227 99.4178 219.405 100.595C220.582 101.773 222.206 102.5 224 102.5C225.794 102.5 227.418 101.773 228.595 100.595C229.773 99.4178 230.5 97.7939 230.5 96C230.5 94.2061 229.773 92.5822 228.595 91.4047C227.418 90.2272 225.794 89.5 224 89.5ZM218.344 90.344C219.791 88.897 221.792 88 224 88C226.208 88 228.209 88.897 229.656 90.344C231.103 91.791 232 93.7919 232 96C232 98.2081 231.103 100.209 229.656 101.656C228.209 103.103 226.208 104 224 104C221.792 104 219.791 103.103 218.344 101.656C216.897 100.209 216 98.2081 216 96C216 93.7919 216.897 91.791 218.344 90.344Z" fill="#73798B"/>
<path d="M298.336 102H296.512L291.024 93.696V102H289.2V90.864H291.024L296.512 99.152V90.864H298.336V102ZM308.811 97.376C308.811 97.7067 308.79 98.0053 308.747 98.272H302.011C302.065 98.976 302.326 99.5413 302.795 99.968C303.265 100.395 303.841 100.608 304.523 100.608C305.505 100.608 306.198 100.197 306.603 99.376H308.571C308.305 100.187 307.819 100.853 307.115 101.376C306.422 101.888 305.558 102.144 304.523 102.144C303.681 102.144 302.923 101.957 302.251 101.584C301.59 101.2 301.067 100.667 300.683 99.984C300.31 99.2907 300.123 98.4907 300.123 97.584C300.123 96.6773 300.305 95.8827 300.667 95.2C301.041 94.5067 301.558 93.9733 302.219 93.6C302.891 93.2267 303.659 93.04 304.523 93.04C305.355 93.04 306.097 93.2213 306.747 93.584C307.398 93.9467 307.905 94.4587 308.267 95.12C308.63 95.7707 308.811 96.5227 308.811 97.376ZM306.907 96.8C306.897 96.128 306.657 95.5893 306.187 95.184C305.718 94.7787 305.137 94.576 304.443 94.576C303.814 94.576 303.275 94.7787 302.827 95.184C302.379 95.5787 302.113 96.1173 302.027 96.8H306.907ZM312.734 94.672V99.552C312.734 99.8827 312.809 100.123 312.958 100.272C313.118 100.411 313.385 100.48 313.758 100.48H314.878V102H313.438C312.617 102 311.988 101.808 311.55 101.424C311.113 101.04 310.894 100.416 310.894 99.552V94.672H309.854V93.184H310.894V90.992H312.734V93.184H314.878V94.672H312.734ZM328.399 93.184L325.663 102H323.743L321.967 95.488L320.191 102H318.271L315.519 93.184H317.375L319.215 100.272L321.087 93.184H322.991L324.783 100.24L326.607 93.184H328.399ZM333.587 102.144C332.755 102.144 332.003 101.957 331.331 101.584C330.659 101.2 330.131 100.667 329.747 99.984C329.363 99.2907 329.171 98.4907 329.171 97.584C329.171 96.688 329.368 95.8933 329.763 95.2C330.157 94.5067 330.696 93.9733 331.379 93.6C332.061 93.2267 332.824 93.04 333.667 93.04C334.509 93.04 335.272 93.2267 335.955 93.6C336.637 93.9733 337.176 94.5067 337.571 95.2C337.965 95.8933 338.163 96.688 338.163 97.584C338.163 98.48 337.96 99.2747 337.555 99.968C337.149 100.661 336.595 101.2 335.891 101.584C335.197 101.957 334.429 102.144 333.587 102.144ZM333.587 100.56C334.056 100.56 334.493 100.448 334.899 100.224C335.315 100 335.651 99.664 335.907 99.216C336.163 98.768 336.291 98.224 336.291 97.584C336.291 96.944 336.168 96.4053 335.923 95.968C335.677 95.52 335.352 95.184 334.947 94.96C334.541 94.736 334.104 94.624 333.635 94.624C333.165 94.624 332.728 94.736 332.323 94.96C331.928 95.184 331.613 95.52 331.379 95.968C331.144 96.4053 331.027 96.944 331.027 97.584C331.027 98.5333 331.267 99.2693 331.747 99.792C332.237 100.304 332.851 100.56 333.587 100.56ZM341.79 94.464C342.056 94.016 342.408 93.6693 342.846 93.424C343.294 93.168 343.822 93.04 344.43 93.04V94.928H343.966C343.251 94.928 342.707 95.1093 342.334 95.472C341.971 95.8347 341.79 96.464 341.79 97.36V102H339.966V93.184H341.79V94.464ZM349.594 97.6L353.658 102H351.194L347.93 98.208V102H346.106V90.16H347.93V97.04L351.13 93.184H353.658L349.594 97.6ZM358.166 102.144C357.472 102.144 356.848 102.021 356.294 101.776C355.75 101.52 355.318 101.179 354.998 100.752C354.678 100.315 354.507 99.8293 354.486 99.296H356.374C356.406 99.6693 356.582 99.984 356.902 100.24C357.232 100.485 357.643 100.608 358.134 100.608C358.646 100.608 359.04 100.512 359.318 100.32C359.606 100.117 359.75 99.8613 359.75 99.552C359.75 99.2213 359.59 98.976 359.27 98.816C358.96 98.656 358.464 98.48 357.782 98.288C357.12 98.1067 356.582 97.9307 356.166 97.76C355.75 97.5893 355.387 97.328 355.078 96.976C354.779 96.624 354.63 96.16 354.63 95.584C354.63 95.1147 354.768 94.688 355.046 94.304C355.323 93.9093 355.718 93.6 356.23 93.376C356.752 93.152 357.35 93.04 358.022 93.04C359.024 93.04 359.83 93.296 360.438 93.808C361.056 94.3093 361.387 94.9973 361.43 95.872H359.606C359.574 95.4773 359.414 95.1627 359.126 94.928C358.838 94.6933 358.448 94.576 357.958 94.576C357.478 94.576 357.11 94.6667 356.854 94.848C356.598 95.0293 356.47 95.2693 356.47 95.568C356.47 95.8027 356.555 96 356.726 96.16C356.896 96.32 357.104 96.448 357.35 96.544C357.595 96.6293 357.958 96.7413 358.438 96.88C359.078 97.0507 359.6 97.2267 360.006 97.408C360.422 97.5787 360.779 97.8347 361.078 98.176C361.376 98.5173 361.531 98.9707 361.542 99.536C361.542 100.037 361.403 100.485 361.126 100.88C360.848 101.275 360.454 101.584 359.942 101.808C359.44 102.032 358.848 102.144 358.166 102.144Z" fill="#73798B"/>
<path d="M377 100.8C377.442 100.8 377.8 100.442 377.8 100C377.8 99.5584 377.442 99.2002 377 99.2002C376.558 99.2002 376.2 99.5584 376.2 100C376.2 100.442 376.558 100.8 377 100.8ZM377 91.2002C375.232 91.2002 373.8 92.6322 373.8 94.4002H375.4C375.4 93.5202 376.12 92.8002 377 92.8002C377.88 92.8002 378.6 93.5202 378.6 94.4002C378.6 96.0002 376.2 95.8002 376.2 98.4002H377.8C377.8 96.6002 380.2 96.4002 380.2 94.4002C380.2 92.6322 378.768 91.2002 377 91.2002Z" fill="#73798B"/>
<path fill-rule="evenodd" clip-rule="evenodd" d="M377 89.5C375.206 89.5 373.582 90.2272 372.405 91.4047C371.227 92.5822 370.5 94.2061 370.5 96C370.5 97.7939 371.227 99.4178 372.405 100.595C373.582 101.773 375.206 102.5 377 102.5C378.794 102.5 380.418 101.773 381.595 100.595C382.773 99.4178 383.5 97.7939 383.5 96C383.5 94.2061 382.773 92.5822 381.595 91.4047C380.418 90.2272 378.794 89.5 377 89.5ZM371.344 90.344C372.791 88.897 374.792 88 377 88C379.208 88 381.209 88.897 382.656 90.344C384.103 91.791 385 93.7919 385 96C385 98.2081 384.103 100.209 382.656 101.656C381.209 103.103 379.208 104 377 104C374.792 104 372.791 103.103 371.344 101.656C369.897 100.209 369 98.2081 369 96C369 93.7919 369.897 91.791 371.344 90.344Z" fill="#73798B"/>
<mask id="mask0_2650_10628" style="mask-type:alpha" maskUnits="userSpaceOnUse" x="48" y="140" width="264" height="264">
<path fill-rule="evenodd" clip-rule="evenodd" d="M180 404C252.902 404 312 344.902 312 272C312 199.098 252.902 140 180 140C107.098 140 48 199.098 48 272C48 344.902 107.098 404 180 404ZM180 339.823C217.458 339.823 247.823 309.458 247.823 272C247.823 234.542 217.458 204.177 180 204.177C142.542 204.177 112.177 234.542 112.177 272C112.177 309.458 142.542 339.823 180 339.823Z" fill="#D9D9D9"/>
</mask>
<g mask="url(#mask0_2650_10628)">
<path d="M180.446 75.3369V280.472L336.527 333.094L370.419 288.945V148.918L180.446 75.3369Z" fill="#424AFF"/>
<path d="M234.851 451.716L180.446 280.473L336.527 333.094L370.419 288.946L382.905 385.27L234.851 451.716Z" fill="#4A92FF"/>
<path d="M234.851 451.716L180.446 280.473L36.4054 451.716H234.851Z" fill="#8069FF"/>
<path d="M29.7162 294.297L180.446 280.473L36.4054 451.716L29.7162 294.297Z" fill="#3FE1CD"/>
<path d="M29.7162 294.297L180.446 280.473L25.2568 191.729L29.7162 294.297Z" fill="#B7E13F"/>
<path d="M56.473 120.378L180.446 280.473L25.2568 191.729L56.473 120.378Z" fill="#FFF84A"/>
<path d="M56.473 120.377L180.446 280.472L123.365 84.2559L56.473 120.377Z" fill="#FF964A"/>
<path d="M153.689 -11.6221L180.446 280.473L123.365 84.2563L153.689 -11.6221Z" fill="#FE70B5"/>
<path d="M153.689 -11.6221L180.446 280.473V81.5806L153.689 -11.6221Z" fill="#FF5C5C"/>
</g>
<g clip-path="url(#clip1_2650_10628)">
<rect width="141.566" height="48" transform="translate(360 176)" fill="white"/>
<path d="M384.976 192.264V191.224H389.616C390.075 191.224 390.304 190.995 390.304 190.536V189.544C390.304 189.139 390.123 188.899 389.76 188.824L386.848 188.248C385.6 188.013 384.976 187.176 384.976 185.736V185.144C384.976 183.341 385.797 182.44 387.44 182.44H387.808V180.52H389.44V182.44H391.008L391.952 183.176V184.216H387.632C387.173 184.216 386.944 184.445 386.944 184.904V185.784C386.944 186.2 387.125 186.44 387.488 186.504L390.4 187.096C391.648 187.352 392.272 188.184 392.272 189.592V190.296C392.272 192.099 391.451 193 389.808 193H389.44V194.92H387.808V193H385.92L384.976 192.264ZM398.15 192.264V191.224H402.79C403.248 191.224 403.478 190.995 403.478 190.536V188.856C403.478 188.397 403.248 188.168 402.79 188.168H399.334V186.392H402.79C403.248 186.392 403.478 186.157 403.478 185.688V184.424C403.478 183.965 403.248 183.736 402.79 183.736H398.31V182.696L399.254 181.96H402.838C404.576 181.96 405.446 182.829 405.446 184.568V185.64C405.446 186.067 405.312 186.413 405.046 186.68L404.486 187.24L405.046 187.8C405.312 188.067 405.446 188.413 405.446 188.84V190.392C405.446 192.131 404.576 193 402.838 193H399.094L398.15 192.264ZM407.24 193V189.496C407.24 188.077 407.864 187.24 409.112 186.984L412.184 186.36C412.546 186.285 412.728 186.045 412.728 185.64V184.424C412.728 183.965 412.498 183.736 412.04 183.736H407.56V182.696L408.504 181.96H412.088C413.826 181.96 414.696 182.829 414.696 184.568V185.592C414.696 187.011 414.072 187.848 412.824 188.104L409.752 188.728C409.389 188.803 409.208 189.043 409.208 189.448V191.224H414.696V193H407.24ZM416.01 195L416.938 190.92H418.746L418.938 191.224L417.402 195.336L416.01 195ZM420.674 192.264V191.224H425.634C426.092 191.224 426.322 190.995 426.322 190.536V188.696C426.322 188.237 426.092 188.008 425.634 188.008H420.834V181.96H427.81V183.736H422.802V186.232H425.682C427.42 186.232 428.29 187.101 428.29 188.84V190.392C428.29 192.131 427.42 193 425.682 193H421.618L420.674 192.264ZM430.084 190.392V184.568C430.084 182.829 430.953 181.96 432.692 181.96H434.932C436.67 181.96 437.54 182.829 437.54 184.568V190.392C437.54 192.131 436.67 193 434.932 193H432.692C430.953 193 430.084 192.131 430.084 190.392ZM432.052 190.536C432.052 190.995 432.281 191.224 432.74 191.224H434.884C435.342 191.224 435.572 190.995 435.572 190.536V184.424C435.572 183.965 435.342 183.736 434.884 183.736H432.74C432.281 183.736 432.052 183.965 432.052 184.424V190.536ZM439.334 191.224V189.608L442.822 181.96H444.486L444.71 182.376L441.494 189.432H444.822V186.12H446.79V193H444.822V191.224H439.334ZM448.104 195L449.032 190.92H450.84L451.032 191.224L449.496 195.336L448.104 195ZM452.927 190.392V184.568C452.927 182.829 453.797 181.96 455.535 181.96H457.775C459.514 181.96 460.383 182.829 460.383 184.568V190.392C460.383 192.131 459.514 193 457.775 193H455.535C453.797 193 452.927 192.131 452.927 190.392ZM454.895 190.536C454.895 190.995 455.125 191.224 455.583 191.224H457.727C458.186 191.224 458.415 190.995 458.415 190.536V184.424C458.415 183.965 458.186 183.736 457.727 183.736H455.583C455.125 183.736 454.895 183.965 454.895 184.424V190.536ZM462.177 193V189.496C462.177 188.077 462.801 187.24 464.049 186.984L467.121 186.36C467.484 186.285 467.665 186.045 467.665 185.64V184.424C467.665 183.965 467.436 183.736 466.977 183.736H462.497V182.696L463.441 181.96H467.025C468.764 181.96 469.633 182.829 469.633 184.568V185.592C469.633 187.011 469.009 187.848 467.761 188.104L464.689 188.728C464.327 188.803 464.145 189.043 464.145 189.448V191.224H469.633V193H462.177ZM471.267 192.264V191.224H476.227C476.686 191.224 476.915 190.995 476.915 190.536V188.696C476.915 188.237 476.686 188.008 476.227 188.008H471.427V181.96H478.403V183.736H473.395V186.232H476.275C478.014 186.232 478.883 187.101 478.883 188.84V190.392C478.883 192.131 478.014 193 476.275 193H472.211L471.267 192.264ZM480.917 193V190.92H482.997V193H480.917ZM485.021 190.392V184.568C485.021 182.829 485.89 181.96 487.629 181.96H489.869C491.608 181.96 492.477 182.829 492.477 184.568V190.392C492.477 192.131 491.608 193 489.869 193H487.629C485.89 193 485.021 192.131 485.021 190.392ZM486.989 190.536C486.989 190.995 487.218 191.224 487.677 191.224H489.821C490.28 191.224 490.509 190.995 490.509 190.536V184.424C490.509 183.965 490.28 183.736 489.821 183.736H487.677C487.218 183.736 486.989 183.965 486.989 184.424V190.536ZM494.271 190.392V184.568C494.271 182.829 495.14 181.96 496.879 181.96H499.119C500.858 181.96 501.727 182.829 501.727 184.568V190.392C501.727 192.131 500.858 193 499.119 193H496.879C495.14 193 494.271 192.131 494.271 190.392ZM496.239 190.536C496.239 190.995 496.468 191.224 496.927 191.224H499.071C499.53 191.224 499.759 190.995 499.759 190.536V184.424C499.759 183.965 499.53 183.736 499.071 183.736H496.927C496.468 183.736 496.239 183.965 496.239 184.424V190.536Z" fill="#1C1C1C"/>
<rect x="360" y="180" width="16" height="16" rx="3" fill="#424AFF"/>
<path d="M389.964 213.974C390.319 214.03 390.641 214.175 390.93 214.408C391.229 214.641 391.462 214.931 391.63 215.276C391.807 215.621 391.896 215.99 391.896 216.382C391.896 216.877 391.77 217.325 391.518 217.726C391.266 218.118 390.897 218.431 390.412 218.664C389.936 218.888 389.371 219 388.718 219H385.078V209.242H388.578C389.241 209.242 389.805 209.354 390.272 209.578C390.739 209.793 391.089 210.087 391.322 210.46C391.555 210.833 391.672 211.253 391.672 211.72C391.672 212.299 391.513 212.779 391.196 213.162C390.888 213.535 390.477 213.806 389.964 213.974ZM386.352 213.456H388.494C389.091 213.456 389.553 213.316 389.88 213.036C390.207 212.756 390.37 212.369 390.37 211.874C390.37 211.379 390.207 210.992 389.88 210.712C389.553 210.432 389.082 210.292 388.466 210.292H386.352V213.456ZM388.606 217.95C389.241 217.95 389.735 217.801 390.09 217.502C390.445 217.203 390.622 216.788 390.622 216.256C390.622 215.715 390.435 215.29 390.062 214.982C389.689 214.665 389.189 214.506 388.564 214.506H386.352V217.95H388.606ZM399.67 209.242V210.278H397.01V219H395.736V210.278H393.062V209.242H399.67ZM400.762 214.114C400.762 213.162 400.977 212.308 401.406 211.552C401.835 210.787 402.419 210.189 403.156 209.76C403.903 209.331 404.729 209.116 405.634 209.116C406.698 209.116 407.627 209.373 408.42 209.886C409.213 210.399 409.792 211.127 410.156 212.07H408.63C408.359 211.482 407.967 211.029 407.454 210.712C406.95 210.395 406.343 210.236 405.634 210.236C404.953 210.236 404.341 210.395 403.8 210.712C403.259 211.029 402.834 211.482 402.526 212.07C402.218 212.649 402.064 213.33 402.064 214.114C402.064 214.889 402.218 215.57 402.526 216.158C402.834 216.737 403.259 217.185 403.8 217.502C404.341 217.819 404.953 217.978 405.634 217.978C406.343 217.978 406.95 217.824 407.454 217.516C407.967 217.199 408.359 216.746 408.63 216.158H410.156C409.792 217.091 409.213 217.815 408.42 218.328C407.627 218.832 406.698 219.084 405.634 219.084C404.729 219.084 403.903 218.874 403.156 218.454C402.419 218.025 401.835 217.432 401.406 216.676C400.977 215.92 400.762 215.066 400.762 214.114Z" fill="#73798B"/>
</g>
<rect width="141.566" height="48" transform="translate(360 248)" fill="white"/>
<path d="M384.976 264.264V263.224H389.616C390.075 263.224 390.304 262.995 390.304 262.536V261.544C390.304 261.139 390.123 260.899 389.76 260.824L386.848 260.248C385.6 260.013 384.976 259.176 384.976 257.736V257.144C384.976 255.341 385.797 254.44 387.44 254.44H387.808V252.52H389.44V254.44H391.008L391.952 255.176V256.216H387.632C387.173 256.216 386.944 256.445 386.944 256.904V257.784C386.944 258.2 387.125 258.44 387.488 258.504L390.4 259.096C391.648 259.352 392.272 260.184 392.272 261.592V262.296C392.272 264.099 391.451 265 389.808 265H389.44V266.92H387.808V265H385.92L384.976 264.264ZM397.99 258.12V256.568C397.99 254.829 398.859 253.96 400.598 253.96H402.838C404.576 253.96 405.446 254.829 405.446 256.568V261.88C405.446 263.96 404.4 265 402.31 265H399.414L398.47 264.264V263.224H402.374C403.11 263.224 403.478 262.856 403.478 262.12V260.728H400.598C398.859 260.728 397.99 259.859 397.99 258.12ZM399.958 258.248C399.958 258.717 400.187 258.952 400.646 258.952H403.478V256.424C403.478 255.965 403.248 255.736 402.79 255.736H400.646C400.187 255.736 399.958 255.965 399.958 256.424V258.248ZM406.76 267L407.688 262.92H409.496L409.688 263.224L408.152 267.336L406.76 267ZM411.584 255.736V253.96H419.04V257.176L414.928 265H413.184L412.944 264.584L417.072 256.76V255.736H411.584ZM420.993 264.264V263.224H425.634C426.092 263.224 426.322 262.995 426.322 262.536V260.856C426.322 260.397 426.092 260.168 425.634 260.168H422.178V258.392H425.634C426.092 258.392 426.322 258.157 426.322 257.688V256.424C426.322 255.965 426.092 255.736 425.634 255.736H421.154V254.696L422.098 253.96H425.682C427.42 253.96 428.29 254.829 428.29 256.568V257.64C428.29 258.067 428.156 258.413 427.89 258.68L427.33 259.24L427.89 259.8C428.156 260.067 428.29 260.413 428.29 260.84V262.392C428.29 264.131 427.42 265 425.682 265H421.938L420.993 264.264ZM430.084 258.12V256.568C430.084 254.829 430.953 253.96 432.692 253.96H434.932C436.67 253.96 437.54 254.829 437.54 256.568V261.88C437.54 263.96 436.494 265 434.404 265H431.508L430.564 264.264V263.224H434.468C435.204 263.224 435.572 262.856 435.572 262.12V260.728H432.692C430.953 260.728 430.084 259.859 430.084 258.12ZM432.052 258.248C432.052 258.717 432.281 258.952 432.74 258.952H435.572V256.424C435.572 255.965 435.342 255.736 434.884 255.736H432.74C432.281 255.736 432.052 255.965 432.052 256.424V258.248ZM438.854 267L439.782 262.92H441.59L441.782 263.224L440.246 267.336L438.854 267ZM444.125 265V263.224H446.685V255.736H444.589V254.696L445.533 253.96H448.637V263.224H450.941V265H444.125ZM452.927 262.392V256.568C452.927 254.829 453.797 253.96 455.535 253.96H457.775C459.514 253.96 460.383 254.829 460.383 256.568V262.392C460.383 264.131 459.514 265 457.775 265H455.535C453.797 265 452.927 264.131 452.927 262.392ZM454.895 262.536C454.895 262.995 455.125 263.224 455.583 263.224H457.727C458.186 263.224 458.415 262.995 458.415 262.536V256.424C458.415 255.965 458.186 255.736 457.727 255.736H455.583C455.125 255.736 454.895 255.965 454.895 256.424V262.536ZM462.177 262.392V256.568C462.177 254.829 463.047 253.96 464.785 253.96H467.025C468.764 253.96 469.633 254.829 469.633 256.568V262.392C469.633 264.131 468.764 265 467.025 265H464.785C463.047 265 462.177 264.131 462.177 262.392ZM464.145 262.536C464.145 262.995 464.375 263.224 464.833 263.224H466.977C467.436 263.224 467.665 262.995 467.665 262.536V256.424C467.665 255.965 467.436 255.736 466.977 255.736H464.833C464.375 255.736 464.145 255.965 464.145 256.424V262.536ZM471.667 265V262.92H473.747V265H471.667ZM475.771 258.12V256.568C475.771 254.829 476.64 253.96 478.379 253.96H480.619C482.358 253.96 483.227 254.829 483.227 256.568V261.88C483.227 263.96 482.182 265 480.091 265H477.195L476.251 264.264V263.224H480.155C480.891 263.224 481.259 262.856 481.259 262.12V260.728H478.379C476.64 260.728 475.771 259.859 475.771 258.12ZM477.739 258.248C477.739 258.717 477.968 258.952 478.427 258.952H481.259V256.424C481.259 255.965 481.03 255.736 480.571 255.736H478.427C477.968 255.736 477.739 255.965 477.739 256.424V258.248ZM484.861 264.264V263.224H489.821C490.28 263.224 490.509 262.995 490.509 262.536V260.696C490.509 260.237 490.28 260.008 489.821 260.008H485.021V253.96H491.997V255.736H486.989V258.232H489.869C491.608 258.232 492.477 259.101 492.477 260.84V262.392C492.477 264.131 491.608 265 489.869 265H485.805L484.861 264.264Z" fill="#1C1C1C"/>
<rect x="360" y="252" width="16" height="16" rx="3" fill="#3FE1CD"/>
<path d="M388.172 291.098C387.528 291.098 386.949 290.986 386.436 290.762C385.932 290.529 385.535 290.211 385.246 289.81C384.957 289.399 384.807 288.928 384.798 288.396H386.156C386.203 288.853 386.389 289.241 386.716 289.558C387.052 289.866 387.537 290.02 388.172 290.02C388.779 290.02 389.255 289.871 389.6 289.572C389.955 289.264 390.132 288.872 390.132 288.396C390.132 288.023 390.029 287.719 389.824 287.486C389.619 287.253 389.362 287.075 389.054 286.954C388.746 286.833 388.331 286.702 387.808 286.562C387.164 286.394 386.646 286.226 386.254 286.058C385.871 285.89 385.54 285.629 385.26 285.274C384.989 284.91 384.854 284.425 384.854 283.818C384.854 283.286 384.989 282.815 385.26 282.404C385.531 281.993 385.909 281.676 386.394 281.452C386.889 281.228 387.453 281.116 388.088 281.116C389.003 281.116 389.749 281.345 390.328 281.802C390.916 282.259 391.247 282.866 391.322 283.622H389.922C389.875 283.249 389.679 282.922 389.334 282.642C388.989 282.353 388.531 282.208 387.962 282.208C387.43 282.208 386.996 282.348 386.66 282.628C386.324 282.899 386.156 283.281 386.156 283.776C386.156 284.131 386.254 284.42 386.45 284.644C386.655 284.868 386.903 285.041 387.192 285.162C387.491 285.274 387.906 285.405 388.438 285.554C389.082 285.731 389.6 285.909 389.992 286.086C390.384 286.254 390.72 286.52 391 286.884C391.28 287.239 391.42 287.724 391.42 288.34C391.42 288.816 391.294 289.264 391.042 289.684C390.79 290.104 390.417 290.445 389.922 290.706C389.427 290.967 388.844 291.098 388.172 291.098ZM397.719 291.098C396.813 291.098 395.987 290.888 395.241 290.468C394.494 290.039 393.901 289.446 393.463 288.69C393.033 287.925 392.819 287.066 392.819 286.114C392.819 285.162 393.033 284.308 393.463 283.552C393.901 282.787 394.494 282.194 395.241 281.774C395.987 281.345 396.813 281.13 397.719 281.13C398.633 281.13 399.464 281.345 400.211 281.774C400.957 282.194 401.545 282.782 401.975 283.538C402.404 284.294 402.619 285.153 402.619 286.114C402.619 287.075 402.404 287.934 401.975 288.69C401.545 289.446 400.957 290.039 400.211 290.468C399.464 290.888 398.633 291.098 397.719 291.098ZM397.719 289.992C398.4 289.992 399.011 289.833 399.553 289.516C400.103 289.199 400.533 288.746 400.841 288.158C401.158 287.57 401.317 286.889 401.317 286.114C401.317 285.33 401.158 284.649 400.841 284.07C400.533 283.482 400.108 283.029 399.567 282.712C399.025 282.395 398.409 282.236 397.719 282.236C397.028 282.236 396.412 282.395 395.871 282.712C395.329 283.029 394.9 283.482 394.583 284.07C394.275 284.649 394.121 285.33 394.121 286.114C394.121 286.889 394.275 287.57 394.583 288.158C394.9 288.746 395.329 289.199 395.871 289.516C396.421 289.833 397.037 289.992 397.719 289.992ZM405.575 289.964H408.991V291H404.301V281.242H405.575V289.964Z" fill="#73798B"/>
<rect width="141.566" height="48" transform="translate(360 320)" fill="white"/>
<path d="M384.976 336.264V335.224H389.616C390.075 335.224 390.304 334.995 390.304 334.536V333.544C390.304 333.139 390.123 332.899 389.76 332.824L386.848 332.248C385.6 332.013 384.976 331.176 384.976 329.736V329.144C384.976 327.341 385.797 326.44 387.44 326.44H387.808V324.52H389.44V326.44H391.008L391.952 327.176V328.216H387.632C387.173 328.216 386.944 328.445 386.944 328.904V329.784C386.944 330.2 387.125 330.44 387.488 330.504L390.4 331.096C391.648 331.352 392.272 332.184 392.272 333.592V334.296C392.272 336.099 391.451 337 389.808 337H389.44V338.92H387.808V337H385.92L384.976 336.264ZM397.99 335.224V333.608L401.478 325.96H403.142L403.366 326.376L400.15 333.432H403.478V330.12H405.446V337H403.478V335.224H397.99ZM406.76 339L407.688 334.92H409.496L409.688 335.224L408.152 339.336L406.76 339ZM412.032 337V335.224H414.592V327.736H412.496V326.696L413.44 325.96H416.544V335.224H418.848V337H412.032ZM420.993 336.264V335.224H425.634C426.092 335.224 426.322 334.995 426.322 334.536V332.856C426.322 332.397 426.092 332.168 425.634 332.168H422.178V330.392H425.634C426.092 330.392 426.322 330.157 426.322 329.688V328.424C426.322 327.965 426.092 327.736 425.634 327.736H421.154V326.696L422.098 325.96H425.682C427.42 325.96 428.29 326.829 428.29 328.568V329.64C428.29 330.067 428.156 330.413 427.89 330.68L427.33 331.24L427.89 331.8C428.156 332.067 428.29 332.413 428.29 332.84V334.392C428.29 336.131 427.42 337 425.682 337H421.938L420.993 336.264ZM430.084 337V333.496C430.084 332.077 430.708 331.24 431.956 330.984L435.028 330.36C435.39 330.285 435.572 330.045 435.572 329.64V328.424C435.572 327.965 435.342 327.736 434.884 327.736H430.404V326.696L431.348 325.96H434.932C436.67 325.96 437.54 326.829 437.54 328.568V329.592C437.54 331.011 436.916 331.848 435.668 332.104L432.596 332.728C432.233 332.803 432.052 333.043 432.052 333.448V335.224H437.54V337H430.084ZM438.854 339L439.782 334.92H441.59L441.782 335.224L440.246 339.336L438.854 339ZM443.677 337V333.496C443.677 332.077 444.301 331.24 445.549 330.984L448.621 330.36C448.984 330.285 449.165 330.045 449.165 329.64V328.424C449.165 327.965 448.936 327.736 448.477 327.736H443.997V326.696L444.941 325.96H448.525C450.264 325.96 451.133 326.829 451.133 328.568V329.592C451.133 331.011 450.509 331.848 449.261 332.104L446.189 332.728C445.827 332.803 445.645 333.043 445.645 333.448V335.224H451.133V337H443.677ZM452.927 335.224V333.608L456.415 325.96H458.079L458.303 326.376L455.087 333.432H458.415V330.12H460.383V337H458.415V335.224H452.927ZM462.177 334.392V328.568C462.177 326.829 463.047 325.96 464.785 325.96H467.025C468.764 325.96 469.633 326.829 469.633 328.568V334.392C469.633 336.131 468.764 337 467.025 337H464.785C463.047 337 462.177 336.131 462.177 334.392ZM464.145 334.536C464.145 334.995 464.375 335.224 464.833 335.224H466.977C467.436 335.224 467.665 334.995 467.665 334.536V328.424C467.665 327.965 467.436 327.736 466.977 327.736H464.833C464.375 327.736 464.145 327.965 464.145 328.424V334.536ZM471.667 337V334.92H473.747V337H471.667ZM475.611 336.264V335.224H480.571C481.03 335.224 481.259 334.995 481.259 334.536V332.696C481.259 332.237 481.03 332.008 480.571 332.008H475.771V325.96H482.747V327.736H477.739V330.232H480.619C482.358 330.232 483.227 331.101 483.227 332.84V334.392C483.227 336.131 482.358 337 480.619 337H476.555L475.611 336.264ZM485.021 334.392V332.84C485.021 332.413 485.154 332.072 485.421 331.816L485.981 331.24L485.421 330.696C485.154 330.419 485.021 330.067 485.021 329.64V328.568C485.021 326.829 485.89 325.96 487.629 325.96H489.869C491.608 325.96 492.477 326.829 492.477 328.568V329.64C492.477 330.067 492.344 330.419 492.077 330.696L491.517 331.24L492.077 331.816C492.344 332.072 492.477 332.413 492.477 332.84V334.392C492.477 336.131 491.608 337 489.869 337H487.629C485.89 337 485.021 336.131 485.021 334.392ZM486.989 334.536C486.989 334.995 487.218 335.224 487.677 335.224H489.821C490.28 335.224 490.509 334.995 490.509 334.536V332.856C490.509 332.397 490.28 332.168 489.821 332.168H487.677C487.218 332.168 486.989 332.397 486.989 332.856V334.536ZM486.989 329.688C486.989 330.157 487.218 330.392 487.677 330.392H489.821C490.28 330.392 490.509 330.157 490.509 329.688V328.424C490.509 327.965 490.28 327.736 489.821 327.736H487.677C487.218 327.736 486.989 327.965 486.989 328.424V329.688Z" fill="#1C1C1C"/>
<rect x="360" y="324" width="16" height="16" rx="3" fill="#FF964A"/>
<path d="M386.324 353.242V359.416C386.324 360.284 386.534 360.928 386.954 361.348C387.383 361.768 387.976 361.978 388.732 361.978C389.479 361.978 390.062 361.768 390.482 361.348C390.911 360.928 391.126 360.284 391.126 359.416V353.242H392.4V359.402C392.4 360.214 392.237 360.9 391.91 361.46C391.583 362.011 391.14 362.421 390.58 362.692C390.029 362.963 389.409 363.098 388.718 363.098C388.027 363.098 387.402 362.963 386.842 362.692C386.291 362.421 385.853 362.011 385.526 361.46C385.209 360.9 385.05 360.214 385.05 359.402V353.242H386.324ZM397.619 363.098C396.975 363.098 396.397 362.986 395.883 362.762C395.379 362.529 394.983 362.211 394.693 361.81C394.404 361.399 394.255 360.928 394.245 360.396H395.603C395.65 360.853 395.837 361.241 396.163 361.558C396.499 361.866 396.985 362.02 397.619 362.02C398.226 362.02 398.702 361.871 399.047 361.572C399.402 361.264 399.579 360.872 399.579 360.396C399.579 360.023 399.477 359.719 399.271 359.486C399.066 359.253 398.809 359.075 398.501 358.954C398.193 358.833 397.778 358.702 397.255 358.562C396.611 358.394 396.093 358.226 395.701 358.058C395.319 357.89 394.987 357.629 394.707 357.274C394.437 356.91 394.301 356.425 394.301 355.818C394.301 355.286 394.437 354.815 394.707 354.404C394.978 353.993 395.356 353.676 395.841 353.452C396.336 353.228 396.901 353.116 397.535 353.116C398.45 353.116 399.197 353.345 399.775 353.802C400.363 354.259 400.695 354.866 400.769 355.622H399.369C399.323 355.249 399.127 354.922 398.781 354.642C398.436 354.353 397.979 354.208 397.409 354.208C396.877 354.208 396.443 354.348 396.107 354.628C395.771 354.899 395.603 355.281 395.603 355.776C395.603 356.131 395.701 356.42 395.897 356.644C396.103 356.868 396.35 357.041 396.639 357.162C396.938 357.274 397.353 357.405 397.885 357.554C398.529 357.731 399.047 357.909 399.439 358.086C399.831 358.254 400.167 358.52 400.447 358.884C400.727 359.239 400.867 359.724 400.867 360.34C400.867 360.816 400.741 361.264 400.489 361.684C400.237 362.104 399.864 362.445 399.369 362.706C398.875 362.967 398.291 363.098 397.619 363.098ZM405.78 353.242C406.844 353.242 407.763 353.443 408.538 353.844C409.322 354.236 409.919 354.801 410.33 355.538C410.75 356.275 410.96 357.143 410.96 358.142C410.96 359.141 410.75 360.009 410.33 360.746C409.919 361.474 409.322 362.034 408.538 362.426C407.763 362.809 406.844 363 405.78 363H402.742V353.242H405.78ZM405.78 361.95C407.04 361.95 408.001 361.619 408.664 360.956C409.327 360.284 409.658 359.346 409.658 358.142C409.658 356.929 409.322 355.981 408.65 355.3C407.987 354.619 407.031 354.278 405.78 354.278H404.016V361.95H405.78ZM412.165 358.114C412.165 357.162 412.379 356.308 412.809 355.552C413.238 354.787 413.821 354.189 414.559 353.76C415.305 353.331 416.131 353.116 417.037 353.116C418.101 353.116 419.029 353.373 419.823 353.886C420.616 354.399 421.195 355.127 421.559 356.07H420.033C419.762 355.482 419.37 355.029 418.857 354.712C418.353 354.395 417.746 354.236 417.037 354.236C416.355 354.236 415.744 354.395 415.203 354.712C414.661 355.029 414.237 355.482 413.929 356.07C413.621 356.649 413.467 357.33 413.467 358.114C413.467 358.889 413.621 359.57 413.929 360.158C414.237 360.737 414.661 361.185 415.203 361.502C415.744 361.819 416.355 361.978 417.037 361.978C417.746 361.978 418.353 361.824 418.857 361.516C419.37 361.199 419.762 360.746 420.033 360.158H421.559C421.195 361.091 420.616 361.815 419.823 362.328C419.029 362.832 418.101 363.084 417.037 363.084C416.131 363.084 415.305 362.874 414.559 362.454C413.821 362.025 413.238 361.432 412.809 360.676C412.379 359.92 412.165 359.066 412.165 358.114Z" fill="#73798B"/>
<g clip-path="url(#clip2_2650_10628)">
<rect width="141.566" height="48" transform="translate(524.217 248)" fill="white"/>
<path d="M549.193 264.264V263.224H553.833C554.292 263.224 554.521 262.995 554.521 262.536V261.544C554.521 261.139 554.34 260.899 553.977 260.824L551.065 260.248C549.817 260.013 549.193 259.176 549.193 257.736V257.144C549.193 255.341 550.014 254.44 551.657 254.44H552.025V252.52H553.657V254.44H555.225L556.169 255.176V256.216H551.849C551.39 256.216 551.161 256.445 551.161 256.904V257.784C551.161 258.2 551.342 258.44 551.705 258.504L554.617 259.096C555.865 259.352 556.489 260.184 556.489 261.592V262.296C556.489 264.099 555.668 265 554.025 265H553.657V266.92H552.025V265H550.137L549.193 264.264ZM562.207 255.736V253.96H569.663V257.176L565.551 265H563.807L563.567 264.584L567.695 256.76V255.736H562.207ZM570.977 267L571.905 262.92H573.713L573.905 263.224L572.369 267.336L570.977 267ZM575.8 263.224V261.608L579.288 253.96H580.952L581.176 254.376L577.96 261.432H581.288V258.12H583.256V265H581.288V263.224H575.8ZM585.05 258.12V256.568C585.05 254.829 585.92 253.96 587.658 253.96H589.898C591.637 253.96 592.506 254.829 592.506 256.568V261.88C592.506 263.96 591.461 265 589.37 265H586.474L585.53 264.264V263.224H589.434C590.17 263.224 590.538 262.856 590.538 262.12V260.728H587.658C585.92 260.728 585.05 259.859 585.05 258.12ZM587.018 258.248C587.018 258.717 587.248 258.952 587.706 258.952H590.538V256.424C590.538 255.965 590.309 255.736 589.85 255.736H587.706C587.248 255.736 587.018 255.965 587.018 256.424V258.248ZM594.46 264.264V263.224H599.1C599.559 263.224 599.788 262.995 599.788 262.536V260.856C599.788 260.397 599.559 260.168 599.1 260.168H595.644V258.392H599.1C599.559 258.392 599.788 258.157 599.788 257.688V256.424C599.788 255.965 599.559 255.736 599.1 255.736H594.62V254.696L595.564 253.96H599.148C600.887 253.96 601.756 254.829 601.756 256.568V257.64C601.756 258.067 601.623 258.413 601.356 258.68L600.796 259.24L601.356 259.8C601.623 260.067 601.756 260.413 601.756 260.84V262.392C601.756 264.131 600.887 265 599.148 265H595.404L594.46 264.264ZM603.07 267L603.998 262.92H605.806L605.998 263.224L604.462 267.336L603.07 267ZM607.894 263.224V261.608L611.382 253.96H613.046L613.27 254.376L610.054 261.432H613.382V258.12H615.35V265H613.382V263.224H607.894ZM617.304 264.264V263.224H621.944C622.403 263.224 622.632 262.995 622.632 262.536V260.856C622.632 260.397 622.403 260.168 621.944 260.168H618.488V258.392H621.944C622.403 258.392 622.632 258.157 622.632 257.688V256.424C622.632 255.965 622.403 255.736 621.944 255.736H617.464V254.696L618.408 253.96H621.992C623.731 253.96 624.6 254.829 624.6 256.568V257.64C624.6 258.067 624.467 258.413 624.2 258.68L623.64 259.24L624.2 259.8C624.467 260.067 624.6 260.413 624.6 260.84V262.392C624.6 264.131 623.731 265 621.992 265H618.248L617.304 264.264ZM626.394 265V261.496C626.394 260.077 627.018 259.24 628.266 258.984L631.338 258.36C631.701 258.285 631.882 258.045 631.882 257.64V256.424C631.882 255.965 631.653 255.736 631.194 255.736H626.714V254.696L627.658 253.96H631.242C632.981 253.96 633.85 254.829 633.85 256.568V257.592C633.85 259.011 633.226 259.848 631.978 260.104L628.906 260.728C628.543 260.803 628.362 261.043 628.362 261.448V263.224H633.85V265H626.394ZM635.884 265V262.92H637.964V265H635.884ZM639.988 263.224V261.608L643.476 253.96H645.14L645.364 254.376L642.148 261.432H645.476V258.12H647.444V265H645.476V263.224H639.988ZM649.398 264.264V263.224H654.038C654.497 263.224 654.726 262.995 654.726 262.536V260.856C654.726 260.397 654.497 260.168 654.038 260.168H650.582V258.392H654.038C654.497 258.392 654.726 258.157 654.726 257.688V256.424C654.726 255.965 654.497 255.736 654.038 255.736H649.558V254.696L650.502 253.96H654.086C655.825 253.96 656.694 254.829 656.694 256.568V257.64C656.694 258.067 656.561 258.413 656.294 258.68L655.734 259.24L656.294 259.8C656.561 260.067 656.694 260.413 656.694 260.84V262.392C656.694 264.131 655.825 265 654.086 265H650.342L649.398 264.264Z" fill="#1C1C1C"/>
<path d="M555.063 288.83H550.807L550.023 291H548.679L552.207 281.298H553.677L557.191 291H555.847L555.063 288.83ZM554.699 287.794L552.935 282.866L551.171 287.794H554.699ZM563.866 291L561.542 287.01H560.002V291H558.728V281.242H561.878C562.616 281.242 563.236 281.368 563.74 281.62C564.254 281.872 564.636 282.213 564.888 282.642C565.14 283.071 565.266 283.561 565.266 284.112C565.266 284.784 565.07 285.377 564.678 285.89C564.296 286.403 563.717 286.744 562.942 286.912L565.392 291H563.866ZM560.002 285.988H561.878C562.569 285.988 563.087 285.82 563.432 285.484C563.778 285.139 563.95 284.681 563.95 284.112C563.95 283.533 563.778 283.085 563.432 282.768C563.096 282.451 562.578 282.292 561.878 282.292H560.002V285.988ZM572.132 285.974C572.487 286.03 572.809 286.175 573.098 286.408C573.397 286.641 573.63 286.931 573.798 287.276C573.975 287.621 574.064 287.99 574.064 288.382C574.064 288.877 573.938 289.325 573.686 289.726C573.434 290.118 573.065 290.431 572.58 290.664C572.104 290.888 571.539 291 570.886 291H567.246V281.242H570.746C571.409 281.242 571.973 281.354 572.44 281.578C572.907 281.793 573.257 282.087 573.49 282.46C573.723 282.833 573.84 283.253 573.84 283.72C573.84 284.299 573.681 284.779 573.364 285.162C573.056 285.535 572.645 285.806 572.132 285.974ZM568.52 285.456H570.662C571.259 285.456 571.721 285.316 572.048 285.036C572.375 284.756 572.538 284.369 572.538 283.874C572.538 283.379 572.375 282.992 572.048 282.712C571.721 282.432 571.25 282.292 570.634 282.292H568.52V285.456ZM570.774 289.95C571.409 289.95 571.903 289.801 572.258 289.502C572.613 289.203 572.79 288.788 572.79 288.256C572.79 287.715 572.603 287.29 572.23 286.982C571.857 286.665 571.357 286.506 570.732 286.506H568.52V289.95H570.774Z" fill="#73798B"/>
<rect x="524.217" y="252" width="16" height="16" rx="3" fill="#B7E13F"/>
</g>
<g clip-path="url(#clip3_2650_10628)">
<rect width="141.566" height="48" transform="translate(524.217 176)" fill="white"/>
<path d="M549.193 192.264V191.224H553.833C554.292 191.224 554.521 190.995 554.521 190.536V189.544C554.521 189.139 554.34 188.899 553.977 188.824L551.065 188.248C549.817 188.013 549.193 187.176 549.193 185.736V185.144C549.193 183.341 550.014 182.44 551.657 182.44H552.025V180.52H553.657V182.44H555.225L556.169 183.176V184.216H551.849C551.39 184.216 551.161 184.445 551.161 184.904V185.784C551.161 186.2 551.342 186.44 551.705 186.504L554.617 187.096C555.865 187.352 556.489 188.184 556.489 189.592V190.296C556.489 192.099 555.668 193 554.025 193H553.657V194.92H552.025V193H550.137L549.193 192.264ZM562.655 193V191.224H565.215V183.736H563.119V182.696L564.063 181.96H567.167V191.224H569.471V193H562.655ZM571.905 193V191.224H574.465V183.736H572.369V182.696L573.313 181.96H576.417V191.224H578.721V193H571.905ZM580.227 195L581.155 190.92H582.963L583.155 191.224L581.619 195.336L580.227 195ZM584.89 192.264V191.224H589.85C590.309 191.224 590.538 190.995 590.538 190.536V188.696C590.538 188.237 590.309 188.008 589.85 188.008H585.05V181.96H592.026V183.736H587.018V186.232H589.898C591.637 186.232 592.506 187.101 592.506 188.84V190.392C592.506 192.131 591.637 193 589.898 193H585.834L584.89 192.264ZM594.3 191.224V189.608L597.788 181.96H599.452L599.676 182.376L596.46 189.432H599.788V186.12H601.756V193H599.788V191.224H594.3ZM603.55 190.392V184.568C603.55 182.829 604.42 181.96 606.158 181.96H608.398C610.137 181.96 611.006 182.829 611.006 184.568V190.392C611.006 192.131 610.137 193 608.398 193H606.158C604.42 193 603.55 192.131 603.55 190.392ZM605.518 190.536C605.518 190.995 605.748 191.224 606.206 191.224H608.35C608.809 191.224 609.038 190.995 609.038 190.536V184.424C609.038 183.965 608.809 183.736 608.35 183.736H606.206C605.748 183.736 605.518 183.965 605.518 184.424V190.536ZM612.32 195L613.248 190.92H615.056L615.248 191.224L613.712 195.336L612.32 195ZM616.984 192.264V191.224H621.944C622.403 191.224 622.632 190.995 622.632 190.536V188.696C622.632 188.237 622.403 188.008 621.944 188.008H617.144V181.96H624.12V183.736H619.112V186.232H621.992C623.731 186.232 624.6 187.101 624.6 188.84V190.392C624.6 192.131 623.731 193 621.992 193H617.928L616.984 192.264ZM626.394 191.224V189.608L629.882 181.96H631.546L631.77 182.376L628.554 189.432H631.882V186.12H633.85V193H631.882V191.224H626.394ZM635.804 192.264V191.224H640.444C640.903 191.224 641.132 190.995 641.132 190.536V188.856C641.132 188.397 640.903 188.168 640.444 188.168H636.988V186.392H640.444C640.903 186.392 641.132 186.157 641.132 185.688V184.424C641.132 183.965 640.903 183.736 640.444 183.736H635.964V182.696L636.908 181.96H640.492C642.231 181.96 643.1 182.829 643.1 184.568V185.64C643.1 186.067 642.967 186.413 642.7 186.68L642.14 187.24L642.7 187.8C642.967 188.067 643.1 188.413 643.1 188.84V190.392C643.1 192.131 642.231 193 640.492 193H636.748L635.804 192.264ZM645.134 193V190.92H647.214V193H645.134ZM649.238 190.392V184.568C649.238 182.829 650.107 181.96 651.846 181.96H654.086C655.825 181.96 656.694 182.829 656.694 184.568V190.392C656.694 192.131 655.825 193 654.086 193H651.846C650.107 193 649.238 192.131 649.238 190.392ZM651.206 190.536C651.206 190.995 651.435 191.224 651.894 191.224H654.038C654.497 191.224 654.726 190.995 654.726 190.536V184.424C654.726 183.965 654.497 183.736 654.038 183.736H651.894C651.435 183.736 651.206 183.965 651.206 184.424V190.536ZM658.488 190.392V184.568C658.488 182.829 659.357 181.96 661.096 181.96H663.336C665.075 181.96 665.944 182.829 665.944 184.568V190.392C665.944 192.131 665.075 193 663.336 193H661.096C659.357 193 658.488 192.131 658.488 190.392ZM660.456 190.536C660.456 190.995 660.685 191.224 661.144 191.224H663.288C663.747 191.224 663.976 190.995 663.976 190.536V184.424C663.976 183.965 663.747 183.736 663.288 183.736H661.144C660.685 183.736 660.456 183.965 660.456 184.424V190.536Z" fill="#1C1C1C"/>
<path d="M550.569 210.278V213.54H554.125V214.59H550.569V217.95H554.545V219H549.295V209.228H554.545V210.278H550.569ZM562.479 209.242V210.278H559.819V219H558.545V210.278H555.871V209.242H562.479ZM571.565 209.242V219H570.291V214.576H565.321V219H564.047V209.242H565.321V213.526H570.291V209.242H571.565Z" fill="#73798B"/>
<rect x="524.217" y="180" width="16" height="16" rx="3" fill="#4A92FF"/>
</g>
<g clip-path="url(#clip4_2650_10628)">
<rect width="141.566" height="48" transform="translate(688.434 248)" fill="white"/>
<path d="M713.41 264.264V263.224H718.05C718.508 263.224 718.738 262.995 718.738 262.536V261.544C718.738 261.139 718.556 260.899 718.194 260.824L715.282 260.248C714.034 260.013 713.41 259.176 713.41 257.736V257.144C713.41 255.341 714.231 254.44 715.874 254.44H716.242V252.52H717.874V254.44H719.442L720.386 255.176V256.216H716.066C715.607 256.216 715.378 256.445 715.378 256.904V257.784C715.378 258.2 715.559 258.44 715.922 258.504L718.834 259.096C720.082 259.352 720.706 260.184 720.706 261.592V262.296C720.706 264.099 719.884 265 718.242 265H717.874V266.92H716.242V265H714.354L713.41 264.264ZM726.423 263.224V261.608L729.911 253.96H731.575L731.799 254.376L728.583 261.432H731.911V258.12H733.879V265H731.911V263.224H726.423ZM735.193 267L736.121 262.92H737.929L738.121 263.224L736.585 267.336L735.193 267ZM740.017 265V261.496C740.017 260.077 740.641 259.24 741.889 258.984L744.961 258.36C745.324 258.285 745.505 258.045 745.505 257.64V256.424C745.505 255.965 745.276 255.736 744.817 255.736H740.337V254.696L741.281 253.96H744.865C746.604 253.96 747.473 254.829 747.473 256.568V257.592C747.473 259.011 746.849 259.848 745.601 260.104L742.529 260.728C742.167 260.803 741.985 261.043 741.985 261.448V263.224H747.473V265H740.017ZM749.427 264.264V263.224H754.067C754.526 263.224 754.755 262.995 754.755 262.536V260.856C754.755 260.397 754.526 260.168 754.067 260.168H750.611V258.392H754.067C754.526 258.392 754.755 258.157 754.755 257.688V256.424C754.755 255.965 754.526 255.736 754.067 255.736H749.587V254.696L750.531 253.96H754.115C755.854 253.96 756.723 254.829 756.723 256.568V257.64C756.723 258.067 756.59 258.413 756.323 258.68L755.763 259.24L756.323 259.8C756.59 260.067 756.723 260.413 756.723 260.84V262.392C756.723 264.131 755.854 265 754.115 265H750.371L749.427 264.264ZM758.517 262.392V256.568C758.517 254.829 759.387 253.96 761.125 253.96H763.365C765.104 253.96 765.973 254.829 765.973 256.568V262.392C765.973 264.131 765.104 265 763.365 265H761.125C759.387 265 758.517 264.131 758.517 262.392ZM760.485 262.536C760.485 262.995 760.715 263.224 761.173 263.224H763.317C763.776 263.224 764.005 262.995 764.005 262.536V256.424C764.005 255.965 763.776 255.736 763.317 255.736H761.173C760.715 255.736 760.485 255.965 760.485 256.424V262.536ZM767.287 267L768.215 262.92H770.023L770.215 263.224L768.679 267.336L767.287 267ZM772.271 264.264V263.224H776.911C777.37 263.224 777.599 262.995 777.599 262.536V260.856C777.599 260.397 777.37 260.168 776.911 260.168H773.455V258.392H776.911C777.37 258.392 777.599 258.157 777.599 257.688V256.424C777.599 255.965 777.37 255.736 776.911 255.736H772.431V254.696L773.375 253.96H776.959C778.698 253.96 779.567 254.829 779.567 256.568V257.64C779.567 258.067 779.434 258.413 779.167 258.68L778.607 259.24L779.167 259.8C779.434 260.067 779.567 260.413 779.567 260.84V262.392C779.567 264.131 778.698 265 776.959 265H773.215L772.271 264.264ZM781.361 265V261.496C781.361 260.077 781.985 259.24 783.233 258.984L786.305 258.36C786.668 258.285 786.849 258.045 786.849 257.64V256.424C786.849 255.965 786.62 255.736 786.161 255.736H781.681V254.696L782.625 253.96H786.209C787.948 253.96 788.817 254.829 788.817 256.568V257.592C788.817 259.011 788.193 259.848 786.945 260.104L783.873 260.728C783.51 260.803 783.329 261.043 783.329 261.448V263.224H788.817V265H781.361ZM790.451 264.264V263.224H795.411C795.87 263.224 796.099 262.995 796.099 262.536V260.696C796.099 260.237 795.87 260.008 795.411 260.008H790.611V253.96H797.587V255.736H792.579V258.232H795.459C797.198 258.232 798.067 259.101 798.067 260.84V262.392C798.067 264.131 797.198 265 795.459 265H791.395L790.451 264.264ZM800.101 265V262.92H802.181V265H800.101ZM804.205 263.224V261.608L807.693 253.96H809.357L809.581 254.376L806.365 261.432H809.693V258.12H811.661V265H809.693V263.224H804.205ZM813.455 262.392V256.568C813.455 254.829 814.324 253.96 816.063 253.96H818.303C820.041 253.96 820.911 254.829 820.911 256.568V262.392C820.911 264.131 820.041 265 818.303 265H816.063C814.324 265 813.455 264.131 813.455 262.392ZM815.423 262.536C815.423 262.995 815.652 263.224 816.111 263.224H818.255C818.713 263.224 818.943 262.995 818.943 262.536V256.424C818.943 255.965 818.713 255.736 818.255 255.736H816.111C815.652 255.736 815.423 255.965 815.423 256.424V262.536Z" fill="#1C1C1C"/>
<path d="M717.936 291.098C717.03 291.098 716.204 290.888 715.458 290.468C714.711 290.039 714.118 289.446 713.68 288.69C713.25 287.925 713.036 287.066 713.036 286.114C713.036 285.162 713.25 284.308 713.68 283.552C714.118 282.787 714.711 282.194 715.458 281.774C716.204 281.345 717.03 281.13 717.936 281.13C718.85 281.13 719.681 281.345 720.428 281.774C721.174 282.194 721.762 282.782 722.192 283.538C722.621 284.294 722.836 285.153 722.836 286.114C722.836 287.075 722.621 287.934 722.192 288.69C721.762 289.446 721.174 290.039 720.428 290.468C719.681 290.888 718.85 291.098 717.936 291.098ZM717.936 289.992C718.617 289.992 719.228 289.833 719.77 289.516C720.32 289.199 720.75 288.746 721.058 288.158C721.375 287.57 721.534 286.889 721.534 286.114C721.534 285.33 721.375 284.649 721.058 284.07C720.75 283.482 720.325 283.029 719.784 282.712C719.242 282.395 718.626 282.236 717.936 282.236C717.245 282.236 716.629 282.395 716.088 282.712C715.546 283.029 715.117 283.482 714.8 284.07C714.492 284.649 714.338 285.33 714.338 286.114C714.338 286.889 714.492 287.57 714.8 288.158C715.117 288.746 715.546 289.199 716.088 289.516C716.638 289.833 717.254 289.992 717.936 289.992ZM731.042 284.098C731.042 284.91 730.762 285.587 730.202 286.128C729.651 286.66 728.806 286.926 727.668 286.926H725.792V291H724.518V281.242H727.668C728.769 281.242 729.604 281.508 730.174 282.04C730.752 282.572 731.042 283.258 731.042 284.098ZM727.668 285.876C728.377 285.876 728.9 285.722 729.236 285.414C729.572 285.106 729.74 284.667 729.74 284.098C729.74 282.894 729.049 282.292 727.668 282.292H725.792V285.876H727.668Z" fill="#73798B"/>
<rect x="688.434" y="252" width="16" height="16" rx="3" fill="#FFF84A"/>
</g>
<g clip-path="url(#clip5_2650_10628)">
<rect width="141.566" height="48" transform="translate(524.217 320)" fill="white"/>
<path d="M549.193 336.264V335.224H553.833C554.292 335.224 554.521 334.995 554.521 334.536V333.544C554.521 333.139 554.34 332.899 553.977 332.824L551.065 332.248C549.817 332.013 549.193 331.176 549.193 329.736V329.144C549.193 327.341 550.014 326.44 551.657 326.44H552.025V324.52H553.657V326.44H555.225L556.169 327.176V328.216H551.849C551.39 328.216 551.161 328.445 551.161 328.904V329.784C551.161 330.2 551.342 330.44 551.705 330.504L554.617 331.096C555.865 331.352 556.489 332.184 556.489 333.592V334.296C556.489 336.099 555.668 337 554.025 337H553.657V338.92H552.025V337H550.137L549.193 336.264ZM562.655 337V335.224H565.215V327.736H563.119V326.696L564.063 325.96H567.167V335.224H569.471V337H562.655ZM570.977 339L571.905 334.92H573.713L573.905 335.224L572.369 339.336L570.977 339ZM575.8 334.392V332.84C575.8 332.413 575.934 332.072 576.2 331.816L576.76 331.24L576.2 330.696C575.934 330.419 575.8 330.067 575.8 329.64V328.568C575.8 326.829 576.67 325.96 578.408 325.96H580.648C582.387 325.96 583.256 326.829 583.256 328.568V329.64C583.256 330.067 583.123 330.419 582.856 330.696L582.296 331.24L582.856 331.816C583.123 332.072 583.256 332.413 583.256 332.84V334.392C583.256 336.131 582.387 337 580.648 337H578.408C576.67 337 575.8 336.131 575.8 334.392ZM577.768 334.536C577.768 334.995 577.998 335.224 578.456 335.224H580.6C581.059 335.224 581.288 334.995 581.288 334.536V332.856C581.288 332.397 581.059 332.168 580.6 332.168H578.456C577.998 332.168 577.768 332.397 577.768 332.856V334.536ZM577.768 329.688C577.768 330.157 577.998 330.392 578.456 330.392H580.6C581.059 330.392 581.288 330.157 581.288 329.688V328.424C581.288 327.965 581.059 327.736 580.6 327.736H578.456C577.998 327.736 577.768 327.965 577.768 328.424V329.688ZM585.05 334.392V328.568C585.05 326.829 585.92 325.96 587.658 325.96H589.898C591.637 325.96 592.506 326.829 592.506 328.568V334.392C592.506 336.131 591.637 337 589.898 337H587.658C585.92 337 585.05 336.131 585.05 334.392ZM587.018 334.536C587.018 334.995 587.248 335.224 587.706 335.224H589.85C590.309 335.224 590.538 334.995 590.538 334.536V328.424C590.538 327.965 590.309 327.736 589.85 327.736H587.706C587.248 327.736 587.018 327.965 587.018 328.424V334.536ZM594.3 330.12V328.568C594.3 326.829 595.17 325.96 596.908 325.96H599.148C600.887 325.96 601.756 326.829 601.756 328.568V333.88C601.756 335.96 600.711 337 598.62 337H595.724L594.78 336.264V335.224H598.684C599.42 335.224 599.788 334.856 599.788 334.12V332.728H596.908C595.17 332.728 594.3 331.859 594.3 330.12ZM596.268 330.248C596.268 330.717 596.498 330.952 596.956 330.952H599.788V328.424C599.788 327.965 599.559 327.736 599.1 327.736H596.956C596.498 327.736 596.268 327.965 596.268 328.424V330.248ZM603.07 339L603.998 334.92H605.806L605.998 335.224L604.462 339.336L603.07 339ZM607.894 330.12V328.568C607.894 326.829 608.763 325.96 610.502 325.96H612.742C614.481 325.96 615.35 326.829 615.35 328.568V333.88C615.35 335.96 614.305 337 612.214 337H609.318L608.374 336.264V335.224H612.278C613.014 335.224 613.382 334.856 613.382 334.12V332.728H610.502C608.763 332.728 607.894 331.859 607.894 330.12ZM609.862 330.248C609.862 330.717 610.091 330.952 610.55 330.952H613.382V328.424C613.382 327.965 613.153 327.736 612.694 327.736H610.55C610.091 327.736 609.862 327.965 609.862 328.424V330.248ZM616.984 336.264V335.224H621.944C622.403 335.224 622.632 334.995 622.632 334.536V332.696C622.632 332.237 622.403 332.008 621.944 332.008H617.144V325.96H624.12V327.736H619.112V330.232H621.992C623.731 330.232 624.6 331.101 624.6 332.84V334.392C624.6 336.131 623.731 337 621.992 337H617.928L616.984 336.264ZM626.554 336.264V335.224H631.194C631.653 335.224 631.882 334.995 631.882 334.536V332.856C631.882 332.397 631.653 332.168 631.194 332.168H627.738V330.392H631.194C631.653 330.392 631.882 330.157 631.882 329.688V328.424C631.882 327.965 631.653 327.736 631.194 327.736H626.714V326.696L627.658 325.96H631.242C632.981 325.96 633.85 326.829 633.85 328.568V329.64C633.85 330.067 633.717 330.413 633.45 330.68L632.89 331.24L633.45 331.8C633.717 332.067 633.85 332.413 633.85 332.84V334.392C633.85 336.131 632.981 337 631.242 337H627.498L626.554 336.264ZM635.884 337V334.92H637.964V337H635.884ZM639.828 336.264V335.224H644.788C645.247 335.224 645.476 334.995 645.476 334.536V332.696C645.476 332.237 645.247 332.008 644.788 332.008H639.988V325.96H646.964V327.736H641.956V330.232H644.836C646.575 330.232 647.444 331.101 647.444 332.84V334.392C647.444 336.131 646.575 337 644.836 337H640.772L639.828 336.264ZM649.238 334.392V329.08C649.238 327 650.283 325.96 652.374 325.96H655.11L656.054 326.696V327.736H652.31C651.574 327.736 651.206 328.104 651.206 328.84V330.232H654.086C655.825 330.232 656.694 331.101 656.694 332.84V334.392C656.694 336.131 655.825 337 654.086 337H651.846C650.107 337 649.238 336.131 649.238 334.392ZM651.206 334.536C651.206 334.995 651.435 335.224 651.894 335.224H654.038C654.497 335.224 654.726 334.995 654.726 334.536V332.696C654.726 332.237 654.497 332.008 654.038 332.008H651.206V334.536Z" fill="#1C1C1C"/>
<path d="M554.181 357.974C554.536 358.03 554.858 358.175 555.147 358.408C555.446 358.641 555.679 358.931 555.847 359.276C556.024 359.621 556.113 359.99 556.113 360.382C556.113 360.877 555.987 361.325 555.735 361.726C555.483 362.118 555.114 362.431 554.629 362.664C554.153 362.888 553.588 363 552.935 363H549.295V353.242H552.795C553.458 353.242 554.022 353.354 554.489 353.578C554.956 353.793 555.306 354.087 555.539 354.46C555.772 354.833 555.889 355.253 555.889 355.72C555.889 356.299 555.73 356.779 555.413 357.162C555.105 357.535 554.694 357.806 554.181 357.974ZM550.569 357.456H552.711C553.308 357.456 553.77 357.316 554.097 357.036C554.424 356.756 554.587 356.369 554.587 355.874C554.587 355.379 554.424 354.992 554.097 354.712C553.77 354.432 553.299 354.292 552.683 354.292H550.569V357.456ZM552.823 361.95C553.458 361.95 553.952 361.801 554.307 361.502C554.662 361.203 554.839 360.788 554.839 360.256C554.839 359.715 554.652 359.29 554.279 358.982C553.906 358.665 553.406 358.506 552.781 358.506H550.569V361.95H552.823ZM565.553 363H564.279L559.155 355.23V363H557.881V353.228H559.155L564.279 360.984V353.228H565.553V363ZM572.611 357.974C572.965 358.03 573.287 358.175 573.577 358.408C573.875 358.641 574.109 358.931 574.277 359.276C574.454 359.621 574.543 359.99 574.543 360.382C574.543 360.877 574.417 361.325 574.165 361.726C573.913 362.118 573.544 362.431 573.059 362.664C572.583 362.888 572.018 363 571.365 363H567.725V353.242H571.225C571.887 353.242 572.452 353.354 572.919 353.578C573.385 353.793 573.735 354.087 573.969 354.46C574.202 354.833 574.319 355.253 574.319 355.72C574.319 356.299 574.16 356.779 573.843 357.162C573.535 357.535 573.124 357.806 572.611 357.974ZM568.999 357.456H571.141C571.738 357.456 572.2 357.316 572.527 357.036C572.853 356.756 573.017 356.369 573.017 355.874C573.017 355.379 572.853 354.992 572.527 354.712C572.2 354.432 571.729 354.292 571.113 354.292H568.999V357.456ZM571.253 361.95C571.887 361.95 572.382 361.801 572.737 361.502C573.091 361.203 573.269 360.788 573.269 360.256C573.269 359.715 573.082 359.29 572.709 358.982C572.335 358.665 571.836 358.506 571.211 358.506H568.999V361.95H571.253Z" fill="#73798B"/>
<rect x="524.217" y="324" width="16" height="16" rx="3" fill="#FE70B5"/>
</g>
<g clip-path="url(#clip6_2650_10628)">
<rect width="141.566" height="48" transform="translate(688.434 176)" fill="white"/>
<path d="M713.41 192.264V191.224H718.05C718.508 191.224 718.738 190.995 718.738 190.536V189.544C718.738 189.139 718.556 188.899 718.194 188.824L715.282 188.248C714.034 188.013 713.41 187.176 713.41 185.736V185.144C713.41 183.341 714.231 182.44 715.874 182.44H716.242V180.52H717.874V182.44H719.442L720.386 183.176V184.216H716.066C715.607 184.216 715.378 184.445 715.378 184.904V185.784C715.378 186.2 715.559 186.44 715.922 186.504L718.834 187.096C720.082 187.352 720.706 188.184 720.706 189.592V190.296C720.706 192.099 719.884 193 718.242 193H717.874V194.92H716.242V193H714.354L713.41 192.264ZM726.871 193V191.224H729.431V183.736H727.335V182.696L728.279 181.96H731.383V191.224H733.687V193H726.871ZM735.673 190.392V184.568C735.673 182.829 736.543 181.96 738.281 181.96H740.521C742.26 181.96 743.129 182.829 743.129 184.568V190.392C743.129 192.131 742.26 193 740.521 193H738.281C736.543 193 735.673 192.131 735.673 190.392ZM737.641 190.536C737.641 190.995 737.871 191.224 738.329 191.224H740.473C740.932 191.224 741.161 190.995 741.161 190.536V184.424C741.161 183.965 740.932 183.736 740.473 183.736H738.329C737.871 183.736 737.641 183.965 737.641 184.424V190.536ZM744.443 195L745.371 190.92H747.179L747.371 191.224L745.835 195.336L744.443 195ZM749.267 193V189.496C749.267 188.077 749.891 187.24 751.139 186.984L754.211 186.36C754.574 186.285 754.755 186.045 754.755 185.64V184.424C754.755 183.965 754.526 183.736 754.067 183.736H749.587V182.696L750.531 181.96H754.115C755.854 181.96 756.723 182.829 756.723 184.568V185.592C756.723 187.011 756.099 187.848 754.851 188.104L751.779 188.728C751.417 188.803 751.235 189.043 751.235 189.448V191.224H756.723V193H749.267ZM758.677 192.264V191.224H763.317C763.776 191.224 764.005 190.995 764.005 190.536V188.856C764.005 188.397 763.776 188.168 763.317 188.168H759.861V186.392H763.317C763.776 186.392 764.005 186.157 764.005 185.688V184.424C764.005 183.965 763.776 183.736 763.317 183.736H758.837V182.696L759.781 181.96H763.365C765.104 181.96 765.973 182.829 765.973 184.568V185.64C765.973 186.067 765.84 186.413 765.573 186.68L765.013 187.24L765.573 187.8C765.84 188.067 765.973 188.413 765.973 188.84V190.392C765.973 192.131 765.104 193 763.365 193H759.621L758.677 192.264ZM767.767 183.736V181.96H775.223V185.176L771.111 193H769.367L769.127 192.584L773.255 184.76V183.736H767.767ZM776.537 195L777.465 190.92H779.273L779.465 191.224L777.929 195.336L776.537 195ZM781.521 192.264V191.224H786.161C786.62 191.224 786.849 190.995 786.849 190.536V188.856C786.849 188.397 786.62 188.168 786.161 188.168H782.705V186.392H786.161C786.62 186.392 786.849 186.157 786.849 185.688V184.424C786.849 183.965 786.62 183.736 786.161 183.736H781.681V182.696L782.625 181.96H786.209C787.948 181.96 788.817 182.829 788.817 184.568V185.64C788.817 186.067 788.684 186.413 788.417 186.68L787.857 187.24L788.417 187.8C788.684 188.067 788.817 188.413 788.817 188.84V190.392C788.817 192.131 787.948 193 786.209 193H782.465L781.521 192.264ZM790.611 193V189.496C790.611 188.077 791.235 187.24 792.483 186.984L795.555 186.36C795.918 186.285 796.099 186.045 796.099 185.64V184.424C796.099 183.965 795.87 183.736 795.411 183.736H790.931V182.696L791.875 181.96H795.459C797.198 181.96 798.067 182.829 798.067 184.568V185.592C798.067 187.011 797.443 187.848 796.195 188.104L793.123 188.728C792.76 188.803 792.579 189.043 792.579 189.448V191.224H798.067V193H790.611ZM799.861 190.392V184.568C799.861 182.829 800.73 181.96 802.469 181.96H804.709C806.448 181.96 807.317 182.829 807.317 184.568V190.392C807.317 192.131 806.448 193 804.709 193H802.469C800.73 193 799.861 192.131 799.861 190.392ZM801.829 190.536C801.829 190.995 802.058 191.224 802.517 191.224H804.661C805.12 191.224 805.349 190.995 805.349 190.536V184.424C805.349 183.965 805.12 183.736 804.661 183.736H802.517C802.058 183.736 801.829 183.965 801.829 184.424V190.536ZM809.351 193V190.92H811.431V193H809.351ZM813.455 193V189.496C813.455 188.077 814.079 187.24 815.327 186.984L818.399 186.36C818.761 186.285 818.943 186.045 818.943 185.64V184.424C818.943 183.965 818.713 183.736 818.255 183.736H813.775V182.696L814.719 181.96H818.303C820.041 181.96 820.911 182.829 820.911 184.568V185.592C820.911 187.011 820.287 187.848 819.039 188.104L815.967 188.728C815.604 188.803 815.423 189.043 815.423 189.448V191.224H820.911V193H813.455ZM823.153 193V191.224H825.713V183.736H823.617V182.696L824.561 181.96H827.665V191.224H829.969V193H823.153Z" fill="#1C1C1C"/>
<path d="M714.758 209.242V215.416C714.758 216.284 714.968 216.928 715.388 217.348C715.817 217.768 716.41 217.978 717.166 217.978C717.912 217.978 718.496 217.768 718.916 217.348C719.345 216.928 719.56 216.284 719.56 215.416V209.242H720.834V215.402C720.834 216.214 720.67 216.9 720.344 217.46C720.017 218.011 719.574 218.421 719.014 218.692C718.463 218.963 717.842 219.098 717.152 219.098C716.461 219.098 715.836 218.963 715.276 218.692C714.725 218.421 714.286 218.011 713.96 217.46C713.642 216.9 713.484 216.214 713.484 215.402V209.242H714.758ZM726.053 219.098C725.409 219.098 724.83 218.986 724.317 218.762C723.813 218.529 723.416 218.211 723.127 217.81C722.838 217.399 722.688 216.928 722.679 216.396H724.037C724.084 216.853 724.27 217.241 724.597 217.558C724.933 217.866 725.418 218.02 726.053 218.02C726.66 218.02 727.136 217.871 727.481 217.572C727.836 217.264 728.013 216.872 728.013 216.396C728.013 216.023 727.91 215.719 727.705 215.486C727.5 215.253 727.243 215.075 726.935 214.954C726.627 214.833 726.212 214.702 725.689 214.562C725.045 214.394 724.527 214.226 724.135 214.058C723.752 213.89 723.421 213.629 723.141 213.274C722.87 212.91 722.735 212.425 722.735 211.818C722.735 211.286 722.87 210.815 723.141 210.404C723.412 209.993 723.79 209.676 724.275 209.452C724.77 209.228 725.334 209.116 725.969 209.116C726.884 209.116 727.63 209.345 728.209 209.802C728.797 210.259 729.128 210.866 729.203 211.622H727.803C727.756 211.249 727.56 210.922 727.215 210.642C726.87 210.353 726.412 210.208 725.843 210.208C725.311 210.208 724.877 210.348 724.541 210.628C724.205 210.899 724.037 211.281 724.037 211.776C724.037 212.131 724.135 212.42 724.331 212.644C724.536 212.868 724.784 213.041 725.073 213.162C725.372 213.274 725.787 213.405 726.319 213.554C726.963 213.731 727.481 213.909 727.873 214.086C728.265 214.254 728.601 214.52 728.881 214.884C729.161 215.239 729.301 215.724 729.301 216.34C729.301 216.816 729.175 217.264 728.923 217.684C728.671 218.104 728.298 218.445 727.803 218.706C727.308 218.967 726.725 219.098 726.053 219.098ZM734.214 209.242C735.278 209.242 736.197 209.443 736.972 209.844C737.756 210.236 738.353 210.801 738.764 211.538C739.184 212.275 739.394 213.143 739.394 214.142C739.394 215.141 739.184 216.009 738.764 216.746C738.353 217.474 737.756 218.034 736.972 218.426C736.197 218.809 735.278 219 734.214 219H731.176V209.242H734.214ZM734.214 217.95C735.474 217.95 736.435 217.619 737.098 216.956C737.76 216.284 738.092 215.346 738.092 214.142C738.092 212.929 737.756 211.981 737.084 211.3C736.421 210.619 735.464 210.278 734.214 210.278H732.45V217.95H734.214ZM747.08 209.242V210.278H744.42V219H743.146V210.278H740.472V209.242H747.08Z" fill="#73798B"/>
<rect x="688.434" y="180" width="16" height="16" rx="3" fill="#8069FF"/>
</g>
<g clip-path="url(#clip7_2650_10628)">
<rect width="141.566" height="48" transform="translate(688.434 320)" fill="white"/>
<path d="M713.41 336.264V335.224H718.05C718.508 335.224 718.738 334.995 718.738 334.536V333.544C718.738 333.139 718.556 332.899 718.194 332.824L715.282 332.248C714.034 332.013 713.41 331.176 713.41 329.736V329.144C713.41 327.341 714.231 326.44 715.874 326.44H716.242V324.52H717.874V326.44H719.442L720.386 327.176V328.216H716.066C715.607 328.216 715.378 328.445 715.378 328.904V329.784C715.378 330.2 715.559 330.44 715.922 330.504L718.834 331.096C720.082 331.352 720.706 332.184 720.706 333.592V334.296C720.706 336.099 719.884 337 718.242 337H717.874V338.92H716.242V337H714.354L713.41 336.264ZM726.423 327.736V325.96H733.879V329.176L729.767 337H728.023L727.783 336.584L731.911 328.76V327.736H726.423ZM735.833 336.264V335.224H740.473C740.932 335.224 741.161 334.995 741.161 334.536V332.856C741.161 332.397 740.932 332.168 740.473 332.168H737.017V330.392H740.473C740.932 330.392 741.161 330.157 741.161 329.688V328.424C741.161 327.965 740.932 327.736 740.473 327.736H735.993V326.696L736.937 325.96H740.521C742.26 325.96 743.129 326.829 743.129 328.568V329.64C743.129 330.067 742.996 330.413 742.729 330.68L742.169 331.24L742.729 331.8C742.996 332.067 743.129 332.413 743.129 332.84V334.392C743.129 336.131 742.26 337 740.521 337H736.777L735.833 336.264ZM744.923 330.12V328.568C744.923 326.829 745.793 325.96 747.531 325.96H749.771C751.51 325.96 752.379 326.829 752.379 328.568V333.88C752.379 335.96 751.334 337 749.243 337H746.347L745.403 336.264V335.224H749.307C750.043 335.224 750.411 334.856 750.411 334.12V332.728H747.531C745.793 332.728 744.923 331.859 744.923 330.12ZM746.891 330.248C746.891 330.717 747.121 330.952 747.579 330.952H750.411V328.424C750.411 327.965 750.182 327.736 749.723 327.736H747.579C747.121 327.736 746.891 327.965 746.891 328.424V330.248ZM753.693 339L754.621 334.92H756.429L756.621 335.224L755.085 339.336L753.693 339ZM758.357 336.264V335.224H763.317C763.776 335.224 764.005 334.995 764.005 334.536V332.696C764.005 332.237 763.776 332.008 763.317 332.008H758.517V325.96H765.493V327.736H760.485V330.232H763.365C765.104 330.232 765.973 331.101 765.973 332.84V334.392C765.973 336.131 765.104 337 763.365 337H759.301L758.357 336.264ZM767.767 327.736V325.96H775.223V329.176L771.111 337H769.367L769.127 336.584L773.255 328.76V327.736H767.767ZM777.017 335.224V333.608L780.505 325.96H782.169L782.393 326.376L779.177 333.432H782.505V330.12H784.473V337H782.505V335.224H777.017ZM786.507 337V334.92H788.587V337H786.507ZM790.611 334.392V329.08C790.611 327 791.656 325.96 793.747 325.96H796.483L797.427 326.696V327.736H793.683C792.947 327.736 792.579 328.104 792.579 328.84V330.232H795.459C797.198 330.232 798.067 331.101 798.067 332.84V334.392C798.067 336.131 797.198 337 795.459 337H793.219C791.48 337 790.611 336.131 790.611 334.392ZM792.579 334.536C792.579 334.995 792.808 335.224 793.267 335.224H795.411C795.87 335.224 796.099 334.995 796.099 334.536V332.696C796.099 332.237 795.87 332.008 795.411 332.008H792.579V334.536ZM799.861 334.392V332.84C799.861 332.413 799.994 332.072 800.261 331.816L800.821 331.24L800.261 330.696C799.994 330.419 799.861 330.067 799.861 329.64V328.568C799.861 326.829 800.73 325.96 802.469 325.96H804.709C806.448 325.96 807.317 326.829 807.317 328.568V329.64C807.317 330.067 807.184 330.419 806.917 330.696L806.357 331.24L806.917 331.816C807.184 332.072 807.317 332.413 807.317 332.84V334.392C807.317 336.131 806.448 337 804.709 337H802.469C800.73 337 799.861 336.131 799.861 334.392ZM801.829 334.536C801.829 334.995 802.058 335.224 802.517 335.224H804.661C805.12 335.224 805.349 334.995 805.349 334.536V332.856C805.349 332.397 805.12 332.168 804.661 332.168H802.517C802.058 332.168 801.829 332.397 801.829 332.856V334.536ZM801.829 329.688C801.829 330.157 802.058 330.392 802.517 330.392H804.661C805.12 330.392 805.349 330.157 805.349 329.688V328.424C805.349 327.965 805.12 327.736 804.661 327.736H802.517C802.058 327.736 801.829 327.965 801.829 328.424V329.688Z" fill="#1C1C1C"/>
<path d="M717.936 363.098C717.03 363.098 716.204 362.888 715.458 362.468C714.711 362.039 714.118 361.446 713.68 360.69C713.25 359.925 713.036 359.066 713.036 358.114C713.036 357.162 713.25 356.308 713.68 355.552C714.118 354.787 714.711 354.194 715.458 353.774C716.204 353.345 717.03 353.13 717.936 353.13C718.85 353.13 719.681 353.345 720.428 353.774C721.174 354.194 721.762 354.782 722.192 355.538C722.621 356.294 722.836 357.153 722.836 358.114C722.836 359.075 722.621 359.934 722.192 360.69C721.762 361.446 721.174 362.039 720.428 362.468C719.681 362.888 718.85 363.098 717.936 363.098ZM717.936 361.992C718.617 361.992 719.228 361.833 719.77 361.516C720.32 361.199 720.75 360.746 721.058 360.158C721.375 359.57 721.534 358.889 721.534 358.114C721.534 357.33 721.375 356.649 721.058 356.07C720.75 355.482 720.325 355.029 719.784 354.712C719.242 354.395 718.626 354.236 717.936 354.236C717.245 354.236 716.629 354.395 716.088 354.712C715.546 355.029 715.117 355.482 714.8 356.07C714.492 356.649 714.338 357.33 714.338 358.114C714.338 358.889 714.492 359.57 714.8 360.158C715.117 360.746 715.546 361.199 716.088 361.516C716.638 361.833 717.254 361.992 717.936 361.992ZM726.072 356.378V360.9C726.072 361.273 726.151 361.539 726.31 361.698C726.468 361.847 726.744 361.922 727.136 361.922H728.074V363H726.926C726.216 363 725.684 362.837 725.33 362.51C724.975 362.183 724.798 361.647 724.798 360.9V356.378H723.804V355.328H724.798V353.396H726.072V355.328H728.074V356.378H726.072ZM733.425 355.188C734.004 355.188 734.527 355.314 734.993 355.566C735.46 355.809 735.824 356.177 736.085 356.672C736.356 357.167 736.491 357.769 736.491 358.478V363H735.231V358.66C735.231 357.895 735.04 357.311 734.657 356.91C734.275 356.499 733.752 356.294 733.089 356.294C732.417 356.294 731.881 356.504 731.479 356.924C731.087 357.344 730.891 357.955 730.891 358.758V363H729.617V352.64H730.891V356.42C731.143 356.028 731.489 355.725 731.927 355.51C732.375 355.295 732.875 355.188 733.425 355.188ZM745.572 358.87C745.572 359.113 745.558 359.369 745.53 359.64H739.398C739.445 360.396 739.702 360.989 740.168 361.418C740.644 361.838 741.218 362.048 741.89 362.048C742.441 362.048 742.898 361.922 743.262 361.67C743.636 361.409 743.897 361.063 744.046 360.634H745.418C745.213 361.371 744.802 361.973 744.186 362.44C743.57 362.897 742.805 363.126 741.89 363.126C741.162 363.126 740.509 362.963 739.93 362.636C739.361 362.309 738.913 361.847 738.586 361.25C738.26 360.643 738.096 359.943 738.096 359.15C738.096 358.357 738.255 357.661 738.572 357.064C738.89 356.467 739.333 356.009 739.902 355.692C740.481 355.365 741.144 355.202 741.89 355.202C742.618 355.202 743.262 355.361 743.822 355.678C744.382 355.995 744.812 356.434 745.11 356.994C745.418 357.545 745.572 358.17 745.572 358.87ZM744.256 358.604C744.256 358.119 744.149 357.703 743.934 357.358C743.72 357.003 743.426 356.737 743.052 356.56C742.688 356.373 742.282 356.28 741.834 356.28C741.19 356.28 740.64 356.485 740.182 356.896C739.734 357.307 739.478 357.876 739.412 358.604H744.256ZM748.528 356.574C748.752 356.135 749.069 355.795 749.48 355.552C749.9 355.309 750.409 355.188 751.006 355.188V356.504H750.67C749.242 356.504 748.528 357.279 748.528 358.828V363H747.254V355.328H748.528V356.574ZM755.193 363.126C754.605 363.126 754.077 363.028 753.611 362.832C753.144 362.627 752.775 362.347 752.505 361.992C752.234 361.628 752.085 361.213 752.057 360.746H753.373C753.41 361.129 753.587 361.441 753.905 361.684C754.231 361.927 754.656 362.048 755.179 362.048C755.664 362.048 756.047 361.941 756.327 361.726C756.607 361.511 756.747 361.241 756.747 360.914C756.747 360.578 756.597 360.331 756.299 360.172C756 360.004 755.538 359.841 754.913 359.682C754.343 359.533 753.877 359.383 753.513 359.234C753.158 359.075 752.85 358.847 752.589 358.548C752.337 358.24 752.211 357.839 752.211 357.344C752.211 356.952 752.327 356.593 752.561 356.266C752.794 355.939 753.125 355.683 753.555 355.496C753.984 355.3 754.474 355.202 755.025 355.202C755.874 355.202 756.56 355.417 757.083 355.846C757.605 356.275 757.885 356.863 757.923 357.61H756.649C756.621 357.209 756.457 356.887 756.159 356.644C755.869 356.401 755.477 356.28 754.983 356.28C754.525 356.28 754.161 356.378 753.891 356.574C753.62 356.77 753.485 357.027 753.485 357.344C753.485 357.596 753.564 357.806 753.723 357.974C753.891 358.133 754.096 358.263 754.339 358.366C754.591 358.459 754.936 358.567 755.375 358.688C755.925 358.837 756.373 358.987 756.719 359.136C757.064 359.276 757.358 359.491 757.601 359.78C757.853 360.069 757.983 360.447 757.993 360.914C757.993 361.334 757.876 361.712 757.643 362.048C757.409 362.384 757.078 362.65 756.649 362.846C756.229 363.033 755.743 363.126 755.193 363.126Z" fill="#73798B"/>
<rect x="688.434" y="324" width="16" height="16" rx="3" fill="#FF5C5C"/>
</g>
</g>
<rect x="0.5" y="0.5" width="877" height="427" rx="9.5" stroke="#EDEEF3"/>
<defs>
<clipPath id="clip0_2650_10628">
<rect width="878" height="428" rx="10" fill="white"/>
</clipPath>
<clipPath id="clip1_2650_10628">
<rect width="141.566" height="48" fill="white" transform="translate(360 176)"/>
</clipPath>
<clipPath id="clip2_2650_10628">
<rect width="141.566" height="48" fill="white" transform="translate(524.217 248)"/>
</clipPath>
<clipPath id="clip3_2650_10628">
<rect width="141.566" height="48" fill="white" transform="translate(524.217 176)"/>
</clipPath>
<clipPath id="clip4_2650_10628">
<rect width="141.566" height="48" fill="white" transform="translate(688.434 248)"/>
</clipPath>
<clipPath id="clip5_2650_10628">
<rect width="141.566" height="48" fill="white" transform="translate(524.217 320)"/>
</clipPath>
<clipPath id="clip6_2650_10628">
<rect width="141.566" height="48" fill="white" transform="translate(688.434 176)"/>
</clipPath>
<clipPath id="clip7_2650_10628">
<rect width="141.566" height="48" fill="white" transform="translate(688.434 320)"/>
</clipPath>
</defs>
</svg>
