<svg width="878" height="428" viewBox="0 0 878 428" fill="none" xmlns="http://www.w3.org/2000/svg">
<g clip-path="url(#clip0_3885_3738)">
<mask id="path-3-inside-1_3885_3738" fill="white">
<path d="M0 0H878V52H0V0Z"/>
</mask>
<path d="M0 0H878V52H0V0Z" fill="#F8F9FC"/>
<path d="M878 51H0V53H878V51Z" fill="#EDEEF3" mask="url(#path-3-inside-1_3885_3738)"/>
<path d="M25.512 18.482L26.214 17.546C27.51 17.978 29.166 18.752 29.994 19.382L29.292 20.444C28.482 19.796 26.844 18.968 25.512 18.482ZM24.882 23.09C26.196 22.712 28.14 22.1 30.102 21.47L30.318 22.658C28.554 23.252 26.718 23.846 25.278 24.332L24.882 23.09ZM32.712 16.952L33.99 17.132C33.378 18.716 32.406 20.372 30.786 21.686C30.57 21.38 30.138 21.002 29.832 20.84C31.308 19.742 32.244 18.212 32.712 16.952ZM32.73 18.554H39.552V19.616H31.974L32.73 18.554ZM39.246 18.554H39.462L39.696 18.5L40.668 18.77C40.2 19.76 39.678 20.84 39.21 21.56L38.04 21.218C38.436 20.588 38.922 19.598 39.246 18.734V18.554ZM27.276 25.322H38.922V30.218H37.536V26.564H28.608V30.344H27.276V25.322ZM32.496 27.104H33.828C33.216 30.686 31.56 32.63 25.494 33.476C25.404 33.17 25.116 32.648 24.882 32.378C30.606 31.676 31.974 30.074 32.496 27.104ZM33.27 30.668L34.026 29.678C36.24 30.344 39.246 31.478 40.83 32.252L40.038 33.386C38.508 32.576 35.538 31.388 33.27 30.668ZM34.962 19.094H36.312C35.736 21.722 34.386 23.846 30.588 24.998C30.444 24.692 30.12 24.224 29.85 24.008C33.36 23.072 34.476 21.182 34.962 19.094ZM35.754 20.318C36.69 21.992 38.724 23.288 41.082 23.792C40.794 24.044 40.452 24.53 40.272 24.872C37.824 24.17 35.772 22.622 34.746 20.606L35.754 20.318ZM45.006 23.666H58.704V24.998H45.006V23.666ZM43.98 19.058H58.236V20.336H43.98V19.058ZM44.232 23.666H45.636V26.15C45.636 28.31 45.312 31.46 43.746 33.584C43.512 33.314 42.918 32.81 42.63 32.648C44.052 30.686 44.232 28.022 44.232 26.114V23.666ZM46.716 21.002L47.904 20.516C48.498 21.272 49.182 22.352 49.488 23.054L48.264 23.612C47.976 22.91 47.328 21.794 46.716 21.002ZM54.384 20.606L55.86 21.092C55.23 22.154 54.51 23.396 53.916 24.188L52.872 23.738C53.394 22.892 54.042 21.542 54.384 20.606ZM49.65 17.24L50.982 16.862C51.54 17.51 52.098 18.428 52.35 19.04L50.928 19.49C50.712 18.86 50.172 17.924 49.65 17.24ZM66.84 31.82H77.262V33.062H66.84V31.82ZM69.36 22.388H75.246V23.612H69.36V22.388ZM69.378 27.068H75.264V28.292H69.378V27.068ZM68.658 17.78H75.696V32.45H74.346V19.022H69.936V32.45H68.658V17.78ZM61.296 28.724C61.242 28.472 61.026 27.86 60.882 27.536C61.278 27.446 61.728 26.996 62.322 26.348C62.97 25.7 65.004 23.162 66.39 20.696L67.47 21.362C65.904 23.864 64.032 26.294 62.196 28.04V28.058C62.196 28.058 61.296 28.454 61.296 28.724ZM61.296 28.724L61.242 27.68L61.89 27.212L67.218 26.222C67.182 26.582 67.2 27.086 67.218 27.338C62.322 28.346 61.674 28.508 61.296 28.724ZM61.17 24.404C61.098 24.134 60.9 23.486 60.756 23.144C61.08 23.054 61.404 22.64 61.818 22.028C62.268 21.416 63.672 19.076 64.482 16.88L65.724 17.456C64.698 19.706 63.348 22.046 61.998 23.666V23.702C61.998 23.702 61.17 24.134 61.17 24.404ZM61.17 24.404L61.152 23.414L61.782 23L65.382 22.622C65.328 22.946 65.292 23.45 65.292 23.72C61.998 24.134 61.476 24.26 61.17 24.404ZM60.864 30.974C62.412 30.65 64.788 30.092 67.074 29.552L67.218 30.686C65.058 31.262 62.808 31.82 61.116 32.27L60.864 30.974ZM82.464 22.766H91.554V23.972H82.464V22.766ZM82.14 31.514H91.788V32.72H82.14V31.514ZM81.528 26.24H92.544V33.458H91.176V27.464H82.842V33.458H81.528V26.24ZM86.946 18.266C85.47 20.462 82.518 23.018 79.44 24.692C79.26 24.386 78.9 23.9 78.594 23.612C81.762 22.01 84.768 19.256 86.19 16.934H87.558C89.502 19.616 92.652 22.118 95.532 23.396C95.19 23.72 94.866 24.188 94.632 24.584C91.806 23.108 88.638 20.57 86.946 18.266Z" fill="#1C1C1C"/>
<rect width="878" height="376" transform="translate(0 52)" fill="white"/>
<mask id="path-6-inside-2_3885_3738" fill="white">
<path d="M24 76H120V116H24V76Z"/>
</mask>
<path d="M120 114H24V118H120V114Z" fill="#1F32D6" mask="url(#path-6-inside-2_3885_3738)"/>
<path d="M46.944 90.704H48.944V103.424H46.944V90.704ZM42.16 93.36H52.928V95.232H44.128V101.648H42.16V93.36ZM51.904 93.36H53.904V99.488C53.904 100.416 53.728 100.976 53.072 101.28C52.416 101.584 51.552 101.616 50.352 101.616C50.272 101.056 49.984 100.208 49.712 99.68C50.464 99.712 51.328 99.712 51.568 99.712C51.824 99.696 51.904 99.632 51.904 99.424V93.36ZM54.096 88.784L54.832 90.544C51.12 91.104 45.888 91.376 41.504 91.392C41.472 90.848 41.264 90.112 41.088 89.664C45.568 89.6 50.704 89.312 54.096 88.784ZM62.88 91.616H71.216V99.168H69.344V93.472H64.688V99.296H62.88V91.616ZM66.064 88.464H67.984V103.376H66.064V88.464ZM63.488 96.448H70.816V98.304H63.488V96.448ZM58.912 89.904H60.784V103.424H58.912V89.904ZM56.528 92.912H62.544V94.704H56.528V92.912ZM59.008 93.632L60.128 94.128C59.52 96.416 58.384 99.264 57.152 100.848C56.976 100.288 56.56 99.488 56.272 99.008C57.376 97.728 58.496 95.408 59.008 93.632ZM61.776 88.56L62.832 90.128C61.184 90.736 58.992 91.136 57.104 91.36C57.04 90.928 56.8 90.288 56.592 89.872C58.416 89.6 60.448 89.104 61.776 88.56ZM60.736 94.912C61.136 95.264 62.528 96.832 62.832 97.216L61.728 98.72C61.36 97.92 60.384 96.352 59.904 95.664L60.736 94.912ZM83.68 93.248L85.168 92.496C86.016 93.616 87.04 95.136 87.456 96.128L85.84 96.992C85.472 96 84.528 94.416 83.68 93.248ZM78.336 90.512H87.296V92.224H78.336V90.512ZM82.88 96.496H84.768V101.008C84.768 101.504 84.8 101.568 85.024 101.568C85.12 101.568 85.472 101.568 85.584 101.568C85.84 101.568 85.888 101.216 85.936 99.168C86.304 99.488 87.072 99.792 87.552 99.936C87.424 102.448 87.008 103.184 85.776 103.184C85.504 103.184 84.928 103.184 84.672 103.184C83.216 103.184 82.88 102.624 82.88 101.008V96.496ZM79.872 96.512H81.76C81.632 99.872 81.2 102.192 78.288 103.536C78.064 103.056 77.536 102.304 77.104 101.952C79.552 100.912 79.776 99.216 79.872 96.512ZM78.512 96.768L78.448 95.36L79.376 94.784L85.488 94.272C85.488 94.736 85.584 95.44 85.664 95.808C79.888 96.4 79.072 96.512 78.512 96.768ZM81.28 88.8L83.088 88.352C83.376 88.928 83.728 89.744 83.904 90.224L81.968 90.752C81.84 90.256 81.536 89.408 81.28 88.8ZM78.512 96.768C78.432 96.288 78.128 95.328 77.952 94.912C78.304 94.832 78.768 94.704 79.12 94.368C79.568 93.952 81.056 91.984 81.648 91.12H83.904C82.976 92.4 81.44 94.528 80.496 95.568C80.496 95.568 78.512 96.272 78.512 96.768ZM73.072 99.296C72.976 98.928 72.672 98.016 72.448 97.52C72.864 97.424 73.216 97.072 73.712 96.496C74.24 95.936 75.824 93.744 76.832 91.616L78.496 92.656C77.36 94.704 75.808 96.784 74.32 98.304V98.368C74.32 98.368 73.072 98.96 73.072 99.296ZM73.072 99.296L72.912 97.696L73.728 97.104L77.984 96.256C77.936 96.784 77.936 97.536 77.984 97.936C74.16 98.816 73.488 99.04 73.072 99.296ZM72.96 95.392C72.848 94.992 72.528 94.016 72.288 93.472C72.624 93.392 72.912 93.056 73.248 92.544C73.6 92.048 74.608 90.096 75.168 88.256L77.12 89.152C76.368 90.976 75.168 92.976 74.048 94.352V94.4C74.048 94.4 72.96 95.056 72.96 95.392ZM72.96 95.392L72.912 94L73.712 93.456L76.4 93.248C76.304 93.744 76.208 94.464 76.208 94.848C73.808 95.12 73.28 95.232 72.96 95.392ZM72.544 100.912C73.888 100.512 75.968 99.776 77.952 99.072L78.304 100.688C76.496 101.456 74.544 102.224 72.992 102.816L72.544 100.912ZM89.84 89.808L91.056 88.576C91.952 89.264 93.184 90.256 93.76 90.944L92.464 92.336C91.936 91.648 90.736 90.56 89.84 89.808ZM91.008 103.376L90.56 101.504L90.992 100.88L94.528 98.4C94.64 98.944 94.928 99.776 95.136 100.16C91.888 102.512 91.312 102.976 91.008 103.376ZM88.608 93.344H92.176V95.248H88.608V93.344ZM93.856 93.456H103.472V95.456H93.856V93.456ZM97.712 88.48H99.776V103.44H97.712V88.48ZM91.008 103.376C90.848 102.864 90.384 101.984 90.048 101.584C90.432 101.344 90.928 100.8 90.928 100.08V93.344H92.896V101.52C92.896 101.52 91.008 102.672 91.008 103.376Z" fill="#1C1C1C"/>
<path d="M162.896 88.608L163.984 88.928C163.36 90.688 162.32 92.448 161.168 93.6C161.072 93.36 160.752 92.752 160.544 92.48C161.52 91.536 162.4 90.112 162.896 88.608ZM162.576 90.368H166.4V91.52H162.336L162.576 90.368ZM163.104 103.168L162.928 102.064L163.328 101.584L166.528 99.744C166.576 100.064 166.704 100.528 166.816 100.768C163.808 102.576 163.376 102.864 163.104 103.168ZM161.76 93.248H166.176V94.336H161.76V93.248ZM160.992 96.512H166.608V97.6H160.992V96.512ZM167.104 92.416L174.464 91.312L174.656 92.368L167.312 93.488L167.104 92.416ZM166.784 95.856L174.896 94.336L175.104 95.392L166.976 96.928L166.784 95.856ZM169.424 88.544H170.576C170.528 96.096 171.76 102.08 173.808 102.096C174.24 102.096 174.4 101.712 174.464 100.304C174.704 100.544 175.088 100.8 175.36 100.912C175.136 102.688 174.768 103.216 173.696 103.216C170.544 103.216 169.488 96.368 169.424 88.544ZM171.2 89.52L171.888 88.864C172.688 89.216 173.696 89.792 174.208 90.224L173.504 90.976C172.992 90.528 172 89.904 171.2 89.52ZM174.192 96.432L175.184 96.88C173.536 99.616 170.624 101.776 167.328 103.008C167.152 102.72 166.864 102.304 166.592 102.048C169.792 100.96 172.656 98.944 174.192 96.432ZM163.104 103.168C162.992 102.912 162.688 102.496 162.512 102.304C162.784 102.112 163.328 101.616 163.328 100.88V93.584H164.416V101.744C164.416 101.744 163.104 102.72 163.104 103.168ZM180.512 88.48L181.76 88.832C180.752 91.328 179.184 93.696 177.552 95.232C177.312 95.008 176.8 94.576 176.48 94.384C178.144 92.992 179.616 90.768 180.512 88.48ZM180.32 90.4H189.344V91.536H179.744L180.32 90.4ZM188.96 90.4H190.16C190.16 90.4 190.16 90.8 190.16 90.976C190 96.368 189.84 98.272 189.376 98.864C189.088 99.232 188.768 99.36 188.288 99.408C187.84 99.456 187.04 99.44 186.176 99.408C186.16 99.056 186.032 98.576 185.84 98.256C186.656 98.336 187.424 98.352 187.728 98.352C187.984 98.352 188.16 98.304 188.288 98.128C188.656 97.712 188.816 95.872 188.96 90.64V90.4ZM179.472 97.056H184.448V94.32H179.136V93.248H185.648V98.128H179.472V97.056ZM178.896 97.056H180.096V101.168C180.096 101.824 180.416 101.968 182.144 101.968C182.96 101.968 187.104 101.968 188.176 101.968C189.632 101.968 189.872 101.648 190.016 99.808C190.32 99.984 190.832 100.176 191.168 100.24C190.928 102.544 190.464 103.104 188.192 103.104C187.6 103.104 182.768 103.104 182.208 103.104C179.648 103.104 178.896 102.752 178.896 101.168V97.056ZM193.168 91.664H206.944V92.768H193.168V91.664ZM193.104 98.016H207.024V99.152H193.104V98.016ZM203.92 88.896L205.2 89.312C204.544 90.192 203.76 91.12 203.136 91.744L202.128 91.36C202.736 90.704 203.504 89.632 203.92 88.896ZM199.36 88.576H200.56V95.936H199.36V88.576ZM194.912 89.488L195.936 89.008C196.64 89.664 197.408 90.592 197.728 91.232L196.656 91.776C196.336 91.136 195.6 90.176 194.912 89.488ZM201.584 96.672L202.288 96.064C203.216 96.432 204.448 96.992 205.104 97.408L204.352 98.096C203.76 97.664 202.544 97.072 201.584 96.672ZM199.424 96.288H200.688C200.256 100.112 199.152 102.32 193.36 103.296C193.248 102.976 192.96 102.448 192.736 102.192C198.192 101.376 199.072 99.568 199.424 96.288ZM198.912 92.112L199.904 92.528C198.56 94.432 196.096 95.984 193.632 96.704C193.456 96.384 193.104 95.936 192.832 95.68C195.264 95.104 197.712 93.728 198.912 92.112ZM200.976 92.08C202.176 93.712 204.608 94.992 207.168 95.52C206.912 95.744 206.576 96.208 206.416 96.528C203.808 95.872 201.328 94.4 200 92.464L200.976 92.08ZM200.752 98.384C201.664 100.672 203.856 101.824 207.408 102.128C207.136 102.4 206.8 102.928 206.656 103.28C202.944 102.8 200.736 101.424 199.648 98.624L200.752 98.384ZM209.6 89.216H216.816V90.288H209.6V89.216ZM209.072 92.496H217.168V93.568H209.072V92.496ZM208.752 101.616H223.232V102.736H208.752V101.616ZM210.416 98.48H221.552V99.568H210.416V98.48ZM214.208 89.664H215.328V96.992H214.208V89.664ZM215.472 96.688H216.688V102.384H215.472V96.688ZM218.16 89.488H219.264V94.848H218.16V89.488ZM221.136 88.672H222.288V95.824C222.288 96.496 222.144 96.8 221.664 96.992C221.184 97.168 220.416 97.184 219.264 97.184C219.216 96.864 219.04 96.416 218.864 96.096C219.792 96.128 220.576 96.128 220.832 96.096C221.072 96.096 221.136 96.032 221.136 95.808V88.672ZM211.104 89.68H212.224V92.4C212.224 94.064 211.808 96.112 209.728 97.408C209.568 97.168 209.152 96.736 208.928 96.56C210.848 95.392 211.104 93.76 211.104 92.368V89.68ZM235.856 93.168L236.8 92.688C237.648 93.808 238.704 95.312 239.168 96.224L238.16 96.8C237.712 95.872 236.72 94.304 235.856 93.168ZM230.512 90.896H239.152V91.984H230.512V90.896ZM235.168 96.384H236.336V101.44C236.336 101.856 236.4 101.92 236.736 101.92C236.896 101.92 237.648 101.92 237.84 101.92C238.192 101.92 238.24 101.616 238.288 99.696C238.528 99.904 239.008 100.096 239.328 100.192C239.232 102.368 238.96 102.96 237.952 102.96C237.728 102.96 236.768 102.96 236.56 102.96C235.44 102.96 235.168 102.608 235.168 101.44V96.384ZM232.16 96.4H233.344C233.216 99.984 232.704 102.064 229.808 103.232C229.664 102.944 229.344 102.48 229.072 102.272C231.68 101.28 232.064 99.568 232.16 96.4ZM230.592 96.448L230.56 95.552L231.232 95.152L237.68 94.608C237.68 94.912 237.744 95.36 237.792 95.584C231.712 96.176 231.024 96.256 230.592 96.448ZM233.504 88.832L234.624 88.528C234.976 89.168 235.392 90.064 235.584 90.576L234.4 90.944C234.224 90.4 233.84 89.488 233.504 88.832ZM230.592 96.448C230.528 96.144 230.304 95.536 230.176 95.264C230.48 95.2 230.896 95.088 231.2 94.784C231.648 94.352 233.248 92.192 233.824 91.344H235.248C234.432 92.512 232.848 94.688 232 95.648C232 95.648 230.592 96.112 230.592 96.448ZM225.056 99.088C224.992 98.848 224.8 98.256 224.656 97.936C224.992 97.872 225.376 97.472 225.872 96.88C226.4 96.304 228.112 94.064 229.216 91.904L230.288 92.544C229.008 94.72 227.44 96.864 225.904 98.416V98.464C225.904 98.464 225.056 98.848 225.056 99.088ZM225.056 99.088L224.976 98.064L225.568 97.648L229.872 96.8C229.856 97.12 229.856 97.6 229.904 97.84C225.936 98.72 225.392 98.88 225.056 99.088ZM224.944 95.248C224.88 94.976 224.672 94.352 224.512 94C224.816 93.936 225.12 93.568 225.472 93.024C225.856 92.496 227.04 90.432 227.728 88.512L228.96 89.072C228.08 91.04 226.88 93.104 225.712 94.544V94.576C225.712 94.576 224.944 94.992 224.944 95.248ZM224.944 95.248L224.928 94.32L225.504 93.936L228.512 93.632C228.448 93.936 228.4 94.4 228.416 94.64C225.68 95.008 225.216 95.104 224.944 95.248ZM224.656 101.152C225.968 100.816 227.92 100.224 229.856 99.648L230.048 100.688C228.256 101.28 226.384 101.888 224.944 102.352L224.656 101.152ZM242.192 89.616L242.96 88.848C243.856 89.552 244.992 90.576 245.52 91.248L244.72 92.128C244.192 91.456 243.072 90.368 242.192 89.616ZM243.12 102.976L242.896 101.792L243.248 101.28L246.448 99.088C246.528 99.424 246.72 99.92 246.848 100.16C243.824 102.304 243.376 102.64 243.12 102.976ZM240.736 93.584H244.016V94.784H240.736V93.584ZM245.936 93.872H255.344V95.104H245.936V93.872ZM250 88.608H251.264V103.28H250V88.608ZM243.12 102.976C243.008 102.656 242.704 102.128 242.48 101.872C242.784 101.68 243.264 101.216 243.264 100.528V93.584H244.48V101.6C244.48 101.6 243.12 102.512 243.12 102.976Z" fill="#73798B"/>
<path d="M270 100.8C270.442 100.8 270.8 100.442 270.8 100C270.8 99.5584 270.442 99.2002 270 99.2002C269.558 99.2002 269.2 99.5584 269.2 100C269.2 100.442 269.558 100.8 270 100.8ZM270 91.2002C268.232 91.2002 266.8 92.6322 266.8 94.4002H268.4C268.4 93.5202 269.12 92.8002 270 92.8002C270.88 92.8002 271.6 93.5202 271.6 94.4002C271.6 96.0002 269.2 95.8002 269.2 98.4002H270.8C270.8 96.6002 273.2 96.4002 273.2 94.4002C273.2 92.6322 271.768 91.2002 270 91.2002Z" fill="#73798B"/>
<path fill-rule="evenodd" clip-rule="evenodd" d="M270 89.5C268.206 89.5 266.582 90.2272 265.405 91.4047C264.227 92.5822 263.5 94.2061 263.5 96C263.5 97.7939 264.227 99.4178 265.405 100.595C266.582 101.773 268.206 102.5 270 102.5C271.794 102.5 273.418 101.773 274.595 100.595C275.773 99.4178 276.5 97.7939 276.5 96C276.5 94.2061 275.773 92.5822 274.595 91.4047C273.418 90.2272 271.794 89.5 270 89.5ZM264.344 90.344C265.791 88.897 267.792 88 270 88C272.208 88 274.209 88.897 275.656 90.344C277.103 91.791 278 93.7919 278 96C278 98.2081 277.103 100.209 275.656 101.656C274.209 103.103 272.208 104 270 104C267.792 104 265.791 103.103 264.344 101.656C262.897 100.209 262 98.2081 262 96C262 93.7919 262.897 91.791 264.344 90.344Z" fill="#73798B"/>
<path d="M334.976 89.456H341.872V90.56H334.976V89.456ZM343.008 94.016H349.44V95.168H343.008V94.016ZM346.48 94.768H347.664V103.296H346.48V94.768ZM342.544 90.144L344.048 90.544C344.032 90.656 343.952 90.72 343.728 90.752V94.416C343.728 97.008 343.392 100.672 340.992 103.248C340.816 102.992 340.384 102.592 340.096 102.448C342.32 100.08 342.544 96.864 342.544 94.416V90.144ZM335.568 92.224H336.704V96.544C336.704 98.592 336.512 101.424 335.28 103.312C335.088 103.088 334.592 102.72 334.336 102.576C335.456 100.848 335.568 98.384 335.568 96.544V92.224ZM348.064 88.752L349.12 89.664C347.536 90.432 345.216 91.088 343.216 91.552C343.152 91.28 342.96 90.848 342.8 90.576C344.704 90.128 346.864 89.44 348.064 88.752ZM336.224 92.224H341.472V97.216H336.224V96.128H340.304V93.328H336.224V92.224ZM350.992 91.04H365.008V92.208H350.992V91.04ZM355.952 96.112H364.384V97.232H355.952V96.112ZM355.328 101.776H365.008V102.912H355.328V101.776ZM359.568 93.024H360.768V102.384H359.568V93.024ZM356.256 88.56L357.488 88.864C356.368 92.528 354.416 96.256 351.232 98.544C351.104 98.224 350.8 97.712 350.608 97.44C353.488 95.408 355.36 91.856 356.256 88.56ZM353.088 95.152H354.288V103.232H353.088V95.152ZM368.192 88.592L369.232 88.864C368.752 90.624 367.968 92.448 367.04 93.648C366.944 93.408 366.624 92.832 366.432 92.592C367.216 91.584 367.84 90.112 368.192 88.592ZM368.208 90.4H371.376V91.456H367.984L368.208 90.4ZM368.416 103.104L368.224 102.064L368.544 101.6L371.072 99.92C371.152 100.208 371.312 100.624 371.424 100.832C369.008 102.512 368.64 102.816 368.416 103.104ZM367.312 93.392H371.088V94.432H367.312V93.392ZM366.752 96.688H371.44V97.744H366.752V96.688ZM368.416 103.104C368.288 102.864 367.968 102.448 367.776 102.256C368.064 102.048 368.56 101.504 368.56 100.72V93.968H369.664V101.6C369.664 101.6 368.416 102.64 368.416 103.104ZM374.16 90.48H381.264V91.52H374.16V90.48ZM377.408 92.272H378.48V101.168H377.408V92.272ZM374.704 95.44C374.64 95.216 374.48 94.688 374.352 94.416C374.592 94.336 374.832 93.936 375.104 93.344C375.36 92.784 376.24 90.544 376.64 88.528L377.792 88.768C377.2 90.944 376.288 93.248 375.408 94.816V94.832C375.408 94.832 374.704 95.216 374.704 95.44ZM374.704 95.44V94.512L375.344 94.208H380.848V95.216H375.952C375.328 95.216 374.848 95.312 374.704 95.44ZM374.304 97.344H381.184V98.416H374.304V97.344ZM373.792 94.256V101.104H372.688V95.36H371.152V94.256H373.792ZM371.616 89.52L372.576 89.184C373.088 90.08 373.648 91.216 373.888 91.984L372.864 92.384C372.624 91.6 372.096 90.4 371.616 89.52ZM373.36 100.352C373.824 100.352 374.176 100.752 374.848 101.168C375.648 101.664 376.592 101.808 377.84 101.808C378.848 101.808 380.48 101.744 381.552 101.616C381.424 101.936 381.264 102.528 381.248 102.864C380.416 102.912 378.784 102.96 377.808 102.96C376.48 102.96 375.504 102.736 374.64 102.208C374.096 101.824 373.664 101.424 373.344 101.424C372.896 101.424 372.208 102.272 371.6 103.136L370.816 102.032C371.696 101.088 372.624 100.352 373.36 100.352Z" fill="#73798B"/>
<path d="M396 100.8C396.442 100.8 396.8 100.442 396.8 100C396.8 99.5584 396.442 99.2002 396 99.2002C395.558 99.2002 395.2 99.5584 395.2 100C395.2 100.442 395.558 100.8 396 100.8ZM396 91.2002C394.232 91.2002 392.8 92.6322 392.8 94.4002H394.4C394.4 93.5202 395.12 92.8002 396 92.8002C396.88 92.8002 397.6 93.5202 397.6 94.4002C397.6 96.0002 395.2 95.8002 395.2 98.4002H396.8C396.8 96.6002 399.2 96.4002 399.2 94.4002C399.2 92.6322 397.768 91.2002 396 91.2002Z" fill="#73798B"/>
<path fill-rule="evenodd" clip-rule="evenodd" d="M396 89.5C394.206 89.5 392.582 90.2272 391.405 91.4047C390.227 92.5822 389.5 94.2061 389.5 96C389.5 97.7939 390.227 99.4178 391.405 100.595C392.582 101.773 394.206 102.5 396 102.5C397.794 102.5 399.418 101.773 400.595 100.595C401.773 99.4178 402.5 97.7939 402.5 96C402.5 94.2061 401.773 92.5822 400.595 91.4047C399.418 90.2272 397.794 89.5 396 89.5ZM390.344 90.344C391.791 88.897 393.792 88 396 88C398.208 88 400.209 88.897 401.656 90.344C403.103 91.791 404 93.7919 404 96C404 98.2081 403.103 100.209 401.656 101.656C400.209 103.103 398.208 104 396 104C393.792 104 391.791 103.103 390.344 101.656C388.897 100.209 388 98.2081 388 96C388 93.7919 388.897 91.791 390.344 90.344Z" fill="#73798B"/>
<mask id="mask0_3885_3738" style="mask-type:alpha" maskUnits="userSpaceOnUse" x="48" y="140" width="264" height="264">
<path fill-rule="evenodd" clip-rule="evenodd" d="M180 404C252.902 404 312 344.902 312 272C312 199.098 252.902 140 180 140C107.098 140 48 199.098 48 272C48 344.902 107.098 404 180 404ZM180 339.823C217.458 339.823 247.823 309.458 247.823 272C247.823 234.542 217.458 204.177 180 204.177C142.542 204.177 112.177 234.542 112.177 272C112.177 309.458 142.542 339.823 180 339.823Z" fill="#D9D9D9"/>
</mask>
<g mask="url(#mask0_3885_3738)">
<path d="M180.446 75.3369V280.472L336.527 333.094L370.419 288.945V148.918L180.446 75.3369Z" fill="#424AFF"/>
<path d="M234.851 451.716L180.446 280.473L336.527 333.094L370.419 288.946L382.905 385.27L234.851 451.716Z" fill="#4A92FF"/>
<path d="M234.851 451.716L180.446 280.473L36.4054 451.716H234.851Z" fill="#8069FF"/>
<path d="M29.7162 294.297L180.446 280.473L36.4054 451.716L29.7162 294.297Z" fill="#3FE1CD"/>
<path d="M29.7162 294.297L180.446 280.473L25.2568 191.729L29.7162 294.297Z" fill="#B7E13F"/>
<path d="M56.473 120.378L180.446 280.473L25.2568 191.729L56.473 120.378Z" fill="#FFF84A"/>
<path d="M56.473 120.377L180.446 280.472L123.365 84.2559L56.473 120.377Z" fill="#FF964A"/>
<path d="M153.689 -11.6221L180.446 280.473L123.365 84.2563L153.689 -11.6221Z" fill="#FE70B5"/>
<path d="M153.689 -11.6221L180.446 280.473V81.5806L153.689 -11.6221Z" fill="#FF5C5C"/>
</g>
<g clip-path="url(#clip1_3885_3738)">
<rect width="141.566" height="48" transform="translate(360 176)" fill="white"/>
<path d="M384.976 192.264V191.224H389.616C390.075 191.224 390.304 190.995 390.304 190.536V189.544C390.304 189.139 390.123 188.899 389.76 188.824L386.848 188.248C385.6 188.013 384.976 187.176 384.976 185.736V185.144C384.976 183.341 385.797 182.44 387.44 182.44H387.808V180.52H389.44V182.44H391.008L391.952 183.176V184.216H387.632C387.173 184.216 386.944 184.445 386.944 184.904V185.784C386.944 186.2 387.125 186.44 387.488 186.504L390.4 187.096C391.648 187.352 392.272 188.184 392.272 189.592V190.296C392.272 192.099 391.451 193 389.808 193H389.44V194.92H387.808V193H385.92L384.976 192.264ZM398.15 192.264V191.224H402.79C403.248 191.224 403.478 190.995 403.478 190.536V188.856C403.478 188.397 403.248 188.168 402.79 188.168H399.334V186.392H402.79C403.248 186.392 403.478 186.157 403.478 185.688V184.424C403.478 183.965 403.248 183.736 402.79 183.736H398.31V182.696L399.254 181.96H402.838C404.576 181.96 405.446 182.829 405.446 184.568V185.64C405.446 186.067 405.312 186.413 405.046 186.68L404.486 187.24L405.046 187.8C405.312 188.067 405.446 188.413 405.446 188.84V190.392C405.446 192.131 404.576 193 402.838 193H399.094L398.15 192.264ZM407.24 193V189.496C407.24 188.077 407.864 187.24 409.112 186.984L412.184 186.36C412.546 186.285 412.728 186.045 412.728 185.64V184.424C412.728 183.965 412.498 183.736 412.04 183.736H407.56V182.696L408.504 181.96H412.088C413.826 181.96 414.696 182.829 414.696 184.568V185.592C414.696 187.011 414.072 187.848 412.824 188.104L409.752 188.728C409.389 188.803 409.208 189.043 409.208 189.448V191.224H414.696V193H407.24ZM416.01 195L416.938 190.92H418.746L418.938 191.224L417.402 195.336L416.01 195ZM420.674 192.264V191.224H425.634C426.092 191.224 426.322 190.995 426.322 190.536V188.696C426.322 188.237 426.092 188.008 425.634 188.008H420.834V181.96H427.81V183.736H422.802V186.232H425.682C427.42 186.232 428.29 187.101 428.29 188.84V190.392C428.29 192.131 427.42 193 425.682 193H421.618L420.674 192.264ZM430.084 190.392V184.568C430.084 182.829 430.953 181.96 432.692 181.96H434.932C436.67 181.96 437.54 182.829 437.54 184.568V190.392C437.54 192.131 436.67 193 434.932 193H432.692C430.953 193 430.084 192.131 430.084 190.392ZM432.052 190.536C432.052 190.995 432.281 191.224 432.74 191.224H434.884C435.342 191.224 435.572 190.995 435.572 190.536V184.424C435.572 183.965 435.342 183.736 434.884 183.736H432.74C432.281 183.736 432.052 183.965 432.052 184.424V190.536ZM439.334 191.224V189.608L442.822 181.96H444.486L444.71 182.376L441.494 189.432H444.822V186.12H446.79V193H444.822V191.224H439.334ZM448.104 195L449.032 190.92H450.84L451.032 191.224L449.496 195.336L448.104 195ZM452.927 190.392V184.568C452.927 182.829 453.797 181.96 455.535 181.96H457.775C459.514 181.96 460.383 182.829 460.383 184.568V190.392C460.383 192.131 459.514 193 457.775 193H455.535C453.797 193 452.927 192.131 452.927 190.392ZM454.895 190.536C454.895 190.995 455.125 191.224 455.583 191.224H457.727C458.186 191.224 458.415 190.995 458.415 190.536V184.424C458.415 183.965 458.186 183.736 457.727 183.736H455.583C455.125 183.736 454.895 183.965 454.895 184.424V190.536ZM462.177 193V189.496C462.177 188.077 462.801 187.24 464.049 186.984L467.121 186.36C467.484 186.285 467.665 186.045 467.665 185.64V184.424C467.665 183.965 467.436 183.736 466.977 183.736H462.497V182.696L463.441 181.96H467.025C468.764 181.96 469.633 182.829 469.633 184.568V185.592C469.633 187.011 469.009 187.848 467.761 188.104L464.689 188.728C464.327 188.803 464.145 189.043 464.145 189.448V191.224H469.633V193H462.177ZM471.267 192.264V191.224H476.227C476.686 191.224 476.915 190.995 476.915 190.536V188.696C476.915 188.237 476.686 188.008 476.227 188.008H471.427V181.96H478.403V183.736H473.395V186.232H476.275C478.014 186.232 478.883 187.101 478.883 188.84V190.392C478.883 192.131 478.014 193 476.275 193H472.211L471.267 192.264ZM480.917 193V190.92H482.997V193H480.917ZM485.021 190.392V184.568C485.021 182.829 485.89 181.96 487.629 181.96H489.869C491.608 181.96 492.477 182.829 492.477 184.568V190.392C492.477 192.131 491.608 193 489.869 193H487.629C485.89 193 485.021 192.131 485.021 190.392ZM486.989 190.536C486.989 190.995 487.218 191.224 487.677 191.224H489.821C490.28 191.224 490.509 190.995 490.509 190.536V184.424C490.509 183.965 490.28 183.736 489.821 183.736H487.677C487.218 183.736 486.989 183.965 486.989 184.424V190.536ZM494.271 190.392V184.568C494.271 182.829 495.14 181.96 496.879 181.96H499.119C500.858 181.96 501.727 182.829 501.727 184.568V190.392C501.727 192.131 500.858 193 499.119 193H496.879C495.14 193 494.271 192.131 494.271 190.392ZM496.239 190.536C496.239 190.995 496.468 191.224 496.927 191.224H499.071C499.53 191.224 499.759 190.995 499.759 190.536V184.424C499.759 183.965 499.53 183.736 499.071 183.736H496.927C496.468 183.736 496.239 183.965 496.239 184.424V190.536Z" fill="#1C1C1C"/>
<rect x="360" y="180" width="16" height="16" rx="3" fill="#424AFF"/>
<path d="M389.964 213.974C390.319 214.03 390.641 214.175 390.93 214.408C391.229 214.641 391.462 214.931 391.63 215.276C391.807 215.621 391.896 215.99 391.896 216.382C391.896 216.877 391.77 217.325 391.518 217.726C391.266 218.118 390.897 218.431 390.412 218.664C389.936 218.888 389.371 219 388.718 219H385.078V209.242H388.578C389.241 209.242 389.805 209.354 390.272 209.578C390.739 209.793 391.089 210.087 391.322 210.46C391.555 210.833 391.672 211.253 391.672 211.72C391.672 212.299 391.513 212.779 391.196 213.162C390.888 213.535 390.477 213.806 389.964 213.974ZM386.352 213.456H388.494C389.091 213.456 389.553 213.316 389.88 213.036C390.207 212.756 390.37 212.369 390.37 211.874C390.37 211.379 390.207 210.992 389.88 210.712C389.553 210.432 389.082 210.292 388.466 210.292H386.352V213.456ZM388.606 217.95C389.241 217.95 389.735 217.801 390.09 217.502C390.445 217.203 390.622 216.788 390.622 216.256C390.622 215.715 390.435 215.29 390.062 214.982C389.689 214.665 389.189 214.506 388.564 214.506H386.352V217.95H388.606ZM399.67 209.242V210.278H397.01V219H395.736V210.278H393.062V209.242H399.67ZM400.762 214.114C400.762 213.162 400.977 212.308 401.406 211.552C401.835 210.787 402.419 210.189 403.156 209.76C403.903 209.331 404.729 209.116 405.634 209.116C406.698 209.116 407.627 209.373 408.42 209.886C409.213 210.399 409.792 211.127 410.156 212.07H408.63C408.359 211.482 407.967 211.029 407.454 210.712C406.95 210.395 406.343 210.236 405.634 210.236C404.953 210.236 404.341 210.395 403.8 210.712C403.259 211.029 402.834 211.482 402.526 212.07C402.218 212.649 402.064 213.33 402.064 214.114C402.064 214.889 402.218 215.57 402.526 216.158C402.834 216.737 403.259 217.185 403.8 217.502C404.341 217.819 404.953 217.978 405.634 217.978C406.343 217.978 406.95 217.824 407.454 217.516C407.967 217.199 408.359 216.746 408.63 216.158H410.156C409.792 217.091 409.213 217.815 408.42 218.328C407.627 218.832 406.698 219.084 405.634 219.084C404.729 219.084 403.903 218.874 403.156 218.454C402.419 218.025 401.835 217.432 401.406 216.676C400.977 215.92 400.762 215.066 400.762 214.114Z" fill="#73798B"/>
</g>
<rect width="141.566" height="48" transform="translate(360 248)" fill="white"/>
<path d="M384.976 264.264V263.224H389.616C390.075 263.224 390.304 262.995 390.304 262.536V261.544C390.304 261.139 390.123 260.899 389.76 260.824L386.848 260.248C385.6 260.013 384.976 259.176 384.976 257.736V257.144C384.976 255.341 385.797 254.44 387.44 254.44H387.808V252.52H389.44V254.44H391.008L391.952 255.176V256.216H387.632C387.173 256.216 386.944 256.445 386.944 256.904V257.784C386.944 258.2 387.125 258.44 387.488 258.504L390.4 259.096C391.648 259.352 392.272 260.184 392.272 261.592V262.296C392.272 264.099 391.451 265 389.808 265H389.44V266.92H387.808V265H385.92L384.976 264.264ZM397.99 258.12V256.568C397.99 254.829 398.859 253.96 400.598 253.96H402.838C404.576 253.96 405.446 254.829 405.446 256.568V261.88C405.446 263.96 404.4 265 402.31 265H399.414L398.47 264.264V263.224H402.374C403.11 263.224 403.478 262.856 403.478 262.12V260.728H400.598C398.859 260.728 397.99 259.859 397.99 258.12ZM399.958 258.248C399.958 258.717 400.187 258.952 400.646 258.952H403.478V256.424C403.478 255.965 403.248 255.736 402.79 255.736H400.646C400.187 255.736 399.958 255.965 399.958 256.424V258.248ZM406.76 267L407.688 262.92H409.496L409.688 263.224L408.152 267.336L406.76 267ZM411.584 255.736V253.96H419.04V257.176L414.928 265H413.184L412.944 264.584L417.072 256.76V255.736H411.584ZM420.993 264.264V263.224H425.634C426.092 263.224 426.322 262.995 426.322 262.536V260.856C426.322 260.397 426.092 260.168 425.634 260.168H422.178V258.392H425.634C426.092 258.392 426.322 258.157 426.322 257.688V256.424C426.322 255.965 426.092 255.736 425.634 255.736H421.154V254.696L422.098 253.96H425.682C427.42 253.96 428.29 254.829 428.29 256.568V257.64C428.29 258.067 428.156 258.413 427.89 258.68L427.33 259.24L427.89 259.8C428.156 260.067 428.29 260.413 428.29 260.84V262.392C428.29 264.131 427.42 265 425.682 265H421.938L420.993 264.264ZM430.084 258.12V256.568C430.084 254.829 430.953 253.96 432.692 253.96H434.932C436.67 253.96 437.54 254.829 437.54 256.568V261.88C437.54 263.96 436.494 265 434.404 265H431.508L430.564 264.264V263.224H434.468C435.204 263.224 435.572 262.856 435.572 262.12V260.728H432.692C430.953 260.728 430.084 259.859 430.084 258.12ZM432.052 258.248C432.052 258.717 432.281 258.952 432.74 258.952H435.572V256.424C435.572 255.965 435.342 255.736 434.884 255.736H432.74C432.281 255.736 432.052 255.965 432.052 256.424V258.248ZM438.854 267L439.782 262.92H441.59L441.782 263.224L440.246 267.336L438.854 267ZM444.125 265V263.224H446.685V255.736H444.589V254.696L445.533 253.96H448.637V263.224H450.941V265H444.125ZM452.927 262.392V256.568C452.927 254.829 453.797 253.96 455.535 253.96H457.775C459.514 253.96 460.383 254.829 460.383 256.568V262.392C460.383 264.131 459.514 265 457.775 265H455.535C453.797 265 452.927 264.131 452.927 262.392ZM454.895 262.536C454.895 262.995 455.125 263.224 455.583 263.224H457.727C458.186 263.224 458.415 262.995 458.415 262.536V256.424C458.415 255.965 458.186 255.736 457.727 255.736H455.583C455.125 255.736 454.895 255.965 454.895 256.424V262.536ZM462.177 262.392V256.568C462.177 254.829 463.047 253.96 464.785 253.96H467.025C468.764 253.96 469.633 254.829 469.633 256.568V262.392C469.633 264.131 468.764 265 467.025 265H464.785C463.047 265 462.177 264.131 462.177 262.392ZM464.145 262.536C464.145 262.995 464.375 263.224 464.833 263.224H466.977C467.436 263.224 467.665 262.995 467.665 262.536V256.424C467.665 255.965 467.436 255.736 466.977 255.736H464.833C464.375 255.736 464.145 255.965 464.145 256.424V262.536ZM471.667 265V262.92H473.747V265H471.667ZM475.771 258.12V256.568C475.771 254.829 476.64 253.96 478.379 253.96H480.619C482.358 253.96 483.227 254.829 483.227 256.568V261.88C483.227 263.96 482.182 265 480.091 265H477.195L476.251 264.264V263.224H480.155C480.891 263.224 481.259 262.856 481.259 262.12V260.728H478.379C476.64 260.728 475.771 259.859 475.771 258.12ZM477.739 258.248C477.739 258.717 477.968 258.952 478.427 258.952H481.259V256.424C481.259 255.965 481.03 255.736 480.571 255.736H478.427C477.968 255.736 477.739 255.965 477.739 256.424V258.248ZM484.861 264.264V263.224H489.821C490.28 263.224 490.509 262.995 490.509 262.536V260.696C490.509 260.237 490.28 260.008 489.821 260.008H485.021V253.96H491.997V255.736H486.989V258.232H489.869C491.608 258.232 492.477 259.101 492.477 260.84V262.392C492.477 264.131 491.608 265 489.869 265H485.805L484.861 264.264Z" fill="#1C1C1C"/>
<rect x="360" y="252" width="16" height="16" rx="3" fill="#3FE1CD"/>
<path d="M388.172 291.098C387.528 291.098 386.949 290.986 386.436 290.762C385.932 290.529 385.535 290.211 385.246 289.81C384.957 289.399 384.807 288.928 384.798 288.396H386.156C386.203 288.853 386.389 289.241 386.716 289.558C387.052 289.866 387.537 290.02 388.172 290.02C388.779 290.02 389.255 289.871 389.6 289.572C389.955 289.264 390.132 288.872 390.132 288.396C390.132 288.023 390.029 287.719 389.824 287.486C389.619 287.253 389.362 287.075 389.054 286.954C388.746 286.833 388.331 286.702 387.808 286.562C387.164 286.394 386.646 286.226 386.254 286.058C385.871 285.89 385.54 285.629 385.26 285.274C384.989 284.91 384.854 284.425 384.854 283.818C384.854 283.286 384.989 282.815 385.26 282.404C385.531 281.993 385.909 281.676 386.394 281.452C386.889 281.228 387.453 281.116 388.088 281.116C389.003 281.116 389.749 281.345 390.328 281.802C390.916 282.259 391.247 282.866 391.322 283.622H389.922C389.875 283.249 389.679 282.922 389.334 282.642C388.989 282.353 388.531 282.208 387.962 282.208C387.43 282.208 386.996 282.348 386.66 282.628C386.324 282.899 386.156 283.281 386.156 283.776C386.156 284.131 386.254 284.42 386.45 284.644C386.655 284.868 386.903 285.041 387.192 285.162C387.491 285.274 387.906 285.405 388.438 285.554C389.082 285.731 389.6 285.909 389.992 286.086C390.384 286.254 390.72 286.52 391 286.884C391.28 287.239 391.42 287.724 391.42 288.34C391.42 288.816 391.294 289.264 391.042 289.684C390.79 290.104 390.417 290.445 389.922 290.706C389.427 290.967 388.844 291.098 388.172 291.098ZM397.719 291.098C396.813 291.098 395.987 290.888 395.241 290.468C394.494 290.039 393.901 289.446 393.463 288.69C393.033 287.925 392.819 287.066 392.819 286.114C392.819 285.162 393.033 284.308 393.463 283.552C393.901 282.787 394.494 282.194 395.241 281.774C395.987 281.345 396.813 281.13 397.719 281.13C398.633 281.13 399.464 281.345 400.211 281.774C400.957 282.194 401.545 282.782 401.975 283.538C402.404 284.294 402.619 285.153 402.619 286.114C402.619 287.075 402.404 287.934 401.975 288.69C401.545 289.446 400.957 290.039 400.211 290.468C399.464 290.888 398.633 291.098 397.719 291.098ZM397.719 289.992C398.4 289.992 399.011 289.833 399.553 289.516C400.103 289.199 400.533 288.746 400.841 288.158C401.158 287.57 401.317 286.889 401.317 286.114C401.317 285.33 401.158 284.649 400.841 284.07C400.533 283.482 400.108 283.029 399.567 282.712C399.025 282.395 398.409 282.236 397.719 282.236C397.028 282.236 396.412 282.395 395.871 282.712C395.329 283.029 394.9 283.482 394.583 284.07C394.275 284.649 394.121 285.33 394.121 286.114C394.121 286.889 394.275 287.57 394.583 288.158C394.9 288.746 395.329 289.199 395.871 289.516C396.421 289.833 397.037 289.992 397.719 289.992ZM405.575 289.964H408.991V291H404.301V281.242H405.575V289.964Z" fill="#73798B"/>
<rect width="141.566" height="48" transform="translate(360 320)" fill="white"/>
<path d="M384.976 336.264V335.224H389.616C390.075 335.224 390.304 334.995 390.304 334.536V333.544C390.304 333.139 390.123 332.899 389.76 332.824L386.848 332.248C385.6 332.013 384.976 331.176 384.976 329.736V329.144C384.976 327.341 385.797 326.44 387.44 326.44H387.808V324.52H389.44V326.44H391.008L391.952 327.176V328.216H387.632C387.173 328.216 386.944 328.445 386.944 328.904V329.784C386.944 330.2 387.125 330.44 387.488 330.504L390.4 331.096C391.648 331.352 392.272 332.184 392.272 333.592V334.296C392.272 336.099 391.451 337 389.808 337H389.44V338.92H387.808V337H385.92L384.976 336.264ZM397.99 335.224V333.608L401.478 325.96H403.142L403.366 326.376L400.15 333.432H403.478V330.12H405.446V337H403.478V335.224H397.99ZM406.76 339L407.688 334.92H409.496L409.688 335.224L408.152 339.336L406.76 339ZM412.032 337V335.224H414.592V327.736H412.496V326.696L413.44 325.96H416.544V335.224H418.848V337H412.032ZM420.993 336.264V335.224H425.634C426.092 335.224 426.322 334.995 426.322 334.536V332.856C426.322 332.397 426.092 332.168 425.634 332.168H422.178V330.392H425.634C426.092 330.392 426.322 330.157 426.322 329.688V328.424C426.322 327.965 426.092 327.736 425.634 327.736H421.154V326.696L422.098 325.96H425.682C427.42 325.96 428.29 326.829 428.29 328.568V329.64C428.29 330.067 428.156 330.413 427.89 330.68L427.33 331.24L427.89 331.8C428.156 332.067 428.29 332.413 428.29 332.84V334.392C428.29 336.131 427.42 337 425.682 337H421.938L420.993 336.264ZM430.084 337V333.496C430.084 332.077 430.708 331.24 431.956 330.984L435.028 330.36C435.39 330.285 435.572 330.045 435.572 329.64V328.424C435.572 327.965 435.342 327.736 434.884 327.736H430.404V326.696L431.348 325.96H434.932C436.67 325.96 437.54 326.829 437.54 328.568V329.592C437.54 331.011 436.916 331.848 435.668 332.104L432.596 332.728C432.233 332.803 432.052 333.043 432.052 333.448V335.224H437.54V337H430.084ZM438.854 339L439.782 334.92H441.59L441.782 335.224L440.246 339.336L438.854 339ZM443.677 337V333.496C443.677 332.077 444.301 331.24 445.549 330.984L448.621 330.36C448.984 330.285 449.165 330.045 449.165 329.64V328.424C449.165 327.965 448.936 327.736 448.477 327.736H443.997V326.696L444.941 325.96H448.525C450.264 325.96 451.133 326.829 451.133 328.568V329.592C451.133 331.011 450.509 331.848 449.261 332.104L446.189 332.728C445.827 332.803 445.645 333.043 445.645 333.448V335.224H451.133V337H443.677ZM452.927 335.224V333.608L456.415 325.96H458.079L458.303 326.376L455.087 333.432H458.415V330.12H460.383V337H458.415V335.224H452.927ZM462.177 334.392V328.568C462.177 326.829 463.047 325.96 464.785 325.96H467.025C468.764 325.96 469.633 326.829 469.633 328.568V334.392C469.633 336.131 468.764 337 467.025 337H464.785C463.047 337 462.177 336.131 462.177 334.392ZM464.145 334.536C464.145 334.995 464.375 335.224 464.833 335.224H466.977C467.436 335.224 467.665 334.995 467.665 334.536V328.424C467.665 327.965 467.436 327.736 466.977 327.736H464.833C464.375 327.736 464.145 327.965 464.145 328.424V334.536ZM471.667 337V334.92H473.747V337H471.667ZM475.611 336.264V335.224H480.571C481.03 335.224 481.259 334.995 481.259 334.536V332.696C481.259 332.237 481.03 332.008 480.571 332.008H475.771V325.96H482.747V327.736H477.739V330.232H480.619C482.358 330.232 483.227 331.101 483.227 332.84V334.392C483.227 336.131 482.358 337 480.619 337H476.555L475.611 336.264ZM485.021 334.392V332.84C485.021 332.413 485.154 332.072 485.421 331.816L485.981 331.24L485.421 330.696C485.154 330.419 485.021 330.067 485.021 329.64V328.568C485.021 326.829 485.89 325.96 487.629 325.96H489.869C491.608 325.96 492.477 326.829 492.477 328.568V329.64C492.477 330.067 492.344 330.419 492.077 330.696L491.517 331.24L492.077 331.816C492.344 332.072 492.477 332.413 492.477 332.84V334.392C492.477 336.131 491.608 337 489.869 337H487.629C485.89 337 485.021 336.131 485.021 334.392ZM486.989 334.536C486.989 334.995 487.218 335.224 487.677 335.224H489.821C490.28 335.224 490.509 334.995 490.509 334.536V332.856C490.509 332.397 490.28 332.168 489.821 332.168H487.677C487.218 332.168 486.989 332.397 486.989 332.856V334.536ZM486.989 329.688C486.989 330.157 487.218 330.392 487.677 330.392H489.821C490.28 330.392 490.509 330.157 490.509 329.688V328.424C490.509 327.965 490.28 327.736 489.821 327.736H487.677C487.218 327.736 486.989 327.965 486.989 328.424V329.688Z" fill="#1C1C1C"/>
<rect x="360" y="324" width="16" height="16" rx="3" fill="#FF964A"/>
<path d="M386.324 353.242V359.416C386.324 360.284 386.534 360.928 386.954 361.348C387.383 361.768 387.976 361.978 388.732 361.978C389.479 361.978 390.062 361.768 390.482 361.348C390.911 360.928 391.126 360.284 391.126 359.416V353.242H392.4V359.402C392.4 360.214 392.237 360.9 391.91 361.46C391.583 362.011 391.14 362.421 390.58 362.692C390.029 362.963 389.409 363.098 388.718 363.098C388.027 363.098 387.402 362.963 386.842 362.692C386.291 362.421 385.853 362.011 385.526 361.46C385.209 360.9 385.05 360.214 385.05 359.402V353.242H386.324ZM397.619 363.098C396.975 363.098 396.397 362.986 395.883 362.762C395.379 362.529 394.983 362.211 394.693 361.81C394.404 361.399 394.255 360.928 394.245 360.396H395.603C395.65 360.853 395.837 361.241 396.163 361.558C396.499 361.866 396.985 362.02 397.619 362.02C398.226 362.02 398.702 361.871 399.047 361.572C399.402 361.264 399.579 360.872 399.579 360.396C399.579 360.023 399.477 359.719 399.271 359.486C399.066 359.253 398.809 359.075 398.501 358.954C398.193 358.833 397.778 358.702 397.255 358.562C396.611 358.394 396.093 358.226 395.701 358.058C395.319 357.89 394.987 357.629 394.707 357.274C394.437 356.91 394.301 356.425 394.301 355.818C394.301 355.286 394.437 354.815 394.707 354.404C394.978 353.993 395.356 353.676 395.841 353.452C396.336 353.228 396.901 353.116 397.535 353.116C398.45 353.116 399.197 353.345 399.775 353.802C400.363 354.259 400.695 354.866 400.769 355.622H399.369C399.323 355.249 399.127 354.922 398.781 354.642C398.436 354.353 397.979 354.208 397.409 354.208C396.877 354.208 396.443 354.348 396.107 354.628C395.771 354.899 395.603 355.281 395.603 355.776C395.603 356.131 395.701 356.42 395.897 356.644C396.103 356.868 396.35 357.041 396.639 357.162C396.938 357.274 397.353 357.405 397.885 357.554C398.529 357.731 399.047 357.909 399.439 358.086C399.831 358.254 400.167 358.52 400.447 358.884C400.727 359.239 400.867 359.724 400.867 360.34C400.867 360.816 400.741 361.264 400.489 361.684C400.237 362.104 399.864 362.445 399.369 362.706C398.875 362.967 398.291 363.098 397.619 363.098ZM405.78 353.242C406.844 353.242 407.763 353.443 408.538 353.844C409.322 354.236 409.919 354.801 410.33 355.538C410.75 356.275 410.96 357.143 410.96 358.142C410.96 359.141 410.75 360.009 410.33 360.746C409.919 361.474 409.322 362.034 408.538 362.426C407.763 362.809 406.844 363 405.78 363H402.742V353.242H405.78ZM405.78 361.95C407.04 361.95 408.001 361.619 408.664 360.956C409.327 360.284 409.658 359.346 409.658 358.142C409.658 356.929 409.322 355.981 408.65 355.3C407.987 354.619 407.031 354.278 405.78 354.278H404.016V361.95H405.78ZM412.165 358.114C412.165 357.162 412.379 356.308 412.809 355.552C413.238 354.787 413.821 354.189 414.559 353.76C415.305 353.331 416.131 353.116 417.037 353.116C418.101 353.116 419.029 353.373 419.823 353.886C420.616 354.399 421.195 355.127 421.559 356.07H420.033C419.762 355.482 419.37 355.029 418.857 354.712C418.353 354.395 417.746 354.236 417.037 354.236C416.355 354.236 415.744 354.395 415.203 354.712C414.661 355.029 414.237 355.482 413.929 356.07C413.621 356.649 413.467 357.33 413.467 358.114C413.467 358.889 413.621 359.57 413.929 360.158C414.237 360.737 414.661 361.185 415.203 361.502C415.744 361.819 416.355 361.978 417.037 361.978C417.746 361.978 418.353 361.824 418.857 361.516C419.37 361.199 419.762 360.746 420.033 360.158H421.559C421.195 361.091 420.616 361.815 419.823 362.328C419.029 362.832 418.101 363.084 417.037 363.084C416.131 363.084 415.305 362.874 414.559 362.454C413.821 362.025 413.238 361.432 412.809 360.676C412.379 359.92 412.165 359.066 412.165 358.114Z" fill="#73798B"/>
<g clip-path="url(#clip2_3885_3738)">
<rect width="141.566" height="48" transform="translate(524.217 248)" fill="white"/>
<path d="M549.193 264.264V263.224H553.833C554.292 263.224 554.521 262.995 554.521 262.536V261.544C554.521 261.139 554.34 260.899 553.977 260.824L551.065 260.248C549.817 260.013 549.193 259.176 549.193 257.736V257.144C549.193 255.341 550.014 254.44 551.657 254.44H552.025V252.52H553.657V254.44H555.225L556.169 255.176V256.216H551.849C551.39 256.216 551.161 256.445 551.161 256.904V257.784C551.161 258.2 551.342 258.44 551.705 258.504L554.617 259.096C555.865 259.352 556.489 260.184 556.489 261.592V262.296C556.489 264.099 555.668 265 554.025 265H553.657V266.92H552.025V265H550.137L549.193 264.264ZM562.207 255.736V253.96H569.663V257.176L565.551 265H563.807L563.567 264.584L567.695 256.76V255.736H562.207ZM570.977 267L571.905 262.92H573.713L573.905 263.224L572.369 267.336L570.977 267ZM575.8 263.224V261.608L579.288 253.96H580.952L581.176 254.376L577.96 261.432H581.288V258.12H583.256V265H581.288V263.224H575.8ZM585.05 258.12V256.568C585.05 254.829 585.92 253.96 587.658 253.96H589.898C591.637 253.96 592.506 254.829 592.506 256.568V261.88C592.506 263.96 591.461 265 589.37 265H586.474L585.53 264.264V263.224H589.434C590.17 263.224 590.538 262.856 590.538 262.12V260.728H587.658C585.92 260.728 585.05 259.859 585.05 258.12ZM587.018 258.248C587.018 258.717 587.248 258.952 587.706 258.952H590.538V256.424C590.538 255.965 590.309 255.736 589.85 255.736H587.706C587.248 255.736 587.018 255.965 587.018 256.424V258.248ZM594.46 264.264V263.224H599.1C599.559 263.224 599.788 262.995 599.788 262.536V260.856C599.788 260.397 599.559 260.168 599.1 260.168H595.644V258.392H599.1C599.559 258.392 599.788 258.157 599.788 257.688V256.424C599.788 255.965 599.559 255.736 599.1 255.736H594.62V254.696L595.564 253.96H599.148C600.887 253.96 601.756 254.829 601.756 256.568V257.64C601.756 258.067 601.623 258.413 601.356 258.68L600.796 259.24L601.356 259.8C601.623 260.067 601.756 260.413 601.756 260.84V262.392C601.756 264.131 600.887 265 599.148 265H595.404L594.46 264.264ZM603.07 267L603.998 262.92H605.806L605.998 263.224L604.462 267.336L603.07 267ZM607.894 263.224V261.608L611.382 253.96H613.046L613.27 254.376L610.054 261.432H613.382V258.12H615.35V265H613.382V263.224H607.894ZM617.304 264.264V263.224H621.944C622.403 263.224 622.632 262.995 622.632 262.536V260.856C622.632 260.397 622.403 260.168 621.944 260.168H618.488V258.392H621.944C622.403 258.392 622.632 258.157 622.632 257.688V256.424C622.632 255.965 622.403 255.736 621.944 255.736H617.464V254.696L618.408 253.96H621.992C623.731 253.96 624.6 254.829 624.6 256.568V257.64C624.6 258.067 624.467 258.413 624.2 258.68L623.64 259.24L624.2 259.8C624.467 260.067 624.6 260.413 624.6 260.84V262.392C624.6 264.131 623.731 265 621.992 265H618.248L617.304 264.264ZM626.394 265V261.496C626.394 260.077 627.018 259.24 628.266 258.984L631.338 258.36C631.701 258.285 631.882 258.045 631.882 257.64V256.424C631.882 255.965 631.653 255.736 631.194 255.736H626.714V254.696L627.658 253.96H631.242C632.981 253.96 633.85 254.829 633.85 256.568V257.592C633.85 259.011 633.226 259.848 631.978 260.104L628.906 260.728C628.543 260.803 628.362 261.043 628.362 261.448V263.224H633.85V265H626.394ZM635.884 265V262.92H637.964V265H635.884ZM639.988 263.224V261.608L643.476 253.96H645.14L645.364 254.376L642.148 261.432H645.476V258.12H647.444V265H645.476V263.224H639.988ZM649.398 264.264V263.224H654.038C654.497 263.224 654.726 262.995 654.726 262.536V260.856C654.726 260.397 654.497 260.168 654.038 260.168H650.582V258.392H654.038C654.497 258.392 654.726 258.157 654.726 257.688V256.424C654.726 255.965 654.497 255.736 654.038 255.736H649.558V254.696L650.502 253.96H654.086C655.825 253.96 656.694 254.829 656.694 256.568V257.64C656.694 258.067 656.561 258.413 656.294 258.68L655.734 259.24L656.294 259.8C656.561 260.067 656.694 260.413 656.694 260.84V262.392C656.694 264.131 655.825 265 654.086 265H650.342L649.398 264.264Z" fill="#1C1C1C"/>
<path d="M555.063 288.83H550.807L550.023 291H548.679L552.207 281.298H553.677L557.191 291H555.847L555.063 288.83ZM554.699 287.794L552.935 282.866L551.171 287.794H554.699ZM563.866 291L561.542 287.01H560.002V291H558.728V281.242H561.878C562.616 281.242 563.236 281.368 563.74 281.62C564.254 281.872 564.636 282.213 564.888 282.642C565.14 283.071 565.266 283.561 565.266 284.112C565.266 284.784 565.07 285.377 564.678 285.89C564.296 286.403 563.717 286.744 562.942 286.912L565.392 291H563.866ZM560.002 285.988H561.878C562.569 285.988 563.087 285.82 563.432 285.484C563.778 285.139 563.95 284.681 563.95 284.112C563.95 283.533 563.778 283.085 563.432 282.768C563.096 282.451 562.578 282.292 561.878 282.292H560.002V285.988ZM572.132 285.974C572.487 286.03 572.809 286.175 573.098 286.408C573.397 286.641 573.63 286.931 573.798 287.276C573.975 287.621 574.064 287.99 574.064 288.382C574.064 288.877 573.938 289.325 573.686 289.726C573.434 290.118 573.065 290.431 572.58 290.664C572.104 290.888 571.539 291 570.886 291H567.246V281.242H570.746C571.409 281.242 571.973 281.354 572.44 281.578C572.907 281.793 573.257 282.087 573.49 282.46C573.723 282.833 573.84 283.253 573.84 283.72C573.84 284.299 573.681 284.779 573.364 285.162C573.056 285.535 572.645 285.806 572.132 285.974ZM568.52 285.456H570.662C571.259 285.456 571.721 285.316 572.048 285.036C572.375 284.756 572.538 284.369 572.538 283.874C572.538 283.379 572.375 282.992 572.048 282.712C571.721 282.432 571.25 282.292 570.634 282.292H568.52V285.456ZM570.774 289.95C571.409 289.95 571.903 289.801 572.258 289.502C572.613 289.203 572.79 288.788 572.79 288.256C572.79 287.715 572.603 287.29 572.23 286.982C571.857 286.665 571.357 286.506 570.732 286.506H568.52V289.95H570.774Z" fill="#73798B"/>
<rect x="524.217" y="252" width="16" height="16" rx="3" fill="#B7E13F"/>
</g>
<g clip-path="url(#clip3_3885_3738)">
<rect width="141.566" height="48" transform="translate(524.217 176)" fill="white"/>
<path d="M549.193 192.264V191.224H553.833C554.292 191.224 554.521 190.995 554.521 190.536V189.544C554.521 189.139 554.34 188.899 553.977 188.824L551.065 188.248C549.817 188.013 549.193 187.176 549.193 185.736V185.144C549.193 183.341 550.014 182.44 551.657 182.44H552.025V180.52H553.657V182.44H555.225L556.169 183.176V184.216H551.849C551.39 184.216 551.161 184.445 551.161 184.904V185.784C551.161 186.2 551.342 186.44 551.705 186.504L554.617 187.096C555.865 187.352 556.489 188.184 556.489 189.592V190.296C556.489 192.099 555.668 193 554.025 193H553.657V194.92H552.025V193H550.137L549.193 192.264ZM562.655 193V191.224H565.215V183.736H563.119V182.696L564.063 181.96H567.167V191.224H569.471V193H562.655ZM571.905 193V191.224H574.465V183.736H572.369V182.696L573.313 181.96H576.417V191.224H578.721V193H571.905ZM580.227 195L581.155 190.92H582.963L583.155 191.224L581.619 195.336L580.227 195ZM584.89 192.264V191.224H589.85C590.309 191.224 590.538 190.995 590.538 190.536V188.696C590.538 188.237 590.309 188.008 589.85 188.008H585.05V181.96H592.026V183.736H587.018V186.232H589.898C591.637 186.232 592.506 187.101 592.506 188.84V190.392C592.506 192.131 591.637 193 589.898 193H585.834L584.89 192.264ZM594.3 191.224V189.608L597.788 181.96H599.452L599.676 182.376L596.46 189.432H599.788V186.12H601.756V193H599.788V191.224H594.3ZM603.55 190.392V184.568C603.55 182.829 604.42 181.96 606.158 181.96H608.398C610.137 181.96 611.006 182.829 611.006 184.568V190.392C611.006 192.131 610.137 193 608.398 193H606.158C604.42 193 603.55 192.131 603.55 190.392ZM605.518 190.536C605.518 190.995 605.748 191.224 606.206 191.224H608.35C608.809 191.224 609.038 190.995 609.038 190.536V184.424C609.038 183.965 608.809 183.736 608.35 183.736H606.206C605.748 183.736 605.518 183.965 605.518 184.424V190.536ZM612.32 195L613.248 190.92H615.056L615.248 191.224L613.712 195.336L612.32 195ZM616.984 192.264V191.224H621.944C622.403 191.224 622.632 190.995 622.632 190.536V188.696C622.632 188.237 622.403 188.008 621.944 188.008H617.144V181.96H624.12V183.736H619.112V186.232H621.992C623.731 186.232 624.6 187.101 624.6 188.84V190.392C624.6 192.131 623.731 193 621.992 193H617.928L616.984 192.264ZM626.394 191.224V189.608L629.882 181.96H631.546L631.77 182.376L628.554 189.432H631.882V186.12H633.85V193H631.882V191.224H626.394ZM635.804 192.264V191.224H640.444C640.903 191.224 641.132 190.995 641.132 190.536V188.856C641.132 188.397 640.903 188.168 640.444 188.168H636.988V186.392H640.444C640.903 186.392 641.132 186.157 641.132 185.688V184.424C641.132 183.965 640.903 183.736 640.444 183.736H635.964V182.696L636.908 181.96H640.492C642.231 181.96 643.1 182.829 643.1 184.568V185.64C643.1 186.067 642.967 186.413 642.7 186.68L642.14 187.24L642.7 187.8C642.967 188.067 643.1 188.413 643.1 188.84V190.392C643.1 192.131 642.231 193 640.492 193H636.748L635.804 192.264ZM645.134 193V190.92H647.214V193H645.134ZM649.238 190.392V184.568C649.238 182.829 650.107 181.96 651.846 181.96H654.086C655.825 181.96 656.694 182.829 656.694 184.568V190.392C656.694 192.131 655.825 193 654.086 193H651.846C650.107 193 649.238 192.131 649.238 190.392ZM651.206 190.536C651.206 190.995 651.435 191.224 651.894 191.224H654.038C654.497 191.224 654.726 190.995 654.726 190.536V184.424C654.726 183.965 654.497 183.736 654.038 183.736H651.894C651.435 183.736 651.206 183.965 651.206 184.424V190.536ZM658.488 190.392V184.568C658.488 182.829 659.357 181.96 661.096 181.96H663.336C665.075 181.96 665.944 182.829 665.944 184.568V190.392C665.944 192.131 665.075 193 663.336 193H661.096C659.357 193 658.488 192.131 658.488 190.392ZM660.456 190.536C660.456 190.995 660.685 191.224 661.144 191.224H663.288C663.747 191.224 663.976 190.995 663.976 190.536V184.424C663.976 183.965 663.747 183.736 663.288 183.736H661.144C660.685 183.736 660.456 183.965 660.456 184.424V190.536Z" fill="#1C1C1C"/>
<path d="M550.569 210.278V213.54H554.125V214.59H550.569V217.95H554.545V219H549.295V209.228H554.545V210.278H550.569ZM562.479 209.242V210.278H559.819V219H558.545V210.278H555.871V209.242H562.479ZM571.565 209.242V219H570.291V214.576H565.321V219H564.047V209.242H565.321V213.526H570.291V209.242H571.565Z" fill="#73798B"/>
<rect x="524.217" y="180" width="16" height="16" rx="3" fill="#4A92FF"/>
</g>
<g clip-path="url(#clip4_3885_3738)">
<rect width="141.566" height="48" transform="translate(688.434 248)" fill="white"/>
<path d="M713.41 264.264V263.224H718.05C718.508 263.224 718.738 262.995 718.738 262.536V261.544C718.738 261.139 718.556 260.899 718.194 260.824L715.282 260.248C714.034 260.013 713.41 259.176 713.41 257.736V257.144C713.41 255.341 714.231 254.44 715.874 254.44H716.242V252.52H717.874V254.44H719.442L720.386 255.176V256.216H716.066C715.607 256.216 715.378 256.445 715.378 256.904V257.784C715.378 258.2 715.559 258.44 715.922 258.504L718.834 259.096C720.082 259.352 720.706 260.184 720.706 261.592V262.296C720.706 264.099 719.884 265 718.242 265H717.874V266.92H716.242V265H714.354L713.41 264.264ZM726.423 263.224V261.608L729.911 253.96H731.575L731.799 254.376L728.583 261.432H731.911V258.12H733.879V265H731.911V263.224H726.423ZM735.193 267L736.121 262.92H737.929L738.121 263.224L736.585 267.336L735.193 267ZM740.017 265V261.496C740.017 260.077 740.641 259.24 741.889 258.984L744.961 258.36C745.324 258.285 745.505 258.045 745.505 257.64V256.424C745.505 255.965 745.276 255.736 744.817 255.736H740.337V254.696L741.281 253.96H744.865C746.604 253.96 747.473 254.829 747.473 256.568V257.592C747.473 259.011 746.849 259.848 745.601 260.104L742.529 260.728C742.167 260.803 741.985 261.043 741.985 261.448V263.224H747.473V265H740.017ZM749.427 264.264V263.224H754.067C754.526 263.224 754.755 262.995 754.755 262.536V260.856C754.755 260.397 754.526 260.168 754.067 260.168H750.611V258.392H754.067C754.526 258.392 754.755 258.157 754.755 257.688V256.424C754.755 255.965 754.526 255.736 754.067 255.736H749.587V254.696L750.531 253.96H754.115C755.854 253.96 756.723 254.829 756.723 256.568V257.64C756.723 258.067 756.59 258.413 756.323 258.68L755.763 259.24L756.323 259.8C756.59 260.067 756.723 260.413 756.723 260.84V262.392C756.723 264.131 755.854 265 754.115 265H750.371L749.427 264.264ZM758.517 262.392V256.568C758.517 254.829 759.387 253.96 761.125 253.96H763.365C765.104 253.96 765.973 254.829 765.973 256.568V262.392C765.973 264.131 765.104 265 763.365 265H761.125C759.387 265 758.517 264.131 758.517 262.392ZM760.485 262.536C760.485 262.995 760.715 263.224 761.173 263.224H763.317C763.776 263.224 764.005 262.995 764.005 262.536V256.424C764.005 255.965 763.776 255.736 763.317 255.736H761.173C760.715 255.736 760.485 255.965 760.485 256.424V262.536ZM767.287 267L768.215 262.92H770.023L770.215 263.224L768.679 267.336L767.287 267ZM772.271 264.264V263.224H776.911C777.37 263.224 777.599 262.995 777.599 262.536V260.856C777.599 260.397 777.37 260.168 776.911 260.168H773.455V258.392H776.911C777.37 258.392 777.599 258.157 777.599 257.688V256.424C777.599 255.965 777.37 255.736 776.911 255.736H772.431V254.696L773.375 253.96H776.959C778.698 253.96 779.567 254.829 779.567 256.568V257.64C779.567 258.067 779.434 258.413 779.167 258.68L778.607 259.24L779.167 259.8C779.434 260.067 779.567 260.413 779.567 260.84V262.392C779.567 264.131 778.698 265 776.959 265H773.215L772.271 264.264ZM781.361 265V261.496C781.361 260.077 781.985 259.24 783.233 258.984L786.305 258.36C786.668 258.285 786.849 258.045 786.849 257.64V256.424C786.849 255.965 786.62 255.736 786.161 255.736H781.681V254.696L782.625 253.96H786.209C787.948 253.96 788.817 254.829 788.817 256.568V257.592C788.817 259.011 788.193 259.848 786.945 260.104L783.873 260.728C783.51 260.803 783.329 261.043 783.329 261.448V263.224H788.817V265H781.361ZM790.451 264.264V263.224H795.411C795.87 263.224 796.099 262.995 796.099 262.536V260.696C796.099 260.237 795.87 260.008 795.411 260.008H790.611V253.96H797.587V255.736H792.579V258.232H795.459C797.198 258.232 798.067 259.101 798.067 260.84V262.392C798.067 264.131 797.198 265 795.459 265H791.395L790.451 264.264ZM800.101 265V262.92H802.181V265H800.101ZM804.205 263.224V261.608L807.693 253.96H809.357L809.581 254.376L806.365 261.432H809.693V258.12H811.661V265H809.693V263.224H804.205ZM813.455 262.392V256.568C813.455 254.829 814.324 253.96 816.063 253.96H818.303C820.041 253.96 820.911 254.829 820.911 256.568V262.392C820.911 264.131 820.041 265 818.303 265H816.063C814.324 265 813.455 264.131 813.455 262.392ZM815.423 262.536C815.423 262.995 815.652 263.224 816.111 263.224H818.255C818.713 263.224 818.943 262.995 818.943 262.536V256.424C818.943 255.965 818.713 255.736 818.255 255.736H816.111C815.652 255.736 815.423 255.965 815.423 256.424V262.536Z" fill="#1C1C1C"/>
<path d="M717.936 291.098C717.03 291.098 716.204 290.888 715.458 290.468C714.711 290.039 714.118 289.446 713.68 288.69C713.25 287.925 713.036 287.066 713.036 286.114C713.036 285.162 713.25 284.308 713.68 283.552C714.118 282.787 714.711 282.194 715.458 281.774C716.204 281.345 717.03 281.13 717.936 281.13C718.85 281.13 719.681 281.345 720.428 281.774C721.174 282.194 721.762 282.782 722.192 283.538C722.621 284.294 722.836 285.153 722.836 286.114C722.836 287.075 722.621 287.934 722.192 288.69C721.762 289.446 721.174 290.039 720.428 290.468C719.681 290.888 718.85 291.098 717.936 291.098ZM717.936 289.992C718.617 289.992 719.228 289.833 719.77 289.516C720.32 289.199 720.75 288.746 721.058 288.158C721.375 287.57 721.534 286.889 721.534 286.114C721.534 285.33 721.375 284.649 721.058 284.07C720.75 283.482 720.325 283.029 719.784 282.712C719.242 282.395 718.626 282.236 717.936 282.236C717.245 282.236 716.629 282.395 716.088 282.712C715.546 283.029 715.117 283.482 714.8 284.07C714.492 284.649 714.338 285.33 714.338 286.114C714.338 286.889 714.492 287.57 714.8 288.158C715.117 288.746 715.546 289.199 716.088 289.516C716.638 289.833 717.254 289.992 717.936 289.992ZM731.042 284.098C731.042 284.91 730.762 285.587 730.202 286.128C729.651 286.66 728.806 286.926 727.668 286.926H725.792V291H724.518V281.242H727.668C728.769 281.242 729.604 281.508 730.174 282.04C730.752 282.572 731.042 283.258 731.042 284.098ZM727.668 285.876C728.377 285.876 728.9 285.722 729.236 285.414C729.572 285.106 729.74 284.667 729.74 284.098C729.74 282.894 729.049 282.292 727.668 282.292H725.792V285.876H727.668Z" fill="#73798B"/>
<rect x="688.434" y="252" width="16" height="16" rx="3" fill="#FFF84A"/>
</g>
<g clip-path="url(#clip5_3885_3738)">
<rect width="141.566" height="48" transform="translate(524.217 320)" fill="white"/>
<path d="M549.193 336.264V335.224H553.833C554.292 335.224 554.521 334.995 554.521 334.536V333.544C554.521 333.139 554.34 332.899 553.977 332.824L551.065 332.248C549.817 332.013 549.193 331.176 549.193 329.736V329.144C549.193 327.341 550.014 326.44 551.657 326.44H552.025V324.52H553.657V326.44H555.225L556.169 327.176V328.216H551.849C551.39 328.216 551.161 328.445 551.161 328.904V329.784C551.161 330.2 551.342 330.44 551.705 330.504L554.617 331.096C555.865 331.352 556.489 332.184 556.489 333.592V334.296C556.489 336.099 555.668 337 554.025 337H553.657V338.92H552.025V337H550.137L549.193 336.264ZM562.655 337V335.224H565.215V327.736H563.119V326.696L564.063 325.96H567.167V335.224H569.471V337H562.655ZM570.977 339L571.905 334.92H573.713L573.905 335.224L572.369 339.336L570.977 339ZM575.8 334.392V332.84C575.8 332.413 575.934 332.072 576.2 331.816L576.76 331.24L576.2 330.696C575.934 330.419 575.8 330.067 575.8 329.64V328.568C575.8 326.829 576.67 325.96 578.408 325.96H580.648C582.387 325.96 583.256 326.829 583.256 328.568V329.64C583.256 330.067 583.123 330.419 582.856 330.696L582.296 331.24L582.856 331.816C583.123 332.072 583.256 332.413 583.256 332.84V334.392C583.256 336.131 582.387 337 580.648 337H578.408C576.67 337 575.8 336.131 575.8 334.392ZM577.768 334.536C577.768 334.995 577.998 335.224 578.456 335.224H580.6C581.059 335.224 581.288 334.995 581.288 334.536V332.856C581.288 332.397 581.059 332.168 580.6 332.168H578.456C577.998 332.168 577.768 332.397 577.768 332.856V334.536ZM577.768 329.688C577.768 330.157 577.998 330.392 578.456 330.392H580.6C581.059 330.392 581.288 330.157 581.288 329.688V328.424C581.288 327.965 581.059 327.736 580.6 327.736H578.456C577.998 327.736 577.768 327.965 577.768 328.424V329.688ZM585.05 334.392V328.568C585.05 326.829 585.92 325.96 587.658 325.96H589.898C591.637 325.96 592.506 326.829 592.506 328.568V334.392C592.506 336.131 591.637 337 589.898 337H587.658C585.92 337 585.05 336.131 585.05 334.392ZM587.018 334.536C587.018 334.995 587.248 335.224 587.706 335.224H589.85C590.309 335.224 590.538 334.995 590.538 334.536V328.424C590.538 327.965 590.309 327.736 589.85 327.736H587.706C587.248 327.736 587.018 327.965 587.018 328.424V334.536ZM594.3 330.12V328.568C594.3 326.829 595.17 325.96 596.908 325.96H599.148C600.887 325.96 601.756 326.829 601.756 328.568V333.88C601.756 335.96 600.711 337 598.62 337H595.724L594.78 336.264V335.224H598.684C599.42 335.224 599.788 334.856 599.788 334.12V332.728H596.908C595.17 332.728 594.3 331.859 594.3 330.12ZM596.268 330.248C596.268 330.717 596.498 330.952 596.956 330.952H599.788V328.424C599.788 327.965 599.559 327.736 599.1 327.736H596.956C596.498 327.736 596.268 327.965 596.268 328.424V330.248ZM603.07 339L603.998 334.92H605.806L605.998 335.224L604.462 339.336L603.07 339ZM607.894 330.12V328.568C607.894 326.829 608.763 325.96 610.502 325.96H612.742C614.481 325.96 615.35 326.829 615.35 328.568V333.88C615.35 335.96 614.305 337 612.214 337H609.318L608.374 336.264V335.224H612.278C613.014 335.224 613.382 334.856 613.382 334.12V332.728H610.502C608.763 332.728 607.894 331.859 607.894 330.12ZM609.862 330.248C609.862 330.717 610.091 330.952 610.55 330.952H613.382V328.424C613.382 327.965 613.153 327.736 612.694 327.736H610.55C610.091 327.736 609.862 327.965 609.862 328.424V330.248ZM616.984 336.264V335.224H621.944C622.403 335.224 622.632 334.995 622.632 334.536V332.696C622.632 332.237 622.403 332.008 621.944 332.008H617.144V325.96H624.12V327.736H619.112V330.232H621.992C623.731 330.232 624.6 331.101 624.6 332.84V334.392C624.6 336.131 623.731 337 621.992 337H617.928L616.984 336.264ZM626.554 336.264V335.224H631.194C631.653 335.224 631.882 334.995 631.882 334.536V332.856C631.882 332.397 631.653 332.168 631.194 332.168H627.738V330.392H631.194C631.653 330.392 631.882 330.157 631.882 329.688V328.424C631.882 327.965 631.653 327.736 631.194 327.736H626.714V326.696L627.658 325.96H631.242C632.981 325.96 633.85 326.829 633.85 328.568V329.64C633.85 330.067 633.717 330.413 633.45 330.68L632.89 331.24L633.45 331.8C633.717 332.067 633.85 332.413 633.85 332.84V334.392C633.85 336.131 632.981 337 631.242 337H627.498L626.554 336.264ZM635.884 337V334.92H637.964V337H635.884ZM639.828 336.264V335.224H644.788C645.247 335.224 645.476 334.995 645.476 334.536V332.696C645.476 332.237 645.247 332.008 644.788 332.008H639.988V325.96H646.964V327.736H641.956V330.232H644.836C646.575 330.232 647.444 331.101 647.444 332.84V334.392C647.444 336.131 646.575 337 644.836 337H640.772L639.828 336.264ZM649.238 334.392V329.08C649.238 327 650.283 325.96 652.374 325.96H655.11L656.054 326.696V327.736H652.31C651.574 327.736 651.206 328.104 651.206 328.84V330.232H654.086C655.825 330.232 656.694 331.101 656.694 332.84V334.392C656.694 336.131 655.825 337 654.086 337H651.846C650.107 337 649.238 336.131 649.238 334.392ZM651.206 334.536C651.206 334.995 651.435 335.224 651.894 335.224H654.038C654.497 335.224 654.726 334.995 654.726 334.536V332.696C654.726 332.237 654.497 332.008 654.038 332.008H651.206V334.536Z" fill="#1C1C1C"/>
<path d="M554.181 357.974C554.536 358.03 554.858 358.175 555.147 358.408C555.446 358.641 555.679 358.931 555.847 359.276C556.024 359.621 556.113 359.99 556.113 360.382C556.113 360.877 555.987 361.325 555.735 361.726C555.483 362.118 555.114 362.431 554.629 362.664C554.153 362.888 553.588 363 552.935 363H549.295V353.242H552.795C553.458 353.242 554.022 353.354 554.489 353.578C554.956 353.793 555.306 354.087 555.539 354.46C555.772 354.833 555.889 355.253 555.889 355.72C555.889 356.299 555.73 356.779 555.413 357.162C555.105 357.535 554.694 357.806 554.181 357.974ZM550.569 357.456H552.711C553.308 357.456 553.77 357.316 554.097 357.036C554.424 356.756 554.587 356.369 554.587 355.874C554.587 355.379 554.424 354.992 554.097 354.712C553.77 354.432 553.299 354.292 552.683 354.292H550.569V357.456ZM552.823 361.95C553.458 361.95 553.952 361.801 554.307 361.502C554.662 361.203 554.839 360.788 554.839 360.256C554.839 359.715 554.652 359.29 554.279 358.982C553.906 358.665 553.406 358.506 552.781 358.506H550.569V361.95H552.823ZM565.553 363H564.279L559.155 355.23V363H557.881V353.228H559.155L564.279 360.984V353.228H565.553V363ZM572.611 357.974C572.965 358.03 573.287 358.175 573.577 358.408C573.875 358.641 574.109 358.931 574.277 359.276C574.454 359.621 574.543 359.99 574.543 360.382C574.543 360.877 574.417 361.325 574.165 361.726C573.913 362.118 573.544 362.431 573.059 362.664C572.583 362.888 572.018 363 571.365 363H567.725V353.242H571.225C571.887 353.242 572.452 353.354 572.919 353.578C573.385 353.793 573.735 354.087 573.969 354.46C574.202 354.833 574.319 355.253 574.319 355.72C574.319 356.299 574.16 356.779 573.843 357.162C573.535 357.535 573.124 357.806 572.611 357.974ZM568.999 357.456H571.141C571.738 357.456 572.2 357.316 572.527 357.036C572.853 356.756 573.017 356.369 573.017 355.874C573.017 355.379 572.853 354.992 572.527 354.712C572.2 354.432 571.729 354.292 571.113 354.292H568.999V357.456ZM571.253 361.95C571.887 361.95 572.382 361.801 572.737 361.502C573.091 361.203 573.269 360.788 573.269 360.256C573.269 359.715 573.082 359.29 572.709 358.982C572.335 358.665 571.836 358.506 571.211 358.506H568.999V361.95H571.253Z" fill="#73798B"/>
<rect x="524.217" y="324" width="16" height="16" rx="3" fill="#FE70B5"/>
</g>
<g clip-path="url(#clip6_3885_3738)">
<rect width="141.566" height="48" transform="translate(688.434 176)" fill="white"/>
<path d="M713.41 192.264V191.224H718.05C718.508 191.224 718.738 190.995 718.738 190.536V189.544C718.738 189.139 718.556 188.899 718.194 188.824L715.282 188.248C714.034 188.013 713.41 187.176 713.41 185.736V185.144C713.41 183.341 714.231 182.44 715.874 182.44H716.242V180.52H717.874V182.44H719.442L720.386 183.176V184.216H716.066C715.607 184.216 715.378 184.445 715.378 184.904V185.784C715.378 186.2 715.559 186.44 715.922 186.504L718.834 187.096C720.082 187.352 720.706 188.184 720.706 189.592V190.296C720.706 192.099 719.884 193 718.242 193H717.874V194.92H716.242V193H714.354L713.41 192.264ZM726.871 193V191.224H729.431V183.736H727.335V182.696L728.279 181.96H731.383V191.224H733.687V193H726.871ZM735.673 190.392V184.568C735.673 182.829 736.543 181.96 738.281 181.96H740.521C742.26 181.96 743.129 182.829 743.129 184.568V190.392C743.129 192.131 742.26 193 740.521 193H738.281C736.543 193 735.673 192.131 735.673 190.392ZM737.641 190.536C737.641 190.995 737.871 191.224 738.329 191.224H740.473C740.932 191.224 741.161 190.995 741.161 190.536V184.424C741.161 183.965 740.932 183.736 740.473 183.736H738.329C737.871 183.736 737.641 183.965 737.641 184.424V190.536ZM744.443 195L745.371 190.92H747.179L747.371 191.224L745.835 195.336L744.443 195ZM749.267 193V189.496C749.267 188.077 749.891 187.24 751.139 186.984L754.211 186.36C754.574 186.285 754.755 186.045 754.755 185.64V184.424C754.755 183.965 754.526 183.736 754.067 183.736H749.587V182.696L750.531 181.96H754.115C755.854 181.96 756.723 182.829 756.723 184.568V185.592C756.723 187.011 756.099 187.848 754.851 188.104L751.779 188.728C751.417 188.803 751.235 189.043 751.235 189.448V191.224H756.723V193H749.267ZM758.677 192.264V191.224H763.317C763.776 191.224 764.005 190.995 764.005 190.536V188.856C764.005 188.397 763.776 188.168 763.317 188.168H759.861V186.392H763.317C763.776 186.392 764.005 186.157 764.005 185.688V184.424C764.005 183.965 763.776 183.736 763.317 183.736H758.837V182.696L759.781 181.96H763.365C765.104 181.96 765.973 182.829 765.973 184.568V185.64C765.973 186.067 765.84 186.413 765.573 186.68L765.013 187.24L765.573 187.8C765.84 188.067 765.973 188.413 765.973 188.84V190.392C765.973 192.131 765.104 193 763.365 193H759.621L758.677 192.264ZM767.767 183.736V181.96H775.223V185.176L771.111 193H769.367L769.127 192.584L773.255 184.76V183.736H767.767ZM776.537 195L777.465 190.92H779.273L779.465 191.224L777.929 195.336L776.537 195ZM781.521 192.264V191.224H786.161C786.62 191.224 786.849 190.995 786.849 190.536V188.856C786.849 188.397 786.62 188.168 786.161 188.168H782.705V186.392H786.161C786.62 186.392 786.849 186.157 786.849 185.688V184.424C786.849 183.965 786.62 183.736 786.161 183.736H781.681V182.696L782.625 181.96H786.209C787.948 181.96 788.817 182.829 788.817 184.568V185.64C788.817 186.067 788.684 186.413 788.417 186.68L787.857 187.24L788.417 187.8C788.684 188.067 788.817 188.413 788.817 188.84V190.392C788.817 192.131 787.948 193 786.209 193H782.465L781.521 192.264ZM790.611 193V189.496C790.611 188.077 791.235 187.24 792.483 186.984L795.555 186.36C795.918 186.285 796.099 186.045 796.099 185.64V184.424C796.099 183.965 795.87 183.736 795.411 183.736H790.931V182.696L791.875 181.96H795.459C797.198 181.96 798.067 182.829 798.067 184.568V185.592C798.067 187.011 797.443 187.848 796.195 188.104L793.123 188.728C792.76 188.803 792.579 189.043 792.579 189.448V191.224H798.067V193H790.611ZM799.861 190.392V184.568C799.861 182.829 800.73 181.96 802.469 181.96H804.709C806.448 181.96 807.317 182.829 807.317 184.568V190.392C807.317 192.131 806.448 193 804.709 193H802.469C800.73 193 799.861 192.131 799.861 190.392ZM801.829 190.536C801.829 190.995 802.058 191.224 802.517 191.224H804.661C805.12 191.224 805.349 190.995 805.349 190.536V184.424C805.349 183.965 805.12 183.736 804.661 183.736H802.517C802.058 183.736 801.829 183.965 801.829 184.424V190.536ZM809.351 193V190.92H811.431V193H809.351ZM813.455 193V189.496C813.455 188.077 814.079 187.24 815.327 186.984L818.399 186.36C818.761 186.285 818.943 186.045 818.943 185.64V184.424C818.943 183.965 818.713 183.736 818.255 183.736H813.775V182.696L814.719 181.96H818.303C820.041 181.96 820.911 182.829 820.911 184.568V185.592C820.911 187.011 820.287 187.848 819.039 188.104L815.967 188.728C815.604 188.803 815.423 189.043 815.423 189.448V191.224H820.911V193H813.455ZM823.153 193V191.224H825.713V183.736H823.617V182.696L824.561 181.96H827.665V191.224H829.969V193H823.153Z" fill="#1C1C1C"/>
<path d="M714.758 209.242V215.416C714.758 216.284 714.968 216.928 715.388 217.348C715.817 217.768 716.41 217.978 717.166 217.978C717.912 217.978 718.496 217.768 718.916 217.348C719.345 216.928 719.56 216.284 719.56 215.416V209.242H720.834V215.402C720.834 216.214 720.67 216.9 720.344 217.46C720.017 218.011 719.574 218.421 719.014 218.692C718.463 218.963 717.842 219.098 717.152 219.098C716.461 219.098 715.836 218.963 715.276 218.692C714.725 218.421 714.286 218.011 713.96 217.46C713.642 216.9 713.484 216.214 713.484 215.402V209.242H714.758ZM726.053 219.098C725.409 219.098 724.83 218.986 724.317 218.762C723.813 218.529 723.416 218.211 723.127 217.81C722.838 217.399 722.688 216.928 722.679 216.396H724.037C724.084 216.853 724.27 217.241 724.597 217.558C724.933 217.866 725.418 218.02 726.053 218.02C726.66 218.02 727.136 217.871 727.481 217.572C727.836 217.264 728.013 216.872 728.013 216.396C728.013 216.023 727.91 215.719 727.705 215.486C727.5 215.253 727.243 215.075 726.935 214.954C726.627 214.833 726.212 214.702 725.689 214.562C725.045 214.394 724.527 214.226 724.135 214.058C723.752 213.89 723.421 213.629 723.141 213.274C722.87 212.91 722.735 212.425 722.735 211.818C722.735 211.286 722.87 210.815 723.141 210.404C723.412 209.993 723.79 209.676 724.275 209.452C724.77 209.228 725.334 209.116 725.969 209.116C726.884 209.116 727.63 209.345 728.209 209.802C728.797 210.259 729.128 210.866 729.203 211.622H727.803C727.756 211.249 727.56 210.922 727.215 210.642C726.87 210.353 726.412 210.208 725.843 210.208C725.311 210.208 724.877 210.348 724.541 210.628C724.205 210.899 724.037 211.281 724.037 211.776C724.037 212.131 724.135 212.42 724.331 212.644C724.536 212.868 724.784 213.041 725.073 213.162C725.372 213.274 725.787 213.405 726.319 213.554C726.963 213.731 727.481 213.909 727.873 214.086C728.265 214.254 728.601 214.52 728.881 214.884C729.161 215.239 729.301 215.724 729.301 216.34C729.301 216.816 729.175 217.264 728.923 217.684C728.671 218.104 728.298 218.445 727.803 218.706C727.308 218.967 726.725 219.098 726.053 219.098ZM734.214 209.242C735.278 209.242 736.197 209.443 736.972 209.844C737.756 210.236 738.353 210.801 738.764 211.538C739.184 212.275 739.394 213.143 739.394 214.142C739.394 215.141 739.184 216.009 738.764 216.746C738.353 217.474 737.756 218.034 736.972 218.426C736.197 218.809 735.278 219 734.214 219H731.176V209.242H734.214ZM734.214 217.95C735.474 217.95 736.435 217.619 737.098 216.956C737.76 216.284 738.092 215.346 738.092 214.142C738.092 212.929 737.756 211.981 737.084 211.3C736.421 210.619 735.464 210.278 734.214 210.278H732.45V217.95H734.214ZM747.08 209.242V210.278H744.42V219H743.146V210.278H740.472V209.242H747.08Z" fill="#73798B"/>
<rect x="688.434" y="180" width="16" height="16" rx="3" fill="#8069FF"/>
</g>
<g clip-path="url(#clip7_3885_3738)">
<rect width="141.566" height="48" transform="translate(688.434 320)" fill="white"/>
<path d="M713.41 336.264V335.224H718.05C718.508 335.224 718.738 334.995 718.738 334.536V333.544C718.738 333.139 718.556 332.899 718.194 332.824L715.282 332.248C714.034 332.013 713.41 331.176 713.41 329.736V329.144C713.41 327.341 714.231 326.44 715.874 326.44H716.242V324.52H717.874V326.44H719.442L720.386 327.176V328.216H716.066C715.607 328.216 715.378 328.445 715.378 328.904V329.784C715.378 330.2 715.559 330.44 715.922 330.504L718.834 331.096C720.082 331.352 720.706 332.184 720.706 333.592V334.296C720.706 336.099 719.884 337 718.242 337H717.874V338.92H716.242V337H714.354L713.41 336.264ZM726.423 327.736V325.96H733.879V329.176L729.767 337H728.023L727.783 336.584L731.911 328.76V327.736H726.423ZM735.833 336.264V335.224H740.473C740.932 335.224 741.161 334.995 741.161 334.536V332.856C741.161 332.397 740.932 332.168 740.473 332.168H737.017V330.392H740.473C740.932 330.392 741.161 330.157 741.161 329.688V328.424C741.161 327.965 740.932 327.736 740.473 327.736H735.993V326.696L736.937 325.96H740.521C742.26 325.96 743.129 326.829 743.129 328.568V329.64C743.129 330.067 742.996 330.413 742.729 330.68L742.169 331.24L742.729 331.8C742.996 332.067 743.129 332.413 743.129 332.84V334.392C743.129 336.131 742.26 337 740.521 337H736.777L735.833 336.264ZM744.923 330.12V328.568C744.923 326.829 745.793 325.96 747.531 325.96H749.771C751.51 325.96 752.379 326.829 752.379 328.568V333.88C752.379 335.96 751.334 337 749.243 337H746.347L745.403 336.264V335.224H749.307C750.043 335.224 750.411 334.856 750.411 334.12V332.728H747.531C745.793 332.728 744.923 331.859 744.923 330.12ZM746.891 330.248C746.891 330.717 747.121 330.952 747.579 330.952H750.411V328.424C750.411 327.965 750.182 327.736 749.723 327.736H747.579C747.121 327.736 746.891 327.965 746.891 328.424V330.248ZM753.693 339L754.621 334.92H756.429L756.621 335.224L755.085 339.336L753.693 339ZM758.357 336.264V335.224H763.317C763.776 335.224 764.005 334.995 764.005 334.536V332.696C764.005 332.237 763.776 332.008 763.317 332.008H758.517V325.96H765.493V327.736H760.485V330.232H763.365C765.104 330.232 765.973 331.101 765.973 332.84V334.392C765.973 336.131 765.104 337 763.365 337H759.301L758.357 336.264ZM767.767 327.736V325.96H775.223V329.176L771.111 337H769.367L769.127 336.584L773.255 328.76V327.736H767.767ZM777.017 335.224V333.608L780.505 325.96H782.169L782.393 326.376L779.177 333.432H782.505V330.12H784.473V337H782.505V335.224H777.017ZM786.507 337V334.92H788.587V337H786.507ZM790.611 334.392V329.08C790.611 327 791.656 325.96 793.747 325.96H796.483L797.427 326.696V327.736H793.683C792.947 327.736 792.579 328.104 792.579 328.84V330.232H795.459C797.198 330.232 798.067 331.101 798.067 332.84V334.392C798.067 336.131 797.198 337 795.459 337H793.219C791.48 337 790.611 336.131 790.611 334.392ZM792.579 334.536C792.579 334.995 792.808 335.224 793.267 335.224H795.411C795.87 335.224 796.099 334.995 796.099 334.536V332.696C796.099 332.237 795.87 332.008 795.411 332.008H792.579V334.536ZM799.861 334.392V332.84C799.861 332.413 799.994 332.072 800.261 331.816L800.821 331.24L800.261 330.696C799.994 330.419 799.861 330.067 799.861 329.64V328.568C799.861 326.829 800.73 325.96 802.469 325.96H804.709C806.448 325.96 807.317 326.829 807.317 328.568V329.64C807.317 330.067 807.184 330.419 806.917 330.696L806.357 331.24L806.917 331.816C807.184 332.072 807.317 332.413 807.317 332.84V334.392C807.317 336.131 806.448 337 804.709 337H802.469C800.73 337 799.861 336.131 799.861 334.392ZM801.829 334.536C801.829 334.995 802.058 335.224 802.517 335.224H804.661C805.12 335.224 805.349 334.995 805.349 334.536V332.856C805.349 332.397 805.12 332.168 804.661 332.168H802.517C802.058 332.168 801.829 332.397 801.829 332.856V334.536ZM801.829 329.688C801.829 330.157 802.058 330.392 802.517 330.392H804.661C805.12 330.392 805.349 330.157 805.349 329.688V328.424C805.349 327.965 805.12 327.736 804.661 327.736H802.517C802.058 327.736 801.829 327.965 801.829 328.424V329.688Z" fill="#1C1C1C"/>
<path d="M717.936 363.098C717.03 363.098 716.204 362.888 715.458 362.468C714.711 362.039 714.118 361.446 713.68 360.69C713.25 359.925 713.036 359.066 713.036 358.114C713.036 357.162 713.25 356.308 713.68 355.552C714.118 354.787 714.711 354.194 715.458 353.774C716.204 353.345 717.03 353.13 717.936 353.13C718.85 353.13 719.681 353.345 720.428 353.774C721.174 354.194 721.762 354.782 722.192 355.538C722.621 356.294 722.836 357.153 722.836 358.114C722.836 359.075 722.621 359.934 722.192 360.69C721.762 361.446 721.174 362.039 720.428 362.468C719.681 362.888 718.85 363.098 717.936 363.098ZM717.936 361.992C718.617 361.992 719.228 361.833 719.77 361.516C720.32 361.199 720.75 360.746 721.058 360.158C721.375 359.57 721.534 358.889 721.534 358.114C721.534 357.33 721.375 356.649 721.058 356.07C720.75 355.482 720.325 355.029 719.784 354.712C719.242 354.395 718.626 354.236 717.936 354.236C717.245 354.236 716.629 354.395 716.088 354.712C715.546 355.029 715.117 355.482 714.8 356.07C714.492 356.649 714.338 357.33 714.338 358.114C714.338 358.889 714.492 359.57 714.8 360.158C715.117 360.746 715.546 361.199 716.088 361.516C716.638 361.833 717.254 361.992 717.936 361.992ZM726.072 356.378V360.9C726.072 361.273 726.151 361.539 726.31 361.698C726.468 361.847 726.744 361.922 727.136 361.922H728.074V363H726.926C726.216 363 725.684 362.837 725.33 362.51C724.975 362.183 724.798 361.647 724.798 360.9V356.378H723.804V355.328H724.798V353.396H726.072V355.328H728.074V356.378H726.072ZM733.425 355.188C734.004 355.188 734.527 355.314 734.993 355.566C735.46 355.809 735.824 356.177 736.085 356.672C736.356 357.167 736.491 357.769 736.491 358.478V363H735.231V358.66C735.231 357.895 735.04 357.311 734.657 356.91C734.275 356.499 733.752 356.294 733.089 356.294C732.417 356.294 731.881 356.504 731.479 356.924C731.087 357.344 730.891 357.955 730.891 358.758V363H729.617V352.64H730.891V356.42C731.143 356.028 731.489 355.725 731.927 355.51C732.375 355.295 732.875 355.188 733.425 355.188ZM745.572 358.87C745.572 359.113 745.558 359.369 745.53 359.64H739.398C739.445 360.396 739.702 360.989 740.168 361.418C740.644 361.838 741.218 362.048 741.89 362.048C742.441 362.048 742.898 361.922 743.262 361.67C743.636 361.409 743.897 361.063 744.046 360.634H745.418C745.213 361.371 744.802 361.973 744.186 362.44C743.57 362.897 742.805 363.126 741.89 363.126C741.162 363.126 740.509 362.963 739.93 362.636C739.361 362.309 738.913 361.847 738.586 361.25C738.26 360.643 738.096 359.943 738.096 359.15C738.096 358.357 738.255 357.661 738.572 357.064C738.89 356.467 739.333 356.009 739.902 355.692C740.481 355.365 741.144 355.202 741.89 355.202C742.618 355.202 743.262 355.361 743.822 355.678C744.382 355.995 744.812 356.434 745.11 356.994C745.418 357.545 745.572 358.17 745.572 358.87ZM744.256 358.604C744.256 358.119 744.149 357.703 743.934 357.358C743.72 357.003 743.426 356.737 743.052 356.56C742.688 356.373 742.282 356.28 741.834 356.28C741.19 356.28 740.64 356.485 740.182 356.896C739.734 357.307 739.478 357.876 739.412 358.604H744.256ZM748.528 356.574C748.752 356.135 749.069 355.795 749.48 355.552C749.9 355.309 750.409 355.188 751.006 355.188V356.504H750.67C749.242 356.504 748.528 357.279 748.528 358.828V363H747.254V355.328H748.528V356.574ZM755.193 363.126C754.605 363.126 754.077 363.028 753.611 362.832C753.144 362.627 752.775 362.347 752.505 361.992C752.234 361.628 752.085 361.213 752.057 360.746H753.373C753.41 361.129 753.587 361.441 753.905 361.684C754.231 361.927 754.656 362.048 755.179 362.048C755.664 362.048 756.047 361.941 756.327 361.726C756.607 361.511 756.747 361.241 756.747 360.914C756.747 360.578 756.597 360.331 756.299 360.172C756 360.004 755.538 359.841 754.913 359.682C754.343 359.533 753.877 359.383 753.513 359.234C753.158 359.075 752.85 358.847 752.589 358.548C752.337 358.24 752.211 357.839 752.211 357.344C752.211 356.952 752.327 356.593 752.561 356.266C752.794 355.939 753.125 355.683 753.555 355.496C753.984 355.3 754.474 355.202 755.025 355.202C755.874 355.202 756.56 355.417 757.083 355.846C757.605 356.275 757.885 356.863 757.923 357.61H756.649C756.621 357.209 756.457 356.887 756.159 356.644C755.869 356.401 755.477 356.28 754.983 356.28C754.525 356.28 754.161 356.378 753.891 356.574C753.62 356.77 753.485 357.027 753.485 357.344C753.485 357.596 753.564 357.806 753.723 357.974C753.891 358.133 754.096 358.263 754.339 358.366C754.591 358.459 754.936 358.567 755.375 358.688C755.925 358.837 756.373 358.987 756.719 359.136C757.064 359.276 757.358 359.491 757.601 359.78C757.853 360.069 757.983 360.447 757.993 360.914C757.993 361.334 757.876 361.712 757.643 362.048C757.409 362.384 757.078 362.65 756.649 362.846C756.229 363.033 755.743 363.126 755.193 363.126Z" fill="#73798B"/>
<rect x="688.434" y="324" width="16" height="16" rx="3" fill="#FF5C5C"/>
</g>
</g>
<rect x="0.5" y="0.5" width="877" height="427" rx="9.5" stroke="#EDEEF3"/>
<defs>
<clipPath id="clip0_3885_3738">
<rect width="878" height="428" rx="10" fill="white"/>
</clipPath>
<clipPath id="clip1_3885_3738">
<rect width="141.566" height="48" fill="white" transform="translate(360 176)"/>
</clipPath>
<clipPath id="clip2_3885_3738">
<rect width="141.566" height="48" fill="white" transform="translate(524.217 248)"/>
</clipPath>
<clipPath id="clip3_3885_3738">
<rect width="141.566" height="48" fill="white" transform="translate(524.217 176)"/>
</clipPath>
<clipPath id="clip4_3885_3738">
<rect width="141.566" height="48" fill="white" transform="translate(688.434 248)"/>
</clipPath>
<clipPath id="clip5_3885_3738">
<rect width="141.566" height="48" fill="white" transform="translate(524.217 320)"/>
</clipPath>
<clipPath id="clip6_3885_3738">
<rect width="141.566" height="48" fill="white" transform="translate(688.434 176)"/>
</clipPath>
<clipPath id="clip7_3885_3738">
<rect width="141.566" height="48" fill="white" transform="translate(688.434 320)"/>
</clipPath>
</defs>
</svg>
