<svg width="427" height="136" viewBox="0 0 427 136" fill="none" xmlns="http://www.w3.org/2000/svg">
<rect x="0.833374" y="0.5" width="425.667" height="135" rx="9.5" fill="white"/>
<rect x="0.833374" y="0.5" width="425.667" height="135" rx="9.5" stroke="#EDEEF3"/>
<rect x="24.3334" y="36" width="64" height="64" rx="10" fill="#F8F9FC"/>
<path d="M64.4056 74.2115C64.9113 74.0768 65.3938 73.9058 65.8156 73.6835V76.4362C65.8156 77.2003 65.5867 77.9102 65.002 78.5782C64.3255 79.3511 63.2991 80.0801 61.9684 80.7099C59.3297 81.9586 55.6312 82.7496 51.5055 82.7496C47.3473 82.7496 43.6264 81.9744 40.9859 80.7248C39.6715 80.1028 38.6604 79.3807 37.995 78.6086C37.3826 77.8979 37.0834 77.1702 37.0834 76.4362V73.6793C37.5101 73.9038 37.9992 74.0762 38.5122 74.2119C40.0265 74.6126 41.9981 74.7556 43.9103 74.7788C45.8355 74.8022 47.7547 74.7041 49.1887 74.6008C49.9067 74.5491 50.5054 74.4959 50.9253 74.4556C51.1352 74.4354 51.3006 74.4185 51.4139 74.4065C51.4495 74.4027 51.48 74.3994 51.5052 74.3967C51.53 74.3994 51.5601 74.4027 51.5952 74.4064C51.7077 74.4184 51.8719 74.4354 52.0803 74.4555C52.4972 74.4959 53.0915 74.5491 53.8043 74.6008C55.228 74.7041 57.1334 74.8022 59.0447 74.7788C60.9431 74.7556 62.9012 74.6125 64.4056 74.2115Z" fill="white" stroke="#1C1C1C" stroke-width="1.5"/>
<path d="M65.8156 71.5619C65.8156 72.2151 65.5132 72.8982 64.8411 73.5864C64.1658 74.278 63.1518 74.9352 61.8401 75.5033C59.2192 76.6385 55.5462 77.3591 51.4495 77.3591C47.3528 77.3591 43.6798 76.6385 41.0589 75.5033C39.7472 74.9352 38.7332 74.278 38.0579 73.5864C37.3858 72.8982 37.0834 72.2151 37.0834 71.5619C37.0834 70.9087 37.3858 70.2256 38.0579 69.5374C38.7332 68.8458 39.7472 68.1886 41.0589 67.6205C43.6798 66.4853 47.3528 65.7646 51.4495 65.7646C55.5462 65.7646 59.2192 66.4853 61.8401 67.6205C63.1518 68.1886 64.1658 68.8458 64.8411 69.5374C65.5132 70.2256 65.8156 70.9087 65.8156 71.5619Z" fill="white" stroke="#1C1C1C" stroke-width="1.5"/>
<path fill-rule="evenodd" clip-rule="evenodd" d="M67.3339 71.6673C67.0244 66.2962 59.3899 64.5 50.0172 64.5C48.1184 64.5 46.2909 64.6324 44.5813 64.877C44.7189 65.7039 45.1374 66.4851 45.7849 67.207C46.6497 68.1714 47.9202 69.0284 49.4966 69.7453C52.665 71.1861 57.0622 72.0549 61.9221 72.0549C63.8109 72.0549 65.6298 71.919 67.3339 71.6673Z" fill="#F8F9FC"/>
<path fill-rule="evenodd" clip-rule="evenodd" d="M73.3334 61.5166V67.0265C71.9025 68.2159 68.8207 68.895 66.3334 69.531V63.5202C68.8209 62.8841 71.9025 62.7062 73.3334 61.5166Z" fill="#1F32D6"/>
<path d="M75.5834 59.2285V63.4056C75.5834 64.1219 75.2844 64.8466 74.6665 65.5637C73.998 66.3397 72.984 67.0712 71.6698 67.7031C69.0635 68.9561 65.4098 69.7501 61.3334 69.7501C57.2248 69.7501 53.549 68.9719 50.9409 67.718C49.6428 67.094 48.644 66.3694 47.9864 65.5942C47.3812 64.8806 47.0834 64.1475 47.0834 63.4056V59.2285H75.5834Z" stroke="#1C1C1C" stroke-width="1.5"/>
<path d="M75.5834 58.5108C75.5834 59.0686 75.3044 59.6754 74.6388 60.306C73.9715 60.9382 72.9659 61.542 71.661 62.0649C69.0554 63.109 65.4044 63.7716 61.3334 63.7716C57.2624 63.7716 53.6113 63.109 51.0057 62.0649C49.7009 61.542 48.6952 60.9382 48.028 60.306C47.3624 59.6754 47.0834 59.0686 47.0834 58.5108C47.0834 57.9531 47.3624 57.3462 48.028 56.7156C48.6952 56.0834 49.7009 55.4796 51.0057 54.9567C53.6113 53.9126 57.2624 53.25 61.3334 53.25C65.4044 53.25 69.0554 53.9126 71.661 54.9567C72.9659 55.4796 73.9715 56.0834 74.6388 56.7156C75.3044 57.3462 75.5834 57.9531 75.5834 58.5108Z" fill="white" stroke="#1C1C1C" stroke-width="1.5"/>
<path d="M119.025 30.362V31.482H123.701V30.362H119.025ZM119.025 28.5V29.62H123.701V28.5H119.025ZM118.059 27.702H124.709V32.294H118.059V27.702ZM117.415 33.302H125.479V34.184H117.415V33.302ZM120.859 33.736H121.839V39.462L120.859 39.056V33.736ZM118.983 36.312C119.697 38.636 121.237 38.986 123.183 38.986C123.533 38.986 125.423 38.986 125.913 38.972C125.773 39.196 125.633 39.644 125.605 39.91H123.141C120.803 39.91 119.193 39.406 118.339 36.55L118.983 36.312ZM121.531 35.822H124.779V36.69H121.531V35.822ZM118.339 34.842L119.291 34.954C119.011 37.264 118.283 39 117.023 40.12C116.855 39.952 116.449 39.644 116.239 39.49C117.485 38.496 118.115 36.914 118.339 34.842ZM112.725 34.688C113.817 34.394 115.441 33.89 117.009 33.386L117.163 34.352C115.707 34.828 114.181 35.332 112.991 35.71L112.725 34.688ZM112.879 30.068H117.149V31.048H112.879V30.068ZM114.615 27.254H115.595V38.818C115.595 39.392 115.469 39.672 115.119 39.84C114.797 40.008 114.251 40.036 113.369 40.036C113.327 39.784 113.201 39.35 113.061 39.056C113.677 39.07 114.209 39.07 114.377 39.07C114.559 39.07 114.615 39.014 114.615 38.804V27.254ZM132.745 28.892H133.823V40.106H132.745V28.892ZM128.433 31.538H137.757V32.56H129.497V38.496H128.433V31.538ZM137.225 31.538H138.303V37.054C138.303 37.656 138.177 37.978 137.715 38.146C137.253 38.328 136.497 38.342 135.363 38.342C135.321 38.034 135.153 37.586 134.999 37.278C135.895 37.306 136.679 37.306 136.917 37.292C137.155 37.278 137.225 37.222 137.225 37.026V31.538ZM138.779 27.646L139.199 28.598C136.231 29.102 131.443 29.382 127.579 29.438C127.565 29.144 127.439 28.738 127.341 28.5C131.233 28.402 136.021 28.122 138.779 27.646ZM150.945 36.018L151.757 35.542C152.583 36.494 153.437 37.74 153.745 38.608L152.877 39.154C152.583 38.286 151.757 36.97 150.945 36.018ZM146.101 35.248L146.843 34.646C147.781 35.276 148.859 36.228 149.377 36.872L148.607 37.558C148.089 36.872 147.011 35.878 146.101 35.248ZM144.267 35.64H145.359V38.51C145.359 38.944 145.527 39.014 146.423 39.014C146.815 39.014 148.887 39.014 149.433 39.014C150.119 39.014 150.231 38.832 150.301 37.6C150.553 37.754 150.987 37.908 151.295 37.978C151.155 39.574 150.805 39.966 149.517 39.966C149.153 39.966 146.689 39.966 146.367 39.966C144.687 39.966 144.267 39.672 144.267 38.524V35.64ZM142.251 35.85L143.231 36.046C142.993 37.18 142.517 38.51 141.901 39.35L140.921 38.888C141.509 38.174 141.999 36.942 142.251 35.85ZM143.931 27.716L144.827 27.31C145.443 28.024 146.073 28.99 146.325 29.662L145.373 30.138C145.135 29.48 144.533 28.472 143.931 27.716ZM149.895 27.268L150.973 27.702C150.371 28.752 149.657 29.942 149.055 30.74L148.187 30.334C148.775 29.508 149.503 28.206 149.895 27.268ZM144.043 31.076V33.54H150.637V31.076H144.043ZM142.923 30.082H151.799V34.534H142.923V30.082ZM156.251 28.164L156.923 27.492C157.707 28.108 158.701 29.004 159.163 29.592L158.463 30.362C158.001 29.774 157.021 28.822 156.251 28.164ZM157.063 39.854L156.867 38.818L157.175 38.37L159.975 36.452C160.045 36.746 160.213 37.18 160.325 37.39C157.679 39.266 157.287 39.56 157.063 39.854ZM154.977 31.636H157.847V32.686H154.977V31.636ZM159.527 31.888H167.759V32.966H159.527V31.888ZM163.083 27.282H164.189V40.12H163.083V27.282ZM157.063 39.854C156.965 39.574 156.699 39.112 156.503 38.888C156.769 38.72 157.189 38.314 157.189 37.712V31.636H158.253V38.65C158.253 38.65 157.063 39.448 157.063 39.854Z" fill="#73798B"/>
<path d="M184.333 38.8002C184.775 38.8002 185.133 38.442 185.133 38.0002C185.133 37.5584 184.775 37.2002 184.333 37.2002C183.892 37.2002 183.533 37.5584 183.533 38.0002C183.533 38.442 183.892 38.8002 184.333 38.8002ZM184.333 29.2002C182.565 29.2002 181.133 30.6322 181.133 32.4002H182.733C182.733 31.5202 183.453 30.8002 184.333 30.8002C185.213 30.8002 185.933 31.5202 185.933 32.4002C185.933 34.0002 183.533 33.8002 183.533 36.4002H185.133C185.133 34.6002 187.533 34.4002 187.533 32.4002C187.533 30.6322 186.101 29.2002 184.333 29.2002Z" fill="#73798B"/>
<path fill-rule="evenodd" clip-rule="evenodd" d="M184.333 27.5C182.54 27.5 180.916 28.2272 179.738 29.4047C178.561 30.5822 177.833 32.2061 177.833 34C177.833 35.7939 178.561 37.4178 179.738 38.5953C180.916 39.7728 182.54 40.5 184.333 40.5C186.127 40.5 187.751 39.7728 188.929 38.5953C190.106 37.4178 190.833 35.7939 190.833 34C190.833 32.2061 190.106 30.5822 188.929 29.4047C187.751 28.2272 186.127 27.5 184.333 27.5ZM178.677 28.344C180.124 26.897 182.125 26 184.333 26C186.542 26 188.542 26.897 189.989 28.344C191.436 29.791 192.333 31.7919 192.333 34C192.333 36.2081 191.436 38.209 189.989 39.656C188.542 41.103 186.542 42 184.333 42C182.125 42 180.124 41.103 178.677 39.656C177.23 38.209 176.333 36.2081 176.333 34C176.333 31.7919 177.23 29.791 178.677 28.344Z" fill="#73798B"/>
<path d="M114.285 79.528V77.448H123.565C124.483 77.448 124.941 76.9893 124.941 76.072V74.088C124.941 73.2773 124.579 72.7973 123.853 72.648L118.029 71.496C115.533 71.0267 114.285 69.352 114.285 66.472V65.288C114.285 61.6827 115.928 59.88 119.213 59.88H119.949V56.04H123.213V59.88H126.349L128.237 61.352V63.432H119.597C118.68 63.432 118.221 63.8907 118.221 64.808V66.568C118.221 67.4 118.584 67.88 119.309 68.008L125.133 69.192C127.629 69.704 128.877 71.368 128.877 74.184V75.592C128.877 79.1973 127.235 81 123.949 81H123.213V84.84H119.949V81H116.173L114.285 79.528ZM132.625 81V73.992C132.625 71.1547 133.873 69.48 136.369 68.968L142.513 67.72C143.239 67.5707 143.601 67.0907 143.601 66.28V63.848C143.601 62.9307 143.143 62.472 142.225 62.472H133.265V60.392L135.153 58.92H142.321C145.799 58.92 147.537 60.6587 147.537 64.136V66.184C147.537 69.0213 146.289 70.696 143.793 71.208L137.649 72.456C136.924 72.6053 136.561 73.0853 136.561 73.896V77.448H147.537V81H132.625ZM151.125 67.24V64.136C151.125 60.6587 152.864 58.92 156.341 58.92H160.821C164.299 58.92 166.037 60.6587 166.037 64.136V74.76C166.037 78.92 163.947 81 159.765 81H153.973L152.085 79.528V77.448H159.893C161.365 77.448 162.101 76.712 162.101 75.24V72.456H156.341C152.864 72.456 151.125 70.7173 151.125 67.24ZM155.061 67.496C155.061 68.4347 155.52 68.904 156.437 68.904H162.101V63.848C162.101 62.9307 161.643 62.472 160.725 62.472H156.437C155.52 62.472 155.061 62.9307 155.061 63.848V67.496ZM168.665 85L170.521 76.84H174.137L174.521 77.448L171.449 85.672L168.665 85ZM179.209 81V77.448H184.329V62.472H180.137V60.392L182.025 58.92H188.233V77.448H192.841V81H179.209ZM196.813 75.784V64.136C196.813 60.6587 198.552 58.92 202.029 58.92H206.509C209.986 58.92 211.725 60.6587 211.725 64.136V75.784C211.725 79.2613 209.986 81 206.509 81H202.029C198.552 81 196.813 79.2613 196.813 75.784ZM200.749 76.072C200.749 76.9893 201.208 77.448 202.125 77.448H206.413C207.33 77.448 207.789 76.9893 207.789 76.072V63.848C207.789 62.9307 207.33 62.472 206.413 62.472H202.125C201.208 62.472 200.749 62.9307 200.749 63.848V76.072ZM215.313 75.784V64.136C215.313 60.6587 217.052 58.92 220.529 58.92H225.009C228.486 58.92 230.225 60.6587 230.225 64.136V75.784C230.225 79.2613 228.486 81 225.009 81H220.529C217.052 81 215.313 79.2613 215.313 75.784ZM219.249 76.072C219.249 76.9893 219.708 77.448 220.625 77.448H224.913C225.83 77.448 226.289 76.9893 226.289 76.072V63.848C226.289 62.9307 225.83 62.472 224.913 62.472H220.625C219.708 62.472 219.249 62.9307 219.249 63.848V76.072ZM232.853 85L234.709 76.84H238.325L238.709 77.448L235.637 85.672L232.853 85ZM242.5 75.784V64.136C242.5 60.6587 244.239 58.92 247.716 58.92H252.196C255.674 58.92 257.412 60.6587 257.412 64.136V75.784C257.412 79.2613 255.674 81 252.196 81H247.716C244.239 81 242.5 79.2613 242.5 75.784ZM246.436 76.072C246.436 76.9893 246.895 77.448 247.812 77.448H252.1C253.018 77.448 253.476 76.9893 253.476 76.072V63.848C253.476 62.9307 253.018 62.472 252.1 62.472H247.812C246.895 62.472 246.436 62.9307 246.436 63.848V76.072ZM261 75.784V64.136C261 60.6587 262.739 58.92 266.216 58.92H270.696C274.174 58.92 275.912 60.6587 275.912 64.136V75.784C275.912 79.2613 274.174 81 270.696 81H266.216C262.739 81 261 79.2613 261 75.784ZM264.936 76.072C264.936 76.9893 265.395 77.448 266.312 77.448H270.6C271.518 77.448 271.976 76.9893 271.976 76.072V63.848C271.976 62.9307 271.518 62.472 270.6 62.472H266.312C265.395 62.472 264.936 62.9307 264.936 63.848V76.072ZM279.5 75.784V64.136C279.5 60.6587 281.239 58.92 284.716 58.92H289.196C292.674 58.92 294.412 60.6587 294.412 64.136V75.784C294.412 79.2613 292.674 81 289.196 81H284.716C281.239 81 279.5 79.2613 279.5 75.784ZM283.436 76.072C283.436 76.9893 283.895 77.448 284.812 77.448H289.1C290.018 77.448 290.476 76.9893 290.476 76.072V63.848C290.476 62.9307 290.018 62.472 289.1 62.472H284.812C283.895 62.472 283.436 62.9307 283.436 63.848V76.072ZM298.48 81V76.84H302.64V81H298.48ZM306.688 75.784V64.136C306.688 60.6587 308.427 58.92 311.904 58.92H316.384C319.861 58.92 321.6 60.6587 321.6 64.136V75.784C321.6 79.2613 319.861 81 316.384 81H311.904C308.427 81 306.688 79.2613 306.688 75.784ZM310.624 76.072C310.624 76.9893 311.083 77.448 312 77.448H316.288C317.205 77.448 317.664 76.9893 317.664 76.072V63.848C317.664 62.9307 317.205 62.472 316.288 62.472H312C311.083 62.472 310.624 62.9307 310.624 63.848V76.072ZM325.188 75.784V64.136C325.188 60.6587 326.927 58.92 330.404 58.92H334.884C338.361 58.92 340.1 60.6587 340.1 64.136V75.784C340.1 79.2613 338.361 81 334.884 81H330.404C326.927 81 325.188 79.2613 325.188 75.784ZM329.124 76.072C329.124 76.9893 329.583 77.448 330.5 77.448H334.788C335.705 77.448 336.164 76.9893 336.164 76.072V63.848C336.164 62.9307 335.705 62.472 334.788 62.472H330.5C329.583 62.472 329.124 62.9307 329.124 63.848V76.072Z" fill="#1C1C1C"/>
<path d="M113.269 98.712L113.965 98.256C114.637 98.856 115.429 99.696 115.801 100.248L115.057 100.788C114.709 100.212 113.941 99.336 113.269 98.712ZM115.465 102.42V106.788H114.589V103.272H112.921V102.42H115.465ZM115.009 106.32C115.417 106.32 115.693 106.68 116.365 107.088C117.145 107.58 118.165 107.664 119.509 107.664C120.925 107.664 122.737 107.568 123.901 107.436C123.781 107.688 123.637 108.144 123.625 108.42C122.773 108.468 120.637 108.528 119.497 108.528C117.997 108.528 116.989 108.408 116.161 107.88C115.645 107.556 115.261 107.16 114.997 107.16C114.589 107.16 114.013 107.868 113.401 108.684L112.765 107.844C113.593 106.944 114.409 106.32 115.009 106.32ZM116.317 100.092H123.541V100.944H116.317V100.092ZM120.961 97.968H121.885V105.708C121.885 106.32 121.717 106.584 121.285 106.728C120.877 106.872 120.145 106.896 119.005 106.896C118.969 106.632 118.813 106.236 118.681 105.972C119.569 105.996 120.397 105.996 120.637 105.996C120.877 105.972 120.961 105.912 120.961 105.696V97.968ZM116.893 102.276L117.613 101.892C118.225 102.624 118.981 103.62 119.329 104.244L118.573 104.712C118.249 104.076 117.505 103.032 116.893 102.276ZM125.893 99.732H134.857V100.644H125.893V99.732ZM124.957 102.9H135.745V103.8H124.957V102.9ZM129.817 97.92H130.765V103.404H129.817V97.92ZM128.845 103.488L129.901 103.764C129.277 105.18 128.449 106.896 127.753 108.012L126.913 107.724C127.585 106.584 128.413 104.772 128.845 103.488ZM125.389 107.508C127.645 107.448 131.197 107.292 134.485 107.136L134.449 108.012C131.221 108.192 127.777 108.372 125.509 108.468L125.389 107.508ZM132.001 105.168L132.829 104.784C133.909 105.96 135.073 107.532 135.625 108.588L134.737 109.068C134.221 108 133.045 106.356 132.001 105.168ZM140.145 107.124C141.161 106.308 141.957 105.64 142.533 105.12C143.109 104.592 143.593 104.044 143.985 103.476C144.385 102.9 144.585 102.336 144.585 101.784C144.585 101.264 144.457 100.856 144.201 100.56C143.953 100.256 143.549 100.104 142.989 100.104C142.445 100.104 142.021 100.276 141.717 100.62C141.421 100.956 141.261 101.408 141.237 101.976H140.181C140.213 101.08 140.485 100.388 140.997 99.9C141.509 99.412 142.169 99.168 142.977 99.168C143.801 99.168 144.453 99.396 144.933 99.852C145.421 100.308 145.665 100.936 145.665 101.736C145.665 102.4 145.465 103.048 145.065 103.68C144.673 104.304 144.225 104.856 143.721 105.336C143.217 105.808 142.573 106.36 141.789 106.992H145.917V107.904H140.145V107.124ZM146.915 106.068V105.24L151.127 99.408H152.435V105.12H153.635V106.068H152.435V108H151.355V106.068H146.915ZM151.403 100.548L148.175 105.12H151.403V100.548ZM162.737 98.1H163.709V107.712C163.709 108.384 163.529 108.648 163.097 108.792C162.665 108.948 161.921 108.972 160.781 108.972C160.733 108.708 160.565 108.288 160.409 108.024C161.297 108.06 162.161 108.048 162.401 108.036C162.653 108.036 162.737 107.952 162.737 107.712V98.1ZM165.641 101.16L166.505 100.824C167.549 102.516 168.569 104.712 168.881 106.164L167.921 106.548C167.633 105.132 166.661 102.876 165.641 101.16ZM159.593 100.908L160.601 101.076C160.205 102.84 159.509 105.012 158.417 106.356C158.201 106.188 157.805 105.972 157.565 105.876C158.633 104.604 159.293 102.528 159.593 100.908ZM170.585 98.928H173.909V106.74H170.585V105.924H173.069V99.744H170.585V98.928ZM170.633 102.372H173.381V103.176H170.633V102.372ZM170.153 98.928H171.005V107.7H170.153V98.928ZM174.449 100.332H180.713V101.22H174.449V100.332ZM178.349 97.992H179.261V107.604C179.261 108.264 179.081 108.54 178.649 108.684C178.217 108.828 177.461 108.852 176.249 108.84C176.201 108.588 176.057 108.18 175.925 107.928C176.861 107.952 177.737 107.952 178.001 107.94C178.253 107.928 178.349 107.856 178.349 107.604V97.992ZM174.857 102.576L175.601 102.192C176.249 103.104 177.077 104.328 177.485 105.048L176.693 105.516C176.309 104.784 175.505 103.5 174.857 102.576Z" fill="#73798B"/>
</svg>
