<svg width="427" height="136" viewBox="0 0 427 136" fill="none" xmlns="http://www.w3.org/2000/svg">
<rect x="0.5" y="0.5" width="425.667" height="135" rx="9.5" fill="white"/>
<rect x="0.5" y="0.5" width="425.667" height="135" rx="9.5" stroke="#EDEEF3"/>
<rect x="24" y="36" width="64" height="64" rx="10" fill="#F8F9FC"/>
<path d="M64.0723 74.2115C64.5779 74.0768 65.0604 73.9058 65.4822 73.6835V76.4362C65.4822 77.2003 65.2534 77.9102 64.6686 78.5782C63.9921 79.3511 62.9657 80.0801 61.635 80.7099C58.9963 81.9586 55.2978 82.7496 51.1721 82.7496C47.014 82.7496 43.293 81.9744 40.6525 80.7248C39.3381 80.1028 38.327 79.3807 37.6617 78.6086C37.0492 77.8979 36.75 77.1702 36.75 76.4362V73.6793C37.1767 73.9038 37.6658 74.0762 38.1788 74.2119C39.6931 74.6126 41.6647 74.7556 43.577 74.7788C45.5021 74.8022 47.4213 74.7041 48.8553 74.6008C49.5734 74.5491 50.172 74.4959 50.5919 74.4556C50.8018 74.4354 50.9672 74.4185 51.0805 74.4065C51.1162 74.4027 51.1467 74.3994 51.1718 74.3967C51.1966 74.3994 51.2267 74.4027 51.2618 74.4064C51.3743 74.4184 51.5385 74.4354 51.747 74.4555C52.1638 74.4959 52.7581 74.5491 53.471 74.6008C54.8946 74.7041 56.8 74.8022 58.7113 74.7788C60.6097 74.7556 62.5679 74.6125 64.0723 74.2115Z" fill="white" stroke="#1C1C1C" stroke-width="1.5"/>
<path d="M65.4822 71.5619C65.4822 72.2151 65.1798 72.8982 64.5078 73.5864C63.8324 74.278 62.8184 74.9352 61.5067 75.5033C58.8859 76.6385 55.2128 77.3591 51.1161 77.3591C47.0195 77.3591 43.3464 76.6385 40.7255 75.5033C39.4138 74.9352 38.3999 74.278 37.7245 73.5864C37.0525 72.8982 36.75 72.2151 36.75 71.5619C36.75 70.9087 37.0525 70.2256 37.7245 69.5374C38.3999 68.8458 39.4138 68.1886 40.7255 67.6205C43.3464 66.4853 47.0195 65.7646 51.1161 65.7646C55.2128 65.7646 58.8859 66.4853 61.5067 67.6205C62.8184 68.1886 63.8324 68.8458 64.5078 69.5374C65.1798 70.2256 65.4822 70.9087 65.4822 71.5619Z" fill="white" stroke="#1C1C1C" stroke-width="1.5"/>
<path fill-rule="evenodd" clip-rule="evenodd" d="M67.0005 71.6673C66.691 66.2962 59.0565 64.5 49.6838 64.5C47.785 64.5 45.9576 64.6324 44.2479 64.877C44.3855 65.7039 44.8041 66.4851 45.4515 67.207C46.3164 68.1714 47.5868 69.0284 49.1632 69.7453C52.3316 71.1861 56.7289 72.0549 61.5888 72.0549C63.4776 72.0549 65.2965 71.919 67.0005 71.6673Z" fill="#F8F9FC"/>
<path fill-rule="evenodd" clip-rule="evenodd" d="M73 61.5166V67.0265C71.5691 68.2159 68.4873 68.895 66 69.531V63.5202C68.4875 62.8841 71.5691 62.7062 73 61.5166Z" fill="#1F32D6"/>
<path d="M75.25 59.2285V63.4056C75.25 64.1219 74.951 64.8466 74.3332 65.5637C73.6646 66.3397 72.6507 67.0712 71.3365 67.7031C68.7301 68.9561 65.0764 69.7501 61 69.7501C56.8915 69.7501 53.2156 68.9719 50.6075 67.718C49.3095 67.094 48.3106 66.3694 47.6531 65.5942C47.0478 64.8806 46.75 64.1475 46.75 63.4056V59.2285H75.25Z" stroke="#1C1C1C" stroke-width="1.5"/>
<path d="M75.25 58.5108C75.25 59.0686 74.971 59.6754 74.3054 60.306C73.6382 60.9382 72.6325 61.542 71.3276 62.0649C68.722 63.109 65.071 63.7716 61 63.7716C56.929 63.7716 53.278 63.109 50.6724 62.0649C49.3675 61.542 48.3618 60.9382 47.6946 60.306C47.029 59.6754 46.75 59.0686 46.75 58.5108C46.75 57.9531 47.029 57.3462 47.6946 56.7156C48.3618 56.0834 49.3675 55.4796 50.6724 54.9567C53.278 53.9126 56.929 53.25 61 53.25C65.071 53.25 68.722 53.9126 71.3276 54.9567C72.6325 55.4796 73.6382 56.0834 74.3054 56.7156C74.971 57.3462 75.25 57.9531 75.25 58.5108Z" fill="white" stroke="#1C1C1C" stroke-width="1.5"/>
<path d="M119.336 29.27V30.572H116.746V39H115.15V30.572H112.546V29.27H119.336ZM124.298 39.126C123.57 39.126 122.912 38.9627 122.324 38.636C121.736 38.3 121.274 37.8333 120.938 37.236C120.602 36.6293 120.434 35.9293 120.434 35.136C120.434 34.352 120.607 33.6567 120.952 33.05C121.298 32.4433 121.769 31.9767 122.366 31.65C122.964 31.3233 123.631 31.16 124.368 31.16C125.106 31.16 125.773 31.3233 126.37 31.65C126.968 31.9767 127.439 32.4433 127.784 33.05C128.13 33.6567 128.302 34.352 128.302 35.136C128.302 35.92 128.125 36.6153 127.77 37.222C127.416 37.8287 126.93 38.3 126.314 38.636C125.708 38.9627 125.036 39.126 124.298 39.126ZM124.298 37.74C124.709 37.74 125.092 37.642 125.446 37.446C125.81 37.25 126.104 36.956 126.328 36.564C126.552 36.172 126.664 35.696 126.664 35.136C126.664 34.576 126.557 34.1047 126.342 33.722C126.128 33.33 125.843 33.036 125.488 32.84C125.134 32.644 124.751 32.546 124.34 32.546C123.93 32.546 123.547 32.644 123.192 32.84C122.847 33.036 122.572 33.33 122.366 33.722C122.161 34.1047 122.058 34.576 122.058 35.136C122.058 35.9667 122.268 36.6107 122.688 37.068C123.118 37.516 123.654 37.74 124.298 37.74ZM131.742 32.588V36.858C131.742 37.1473 131.807 37.3573 131.938 37.488C132.078 37.6093 132.311 37.67 132.638 37.67H133.618V39H132.358C131.639 39 131.089 38.832 130.706 38.496C130.323 38.16 130.132 37.614 130.132 36.858V32.588H129.222V31.286H130.132V29.368H131.742V31.286H133.618V32.588H131.742ZM134.557 35.108C134.557 34.3333 134.716 33.6473 135.033 33.05C135.36 32.4527 135.798 31.9907 136.349 31.664C136.909 31.328 137.525 31.16 138.197 31.16C138.804 31.16 139.331 31.2813 139.779 31.524C140.236 31.7573 140.6 32.0513 140.871 32.406V31.286H142.481V39H140.871V37.852C140.6 38.216 140.232 38.5193 139.765 38.762C139.298 39.0047 138.766 39.126 138.169 39.126C137.506 39.126 136.9 38.958 136.349 38.622C135.798 38.2767 135.36 37.8007 135.033 37.194C134.716 36.578 134.557 35.8827 134.557 35.108ZM140.871 35.136C140.871 34.604 140.759 34.142 140.535 33.75C140.32 33.358 140.036 33.0593 139.681 32.854C139.326 32.6487 138.944 32.546 138.533 32.546C138.122 32.546 137.74 32.6487 137.385 32.854C137.03 33.05 136.741 33.344 136.517 33.736C136.302 34.1187 136.195 34.576 136.195 35.108C136.195 35.64 136.302 36.1067 136.517 36.508C136.741 36.9093 137.03 37.2173 137.385 37.432C137.749 37.6373 138.132 37.74 138.533 37.74C138.944 37.74 139.326 37.6373 139.681 37.432C140.036 37.2267 140.32 36.928 140.535 36.536C140.759 36.1347 140.871 35.668 140.871 35.136ZM146.173 28.64V39H144.577V28.64H146.173ZM157.771 37.012H153.697L152.997 39H151.331L154.817 29.256H156.665L160.151 39H158.471L157.771 37.012ZM157.323 35.71L155.741 31.188L154.145 35.71H157.323ZM164.467 39.126C163.861 39.126 163.315 39.0187 162.829 38.804C162.353 38.58 161.975 38.2813 161.695 37.908C161.415 37.5253 161.266 37.1007 161.247 36.634H162.899C162.927 36.9607 163.081 37.236 163.361 37.46C163.651 37.6747 164.01 37.782 164.439 37.782C164.887 37.782 165.233 37.698 165.475 37.53C165.727 37.3527 165.853 37.1287 165.853 36.858C165.853 36.5687 165.713 36.354 165.433 36.214C165.163 36.074 164.729 35.92 164.131 35.752C163.553 35.5933 163.081 35.4393 162.717 35.29C162.353 35.1407 162.036 34.912 161.765 34.604C161.504 34.296 161.373 33.89 161.373 33.386C161.373 32.9753 161.495 32.602 161.737 32.266C161.98 31.9207 162.325 31.65 162.773 31.454C163.231 31.258 163.753 31.16 164.341 31.16C165.219 31.16 165.923 31.384 166.455 31.832C166.997 32.2707 167.286 32.8727 167.323 33.638H165.727C165.699 33.2927 165.559 33.0173 165.307 32.812C165.055 32.6067 164.715 32.504 164.285 32.504C163.865 32.504 163.543 32.5833 163.319 32.742C163.095 32.9007 162.983 33.1107 162.983 33.372C162.983 33.5773 163.058 33.75 163.207 33.89C163.357 34.03 163.539 34.142 163.753 34.226C163.968 34.3007 164.285 34.3987 164.705 34.52C165.265 34.6693 165.723 34.8233 166.077 34.982C166.441 35.1313 166.754 35.3553 167.015 35.654C167.277 35.9527 167.412 36.3493 167.421 36.844C167.421 37.2827 167.3 37.6747 167.057 38.02C166.815 38.3653 166.469 38.636 166.021 38.832C165.583 39.028 165.065 39.126 164.467 39.126ZM171.946 39.126C171.339 39.126 170.793 39.0187 170.308 38.804C169.832 38.58 169.454 38.2813 169.174 37.908C168.894 37.5253 168.744 37.1007 168.726 36.634H170.378C170.406 36.9607 170.56 37.236 170.84 37.46C171.129 37.6747 171.488 37.782 171.918 37.782C172.366 37.782 172.711 37.698 172.954 37.53C173.206 37.3527 173.332 37.1287 173.332 36.858C173.332 36.5687 173.192 36.354 172.912 36.214C172.641 36.074 172.207 35.92 171.61 35.752C171.031 35.5933 170.56 35.4393 170.196 35.29C169.832 35.1407 169.514 34.912 169.244 34.604C168.982 34.296 168.852 33.89 168.852 33.386C168.852 32.9753 168.973 32.602 169.216 32.266C169.458 31.9207 169.804 31.65 170.252 31.454C170.709 31.258 171.232 31.16 171.82 31.16C172.697 31.16 173.402 31.384 173.934 31.832C174.475 32.2707 174.764 32.8727 174.802 33.638H173.206C173.178 33.2927 173.038 33.0173 172.786 32.812C172.534 32.6067 172.193 32.504 171.764 32.504C171.344 32.504 171.022 32.5833 170.798 32.742C170.574 32.9007 170.462 33.1107 170.462 33.372C170.462 33.5773 170.536 33.75 170.686 33.89C170.835 34.03 171.017 34.142 171.232 34.226C171.446 34.3007 171.764 34.3987 172.184 34.52C172.744 34.6693 173.201 34.8233 173.556 34.982C173.92 35.1313 174.232 35.3553 174.494 35.654C174.755 35.9527 174.89 36.3493 174.9 36.844C174.9 37.2827 174.778 37.6747 174.536 38.02C174.293 38.3653 173.948 38.636 173.5 38.832C173.061 39.028 172.543 39.126 171.946 39.126ZM183.694 34.954C183.694 35.2433 183.676 35.5047 183.638 35.738H177.744C177.791 36.354 178.02 36.8487 178.43 37.222C178.841 37.5953 179.345 37.782 179.942 37.782C180.801 37.782 181.408 37.4227 181.762 36.704H183.484C183.251 37.4133 182.826 37.9967 182.21 38.454C181.604 38.902 180.848 39.126 179.942 39.126C179.205 39.126 178.542 38.9627 177.954 38.636C177.376 38.3 176.918 37.8333 176.582 37.236C176.256 36.6293 176.092 35.9293 176.092 35.136C176.092 34.3427 176.251 33.6473 176.568 33.05C176.895 32.4433 177.348 31.9767 177.926 31.65C178.514 31.3233 179.186 31.16 179.942 31.16C180.67 31.16 181.319 31.3187 181.888 31.636C182.458 31.9533 182.901 32.4013 183.218 32.98C183.536 33.5493 183.694 34.2073 183.694 34.954ZM182.028 34.45C182.019 33.862 181.809 33.3907 181.398 33.036C180.988 32.6813 180.479 32.504 179.872 32.504C179.322 32.504 178.85 32.6813 178.458 33.036C178.066 33.3813 177.833 33.8527 177.758 34.45H182.028ZM187.127 32.588V36.858C187.127 37.1473 187.192 37.3573 187.323 37.488C187.463 37.6093 187.696 37.67 188.023 37.67H189.003V39H187.743C187.024 39 186.474 38.832 186.091 38.496C185.708 38.16 185.517 37.614 185.517 36.858V32.588H184.607V31.286H185.517V29.368H187.127V31.286H189.003V32.588H187.127ZM193.274 39.126C192.667 39.126 192.121 39.0187 191.636 38.804C191.16 38.58 190.782 38.2813 190.502 37.908C190.222 37.5253 190.072 37.1007 190.054 36.634H191.706C191.734 36.9607 191.888 37.236 192.168 37.46C192.457 37.6747 192.816 37.782 193.246 37.782C193.694 37.782 194.039 37.698 194.282 37.53C194.534 37.3527 194.66 37.1287 194.66 36.858C194.66 36.5687 194.52 36.354 194.24 36.214C193.969 36.074 193.535 35.92 192.938 35.752C192.359 35.5933 191.888 35.4393 191.524 35.29C191.16 35.1407 190.842 34.912 190.572 34.604C190.31 34.296 190.18 33.89 190.18 33.386C190.18 32.9753 190.301 32.602 190.544 32.266C190.786 31.9207 191.132 31.65 191.58 31.454C192.037 31.258 192.56 31.16 193.148 31.16C194.025 31.16 194.73 31.384 195.262 31.832C195.803 32.2707 196.092 32.8727 196.13 33.638H194.534C194.506 33.2927 194.366 33.0173 194.114 32.812C193.862 32.6067 193.521 32.504 193.092 32.504C192.672 32.504 192.35 32.5833 192.126 32.742C191.902 32.9007 191.79 33.1107 191.79 33.372C191.79 33.5773 191.864 33.75 192.014 33.89C192.163 34.03 192.345 34.142 192.56 34.226C192.774 34.3007 193.092 34.3987 193.512 34.52C194.072 34.6693 194.529 34.8233 194.884 34.982C195.248 35.1313 195.56 35.3553 195.822 35.654C196.083 35.9527 196.218 36.3493 196.228 36.844C196.228 37.2827 196.106 37.6747 195.864 38.02C195.621 38.3653 195.276 38.636 194.828 38.832C194.389 39.028 193.871 39.126 193.274 39.126Z" fill="#73798B"/>
<path d="M113.952 79.528V77.448H123.232C124.149 77.448 124.608 76.9893 124.608 76.072V74.088C124.608 73.2773 124.245 72.7973 123.52 72.648L117.696 71.496C115.2 71.0267 113.952 69.352 113.952 66.472V65.288C113.952 61.6827 115.595 59.88 118.88 59.88H119.616V56.04H122.88V59.88H126.016L127.904 61.352V63.432H119.264C118.347 63.432 117.888 63.8907 117.888 64.808V66.568C117.888 67.4 118.251 67.88 118.976 68.008L124.8 69.192C127.296 69.704 128.544 71.368 128.544 74.184V75.592C128.544 79.1973 126.901 81 123.616 81H122.88V84.84H119.616V81H115.84L113.952 79.528ZM132.292 75.784V72.68C132.292 71.8267 132.559 71.144 133.092 70.632L134.212 69.48L133.092 68.392C132.559 67.8373 132.292 67.1333 132.292 66.28V64.136C132.292 60.6587 134.031 58.92 137.508 58.92H141.988C145.465 58.92 147.204 60.6587 147.204 64.136V66.28C147.204 67.1333 146.937 67.8373 146.404 68.392L145.284 69.48L146.404 70.632C146.937 71.144 147.204 71.8267 147.204 72.68V75.784C147.204 79.2613 145.465 81 141.988 81H137.508C134.031 81 132.292 79.2613 132.292 75.784ZM136.228 76.072C136.228 76.9893 136.687 77.448 137.604 77.448H141.892C142.809 77.448 143.268 76.9893 143.268 76.072V72.712C143.268 71.7947 142.809 71.336 141.892 71.336H137.604C136.687 71.336 136.228 71.7947 136.228 72.712V76.072ZM136.228 66.376C136.228 67.3147 136.687 67.784 137.604 67.784H141.892C142.809 67.784 143.268 67.3147 143.268 66.376V63.848C143.268 62.9307 142.809 62.472 141.892 62.472H137.604C136.687 62.472 136.228 62.9307 136.228 63.848V66.376ZM151.112 79.528V77.448H160.392C161.309 77.448 161.768 76.9893 161.768 76.072V72.712C161.768 71.7947 161.309 71.336 160.392 71.336H153.48V67.784H160.392C161.309 67.784 161.768 67.3147 161.768 66.376V63.848C161.768 62.9307 161.309 62.472 160.392 62.472H151.432V60.392L153.32 58.92H160.488C163.965 58.92 165.704 60.6587 165.704 64.136V66.28C165.704 67.1333 165.437 67.8267 164.904 68.36L163.784 69.48L164.904 70.6C165.437 71.1333 165.704 71.8267 165.704 72.68V75.784C165.704 79.2613 163.965 81 160.488 81H153L151.112 79.528ZM168.332 85L170.188 76.84H173.804L174.188 77.448L171.116 85.672L168.332 85ZM178.876 81V77.448H183.996V62.472H179.804V60.392L181.692 58.92H187.9V77.448H192.508V81H178.876ZM196.16 79.528V77.448H206.08C206.997 77.448 207.456 76.9893 207.456 76.072V72.392C207.456 71.4747 206.997 71.016 206.08 71.016H196.48V58.92H210.432V62.472H200.416V67.464H206.176C209.653 67.464 211.392 69.2027 211.392 72.68V75.784C211.392 79.2613 209.653 81 206.176 81H198.048L196.16 79.528ZM214.98 75.784V64.136C214.98 60.6587 216.718 58.92 220.196 58.92H224.676C228.153 58.92 229.892 60.6587 229.892 64.136V75.784C229.892 79.2613 228.153 81 224.676 81H220.196C216.718 81 214.98 79.2613 214.98 75.784ZM218.916 76.072C218.916 76.9893 219.374 77.448 220.292 77.448H224.58C225.497 77.448 225.956 76.9893 225.956 76.072V63.848C225.956 62.9307 225.497 62.472 224.58 62.472H220.292C219.374 62.472 218.916 62.9307 218.916 63.848V76.072ZM232.52 85L234.376 76.84H237.992L238.376 77.448L235.304 85.672L232.52 85ZM242.167 75.784V64.136C242.167 60.6587 243.906 58.92 247.383 58.92H251.863C255.34 58.92 257.079 60.6587 257.079 64.136V75.784C257.079 79.2613 255.34 81 251.863 81H247.383C243.906 81 242.167 79.2613 242.167 75.784ZM246.103 76.072C246.103 76.9893 246.562 77.448 247.479 77.448H251.767C252.684 77.448 253.143 76.9893 253.143 76.072V63.848C253.143 62.9307 252.684 62.472 251.767 62.472H247.479C246.562 62.472 246.103 62.9307 246.103 63.848V76.072ZM260.667 75.784V64.136C260.667 60.6587 262.406 58.92 265.883 58.92H270.363C273.84 58.92 275.579 60.6587 275.579 64.136V75.784C275.579 79.2613 273.84 81 270.363 81H265.883C262.406 81 260.667 79.2613 260.667 75.784ZM264.603 76.072C264.603 76.9893 265.062 77.448 265.979 77.448H270.267C271.184 77.448 271.643 76.9893 271.643 76.072V63.848C271.643 62.9307 271.184 62.472 270.267 62.472H265.979C265.062 62.472 264.603 62.9307 264.603 63.848V76.072ZM279.167 75.784V64.136C279.167 60.6587 280.906 58.92 284.383 58.92H288.863C292.34 58.92 294.079 60.6587 294.079 64.136V75.784C294.079 79.2613 292.34 81 288.863 81H284.383C280.906 81 279.167 79.2613 279.167 75.784ZM283.103 76.072C283.103 76.9893 283.562 77.448 284.479 77.448H288.767C289.684 77.448 290.143 76.9893 290.143 76.072V63.848C290.143 62.9307 289.684 62.472 288.767 62.472H284.479C283.562 62.472 283.103 62.9307 283.103 63.848V76.072ZM298.147 81V76.84H302.307V81H298.147ZM306.355 75.784V64.136C306.355 60.6587 308.093 58.92 311.571 58.92H316.051C319.528 58.92 321.267 60.6587 321.267 64.136V75.784C321.267 79.2613 319.528 81 316.051 81H311.571C308.093 81 306.355 79.2613 306.355 75.784ZM310.291 76.072C310.291 76.9893 310.749 77.448 311.667 77.448H315.955C316.872 77.448 317.331 76.9893 317.331 76.072V63.848C317.331 62.9307 316.872 62.472 315.955 62.472H311.667C310.749 62.472 310.291 62.9307 310.291 63.848V76.072ZM324.855 75.784V64.136C324.855 60.6587 326.593 58.92 330.071 58.92H334.551C338.028 58.92 339.767 60.6587 339.767 64.136V75.784C339.767 79.2613 338.028 81 334.551 81H330.071C326.593 81 324.855 79.2613 324.855 75.784ZM328.791 76.072C328.791 76.9893 329.249 77.448 330.167 77.448H334.455C335.372 77.448 335.831 76.9893 335.831 76.072V63.848C335.831 62.9307 335.372 62.472 334.455 62.472H330.167C329.249 62.472 328.791 62.9307 328.791 63.848V76.072Z" fill="#1C1C1C"/>
<path d="M112.516 104.688C112.516 104.016 112.652 103.428 112.924 102.924C113.196 102.412 113.568 102.016 114.04 101.736C114.52 101.456 115.052 101.316 115.636 101.316C116.212 101.316 116.712 101.44 117.136 101.688C117.56 101.936 117.876 102.248 118.084 102.624V101.424H119.188V108H118.084V106.776C117.868 107.16 117.544 107.48 117.112 107.736C116.688 107.984 116.192 108.108 115.624 108.108C115.04 108.108 114.512 107.964 114.04 107.676C113.568 107.388 113.196 106.984 112.924 106.464C112.652 105.944 112.516 105.352 112.516 104.688ZM118.084 104.7C118.084 104.204 117.984 103.772 117.784 103.404C117.584 103.036 117.312 102.756 116.968 102.564C116.632 102.364 116.26 102.264 115.852 102.264C115.444 102.264 115.072 102.36 114.736 102.552C114.4 102.744 114.132 103.024 113.932 103.392C113.732 103.76 113.632 104.192 113.632 104.688C113.632 105.192 113.732 105.632 113.932 106.008C114.132 106.376 114.4 106.66 114.736 106.86C115.072 107.052 115.444 107.148 115.852 107.148C116.26 107.148 116.632 107.052 116.968 106.86C117.312 106.66 117.584 106.376 117.784 106.008C117.984 105.632 118.084 105.196 118.084 104.7ZM123.361 108.108C122.857 108.108 122.405 108.024 122.005 107.856C121.605 107.68 121.289 107.44 121.057 107.136C120.825 106.824 120.697 106.468 120.673 106.068H121.801C121.833 106.396 121.985 106.664 122.257 106.872C122.537 107.08 122.901 107.184 123.349 107.184C123.765 107.184 124.093 107.092 124.333 106.908C124.573 106.724 124.693 106.492 124.693 106.212C124.693 105.924 124.565 105.712 124.309 105.576C124.053 105.432 123.657 105.292 123.121 105.156C122.633 105.028 122.233 104.9 121.921 104.772C121.617 104.636 121.353 104.44 121.129 104.184C120.913 103.92 120.805 103.576 120.805 103.152C120.805 102.816 120.905 102.508 121.105 102.228C121.305 101.948 121.589 101.728 121.957 101.568C122.325 101.4 122.745 101.316 123.217 101.316C123.945 101.316 124.533 101.5 124.981 101.868C125.429 102.236 125.669 102.74 125.701 103.38H124.609C124.585 103.036 124.445 102.76 124.189 102.552C123.941 102.344 123.605 102.24 123.181 102.24C122.789 102.24 122.477 102.324 122.245 102.492C122.013 102.66 121.897 102.88 121.897 103.152C121.897 103.368 121.965 103.548 122.101 103.692C122.245 103.828 122.421 103.94 122.629 104.028C122.845 104.108 123.141 104.2 123.517 104.304C123.989 104.432 124.373 104.56 124.669 104.688C124.965 104.808 125.217 104.992 125.425 105.24C125.641 105.488 125.753 105.812 125.761 106.212C125.761 106.572 125.661 106.896 125.461 107.184C125.261 107.472 124.977 107.7 124.609 107.868C124.249 108.028 123.833 108.108 123.361 108.108ZM133.37 108.108C132.754 108.108 132.194 107.968 131.69 107.688C131.194 107.408 130.802 107.012 130.514 106.5C130.234 105.98 130.094 105.38 130.094 104.7C130.094 104.028 130.238 103.436 130.526 102.924C130.822 102.404 131.222 102.008 131.726 101.736C132.23 101.456 132.794 101.316 133.418 101.316C134.042 101.316 134.606 101.456 135.11 101.736C135.614 102.008 136.01 102.4 136.298 102.912C136.594 103.424 136.742 104.02 136.742 104.7C136.742 105.38 136.59 105.98 136.286 106.5C135.99 107.012 135.586 107.408 135.074 107.688C134.562 107.968 133.994 108.108 133.37 108.108ZM133.37 107.148C133.762 107.148 134.13 107.056 134.474 106.872C134.818 106.688 135.094 106.412 135.302 106.044C135.518 105.676 135.626 105.228 135.626 104.7C135.626 104.172 135.522 103.724 135.314 103.356C135.106 102.988 134.834 102.716 134.498 102.54C134.162 102.356 133.798 102.264 133.406 102.264C133.006 102.264 132.638 102.356 132.302 102.54C131.974 102.716 131.71 102.988 131.51 103.356C131.31 103.724 131.21 104.172 131.21 104.7C131.21 105.236 131.306 105.688 131.498 106.056C131.698 106.424 131.962 106.7 132.29 106.884C132.618 107.06 132.978 107.148 133.37 107.148ZM140.854 102.324H139.474V108H138.382V102.324H137.53V101.424H138.382V100.956C138.382 100.22 138.57 99.684 138.946 99.348C139.33 99.004 139.942 98.832 140.782 98.832V99.744C140.302 99.744 139.962 99.84 139.762 100.032C139.57 100.216 139.474 100.524 139.474 100.956V101.424H140.854V102.324ZM150.27 106.14H146.622L145.95 108H144.798L147.822 99.684H149.082L152.094 108H150.942L150.27 106.14ZM149.958 105.252L148.446 101.028L146.934 105.252H149.958ZM154.504 102.636C154.72 102.26 155.04 101.948 155.464 101.7C155.896 101.444 156.396 101.316 156.964 101.316C157.548 101.316 158.076 101.456 158.548 101.736C159.028 102.016 159.404 102.412 159.676 102.924C159.948 103.428 160.084 104.016 160.084 104.688C160.084 105.352 159.948 105.944 159.676 106.464C159.404 106.984 159.028 107.388 158.548 107.676C158.076 107.964 157.548 108.108 156.964 108.108C156.404 108.108 155.908 107.984 155.476 107.736C155.052 107.48 154.728 107.164 154.504 106.788V111.12H153.412V101.424H154.504V102.636ZM158.968 104.688C158.968 104.192 158.868 103.76 158.668 103.392C158.468 103.024 158.196 102.744 157.852 102.552C157.516 102.36 157.144 102.264 156.736 102.264C156.336 102.264 155.964 102.364 155.62 102.564C155.284 102.756 155.012 103.04 154.804 103.416C154.604 103.784 154.504 104.212 154.504 104.7C154.504 105.196 154.604 105.632 154.804 106.008C155.012 106.376 155.284 106.66 155.62 106.86C155.964 107.052 156.336 107.148 156.736 107.148C157.144 107.148 157.516 107.052 157.852 106.86C158.196 106.66 158.468 106.376 158.668 106.008C158.868 105.632 158.968 105.192 158.968 104.688ZM162.614 102.492C162.806 102.116 163.078 101.824 163.43 101.616C163.79 101.408 164.226 101.304 164.738 101.304V102.432H164.45C163.226 102.432 162.614 103.096 162.614 104.424V108H161.522V101.424H162.614V102.492ZM168.885 107.124C169.901 106.308 170.697 105.64 171.273 105.12C171.849 104.592 172.333 104.044 172.725 103.476C173.125 102.9 173.325 102.336 173.325 101.784C173.325 101.264 173.197 100.856 172.941 100.56C172.693 100.256 172.289 100.104 171.729 100.104C171.185 100.104 170.761 100.276 170.457 100.62C170.161 100.956 170.001 101.408 169.977 101.976H168.921C168.953 101.08 169.225 100.388 169.737 99.9C170.249 99.412 170.909 99.168 171.717 99.168C172.541 99.168 173.193 99.396 173.673 99.852C174.161 100.308 174.405 100.936 174.405 101.736C174.405 102.4 174.205 103.048 173.805 103.68C173.413 104.304 172.965 104.856 172.461 105.336C171.957 105.808 171.313 106.36 170.529 106.992H174.657V107.904H168.885V107.124ZM181.452 100.272H177.24V103.008C177.424 102.752 177.696 102.544 178.056 102.384C178.416 102.216 178.804 102.132 179.22 102.132C179.884 102.132 180.424 102.272 180.84 102.552C181.256 102.824 181.552 103.18 181.728 103.62C181.912 104.052 182.004 104.512 182.004 105C182.004 105.576 181.896 106.092 181.68 106.548C181.464 107.004 181.132 107.364 180.684 107.628C180.244 107.892 179.696 108.024 179.04 108.024C178.2 108.024 177.52 107.808 177 107.376C176.48 106.944 176.164 106.368 176.052 105.648H177.12C177.224 106.104 177.444 106.46 177.78 106.716C178.116 106.972 178.54 107.1 179.052 107.1C179.684 107.1 180.16 106.912 180.48 106.536C180.8 106.152 180.96 105.648 180.96 105.024C180.96 104.4 180.8 103.92 180.48 103.584C180.16 103.24 179.688 103.068 179.064 103.068C178.64 103.068 178.268 103.172 177.948 103.38C177.636 103.58 177.408 103.856 177.264 104.208H176.232V99.312H181.452V100.272ZM184.763 106.488L183.419 109.716H182.687L183.563 106.488H184.763ZM188.901 107.124C189.917 106.308 190.713 105.64 191.289 105.12C191.865 104.592 192.349 104.044 192.741 103.476C193.141 102.9 193.341 102.336 193.341 101.784C193.341 101.264 193.213 100.856 192.957 100.56C192.709 100.256 192.305 100.104 191.745 100.104C191.201 100.104 190.777 100.276 190.473 100.62C190.177 100.956 190.017 101.408 189.993 101.976H188.937C188.969 101.08 189.241 100.388 189.753 99.9C190.265 99.412 190.925 99.168 191.733 99.168C192.557 99.168 193.209 99.396 193.689 99.852C194.177 100.308 194.421 100.936 194.421 101.736C194.421 102.4 194.221 103.048 193.821 103.68C193.429 104.304 192.981 104.856 192.477 105.336C191.973 105.808 191.329 106.36 190.545 106.992H194.673V107.904H188.901V107.124ZM195.935 103.572C195.935 102.196 196.159 101.124 196.607 100.356C197.055 99.58 197.839 99.192 198.959 99.192C200.071 99.192 200.851 99.58 201.299 100.356C201.747 101.124 201.971 102.196 201.971 103.572C201.971 104.972 201.747 106.06 201.299 106.836C200.851 107.612 200.071 108 198.959 108C197.839 108 197.055 107.612 196.607 106.836C196.159 106.06 195.935 104.972 195.935 103.572ZM200.891 103.572C200.891 102.876 200.843 102.288 200.747 101.808C200.659 101.32 200.471 100.928 200.183 100.632C199.903 100.336 199.495 100.188 198.959 100.188C198.415 100.188 197.999 100.336 197.711 100.632C197.431 100.928 197.243 101.32 197.147 101.808C197.059 102.288 197.015 102.876 197.015 103.572C197.015 104.292 197.059 104.896 197.147 105.384C197.243 105.872 197.431 106.264 197.711 106.56C197.999 106.856 198.415 107.004 198.959 107.004C199.495 107.004 199.903 106.856 200.183 106.56C200.471 106.264 200.659 105.872 200.747 105.384C200.843 104.896 200.891 104.292 200.891 103.572ZM203.339 107.124C204.355 106.308 205.151 105.64 205.727 105.12C206.303 104.592 206.787 104.044 207.179 103.476C207.579 102.9 207.779 102.336 207.779 101.784C207.779 101.264 207.651 100.856 207.395 100.56C207.147 100.256 206.743 100.104 206.183 100.104C205.639 100.104 205.215 100.276 204.911 100.62C204.615 100.956 204.455 101.408 204.431 101.976H203.375C203.407 101.08 203.679 100.388 204.191 99.9C204.703 99.412 205.363 99.168 206.171 99.168C206.995 99.168 207.647 99.396 208.127 99.852C208.615 100.308 208.859 100.936 208.859 101.736C208.859 102.4 208.659 103.048 208.259 103.68C207.867 104.304 207.419 104.856 206.915 105.336C206.411 105.808 205.767 106.36 204.983 106.992H209.111V107.904H203.339V107.124ZM210.109 106.068V105.24L214.321 99.408H215.629V105.12H216.829V106.068H215.629V108H214.549V106.068H210.109ZM214.597 100.548L211.369 105.12H214.597V100.548ZM220.891 104.688C220.891 104.016 221.027 103.428 221.299 102.924C221.571 102.412 221.943 102.016 222.415 101.736C222.895 101.456 223.427 101.316 224.011 101.316C224.587 101.316 225.087 101.44 225.511 101.688C225.935 101.936 226.251 102.248 226.459 102.624V101.424H227.563V108H226.459V106.776C226.243 107.16 225.919 107.48 225.487 107.736C225.063 107.984 224.567 108.108 223.999 108.108C223.415 108.108 222.887 107.964 222.415 107.676C221.943 107.388 221.571 106.984 221.299 106.464C221.027 105.944 220.891 105.352 220.891 104.688ZM226.459 104.7C226.459 104.204 226.359 103.772 226.159 103.404C225.959 103.036 225.687 102.756 225.343 102.564C225.007 102.364 224.635 102.264 224.227 102.264C223.819 102.264 223.447 102.36 223.111 102.552C222.775 102.744 222.507 103.024 222.307 103.392C222.107 103.76 222.007 104.192 222.007 104.688C222.007 105.192 222.107 105.632 222.307 106.008C222.507 106.376 222.775 106.66 223.111 106.86C223.447 107.052 223.819 107.148 224.227 107.148C224.635 107.148 225.007 107.052 225.343 106.86C225.687 106.66 225.959 106.376 226.159 106.008C226.359 105.632 226.459 105.196 226.459 104.7ZM230.74 102.324V106.2C230.74 106.52 230.808 106.748 230.944 106.884C231.08 107.012 231.316 107.076 231.652 107.076H232.456V108H231.472C230.864 108 230.408 107.86 230.104 107.58C229.8 107.3 229.648 106.84 229.648 106.2V102.324H228.796V101.424H229.648V99.768H230.74V101.424H232.456V102.324H230.74ZM236.511 100.32V99.324H238.767V108H237.663V100.32H236.511ZM240.618 101.508C240.674 100.772 240.958 100.196 241.47 99.78C241.982 99.364 242.646 99.156 243.462 99.156C244.006 99.156 244.474 99.256 244.866 99.456C245.266 99.648 245.566 99.912 245.766 100.248C245.974 100.584 246.078 100.964 246.078 101.388C246.078 101.884 245.934 102.312 245.646 102.672C245.366 103.032 244.998 103.264 244.542 103.368V103.428C245.062 103.556 245.474 103.808 245.778 104.184C246.082 104.56 246.234 105.052 246.234 105.66C246.234 106.116 246.13 106.528 245.922 106.896C245.714 107.256 245.402 107.54 244.986 107.748C244.57 107.956 244.07 108.06 243.486 108.06C242.638 108.06 241.942 107.84 241.398 107.4C240.854 106.952 240.55 106.32 240.486 105.504H241.542C241.598 105.984 241.794 106.376 242.13 106.68C242.466 106.984 242.914 107.136 243.474 107.136C244.034 107.136 244.458 106.992 244.746 106.704C245.042 106.408 245.19 106.028 245.19 105.564C245.19 104.964 244.99 104.532 244.59 104.268C244.19 104.004 243.586 103.872 242.778 103.872H242.502V102.96H242.79C243.526 102.952 244.082 102.832 244.458 102.6C244.834 102.36 245.022 101.992 245.022 101.496C245.022 101.072 244.882 100.732 244.602 100.476C244.33 100.22 243.938 100.092 243.426 100.092C242.93 100.092 242.53 100.22 242.226 100.476C241.922 100.732 241.742 101.076 241.686 101.508H240.618ZM248.237 108.072C248.029 108.072 247.853 108 247.709 107.856C247.565 107.712 247.493 107.536 247.493 107.328C247.493 107.12 247.565 106.944 247.709 106.8C247.853 106.656 248.029 106.584 248.237 106.584C248.437 106.584 248.605 106.656 248.741 106.8C248.885 106.944 248.957 107.12 248.957 107.328C248.957 107.536 248.885 107.712 248.741 107.856C248.605 108 248.437 108.072 248.237 108.072ZM248.237 102.936C248.029 102.936 247.853 102.864 247.709 102.72C247.565 102.576 247.493 102.4 247.493 102.192C247.493 101.984 247.565 101.808 247.709 101.664C247.853 101.52 248.029 101.448 248.237 101.448C248.437 101.448 248.605 101.52 248.741 101.664C248.885 101.808 248.957 101.984 248.957 102.192C248.957 102.4 248.885 102.576 248.741 102.72C248.605 102.864 248.437 102.936 248.237 102.936ZM249.976 100.32V99.324H252.232V108H251.128V100.32H249.976ZM253.975 107.124C254.991 106.308 255.787 105.64 256.363 105.12C256.939 104.592 257.423 104.044 257.815 103.476C258.215 102.9 258.415 102.336 258.415 101.784C258.415 101.264 258.287 100.856 258.031 100.56C257.783 100.256 257.379 100.104 256.819 100.104C256.275 100.104 255.851 100.276 255.547 100.62C255.251 100.956 255.091 101.408 255.067 101.976H254.011C254.043 101.08 254.315 100.388 254.827 99.9C255.339 99.412 255.999 99.168 256.807 99.168C257.631 99.168 258.283 99.396 258.763 99.852C259.251 100.308 259.495 100.936 259.495 101.736C259.495 102.4 259.295 103.048 258.895 103.68C258.503 104.304 258.055 104.856 257.551 105.336C257.047 105.808 256.403 106.36 255.619 106.992H259.747V107.904H253.975V107.124ZM261.538 108.072C261.33 108.072 261.154 108 261.01 107.856C260.866 107.712 260.794 107.536 260.794 107.328C260.794 107.12 260.866 106.944 261.01 106.8C261.154 106.656 261.33 106.584 261.538 106.584C261.738 106.584 261.906 106.656 262.042 106.8C262.186 106.944 262.258 107.12 262.258 107.328C262.258 107.536 262.186 107.712 262.042 107.856C261.906 108 261.738 108.072 261.538 108.072ZM261.538 102.936C261.33 102.936 261.154 102.864 261.01 102.72C260.866 102.576 260.794 102.4 260.794 102.192C260.794 101.984 260.866 101.808 261.01 101.664C261.154 101.52 261.33 101.448 261.538 101.448C261.738 101.448 261.906 101.52 262.042 101.664C262.186 101.808 262.258 101.984 262.258 102.192C262.258 102.4 262.186 102.576 262.042 102.72C261.906 102.864 261.738 102.936 261.538 102.936ZM263.276 100.32V99.324H265.532V108H264.428V100.32H263.276ZM267.144 106.068V105.24L271.356 99.408H272.664V105.12H273.864V106.068H272.664V108H271.584V106.068H267.144ZM271.632 100.548L268.404 105.12H271.632V100.548Z" fill="#73798B"/>
</svg>
