<svg width="880" height="438" viewBox="0 0 880 438" fill="none" xmlns="http://www.w3.org/2000/svg">
<rect x="0.5" y="0.5" width="879" height="437" rx="10.5" fill="white"/>
<rect x="0.5" y="0.5" width="879" height="437" rx="10.5" stroke="#EDEEF3"/>
<g filter="url(#filter0_i_3885_3574)">
<rect x="1" y="1" width="878" height="52" fill="#F8F9FC"/>
</g>
<path d="M38.644 29.166L39.688 28.554C40.75 29.778 41.848 31.38 42.244 32.496L41.128 33.198C40.75 32.082 39.688 30.39 38.644 29.166ZM32.416 28.176L33.37 27.402C34.576 28.212 35.962 29.436 36.628 30.264L35.638 31.146C34.972 30.264 33.586 28.986 32.416 28.176ZM30.058 28.68H31.462V32.37C31.462 32.928 31.678 33.018 32.83 33.018C33.334 33.018 35.998 33.018 36.7 33.018C37.582 33.018 37.726 32.784 37.816 31.2C38.14 31.398 38.698 31.596 39.094 31.686C38.914 33.738 38.464 34.242 36.808 34.242C36.34 34.242 33.172 34.242 32.758 34.242C30.598 34.242 30.058 33.864 30.058 32.388V28.68ZM27.466 28.95L28.726 29.202C28.42 30.66 27.808 32.37 27.016 33.45L25.756 32.856C26.512 31.938 27.142 30.354 27.466 28.95ZM29.626 18.492L30.778 17.97C31.57 18.888 32.38 20.13 32.704 20.994L31.48 21.606C31.174 20.76 30.4 19.464 29.626 18.492ZM37.294 17.916L38.68 18.474C37.906 19.824 36.988 21.354 36.214 22.38L35.098 21.858C35.854 20.796 36.79 19.122 37.294 17.916ZM29.77 22.812V25.98H38.248V22.812H29.77ZM28.33 21.534H39.742V27.258H28.33V21.534ZM44.512 19.482L45.214 18.546C46.51 18.978 48.166 19.752 48.994 20.382L48.292 21.444C47.482 20.796 45.844 19.968 44.512 19.482ZM43.882 24.09C45.196 23.712 47.14 23.1 49.102 22.47L49.318 23.658C47.554 24.252 45.718 24.846 44.278 25.332L43.882 24.09ZM51.712 17.952L52.99 18.132C52.378 19.716 51.406 21.372 49.786 22.686C49.57 22.38 49.138 22.002 48.832 21.84C50.308 20.742 51.244 19.212 51.712 17.952ZM51.73 19.554H58.552V20.616H50.974L51.73 19.554ZM58.246 19.554H58.462L58.696 19.5L59.668 19.77C59.2 20.76 58.678 21.84 58.21 22.56L57.04 22.218C57.436 21.588 57.922 20.598 58.246 19.734V19.554ZM46.276 26.322H57.922V31.218H56.536V27.564H47.608V31.344H46.276V26.322ZM51.496 28.104H52.828C52.216 31.686 50.56 33.63 44.494 34.476C44.404 34.17 44.116 33.648 43.882 33.378C49.606 32.676 50.974 31.074 51.496 28.104ZM52.27 31.668L53.026 30.678C55.24 31.344 58.246 32.478 59.83 33.252L59.038 34.386C57.508 33.576 54.538 32.388 52.27 31.668ZM53.962 20.094H55.312C54.736 22.722 53.386 24.846 49.588 25.998C49.444 25.692 49.12 25.224 48.85 25.008C52.36 24.072 53.476 22.182 53.962 20.094ZM54.754 21.318C55.69 22.992 57.724 24.288 60.082 24.792C59.794 25.044 59.452 25.53 59.272 25.872C56.824 25.17 54.772 23.622 53.746 21.606L54.754 21.318ZM64.006 24.666H77.704V25.998H64.006V24.666ZM62.98 20.058H77.236V21.336H62.98V20.058ZM63.232 24.666H64.636V27.15C64.636 29.31 64.312 32.46 62.746 34.584C62.512 34.314 61.918 33.81 61.63 33.648C63.052 31.686 63.232 29.022 63.232 27.114V24.666ZM65.716 22.002L66.904 21.516C67.498 22.272 68.182 23.352 68.488 24.054L67.264 24.612C66.976 23.91 66.328 22.794 65.716 22.002ZM73.384 21.606L74.86 22.092C74.23 23.154 73.51 24.396 72.916 25.188L71.872 24.738C72.394 23.892 73.042 22.542 73.384 21.606ZM68.65 18.24L69.982 17.862C70.54 18.51 71.098 19.428 71.35 20.04L69.928 20.49C69.712 19.86 69.172 18.924 68.65 18.24Z" fill="#1C1C1C"/>
<rect x="24.5" y="76.5" width="341" height="41" rx="6.5" fill="#F8F9FC" stroke="#EDEEF3"/>
<g filter="url(#filter1_dd_3885_3574)">
<rect x="29" y="81" width="80" height="32" rx="4" fill="white"/>
</g>
<path d="M64.142 90.954H73.914V103.078H72.108V92.648H65.878V103.092H64.142V90.954ZM65.332 95.658H72.864V97.324H65.332V95.658ZM65.318 100.488H72.864V102.182H65.318V100.488Z" fill="#1F32D6"/>
<rect x="113" y="81" width="80" height="32" rx="4" fill="white" fill-opacity="0.01"/>
<path d="M148.688 90.926H157.662V91.906H148.688V90.926ZM150.018 93.39H156.178V94.244H150.018V93.39ZM149.682 95.602H156.528V96.484H149.682V95.602ZM148.058 90.926H149.094V95.462C149.094 97.772 148.884 101.034 147.288 103.204C147.12 103.008 146.686 102.658 146.448 102.532C147.918 100.488 148.058 97.618 148.058 95.462V90.926ZM157.256 90.926H158.32V101.79C158.32 102.462 158.152 102.756 157.704 102.938C157.256 103.092 156.514 103.106 155.254 103.106C155.212 102.84 155.044 102.392 154.904 102.126C155.8 102.154 156.668 102.14 156.92 102.126C157.172 102.126 157.256 102.042 157.256 101.804V90.926ZM152.538 92.186H153.532V96.12H152.538V92.186ZM150.928 97.66H155.814V101.328H150.928V100.502H154.834V98.5H150.928V97.66ZM150.368 97.66H151.334V102.112H150.368V97.66Z" fill="#73798B"/>
<rect x="197" y="81" width="80" height="32" rx="4" fill="white" fill-opacity="0.01"/>
<path d="M233.542 90.982H240.85V92.004H233.542V90.982ZM233.542 94.356H240.906V95.364H233.542V94.356ZM233.43 97.744H240.836V98.752H233.43V97.744ZM232.898 90.982H233.962V95.308C233.962 97.73 233.612 101.034 231.204 103.134C231.05 102.91 230.63 102.532 230.406 102.378C232.66 100.404 232.898 97.562 232.898 95.308V90.982ZM240.388 90.982H241.48V101.58C241.48 102.322 241.284 102.686 240.752 102.868C240.206 103.05 239.282 103.064 237.77 103.064C237.7 102.756 237.504 102.252 237.322 101.958C238.484 102 239.632 101.986 239.954 101.986C240.276 101.972 240.388 101.874 240.388 101.566V90.982Z" fill="#73798B"/>
<rect x="281" y="81" width="80" height="32" rx="4" fill="white" fill-opacity="0.01"/>
<path d="M317.878 90.198L318.928 90.464C318.158 92.536 316.912 94.482 315.61 95.742C315.4 95.56 314.966 95.21 314.7 95.07C316.03 93.908 317.192 92.088 317.878 90.198ZM317.654 91.934H326.684V92.956H317.15L317.654 91.934ZM316.968 95.112H326.376V96.092H318.018V99.41H316.968V95.112ZM314.658 98.878H327.342V99.9H314.658V98.878ZM321.168 92.466H322.246V103.134H321.168V92.466Z" fill="#73798B"/>
<path d="M849 76.5H780C776.41 76.5 773.5 79.4101 773.5 83V111C773.5 114.59 776.41 117.5 780 117.5H849C852.59 117.5 855.5 114.59 855.5 111V83C855.5 79.4101 852.59 76.5 849 76.5Z" fill="white" stroke="#EDEEF3"/>
<path d="M792.632 92.27V98.472C792.632 99.2093 792.823 99.7647 793.206 100.138C793.598 100.511 794.139 100.698 794.83 100.698C795.53 100.698 796.071 100.511 796.454 100.138C796.846 99.7647 797.042 99.2093 797.042 98.472V92.27H798.638V98.444C798.638 99.2373 798.465 99.9093 798.12 100.46C797.775 101.011 797.313 101.421 796.734 101.692C796.155 101.963 795.516 102.098 794.816 102.098C794.116 102.098 793.477 101.963 792.898 101.692C792.329 101.421 791.876 101.011 791.54 100.46C791.204 99.9093 791.036 99.2373 791.036 98.444V92.27H792.632ZM803.922 102.098C803.269 102.098 802.681 101.986 802.158 101.762C801.635 101.529 801.225 101.202 800.926 100.782C800.627 100.362 800.478 99.872 800.478 99.312H802.186C802.223 99.732 802.387 100.077 802.676 100.348C802.975 100.619 803.39 100.754 803.922 100.754C804.473 100.754 804.902 100.623 805.21 100.362C805.518 100.091 805.672 99.746 805.672 99.326C805.672 98.9993 805.574 98.7333 805.378 98.528C805.191 98.3227 804.953 98.164 804.664 98.052C804.384 97.94 803.992 97.8187 803.488 97.688C802.853 97.52 802.335 97.352 801.934 97.184C801.542 97.0067 801.206 96.736 800.926 96.372C800.646 96.008 800.506 95.5227 800.506 94.916C800.506 94.356 800.646 93.866 800.926 93.446C801.206 93.026 801.598 92.704 802.102 92.48C802.606 92.256 803.189 92.144 803.852 92.144C804.795 92.144 805.565 92.382 806.162 92.858C806.769 93.3247 807.105 93.9687 807.17 94.79H805.406C805.378 94.4353 805.21 94.132 804.902 93.88C804.594 93.628 804.188 93.502 803.684 93.502C803.227 93.502 802.853 93.6187 802.564 93.852C802.275 94.0853 802.13 94.4213 802.13 94.86C802.13 95.1587 802.219 95.406 802.396 95.602C802.583 95.7887 802.816 95.938 803.096 96.05C803.376 96.162 803.759 96.2833 804.244 96.414C804.888 96.5913 805.411 96.7687 805.812 96.946C806.223 97.1233 806.568 97.3987 806.848 97.772C807.137 98.136 807.282 98.626 807.282 99.242C807.282 99.7367 807.147 100.203 806.876 100.642C806.615 101.081 806.227 101.435 805.714 101.706C805.21 101.967 804.613 102.098 803.922 102.098ZM812.343 92.27C813.379 92.27 814.285 92.4707 815.059 92.872C815.843 93.264 816.445 93.8333 816.865 94.58C817.295 95.3173 817.509 96.1807 817.509 97.17C817.509 98.1593 817.295 99.018 816.865 99.746C816.445 100.474 815.843 101.034 815.059 101.426C814.285 101.809 813.379 102 812.343 102H809.165V92.27H812.343ZM812.343 100.698C813.482 100.698 814.355 100.39 814.961 99.774C815.568 99.158 815.871 98.29 815.871 97.17C815.871 96.0407 815.568 95.1587 814.961 94.524C814.355 93.8893 813.482 93.572 812.343 93.572H810.761V100.698H812.343Z" fill="#1C1C1C"/>
<rect x="827" y="91" width="12" height="12" fill="#D8D8D8" fill-opacity="0.01"/>
<path d="M828.5 95L833 99.5L837.5 95" stroke="#73798B" stroke-width="2" stroke-linecap="round" stroke-linejoin="round"/>
<path d="M28.9 399.952H34.048V400.756H28.9V399.952ZM33.76 399.952H33.952L34.108 399.916L34.696 400.276C32.992 402.868 29.152 404.32 25.768 404.884C25.684 404.62 25.504 404.224 25.36 404.032C28.624 403.588 32.32 402.22 33.76 400.084V399.952ZM28.852 400.768C30.316 402.472 33.376 403.528 36.664 403.888C36.472 404.092 36.232 404.464 36.112 404.716C32.836 404.284 29.764 403.12 28.072 401.176L28.852 400.768ZM27.04 404.716H34.912V409.936H33.94V405.52H27.964V409.972H27.04V404.716ZM27.412 406.72H34.372V407.452H27.412V406.72ZM27.412 408.784H34.372V409.576H27.412V408.784ZM30.508 405.088H31.444V409.228H30.508V405.088ZM29.428 398.896L30.388 399.088C29.584 400.372 28.36 401.644 26.524 402.616C26.392 402.388 26.116 402.088 25.912 401.944C27.64 401.128 28.828 399.928 29.428 398.896ZM42.58 399.568L43.168 398.896C44.152 399.4 45.376 400.192 45.964 400.78L45.328 401.536C44.776 400.936 43.576 400.096 42.58 399.568ZM41.488 404.956H47.836V405.82H41.488V404.956ZM40.636 408.736H48.532V409.6H40.636V408.736ZM41.044 401.512H48.28V402.376H41.044V401.512ZM44.128 401.824H45.052V409.132H44.128V401.824ZM38.152 399.676L38.644 399.016C39.436 399.316 40.444 399.856 40.936 400.276L40.408 401.032C39.928 400.588 38.956 400.024 38.152 399.676ZM37.456 402.952L37.924 402.268C38.728 402.532 39.76 403 40.276 403.384L39.796 404.152C39.292 403.756 38.272 403.252 37.456 402.952ZM37.9 409.192C38.548 408.28 39.496 406.696 40.192 405.328L40.84 405.916C40.204 407.188 39.364 408.688 38.656 409.804L37.9 409.192ZM55 402.484C54.508 402.484 54.088 402.124 54.088 401.584C54.088 401.032 54.508 400.672 55 400.672C55.48 400.672 55.9 401.032 55.9 401.584C55.9 402.124 55.48 402.484 55 402.484ZM55 408.352C54.508 408.352 54.088 408.004 54.088 407.452C54.088 406.9 54.508 406.552 55 406.552C55.48 406.552 55.9 406.9 55.9 407.452C55.9 408.004 55.48 408.352 55 408.352ZM62.008 399.988L62.476 399.364C63.34 399.652 64.444 400.168 64.996 400.588L64.528 401.296C63.988 400.864 62.896 400.312 62.008 399.988ZM61.588 403.06C62.464 402.808 63.76 402.4 65.068 401.98L65.212 402.772C64.036 403.168 62.812 403.564 61.852 403.888L61.588 403.06ZM66.808 398.968L67.66 399.088C67.252 400.144 66.604 401.248 65.524 402.124C65.38 401.92 65.092 401.668 64.888 401.56C65.872 400.828 66.496 399.808 66.808 398.968ZM66.82 400.036H71.368V400.744H66.316L66.82 400.036ZM71.164 400.036H71.308L71.464 400L72.112 400.18C71.8 400.84 71.452 401.56 71.14 402.04L70.36 401.812C70.624 401.392 70.948 400.732 71.164 400.156V400.036ZM63.184 404.548H70.948V407.812H70.024V405.376H64.072V407.896H63.184V404.548ZM66.664 405.736H67.552C67.144 408.124 66.04 409.42 61.996 409.984C61.936 409.78 61.744 409.432 61.588 409.252C65.404 408.784 66.316 407.716 66.664 405.736ZM67.18 408.112L67.684 407.452C69.16 407.896 71.164 408.652 72.22 409.168L71.692 409.924C70.672 409.384 68.692 408.592 67.18 408.112ZM68.308 400.396H69.208C68.824 402.148 67.924 403.564 65.392 404.332C65.296 404.128 65.08 403.816 64.9 403.672C67.24 403.048 67.984 401.788 68.308 400.396ZM68.836 401.212C69.46 402.328 70.816 403.192 72.388 403.528C72.196 403.696 71.968 404.02 71.848 404.248C70.216 403.78 68.848 402.748 68.164 401.404L68.836 401.212ZM75.004 403.444H84.136V404.332H75.004V403.444ZM74.32 400.372H83.824V401.224H74.32V400.372ZM74.488 403.444H75.424V405.1C75.424 406.54 75.208 408.64 74.164 410.056C74.008 409.876 73.612 409.54 73.42 409.432C74.368 408.124 74.488 406.348 74.488 405.076V403.444ZM76.144 401.668L76.936 401.344C77.332 401.848 77.788 402.568 77.992 403.036L77.176 403.408C76.984 402.94 76.552 402.196 76.144 401.668ZM81.256 401.404L82.24 401.728C81.82 402.436 81.34 403.264 80.944 403.792L80.248 403.492C80.596 402.928 81.028 402.028 81.256 401.404ZM78.1 399.16L78.988 398.908C79.36 399.34 79.732 399.952 79.9 400.36L78.952 400.66C78.808 400.24 78.448 399.616 78.1 399.16ZM90.952 399.808C89.932 401.152 88 402.724 85.996 403.72C85.876 403.504 85.636 403.192 85.444 403C87.496 402.028 89.488 400.384 90.448 398.956H91.348C92.644 400.576 94.72 402.088 96.592 402.856C96.376 403.084 96.16 403.396 96.004 403.648C94.18 402.772 92.092 401.224 90.952 399.808ZM87.82 402.592H94.084V403.42H87.82V402.592ZM86.14 404.956H95.956V405.808H86.14V404.956ZM92.8 406.96L93.52 406.48C94.492 407.212 95.704 408.268 96.292 408.976L95.524 409.528C94.972 408.808 93.796 407.716 92.8 406.96ZM88.156 406.552L89.008 406.84C88.276 407.848 87.172 408.856 86.2 409.504C86.056 409.348 85.708 409.036 85.504 408.904C86.488 408.328 87.52 407.428 88.156 406.552ZM90.484 402.952H91.432V408.88C91.432 409.408 91.3 409.672 90.916 409.816C90.532 409.948 89.932 409.972 88.984 409.96C88.936 409.72 88.768 409.336 88.612 409.108C89.344 409.132 90.028 409.12 90.232 409.12C90.424 409.108 90.484 409.06 90.484 408.88V402.952ZM103.168 399.64H108.436V400.432H103.168V399.64ZM105.484 400.096L106.264 400.288C106.024 400.924 105.784 401.608 105.556 402.076L104.872 401.884C105.076 401.392 105.352 400.612 105.484 400.096ZM103.36 401.68H107.98V407.32H107.188V402.412H104.14V407.344H103.36V401.68ZM105.316 403.084H106.096C106.036 407.068 105.784 408.976 102.952 410.008C102.868 409.816 102.64 409.516 102.484 409.372C105.1 408.46 105.256 406.804 105.316 403.084ZM105.844 407.992L106.336 407.44C107.116 408.004 108.148 408.796 108.652 409.3L108.148 409.936C107.656 409.408 106.648 408.58 105.844 407.992ZM97.732 400.084H102.964V401.896H102.136V400.828H98.524V401.896H97.732V400.084ZM98.512 406.204H102.256V409.852H101.416V406.936H99.316V409.876H98.512V406.204ZM98.812 408.76H101.8V409.492H98.812V408.76ZM99.556 401.224L100.372 401.368C99.892 402.364 99.16 403.42 98.008 404.248C97.888 404.068 97.648 403.792 97.48 403.684C98.512 402.988 99.196 402.028 99.556 401.224ZM99.664 402.064H101.824V402.76H99.304L99.664 402.064ZM101.656 402.064H101.848L102.004 402.028L102.496 402.352C101.608 404.308 99.724 405.688 97.828 406.408C97.768 406.168 97.588 405.76 97.456 405.604C99.232 405.004 100.96 403.804 101.656 402.22V402.064ZM99.568 399.16L100.384 398.968C100.636 399.388 100.96 399.976 101.116 400.324L100.252 400.564C100.108 400.204 99.82 399.604 99.568 399.16ZM98.776 404.008L99.352 403.48C100.528 404.056 102.16 404.932 103.012 405.484L102.4 406.12C101.596 405.556 99.988 404.632 98.776 404.008ZM110.572 400.852H114.22V408.7H110.572V407.884H113.38V401.656H110.572V400.852ZM110.032 400.852H110.872V409.66H110.032V400.852ZM110.512 404.188H113.824V404.992H110.512V404.188ZM111.868 398.896L112.84 399.076C112.6 399.82 112.3 400.648 112.06 401.188L111.34 401.008C111.544 400.432 111.772 399.52 111.868 398.896ZM115.924 400.816H119.608V401.656H115.924V400.816ZM119.296 400.816H120.136C120.136 400.816 120.136 401.152 120.136 401.284C119.944 406.792 119.776 408.652 119.296 409.24C119.032 409.588 118.756 409.696 118.336 409.732C117.928 409.78 117.22 409.756 116.548 409.72C116.524 409.456 116.416 409.084 116.248 408.844C117.028 408.904 117.748 408.916 118.024 408.916C118.264 408.916 118.408 408.88 118.54 408.724C118.936 408.292 119.128 406.3 119.296 401.008V400.816ZM116.176 398.872L117.04 399.076C116.596 400.864 115.888 402.628 115.06 403.768C114.904 403.624 114.532 403.372 114.316 403.252C115.132 402.196 115.792 400.54 116.176 398.872ZM115.624 403.936L116.32 403.528C117.004 404.38 117.832 405.544 118.216 406.252L117.448 406.732C117.088 406 116.284 404.812 115.624 403.936ZM122.644 399.712L123.22 399.136C123.892 399.664 124.744 400.432 125.14 400.936L124.54 401.596C124.144 401.092 123.304 400.276 122.644 399.712ZM123.34 409.732L123.172 408.844L123.436 408.46L125.836 406.816C125.896 407.068 126.04 407.44 126.136 407.62C123.868 409.228 123.532 409.48 123.34 409.732ZM121.552 402.688H124.012V403.588H121.552V402.688ZM125.452 402.904H132.508V403.828H125.452V402.904ZM128.5 398.956H129.448V409.96H128.5V398.956ZM123.34 409.732C123.256 409.492 123.028 409.096 122.86 408.904C123.088 408.76 123.448 408.412 123.448 407.896V402.688H124.36V408.7C124.36 408.7 123.34 409.384 123.34 409.732ZM133.672 407.188H144.376V407.932H133.672V407.188ZM136.024 403.528V404.224H142.168V403.528H136.024ZM136.024 404.812V405.532H142.168V404.812H136.024ZM136.024 402.256V402.952H142.168V402.256H136.024ZM135.112 401.644H143.104V406.132H135.112V401.644ZM140.704 405.976H141.616V409.948H140.704V405.976ZM134.956 399.82H138.832V400.564H134.956V399.82ZM139.588 399.82H144.268V400.564H139.588V399.82ZM135.184 398.872L136.036 399.1C135.58 400.144 134.848 401.176 134.152 401.848C133.984 401.716 133.624 401.464 133.408 401.356C134.14 400.744 134.812 399.808 135.184 398.872ZM139.912 398.872L140.764 399.076C140.392 400.096 139.696 401.068 139.012 401.692C138.832 401.548 138.448 401.344 138.22 401.236C138.952 400.66 139.576 399.784 139.912 398.872ZM135.724 400.408L136.48 400.156C136.768 400.528 137.104 401.056 137.236 401.404L136.456 401.692C136.312 401.344 136.024 400.792 135.724 400.408ZM140.776 400.372L141.496 400.048C141.892 400.42 142.348 400.96 142.552 401.344L141.796 401.692C141.604 401.332 141.172 400.756 140.776 400.372ZM136.732 405.964H137.644V406.936C137.644 407.968 137.212 409.18 134.428 409.972C134.296 409.78 134.056 409.48 133.864 409.3C136.432 408.676 136.732 407.644 136.732 406.924V405.964ZM146.404 399.928H149.728V407.74H146.404V406.924H148.888V400.744H146.404V399.928ZM146.452 403.372H149.2V404.176H146.452V403.372ZM145.972 399.928H146.824V408.7H145.972V399.928ZM150.268 401.332H156.532V402.22H150.268V401.332ZM154.168 398.992H155.08V408.604C155.08 409.264 154.9 409.54 154.468 409.684C154.036 409.828 153.28 409.852 152.068 409.84C152.02 409.588 151.876 409.18 151.744 408.928C152.68 408.952 153.556 408.952 153.82 408.94C154.072 408.928 154.168 408.856 154.168 408.604V398.992ZM150.676 403.576L151.42 403.192C152.068 404.104 152.896 405.328 153.304 406.048L152.512 406.516C152.128 405.784 151.324 404.5 150.676 403.576ZM158.092 401.632H159.004V409.972H158.092V401.632ZM158.26 399.508L158.956 399.088C159.52 399.58 160.168 400.3 160.468 400.792L159.712 401.284C159.448 400.792 158.812 400.048 158.26 399.508ZM161.212 399.604H167.536V400.444H161.212V399.604ZM167.02 399.604H167.944V408.868C167.944 409.372 167.848 409.612 167.536 409.756C167.212 409.9 166.696 409.912 165.952 409.912C165.916 409.684 165.796 409.312 165.676 409.072C166.18 409.096 166.672 409.084 166.816 409.084C166.984 409.084 167.02 409.024 167.02 408.868V399.604ZM161.536 405.46V407.08H164.428V405.46H161.536ZM161.536 403.108V404.716H164.428V403.108H161.536ZM160.72 402.364H165.28V407.836H160.72V402.364ZM169.972 401.812H179.236V402.712H169.972V401.812ZM178.864 401.812H179.8C179.8 401.812 179.8 402.148 179.788 402.28C179.608 407.092 179.44 408.796 178.96 409.348C178.696 409.684 178.408 409.792 177.976 409.828C177.556 409.864 176.788 409.852 176.056 409.804C176.032 409.54 175.912 409.144 175.744 408.868C176.548 408.952 177.304 408.952 177.604 408.952C177.856 408.952 177.988 408.916 178.132 408.772C178.516 408.388 178.708 406.612 178.864 402.004V401.812ZM173.92 398.944H174.832V400.372C174.832 403.06 174.544 407.02 170.356 409.804C170.212 409.588 169.876 409.288 169.648 409.132C173.668 406.528 173.92 402.856 173.92 400.372V398.944ZM170.932 399.592L171.712 399.256C172.192 399.784 172.756 400.54 173.008 401.032L172.192 401.416C171.964 400.936 171.412 400.156 170.932 399.592ZM174.976 404.56L175.72 404.188C176.356 404.896 177.088 405.868 177.4 406.504L176.608 406.924C176.308 406.288 175.588 405.28 174.976 404.56ZM184.108 402.16H190.372V402.976H184.108V402.16ZM183.244 407.596H192.088V408.4H183.244V407.596ZM183.7 400.324H192.052V401.14H183.7V400.324ZM190.012 402.16H190.9C190.9 402.16 190.888 402.484 190.888 402.604C190.744 407.44 190.576 409.012 190.192 409.516C189.964 409.816 189.7 409.912 189.34 409.948C188.98 409.972 188.38 409.972 187.78 409.936C187.768 409.732 187.684 409.42 187.564 409.216C188.176 409.264 188.728 409.276 188.956 409.264C189.184 409.264 189.292 409.24 189.4 409.096C189.712 408.712 189.88 407.032 190.012 402.352V402.16ZM183.664 402.16H184.576C184.312 404.308 183.904 407.2 183.604 408.856L182.692 408.796C183.028 407.128 183.46 404.236 183.664 402.16ZM184.24 398.86L185.176 399.124C184.456 400.768 183.364 402.388 182.32 403.444C182.128 403.3 181.72 403.024 181.48 402.892C182.584 401.92 183.616 400.384 184.24 398.86ZM185.68 403.516L186.196 403C186.976 403.348 187.912 403.888 188.392 404.332L187.852 404.896C187.396 404.452 186.472 403.864 185.68 403.516ZM185.38 406.144L185.884 405.64C186.7 406.024 187.696 406.66 188.188 407.128L187.66 407.704C187.18 407.224 186.196 406.564 185.38 406.144ZM181.504 404.848H183.748V404.872H190.372V404.848H192.508V405.664H190.372V405.64H183.748V405.664H181.504V404.848ZM199.54 398.932L200.428 399.076C199.888 400.396 199.024 401.872 197.716 403.06C197.572 402.856 197.284 402.592 197.08 402.472C198.304 401.44 199.12 400.036 199.54 398.932ZM199.528 399.964H202.216V400.732H199.06L199.528 399.964ZM200.548 402.22H201.412C201.232 405.952 200.812 408.7 196.66 409.996C196.564 409.768 196.324 409.444 196.132 409.264C200.104 408.124 200.392 405.628 200.548 402.22ZM201.124 405.196H201.976V408.604C201.976 408.916 202.024 408.952 202.348 408.952C202.492 408.952 203.212 408.952 203.404 408.952C203.716 408.952 203.776 408.772 203.8 407.392C203.992 407.548 204.34 407.68 204.58 407.752C204.496 409.36 204.268 409.768 203.488 409.768C203.284 409.768 202.42 409.768 202.24 409.768C201.34 409.768 201.124 409.516 201.124 408.616V405.196ZM194.368 399.82H197.2V407.62H194.368V406.816H196.372V400.624H194.368V399.82ZM194.392 403.264H196.756V404.068H194.392V403.264ZM193.912 399.82H194.728V408.568H193.912V399.82ZM198.808 402.736V404.884H203.2V402.736H198.808ZM198.016 401.968H204.04V405.652H198.016V401.968ZM201.916 399.964H202.096L202.228 399.928L202.78 400.288C202.432 401.032 201.82 401.908 201.34 402.448C201.172 402.328 200.908 402.16 200.716 402.076C201.16 401.56 201.664 400.708 201.916 400.12V399.964ZM208.811 408.124C209.827 407.308 210.623 406.64 211.199 406.12C211.775 405.592 212.259 405.044 212.651 404.476C213.051 403.9 213.251 403.336 213.251 402.784C213.251 402.264 213.123 401.856 212.867 401.56C212.619 401.256 212.215 401.104 211.655 401.104C211.111 401.104 210.687 401.276 210.383 401.62C210.087 401.956 209.927 402.408 209.903 402.976H208.847C208.879 402.08 209.151 401.388 209.663 400.9C210.175 400.412 210.835 400.168 211.643 400.168C212.467 400.168 213.119 400.396 213.599 400.852C214.087 401.308 214.331 401.936 214.331 402.736C214.331 403.4 214.131 404.048 213.731 404.68C213.339 405.304 212.891 405.856 212.387 406.336C211.883 406.808 211.239 407.36 210.455 407.992H214.583V408.904H208.811V408.124ZM215.822 402.508C215.878 401.772 216.162 401.196 216.674 400.78C217.186 400.364 217.85 400.156 218.666 400.156C219.21 400.156 219.678 400.256 220.07 400.456C220.47 400.648 220.77 400.912 220.97 401.248C221.178 401.584 221.282 401.964 221.282 402.388C221.282 402.884 221.138 403.312 220.85 403.672C220.57 404.032 220.202 404.264 219.746 404.368V404.428C220.266 404.556 220.678 404.808 220.982 405.184C221.286 405.56 221.438 406.052 221.438 406.66C221.438 407.116 221.334 407.528 221.126 407.896C220.918 408.256 220.606 408.54 220.19 408.748C219.774 408.956 219.274 409.06 218.69 409.06C217.842 409.06 217.146 408.84 216.602 408.4C216.058 407.952 215.754 407.32 215.69 406.504H216.746C216.802 406.984 216.998 407.376 217.334 407.68C217.67 407.984 218.118 408.136 218.678 408.136C219.238 408.136 219.662 407.992 219.95 407.704C220.246 407.408 220.394 407.028 220.394 406.564C220.394 405.964 220.194 405.532 219.794 405.268C219.394 405.004 218.79 404.872 217.982 404.872H217.706V403.96H217.994C218.73 403.952 219.286 403.832 219.662 403.6C220.038 403.36 220.226 402.992 220.226 402.496C220.226 402.072 220.086 401.732 219.806 401.476C219.534 401.22 219.142 401.092 218.63 401.092C218.134 401.092 217.734 401.22 217.43 401.476C217.126 401.732 216.946 402.076 216.89 402.508H215.822ZM223.44 409.072C223.232 409.072 223.056 409 222.912 408.856C222.768 408.712 222.696 408.536 222.696 408.328C222.696 408.12 222.768 407.944 222.912 407.8C223.056 407.656 223.232 407.584 223.44 407.584C223.64 407.584 223.808 407.656 223.944 407.8C224.088 407.944 224.16 408.12 224.16 408.328C224.16 408.536 224.088 408.712 223.944 408.856C223.808 409 223.64 409.072 223.44 409.072ZM223.44 403.936C223.232 403.936 223.056 403.864 222.912 403.72C222.768 403.576 222.696 403.4 222.696 403.192C222.696 402.984 222.768 402.808 222.912 402.664C223.056 402.52 223.232 402.448 223.44 402.448C223.64 402.448 223.808 402.52 223.944 402.664C224.088 402.808 224.16 402.984 224.16 403.192C224.16 403.4 224.088 403.576 223.944 403.72C223.808 403.864 223.64 403.936 223.44 403.936ZM230.999 401.272H226.787V404.008C226.971 403.752 227.243 403.544 227.603 403.384C227.963 403.216 228.351 403.132 228.767 403.132C229.431 403.132 229.971 403.272 230.387 403.552C230.803 403.824 231.099 404.18 231.275 404.62C231.459 405.052 231.551 405.512 231.551 406C231.551 406.576 231.443 407.092 231.227 407.548C231.011 408.004 230.679 408.364 230.231 408.628C229.791 408.892 229.243 409.024 228.587 409.024C227.747 409.024 227.067 408.808 226.547 408.376C226.027 407.944 225.711 407.368 225.599 406.648H226.667C226.771 407.104 226.991 407.46 227.327 407.716C227.663 407.972 228.087 408.1 228.599 408.1C229.231 408.1 229.707 407.912 230.027 407.536C230.347 407.152 230.507 406.648 230.507 406.024C230.507 405.4 230.347 404.92 230.027 404.584C229.707 404.24 229.235 404.068 228.611 404.068C228.187 404.068 227.815 404.172 227.495 404.38C227.183 404.58 226.955 404.856 226.811 405.208H225.779V400.312H230.999V401.272ZM234.406 406.672C234.486 407.128 234.67 407.48 234.958 407.728C235.254 407.976 235.65 408.1 236.146 408.1C236.81 408.1 237.298 407.84 237.61 407.32C237.93 406.8 238.082 405.924 238.066 404.692C237.898 405.052 237.618 405.336 237.226 405.544C236.834 405.744 236.398 405.844 235.918 405.844C235.382 405.844 234.902 405.736 234.478 405.52C234.062 405.296 233.734 404.972 233.494 404.548C233.254 404.124 233.134 403.612 233.134 403.012C233.134 402.156 233.382 401.468 233.878 400.948C234.374 400.42 235.078 400.156 235.99 400.156C237.11 400.156 237.894 400.52 238.342 401.248C238.798 401.976 239.026 403.06 239.026 404.5C239.026 405.508 238.934 406.34 238.75 406.996C238.574 407.652 238.27 408.152 237.838 408.496C237.414 408.84 236.83 409.012 236.086 409.012C235.27 409.012 234.634 408.792 234.178 408.352C233.722 407.912 233.462 407.352 233.398 406.672H234.406ZM236.098 404.92C236.634 404.92 237.074 404.756 237.418 404.428C237.762 404.092 237.934 403.64 237.934 403.072C237.934 402.472 237.766 401.988 237.43 401.62C237.094 401.252 236.622 401.068 236.014 401.068C235.454 401.068 235.006 401.244 234.67 401.596C234.342 401.948 234.178 402.412 234.178 402.988C234.178 403.572 234.342 404.04 234.67 404.392C234.998 404.744 235.474 404.92 236.098 404.92ZM241.088 409.072C240.88 409.072 240.704 409 240.56 408.856C240.416 408.712 240.344 408.536 240.344 408.328C240.344 408.12 240.416 407.944 240.56 407.8C240.704 407.656 240.88 407.584 241.088 407.584C241.288 407.584 241.456 407.656 241.592 407.8C241.736 407.944 241.808 408.12 241.808 408.328C241.808 408.536 241.736 408.712 241.592 408.856C241.456 409 241.288 409.072 241.088 409.072ZM241.088 403.936C240.88 403.936 240.704 403.864 240.56 403.72C240.416 403.576 240.344 403.4 240.344 403.192C240.344 402.984 240.416 402.808 240.56 402.664C240.704 402.52 240.88 402.448 241.088 402.448C241.288 402.448 241.456 402.52 241.592 402.664C241.736 402.808 241.808 402.984 241.808 403.192C241.808 403.4 241.736 403.576 241.592 403.72C241.456 403.864 241.288 403.936 241.088 403.936ZM248.647 401.272H244.435V404.008C244.619 403.752 244.891 403.544 245.251 403.384C245.611 403.216 245.999 403.132 246.415 403.132C247.079 403.132 247.619 403.272 248.035 403.552C248.451 403.824 248.747 404.18 248.923 404.62C249.107 405.052 249.199 405.512 249.199 406C249.199 406.576 249.091 407.092 248.875 407.548C248.659 408.004 248.327 408.364 247.879 408.628C247.439 408.892 246.891 409.024 246.235 409.024C245.395 409.024 244.715 408.808 244.195 408.376C243.675 407.944 243.359 407.368 243.247 406.648H244.315C244.419 407.104 244.639 407.46 244.975 407.716C245.311 407.972 245.735 408.1 246.247 408.1C246.879 408.1 247.355 407.912 247.675 407.536C247.995 407.152 248.155 406.648 248.155 406.024C248.155 405.4 247.995 404.92 247.675 404.584C247.355 404.24 246.883 404.068 246.259 404.068C245.835 404.068 245.463 404.172 245.143 404.38C244.831 404.58 244.603 404.856 244.459 405.208H243.427V400.312H248.647V401.272ZM252.054 406.672C252.134 407.128 252.318 407.48 252.606 407.728C252.902 407.976 253.298 408.1 253.794 408.1C254.458 408.1 254.946 407.84 255.258 407.32C255.578 406.8 255.73 405.924 255.714 404.692C255.546 405.052 255.266 405.336 254.874 405.544C254.482 405.744 254.046 405.844 253.566 405.844C253.03 405.844 252.55 405.736 252.126 405.52C251.71 405.296 251.382 404.972 251.142 404.548C250.902 404.124 250.782 403.612 250.782 403.012C250.782 402.156 251.03 401.468 251.526 400.948C252.022 400.42 252.726 400.156 253.638 400.156C254.758 400.156 255.542 400.52 255.99 401.248C256.446 401.976 256.674 403.06 256.674 404.5C256.674 405.508 256.582 406.34 256.398 406.996C256.222 407.652 255.918 408.152 255.486 408.496C255.062 408.84 254.478 409.012 253.734 409.012C252.918 409.012 252.282 408.792 251.826 408.352C251.37 407.912 251.11 407.352 251.046 406.672H252.054ZM253.746 404.92C254.282 404.92 254.722 404.756 255.066 404.428C255.41 404.092 255.582 403.64 255.582 403.072C255.582 402.472 255.414 401.988 255.078 401.62C254.742 401.252 254.27 401.068 253.662 401.068C253.102 401.068 252.654 401.244 252.318 401.596C251.99 401.948 251.826 402.412 251.826 402.988C251.826 403.572 251.99 404.04 252.318 404.392C252.646 404.744 253.122 404.92 253.746 404.92ZM264.396 411.232C263.628 410.48 263.028 409.524 262.596 408.364C262.172 407.204 261.96 405.952 261.96 404.608C261.96 403.232 262.184 401.948 262.632 400.756C263.088 399.556 263.736 398.568 264.576 397.792H265.716V397.9C264.82 398.74 264.144 399.752 263.688 400.936C263.24 402.112 263.016 403.336 263.016 404.608C263.016 405.848 263.228 407.032 263.652 408.16C264.084 409.288 264.712 410.276 265.536 411.124V411.232H264.396ZM268.105 400.636V405.928C268.105 406.672 268.285 407.224 268.645 407.584C269.013 407.944 269.521 408.124 270.169 408.124C270.809 408.124 271.309 407.944 271.669 407.584C272.037 407.224 272.221 406.672 272.221 405.928V400.636H273.313V405.916C273.313 406.612 273.173 407.2 272.893 407.68C272.613 408.152 272.233 408.504 271.753 408.736C271.281 408.968 270.749 409.084 270.157 409.084C269.565 409.084 269.029 408.968 268.549 408.736C268.077 408.504 267.701 408.152 267.421 407.68C267.149 407.2 267.013 406.612 267.013 405.916V400.636H268.105ZM280.283 400.636V401.524H278.003V409H276.911V401.524H274.619V400.636H280.283ZM281.219 404.812C281.219 403.996 281.403 403.264 281.771 402.616C282.139 401.96 282.639 401.448 283.271 401.08C283.911 400.712 284.619 400.528 285.395 400.528C286.307 400.528 287.103 400.748 287.783 401.188C288.463 401.628 288.959 402.252 289.271 403.06H287.963C287.731 402.556 287.395 402.168 286.955 401.896C286.523 401.624 286.003 401.488 285.395 401.488C284.811 401.488 284.287 401.624 283.823 401.896C283.359 402.168 282.995 402.556 282.731 403.06C282.467 403.556 282.335 404.14 282.335 404.812C282.335 405.476 282.467 406.06 282.731 406.564C282.995 407.06 283.359 407.444 283.823 407.716C284.287 407.988 284.811 408.124 285.395 408.124C286.003 408.124 286.523 407.992 286.955 407.728C287.395 407.456 287.731 407.068 287.963 406.564H289.271C288.959 407.364 288.463 407.984 287.783 408.424C287.103 408.856 286.307 409.072 285.395 409.072C284.619 409.072 283.911 408.892 283.271 408.532C282.639 408.164 282.139 407.656 281.771 407.008C281.403 406.36 281.219 405.628 281.219 404.812ZM297.137 405.076H294.581V407.668H293.561V405.076H291.017V404.152H293.561V401.548H294.581V404.152H297.137V405.076ZM300.492 404.488C300.044 404.312 299.7 404.056 299.46 403.72C299.22 403.384 299.1 402.976 299.1 402.496C299.1 402.064 299.208 401.676 299.424 401.332C299.64 400.98 299.96 400.704 300.384 400.504C300.816 400.296 301.336 400.192 301.944 400.192C302.552 400.192 303.068 400.296 303.492 400.504C303.924 400.704 304.248 400.98 304.464 401.332C304.688 401.676 304.8 402.064 304.8 402.496C304.8 402.96 304.676 403.368 304.428 403.72C304.18 404.064 303.84 404.32 303.408 404.488C303.904 404.64 304.296 404.908 304.584 405.292C304.88 405.668 305.028 406.124 305.028 406.66C305.028 407.18 304.9 407.636 304.644 408.028C304.388 408.412 304.024 408.712 303.552 408.928C303.088 409.136 302.552 409.24 301.944 409.24C301.336 409.24 300.8 409.136 300.336 408.928C299.88 408.712 299.524 408.412 299.268 408.028C299.012 407.636 298.884 407.18 298.884 406.66C298.884 406.124 299.028 405.664 299.316 405.28C299.604 404.896 299.996 404.632 300.492 404.488ZM303.744 402.628C303.744 402.14 303.584 401.764 303.264 401.5C302.944 401.236 302.504 401.104 301.944 401.104C301.392 401.104 300.956 401.236 300.636 401.5C300.316 401.764 300.156 402.144 300.156 402.64C300.156 403.088 300.32 403.448 300.648 403.72C300.984 403.992 301.416 404.128 301.944 404.128C302.48 404.128 302.912 403.992 303.24 403.72C303.576 403.44 303.744 403.076 303.744 402.628ZM301.944 404.968C301.352 404.968 300.868 405.108 300.492 405.388C300.116 405.66 299.928 406.072 299.928 406.624C299.928 407.136 300.108 407.548 300.468 407.86C300.836 408.172 301.328 408.328 301.944 408.328C302.56 408.328 303.048 408.172 303.408 407.86C303.768 407.548 303.948 407.136 303.948 406.624C303.948 406.088 303.764 405.68 303.396 405.4C303.028 405.112 302.544 404.968 301.944 404.968ZM306.31 411.232V411.124C307.134 410.276 307.758 409.288 308.182 408.16C308.614 407.032 308.83 405.848 308.83 404.608C308.83 403.336 308.602 402.112 308.146 400.936C307.698 399.752 307.026 398.74 306.13 397.9V397.792H307.27C308.11 398.568 308.754 399.556 309.202 400.756C309.658 401.948 309.886 403.232 309.886 404.608C309.886 405.952 309.67 407.204 309.238 408.364C308.814 409.524 308.218 410.48 307.45 411.232H306.31ZM313.512 406.084C314.52 406.084 315.336 406.9 315.336 407.908C315.336 408.916 314.52 409.732 313.512 409.732C312.504 409.732 311.676 408.916 311.676 407.908C311.676 406.9 312.504 406.084 313.512 406.084ZM313.512 409.12C314.184 409.12 314.724 408.58 314.724 407.908C314.724 407.236 314.184 406.696 313.512 406.696C312.84 406.696 312.288 407.236 312.288 407.908C312.288 408.58 312.84 409.12 313.512 409.12Z" fill="#73798B"/>
<path d="M37.589 250.48V249.62L40.949 244.8H42.329V249.49H43.259V250.48H42.329V252H41.209V250.48H37.589ZM41.259 245.96L38.899 249.49H41.259V245.96ZM44.2036 248.26C44.2036 247.107 44.3969 246.207 44.7836 245.56C45.1769 244.907 45.8502 244.58 46.8036 244.58C47.7569 244.58 48.4269 244.907 48.8136 245.56C49.2069 246.207 49.4036 247.107 49.4036 248.26C49.4036 249.427 49.2069 250.34 48.8136 251C48.4269 251.653 47.7569 251.98 46.8036 251.98C45.8502 251.98 45.1769 251.653 44.7836 251C44.3969 250.34 44.2036 249.427 44.2036 248.26ZM48.2836 248.26C48.2836 247.72 48.2469 247.263 48.1736 246.89C48.1069 246.517 47.9669 246.213 47.7536 245.98C47.5402 245.74 47.2236 245.62 46.8036 245.62C46.3836 245.62 46.0669 245.74 45.8536 245.98C45.6402 246.213 45.4969 246.517 45.4236 246.89C45.3569 247.263 45.3236 247.72 45.3236 248.26C45.3236 248.82 45.3569 249.29 45.4236 249.67C45.4902 250.05 45.6302 250.357 45.8436 250.59C46.0636 250.823 46.3836 250.94 46.8036 250.94C47.2236 250.94 47.5402 250.823 47.7536 250.59C47.9736 250.357 48.1169 250.05 48.1836 249.67C48.2502 249.29 48.2836 248.82 48.2836 248.26Z" fill="#73798B"/>
<path d="M39.0621 298.45C39.7021 297.897 40.2054 297.443 40.5721 297.09C40.9454 296.73 41.2554 296.357 41.5021 295.97C41.7487 295.583 41.8721 295.197 41.8721 294.81C41.8721 294.41 41.7754 294.097 41.5821 293.87C41.3954 293.643 41.0987 293.53 40.6921 293.53C40.2987 293.53 39.9921 293.657 39.7721 293.91C39.5587 294.157 39.4454 294.49 39.4321 294.91H38.3321C38.3521 294.15 38.5787 293.57 39.0121 293.17C39.4521 292.763 40.0087 292.56 40.6821 292.56C41.4087 292.56 41.9754 292.76 42.3821 293.16C42.7954 293.56 43.0021 294.093 43.0021 294.76C43.0021 295.24 42.8787 295.703 42.6321 296.15C42.3921 296.59 42.1021 296.987 41.7621 297.34C41.4287 297.687 41.0021 298.09 40.4821 298.55L40.0321 298.95H43.2021V299.9H38.3421V299.07L39.0621 298.45ZM44.2036 296.26C44.2036 295.107 44.3969 294.207 44.7836 293.56C45.1769 292.907 45.8502 292.58 46.8036 292.58C47.7569 292.58 48.4269 292.907 48.8136 293.56C49.2069 294.207 49.4036 295.107 49.4036 296.26C49.4036 297.427 49.2069 298.34 48.8136 299C48.4269 299.653 47.7569 299.98 46.8036 299.98C45.8502 299.98 45.1769 299.653 44.7836 299C44.3969 298.34 44.2036 297.427 44.2036 296.26ZM48.2836 296.26C48.2836 295.72 48.2469 295.263 48.1736 294.89C48.1069 294.517 47.9669 294.213 47.7536 293.98C47.5402 293.74 47.2236 293.62 46.8036 293.62C46.3836 293.62 46.0669 293.74 45.8536 293.98C45.6402 294.213 45.4969 294.517 45.4236 294.89C45.3569 295.263 45.3236 295.72 45.3236 296.26C45.3236 296.82 45.3569 297.29 45.4236 297.67C45.4902 298.05 45.6302 298.357 45.8436 298.59C46.0636 298.823 46.3836 298.94 46.8036 298.94C47.2236 298.94 47.5402 298.823 47.7536 298.59C47.9736 298.357 48.1169 298.05 48.1836 297.67C48.2502 297.29 48.2836 296.82 48.2836 296.26Z" fill="#73798B"/>
<path d="M40.325 198.4C40.2516 198.093 40.1183 197.863 39.925 197.71C39.7317 197.557 39.4617 197.48 39.115 197.48C38.5883 197.48 38.195 197.683 37.935 198.09C37.675 198.49 37.5383 199.157 37.525 200.09C37.6983 199.797 37.9516 199.57 38.285 199.41C38.6183 199.25 38.9783 199.17 39.365 199.17C39.805 199.17 40.1917 199.267 40.525 199.46C40.865 199.647 41.1283 199.92 41.315 200.28C41.5083 200.64 41.605 201.07 41.605 201.57C41.605 202.037 41.5117 202.453 41.325 202.82C41.145 203.187 40.875 203.477 40.515 203.69C40.155 203.897 39.7217 204 39.215 204C38.5283 204 37.9883 203.85 37.595 203.55C37.2083 203.243 36.935 202.813 36.775 202.26C36.6216 201.707 36.545 201.017 36.545 200.19C36.545 197.75 37.405 196.53 39.125 196.53C39.7916 196.53 40.315 196.71 40.695 197.07C41.0817 197.43 41.3083 197.873 41.375 198.4H40.325ZM39.115 200.13C38.7083 200.13 38.3616 200.253 38.075 200.5C37.795 200.74 37.655 201.09 37.655 201.55C37.655 202.01 37.785 202.377 38.045 202.65C38.3116 202.917 38.6816 203.05 39.155 203.05C39.575 203.05 39.905 202.92 40.145 202.66C40.3916 202.4 40.515 202.053 40.515 201.62C40.515 201.167 40.395 200.807 40.155 200.54C39.9216 200.267 39.575 200.13 39.115 200.13ZM42.821 200.26C42.821 199.107 43.0143 198.207 43.401 197.56C43.7943 196.907 44.4677 196.58 45.421 196.58C46.3743 196.58 47.0443 196.907 47.431 197.56C47.8243 198.207 48.021 199.107 48.021 200.26C48.021 201.427 47.8243 202.34 47.431 203C47.0443 203.653 46.3743 203.98 45.421 203.98C44.4677 203.98 43.7943 203.653 43.401 203C43.0143 202.34 42.821 201.427 42.821 200.26ZM46.901 200.26C46.901 199.72 46.8643 199.263 46.791 198.89C46.7243 198.517 46.5843 198.213 46.371 197.98C46.1577 197.74 45.841 197.62 45.421 197.62C45.001 197.62 44.6843 197.74 44.471 197.98C44.2577 198.213 44.1143 198.517 44.041 198.89C43.9743 199.263 43.941 199.72 43.941 200.26C43.941 200.82 43.9743 201.29 44.041 201.67C44.1077 202.05 44.2477 202.357 44.461 202.59C44.681 202.823 45.001 202.94 45.421 202.94C45.841 202.94 46.1577 202.823 46.371 202.59C46.591 202.357 46.7343 202.05 46.801 201.67C46.8677 201.29 46.901 200.82 46.901 200.26Z" fill="#73798B"/>
<path d="M37.674 152.19C36.9807 151.843 36.634 151.297 36.634 150.55C36.634 150.19 36.724 149.86 36.904 149.56C37.084 149.26 37.354 149.023 37.714 148.85C38.074 148.67 38.514 148.58 39.034 148.58C39.5474 148.58 39.984 148.67 40.344 148.85C40.7107 149.023 40.984 149.26 41.164 149.56C41.344 149.86 41.434 150.19 41.434 150.55C41.434 150.923 41.3374 151.253 41.144 151.54C40.9574 151.82 40.7074 152.037 40.394 152.19C40.774 152.33 41.074 152.56 41.294 152.88C41.514 153.193 41.624 153.563 41.624 153.99C41.624 154.423 41.514 154.807 41.294 155.14C41.074 155.473 40.7674 155.73 40.374 155.91C39.9807 156.09 39.534 156.18 39.034 156.18C38.534 156.18 38.0874 156.09 37.694 155.91C37.3074 155.73 37.004 155.473 36.784 155.14C36.564 154.807 36.454 154.423 36.454 153.99C36.454 153.557 36.564 153.183 36.784 152.87C37.004 152.557 37.3007 152.33 37.674 152.19ZM40.344 150.69C40.344 150.317 40.2274 150.03 39.994 149.83C39.7607 149.63 39.4407 149.53 39.034 149.53C38.634 149.53 38.3174 149.63 38.084 149.83C37.8507 150.03 37.734 150.32 37.734 150.7C37.734 151.033 37.854 151.307 38.094 151.52C38.3407 151.727 38.654 151.83 39.034 151.83C39.414 151.83 39.7274 151.723 39.974 151.51C40.2207 151.297 40.344 151.023 40.344 150.69ZM39.034 152.69C38.594 152.69 38.234 152.8 37.954 153.02C37.6807 153.233 37.544 153.543 37.544 153.95C37.544 154.33 37.6774 154.64 37.944 154.88C38.2107 155.113 38.574 155.23 39.034 155.23C39.4874 155.23 39.844 155.11 40.104 154.87C40.3707 154.63 40.504 154.323 40.504 153.95C40.504 153.55 40.3674 153.24 40.094 153.02C39.8274 152.8 39.474 152.69 39.034 152.69ZM42.821 152.26C42.821 151.107 43.0143 150.207 43.401 149.56C43.7943 148.907 44.4677 148.58 45.421 148.58C46.3743 148.58 47.0443 148.907 47.431 149.56C47.8243 150.207 48.021 151.107 48.021 152.26C48.021 153.427 47.8243 154.34 47.431 155C47.0443 155.653 46.3743 155.98 45.421 155.98C44.4677 155.98 43.7943 155.653 43.401 155C43.0143 154.34 42.821 153.427 42.821 152.26ZM46.901 152.26C46.901 151.72 46.8643 151.263 46.791 150.89C46.7243 150.517 46.5843 150.213 46.371 149.98C46.1577 149.74 45.841 149.62 45.421 149.62C45.001 149.62 44.6843 149.74 44.471 149.98C44.2577 150.213 44.1143 150.517 44.041 150.89C43.9743 151.263 43.941 151.72 43.941 152.26C43.941 152.82 43.9743 153.29 44.041 153.67C44.1077 154.05 44.2477 154.357 44.461 154.59C44.681 154.823 45.001 154.94 45.421 154.94C45.841 154.94 46.1577 154.823 46.371 154.59C46.591 154.357 46.7343 154.05 46.801 153.67C46.8677 153.29 46.901 152.82 46.901 152.26Z" fill="#73798B"/>
<path d="M50.194 344.26C50.194 343.107 50.3874 342.207 50.774 341.56C51.1674 340.907 51.8407 340.58 52.794 340.58C53.7474 340.58 54.4174 340.907 54.804 341.56C55.1974 342.207 55.394 343.107 55.394 344.26C55.394 345.427 55.1974 346.34 54.804 347C54.4174 347.653 53.7474 347.98 52.794 347.98C51.8407 347.98 51.1674 347.653 50.774 347C50.3874 346.34 50.194 345.427 50.194 344.26ZM54.274 344.26C54.274 343.72 54.2374 343.263 54.164 342.89C54.0974 342.517 53.9574 342.213 53.744 341.98C53.5307 341.74 53.214 341.62 52.794 341.62C52.374 341.62 52.0574 341.74 51.844 341.98C51.6307 342.213 51.4874 342.517 51.414 342.89C51.3474 343.263 51.314 343.72 51.314 344.26C51.314 344.82 51.3474 345.29 51.414 345.67C51.4807 346.05 51.6207 346.357 51.834 346.59C52.054 346.823 52.374 346.94 52.794 346.94C53.214 346.94 53.5307 346.823 53.744 346.59C53.964 346.357 54.1074 346.05 54.174 345.67C54.2407 345.29 54.274 344.82 54.274 344.26Z" fill="#73798B"/>
<path d="M100.189 359.26C100.189 358.107 100.382 357.207 100.769 356.56C101.162 355.907 101.836 355.58 102.789 355.58C103.742 355.58 104.412 355.907 104.799 356.56C105.192 357.207 105.389 358.107 105.389 359.26C105.389 360.427 105.192 361.34 104.799 362C104.412 362.653 103.742 362.98 102.789 362.98C101.836 362.98 101.162 362.653 100.769 362C100.382 361.34 100.189 360.427 100.189 359.26ZM104.269 359.26C104.269 358.72 104.232 358.263 104.159 357.89C104.092 357.517 103.952 357.213 103.739 356.98C103.526 356.74 103.209 356.62 102.789 356.62C102.369 356.62 102.052 356.74 101.839 356.98C101.626 357.213 101.482 357.517 101.409 357.89C101.342 358.263 101.309 358.72 101.309 359.26C101.309 359.82 101.342 360.29 101.409 360.67C101.476 361.05 101.616 361.357 101.829 361.59C102.049 361.823 102.369 361.94 102.789 361.94C103.209 361.94 103.526 361.823 103.739 361.59C103.959 361.357 104.102 361.05 104.169 360.67C104.236 360.29 104.269 359.82 104.269 359.26ZM106.455 361.48V360.62L109.815 355.8H111.195V360.49H112.125V361.48H111.195V363H110.075V361.48H106.455ZM110.125 356.96L107.765 360.49H110.125V356.96ZM117.45 358.9V359.86H113.34V358.9H117.45ZM118.769 356.75V355.71H120.849V363H119.699V356.75H118.769ZM127.035 356.59L124.255 363H123.105L125.915 356.71H122.215V355.74H127.035V356.59Z" fill="#73798B"/>
<path d="M186.798 359.26C186.798 358.107 186.992 357.207 187.378 356.56C187.772 355.907 188.445 355.58 189.398 355.58C190.352 355.58 191.022 355.907 191.408 356.56C191.802 357.207 191.998 358.107 191.998 359.26C191.998 360.427 191.802 361.34 191.408 362C191.022 362.653 190.352 362.98 189.398 362.98C188.445 362.98 187.772 362.653 187.378 362C186.992 361.34 186.798 360.427 186.798 359.26ZM190.878 359.26C190.878 358.72 190.842 358.263 190.768 357.89C190.702 357.517 190.562 357.213 190.348 356.98C190.135 356.74 189.818 356.62 189.398 356.62C188.978 356.62 188.662 356.74 188.448 356.98C188.235 357.213 188.092 357.517 188.018 357.89C187.952 358.263 187.918 358.72 187.918 359.26C187.918 359.82 187.952 360.29 188.018 360.67C188.085 361.05 188.225 361.357 188.438 361.59C188.658 361.823 188.978 361.94 189.398 361.94C189.818 361.94 190.135 361.823 190.348 361.59C190.568 361.357 190.712 361.05 190.778 360.67C190.845 360.29 190.878 359.82 190.878 359.26ZM193.065 361.48V360.62L196.425 355.8H197.805V360.49H198.735V361.48H197.805V363H196.685V361.48H193.065ZM196.735 356.96L194.375 360.49H196.735V356.96ZM204.059 358.9V359.86H199.949V358.9H204.059ZM205.379 356.75V355.71H207.459V363H206.309V356.75H205.379ZM210.255 359.19C209.562 358.843 209.215 358.297 209.215 357.55C209.215 357.19 209.305 356.86 209.485 356.56C209.665 356.26 209.935 356.023 210.295 355.85C210.655 355.67 211.095 355.58 211.615 355.58C212.128 355.58 212.565 355.67 212.925 355.85C213.292 356.023 213.565 356.26 213.745 356.56C213.925 356.86 214.015 357.19 214.015 357.55C214.015 357.923 213.918 358.253 213.725 358.54C213.538 358.82 213.288 359.037 212.975 359.19C213.355 359.33 213.655 359.56 213.875 359.88C214.095 360.193 214.205 360.563 214.205 360.99C214.205 361.423 214.095 361.807 213.875 362.14C213.655 362.473 213.348 362.73 212.955 362.91C212.562 363.09 212.115 363.18 211.615 363.18C211.115 363.18 210.668 363.09 210.275 362.91C209.888 362.73 209.585 362.473 209.365 362.14C209.145 361.807 209.035 361.423 209.035 360.99C209.035 360.557 209.145 360.183 209.365 359.87C209.585 359.557 209.882 359.33 210.255 359.19ZM212.925 357.69C212.925 357.317 212.808 357.03 212.575 356.83C212.342 356.63 212.022 356.53 211.615 356.53C211.215 356.53 210.898 356.63 210.665 356.83C210.432 357.03 210.315 357.32 210.315 357.7C210.315 358.033 210.435 358.307 210.675 358.52C210.922 358.727 211.235 358.83 211.615 358.83C211.995 358.83 212.308 358.723 212.555 358.51C212.802 358.297 212.925 358.023 212.925 357.69ZM211.615 359.69C211.175 359.69 210.815 359.8 210.535 360.02C210.262 360.233 210.125 360.543 210.125 360.95C210.125 361.33 210.258 361.64 210.525 361.88C210.792 362.113 211.155 362.23 211.615 362.23C212.068 362.23 212.425 362.11 212.685 361.87C212.952 361.63 213.085 361.323 213.085 360.95C213.085 360.55 212.948 360.24 212.675 360.02C212.408 359.8 212.055 359.69 211.615 359.69Z" fill="#73798B"/>
<path d="M533.963 359.26C533.963 358.107 534.156 357.207 534.543 356.56C534.936 355.907 535.61 355.58 536.563 355.58C537.516 355.58 538.186 355.907 538.573 356.56C538.966 357.207 539.163 358.107 539.163 359.26C539.163 360.427 538.966 361.34 538.573 362C538.186 362.653 537.516 362.98 536.563 362.98C535.61 362.98 534.936 362.653 534.543 362C534.156 361.34 533.963 360.427 533.963 359.26ZM538.043 359.26C538.043 358.72 538.006 358.263 537.933 357.89C537.866 357.517 537.726 357.213 537.513 356.98C537.3 356.74 536.983 356.62 536.563 356.62C536.143 356.62 535.826 356.74 535.613 356.98C535.4 357.213 535.256 357.517 535.183 357.89C535.116 358.263 535.083 358.72 535.083 359.26C535.083 359.82 535.116 360.29 535.183 360.67C535.25 361.05 535.39 361.357 535.603 361.59C535.823 361.823 536.143 361.94 536.563 361.94C536.983 361.94 537.3 361.823 537.513 361.59C537.733 361.357 537.876 361.05 537.943 360.67C538.01 360.29 538.043 359.82 538.043 359.26ZM540.229 361.48V360.62L543.589 355.8H544.969V360.49H545.899V361.48H544.969V363H543.849V361.48H540.229ZM543.899 356.96L541.539 360.49H543.899V356.96ZM551.224 358.9V359.86H547.114V358.9H551.224ZM553.324 361.45C553.964 360.897 554.467 360.443 554.834 360.09C555.207 359.73 555.517 359.357 555.764 358.97C556.01 358.583 556.134 358.197 556.134 357.81C556.134 357.41 556.037 357.097 555.844 356.87C555.657 356.643 555.36 356.53 554.954 356.53C554.56 356.53 554.254 356.657 554.034 356.91C553.82 357.157 553.707 357.49 553.694 357.91H552.594C552.614 357.15 552.84 356.57 553.274 356.17C553.714 355.763 554.27 355.56 554.944 355.56C555.67 355.56 556.237 355.76 556.644 356.16C557.057 356.56 557.264 357.093 557.264 357.76C557.264 358.24 557.14 358.703 556.894 359.15C556.654 359.59 556.364 359.987 556.024 360.34C555.69 360.687 555.264 361.09 554.744 361.55L554.294 361.95H557.464V362.9H552.604V362.07L553.324 361.45ZM559.095 361.45C559.735 360.897 560.238 360.443 560.605 360.09C560.978 359.73 561.288 359.357 561.535 358.97C561.782 358.583 561.905 358.197 561.905 357.81C561.905 357.41 561.808 357.097 561.615 356.87C561.428 356.643 561.132 356.53 560.725 356.53C560.332 356.53 560.025 356.657 559.805 356.91C559.592 357.157 559.478 357.49 559.465 357.91H558.365C558.385 357.15 558.612 356.57 559.045 356.17C559.485 355.763 560.042 355.56 560.715 355.56C561.442 355.56 562.008 355.76 562.415 356.16C562.828 356.56 563.035 357.093 563.035 357.76C563.035 358.24 562.912 358.703 562.665 359.15C562.425 359.59 562.135 359.987 561.795 360.34C561.462 360.687 561.035 361.09 560.515 361.55L560.065 361.95H563.235V362.9H558.375V362.07L559.095 361.45Z" fill="#73798B"/>
<path d="M707.612 359.26C707.612 358.107 707.805 357.207 708.192 356.56C708.585 355.907 709.258 355.58 710.212 355.58C711.165 355.58 711.835 355.907 712.222 356.56C712.615 357.207 712.812 358.107 712.812 359.26C712.812 360.427 712.615 361.34 712.222 362C711.835 362.653 711.165 362.98 710.212 362.98C709.258 362.98 708.585 362.653 708.192 362C707.805 361.34 707.612 360.427 707.612 359.26ZM711.692 359.26C711.692 358.72 711.655 358.263 711.582 357.89C711.515 357.517 711.375 357.213 711.162 356.98C710.948 356.74 710.632 356.62 710.212 356.62C709.792 356.62 709.475 356.74 709.262 356.98C709.048 357.213 708.905 357.517 708.832 357.89C708.765 358.263 708.732 358.72 708.732 359.26C708.732 359.82 708.765 360.29 708.832 360.67C708.898 361.05 709.038 361.357 709.252 361.59C709.472 361.823 709.792 361.94 710.212 361.94C710.632 361.94 710.948 361.823 711.162 361.59C711.382 361.357 711.525 361.05 711.592 360.67C711.658 360.29 711.692 359.82 711.692 359.26ZM713.878 361.48V360.62L717.238 355.8H718.618V360.49H719.548V361.48H718.618V363H717.498V361.48H713.878ZM717.548 356.96L715.188 360.49H717.548V356.96ZM724.873 358.9V359.86H720.763V358.9H724.873ZM726.972 361.45C727.612 360.897 728.116 360.443 728.482 360.09C728.856 359.73 729.166 359.357 729.412 358.97C729.659 358.583 729.782 358.197 729.782 357.81C729.782 357.41 729.686 357.097 729.492 356.87C729.306 356.643 729.009 356.53 728.602 356.53C728.209 356.53 727.902 356.657 727.682 356.91C727.469 357.157 727.356 357.49 727.342 357.91H726.242C726.262 357.15 726.489 356.57 726.922 356.17C727.362 355.763 727.919 355.56 728.592 355.56C729.319 355.56 729.886 355.76 730.292 356.16C730.706 356.56 730.912 357.093 730.912 357.76C730.912 358.24 730.789 358.703 730.542 359.15C730.302 359.59 730.012 359.987 729.672 360.34C729.339 360.687 728.912 361.09 728.392 361.55L727.942 361.95H731.112V362.9H726.252V362.07L726.972 361.45ZM731.974 361.48V360.62L735.334 355.8H736.714V360.49H737.644V361.48H736.714V363H735.594V361.48H731.974ZM735.644 356.96L733.284 360.49H735.644V356.96Z" fill="#73798B"/>
<path d="M273.813 359.26C273.813 358.107 274.006 357.207 274.393 356.56C274.786 355.907 275.459 355.58 276.413 355.58C277.366 355.58 278.036 355.907 278.423 356.56C278.816 357.207 279.013 358.107 279.013 359.26C279.013 360.427 278.816 361.34 278.423 362C278.036 362.653 277.366 362.98 276.413 362.98C275.459 362.98 274.786 362.653 274.393 362C274.006 361.34 273.813 360.427 273.813 359.26ZM277.893 359.26C277.893 358.72 277.856 358.263 277.783 357.89C277.716 357.517 277.576 357.213 277.363 356.98C277.149 356.74 276.833 356.62 276.413 356.62C275.993 356.62 275.676 356.74 275.463 356.98C275.249 357.213 275.106 357.517 275.033 357.89C274.966 358.263 274.933 358.72 274.933 359.26C274.933 359.82 274.966 360.29 275.033 360.67C275.099 361.05 275.239 361.357 275.453 361.59C275.673 361.823 275.993 361.94 276.413 361.94C276.833 361.94 277.149 361.823 277.363 361.59C277.583 361.357 277.726 361.05 277.793 360.67C277.859 360.29 277.893 359.82 277.893 359.26ZM280.079 361.48V360.62L283.439 355.8H284.819V360.49H285.749V361.48H284.819V363H283.699V361.48H280.079ZM283.749 356.96L281.389 360.49H283.749V356.96ZM291.074 358.9V359.86H286.964V358.9H291.074ZM292.393 356.75V355.71H294.473V363H293.323V356.75H292.393ZM297.459 361.02C297.526 361.353 297.669 361.607 297.889 361.78C298.109 361.953 298.406 362.04 298.779 362.04C299.253 362.04 299.599 361.853 299.819 361.48C300.039 361.107 300.149 360.47 300.149 359.57C299.989 359.797 299.763 359.973 299.469 360.1C299.183 360.22 298.869 360.28 298.529 360.28C298.096 360.28 297.703 360.193 297.349 360.02C296.996 359.84 296.716 359.577 296.509 359.23C296.309 358.877 296.209 358.45 296.209 357.95C296.209 357.217 296.423 356.633 296.849 356.2C297.283 355.76 297.876 355.54 298.629 355.54C299.536 355.54 300.179 355.843 300.559 356.45C300.946 357.05 301.139 357.973 301.139 359.22C301.139 360.08 301.066 360.783 300.919 361.33C300.779 361.877 300.533 362.29 300.179 362.57C299.826 362.85 299.336 362.99 298.709 362.99C297.996 362.99 297.446 362.803 297.059 362.43C296.673 362.057 296.456 361.587 296.409 361.02H297.459ZM298.729 359.32C299.129 359.32 299.443 359.197 299.669 358.95C299.903 358.697 300.019 358.363 300.019 357.95C300.019 357.49 299.896 357.133 299.649 356.88C299.409 356.62 299.079 356.49 298.659 356.49C298.239 356.49 297.906 356.623 297.659 356.89C297.419 357.15 297.299 357.493 297.299 357.92C297.299 358.327 297.416 358.663 297.649 358.93C297.889 359.19 298.249 359.32 298.729 359.32Z" fill="#73798B"/>
<path d="M359.646 359.26C359.646 358.107 359.839 357.207 360.226 356.56C360.619 355.907 361.293 355.58 362.246 355.58C363.199 355.58 363.869 355.907 364.256 356.56C364.649 357.207 364.846 358.107 364.846 359.26C364.846 360.427 364.649 361.34 364.256 362C363.869 362.653 363.199 362.98 362.246 362.98C361.293 362.98 360.619 362.653 360.226 362C359.839 361.34 359.646 360.427 359.646 359.26ZM363.726 359.26C363.726 358.72 363.689 358.263 363.616 357.89C363.549 357.517 363.409 357.213 363.196 356.98C362.983 356.74 362.666 356.62 362.246 356.62C361.826 356.62 361.509 356.74 361.296 356.98C361.083 357.213 360.939 357.517 360.866 357.89C360.799 358.263 360.766 358.72 360.766 359.26C360.766 359.82 360.799 360.29 360.866 360.67C360.933 361.05 361.073 361.357 361.286 361.59C361.506 361.823 361.826 361.94 362.246 361.94C362.666 361.94 362.983 361.823 363.196 361.59C363.416 361.357 363.559 361.05 363.626 360.67C363.693 360.29 363.726 359.82 363.726 359.26ZM365.912 361.48V360.62L369.272 355.8H370.652V360.49H371.582V361.48H370.652V363H369.532V361.48H365.912ZM369.582 356.96L367.222 360.49H369.582V356.96ZM376.907 358.9V359.86H372.797V358.9H376.907ZM379.006 361.45C379.646 360.897 380.15 360.443 380.516 360.09C380.89 359.73 381.2 359.357 381.446 358.97C381.693 358.583 381.816 358.197 381.816 357.81C381.816 357.41 381.72 357.097 381.526 356.87C381.34 356.643 381.043 356.53 380.636 356.53C380.243 356.53 379.936 356.657 379.716 356.91C379.503 357.157 379.39 357.49 379.376 357.91H378.276C378.296 357.15 378.523 356.57 378.956 356.17C379.396 355.763 379.953 355.56 380.626 355.56C381.353 355.56 381.92 355.76 382.326 356.16C382.74 356.56 382.946 357.093 382.946 357.76C382.946 358.24 382.823 358.703 382.576 359.15C382.336 359.59 382.046 359.987 381.706 360.34C381.373 360.687 380.946 361.09 380.426 361.55L379.976 361.95H383.146V362.9H378.286V362.07L379.006 361.45ZM384.148 359.26C384.148 358.107 384.341 357.207 384.728 356.56C385.121 355.907 385.795 355.58 386.748 355.58C387.701 355.58 388.371 355.907 388.758 356.56C389.151 357.207 389.348 358.107 389.348 359.26C389.348 360.427 389.151 361.34 388.758 362C388.371 362.653 387.701 362.98 386.748 362.98C385.795 362.98 385.121 362.653 384.728 362C384.341 361.34 384.148 360.427 384.148 359.26ZM388.228 359.26C388.228 358.72 388.191 358.263 388.118 357.89C388.051 357.517 387.911 357.213 387.698 356.98C387.485 356.74 387.168 356.62 386.748 356.62C386.328 356.62 386.011 356.74 385.798 356.98C385.585 357.213 385.441 357.517 385.368 357.89C385.301 358.263 385.268 358.72 385.268 359.26C385.268 359.82 385.301 360.29 385.368 360.67C385.435 361.05 385.575 361.357 385.788 361.59C386.008 361.823 386.328 361.94 386.748 361.94C387.168 361.94 387.485 361.823 387.698 361.59C387.918 361.357 388.061 361.05 388.128 360.67C388.195 360.29 388.228 359.82 388.228 359.26Z" fill="#73798B"/>
<path d="M620.88 359.26C620.88 358.107 621.074 357.207 621.46 356.56C621.854 355.907 622.527 355.58 623.48 355.58C624.434 355.58 625.104 355.907 625.49 356.56C625.884 357.207 626.08 358.107 626.08 359.26C626.08 360.427 625.884 361.34 625.49 362C625.104 362.653 624.434 362.98 623.48 362.98C622.527 362.98 621.854 362.653 621.46 362C621.074 361.34 620.88 360.427 620.88 359.26ZM624.96 359.26C624.96 358.72 624.924 358.263 624.85 357.89C624.784 357.517 624.644 357.213 624.43 356.98C624.217 356.74 623.9 356.62 623.48 356.62C623.06 356.62 622.744 356.74 622.53 356.98C622.317 357.213 622.174 357.517 622.1 357.89C622.034 358.263 622 358.72 622 359.26C622 359.82 622.034 360.29 622.1 360.67C622.167 361.05 622.307 361.357 622.52 361.59C622.74 361.823 623.06 361.94 623.48 361.94C623.9 361.94 624.217 361.823 624.43 361.59C624.65 361.357 624.794 361.05 624.86 360.67C624.927 360.29 624.96 359.82 624.96 359.26ZM627.147 361.48V360.62L630.507 355.8H631.887V360.49H632.817V361.48H631.887V363H630.767V361.48H627.147ZM630.817 356.96L628.457 360.49H630.817V356.96ZM638.141 358.9V359.86H634.031V358.9H638.141ZM640.241 361.45C640.881 360.897 641.384 360.443 641.751 360.09C642.124 359.73 642.434 359.357 642.681 358.97C642.927 358.583 643.051 358.197 643.051 357.81C643.051 357.41 642.954 357.097 642.761 356.87C642.574 356.643 642.277 356.53 641.871 356.53C641.477 356.53 641.171 356.657 640.951 356.91C640.737 357.157 640.624 357.49 640.611 357.91H639.511C639.531 357.15 639.757 356.57 640.191 356.17C640.631 355.763 641.187 355.56 641.861 355.56C642.587 355.56 643.154 355.76 643.561 356.16C643.974 356.56 644.181 357.093 644.181 357.76C644.181 358.24 644.057 358.703 643.811 359.15C643.571 359.59 643.281 359.987 642.941 360.34C642.607 360.687 642.181 361.09 641.661 361.55L641.211 361.95H644.381V362.9H639.521V362.07L640.241 361.45ZM645.362 357.51C645.402 356.89 645.639 356.407 646.072 356.06C646.512 355.713 647.072 355.54 647.752 355.54C648.219 355.54 648.622 355.623 648.962 355.79C649.302 355.957 649.559 356.183 649.732 356.47C649.906 356.757 649.992 357.08 649.992 357.44C649.992 357.853 649.882 358.207 649.662 358.5C649.442 358.793 649.179 358.99 648.872 359.09V359.13C649.266 359.25 649.572 359.47 649.792 359.79C650.012 360.103 650.122 360.507 650.122 361C650.122 361.393 650.032 361.743 649.852 362.05C649.672 362.357 649.406 362.6 649.052 362.78C648.699 362.953 648.276 363.04 647.782 363.04C647.062 363.04 646.469 362.857 646.002 362.49C645.542 362.117 645.296 361.583 645.262 360.89H646.362C646.389 361.243 646.526 361.533 646.772 361.76C647.019 361.98 647.352 362.09 647.772 362.09C648.179 362.09 648.492 361.98 648.712 361.76C648.932 361.533 649.042 361.243 649.042 360.89C649.042 360.423 648.892 360.093 648.592 359.9C648.299 359.7 647.846 359.6 647.232 359.6H646.972V358.66H647.242C647.782 358.653 648.192 358.563 648.472 358.39C648.759 358.217 648.902 357.943 648.902 357.57C648.902 357.25 648.799 356.997 648.592 356.81C648.386 356.617 648.092 356.52 647.712 356.52C647.339 356.52 647.049 356.617 646.842 356.81C646.636 356.997 646.512 357.23 646.472 357.51H645.362Z" fill="#73798B"/>
<path d="M794.656 359.26C794.656 358.107 794.849 357.207 795.236 356.56C795.629 355.907 796.303 355.58 797.256 355.58C798.209 355.58 798.879 355.907 799.266 356.56C799.659 357.207 799.856 358.107 799.856 359.26C799.856 360.427 799.659 361.34 799.266 362C798.879 362.653 798.209 362.98 797.256 362.98C796.303 362.98 795.629 362.653 795.236 362C794.849 361.34 794.656 360.427 794.656 359.26ZM798.736 359.26C798.736 358.72 798.699 358.263 798.626 357.89C798.559 357.517 798.419 357.213 798.206 356.98C797.993 356.74 797.676 356.62 797.256 356.62C796.836 356.62 796.519 356.74 796.306 356.98C796.093 357.213 795.949 357.517 795.876 357.89C795.809 358.263 795.776 358.72 795.776 359.26C795.776 359.82 795.809 360.29 795.876 360.67C795.943 361.05 796.083 361.357 796.296 361.59C796.516 361.823 796.836 361.94 797.256 361.94C797.676 361.94 797.993 361.823 798.206 361.59C798.426 361.357 798.569 361.05 798.636 360.67C798.703 360.29 798.736 359.82 798.736 359.26ZM800.922 361.48V360.62L804.282 355.8H805.662V360.49H806.592V361.48H805.662V363H804.542V361.48H800.922ZM804.592 356.96L802.232 360.49H804.592V356.96ZM811.917 358.9V359.86H807.807V358.9H811.917ZM814.016 361.45C814.656 360.897 815.16 360.443 815.526 360.09C815.9 359.73 816.21 359.357 816.456 358.97C816.703 358.583 816.826 358.197 816.826 357.81C816.826 357.41 816.73 357.097 816.536 356.87C816.35 356.643 816.053 356.53 815.646 356.53C815.253 356.53 814.946 356.657 814.726 356.91C814.513 357.157 814.4 357.49 814.386 357.91H813.286C813.306 357.15 813.533 356.57 813.966 356.17C814.406 355.763 814.963 355.56 815.636 355.56C816.363 355.56 816.93 355.76 817.336 356.16C817.75 356.56 817.956 357.093 817.956 357.76C817.956 358.24 817.833 358.703 817.586 359.15C817.346 359.59 817.056 359.987 816.716 360.34C816.383 360.687 815.956 361.09 815.436 361.55L814.986 361.95H818.156V362.9H813.296V362.07L814.016 361.45ZM823.858 356.69H820.508V358.68C820.648 358.493 820.855 358.337 821.128 358.21C821.408 358.083 821.705 358.02 822.018 358.02C822.578 358.02 823.031 358.14 823.378 358.38C823.731 358.62 823.981 358.923 824.128 359.29C824.281 359.657 824.358 360.043 824.358 360.45C824.358 360.943 824.261 361.383 824.068 361.77C823.881 362.15 823.598 362.45 823.218 362.67C822.845 362.89 822.385 363 821.838 363C821.111 363 820.528 362.82 820.088 362.46C819.648 362.1 819.385 361.623 819.298 361.03H820.408C820.481 361.343 820.645 361.593 820.898 361.78C821.151 361.96 821.468 362.05 821.848 362.05C822.321 362.05 822.675 361.907 822.908 361.62C823.148 361.333 823.268 360.953 823.268 360.48C823.268 360 823.148 359.633 822.908 359.38C822.668 359.12 822.315 358.99 821.848 358.99C821.521 358.99 821.245 359.073 821.018 359.24C820.798 359.4 820.638 359.62 820.538 359.9H819.458V355.69H823.858V356.69Z" fill="#73798B"/>
<path d="M448.101 359.26C448.101 358.107 448.294 357.207 448.681 356.56C449.074 355.907 449.748 355.58 450.701 355.58C451.654 355.58 452.324 355.907 452.711 356.56C453.104 357.207 453.301 358.107 453.301 359.26C453.301 360.427 453.104 361.34 452.711 362C452.324 362.653 451.654 362.98 450.701 362.98C449.748 362.98 449.074 362.653 448.681 362C448.294 361.34 448.101 360.427 448.101 359.26ZM452.181 359.26C452.181 358.72 452.144 358.263 452.071 357.89C452.004 357.517 451.864 357.213 451.651 356.98C451.438 356.74 451.121 356.62 450.701 356.62C450.281 356.62 449.964 356.74 449.751 356.98C449.538 357.213 449.394 357.517 449.321 357.89C449.254 358.263 449.221 358.72 449.221 359.26C449.221 359.82 449.254 360.29 449.321 360.67C449.388 361.05 449.528 361.357 449.741 361.59C449.961 361.823 450.281 361.94 450.701 361.94C451.121 361.94 451.438 361.823 451.651 361.59C451.871 361.357 452.014 361.05 452.081 360.67C452.148 360.29 452.181 359.82 452.181 359.26ZM454.367 361.48V360.62L457.727 355.8H459.107V360.49H460.037V361.48H459.107V363H457.987V361.48H454.367ZM458.037 356.96L455.677 360.49H458.037V356.96ZM465.362 358.9V359.86H461.252V358.9H465.362ZM467.461 361.45C468.101 360.897 468.605 360.443 468.971 360.09C469.345 359.73 469.655 359.357 469.901 358.97C470.148 358.583 470.271 358.197 470.271 357.81C470.271 357.41 470.175 357.097 469.981 356.87C469.795 356.643 469.498 356.53 469.091 356.53C468.698 356.53 468.391 356.657 468.171 356.91C467.958 357.157 467.845 357.49 467.831 357.91H466.731C466.751 357.15 466.978 356.57 467.411 356.17C467.851 355.763 468.408 355.56 469.081 355.56C469.808 355.56 470.375 355.76 470.781 356.16C471.195 356.56 471.401 357.093 471.401 357.76C471.401 358.24 471.278 358.703 471.031 359.15C470.791 359.59 470.501 359.987 470.161 360.34C469.828 360.687 469.401 361.09 468.881 361.55L468.431 361.95H471.601V362.9H466.741V362.07L467.461 361.45ZM472.453 356.75V355.71H474.533V363H473.383V356.75H472.453Z" fill="#73798B"/>
<path d="M635 340V348" stroke="#73798B"/>
<path d="M809 340V348" stroke="#73798B"/>
<path d="M200 340V348" stroke="#73798B"/>
<path d="M287 340V348" stroke="#73798B"/>
<path d="M374 340V348" stroke="#73798B"/>
<path d="M461 340V348" stroke="#73798B"/>
<path d="M548 340V348" stroke="#73798B"/>
<path d="M722 340V348" stroke="#73798B"/>
<path d="M113.062 340V348" stroke="#73798B"/>
<path d="M64 141V343H855" stroke="#73798B"/>
<path d="M115.5 225L192.853 206.748C200.187 205.018 207.908 206.832 213.704 211.648L266.868 255.828C276.244 263.62 289.972 263.144 298.786 254.723L363.553 192.842C370.177 186.512 379.827 184.507 388.425 187.673L455.252 212.279C460.879 214.351 467.078 214.241 472.629 211.971L544.697 182.5L634.964 153.162C636.319 152.721 637.71 152.403 639.121 152.209L724.5 140.5L812 132" stroke="#424AFF" stroke-width="2"/>
<circle cx="116" cy="225" r="2" fill="white" stroke="#424AFF" stroke-width="2"/>
<circle cx="204" cy="207" r="2" fill="white" stroke="#424AFF" stroke-width="2"/>
<circle cx="282.545" cy="262" r="2" fill="white" stroke="#424AFF" stroke-width="2"/>
<circle cx="375.018" cy="186" r="2" fill="white" stroke="#424AFF" stroke-width="2"/>
<circle cx="464" cy="214" r="2" fill="white" stroke="#424AFF" stroke-width="2"/>
<circle cx="550" cy="180" r="2" fill="white" stroke="#424AFF" stroke-width="2"/>
<circle cx="637.338" cy="153" r="2" fill="white" stroke="#424AFF" stroke-width="2"/>
<path d="M724 141.5C724 142.605 723.105 143.5 722 143.5C720.895 143.5 720 142.605 720 141.5C720 140.395 720.895 139.5 722 139.5C723.105 139.5 724 140.395 724 141.5Z" fill="white" stroke="#424AFF" stroke-width="2"/>
<circle cx="813" cy="132" r="2" fill="white" stroke="#424AFF" stroke-width="2"/>
<rect x="62" y="98" width="2" height="2" fill="#D9D9D9"/>
<defs>
<filter id="filter0_i_3885_3574" x="1" y="1" width="878" height="52" filterUnits="userSpaceOnUse" color-interpolation-filters="sRGB">
<feFlood flood-opacity="0" result="BackgroundImageFix"/>
<feBlend mode="normal" in="SourceGraphic" in2="BackgroundImageFix" result="shape"/>
<feColorMatrix in="SourceAlpha" type="matrix" values="0 0 0 0 0 0 0 0 0 0 0 0 0 0 0 0 0 0 127 0" result="hardAlpha"/>
<feOffset dy="-1"/>
<feComposite in2="hardAlpha" operator="arithmetic" k2="-1" k3="1"/>
<feColorMatrix type="matrix" values="0 0 0 0 0.929412 0 0 0 0 0.933333 0 0 0 0 0.952941 0 0 0 1 0"/>
<feBlend mode="normal" in2="shape" result="effect1_innerShadow_3885_3574"/>
</filter>
<filter id="filter1_dd_3885_3574" x="25" y="79" width="88" height="40" filterUnits="userSpaceOnUse" color-interpolation-filters="sRGB">
<feFlood flood-opacity="0" result="BackgroundImageFix"/>
<feColorMatrix in="SourceAlpha" type="matrix" values="0 0 0 0 0 0 0 0 0 0 0 0 0 0 0 0 0 0 127 0" result="hardAlpha"/>
<feOffset dy="1"/>
<feGaussianBlur stdDeviation="1.5"/>
<feColorMatrix type="matrix" values="0 0 0 0 0.0627451 0 0 0 0 0.0941176 0 0 0 0 0.156863 0 0 0 0.0644668 0"/>
<feBlend mode="normal" in2="BackgroundImageFix" result="effect1_dropShadow_3885_3574"/>
<feColorMatrix in="SourceAlpha" type="matrix" values="0 0 0 0 0 0 0 0 0 0 0 0 0 0 0 0 0 0 127 0" result="hardAlpha"/>
<feOffset dy="2"/>
<feGaussianBlur stdDeviation="2"/>
<feColorMatrix type="matrix" values="0 0 0 0 0.0627451 0 0 0 0 0.0941176 0 0 0 0 0.156863 0 0 0 0.104294 0"/>
<feBlend mode="normal" in2="effect1_dropShadow_3885_3574" result="effect2_dropShadow_3885_3574"/>
<feBlend mode="normal" in="SourceGraphic" in2="effect2_dropShadow_3885_3574" result="shape"/>
</filter>
</defs>
</svg>
