<svg width="880" height="438" viewBox="0 0 880 438" fill="none" xmlns="http://www.w3.org/2000/svg">
<rect x="0.5" y="0.5" width="879" height="437" rx="10.5" fill="white"/>
<rect x="0.5" y="0.5" width="879" height="437" rx="10.5" stroke="#EDEEF3"/>
<g filter="url(#filter0_i_2722_2527)">
<rect x="1" y="1" width="878" height="52" fill="#F8F9FC"/>
</g>
<path d="M34.432 20.49V22.164H31.102V33H29.05V22.164H25.702V20.49H34.432ZM40.8122 33.162C39.8762 33.162 39.0302 32.952 38.2742 32.532C37.5182 32.1 36.9242 31.5 36.4922 30.732C36.0602 29.952 35.8442 29.052 35.8442 28.032C35.8442 27.024 36.0662 26.13 36.5102 25.35C36.9542 24.57 37.5602 23.97 38.3282 23.55C39.0962 23.13 39.9542 22.92 40.9022 22.92C41.8502 22.92 42.7082 23.13 43.4762 23.55C44.2442 23.97 44.8502 24.57 45.2942 25.35C45.7382 26.13 45.9602 27.024 45.9602 28.032C45.9602 29.04 45.7322 29.934 45.2762 30.714C44.8202 31.494 44.1962 32.1 43.4042 32.532C42.6242 32.952 41.7602 33.162 40.8122 33.162ZM40.8122 31.38C41.3402 31.38 41.8322 31.254 42.2882 31.002C42.7562 30.75 43.1342 30.372 43.4222 29.868C43.7102 29.364 43.8542 28.752 43.8542 28.032C43.8542 27.312 43.7162 26.706 43.4402 26.214C43.1642 25.71 42.7982 25.332 42.3422 25.08C41.8862 24.828 41.3942 24.702 40.8662 24.702C40.3382 24.702 39.8462 24.828 39.3902 25.08C38.9462 25.332 38.5922 25.71 38.3282 26.214C38.0642 26.706 37.9322 27.312 37.9322 28.032C37.9322 29.1 38.2022 29.928 38.7422 30.516C39.2942 31.092 39.9842 31.38 40.8122 31.38ZM50.3827 24.756V30.246C50.3827 30.618 50.4667 30.888 50.6347 31.056C50.8147 31.212 51.1147 31.29 51.5347 31.29H52.7947V33H51.1747C50.2507 33 49.5427 32.784 49.0507 32.352C48.5587 31.92 48.3127 31.218 48.3127 30.246V24.756H47.1427V23.082H48.3127V20.616H50.3827V23.082H52.7947V24.756H50.3827ZM54.0019 27.996C54.0019 27 54.2059 26.118 54.6139 25.35C55.0339 24.582 55.5979 23.988 56.3059 23.568C57.0259 23.136 57.8179 22.92 58.6819 22.92C59.4619 22.92 60.1399 23.076 60.7159 23.388C61.3039 23.688 61.7719 24.066 62.1199 24.522V23.082H64.1899V33H62.1199V31.524C61.7719 31.992 61.2979 32.382 60.6979 32.694C60.0979 33.006 59.4139 33.162 58.6459 33.162C57.7939 33.162 57.0139 32.946 56.3059 32.514C55.5979 32.07 55.0339 31.458 54.6139 30.678C54.2059 29.886 54.0019 28.992 54.0019 27.996ZM62.1199 28.032C62.1199 27.348 61.9759 26.754 61.6879 26.25C61.4119 25.746 61.0459 25.362 60.5899 25.098C60.1339 24.834 59.6419 24.702 59.1139 24.702C58.5859 24.702 58.0939 24.834 57.6379 25.098C57.1819 25.35 56.8099 25.728 56.5219 26.232C56.2459 26.724 56.1079 27.312 56.1079 27.996C56.1079 28.68 56.2459 29.28 56.5219 29.796C56.8099 30.312 57.1819 30.708 57.6379 30.984C58.1059 31.248 58.5979 31.38 59.1139 31.38C59.6419 31.38 60.1339 31.248 60.5899 30.984C61.0459 30.72 61.4119 30.336 61.6879 29.832C61.9759 29.316 62.1199 28.716 62.1199 28.032ZM68.9372 19.68V33H66.8852V19.68H68.9372ZM83.849 30.444H78.611L77.711 33H75.569L80.051 20.472H82.427L86.909 33H84.749L83.849 30.444ZM83.273 28.77L81.239 22.956L79.187 28.77H83.273ZM92.4578 33.162C91.6778 33.162 90.9758 33.024 90.3518 32.748C89.7398 32.46 89.2538 32.076 88.8938 31.596C88.5338 31.104 88.3418 30.558 88.3178 29.958H90.4418C90.4778 30.378 90.6758 30.732 91.0358 31.02C91.4078 31.296 91.8698 31.434 92.4218 31.434C92.9978 31.434 93.4418 31.326 93.7538 31.11C94.0778 30.882 94.2398 30.594 94.2398 30.246C94.2398 29.874 94.0598 29.598 93.6998 29.418C93.3518 29.238 92.7938 29.04 92.0258 28.824C91.2818 28.62 90.6758 28.422 90.2078 28.23C89.7398 28.038 89.3318 27.744 88.9838 27.348C88.6478 26.952 88.4798 26.43 88.4798 25.782C88.4798 25.254 88.6358 24.774 88.9478 24.342C89.2598 23.898 89.7038 23.55 90.2798 23.298C90.8678 23.046 91.5398 22.92 92.2958 22.92C93.4238 22.92 94.3298 23.208 95.0138 23.784C95.7098 24.348 96.0818 25.122 96.1298 26.106H94.0778C94.0418 25.662 93.8618 25.308 93.5378 25.044C93.2138 24.78 92.7758 24.648 92.2238 24.648C91.6838 24.648 91.2698 24.75 90.9818 24.954C90.6938 25.158 90.5498 25.428 90.5498 25.764C90.5498 26.028 90.6458 26.25 90.8378 26.43C91.0298 26.61 91.2638 26.754 91.5398 26.862C91.8158 26.958 92.2238 27.084 92.7638 27.24C93.4838 27.432 94.0718 27.63 94.5278 27.834C94.9958 28.026 95.3978 28.314 95.7338 28.698C96.0698 29.082 96.2438 29.592 96.2558 30.228C96.2558 30.792 96.0998 31.296 95.7878 31.74C95.4758 32.184 95.0318 32.532 94.4558 32.784C93.8918 33.036 93.2258 33.162 92.4578 33.162ZM102.073 33.162C101.293 33.162 100.591 33.024 99.967 32.748C99.355 32.46 98.869 32.076 98.509 31.596C98.149 31.104 97.957 30.558 97.933 29.958H100.057C100.093 30.378 100.291 30.732 100.651 31.02C101.023 31.296 101.485 31.434 102.037 31.434C102.613 31.434 103.057 31.326 103.369 31.11C103.693 30.882 103.855 30.594 103.855 30.246C103.855 29.874 103.675 29.598 103.315 29.418C102.967 29.238 102.409 29.04 101.641 28.824C100.897 28.62 100.291 28.422 99.823 28.23C99.355 28.038 98.947 27.744 98.599 27.348C98.263 26.952 98.095 26.43 98.095 25.782C98.095 25.254 98.251 24.774 98.563 24.342C98.875 23.898 99.319 23.55 99.895 23.298C100.483 23.046 101.155 22.92 101.911 22.92C103.039 22.92 103.945 23.208 104.629 23.784C105.325 24.348 105.697 25.122 105.745 26.106H103.693C103.657 25.662 103.477 25.308 103.153 25.044C102.829 24.78 102.391 24.648 101.839 24.648C101.299 24.648 100.885 24.75 100.597 24.954C100.309 25.158 100.165 25.428 100.165 25.764C100.165 26.028 100.261 26.25 100.453 26.43C100.645 26.61 100.879 26.754 101.155 26.862C101.431 26.958 101.839 27.084 102.379 27.24C103.099 27.432 103.687 27.63 104.143 27.834C104.611 28.026 105.013 28.314 105.349 28.698C105.685 29.082 105.859 29.592 105.871 30.228C105.871 30.792 105.715 31.296 105.403 31.74C105.091 32.184 104.647 32.532 104.071 32.784C103.507 33.036 102.841 33.162 102.073 33.162ZM117.178 27.798C117.178 28.17 117.154 28.506 117.106 28.806H109.528C109.588 29.598 109.882 30.234 110.41 30.714C110.938 31.194 111.586 31.434 112.354 31.434C113.458 31.434 114.238 30.972 114.694 30.048H116.908C116.608 30.96 116.062 31.71 115.27 32.298C114.49 32.874 113.518 33.162 112.354 33.162C111.406 33.162 110.554 32.952 109.798 32.532C109.054 32.1 108.466 31.5 108.034 30.732C107.614 29.952 107.404 29.052 107.404 28.032C107.404 27.012 107.608 26.118 108.016 25.35C108.436 24.57 109.018 23.97 109.762 23.55C110.518 23.13 111.382 22.92 112.354 22.92C113.29 22.92 114.124 23.124 114.856 23.532C115.588 23.94 116.158 24.516 116.566 25.26C116.974 25.992 117.178 26.838 117.178 27.798ZM115.036 27.15C115.024 26.394 114.754 25.788 114.226 25.332C113.698 24.876 113.044 24.648 112.264 24.648C111.556 24.648 110.95 24.876 110.446 25.332C109.942 25.776 109.642 26.382 109.546 27.15H115.036ZM121.592 24.756V30.246C121.592 30.618 121.676 30.888 121.844 31.056C122.024 31.212 122.324 31.29 122.744 31.29H124.004V33H122.384C121.46 33 120.752 32.784 120.26 32.352C119.768 31.92 119.522 31.218 119.522 30.246V24.756H118.352V23.082H119.522V20.616H121.592V23.082H124.004V24.756H121.592ZM129.495 33.162C128.715 33.162 128.013 33.024 127.389 32.748C126.777 32.46 126.291 32.076 125.931 31.596C125.571 31.104 125.379 30.558 125.355 29.958H127.479C127.515 30.378 127.713 30.732 128.073 31.02C128.445 31.296 128.907 31.434 129.459 31.434C130.035 31.434 130.479 31.326 130.791 31.11C131.115 30.882 131.277 30.594 131.277 30.246C131.277 29.874 131.097 29.598 130.737 29.418C130.389 29.238 129.831 29.04 129.063 28.824C128.319 28.62 127.713 28.422 127.245 28.23C126.777 28.038 126.369 27.744 126.021 27.348C125.685 26.952 125.517 26.43 125.517 25.782C125.517 25.254 125.673 24.774 125.985 24.342C126.297 23.898 126.741 23.55 127.317 23.298C127.905 23.046 128.577 22.92 129.333 22.92C130.461 22.92 131.367 23.208 132.051 23.784C132.747 24.348 133.119 25.122 133.167 26.106H131.115C131.079 25.662 130.899 25.308 130.575 25.044C130.251 24.78 129.813 24.648 129.261 24.648C128.721 24.648 128.307 24.75 128.019 24.954C127.731 25.158 127.587 25.428 127.587 25.764C127.587 26.028 127.683 26.25 127.875 26.43C128.067 26.61 128.301 26.754 128.577 26.862C128.853 26.958 129.261 27.084 129.801 27.24C130.521 27.432 131.109 27.63 131.565 27.834C132.033 28.026 132.435 28.314 132.771 28.698C133.107 29.082 133.281 29.592 133.293 30.228C133.293 30.792 133.137 31.296 132.825 31.74C132.513 32.184 132.069 32.532 131.493 32.784C130.929 33.036 130.263 33.162 129.495 33.162ZM148.268 20.49V22.164H144.938V33H142.886V22.164H139.538V20.49H148.268ZM152.398 24.522C152.698 24.018 153.094 23.628 153.586 23.352C154.09 23.064 154.684 22.92 155.368 22.92V25.044H154.846C154.042 25.044 153.43 25.248 153.01 25.656C152.602 26.064 152.398 26.772 152.398 27.78V33H150.346V23.082H152.398V24.522ZM166.344 27.798C166.344 28.17 166.32 28.506 166.272 28.806H158.694C158.754 29.598 159.048 30.234 159.576 30.714C160.104 31.194 160.752 31.434 161.52 31.434C162.624 31.434 163.404 30.972 163.86 30.048H166.074C165.774 30.96 165.228 31.71 164.436 32.298C163.656 32.874 162.684 33.162 161.52 33.162C160.572 33.162 159.72 32.952 158.964 32.532C158.22 32.1 157.632 31.5 157.2 30.732C156.78 29.952 156.57 29.052 156.57 28.032C156.57 27.012 156.774 26.118 157.182 25.35C157.602 24.57 158.184 23.97 158.928 23.55C159.684 23.13 160.548 22.92 161.52 22.92C162.456 22.92 163.29 23.124 164.022 23.532C164.754 23.94 165.324 24.516 165.732 25.26C166.14 25.992 166.344 26.838 166.344 27.798ZM164.202 27.15C164.19 26.394 163.92 25.788 163.392 25.332C162.864 24.876 162.21 24.648 161.43 24.648C160.722 24.648 160.116 24.876 159.612 25.332C159.108 25.776 158.808 26.382 158.712 27.15H164.202ZM173.368 22.92C174.148 22.92 174.844 23.082 175.456 23.406C176.08 23.73 176.566 24.21 176.914 24.846C177.262 25.482 177.436 26.25 177.436 27.15V33H175.402V27.456C175.402 26.568 175.18 25.89 174.736 25.422C174.292 24.942 173.686 24.702 172.918 24.702C172.15 24.702 171.538 24.942 171.082 25.422C170.638 25.89 170.416 26.568 170.416 27.456V33H168.364V23.082H170.416V24.216C170.752 23.808 171.178 23.49 171.694 23.262C172.222 23.034 172.78 22.92 173.368 22.92ZM179.369 27.996C179.369 27 179.573 26.118 179.981 25.35C180.401 24.582 180.965 23.988 181.673 23.568C182.393 23.136 183.191 22.92 184.067 22.92C184.715 22.92 185.351 23.064 185.975 23.352C186.611 23.628 187.115 24 187.487 24.468V19.68H189.557V33H187.487V31.506C187.151 31.986 186.683 32.382 186.083 32.694C185.495 33.006 184.817 33.162 184.049 33.162C183.185 33.162 182.393 32.946 181.673 32.514C180.965 32.07 180.401 31.458 179.981 30.678C179.573 29.886 179.369 28.992 179.369 27.996ZM187.487 28.032C187.487 27.348 187.343 26.754 187.055 26.25C186.779 25.746 186.413 25.362 185.957 25.098C185.501 24.834 185.009 24.702 184.481 24.702C183.953 24.702 183.461 24.834 183.005 25.098C182.549 25.35 182.177 25.728 181.889 26.232C181.613 26.724 181.475 27.312 181.475 27.996C181.475 28.68 181.613 29.28 181.889 29.796C182.177 30.312 182.549 30.708 183.005 30.984C183.473 31.248 183.965 31.38 184.481 31.38C185.009 31.38 185.501 31.248 185.957 30.984C186.413 30.72 186.779 30.336 187.055 29.832C187.343 29.316 187.487 28.716 187.487 28.032Z" fill="#1C1C1C"/>
<rect x="24.5" y="76.5" width="341" height="41" rx="6.5" fill="#F8F9FC" stroke="#EDEEF3"/>
<g filter="url(#filter1_dd_2722_2527)">
<rect x="29" y="81" width="80" height="32" rx="4" fill="white"/>
</g>
<path d="M55.4855 92.228C56.5122 92.228 57.4128 92.4287 58.1875 92.83C58.9715 93.2313 59.5735 93.8053 59.9935 94.552C60.4228 95.2893 60.6375 96.148 60.6375 97.128C60.6375 98.108 60.4228 98.9667 59.9935 99.704C59.5735 100.432 58.9715 100.997 58.1875 101.398C57.4128 101.799 56.5122 102 55.4855 102H52.0695V92.228H55.4855ZM55.4155 100.334C56.4422 100.334 57.2355 100.054 57.7955 99.494C58.3555 98.934 58.6355 98.1453 58.6355 97.128C58.6355 96.1107 58.3555 95.3173 57.7955 94.748C57.2355 94.1693 56.4422 93.88 55.4155 93.88H54.0295V100.334H55.4155ZM61.6007 98.094C61.6007 97.31 61.7547 96.6147 62.0627 96.008C62.38 95.4013 62.8047 94.9347 63.3367 94.608C63.878 94.2813 64.48 94.118 65.1427 94.118C65.7213 94.118 66.2253 94.2347 66.6547 94.468C67.0933 94.7013 67.4433 94.9953 67.7047 95.35V94.244H69.6787V102H67.7047V100.866C67.4527 101.23 67.1027 101.533 66.6547 101.776C66.216 102.009 65.7073 102.126 65.1287 102.126C64.4753 102.126 63.878 101.958 63.3367 101.622C62.8047 101.286 62.38 100.815 62.0627 100.208C61.7547 99.592 61.6007 98.8873 61.6007 98.094ZM67.7047 98.122C67.7047 97.646 67.6113 97.24 67.4247 96.904C67.238 96.5587 66.986 96.2973 66.6687 96.12C66.3513 95.9333 66.0107 95.84 65.6467 95.84C65.2827 95.84 64.9467 95.9287 64.6387 96.106C64.3307 96.2833 64.0787 96.5447 63.8827 96.89C63.696 97.226 63.6027 97.6273 63.6027 98.094C63.6027 98.5607 63.696 98.9713 63.8827 99.326C64.0787 99.6713 64.3307 99.9373 64.6387 100.124C64.956 100.311 65.292 100.404 65.6467 100.404C66.0107 100.404 66.3513 100.315 66.6687 100.138C66.986 99.9513 67.238 99.69 67.4247 99.354C67.6113 99.0087 67.7047 98.598 67.7047 98.122ZM72.587 93.32C72.2416 93.32 71.9523 93.2127 71.719 92.998C71.495 92.774 71.383 92.4987 71.383 92.172C71.383 91.8453 71.495 91.5747 71.719 91.36C71.9523 91.136 72.2416 91.024 72.587 91.024C72.9323 91.024 73.217 91.136 73.441 91.36C73.6743 91.5747 73.791 91.8453 73.791 92.172C73.791 92.4987 73.6743 92.774 73.441 92.998C73.217 93.2127 72.9323 93.32 72.587 93.32ZM73.553 94.244V102H71.593V94.244H73.553ZM77.4494 91.64V102H75.4894V91.64H77.4494ZM86.8059 94.244L82.0039 105.668H79.9179L81.5979 101.804L78.4899 94.244H80.6879L82.6899 99.662L84.7199 94.244H86.8059Z" fill="#1F32D6"/>
<rect x="113" y="81" width="80" height="32" rx="4" fill="white" fill-opacity="0.01"/>
<path d="M141.79 92.27L138.906 102H137.1L135.056 94.636L132.886 102L131.094 102.014L128.336 92.27H130.03L132.046 100.194L134.23 92.27H136.022L138.052 100.152L140.082 92.27H141.79ZM150.177 97.954C150.177 98.2433 150.158 98.5047 150.121 98.738H144.227C144.273 99.354 144.502 99.8487 144.913 100.222C145.323 100.595 145.827 100.782 146.425 100.782C147.283 100.782 147.89 100.423 148.245 99.704H149.967C149.733 100.413 149.309 100.997 148.693 101.454C148.086 101.902 147.33 102.126 146.425 102.126C145.687 102.126 145.025 101.963 144.437 101.636C143.858 101.3 143.401 100.833 143.065 100.236C142.738 99.6293 142.575 98.9293 142.575 98.136C142.575 97.3427 142.733 96.6473 143.051 96.05C143.377 95.4433 143.83 94.9767 144.409 94.65C144.997 94.3233 145.669 94.16 146.425 94.16C147.153 94.16 147.801 94.3187 148.371 94.636C148.94 94.9533 149.383 95.4013 149.701 95.98C150.018 96.5493 150.177 97.2073 150.177 97.954ZM148.511 97.45C148.501 96.862 148.291 96.3907 147.881 96.036C147.47 95.6813 146.961 95.504 146.355 95.504C145.804 95.504 145.333 95.6813 144.941 96.036C144.549 96.3813 144.315 96.8527 144.241 97.45H148.511ZM158.817 97.954C158.817 98.2433 158.799 98.5047 158.761 98.738H152.867C152.914 99.354 153.143 99.8487 153.553 100.222C153.964 100.595 154.468 100.782 155.065 100.782C155.924 100.782 156.531 100.423 156.885 99.704H158.607C158.374 100.413 157.949 100.997 157.333 101.454C156.727 101.902 155.971 102.126 155.065 102.126C154.328 102.126 153.665 101.963 153.077 101.636C152.499 101.3 152.041 100.833 151.705 100.236C151.379 99.6293 151.215 98.9293 151.215 98.136C151.215 97.3427 151.374 96.6473 151.691 96.05C152.018 95.4433 152.471 94.9767 153.049 94.65C153.637 94.3233 154.309 94.16 155.065 94.16C155.793 94.16 156.442 94.3187 157.011 94.636C157.581 94.9533 158.024 95.4013 158.341 95.98C158.659 96.5493 158.817 97.2073 158.817 97.954ZM157.151 97.45C157.142 96.862 156.932 96.3907 156.521 96.036C156.111 95.6813 155.602 95.504 154.995 95.504C154.445 95.504 153.973 95.6813 153.581 96.036C153.189 96.3813 152.956 96.8527 152.881 97.45H157.151ZM163.44 98.15L166.996 102H164.84L161.984 98.682V102H160.388V91.64H161.984V97.66L164.784 94.286H166.996L163.44 98.15ZM169.736 91.64V102H168.14V91.64H169.736ZM178.775 94.286L174.043 105.626H172.391L173.959 101.874L170.921 94.286H172.699L174.869 100.166L177.123 94.286H178.775Z" fill="#73798B"/>
<rect x="197" y="81" width="80" height="32" rx="4" fill="white" fill-opacity="0.01"/>
<path d="M220.545 92.27V102H218.949V95.336L215.981 102H214.875L211.893 95.336V102H210.297V92.27H212.019L215.435 99.9L218.837 92.27H220.545ZM225.989 102.126C225.261 102.126 224.603 101.963 224.015 101.636C223.427 101.3 222.965 100.833 222.629 100.236C222.293 99.6293 222.125 98.9293 222.125 98.136C222.125 97.352 222.297 96.6567 222.643 96.05C222.988 95.4433 223.459 94.9767 224.057 94.65C224.654 94.3233 225.321 94.16 226.059 94.16C226.796 94.16 227.463 94.3233 228.061 94.65C228.658 94.9767 229.129 95.4433 229.475 96.05C229.82 96.6567 229.993 97.352 229.993 98.136C229.993 98.92 229.815 99.6153 229.461 100.222C229.106 100.829 228.621 101.3 228.005 101.636C227.398 101.963 226.726 102.126 225.989 102.126ZM225.989 100.74C226.399 100.74 226.782 100.642 227.137 100.446C227.501 100.25 227.795 99.956 228.019 99.564C228.243 99.172 228.355 98.696 228.355 98.136C228.355 97.576 228.247 97.1047 228.033 96.722C227.818 96.33 227.533 96.036 227.179 95.84C226.824 95.644 226.441 95.546 226.031 95.546C225.62 95.546 225.237 95.644 224.883 95.84C224.537 96.036 224.262 96.33 224.057 96.722C223.851 97.1047 223.749 97.576 223.749 98.136C223.749 98.9667 223.959 99.6107 224.379 100.068C224.808 100.516 225.345 100.74 225.989 100.74ZM235.463 94.16C236.069 94.16 236.611 94.286 237.087 94.538C237.572 94.79 237.95 95.1633 238.221 95.658C238.491 96.1527 238.627 96.75 238.627 97.45V102H237.045V97.688C237.045 96.9973 236.872 96.47 236.527 96.106C236.181 95.7327 235.71 95.546 235.113 95.546C234.515 95.546 234.039 95.7327 233.685 96.106C233.339 96.47 233.167 96.9973 233.167 97.688V102H231.571V94.286H233.167V95.168C233.428 94.8507 233.759 94.6033 234.161 94.426C234.571 94.2487 235.005 94.16 235.463 94.16ZM242.524 95.588V99.858C242.524 100.147 242.59 100.357 242.72 100.488C242.86 100.609 243.094 100.67 243.42 100.67H244.4V102H243.14C242.422 102 241.871 101.832 241.488 101.496C241.106 101.16 240.914 100.614 240.914 99.858V95.588H240.004V94.286H240.914V92.368H242.524V94.286H244.4V95.588H242.524ZM249.861 94.16C250.449 94.16 250.972 94.286 251.429 94.538C251.896 94.79 252.26 95.1633 252.521 95.658C252.792 96.1527 252.927 96.75 252.927 97.45V102H251.345V97.688C251.345 96.9973 251.173 96.47 250.827 96.106C250.482 95.7327 250.011 95.546 249.413 95.546C248.816 95.546 248.34 95.7327 247.985 96.106C247.64 96.47 247.467 96.9973 247.467 97.688V102H245.871V91.64H247.467V95.182C247.738 94.8553 248.079 94.6033 248.489 94.426C248.909 94.2487 249.367 94.16 249.861 94.16ZM256.559 91.64V102H254.963V91.64H256.559ZM265.598 94.286L260.866 105.626H259.214L260.782 101.874L257.744 94.286H259.522L261.692 100.166L263.946 94.286H265.598Z" fill="#73798B"/>
<rect x="281" y="81" width="80" height="32" rx="4" fill="white" fill-opacity="0.01"/>
<path d="M307.351 92.27L304.131 98.472V102H302.535V98.472L299.301 92.27H301.079L303.333 97.044L305.587 92.27H307.351ZM315.687 97.954C315.687 98.2433 315.669 98.5047 315.631 98.738H309.737C309.784 99.354 310.013 99.8487 310.423 100.222C310.834 100.595 311.338 100.782 311.935 100.782C312.794 100.782 313.401 100.423 313.755 99.704H315.477C315.244 100.413 314.819 100.997 314.203 101.454C313.597 101.902 312.841 102.126 311.935 102.126C311.198 102.126 310.535 101.963 309.947 101.636C309.369 101.3 308.911 100.833 308.575 100.236C308.249 99.6293 308.085 98.9293 308.085 98.136C308.085 97.3427 308.244 96.6473 308.561 96.05C308.888 95.4433 309.341 94.9767 309.919 94.65C310.507 94.3233 311.179 94.16 311.935 94.16C312.663 94.16 313.312 94.3187 313.881 94.636C314.451 94.9533 314.894 95.4013 315.211 95.98C315.529 96.5493 315.687 97.2073 315.687 97.954ZM314.021 97.45C314.012 96.862 313.802 96.3907 313.391 96.036C312.981 95.6813 312.472 95.504 311.865 95.504C311.315 95.504 310.843 95.6813 310.451 96.036C310.059 96.3813 309.826 96.8527 309.751 97.45H314.021ZM316.726 98.108C316.726 97.3333 316.885 96.6473 317.202 96.05C317.529 95.4527 317.967 94.9907 318.518 94.664C319.078 94.328 319.694 94.16 320.366 94.16C320.973 94.16 321.5 94.2813 321.948 94.524C322.405 94.7573 322.769 95.0513 323.04 95.406V94.286H324.65V102H323.04V100.852C322.769 101.216 322.401 101.519 321.934 101.762C321.467 102.005 320.935 102.126 320.338 102.126C319.675 102.126 319.069 101.958 318.518 101.622C317.967 101.277 317.529 100.801 317.202 100.194C316.885 99.578 316.726 98.8827 316.726 98.108ZM323.04 98.136C323.04 97.604 322.928 97.142 322.704 96.75C322.489 96.358 322.205 96.0593 321.85 95.854C321.495 95.6487 321.113 95.546 320.702 95.546C320.291 95.546 319.909 95.6487 319.554 95.854C319.199 96.05 318.91 96.344 318.686 96.736C318.471 97.1187 318.364 97.576 318.364 98.108C318.364 98.64 318.471 99.1067 318.686 99.508C318.91 99.9093 319.199 100.217 319.554 100.432C319.918 100.637 320.301 100.74 320.702 100.74C321.113 100.74 321.495 100.637 321.85 100.432C322.205 100.227 322.489 99.928 322.704 99.536C322.928 99.1347 323.04 98.668 323.04 98.136ZM328.342 95.406C328.576 95.014 328.884 94.7107 329.266 94.496C329.658 94.272 330.12 94.16 330.652 94.16V95.812H330.246C329.621 95.812 329.145 95.9707 328.818 96.288C328.501 96.6053 328.342 97.156 328.342 97.94V102H326.746V94.286H328.342V95.406ZM333.715 91.64V102H332.119V91.64H333.715ZM342.755 94.286L338.023 105.626H336.371L337.939 101.874L334.901 94.286H336.679L338.849 100.166L341.103 94.286H342.755Z" fill="#73798B"/>
<path d="M780 76.5C776.41 76.5 773.5 79.4101 773.5 83V111C773.5 114.59 776.41 117.5 780 117.5H849C852.59 117.5 855.5 114.59 855.5 111V83C855.5 79.4101 852.59 76.5 849 76.5H780Z" fill="white" stroke="#EDEEF3"/>
<path d="M792.632 92.27V98.472C792.632 99.2093 792.823 99.7647 793.206 100.138C793.598 100.511 794.139 100.698 794.83 100.698C795.53 100.698 796.071 100.511 796.454 100.138C796.846 99.7647 797.042 99.2093 797.042 98.472V92.27H798.638V98.444C798.638 99.2373 798.465 99.9093 798.12 100.46C797.775 101.011 797.313 101.421 796.734 101.692C796.155 101.963 795.516 102.098 794.816 102.098C794.116 102.098 793.477 101.963 792.898 101.692C792.329 101.421 791.876 101.011 791.54 100.46C791.204 99.9093 791.036 99.2373 791.036 98.444V92.27H792.632ZM803.922 102.098C803.269 102.098 802.681 101.986 802.158 101.762C801.635 101.529 801.225 101.202 800.926 100.782C800.627 100.362 800.478 99.872 800.478 99.312H802.186C802.223 99.732 802.387 100.077 802.676 100.348C802.975 100.619 803.39 100.754 803.922 100.754C804.473 100.754 804.902 100.623 805.21 100.362C805.518 100.091 805.672 99.746 805.672 99.326C805.672 98.9993 805.574 98.7333 805.378 98.528C805.191 98.3227 804.953 98.164 804.664 98.052C804.384 97.94 803.992 97.8187 803.488 97.688C802.853 97.52 802.335 97.352 801.934 97.184C801.542 97.0067 801.206 96.736 800.926 96.372C800.646 96.008 800.506 95.5227 800.506 94.916C800.506 94.356 800.646 93.866 800.926 93.446C801.206 93.026 801.598 92.704 802.102 92.48C802.606 92.256 803.189 92.144 803.852 92.144C804.795 92.144 805.565 92.382 806.162 92.858C806.769 93.3247 807.105 93.9687 807.17 94.79H805.406C805.378 94.4353 805.21 94.132 804.902 93.88C804.594 93.628 804.188 93.502 803.684 93.502C803.227 93.502 802.853 93.6187 802.564 93.852C802.275 94.0853 802.13 94.4213 802.13 94.86C802.13 95.1587 802.219 95.406 802.396 95.602C802.583 95.7887 802.816 95.938 803.096 96.05C803.376 96.162 803.759 96.2833 804.244 96.414C804.888 96.5913 805.411 96.7687 805.812 96.946C806.223 97.1233 806.568 97.3987 806.848 97.772C807.137 98.136 807.282 98.626 807.282 99.242C807.282 99.7367 807.147 100.203 806.876 100.642C806.615 101.081 806.227 101.435 805.714 101.706C805.21 101.967 804.613 102.098 803.922 102.098ZM812.343 92.27C813.379 92.27 814.285 92.4707 815.059 92.872C815.843 93.264 816.445 93.8333 816.865 94.58C817.295 95.3173 817.509 96.1807 817.509 97.17C817.509 98.1593 817.295 99.018 816.865 99.746C816.445 100.474 815.843 101.034 815.059 101.426C814.285 101.809 813.379 102 812.343 102H809.165V92.27H812.343ZM812.343 100.698C813.482 100.698 814.355 100.39 814.961 99.774C815.568 99.158 815.871 98.29 815.871 97.17C815.871 96.0407 815.568 95.1587 814.961 94.524C814.355 93.8893 813.482 93.572 812.343 93.572H810.761V100.698H812.343Z" fill="#1C1C1C"/>
<rect x="827" y="91" width="12" height="12" fill="#D8D8D8" fill-opacity="0.01"/>
<path d="M828.5 95L833 99.5L837.5 95" stroke="#73798B" stroke-width="2" stroke-linecap="round" stroke-linejoin="round"/>
<path d="M32.5 409H31.408L27.016 402.34V409H25.924V400.624H27.016L31.408 407.272V400.624H32.5V409ZM37.2295 409.108C36.6135 409.108 36.0535 408.968 35.5495 408.688C35.0535 408.408 34.6615 408.012 34.3735 407.5C34.0935 406.98 33.9535 406.38 33.9535 405.7C33.9535 405.028 34.0975 404.436 34.3855 403.924C34.6815 403.404 35.0815 403.008 35.5855 402.736C36.0895 402.456 36.6535 402.316 37.2775 402.316C37.9015 402.316 38.4655 402.456 38.9695 402.736C39.4735 403.008 39.8695 403.4 40.1575 403.912C40.4535 404.424 40.6015 405.02 40.6015 405.7C40.6015 406.38 40.4495 406.98 40.1455 407.5C39.8495 408.012 39.4455 408.408 38.9335 408.688C38.4215 408.968 37.8535 409.108 37.2295 409.108ZM37.2295 408.148C37.6215 408.148 37.9895 408.056 38.3335 407.872C38.6775 407.688 38.9535 407.412 39.1615 407.044C39.3775 406.676 39.4855 406.228 39.4855 405.7C39.4855 405.172 39.3815 404.724 39.1735 404.356C38.9655 403.988 38.6935 403.716 38.3575 403.54C38.0215 403.356 37.6575 403.264 37.2655 403.264C36.8655 403.264 36.4975 403.356 36.1615 403.54C35.8335 403.716 35.5695 403.988 35.3695 404.356C35.1695 404.724 35.0695 405.172 35.0695 405.7C35.0695 406.236 35.1655 406.688 35.3575 407.056C35.5575 407.424 35.8215 407.7 36.1495 407.884C36.4775 408.06 36.8375 408.148 37.2295 408.148ZM43.3693 403.324V407.2C43.3693 407.52 43.4373 407.748 43.5733 407.884C43.7093 408.012 43.9453 408.076 44.2813 408.076H45.0853V409H44.1013C43.4933 409 43.0373 408.86 42.7333 408.58C42.4293 408.3 42.2773 407.84 42.2773 407.2V403.324H41.4253V402.424H42.2773V400.768H43.3693V402.424H45.0853V403.324H43.3693ZM52.4084 405.46C52.4084 405.668 52.3964 405.888 52.3724 406.12H47.1164C47.1564 406.768 47.3764 407.276 47.7764 407.644C48.1844 408.004 48.6764 408.184 49.2524 408.184C49.7244 408.184 50.1164 408.076 50.4284 407.86C50.7484 407.636 50.9724 407.34 51.1004 406.972H52.2764C52.1004 407.604 51.7484 408.12 51.2204 408.52C50.6924 408.912 50.0364 409.108 49.2524 409.108C48.6284 409.108 48.0684 408.968 47.5724 408.688C47.0844 408.408 46.7004 408.012 46.4204 407.5C46.1404 406.98 46.0004 406.38 46.0004 405.7C46.0004 405.02 46.1364 404.424 46.4084 403.912C46.6804 403.4 47.0604 403.008 47.5484 402.736C48.0444 402.456 48.6124 402.316 49.2524 402.316C49.8764 402.316 50.4284 402.452 50.9084 402.724C51.3884 402.996 51.7564 403.372 52.0124 403.852C52.2764 404.324 52.4084 404.86 52.4084 405.46ZM51.2804 405.232C51.2804 404.816 51.1884 404.46 51.0044 404.164C50.8204 403.86 50.5684 403.632 50.2484 403.48C49.9364 403.32 49.5884 403.24 49.2044 403.24C48.6524 403.24 48.1804 403.416 47.7884 403.768C47.4044 404.12 47.1844 404.608 47.1284 405.232H51.2804ZM54.1978 409.072C53.9898 409.072 53.8138 409 53.6698 408.856C53.5258 408.712 53.4538 408.536 53.4538 408.328C53.4538 408.12 53.5258 407.944 53.6698 407.8C53.8138 407.656 53.9898 407.584 54.1978 407.584C54.3978 407.584 54.5658 407.656 54.7018 407.8C54.8458 407.944 54.9178 408.12 54.9178 408.328C54.9178 408.536 54.8458 408.712 54.7018 408.856C54.5658 409 54.3978 409.072 54.1978 409.072ZM54.1978 403.936C53.9898 403.936 53.8138 403.864 53.6698 403.72C53.5258 403.576 53.4538 403.4 53.4538 403.192C53.4538 402.984 53.5258 402.808 53.6698 402.664C53.8138 402.52 53.9898 402.448 54.1978 402.448C54.3978 402.448 54.5658 402.52 54.7018 402.664C54.8458 402.808 54.9178 402.984 54.9178 403.192C54.9178 403.4 54.8458 403.576 54.7018 403.72C54.5658 403.864 54.3978 403.936 54.1978 403.936ZM64.5477 407.14H60.8997L60.2277 409H59.0757L62.0997 400.684H63.3597L66.3717 409H65.2197L64.5477 407.14ZM64.2357 406.252L62.7237 402.028L61.2117 406.252H64.2357ZM70.0176 409.108C69.5136 409.108 69.0616 409.024 68.6616 408.856C68.2616 408.68 67.9456 408.44 67.7136 408.136C67.4816 407.824 67.3536 407.468 67.3296 407.068H68.4576C68.4896 407.396 68.6416 407.664 68.9136 407.872C69.1936 408.08 69.5576 408.184 70.0056 408.184C70.4216 408.184 70.7496 408.092 70.9896 407.908C71.2296 407.724 71.3496 407.492 71.3496 407.212C71.3496 406.924 71.2216 406.712 70.9656 406.576C70.7096 406.432 70.3136 406.292 69.7776 406.156C69.2896 406.028 68.8896 405.9 68.5776 405.772C68.2736 405.636 68.0096 405.44 67.7856 405.184C67.5696 404.92 67.4616 404.576 67.4616 404.152C67.4616 403.816 67.5616 403.508 67.7616 403.228C67.9616 402.948 68.2456 402.728 68.6136 402.568C68.9816 402.4 69.4016 402.316 69.8736 402.316C70.6016 402.316 71.1896 402.5 71.6376 402.868C72.0856 403.236 72.3256 403.74 72.3576 404.38H71.2656C71.2416 404.036 71.1016 403.76 70.8456 403.552C70.5976 403.344 70.2616 403.24 69.8376 403.24C69.4456 403.24 69.1336 403.324 68.9016 403.492C68.6696 403.66 68.5536 403.88 68.5536 404.152C68.5536 404.368 68.6216 404.548 68.7576 404.692C68.9016 404.828 69.0776 404.94 69.2856 405.028C69.5016 405.108 69.7976 405.2 70.1736 405.304C70.6456 405.432 71.0296 405.56 71.3256 405.688C71.6216 405.808 71.8736 405.992 72.0816 406.24C72.2976 406.488 72.4096 406.812 72.4176 407.212C72.4176 407.572 72.3176 407.896 72.1176 408.184C71.9176 408.472 71.6336 408.7 71.2656 408.868C70.9056 409.028 70.4896 409.108 70.0176 409.108ZM76.2872 409.108C75.7832 409.108 75.3312 409.024 74.9312 408.856C74.5312 408.68 74.2152 408.44 73.9832 408.136C73.7512 407.824 73.6232 407.468 73.5992 407.068H74.7272C74.7592 407.396 74.9112 407.664 75.1832 407.872C75.4632 408.08 75.8272 408.184 76.2752 408.184C76.6912 408.184 77.0192 408.092 77.2592 407.908C77.4992 407.724 77.6192 407.492 77.6192 407.212C77.6192 406.924 77.4912 406.712 77.2352 406.576C76.9792 406.432 76.5832 406.292 76.0472 406.156C75.5592 406.028 75.1592 405.9 74.8472 405.772C74.5432 405.636 74.2792 405.44 74.0552 405.184C73.8392 404.92 73.7312 404.576 73.7312 404.152C73.7312 403.816 73.8312 403.508 74.0312 403.228C74.2312 402.948 74.5152 402.728 74.8832 402.568C75.2512 402.4 75.6712 402.316 76.1432 402.316C76.8712 402.316 77.4592 402.5 77.9072 402.868C78.3552 403.236 78.5952 403.74 78.6272 404.38H77.5352C77.5112 404.036 77.3712 403.76 77.1152 403.552C76.8672 403.344 76.5312 403.24 76.1072 403.24C75.7152 403.24 75.4032 403.324 75.1712 403.492C74.9392 403.66 74.8232 403.88 74.8232 404.152C74.8232 404.368 74.8912 404.548 75.0272 404.692C75.1712 404.828 75.3472 404.94 75.5552 405.028C75.7712 405.108 76.0672 405.2 76.4432 405.304C76.9152 405.432 77.2992 405.56 77.5952 405.688C77.8912 405.808 78.1432 405.992 78.3512 406.24C78.5672 406.488 78.6792 406.812 78.6872 407.212C78.6872 407.572 78.5872 407.896 78.3872 408.184C78.1872 408.472 77.9032 408.7 77.5352 408.868C77.1752 409.028 76.7592 409.108 76.2872 409.108ZM86.2287 405.46C86.2287 405.668 86.2167 405.888 86.1927 406.12H80.9367C80.9767 406.768 81.1967 407.276 81.5967 407.644C82.0047 408.004 82.4967 408.184 83.0727 408.184C83.5447 408.184 83.9367 408.076 84.2487 407.86C84.5687 407.636 84.7927 407.34 84.9207 406.972H86.0967C85.9207 407.604 85.5687 408.12 85.0407 408.52C84.5127 408.912 83.8567 409.108 83.0727 409.108C82.4487 409.108 81.8887 408.968 81.3927 408.688C80.9047 408.408 80.5207 408.012 80.2407 407.5C79.9607 406.98 79.8207 406.38 79.8207 405.7C79.8207 405.02 79.9567 404.424 80.2287 403.912C80.5007 403.4 80.8807 403.008 81.3687 402.736C81.8647 402.456 82.4327 402.316 83.0727 402.316C83.6967 402.316 84.2487 402.452 84.7287 402.724C85.2087 402.996 85.5767 403.372 85.8327 403.852C86.0967 404.324 86.2287 404.86 86.2287 405.46ZM85.1007 405.232C85.1007 404.816 85.0087 404.46 84.8247 404.164C84.6407 403.86 84.3887 403.632 84.0687 403.48C83.7567 403.32 83.4087 403.24 83.0247 403.24C82.4727 403.24 82.0007 403.416 81.6087 403.768C81.2247 404.12 81.0047 404.608 80.9487 405.232H85.1007ZM89.0021 403.324V407.2C89.0021 407.52 89.0701 407.748 89.2061 407.884C89.3421 408.012 89.5781 408.076 89.9141 408.076H90.7181V409H89.7341C89.1261 409 88.6701 408.86 88.3661 408.58C88.0621 408.3 87.9101 407.84 87.9101 407.2V403.324H87.0581V402.424H87.9101V400.768H89.0021V402.424H90.7181V403.324H89.0021ZM97.6884 407.992L99.7284 402.424H100.892L98.3124 409H97.0404L94.4604 402.424H95.6364L97.6884 407.992ZM101.559 405.688C101.559 405.016 101.695 404.428 101.967 403.924C102.239 403.412 102.611 403.016 103.083 402.736C103.563 402.456 104.095 402.316 104.679 402.316C105.255 402.316 105.755 402.44 106.179 402.688C106.603 402.936 106.919 403.248 107.127 403.624V402.424H108.231V409H107.127V407.776C106.911 408.16 106.587 408.48 106.155 408.736C105.731 408.984 105.235 409.108 104.667 409.108C104.083 409.108 103.555 408.964 103.083 408.676C102.611 408.388 102.239 407.984 101.967 407.464C101.695 406.944 101.559 406.352 101.559 405.688ZM107.127 405.7C107.127 405.204 107.027 404.772 106.827 404.404C106.627 404.036 106.355 403.756 106.011 403.564C105.675 403.364 105.303 403.264 104.895 403.264C104.487 403.264 104.115 403.36 103.779 403.552C103.443 403.744 103.175 404.024 102.975 404.392C102.775 404.76 102.675 405.192 102.675 405.688C102.675 406.192 102.775 406.632 102.975 407.008C103.175 407.376 103.443 407.66 103.779 407.86C104.115 408.052 104.487 408.148 104.895 408.148C105.303 408.148 105.675 408.052 106.011 407.86C106.355 407.66 106.627 407.376 106.827 407.008C107.027 406.632 107.127 406.196 107.127 405.7ZM111.168 400.12V409H110.076V400.12H111.168ZM118.861 402.424V409H117.769V408.028C117.561 408.364 117.269 408.628 116.893 408.82C116.525 409.004 116.117 409.096 115.669 409.096C115.157 409.096 114.697 408.992 114.289 408.784C113.881 408.568 113.557 408.248 113.317 407.824C113.085 407.4 112.969 406.884 112.969 406.276V402.424H114.049V406.132C114.049 406.78 114.213 407.28 114.541 407.632C114.869 407.976 115.317 408.148 115.885 408.148C116.469 408.148 116.929 407.968 117.265 407.608C117.601 407.248 117.769 406.724 117.769 406.036V402.424H118.861ZM126.705 405.46C126.705 405.668 126.693 405.888 126.669 406.12H121.413C121.453 406.768 121.673 407.276 122.073 407.644C122.481 408.004 122.973 408.184 123.549 408.184C124.021 408.184 124.413 408.076 124.725 407.86C125.045 407.636 125.269 407.34 125.397 406.972H126.573C126.397 407.604 126.045 408.12 125.517 408.52C124.989 408.912 124.333 409.108 123.549 409.108C122.925 409.108 122.365 408.968 121.869 408.688C121.381 408.408 120.997 408.012 120.717 407.5C120.437 406.98 120.297 406.38 120.297 405.7C120.297 405.02 120.433 404.424 120.705 403.912C120.977 403.4 121.357 403.008 121.845 402.736C122.341 402.456 122.909 402.316 123.549 402.316C124.173 402.316 124.725 402.452 125.205 402.724C125.685 402.996 126.053 403.372 126.309 403.852C126.573 404.324 126.705 404.86 126.705 405.46ZM125.577 405.232C125.577 404.816 125.485 404.46 125.301 404.164C125.117 403.86 124.865 403.632 124.545 403.48C124.233 403.32 123.885 403.24 123.501 403.24C122.949 403.24 122.477 403.416 122.085 403.768C121.701 404.12 121.481 404.608 121.425 405.232H125.577ZM131.91 401.356C131.702 401.356 131.526 401.284 131.382 401.14C131.238 400.996 131.166 400.82 131.166 400.612C131.166 400.404 131.238 400.228 131.382 400.084C131.526 399.94 131.702 399.868 131.91 399.868C132.11 399.868 132.278 399.94 132.414 400.084C132.558 400.228 132.63 400.404 132.63 400.612C132.63 400.82 132.558 400.996 132.414 401.14C132.278 401.284 132.11 401.356 131.91 401.356ZM132.438 402.424V409H131.346V402.424H132.438ZM136.627 409.108C136.123 409.108 135.671 409.024 135.271 408.856C134.871 408.68 134.555 408.44 134.323 408.136C134.091 407.824 133.963 407.468 133.939 407.068H135.067C135.099 407.396 135.251 407.664 135.523 407.872C135.803 408.08 136.167 408.184 136.615 408.184C137.031 408.184 137.359 408.092 137.599 407.908C137.839 407.724 137.959 407.492 137.959 407.212C137.959 406.924 137.831 406.712 137.575 406.576C137.319 406.432 136.923 406.292 136.387 406.156C135.899 406.028 135.499 405.9 135.187 405.772C134.883 405.636 134.619 405.44 134.395 405.184C134.179 404.92 134.071 404.576 134.071 404.152C134.071 403.816 134.171 403.508 134.371 403.228C134.571 402.948 134.855 402.728 135.223 402.568C135.591 402.4 136.011 402.316 136.483 402.316C137.211 402.316 137.799 402.5 138.247 402.868C138.695 403.236 138.935 403.74 138.967 404.38H137.875C137.851 404.036 137.711 403.76 137.455 403.552C137.207 403.344 136.871 403.24 136.447 403.24C136.055 403.24 135.743 403.324 135.511 403.492C135.279 403.66 135.163 403.88 135.163 404.152C135.163 404.368 135.231 404.548 135.367 404.692C135.511 404.828 135.687 404.94 135.895 405.028C136.111 405.108 136.407 405.2 136.783 405.304C137.255 405.432 137.639 405.56 137.935 405.688C138.231 405.808 138.483 405.992 138.691 406.24C138.907 406.488 139.019 406.812 139.027 407.212C139.027 407.572 138.927 407.896 138.727 408.184C138.527 408.472 138.243 408.7 137.875 408.868C137.515 409.028 137.099 409.108 136.627 409.108ZM143.36 405.7C143.36 405.02 143.496 404.428 143.768 403.924C144.04 403.412 144.416 403.016 144.896 402.736C145.384 402.456 145.94 402.316 146.564 402.316C147.372 402.316 148.036 402.512 148.556 402.904C149.084 403.296 149.432 403.84 149.6 404.536H148.424C148.312 404.136 148.092 403.82 147.764 403.588C147.444 403.356 147.044 403.24 146.564 403.24C145.94 403.24 145.436 403.456 145.052 403.888C144.668 404.312 144.476 404.916 144.476 405.7C144.476 406.492 144.668 407.104 145.052 407.536C145.436 407.968 145.94 408.184 146.564 408.184C147.044 408.184 147.444 408.072 147.764 407.848C148.084 407.624 148.304 407.304 148.424 406.888H149.6C149.424 407.56 149.072 408.1 148.544 408.508C148.016 408.908 147.356 409.108 146.564 409.108C145.94 409.108 145.384 408.968 144.896 408.688C144.416 408.408 144.04 408.012 143.768 407.5C143.496 406.988 143.36 406.388 143.36 405.7ZM150.649 405.688C150.649 405.016 150.785 404.428 151.057 403.924C151.329 403.412 151.701 403.016 152.173 402.736C152.653 402.456 153.185 402.316 153.769 402.316C154.345 402.316 154.845 402.44 155.269 402.688C155.693 402.936 156.009 403.248 156.217 403.624V402.424H157.321V409H156.217V407.776C156.001 408.16 155.677 408.48 155.245 408.736C154.821 408.984 154.325 409.108 153.757 409.108C153.173 409.108 152.645 408.964 152.173 408.676C151.701 408.388 151.329 407.984 151.057 407.464C150.785 406.944 150.649 406.352 150.649 405.688ZM156.217 405.7C156.217 405.204 156.117 404.772 155.917 404.404C155.717 404.036 155.445 403.756 155.101 403.564C154.765 403.364 154.393 403.264 153.985 403.264C153.577 403.264 153.205 403.36 152.869 403.552C152.533 403.744 152.265 404.024 152.065 404.392C151.865 404.76 151.765 405.192 151.765 405.688C151.765 406.192 151.865 406.632 152.065 407.008C152.265 407.376 152.533 407.66 152.869 407.86C153.205 408.052 153.577 408.148 153.985 408.148C154.393 408.148 154.765 408.052 155.101 407.86C155.445 407.66 155.717 407.376 155.917 407.008C156.117 406.632 156.217 406.196 156.217 405.7ZM160.258 403.636C160.474 403.26 160.794 402.948 161.218 402.7C161.65 402.444 162.15 402.316 162.718 402.316C163.302 402.316 163.83 402.456 164.302 402.736C164.782 403.016 165.158 403.412 165.43 403.924C165.702 404.428 165.838 405.016 165.838 405.688C165.838 406.352 165.702 406.944 165.43 407.464C165.158 407.984 164.782 408.388 164.302 408.676C163.83 408.964 163.302 409.108 162.718 409.108C162.158 409.108 161.662 408.984 161.23 408.736C160.806 408.48 160.482 408.164 160.258 407.788V412.12H159.166V402.424H160.258V403.636ZM164.722 405.688C164.722 405.192 164.622 404.76 164.422 404.392C164.222 404.024 163.95 403.744 163.606 403.552C163.27 403.36 162.898 403.264 162.49 403.264C162.09 403.264 161.718 403.364 161.374 403.564C161.038 403.756 160.766 404.04 160.558 404.416C160.358 404.784 160.258 405.212 160.258 405.7C160.258 406.196 160.358 406.632 160.558 407.008C160.766 407.376 161.038 407.66 161.374 407.86C161.718 408.052 162.09 408.148 162.49 408.148C162.898 408.148 163.27 408.052 163.606 407.86C163.95 407.66 164.222 407.376 164.422 407.008C164.622 406.632 164.722 406.192 164.722 405.688ZM168.608 403.324V407.2C168.608 407.52 168.676 407.748 168.812 407.884C168.948 408.012 169.184 408.076 169.52 408.076H170.324V409H169.34C168.732 409 168.276 408.86 167.972 408.58C167.668 408.3 167.516 407.84 167.516 407.2V403.324H166.664V402.424H167.516V400.768H168.608V402.424H170.324V403.324H168.608ZM177.479 402.424V409H176.387V408.028C176.179 408.364 175.887 408.628 175.511 408.82C175.143 409.004 174.735 409.096 174.287 409.096C173.775 409.096 173.315 408.992 172.907 408.784C172.499 408.568 172.175 408.248 171.935 407.824C171.703 407.4 171.587 406.884 171.587 406.276V402.424H172.667V406.132C172.667 406.78 172.831 407.28 173.159 407.632C173.487 407.976 173.935 408.148 174.503 408.148C175.087 408.148 175.547 407.968 175.883 407.608C176.219 407.248 176.387 406.724 176.387 406.036V402.424H177.479ZM180.414 403.492C180.606 403.116 180.878 402.824 181.23 402.616C181.59 402.408 182.026 402.304 182.538 402.304V403.432H182.25C181.026 403.432 180.414 404.096 180.414 405.424V409H179.322V402.424H180.414V403.492ZM189.799 405.46C189.799 405.668 189.787 405.888 189.763 406.12H184.507C184.547 406.768 184.767 407.276 185.167 407.644C185.575 408.004 186.067 408.184 186.643 408.184C187.115 408.184 187.507 408.076 187.819 407.86C188.139 407.636 188.363 407.34 188.491 406.972H189.667C189.491 407.604 189.139 408.12 188.611 408.52C188.083 408.912 187.427 409.108 186.643 409.108C186.019 409.108 185.459 408.968 184.963 408.688C184.475 408.408 184.091 408.012 183.811 407.5C183.531 406.98 183.391 406.38 183.391 405.7C183.391 405.02 183.527 404.424 183.799 403.912C184.071 403.4 184.451 403.008 184.939 402.736C185.435 402.456 186.003 402.316 186.643 402.316C187.267 402.316 187.819 402.452 188.299 402.724C188.779 402.996 189.147 403.372 189.403 403.852C189.667 404.324 189.799 404.86 189.799 405.46ZM188.671 405.232C188.671 404.816 188.579 404.46 188.395 404.164C188.211 403.86 187.959 403.632 187.639 403.48C187.327 403.32 186.979 403.24 186.595 403.24C186.043 403.24 185.571 403.416 185.179 403.768C184.795 404.12 184.575 404.608 184.519 405.232H188.671ZM190.832 405.688C190.832 405.016 190.968 404.428 191.24 403.924C191.512 403.412 191.884 403.016 192.356 402.736C192.836 402.456 193.372 402.316 193.964 402.316C194.476 402.316 194.952 402.436 195.392 402.676C195.832 402.908 196.168 403.216 196.4 403.6V400.12H197.504V409H196.4V407.764C196.184 408.156 195.864 408.48 195.44 408.736C195.016 408.984 194.52 409.108 193.952 409.108C193.368 409.108 192.836 408.964 192.356 408.676C191.884 408.388 191.512 407.984 191.24 407.464C190.968 406.944 190.832 406.352 190.832 405.688ZM196.4 405.7C196.4 405.204 196.3 404.772 196.1 404.404C195.9 404.036 195.628 403.756 195.284 403.564C194.948 403.364 194.576 403.264 194.168 403.264C193.76 403.264 193.388 403.36 193.052 403.552C192.716 403.744 192.448 404.024 192.248 404.392C192.048 404.76 191.948 405.192 191.948 405.688C191.948 406.192 192.048 406.632 192.248 407.008C192.448 407.376 192.716 407.66 193.052 407.86C193.388 408.052 193.76 408.148 194.168 408.148C194.576 408.148 194.948 408.052 195.284 407.86C195.628 407.66 195.9 407.376 196.1 407.008C196.3 406.632 196.4 406.196 196.4 405.7ZM202.141 405.688C202.141 405.016 202.277 404.428 202.549 403.924C202.821 403.412 203.193 403.016 203.665 402.736C204.145 402.456 204.681 402.316 205.273 402.316C205.785 402.316 206.261 402.436 206.701 402.676C207.141 402.908 207.477 403.216 207.709 403.6V400.12H208.813V409H207.709V407.764C207.493 408.156 207.173 408.48 206.749 408.736C206.325 408.984 205.829 409.108 205.261 409.108C204.677 409.108 204.145 408.964 203.665 408.676C203.193 408.388 202.821 407.984 202.549 407.464C202.277 406.944 202.141 406.352 202.141 405.688ZM207.709 405.7C207.709 405.204 207.609 404.772 207.409 404.404C207.209 404.036 206.937 403.756 206.593 403.564C206.257 403.364 205.885 403.264 205.477 403.264C205.069 403.264 204.697 403.36 204.361 403.552C204.025 403.744 203.757 404.024 203.557 404.392C203.357 404.76 203.257 405.192 203.257 405.688C203.257 406.192 203.357 406.632 203.557 407.008C203.757 407.376 204.025 407.66 204.361 407.86C204.697 408.052 205.069 408.148 205.477 408.148C205.885 408.148 206.257 408.052 206.593 407.86C206.937 407.66 207.209 407.376 207.409 407.008C207.609 406.632 207.709 406.196 207.709 405.7ZM210.25 405.688C210.25 405.016 210.386 404.428 210.658 403.924C210.93 403.412 211.302 403.016 211.774 402.736C212.254 402.456 212.786 402.316 213.37 402.316C213.946 402.316 214.446 402.44 214.87 402.688C215.294 402.936 215.61 403.248 215.818 403.624V402.424H216.922V409H215.818V407.776C215.602 408.16 215.278 408.48 214.846 408.736C214.422 408.984 213.926 409.108 213.358 409.108C212.774 409.108 212.246 408.964 211.774 408.676C211.302 408.388 210.93 407.984 210.658 407.464C210.386 406.944 210.25 406.352 210.25 405.688ZM215.818 405.7C215.818 405.204 215.718 404.772 215.518 404.404C215.318 404.036 215.046 403.756 214.702 403.564C214.366 403.364 213.994 403.264 213.586 403.264C213.178 403.264 212.806 403.36 212.47 403.552C212.134 403.744 211.866 404.024 211.666 404.392C211.466 404.76 211.366 405.192 211.366 405.688C211.366 406.192 211.466 406.632 211.666 407.008C211.866 407.376 212.134 407.66 212.47 407.86C212.806 408.052 213.178 408.148 213.586 408.148C213.994 408.148 214.366 408.052 214.702 407.86C215.046 407.66 215.318 407.376 215.518 407.008C215.718 406.632 215.818 406.196 215.818 405.7ZM219.332 401.356C219.124 401.356 218.948 401.284 218.804 401.14C218.66 400.996 218.588 400.82 218.588 400.612C218.588 400.404 218.66 400.228 218.804 400.084C218.948 399.94 219.124 399.868 219.332 399.868C219.532 399.868 219.7 399.94 219.836 400.084C219.98 400.228 220.052 400.404 220.052 400.612C220.052 400.82 219.98 400.996 219.836 401.14C219.7 401.284 219.532 401.356 219.332 401.356ZM219.86 402.424V409H218.768V402.424H219.86ZM222.813 400.12V409H221.721V400.12H222.813ZM230.338 402.424L226.378 412.096H225.25L226.546 408.928L223.894 402.424H225.106L227.17 407.752L229.21 402.424H230.338ZM234.227 405.688C234.227 405.016 234.363 404.428 234.635 403.924C234.907 403.412 235.279 403.016 235.751 402.736C236.231 402.456 236.763 402.316 237.347 402.316C237.923 402.316 238.423 402.44 238.847 402.688C239.271 402.936 239.587 403.248 239.795 403.624V402.424H240.899V409H239.795V407.776C239.579 408.16 239.255 408.48 238.823 408.736C238.399 408.984 237.903 409.108 237.335 409.108C236.751 409.108 236.223 408.964 235.751 408.676C235.279 408.388 234.907 407.984 234.635 407.464C234.363 406.944 234.227 406.352 234.227 405.688ZM239.795 405.7C239.795 405.204 239.695 404.772 239.495 404.404C239.295 404.036 239.023 403.756 238.679 403.564C238.343 403.364 237.971 403.264 237.563 403.264C237.155 403.264 236.783 403.36 236.447 403.552C236.111 403.744 235.843 404.024 235.643 404.392C235.443 404.76 235.343 405.192 235.343 405.688C235.343 406.192 235.443 406.632 235.643 407.008C235.843 407.376 236.111 407.66 236.447 407.86C236.783 408.052 237.155 408.148 237.563 408.148C237.971 408.148 238.343 408.052 238.679 407.86C239.023 407.66 239.295 407.376 239.495 407.008C239.695 406.632 239.795 406.196 239.795 405.7ZM244.076 403.324V407.2C244.076 407.52 244.144 407.748 244.28 407.884C244.416 408.012 244.652 408.076 244.988 408.076H245.792V409H244.808C244.2 409 243.744 408.86 243.44 408.58C243.136 408.3 242.984 407.84 242.984 407.2V403.324H242.132V402.424H242.984V400.768H244.076V402.424H245.792V403.324H244.076ZM250.003 408.124C251.019 407.308 251.815 406.64 252.391 406.12C252.967 405.592 253.451 405.044 253.843 404.476C254.243 403.9 254.443 403.336 254.443 402.784C254.443 402.264 254.315 401.856 254.059 401.56C253.811 401.256 253.407 401.104 252.847 401.104C252.303 401.104 251.879 401.276 251.575 401.62C251.279 401.956 251.119 402.408 251.095 402.976H250.039C250.071 402.08 250.343 401.388 250.855 400.9C251.367 400.412 252.027 400.168 252.835 400.168C253.659 400.168 254.311 400.396 254.791 400.852C255.279 401.308 255.523 401.936 255.523 402.736C255.523 403.4 255.323 404.048 254.923 404.68C254.531 405.304 254.083 405.856 253.579 406.336C253.075 406.808 252.431 407.36 251.647 407.992H255.775V408.904H250.003V408.124ZM257.013 402.508C257.069 401.772 257.353 401.196 257.865 400.78C258.377 400.364 259.041 400.156 259.857 400.156C260.401 400.156 260.869 400.256 261.261 400.456C261.661 400.648 261.961 400.912 262.161 401.248C262.369 401.584 262.473 401.964 262.473 402.388C262.473 402.884 262.329 403.312 262.041 403.672C261.761 404.032 261.393 404.264 260.937 404.368V404.428C261.457 404.556 261.869 404.808 262.173 405.184C262.477 405.56 262.629 406.052 262.629 406.66C262.629 407.116 262.525 407.528 262.317 407.896C262.109 408.256 261.797 408.54 261.381 408.748C260.965 408.956 260.465 409.06 259.881 409.06C259.033 409.06 258.337 408.84 257.793 408.4C257.249 407.952 256.945 407.32 256.881 406.504H257.937C257.993 406.984 258.189 407.376 258.525 407.68C258.861 407.984 259.309 408.136 259.869 408.136C260.429 408.136 260.853 407.992 261.141 407.704C261.437 407.408 261.585 407.028 261.585 406.564C261.585 405.964 261.385 405.532 260.985 405.268C260.585 405.004 259.981 404.872 259.173 404.872H258.897V403.96H259.185C259.921 403.952 260.477 403.832 260.853 403.6C261.229 403.36 261.417 402.992 261.417 402.496C261.417 402.072 261.277 401.732 260.997 401.476C260.725 401.22 260.333 401.092 259.821 401.092C259.325 401.092 258.925 401.22 258.621 401.476C258.317 401.732 258.137 402.076 258.081 402.508H257.013ZM264.631 409.072C264.423 409.072 264.247 409 264.103 408.856C263.959 408.712 263.887 408.536 263.887 408.328C263.887 408.12 263.959 407.944 264.103 407.8C264.247 407.656 264.423 407.584 264.631 407.584C264.831 407.584 264.999 407.656 265.135 407.8C265.279 407.944 265.351 408.12 265.351 408.328C265.351 408.536 265.279 408.712 265.135 408.856C264.999 409 264.831 409.072 264.631 409.072ZM264.631 403.936C264.423 403.936 264.247 403.864 264.103 403.72C263.959 403.576 263.887 403.4 263.887 403.192C263.887 402.984 263.959 402.808 264.103 402.664C264.247 402.52 264.423 402.448 264.631 402.448C264.831 402.448 264.999 402.52 265.135 402.664C265.279 402.808 265.351 402.984 265.351 403.192C265.351 403.4 265.279 403.576 265.135 403.72C264.999 403.864 264.831 403.936 264.631 403.936ZM272.19 401.272H267.978V404.008C268.162 403.752 268.434 403.544 268.794 403.384C269.154 403.216 269.542 403.132 269.958 403.132C270.622 403.132 271.162 403.272 271.578 403.552C271.994 403.824 272.29 404.18 272.466 404.62C272.65 405.052 272.742 405.512 272.742 406C272.742 406.576 272.634 407.092 272.418 407.548C272.202 408.004 271.87 408.364 271.422 408.628C270.982 408.892 270.434 409.024 269.778 409.024C268.938 409.024 268.258 408.808 267.738 408.376C267.218 407.944 266.902 407.368 266.79 406.648H267.858C267.962 407.104 268.182 407.46 268.518 407.716C268.854 407.972 269.278 408.1 269.79 408.1C270.422 408.1 270.898 407.912 271.218 407.536C271.538 407.152 271.698 406.648 271.698 406.024C271.698 405.4 271.538 404.92 271.218 404.584C270.898 404.24 270.426 404.068 269.802 404.068C269.378 404.068 269.006 404.172 268.686 404.38C268.374 404.58 268.146 404.856 268.002 405.208H266.97V400.312H272.19V401.272ZM275.597 406.672C275.677 407.128 275.861 407.48 276.149 407.728C276.445 407.976 276.841 408.1 277.337 408.1C278.001 408.1 278.489 407.84 278.801 407.32C279.121 406.8 279.273 405.924 279.257 404.692C279.089 405.052 278.809 405.336 278.417 405.544C278.025 405.744 277.589 405.844 277.109 405.844C276.573 405.844 276.093 405.736 275.669 405.52C275.253 405.296 274.925 404.972 274.685 404.548C274.445 404.124 274.325 403.612 274.325 403.012C274.325 402.156 274.573 401.468 275.069 400.948C275.565 400.42 276.269 400.156 277.181 400.156C278.301 400.156 279.085 400.52 279.533 401.248C279.989 401.976 280.217 403.06 280.217 404.5C280.217 405.508 280.125 406.34 279.941 406.996C279.765 407.652 279.461 408.152 279.029 408.496C278.605 408.84 278.021 409.012 277.277 409.012C276.461 409.012 275.825 408.792 275.369 408.352C274.913 407.912 274.653 407.352 274.589 406.672H275.597ZM277.289 404.92C277.825 404.92 278.265 404.756 278.609 404.428C278.953 404.092 279.125 403.64 279.125 403.072C279.125 402.472 278.957 401.988 278.621 401.62C278.285 401.252 277.813 401.068 277.205 401.068C276.645 401.068 276.197 401.244 275.861 401.596C275.533 401.948 275.369 402.412 275.369 402.988C275.369 403.572 275.533 404.04 275.861 404.392C276.189 404.744 276.665 404.92 277.289 404.92ZM282.28 409.072C282.072 409.072 281.896 409 281.752 408.856C281.608 408.712 281.536 408.536 281.536 408.328C281.536 408.12 281.608 407.944 281.752 407.8C281.896 407.656 282.072 407.584 282.28 407.584C282.48 407.584 282.648 407.656 282.784 407.8C282.928 407.944 283 408.12 283 408.328C283 408.536 282.928 408.712 282.784 408.856C282.648 409 282.48 409.072 282.28 409.072ZM282.28 403.936C282.072 403.936 281.896 403.864 281.752 403.72C281.608 403.576 281.536 403.4 281.536 403.192C281.536 402.984 281.608 402.808 281.752 402.664C281.896 402.52 282.072 402.448 282.28 402.448C282.48 402.448 282.648 402.52 282.784 402.664C282.928 402.808 283 402.984 283 403.192C283 403.4 282.928 403.576 282.784 403.72C282.648 403.864 282.48 403.936 282.28 403.936ZM289.839 401.272H285.627V404.008C285.811 403.752 286.083 403.544 286.443 403.384C286.803 403.216 287.191 403.132 287.607 403.132C288.271 403.132 288.811 403.272 289.227 403.552C289.643 403.824 289.939 404.18 290.115 404.62C290.299 405.052 290.391 405.512 290.391 406C290.391 406.576 290.283 407.092 290.067 407.548C289.851 408.004 289.519 408.364 289.071 408.628C288.631 408.892 288.083 409.024 287.427 409.024C286.587 409.024 285.907 408.808 285.387 408.376C284.867 407.944 284.551 407.368 284.439 406.648H285.507C285.611 407.104 285.831 407.46 286.167 407.716C286.503 407.972 286.927 408.1 287.439 408.1C288.071 408.1 288.547 407.912 288.867 407.536C289.187 407.152 289.347 406.648 289.347 406.024C289.347 405.4 289.187 404.92 288.867 404.584C288.547 404.24 288.075 404.068 287.451 404.068C287.027 404.068 286.655 404.172 286.335 404.38C286.023 404.58 285.795 404.856 285.651 405.208H284.619V400.312H289.839V401.272ZM293.246 406.672C293.326 407.128 293.51 407.48 293.798 407.728C294.094 407.976 294.49 408.1 294.986 408.1C295.65 408.1 296.138 407.84 296.45 407.32C296.77 406.8 296.922 405.924 296.906 404.692C296.738 405.052 296.458 405.336 296.066 405.544C295.674 405.744 295.238 405.844 294.758 405.844C294.222 405.844 293.742 405.736 293.318 405.52C292.902 405.296 292.574 404.972 292.334 404.548C292.094 404.124 291.974 403.612 291.974 403.012C291.974 402.156 292.222 401.468 292.718 400.948C293.214 400.42 293.918 400.156 294.83 400.156C295.95 400.156 296.734 400.52 297.182 401.248C297.638 401.976 297.866 403.06 297.866 404.5C297.866 405.508 297.774 406.34 297.59 406.996C297.414 407.652 297.11 408.152 296.678 408.496C296.254 408.84 295.67 409.012 294.926 409.012C294.11 409.012 293.474 408.792 293.018 408.352C292.562 407.912 292.302 407.352 292.238 406.672H293.246ZM294.938 404.92C295.474 404.92 295.914 404.756 296.258 404.428C296.602 404.092 296.774 403.64 296.774 403.072C296.774 402.472 296.606 401.988 296.27 401.62C295.934 401.252 295.462 401.068 294.854 401.068C294.294 401.068 293.846 401.244 293.51 401.596C293.182 401.948 293.018 402.412 293.018 402.988C293.018 403.572 293.182 404.04 293.51 404.392C293.838 404.744 294.314 404.92 294.938 404.92ZM303.847 400.636V405.928C303.847 406.672 304.027 407.224 304.387 407.584C304.755 407.944 305.263 408.124 305.911 408.124C306.551 408.124 307.051 407.944 307.411 407.584C307.779 407.224 307.963 406.672 307.963 405.928V400.636H309.055V405.916C309.055 406.612 308.915 407.2 308.635 407.68C308.355 408.152 307.975 408.504 307.495 408.736C307.023 408.968 306.491 409.084 305.899 409.084C305.307 409.084 304.771 408.968 304.291 408.736C303.819 408.504 303.443 408.152 303.163 407.68C302.891 407.2 302.755 406.612 302.755 405.916V400.636H303.847ZM316.025 400.636V401.524H313.745V409H312.653V401.524H310.361V400.636H316.025ZM316.961 404.812C316.961 403.996 317.145 403.264 317.513 402.616C317.881 401.96 318.381 401.448 319.013 401.08C319.653 400.712 320.361 400.528 321.137 400.528C322.049 400.528 322.845 400.748 323.525 401.188C324.205 401.628 324.701 402.252 325.013 403.06H323.705C323.473 402.556 323.137 402.168 322.697 401.896C322.265 401.624 321.745 401.488 321.137 401.488C320.553 401.488 320.029 401.624 319.565 401.896C319.101 402.168 318.737 402.556 318.473 403.06C318.209 403.556 318.077 404.14 318.077 404.812C318.077 405.476 318.209 406.06 318.473 406.564C318.737 407.06 319.101 407.444 319.565 407.716C320.029 407.988 320.553 408.124 321.137 408.124C321.745 408.124 322.265 407.992 322.697 407.728C323.137 407.456 323.473 407.068 323.705 406.564H325.013C324.701 407.364 324.205 407.984 323.525 408.424C322.845 408.856 322.049 409.072 321.137 409.072C320.361 409.072 319.653 408.892 319.013 408.532C318.381 408.164 317.881 407.656 317.513 407.008C317.145 406.36 316.961 405.628 316.961 404.812ZM332.879 405.076H330.323V407.668H329.303V405.076H326.759V404.152H329.303V401.548H330.323V404.152H332.879V405.076ZM336.234 404.488C335.786 404.312 335.442 404.056 335.202 403.72C334.962 403.384 334.842 402.976 334.842 402.496C334.842 402.064 334.95 401.676 335.166 401.332C335.382 400.98 335.702 400.704 336.126 400.504C336.558 400.296 337.078 400.192 337.686 400.192C338.294 400.192 338.81 400.296 339.234 400.504C339.666 400.704 339.99 400.98 340.206 401.332C340.43 401.676 340.542 402.064 340.542 402.496C340.542 402.96 340.418 403.368 340.17 403.72C339.922 404.064 339.582 404.32 339.15 404.488C339.646 404.64 340.038 404.908 340.326 405.292C340.622 405.668 340.77 406.124 340.77 406.66C340.77 407.18 340.642 407.636 340.386 408.028C340.13 408.412 339.766 408.712 339.294 408.928C338.83 409.136 338.294 409.24 337.686 409.24C337.078 409.24 336.542 409.136 336.078 408.928C335.622 408.712 335.266 408.412 335.01 408.028C334.754 407.636 334.626 407.18 334.626 406.66C334.626 406.124 334.77 405.664 335.058 405.28C335.346 404.896 335.738 404.632 336.234 404.488ZM339.486 402.628C339.486 402.14 339.326 401.764 339.006 401.5C338.686 401.236 338.246 401.104 337.686 401.104C337.134 401.104 336.698 401.236 336.378 401.5C336.058 401.764 335.898 402.144 335.898 402.64C335.898 403.088 336.062 403.448 336.39 403.72C336.726 403.992 337.158 404.128 337.686 404.128C338.222 404.128 338.654 403.992 338.982 403.72C339.318 403.44 339.486 403.076 339.486 402.628ZM337.686 404.968C337.094 404.968 336.61 405.108 336.234 405.388C335.858 405.66 335.67 406.072 335.67 406.624C335.67 407.136 335.85 407.548 336.21 407.86C336.578 408.172 337.07 408.328 337.686 408.328C338.302 408.328 338.79 408.172 339.15 407.86C339.51 407.548 339.69 407.136 339.69 406.624C339.69 406.088 339.506 405.68 339.138 405.4C338.77 405.112 338.286 404.968 337.686 404.968ZM342.749 409.072C342.541 409.072 342.365 409 342.221 408.856C342.077 408.712 342.005 408.536 342.005 408.328C342.005 408.12 342.077 407.944 342.221 407.8C342.365 407.656 342.541 407.584 342.749 407.584C342.949 407.584 343.117 407.656 343.253 407.8C343.397 407.944 343.469 408.12 343.469 408.328C343.469 408.536 343.397 408.712 343.253 408.856C343.117 409 342.949 409.072 342.749 409.072Z" fill="#73798B"/>
<path d="M37.589 250.48V249.62L40.949 244.8H42.329V249.49H43.259V250.48H42.329V252H41.209V250.48H37.589ZM41.259 245.96L38.899 249.49H41.259V245.96ZM44.2036 248.26C44.2036 247.107 44.3969 246.207 44.7836 245.56C45.1769 244.907 45.8502 244.58 46.8036 244.58C47.7569 244.58 48.4269 244.907 48.8136 245.56C49.2069 246.207 49.4036 247.107 49.4036 248.26C49.4036 249.427 49.2069 250.34 48.8136 251C48.4269 251.653 47.7569 251.98 46.8036 251.98C45.8502 251.98 45.1769 251.653 44.7836 251C44.3969 250.34 44.2036 249.427 44.2036 248.26ZM48.2836 248.26C48.2836 247.72 48.2469 247.263 48.1736 246.89C48.1069 246.517 47.9669 246.213 47.7536 245.98C47.5402 245.74 47.2236 245.62 46.8036 245.62C46.3836 245.62 46.0669 245.74 45.8536 245.98C45.6402 246.213 45.4969 246.517 45.4236 246.89C45.3569 247.263 45.3236 247.72 45.3236 248.26C45.3236 248.82 45.3569 249.29 45.4236 249.67C45.4902 250.05 45.6302 250.357 45.8436 250.59C46.0636 250.823 46.3836 250.94 46.8036 250.94C47.2236 250.94 47.5402 250.823 47.7536 250.59C47.9736 250.357 48.1169 250.05 48.1836 249.67C48.2502 249.29 48.2836 248.82 48.2836 248.26Z" fill="#73798B"/>
<path d="M39.0621 298.45C39.7021 297.897 40.2054 297.443 40.5721 297.09C40.9454 296.73 41.2554 296.357 41.5021 295.97C41.7487 295.583 41.8721 295.197 41.8721 294.81C41.8721 294.41 41.7754 294.097 41.5821 293.87C41.3954 293.643 41.0987 293.53 40.6921 293.53C40.2987 293.53 39.9921 293.657 39.7721 293.91C39.5587 294.157 39.4454 294.49 39.4321 294.91H38.3321C38.3521 294.15 38.5787 293.57 39.0121 293.17C39.4521 292.763 40.0087 292.56 40.6821 292.56C41.4087 292.56 41.9754 292.76 42.3821 293.16C42.7954 293.56 43.0021 294.093 43.0021 294.76C43.0021 295.24 42.8787 295.703 42.6321 296.15C42.3921 296.59 42.1021 296.987 41.7621 297.34C41.4287 297.687 41.0021 298.09 40.4821 298.55L40.0321 298.95H43.2021V299.9H38.3421V299.07L39.0621 298.45ZM44.2036 296.26C44.2036 295.107 44.3969 294.207 44.7836 293.56C45.1769 292.907 45.8502 292.58 46.8036 292.58C47.7569 292.58 48.4269 292.907 48.8136 293.56C49.2069 294.207 49.4036 295.107 49.4036 296.26C49.4036 297.427 49.2069 298.34 48.8136 299C48.4269 299.653 47.7569 299.98 46.8036 299.98C45.8502 299.98 45.1769 299.653 44.7836 299C44.3969 298.34 44.2036 297.427 44.2036 296.26ZM48.2836 296.26C48.2836 295.72 48.2469 295.263 48.1736 294.89C48.1069 294.517 47.9669 294.213 47.7536 293.98C47.5402 293.74 47.2236 293.62 46.8036 293.62C46.3836 293.62 46.0669 293.74 45.8536 293.98C45.6402 294.213 45.4969 294.517 45.4236 294.89C45.3569 295.263 45.3236 295.72 45.3236 296.26C45.3236 296.82 45.3569 297.29 45.4236 297.67C45.4902 298.05 45.6302 298.357 45.8436 298.59C46.0636 298.823 46.3836 298.94 46.8036 298.94C47.2236 298.94 47.5402 298.823 47.7536 298.59C47.9736 298.357 48.1169 298.05 48.1836 297.67C48.2502 297.29 48.2836 296.82 48.2836 296.26Z" fill="#73798B"/>
<path d="M40.325 198.4C40.2516 198.093 40.1183 197.863 39.925 197.71C39.7317 197.557 39.4617 197.48 39.115 197.48C38.5883 197.48 38.195 197.683 37.935 198.09C37.675 198.49 37.5383 199.157 37.525 200.09C37.6983 199.797 37.9516 199.57 38.285 199.41C38.6183 199.25 38.9783 199.17 39.365 199.17C39.805 199.17 40.1917 199.267 40.525 199.46C40.865 199.647 41.1283 199.92 41.315 200.28C41.5083 200.64 41.605 201.07 41.605 201.57C41.605 202.037 41.5117 202.453 41.325 202.82C41.145 203.187 40.875 203.477 40.515 203.69C40.155 203.897 39.7217 204 39.215 204C38.5283 204 37.9883 203.85 37.595 203.55C37.2083 203.243 36.935 202.813 36.775 202.26C36.6216 201.707 36.545 201.017 36.545 200.19C36.545 197.75 37.405 196.53 39.125 196.53C39.7916 196.53 40.315 196.71 40.695 197.07C41.0817 197.43 41.3083 197.873 41.375 198.4H40.325ZM39.115 200.13C38.7083 200.13 38.3616 200.253 38.075 200.5C37.795 200.74 37.655 201.09 37.655 201.55C37.655 202.01 37.785 202.377 38.045 202.65C38.3116 202.917 38.6816 203.05 39.155 203.05C39.575 203.05 39.905 202.92 40.145 202.66C40.3916 202.4 40.515 202.053 40.515 201.62C40.515 201.167 40.395 200.807 40.155 200.54C39.9216 200.267 39.575 200.13 39.115 200.13ZM42.821 200.26C42.821 199.107 43.0143 198.207 43.401 197.56C43.7943 196.907 44.4677 196.58 45.421 196.58C46.3743 196.58 47.0443 196.907 47.431 197.56C47.8243 198.207 48.021 199.107 48.021 200.26C48.021 201.427 47.8243 202.34 47.431 203C47.0443 203.653 46.3743 203.98 45.421 203.98C44.4677 203.98 43.7943 203.653 43.401 203C43.0143 202.34 42.821 201.427 42.821 200.26ZM46.901 200.26C46.901 199.72 46.8643 199.263 46.791 198.89C46.7243 198.517 46.5843 198.213 46.371 197.98C46.1577 197.74 45.841 197.62 45.421 197.62C45.001 197.62 44.6843 197.74 44.471 197.98C44.2577 198.213 44.1143 198.517 44.041 198.89C43.9743 199.263 43.941 199.72 43.941 200.26C43.941 200.82 43.9743 201.29 44.041 201.67C44.1077 202.05 44.2477 202.357 44.461 202.59C44.681 202.823 45.001 202.94 45.421 202.94C45.841 202.94 46.1577 202.823 46.371 202.59C46.591 202.357 46.7343 202.05 46.801 201.67C46.8677 201.29 46.901 200.82 46.901 200.26Z" fill="#73798B"/>
<path d="M37.674 152.19C36.9807 151.843 36.634 151.297 36.634 150.55C36.634 150.19 36.724 149.86 36.904 149.56C37.084 149.26 37.354 149.023 37.714 148.85C38.074 148.67 38.514 148.58 39.034 148.58C39.5474 148.58 39.984 148.67 40.344 148.85C40.7107 149.023 40.984 149.26 41.164 149.56C41.344 149.86 41.434 150.19 41.434 150.55C41.434 150.923 41.3374 151.253 41.144 151.54C40.9574 151.82 40.7074 152.037 40.394 152.19C40.774 152.33 41.074 152.56 41.294 152.88C41.514 153.193 41.624 153.563 41.624 153.99C41.624 154.423 41.514 154.807 41.294 155.14C41.074 155.473 40.7674 155.73 40.374 155.91C39.9807 156.09 39.534 156.18 39.034 156.18C38.534 156.18 38.0874 156.09 37.694 155.91C37.3074 155.73 37.004 155.473 36.784 155.14C36.564 154.807 36.454 154.423 36.454 153.99C36.454 153.557 36.564 153.183 36.784 152.87C37.004 152.557 37.3007 152.33 37.674 152.19ZM40.344 150.69C40.344 150.317 40.2274 150.03 39.994 149.83C39.7607 149.63 39.4407 149.53 39.034 149.53C38.634 149.53 38.3174 149.63 38.084 149.83C37.8507 150.03 37.734 150.32 37.734 150.7C37.734 151.033 37.854 151.307 38.094 151.52C38.3407 151.727 38.654 151.83 39.034 151.83C39.414 151.83 39.7274 151.723 39.974 151.51C40.2207 151.297 40.344 151.023 40.344 150.69ZM39.034 152.69C38.594 152.69 38.234 152.8 37.954 153.02C37.6807 153.233 37.544 153.543 37.544 153.95C37.544 154.33 37.6774 154.64 37.944 154.88C38.2107 155.113 38.574 155.23 39.034 155.23C39.4874 155.23 39.844 155.11 40.104 154.87C40.3707 154.63 40.504 154.323 40.504 153.95C40.504 153.55 40.3674 153.24 40.094 153.02C39.8274 152.8 39.474 152.69 39.034 152.69ZM42.821 152.26C42.821 151.107 43.0143 150.207 43.401 149.56C43.7943 148.907 44.4677 148.58 45.421 148.58C46.3743 148.58 47.0443 148.907 47.431 149.56C47.8243 150.207 48.021 151.107 48.021 152.26C48.021 153.427 47.8243 154.34 47.431 155C47.0443 155.653 46.3743 155.98 45.421 155.98C44.4677 155.98 43.7943 155.653 43.401 155C43.0143 154.34 42.821 153.427 42.821 152.26ZM46.901 152.26C46.901 151.72 46.8643 151.263 46.791 150.89C46.7243 150.517 46.5843 150.213 46.371 149.98C46.1577 149.74 45.841 149.62 45.421 149.62C45.001 149.62 44.6843 149.74 44.471 149.98C44.2577 150.213 44.1143 150.517 44.041 150.89C43.9743 151.263 43.941 151.72 43.941 152.26C43.941 152.82 43.9743 153.29 44.041 153.67C44.1077 154.05 44.2477 154.357 44.461 154.59C44.681 154.823 45.001 154.94 45.421 154.94C45.841 154.94 46.1577 154.823 46.371 154.59C46.591 154.357 46.7343 154.05 46.801 153.67C46.8677 153.29 46.901 152.82 46.901 152.26Z" fill="#73798B"/>
<path d="M50.194 344.26C50.194 343.107 50.3874 342.207 50.774 341.56C51.1674 340.907 51.8407 340.58 52.794 340.58C53.7474 340.58 54.4174 340.907 54.804 341.56C55.1974 342.207 55.394 343.107 55.394 344.26C55.394 345.427 55.1974 346.34 54.804 347C54.4174 347.653 53.7474 347.98 52.794 347.98C51.8407 347.98 51.1674 347.653 50.774 347C50.3874 346.34 50.194 345.427 50.194 344.26ZM54.274 344.26C54.274 343.72 54.2374 343.263 54.164 342.89C54.0974 342.517 53.9574 342.213 53.744 341.98C53.5307 341.74 53.214 341.62 52.794 341.62C52.374 341.62 52.0574 341.74 51.844 341.98C51.6307 342.213 51.4874 342.517 51.414 342.89C51.3474 343.263 51.314 343.72 51.314 344.26C51.314 344.82 51.3474 345.29 51.414 345.67C51.4807 346.05 51.6207 346.357 51.834 346.59C52.054 346.823 52.374 346.94 52.794 346.94C53.214 346.94 53.5307 346.823 53.744 346.59C53.964 346.357 54.1074 346.05 54.174 345.67C54.2407 345.29 54.274 344.82 54.274 344.26Z" fill="#73798B"/>
<path d="M103.801 361.58H100.891L100.391 363H99.2013L101.691 356.04H103.011L105.501 363H104.301L103.801 361.58ZM103.481 360.65L102.351 357.42L101.211 360.65H103.481ZM107.724 358.3C107.917 358.047 108.181 357.833 108.514 357.66C108.847 357.487 109.224 357.4 109.644 357.4C110.124 357.4 110.561 357.52 110.954 357.76C111.354 357.993 111.667 358.323 111.894 358.75C112.121 359.177 112.234 359.667 112.234 360.22C112.234 360.773 112.121 361.27 111.894 361.71C111.667 362.143 111.354 362.483 110.954 362.73C110.561 362.97 110.124 363.09 109.644 363.09C109.224 363.09 108.851 363.007 108.524 362.84C108.197 362.667 107.931 362.453 107.724 362.2V365.62H106.584V357.49H107.724V358.3ZM111.074 360.22C111.074 359.84 110.994 359.513 110.834 359.24C110.681 358.96 110.474 358.75 110.214 358.61C109.961 358.463 109.687 358.39 109.394 358.39C109.107 358.39 108.834 358.463 108.574 358.61C108.321 358.757 108.114 358.97 107.954 359.25C107.801 359.53 107.724 359.86 107.724 360.24C107.724 360.62 107.801 360.953 107.954 361.24C108.114 361.52 108.321 361.733 108.574 361.88C108.834 362.027 109.107 362.1 109.394 362.1C109.687 362.1 109.961 362.027 110.214 361.88C110.474 361.727 110.681 361.507 110.834 361.22C110.994 360.933 111.074 360.6 111.074 360.22ZM114.501 358.29C114.668 358.01 114.888 357.793 115.161 357.64C115.441 357.48 115.771 357.4 116.151 357.4V358.58H115.861C115.415 358.58 115.075 358.693 114.841 358.92C114.615 359.147 114.501 359.54 114.501 360.1V363H113.361V357.49H114.501V358.29ZM119.497 356.75V355.71H121.577V363H120.427V356.75H119.497ZM127.763 356.59L124.983 363H123.833L126.643 356.71H122.943V355.74H127.763V356.59Z" fill="#73798B"/>
<path d="M190.411 361.58H187.501L187.001 363H185.811L188.301 356.04H189.621L192.111 363H190.911L190.411 361.58ZM190.091 360.65L188.961 357.42L187.821 360.65H190.091ZM194.333 358.3C194.527 358.047 194.79 357.833 195.123 357.66C195.457 357.487 195.833 357.4 196.253 357.4C196.733 357.4 197.17 357.52 197.563 357.76C197.963 357.993 198.277 358.323 198.503 358.75C198.73 359.177 198.843 359.667 198.843 360.22C198.843 360.773 198.73 361.27 198.503 361.71C198.277 362.143 197.963 362.483 197.563 362.73C197.17 362.97 196.733 363.09 196.253 363.09C195.833 363.09 195.46 363.007 195.133 362.84C194.807 362.667 194.54 362.453 194.333 362.2V365.62H193.193V357.49H194.333V358.3ZM197.683 360.22C197.683 359.84 197.603 359.513 197.443 359.24C197.29 358.96 197.083 358.75 196.823 358.61C196.57 358.463 196.297 358.39 196.003 358.39C195.717 358.39 195.443 358.463 195.183 358.61C194.93 358.757 194.723 358.97 194.563 359.25C194.41 359.53 194.333 359.86 194.333 360.24C194.333 360.62 194.41 360.953 194.563 361.24C194.723 361.52 194.93 361.733 195.183 361.88C195.443 362.027 195.717 362.1 196.003 362.1C196.297 362.1 196.57 362.027 196.823 361.88C197.083 361.727 197.29 361.507 197.443 361.22C197.603 360.933 197.683 360.6 197.683 360.22ZM201.111 358.29C201.277 358.01 201.497 357.793 201.771 357.64C202.051 357.48 202.381 357.4 202.761 357.4V358.58H202.471C202.024 358.58 201.684 358.693 201.451 358.92C201.224 359.147 201.111 359.54 201.111 360.1V363H199.971V357.49H201.111V358.29ZM206.106 356.75V355.71H208.186V363H207.036V356.75H206.106ZM210.982 359.19C210.289 358.843 209.942 358.297 209.942 357.55C209.942 357.19 210.032 356.86 210.212 356.56C210.392 356.26 210.662 356.023 211.022 355.85C211.382 355.67 211.822 355.58 212.342 355.58C212.856 355.58 213.292 355.67 213.652 355.85C214.019 356.023 214.292 356.26 214.472 356.56C214.652 356.86 214.742 357.19 214.742 357.55C214.742 357.923 214.646 358.253 214.452 358.54C214.266 358.82 214.016 359.037 213.702 359.19C214.082 359.33 214.382 359.56 214.602 359.88C214.822 360.193 214.932 360.563 214.932 360.99C214.932 361.423 214.822 361.807 214.602 362.14C214.382 362.473 214.076 362.73 213.682 362.91C213.289 363.09 212.842 363.18 212.342 363.18C211.842 363.18 211.396 363.09 211.002 362.91C210.616 362.73 210.312 362.473 210.092 362.14C209.872 361.807 209.762 361.423 209.762 360.99C209.762 360.557 209.872 360.183 210.092 359.87C210.312 359.557 210.609 359.33 210.982 359.19ZM213.652 357.69C213.652 357.317 213.536 357.03 213.302 356.83C213.069 356.63 212.749 356.53 212.342 356.53C211.942 356.53 211.626 356.63 211.392 356.83C211.159 357.03 211.042 357.32 211.042 357.7C211.042 358.033 211.162 358.307 211.402 358.52C211.649 358.727 211.962 358.83 212.342 358.83C212.722 358.83 213.036 358.723 213.282 358.51C213.529 358.297 213.652 358.023 213.652 357.69ZM212.342 359.69C211.902 359.69 211.542 359.8 211.262 360.02C210.989 360.233 210.852 360.543 210.852 360.95C210.852 361.33 210.986 361.64 211.252 361.88C211.519 362.113 211.882 362.23 212.342 362.23C212.796 362.23 213.152 362.11 213.412 361.87C213.679 361.63 213.812 361.323 213.812 360.95C213.812 360.55 213.676 360.24 213.402 360.02C213.136 359.8 212.782 359.69 212.342 359.69Z" fill="#73798B"/>
<path d="M537.575 361.58H534.665L534.165 363H532.975L535.465 356.04H536.785L539.275 363H538.075L537.575 361.58ZM537.255 360.65L536.125 357.42L534.985 360.65H537.255ZM541.498 358.3C541.691 358.047 541.955 357.833 542.288 357.66C542.621 357.487 542.998 357.4 543.418 357.4C543.898 357.4 544.335 357.52 544.728 357.76C545.128 357.993 545.441 358.323 545.668 358.75C545.895 359.177 546.008 359.667 546.008 360.22C546.008 360.773 545.895 361.27 545.668 361.71C545.441 362.143 545.128 362.483 544.728 362.73C544.335 362.97 543.898 363.09 543.418 363.09C542.998 363.09 542.625 363.007 542.298 362.84C541.971 362.667 541.705 362.453 541.498 362.2V365.62H540.358V357.49H541.498V358.3ZM544.848 360.22C544.848 359.84 544.768 359.513 544.608 359.24C544.455 358.96 544.248 358.75 543.988 358.61C543.735 358.463 543.461 358.39 543.168 358.39C542.881 358.39 542.608 358.463 542.348 358.61C542.095 358.757 541.888 358.97 541.728 359.25C541.575 359.53 541.498 359.86 541.498 360.24C541.498 360.62 541.575 360.953 541.728 361.24C541.888 361.52 542.095 361.733 542.348 361.88C542.608 362.027 542.881 362.1 543.168 362.1C543.461 362.1 543.735 362.027 543.988 361.88C544.248 361.727 544.455 361.507 544.608 361.22C544.768 360.933 544.848 360.6 544.848 360.22ZM548.275 358.29C548.442 358.01 548.662 357.793 548.935 357.64C549.215 357.48 549.545 357.4 549.925 357.4V358.58H549.635C549.189 358.58 548.849 358.693 548.615 358.92C548.389 359.147 548.275 359.54 548.275 360.1V363H547.135V357.49H548.275V358.29ZM554.051 361.45C554.691 360.897 555.194 360.443 555.561 360.09C555.934 359.73 556.244 359.357 556.491 358.97C556.738 358.583 556.861 358.197 556.861 357.81C556.861 357.41 556.764 357.097 556.571 356.87C556.384 356.643 556.088 356.53 555.681 356.53C555.288 356.53 554.981 356.657 554.761 356.91C554.548 357.157 554.434 357.49 554.421 357.91H553.321C553.341 357.15 553.568 356.57 554.001 356.17C554.441 355.763 554.998 355.56 555.671 355.56C556.398 355.56 556.964 355.76 557.371 356.16C557.784 356.56 557.991 357.093 557.991 357.76C557.991 358.24 557.868 358.703 557.621 359.15C557.381 359.59 557.091 359.987 556.751 360.34C556.418 360.687 555.991 361.09 555.471 361.55L555.021 361.95H558.191V362.9H553.331V362.07L554.051 361.45ZM559.823 361.45C560.463 360.897 560.966 360.443 561.333 360.09C561.706 359.73 562.016 359.357 562.263 358.97C562.509 358.583 562.633 358.197 562.633 357.81C562.633 357.41 562.536 357.097 562.343 356.87C562.156 356.643 561.859 356.53 561.453 356.53C561.059 356.53 560.753 356.657 560.533 356.91C560.319 357.157 560.206 357.49 560.193 357.91H559.093C559.113 357.15 559.339 356.57 559.773 356.17C560.213 355.763 560.769 355.56 561.443 355.56C562.169 355.56 562.736 355.76 563.143 356.16C563.556 356.56 563.763 357.093 563.763 357.76C563.763 358.24 563.639 358.703 563.393 359.15C563.153 359.59 562.863 359.987 562.523 360.34C562.189 360.687 561.763 361.09 561.243 361.55L560.793 361.95H563.963V362.9H559.103V362.07L559.823 361.45Z" fill="#73798B"/>
<path d="M711.224 361.58H708.314L707.814 363H706.624L709.114 356.04H710.434L712.924 363H711.724L711.224 361.58ZM710.904 360.65L709.774 357.42L708.634 360.65H710.904ZM715.147 358.3C715.34 358.047 715.604 357.833 715.937 357.66C716.27 357.487 716.647 357.4 717.067 357.4C717.547 357.4 717.984 357.52 718.377 357.76C718.777 357.993 719.09 358.323 719.317 358.75C719.544 359.177 719.657 359.667 719.657 360.22C719.657 360.773 719.544 361.27 719.317 361.71C719.09 362.143 718.777 362.483 718.377 362.73C717.984 362.97 717.547 363.09 717.067 363.09C716.647 363.09 716.274 363.007 715.947 362.84C715.62 362.667 715.354 362.453 715.147 362.2V365.62H714.007V357.49H715.147V358.3ZM718.497 360.22C718.497 359.84 718.417 359.513 718.257 359.24C718.104 358.96 717.897 358.75 717.637 358.61C717.384 358.463 717.11 358.39 716.817 358.39C716.53 358.39 716.257 358.463 715.997 358.61C715.744 358.757 715.537 358.97 715.377 359.25C715.224 359.53 715.147 359.86 715.147 360.24C715.147 360.62 715.224 360.953 715.377 361.24C715.537 361.52 715.744 361.733 715.997 361.88C716.257 362.027 716.53 362.1 716.817 362.1C717.11 362.1 717.384 362.027 717.637 361.88C717.897 361.727 718.104 361.507 718.257 361.22C718.417 360.933 718.497 360.6 718.497 360.22ZM721.924 358.29C722.091 358.01 722.311 357.793 722.584 357.64C722.864 357.48 723.194 357.4 723.574 357.4V358.58H723.284C722.838 358.58 722.498 358.693 722.264 358.92C722.038 359.147 721.924 359.54 721.924 360.1V363H720.784V357.49H721.924V358.29ZM727.7 361.45C728.34 360.897 728.843 360.443 729.21 360.09C729.583 359.73 729.893 359.357 730.14 358.97C730.386 358.583 730.51 358.197 730.51 357.81C730.51 357.41 730.413 357.097 730.22 356.87C730.033 356.643 729.736 356.53 729.33 356.53C728.936 356.53 728.63 356.657 728.41 356.91C728.196 357.157 728.083 357.49 728.07 357.91H726.97C726.99 357.15 727.216 356.57 727.65 356.17C728.09 355.763 728.646 355.56 729.32 355.56C730.046 355.56 730.613 355.76 731.02 356.16C731.433 356.56 731.64 357.093 731.64 357.76C731.64 358.24 731.516 358.703 731.27 359.15C731.03 359.59 730.74 359.987 730.4 360.34C730.066 360.687 729.64 361.09 729.12 361.55L728.67 361.95H731.84V362.9H726.98V362.07L727.7 361.45ZM732.701 361.48V360.62L736.061 355.8H737.441V360.49H738.371V361.48H737.441V363H736.321V361.48H732.701ZM736.371 356.96L734.011 360.49H736.371V356.96Z" fill="#73798B"/>
<path d="M277.425 361.58H274.515L274.015 363H272.825L275.315 356.04H276.635L279.125 363H277.925L277.425 361.58ZM277.105 360.65L275.975 357.42L274.835 360.65H277.105ZM281.348 358.3C281.541 358.047 281.805 357.833 282.138 357.66C282.471 357.487 282.848 357.4 283.268 357.4C283.748 357.4 284.185 357.52 284.578 357.76C284.978 357.993 285.291 358.323 285.518 358.75C285.745 359.177 285.858 359.667 285.858 360.22C285.858 360.773 285.745 361.27 285.518 361.71C285.291 362.143 284.978 362.483 284.578 362.73C284.185 362.97 283.748 363.09 283.268 363.09C282.848 363.09 282.475 363.007 282.148 362.84C281.821 362.667 281.555 362.453 281.348 362.2V365.62H280.208V357.49H281.348V358.3ZM284.698 360.22C284.698 359.84 284.618 359.513 284.458 359.24C284.305 358.96 284.098 358.75 283.838 358.61C283.585 358.463 283.311 358.39 283.018 358.39C282.731 358.39 282.458 358.463 282.198 358.61C281.945 358.757 281.738 358.97 281.578 359.25C281.425 359.53 281.348 359.86 281.348 360.24C281.348 360.62 281.425 360.953 281.578 361.24C281.738 361.52 281.945 361.733 282.198 361.88C282.458 362.027 282.731 362.1 283.018 362.1C283.311 362.1 283.585 362.027 283.838 361.88C284.098 361.727 284.305 361.507 284.458 361.22C284.618 360.933 284.698 360.6 284.698 360.22ZM288.125 358.29C288.292 358.01 288.512 357.793 288.785 357.64C289.065 357.48 289.395 357.4 289.775 357.4V358.58H289.485C289.039 358.58 288.699 358.693 288.465 358.92C288.239 359.147 288.125 359.54 288.125 360.1V363H286.985V357.49H288.125V358.29ZM293.121 356.75V355.71H295.201V363H294.051V356.75H293.121ZM298.187 361.02C298.253 361.353 298.397 361.607 298.617 361.78C298.837 361.953 299.133 362.04 299.507 362.04C299.98 362.04 300.327 361.853 300.547 361.48C300.767 361.107 300.877 360.47 300.877 359.57C300.717 359.797 300.49 359.973 300.197 360.1C299.91 360.22 299.597 360.28 299.257 360.28C298.823 360.28 298.43 360.193 298.077 360.02C297.723 359.84 297.443 359.577 297.237 359.23C297.037 358.877 296.937 358.45 296.937 357.95C296.937 357.217 297.15 356.633 297.577 356.2C298.01 355.76 298.603 355.54 299.357 355.54C300.263 355.54 300.907 355.843 301.287 356.45C301.673 357.05 301.867 357.973 301.867 359.22C301.867 360.08 301.793 360.783 301.647 361.33C301.507 361.877 301.26 362.29 300.907 362.57C300.553 362.85 300.063 362.99 299.437 362.99C298.723 362.99 298.173 362.803 297.787 362.43C297.4 362.057 297.183 361.587 297.137 361.02H298.187ZM299.457 359.32C299.857 359.32 300.17 359.197 300.397 358.95C300.63 358.697 300.747 358.363 300.747 357.95C300.747 357.49 300.623 357.133 300.377 356.88C300.137 356.62 299.807 356.49 299.387 356.49C298.967 356.49 298.633 356.623 298.387 356.89C298.147 357.15 298.027 357.493 298.027 357.92C298.027 358.327 298.143 358.663 298.377 358.93C298.617 359.19 298.977 359.32 299.457 359.32Z" fill="#73798B"/>
<path d="M363.258 361.58H360.348L359.848 363H358.658L361.148 356.04H362.468L364.958 363H363.758L363.258 361.58ZM362.938 360.65L361.808 357.42L360.668 360.65H362.938ZM367.181 358.3C367.374 358.047 367.638 357.833 367.971 357.66C368.304 357.487 368.681 357.4 369.101 357.4C369.581 357.4 370.018 357.52 370.411 357.76C370.811 357.993 371.124 358.323 371.351 358.75C371.578 359.177 371.691 359.667 371.691 360.22C371.691 360.773 371.578 361.27 371.351 361.71C371.124 362.143 370.811 362.483 370.411 362.73C370.018 362.97 369.581 363.09 369.101 363.09C368.681 363.09 368.308 363.007 367.981 362.84C367.654 362.667 367.388 362.453 367.181 362.2V365.62H366.041V357.49H367.181V358.3ZM370.531 360.22C370.531 359.84 370.451 359.513 370.291 359.24C370.138 358.96 369.931 358.75 369.671 358.61C369.418 358.463 369.144 358.39 368.851 358.39C368.564 358.39 368.291 358.463 368.031 358.61C367.778 358.757 367.571 358.97 367.411 359.25C367.258 359.53 367.181 359.86 367.181 360.24C367.181 360.62 367.258 360.953 367.411 361.24C367.571 361.52 367.778 361.733 368.031 361.88C368.291 362.027 368.564 362.1 368.851 362.1C369.144 362.1 369.418 362.027 369.671 361.88C369.931 361.727 370.138 361.507 370.291 361.22C370.451 360.933 370.531 360.6 370.531 360.22ZM373.958 358.29C374.125 358.01 374.345 357.793 374.618 357.64C374.898 357.48 375.228 357.4 375.608 357.4V358.58H375.318C374.872 358.58 374.532 358.693 374.298 358.92C374.072 359.147 373.958 359.54 373.958 360.1V363H372.818V357.49H373.958V358.29ZM379.734 361.45C380.374 360.897 380.877 360.443 381.244 360.09C381.617 359.73 381.927 359.357 382.174 358.97C382.421 358.583 382.544 358.197 382.544 357.81C382.544 357.41 382.447 357.097 382.254 356.87C382.067 356.643 381.771 356.53 381.364 356.53C380.971 356.53 380.664 356.657 380.444 356.91C380.231 357.157 380.117 357.49 380.104 357.91H379.004C379.024 357.15 379.251 356.57 379.684 356.17C380.124 355.763 380.681 355.56 381.354 355.56C382.081 355.56 382.647 355.76 383.054 356.16C383.467 356.56 383.674 357.093 383.674 357.76C383.674 358.24 383.551 358.703 383.304 359.15C383.064 359.59 382.774 359.987 382.434 360.34C382.101 360.687 381.674 361.09 381.154 361.55L380.704 361.95H383.874V362.9H379.014V362.07L379.734 361.45ZM384.876 359.26C384.876 358.107 385.069 357.207 385.456 356.56C385.849 355.907 386.522 355.58 387.476 355.58C388.429 355.58 389.099 355.907 389.486 356.56C389.879 357.207 390.076 358.107 390.076 359.26C390.076 360.427 389.879 361.34 389.486 362C389.099 362.653 388.429 362.98 387.476 362.98C386.522 362.98 385.849 362.653 385.456 362C385.069 361.34 384.876 360.427 384.876 359.26ZM388.956 359.26C388.956 358.72 388.919 358.263 388.846 357.89C388.779 357.517 388.639 357.213 388.426 356.98C388.212 356.74 387.896 356.62 387.476 356.62C387.056 356.62 386.739 356.74 386.526 356.98C386.312 357.213 386.169 357.517 386.096 357.89C386.029 358.263 385.996 358.72 385.996 359.26C385.996 359.82 386.029 360.29 386.096 360.67C386.162 361.05 386.302 361.357 386.516 361.59C386.736 361.823 387.056 361.94 387.476 361.94C387.896 361.94 388.212 361.823 388.426 361.59C388.646 361.357 388.789 361.05 388.856 360.67C388.922 360.29 388.956 359.82 388.956 359.26Z" fill="#73798B"/>
<path d="M624.493 361.58H621.583L621.083 363H619.893L622.383 356.04H623.703L626.193 363H624.993L624.493 361.58ZM624.173 360.65L623.043 357.42L621.903 360.65H624.173ZM628.415 358.3C628.609 358.047 628.872 357.833 629.205 357.66C629.539 357.487 629.915 357.4 630.335 357.4C630.815 357.4 631.252 357.52 631.645 357.76C632.045 357.993 632.359 358.323 632.585 358.75C632.812 359.177 632.925 359.667 632.925 360.22C632.925 360.773 632.812 361.27 632.585 361.71C632.359 362.143 632.045 362.483 631.645 362.73C631.252 362.97 630.815 363.09 630.335 363.09C629.915 363.09 629.542 363.007 629.215 362.84C628.889 362.667 628.622 362.453 628.415 362.2V365.62H627.275V357.49H628.415V358.3ZM631.765 360.22C631.765 359.84 631.685 359.513 631.525 359.24C631.372 358.96 631.165 358.75 630.905 358.61C630.652 358.463 630.379 358.39 630.085 358.39C629.799 358.39 629.525 358.463 629.265 358.61C629.012 358.757 628.805 358.97 628.645 359.25C628.492 359.53 628.415 359.86 628.415 360.24C628.415 360.62 628.492 360.953 628.645 361.24C628.805 361.52 629.012 361.733 629.265 361.88C629.525 362.027 629.799 362.1 630.085 362.1C630.379 362.1 630.652 362.027 630.905 361.88C631.165 361.727 631.372 361.507 631.525 361.22C631.685 360.933 631.765 360.6 631.765 360.22ZM635.193 358.29C635.359 358.01 635.579 357.793 635.853 357.64C636.133 357.48 636.463 357.4 636.843 357.4V358.58H636.553C636.106 358.58 635.766 358.693 635.533 358.92C635.306 359.147 635.193 359.54 635.193 360.1V363H634.053V357.49H635.193V358.29ZM640.968 361.45C641.608 360.897 642.112 360.443 642.478 360.09C642.852 359.73 643.162 359.357 643.408 358.97C643.655 358.583 643.778 358.197 643.778 357.81C643.778 357.41 643.682 357.097 643.488 356.87C643.302 356.643 643.005 356.53 642.598 356.53C642.205 356.53 641.898 356.657 641.678 356.91C641.465 357.157 641.352 357.49 641.338 357.91H640.238C640.258 357.15 640.485 356.57 640.918 356.17C641.358 355.763 641.915 355.56 642.588 355.56C643.315 355.56 643.882 355.76 644.288 356.16C644.702 356.56 644.908 357.093 644.908 357.76C644.908 358.24 644.785 358.703 644.538 359.15C644.298 359.59 644.008 359.987 643.668 360.34C643.335 360.687 642.908 361.09 642.388 361.55L641.938 361.95H645.108V362.9H640.248V362.07L640.968 361.45ZM646.09 357.51C646.13 356.89 646.366 356.407 646.8 356.06C647.24 355.713 647.8 355.54 648.48 355.54C648.946 355.54 649.35 355.623 649.69 355.79C650.03 355.957 650.286 356.183 650.46 356.47C650.633 356.757 650.72 357.08 650.72 357.44C650.72 357.853 650.61 358.207 650.39 358.5C650.17 358.793 649.906 358.99 649.6 359.09V359.13C649.993 359.25 650.3 359.47 650.52 359.79C650.74 360.103 650.85 360.507 650.85 361C650.85 361.393 650.76 361.743 650.58 362.05C650.4 362.357 650.133 362.6 649.78 362.78C649.426 362.953 649.003 363.04 648.51 363.04C647.79 363.04 647.196 362.857 646.73 362.49C646.27 362.117 646.023 361.583 645.99 360.89H647.09C647.116 361.243 647.253 361.533 647.5 361.76C647.746 361.98 648.08 362.09 648.5 362.09C648.906 362.09 649.22 361.98 649.44 361.76C649.66 361.533 649.77 361.243 649.77 360.89C649.77 360.423 649.62 360.093 649.32 359.9C649.026 359.7 648.573 359.6 647.96 359.6H647.7V358.66H647.97C648.51 358.653 648.92 358.563 649.2 358.39C649.486 358.217 649.63 357.943 649.63 357.57C649.63 357.25 649.526 356.997 649.32 356.81C649.113 356.617 648.82 356.52 648.44 356.52C648.066 356.52 647.776 356.617 647.57 356.81C647.363 356.997 647.24 357.23 647.2 357.51H646.09Z" fill="#73798B"/>
<path d="M798.268 361.58H795.358L794.858 363H793.668L796.158 356.04H797.478L799.968 363H798.768L798.268 361.58ZM797.948 360.65L796.818 357.42L795.678 360.65H797.948ZM802.191 358.3C802.384 358.047 802.648 357.833 802.981 357.66C803.314 357.487 803.691 357.4 804.111 357.4C804.591 357.4 805.028 357.52 805.421 357.76C805.821 357.993 806.134 358.323 806.361 358.75C806.588 359.177 806.701 359.667 806.701 360.22C806.701 360.773 806.588 361.27 806.361 361.71C806.134 362.143 805.821 362.483 805.421 362.73C805.028 362.97 804.591 363.09 804.111 363.09C803.691 363.09 803.318 363.007 802.991 362.84C802.664 362.667 802.398 362.453 802.191 362.2V365.62H801.051V357.49H802.191V358.3ZM805.541 360.22C805.541 359.84 805.461 359.513 805.301 359.24C805.148 358.96 804.941 358.75 804.681 358.61C804.428 358.463 804.154 358.39 803.861 358.39C803.574 358.39 803.301 358.463 803.041 358.61C802.788 358.757 802.581 358.97 802.421 359.25C802.268 359.53 802.191 359.86 802.191 360.24C802.191 360.62 802.268 360.953 802.421 361.24C802.581 361.52 802.788 361.733 803.041 361.88C803.301 362.027 803.574 362.1 803.861 362.1C804.154 362.1 804.428 362.027 804.681 361.88C804.941 361.727 805.148 361.507 805.301 361.22C805.461 360.933 805.541 360.6 805.541 360.22ZM808.968 358.29C809.135 358.01 809.355 357.793 809.628 357.64C809.908 357.48 810.238 357.4 810.618 357.4V358.58H810.328C809.882 358.58 809.542 358.693 809.308 358.92C809.082 359.147 808.968 359.54 808.968 360.1V363H807.828V357.49H808.968V358.29ZM814.744 361.45C815.384 360.897 815.887 360.443 816.254 360.09C816.627 359.73 816.937 359.357 817.184 358.97C817.431 358.583 817.554 358.197 817.554 357.81C817.554 357.41 817.457 357.097 817.264 356.87C817.077 356.643 816.781 356.53 816.374 356.53C815.981 356.53 815.674 356.657 815.454 356.91C815.241 357.157 815.127 357.49 815.114 357.91H814.014C814.034 357.15 814.261 356.57 814.694 356.17C815.134 355.763 815.691 355.56 816.364 355.56C817.091 355.56 817.657 355.76 818.064 356.16C818.477 356.56 818.684 357.093 818.684 357.76C818.684 358.24 818.561 358.703 818.314 359.15C818.074 359.59 817.784 359.987 817.444 360.34C817.111 360.687 816.684 361.09 816.164 361.55L815.714 361.95H818.884V362.9H814.024V362.07L814.744 361.45ZM824.585 356.69H821.235V358.68C821.375 358.493 821.582 358.337 821.855 358.21C822.135 358.083 822.432 358.02 822.745 358.02C823.305 358.02 823.759 358.14 824.105 358.38C824.459 358.62 824.709 358.923 824.855 359.29C825.009 359.657 825.085 360.043 825.085 360.45C825.085 360.943 824.989 361.383 824.795 361.77C824.609 362.15 824.325 362.45 823.945 362.67C823.572 362.89 823.112 363 822.565 363C821.839 363 821.255 362.82 820.815 362.46C820.375 362.1 820.112 361.623 820.025 361.03H821.135C821.209 361.343 821.372 361.593 821.625 361.78C821.879 361.96 822.195 362.05 822.575 362.05C823.049 362.05 823.402 361.907 823.635 361.62C823.875 361.333 823.995 360.953 823.995 360.48C823.995 360 823.875 359.633 823.635 359.38C823.395 359.12 823.042 358.99 822.575 358.99C822.249 358.99 821.972 359.073 821.745 359.24C821.525 359.4 821.365 359.62 821.265 359.9H820.185V355.69H824.585V356.69Z" fill="#73798B"/>
<path d="M451.713 361.58H448.803L448.303 363H447.113L449.603 356.04H450.923L453.413 363H452.213L451.713 361.58ZM451.393 360.65L450.263 357.42L449.123 360.65H451.393ZM455.636 358.3C455.829 358.047 456.093 357.833 456.426 357.66C456.759 357.487 457.136 357.4 457.556 357.4C458.036 357.4 458.473 357.52 458.866 357.76C459.266 357.993 459.579 358.323 459.806 358.75C460.033 359.177 460.146 359.667 460.146 360.22C460.146 360.773 460.033 361.27 459.806 361.71C459.579 362.143 459.266 362.483 458.866 362.73C458.473 362.97 458.036 363.09 457.556 363.09C457.136 363.09 456.763 363.007 456.436 362.84C456.109 362.667 455.843 362.453 455.636 362.2V365.62H454.496V357.49H455.636V358.3ZM458.986 360.22C458.986 359.84 458.906 359.513 458.746 359.24C458.593 358.96 458.386 358.75 458.126 358.61C457.873 358.463 457.599 358.39 457.306 358.39C457.019 358.39 456.746 358.463 456.486 358.61C456.233 358.757 456.026 358.97 455.866 359.25C455.713 359.53 455.636 359.86 455.636 360.24C455.636 360.62 455.713 360.953 455.866 361.24C456.026 361.52 456.233 361.733 456.486 361.88C456.746 362.027 457.019 362.1 457.306 362.1C457.599 362.1 457.873 362.027 458.126 361.88C458.386 361.727 458.593 361.507 458.746 361.22C458.906 360.933 458.986 360.6 458.986 360.22ZM462.413 358.29C462.58 358.01 462.8 357.793 463.073 357.64C463.353 357.48 463.683 357.4 464.063 357.4V358.58H463.773C463.327 358.58 462.987 358.693 462.753 358.92C462.527 359.147 462.413 359.54 462.413 360.1V363H461.273V357.49H462.413V358.29ZM468.189 361.45C468.829 360.897 469.332 360.443 469.699 360.09C470.072 359.73 470.382 359.357 470.629 358.97C470.876 358.583 470.999 358.197 470.999 357.81C470.999 357.41 470.902 357.097 470.709 356.87C470.522 356.643 470.226 356.53 469.819 356.53C469.426 356.53 469.119 356.657 468.899 356.91C468.686 357.157 468.572 357.49 468.559 357.91H467.459C467.479 357.15 467.706 356.57 468.139 356.17C468.579 355.763 469.136 355.56 469.809 355.56C470.536 355.56 471.102 355.76 471.509 356.16C471.922 356.56 472.129 357.093 472.129 357.76C472.129 358.24 472.006 358.703 471.759 359.15C471.519 359.59 471.229 359.987 470.889 360.34C470.556 360.687 470.129 361.09 469.609 361.55L469.159 361.95H472.329V362.9H467.469V362.07L468.189 361.45ZM473.18 356.75V355.71H475.26V363H474.11V356.75H473.18Z" fill="#73798B"/>
<path d="M635 340V348" stroke="#73798B"/>
<path d="M809 340V348" stroke="#73798B"/>
<path d="M200 340V348" stroke="#73798B"/>
<path d="M287 340V348" stroke="#73798B"/>
<path d="M374 340V348" stroke="#73798B"/>
<path d="M461 340V348" stroke="#73798B"/>
<path d="M548 340V348" stroke="#73798B"/>
<path d="M722 340V348" stroke="#73798B"/>
<path d="M113.062 340V348" stroke="#73798B"/>
<path d="M64 141V343H855" stroke="#73798B"/>
<path d="M115.5 225L192.853 206.748C200.187 205.018 207.908 206.832 213.704 211.648L266.868 255.828C276.244 263.62 289.972 263.144 298.786 254.723L363.553 192.842C370.177 186.512 379.827 184.507 388.425 187.673L455.252 212.279C460.879 214.351 467.078 214.241 472.629 211.971L544.697 182.5L634.964 153.162C636.319 152.721 637.71 152.403 639.121 152.209L724.5 140.5L812 132" stroke="#424AFF" stroke-width="2"/>
<circle cx="116" cy="225" r="2" fill="white" stroke="#424AFF" stroke-width="2"/>
<circle cx="204" cy="207" r="2" fill="white" stroke="#424AFF" stroke-width="2"/>
<circle cx="282.545" cy="262" r="2" fill="white" stroke="#424AFF" stroke-width="2"/>
<circle cx="375.018" cy="186" r="2" fill="white" stroke="#424AFF" stroke-width="2"/>
<circle cx="464" cy="214" r="2" fill="white" stroke="#424AFF" stroke-width="2"/>
<circle cx="550" cy="180" r="2" fill="white" stroke="#424AFF" stroke-width="2"/>
<circle cx="637.338" cy="153" r="2" fill="white" stroke="#424AFF" stroke-width="2"/>
<path d="M724 141.5C724 142.605 723.105 143.5 722 143.5C720.895 143.5 720 142.605 720 141.5C720 140.395 720.895 139.5 722 139.5C723.105 139.5 724 140.395 724 141.5Z" fill="white" stroke="#424AFF" stroke-width="2"/>
<circle cx="813" cy="132" r="2" fill="white" stroke="#424AFF" stroke-width="2"/>
<defs>
<filter id="filter0_i_2722_2527" x="1" y="1" width="878" height="52" filterUnits="userSpaceOnUse" color-interpolation-filters="sRGB">
<feFlood flood-opacity="0" result="BackgroundImageFix"/>
<feBlend mode="normal" in="SourceGraphic" in2="BackgroundImageFix" result="shape"/>
<feColorMatrix in="SourceAlpha" type="matrix" values="0 0 0 0 0 0 0 0 0 0 0 0 0 0 0 0 0 0 127 0" result="hardAlpha"/>
<feOffset dy="-1"/>
<feComposite in2="hardAlpha" operator="arithmetic" k2="-1" k3="1"/>
<feColorMatrix type="matrix" values="0 0 0 0 0.929412 0 0 0 0 0.933333 0 0 0 0 0.952941 0 0 0 1 0"/>
<feBlend mode="normal" in2="shape" result="effect1_innerShadow_2722_2527"/>
</filter>
<filter id="filter1_dd_2722_2527" x="25" y="79" width="88" height="40" filterUnits="userSpaceOnUse" color-interpolation-filters="sRGB">
<feFlood flood-opacity="0" result="BackgroundImageFix"/>
<feColorMatrix in="SourceAlpha" type="matrix" values="0 0 0 0 0 0 0 0 0 0 0 0 0 0 0 0 0 0 127 0" result="hardAlpha"/>
<feOffset dy="1"/>
<feGaussianBlur stdDeviation="1.5"/>
<feColorMatrix type="matrix" values="0 0 0 0 0.0627451 0 0 0 0 0.0941176 0 0 0 0 0.156863 0 0 0 0.0644668 0"/>
<feBlend mode="normal" in2="BackgroundImageFix" result="effect1_dropShadow_2722_2527"/>
<feColorMatrix in="SourceAlpha" type="matrix" values="0 0 0 0 0 0 0 0 0 0 0 0 0 0 0 0 0 0 127 0" result="hardAlpha"/>
<feOffset dy="2"/>
<feGaussianBlur stdDeviation="2"/>
<feColorMatrix type="matrix" values="0 0 0 0 0.0627451 0 0 0 0 0.0941176 0 0 0 0 0.156863 0 0 0 0.104294 0"/>
<feBlend mode="normal" in2="effect1_dropShadow_2722_2527" result="effect2_dropShadow_2722_2527"/>
<feBlend mode="normal" in="SourceGraphic" in2="effect2_dropShadow_2722_2527" result="shape"/>
</filter>
</defs>
</svg>
