<svg width="427" height="136" viewBox="0 0 427 136" fill="none" xmlns="http://www.w3.org/2000/svg">
<rect x="0.5" y="0.5" width="425.667" height="135" rx="9.5" fill="white"/>
<rect x="0.5" y="0.5" width="425.667" height="135" rx="9.5" stroke="#EDEEF3"/>
<rect x="24" y="36" width="64" height="64" rx="10" fill="#F8F9FC"/>
<path d="M64.0723 74.2115C64.5779 74.0768 65.0604 73.9058 65.4822 73.6835V76.4362C65.4822 77.2003 65.2534 77.9102 64.6686 78.5782C63.9921 79.3511 62.9657 80.0801 61.635 80.7099C58.9963 81.9586 55.2978 82.7496 51.1721 82.7496C47.014 82.7496 43.293 81.9744 40.6525 80.7248C39.3381 80.1028 38.327 79.3807 37.6617 78.6086C37.0492 77.8979 36.75 77.1702 36.75 76.4362V73.6793C37.1767 73.9038 37.6658 74.0762 38.1788 74.2119C39.6931 74.6126 41.6647 74.7556 43.577 74.7788C45.5021 74.8022 47.4213 74.7041 48.8553 74.6008C49.5734 74.5491 50.172 74.4959 50.5919 74.4556C50.8018 74.4354 50.9672 74.4185 51.0805 74.4065C51.1162 74.4027 51.1467 74.3994 51.1718 74.3967C51.1966 74.3994 51.2267 74.4027 51.2618 74.4064C51.3743 74.4184 51.5385 74.4354 51.747 74.4555C52.1638 74.4959 52.7581 74.5491 53.471 74.6008C54.8946 74.7041 56.8 74.8022 58.7113 74.7788C60.6097 74.7556 62.5679 74.6125 64.0723 74.2115Z" fill="white" stroke="#1C1C1C" stroke-width="1.5"/>
<path d="M65.4822 71.5619C65.4822 72.2151 65.1798 72.8982 64.5078 73.5864C63.8324 74.278 62.8184 74.9352 61.5067 75.5033C58.8859 76.6385 55.2128 77.3591 51.1161 77.3591C47.0195 77.3591 43.3464 76.6385 40.7255 75.5033C39.4138 74.9352 38.3999 74.278 37.7245 73.5864C37.0525 72.8982 36.75 72.2151 36.75 71.5619C36.75 70.9087 37.0525 70.2256 37.7245 69.5374C38.3999 68.8458 39.4138 68.1886 40.7255 67.6205C43.3464 66.4853 47.0195 65.7646 51.1161 65.7646C55.2128 65.7646 58.8859 66.4853 61.5067 67.6205C62.8184 68.1886 63.8324 68.8458 64.5078 69.5374C65.1798 70.2256 65.4822 70.9087 65.4822 71.5619Z" fill="white" stroke="#1C1C1C" stroke-width="1.5"/>
<path fill-rule="evenodd" clip-rule="evenodd" d="M67.0005 71.6673C66.691 66.2962 59.0565 64.5 49.6838 64.5C47.785 64.5 45.9576 64.6324 44.2479 64.877C44.3855 65.7039 44.8041 66.4851 45.4515 67.207C46.3164 68.1714 47.5868 69.0284 49.1632 69.7453C52.3316 71.1861 56.7289 72.0549 61.5888 72.0549C63.4776 72.0549 65.2965 71.919 67.0005 71.6673Z" fill="#F8F9FC"/>
<path fill-rule="evenodd" clip-rule="evenodd" d="M73 61.5166V67.0265C71.5691 68.2159 68.4873 68.895 66 69.531V63.5202C68.4875 62.8841 71.5691 62.7062 73 61.5166Z" fill="#1F32D6"/>
<path d="M75.25 59.2285V63.4056C75.25 64.1219 74.951 64.8466 74.3332 65.5637C73.6646 66.3397 72.6507 67.0712 71.3365 67.7031C68.7301 68.9561 65.0764 69.7501 61 69.7501C56.8915 69.7501 53.2156 68.9719 50.6075 67.718C49.3095 67.094 48.3106 66.3694 47.6531 65.5942C47.0478 64.8806 46.75 64.1475 46.75 63.4056V59.2285H75.25Z" stroke="#1C1C1C" stroke-width="1.5"/>
<path d="M75.25 58.5108C75.25 59.0686 74.971 59.6754 74.3054 60.306C73.6382 60.9382 72.6325 61.542 71.3276 62.0649C68.722 63.109 65.071 63.7716 61 63.7716C56.929 63.7716 53.278 63.109 50.6724 62.0649C49.3675 61.542 48.3618 60.9382 47.6946 60.306C47.029 59.6754 46.75 59.0686 46.75 58.5108C46.75 57.9531 47.029 57.3462 47.6946 56.7156C48.3618 56.0834 49.3675 55.4796 50.6724 54.9567C53.278 53.9126 56.929 53.25 61 53.25C65.071 53.25 68.722 53.9126 71.3276 54.9567C72.6325 55.4796 73.6382 56.0834 74.3054 56.7156C74.971 57.3462 75.25 57.9531 75.25 58.5108Z" fill="white" stroke="#1C1C1C" stroke-width="1.5"/>
<path d="M122.612 36.018L123.424 35.542C124.25 36.494 125.104 37.74 125.412 38.608L124.544 39.154C124.25 38.286 123.424 36.97 122.612 36.018ZM117.768 35.248L118.51 34.646C119.448 35.276 120.526 36.228 121.044 36.872L120.274 37.558C119.756 36.872 118.678 35.878 117.768 35.248ZM115.934 35.64H117.026V38.51C117.026 38.944 117.194 39.014 118.09 39.014C118.482 39.014 120.554 39.014 121.1 39.014C121.786 39.014 121.898 38.832 121.968 37.6C122.22 37.754 122.654 37.908 122.962 37.978C122.822 39.574 122.472 39.966 121.184 39.966C120.82 39.966 118.356 39.966 118.034 39.966C116.354 39.966 115.934 39.672 115.934 38.524V35.64ZM113.918 35.85L114.898 36.046C114.66 37.18 114.184 38.51 113.568 39.35L112.588 38.888C113.176 38.174 113.666 36.942 113.918 35.85ZM115.598 27.716L116.494 27.31C117.11 28.024 117.74 28.99 117.992 29.662L117.04 30.138C116.802 29.48 116.2 28.472 115.598 27.716ZM121.562 27.268L122.64 27.702C122.038 28.752 121.324 29.942 120.722 30.74L119.854 30.334C120.442 29.508 121.17 28.206 121.562 27.268ZM115.71 31.076V33.54H122.304V31.076H115.71ZM114.59 30.082H123.466V34.534H114.59V30.082ZM127.176 28.486L127.722 27.758C128.73 28.094 130.018 28.696 130.662 29.186L130.116 30.012C129.486 29.508 128.212 28.864 127.176 28.486ZM126.686 32.07C127.708 31.776 129.22 31.3 130.746 30.81L130.914 31.734C129.542 32.196 128.114 32.658 126.994 33.036L126.686 32.07ZM132.776 27.296L133.77 27.436C133.294 28.668 132.538 29.956 131.278 30.978C131.11 30.74 130.774 30.446 130.536 30.32C131.684 29.466 132.412 28.276 132.776 27.296ZM132.79 28.542H138.096V29.368H132.202L132.79 28.542ZM137.858 28.542H138.026L138.208 28.5L138.964 28.71C138.6 29.48 138.194 30.32 137.83 30.88L136.92 30.614C137.228 30.124 137.606 29.354 137.858 28.682V28.542ZM128.548 33.806H137.606V37.614H136.528V34.772H129.584V37.712H128.548V33.806ZM132.608 35.192H133.644C133.168 37.978 131.88 39.49 127.162 40.148C127.092 39.91 126.868 39.504 126.686 39.294C131.138 38.748 132.202 37.502 132.608 35.192ZM133.21 37.964L133.798 37.194C135.52 37.712 137.858 38.594 139.09 39.196L138.474 40.078C137.284 39.448 134.974 38.524 133.21 37.964ZM134.526 28.962H135.576C135.128 31.006 134.078 32.658 131.124 33.554C131.012 33.316 130.76 32.952 130.55 32.784C133.28 32.056 134.148 30.586 134.526 28.962ZM135.142 29.914C135.87 31.216 137.452 32.224 139.286 32.616C139.062 32.812 138.796 33.19 138.656 33.456C136.752 32.91 135.156 31.706 134.358 30.138L135.142 29.914ZM142.338 32.518H152.992V33.554H142.338V32.518ZM141.54 28.934H152.628V29.928H141.54V28.934ZM141.736 32.518H142.828V34.45C142.828 36.13 142.576 38.58 141.358 40.232C141.176 40.022 140.714 39.63 140.49 39.504C141.596 37.978 141.736 35.906 141.736 34.422V32.518ZM143.668 30.446L144.592 30.068C145.054 30.656 145.586 31.496 145.824 32.042L144.872 32.476C144.648 31.93 144.144 31.062 143.668 30.446ZM149.632 30.138L150.78 30.516C150.29 31.342 149.73 32.308 149.268 32.924L148.456 32.574C148.862 31.916 149.366 30.866 149.632 30.138ZM145.95 27.52L146.986 27.226C147.42 27.73 147.854 28.444 148.05 28.92L146.944 29.27C146.776 28.78 146.356 28.052 145.95 27.52Z" fill="#73798B"/>
<path d="M113.952 79.528V77.448H123.232C124.149 77.448 124.608 76.9893 124.608 76.072V74.088C124.608 73.2773 124.245 72.7973 123.52 72.648L117.696 71.496C115.2 71.0267 113.952 69.352 113.952 66.472V65.288C113.952 61.6827 115.595 59.88 118.88 59.88H119.616V56.04H122.88V59.88H126.016L127.904 61.352V63.432H119.264C118.347 63.432 117.888 63.8907 117.888 64.808V66.568C117.888 67.4 118.251 67.88 118.976 68.008L124.8 69.192C127.296 69.704 128.544 71.368 128.544 74.184V75.592C128.544 79.1973 126.901 81 123.616 81H122.88V84.84H119.616V81H115.84L113.952 79.528ZM132.292 75.784V72.68C132.292 71.8267 132.559 71.144 133.092 70.632L134.212 69.48L133.092 68.392C132.559 67.8373 132.292 67.1333 132.292 66.28V64.136C132.292 60.6587 134.031 58.92 137.508 58.92H141.988C145.465 58.92 147.204 60.6587 147.204 64.136V66.28C147.204 67.1333 146.937 67.8373 146.404 68.392L145.284 69.48L146.404 70.632C146.937 71.144 147.204 71.8267 147.204 72.68V75.784C147.204 79.2613 145.465 81 141.988 81H137.508C134.031 81 132.292 79.2613 132.292 75.784ZM136.228 76.072C136.228 76.9893 136.687 77.448 137.604 77.448H141.892C142.809 77.448 143.268 76.9893 143.268 76.072V72.712C143.268 71.7947 142.809 71.336 141.892 71.336H137.604C136.687 71.336 136.228 71.7947 136.228 72.712V76.072ZM136.228 66.376C136.228 67.3147 136.687 67.784 137.604 67.784H141.892C142.809 67.784 143.268 67.3147 143.268 66.376V63.848C143.268 62.9307 142.809 62.472 141.892 62.472H137.604C136.687 62.472 136.228 62.9307 136.228 63.848V66.376ZM151.112 79.528V77.448H160.392C161.309 77.448 161.768 76.9893 161.768 76.072V72.712C161.768 71.7947 161.309 71.336 160.392 71.336H153.48V67.784H160.392C161.309 67.784 161.768 67.3147 161.768 66.376V63.848C161.768 62.9307 161.309 62.472 160.392 62.472H151.432V60.392L153.32 58.92H160.488C163.965 58.92 165.704 60.6587 165.704 64.136V66.28C165.704 67.1333 165.437 67.8267 164.904 68.36L163.784 69.48L164.904 70.6C165.437 71.1333 165.704 71.8267 165.704 72.68V75.784C165.704 79.2613 163.965 81 160.488 81H153L151.112 79.528ZM168.332 85L170.188 76.84H173.804L174.188 77.448L171.116 85.672L168.332 85ZM178.876 81V77.448H183.996V62.472H179.804V60.392L181.692 58.92H187.9V77.448H192.508V81H178.876ZM196.16 79.528V77.448H206.08C206.997 77.448 207.456 76.9893 207.456 76.072V72.392C207.456 71.4747 206.997 71.016 206.08 71.016H196.48V58.92H210.432V62.472H200.416V67.464H206.176C209.653 67.464 211.392 69.2027 211.392 72.68V75.784C211.392 79.2613 209.653 81 206.176 81H198.048L196.16 79.528ZM214.98 75.784V64.136C214.98 60.6587 216.718 58.92 220.196 58.92H224.676C228.153 58.92 229.892 60.6587 229.892 64.136V75.784C229.892 79.2613 228.153 81 224.676 81H220.196C216.718 81 214.98 79.2613 214.98 75.784ZM218.916 76.072C218.916 76.9893 219.374 77.448 220.292 77.448H224.58C225.497 77.448 225.956 76.9893 225.956 76.072V63.848C225.956 62.9307 225.497 62.472 224.58 62.472H220.292C219.374 62.472 218.916 62.9307 218.916 63.848V76.072ZM232.52 85L234.376 76.84H237.992L238.376 77.448L235.304 85.672L232.52 85ZM242.167 75.784V64.136C242.167 60.6587 243.906 58.92 247.383 58.92H251.863C255.34 58.92 257.079 60.6587 257.079 64.136V75.784C257.079 79.2613 255.34 81 251.863 81H247.383C243.906 81 242.167 79.2613 242.167 75.784ZM246.103 76.072C246.103 76.9893 246.562 77.448 247.479 77.448H251.767C252.684 77.448 253.143 76.9893 253.143 76.072V63.848C253.143 62.9307 252.684 62.472 251.767 62.472H247.479C246.562 62.472 246.103 62.9307 246.103 63.848V76.072ZM260.667 75.784V64.136C260.667 60.6587 262.406 58.92 265.883 58.92H270.363C273.84 58.92 275.579 60.6587 275.579 64.136V75.784C275.579 79.2613 273.84 81 270.363 81H265.883C262.406 81 260.667 79.2613 260.667 75.784ZM264.603 76.072C264.603 76.9893 265.062 77.448 265.979 77.448H270.267C271.184 77.448 271.643 76.9893 271.643 76.072V63.848C271.643 62.9307 271.184 62.472 270.267 62.472H265.979C265.062 62.472 264.603 62.9307 264.603 63.848V76.072ZM279.167 75.784V64.136C279.167 60.6587 280.906 58.92 284.383 58.92H288.863C292.34 58.92 294.079 60.6587 294.079 64.136V75.784C294.079 79.2613 292.34 81 288.863 81H284.383C280.906 81 279.167 79.2613 279.167 75.784ZM283.103 76.072C283.103 76.9893 283.562 77.448 284.479 77.448H288.767C289.684 77.448 290.143 76.9893 290.143 76.072V63.848C290.143 62.9307 289.684 62.472 288.767 62.472H284.479C283.562 62.472 283.103 62.9307 283.103 63.848V76.072ZM298.147 81V76.84H302.307V81H298.147ZM306.355 75.784V64.136C306.355 60.6587 308.093 58.92 311.571 58.92H316.051C319.528 58.92 321.267 60.6587 321.267 64.136V75.784C321.267 79.2613 319.528 81 316.051 81H311.571C308.093 81 306.355 79.2613 306.355 75.784ZM310.291 76.072C310.291 76.9893 310.749 77.448 311.667 77.448H315.955C316.872 77.448 317.331 76.9893 317.331 76.072V63.848C317.331 62.9307 316.872 62.472 315.955 62.472H311.667C310.749 62.472 310.291 62.9307 310.291 63.848V76.072ZM324.855 75.784V64.136C324.855 60.6587 326.593 58.92 330.071 58.92H334.551C338.028 58.92 339.767 60.6587 339.767 64.136V75.784C339.767 79.2613 338.028 81 334.551 81H330.071C326.593 81 324.855 79.2613 324.855 75.784ZM328.791 76.072C328.791 76.9893 329.249 77.448 330.167 77.448H334.455C335.372 77.448 335.831 76.9893 335.831 76.072V63.848C335.831 62.9307 335.372 62.472 334.455 62.472H330.167C329.249 62.472 328.791 62.9307 328.791 63.848V76.072Z" fill="#1C1C1C"/>
<path d="M120.676 98.616L121.3 98.16C121.996 98.652 122.776 99.372 123.136 99.888L122.476 100.416C122.128 99.9 121.36 99.144 120.676 98.616ZM112.612 100.98H123.376V101.784H112.612V100.98ZM113.128 99.036H118.42V99.804H113.128V99.036ZM113.992 104.592H118.192V105.192H113.992V104.592ZM113.992 106.02H118.192V106.62H113.992V106.02ZM113.992 107.472H118.372V108.216H113.992V107.472ZM115.372 97.932H116.236V101.412H115.372V97.932ZM115.792 103.488H116.536V107.724H115.792V103.488ZM116.392 101.964L117.208 102.168C116.944 102.696 116.644 103.26 116.392 103.644L115.768 103.452C115.984 103.032 116.272 102.396 116.392 101.964ZM114.268 101.88L115.048 102.084C114.568 103.248 113.812 104.424 113.044 105.18C112.9 105.048 112.576 104.772 112.396 104.652C113.152 103.968 113.848 102.924 114.268 101.88ZM114.316 103.104H118.384V103.812H114.316V108.84H113.524V103.812L114.184 103.104H114.316ZM118.948 97.944H119.86C119.812 103.656 120.784 108.084 122.284 108.084C122.608 108.084 122.752 107.508 122.824 106.032C123.016 106.224 123.34 106.404 123.568 106.488C123.424 108.396 123.1 108.96 122.212 108.96C119.836 108.96 118.996 103.872 118.948 97.944ZM121.984 102.324L122.812 102.588C121.96 105.288 120.436 107.592 118.288 108.984C118.132 108.768 117.856 108.468 117.628 108.288C119.716 107.064 121.192 104.856 121.984 102.324ZM130.456 101.952H134.848V102.852H130.456V101.952ZM124.576 107.472H135.388V108.36H124.576V107.472ZM129.976 97.956H130.924V107.928H129.976V97.956ZM126.244 100.572H127.168V107.892H126.244V100.572ZM139.811 107.124C140.827 106.308 141.623 105.64 142.199 105.12C142.775 104.592 143.259 104.044 143.651 103.476C144.051 102.9 144.251 102.336 144.251 101.784C144.251 101.264 144.123 100.856 143.867 100.56C143.619 100.256 143.215 100.104 142.655 100.104C142.111 100.104 141.687 100.276 141.383 100.62C141.087 100.956 140.927 101.408 140.903 101.976H139.847C139.879 101.08 140.151 100.388 140.663 99.9C141.175 99.412 141.835 99.168 142.643 99.168C143.467 99.168 144.119 99.396 144.599 99.852C145.087 100.308 145.331 100.936 145.331 101.736C145.331 102.4 145.131 103.048 144.731 103.68C144.339 104.304 143.891 104.856 143.387 105.336C142.883 105.808 142.239 106.36 141.455 106.992H145.583V107.904H139.811V107.124ZM146.846 103.572C146.846 102.196 147.07 101.124 147.518 100.356C147.966 99.58 148.75 99.192 149.87 99.192C150.982 99.192 151.762 99.58 152.21 100.356C152.658 101.124 152.882 102.196 152.882 103.572C152.882 104.972 152.658 106.06 152.21 106.836C151.762 107.612 150.982 108 149.87 108C148.75 108 147.966 107.612 147.518 106.836C147.07 106.06 146.846 104.972 146.846 103.572ZM151.802 103.572C151.802 102.876 151.754 102.288 151.658 101.808C151.57 101.32 151.382 100.928 151.094 100.632C150.814 100.336 150.406 100.188 149.87 100.188C149.326 100.188 148.91 100.336 148.622 100.632C148.342 100.928 148.154 101.32 148.058 101.808C147.97 102.288 147.926 102.876 147.926 103.572C147.926 104.292 147.97 104.896 148.058 105.384C148.154 105.872 148.342 106.264 148.622 106.56C148.91 106.856 149.326 107.004 149.87 107.004C150.406 107.004 150.814 106.856 151.094 106.56C151.382 106.264 151.57 105.872 151.658 105.384C151.754 104.896 151.802 104.292 151.802 103.572ZM154.249 107.124C155.265 106.308 156.061 105.64 156.637 105.12C157.213 104.592 157.697 104.044 158.089 103.476C158.489 102.9 158.689 102.336 158.689 101.784C158.689 101.264 158.561 100.856 158.305 100.56C158.057 100.256 157.653 100.104 157.093 100.104C156.549 100.104 156.125 100.276 155.821 100.62C155.525 100.956 155.365 101.408 155.341 101.976H154.285C154.317 101.08 154.589 100.388 155.101 99.9C155.613 99.412 156.273 99.168 157.081 99.168C157.905 99.168 158.557 99.396 159.037 99.852C159.525 100.308 159.769 100.936 159.769 101.736C159.769 102.4 159.569 103.048 159.169 103.68C158.777 104.304 158.329 104.856 157.825 105.336C157.321 105.808 156.677 106.36 155.893 106.992H160.021V107.904H154.249V107.124ZM161.019 106.068V105.24L165.231 99.408H166.539V105.12H167.739V106.068H166.539V108H165.459V106.068H161.019ZM165.507 100.548L162.279 105.12H165.507V100.548ZM173.57 103.14V104.064H168.782V103.14H173.57ZM175.439 103.572C175.439 102.196 175.663 101.124 176.111 100.356C176.559 99.58 177.343 99.192 178.463 99.192C179.575 99.192 180.355 99.58 180.803 100.356C181.251 101.124 181.475 102.196 181.475 103.572C181.475 104.972 181.251 106.06 180.803 106.836C180.355 107.612 179.575 108 178.463 108C177.343 108 176.559 107.612 176.111 106.836C175.663 106.06 175.439 104.972 175.439 103.572ZM180.395 103.572C180.395 102.876 180.347 102.288 180.251 101.808C180.163 101.32 179.975 100.928 179.687 100.632C179.407 100.336 178.999 100.188 178.463 100.188C177.919 100.188 177.503 100.336 177.215 100.632C176.935 100.928 176.747 101.32 176.651 101.808C176.563 102.288 176.519 102.876 176.519 103.572C176.519 104.292 176.563 104.896 176.651 105.384C176.747 105.872 176.935 106.264 177.215 106.56C177.503 106.856 177.919 107.004 178.463 107.004C178.999 107.004 179.407 106.856 179.687 106.56C179.975 106.264 180.163 105.872 180.251 105.384C180.347 104.896 180.395 104.292 180.395 103.572ZM187.81 101.388C187.634 100.5 187.086 100.056 186.166 100.056C185.454 100.056 184.922 100.332 184.57 100.884C184.218 101.428 184.046 102.328 184.054 103.584C184.238 103.168 184.542 102.844 184.966 102.612C185.398 102.372 185.878 102.252 186.406 102.252C187.23 102.252 187.886 102.508 188.374 103.02C188.87 103.532 189.118 104.24 189.118 105.144C189.118 105.688 189.01 106.176 188.794 106.608C188.586 107.04 188.266 107.384 187.834 107.64C187.41 107.896 186.894 108.024 186.286 108.024C185.462 108.024 184.818 107.84 184.354 107.472C183.89 107.104 183.566 106.596 183.382 105.948C183.198 105.3 183.106 104.5 183.106 103.548C183.106 100.612 184.13 99.144 186.178 99.144C186.962 99.144 187.578 99.356 188.026 99.78C188.474 100.204 188.738 100.74 188.818 101.388H187.81ZM186.178 103.176C185.834 103.176 185.51 103.248 185.206 103.392C184.902 103.528 184.654 103.74 184.462 104.028C184.278 104.308 184.186 104.652 184.186 105.06C184.186 105.668 184.362 106.164 184.714 106.548C185.066 106.924 185.57 107.112 186.226 107.112C186.786 107.112 187.23 106.94 187.558 106.596C187.894 106.244 188.062 105.772 188.062 105.18C188.062 104.556 187.902 104.068 187.582 103.716C187.262 103.356 186.794 103.176 186.178 103.176ZM195.332 103.14V104.064H190.544V103.14H195.332ZM196.913 100.32V99.324H199.169V108H198.065V100.32H196.913ZM201.021 101.508C201.077 100.772 201.361 100.196 201.873 99.78C202.385 99.364 203.049 99.156 203.865 99.156C204.409 99.156 204.877 99.256 205.269 99.456C205.669 99.648 205.969 99.912 206.169 100.248C206.377 100.584 206.481 100.964 206.481 101.388C206.481 101.884 206.337 102.312 206.049 102.672C205.769 103.032 205.401 103.264 204.945 103.368V103.428C205.465 103.556 205.877 103.808 206.181 104.184C206.485 104.56 206.637 105.052 206.637 105.66C206.637 106.116 206.533 106.528 206.325 106.896C206.117 107.256 205.805 107.54 205.389 107.748C204.973 107.956 204.473 108.06 203.889 108.06C203.041 108.06 202.345 107.84 201.801 107.4C201.257 106.952 200.953 106.32 200.889 105.504H201.945C202.001 105.984 202.197 106.376 202.533 106.68C202.869 106.984 203.317 107.136 203.877 107.136C204.437 107.136 204.861 106.992 205.149 106.704C205.445 106.408 205.593 106.028 205.593 105.564C205.593 104.964 205.393 104.532 204.993 104.268C204.593 104.004 203.989 103.872 203.181 103.872H202.905V102.96H203.193C203.929 102.952 204.485 102.832 204.861 102.6C205.237 102.36 205.425 101.992 205.425 101.496C205.425 101.072 205.285 100.732 205.005 100.476C204.733 100.22 204.341 100.092 203.829 100.092C203.333 100.092 202.933 100.22 202.629 100.476C202.325 100.732 202.145 101.076 202.089 101.508H201.021ZM211.022 100.32V99.324H213.278V108H212.174V100.32H211.022ZM215.13 101.508C215.186 100.772 215.47 100.196 215.982 99.78C216.494 99.364 217.158 99.156 217.974 99.156C218.518 99.156 218.986 99.256 219.378 99.456C219.778 99.648 220.078 99.912 220.278 100.248C220.486 100.584 220.59 100.964 220.59 101.388C220.59 101.884 220.446 102.312 220.158 102.672C219.878 103.032 219.51 103.264 219.054 103.368V103.428C219.574 103.556 219.986 103.808 220.29 104.184C220.594 104.56 220.746 105.052 220.746 105.66C220.746 106.116 220.642 106.528 220.434 106.896C220.226 107.256 219.914 107.54 219.498 107.748C219.082 107.956 218.582 108.06 217.998 108.06C217.15 108.06 216.454 107.84 215.91 107.4C215.366 106.952 215.062 106.32 214.998 105.504H216.054C216.11 105.984 216.306 106.376 216.642 106.68C216.978 106.984 217.426 107.136 217.986 107.136C218.546 107.136 218.97 106.992 219.258 106.704C219.554 106.408 219.702 106.028 219.702 105.564C219.702 104.964 219.502 104.532 219.102 104.268C218.702 104.004 218.098 103.872 217.29 103.872H217.014V102.96H217.302C218.038 102.952 218.594 102.832 218.97 102.6C219.346 102.36 219.534 101.992 219.534 101.496C219.534 101.072 219.394 100.732 219.114 100.476C218.842 100.22 218.45 100.092 217.938 100.092C217.442 100.092 217.042 100.22 216.738 100.476C216.434 100.732 216.254 101.076 216.198 101.508H215.13ZM222.749 108.072C222.541 108.072 222.365 108 222.221 107.856C222.077 107.712 222.005 107.536 222.005 107.328C222.005 107.12 222.077 106.944 222.221 106.8C222.365 106.656 222.541 106.584 222.749 106.584C222.949 106.584 223.117 106.656 223.253 106.8C223.397 106.944 223.469 107.12 223.469 107.328C223.469 107.536 223.397 107.712 223.253 107.856C223.117 108 222.949 108.072 222.749 108.072ZM222.749 102.936C222.541 102.936 222.365 102.864 222.221 102.72C222.077 102.576 222.005 102.4 222.005 102.192C222.005 101.984 222.077 101.808 222.221 101.664C222.365 101.52 222.541 101.448 222.749 101.448C222.949 101.448 223.117 101.52 223.253 101.664C223.397 101.808 223.469 101.984 223.469 102.192C223.469 102.4 223.397 102.576 223.253 102.72C223.117 102.864 222.949 102.936 222.749 102.936ZM224.487 100.32V99.324H226.743V108H225.639V100.32H224.487ZM228.487 107.124C229.503 106.308 230.299 105.64 230.875 105.12C231.451 104.592 231.935 104.044 232.327 103.476C232.727 102.9 232.927 102.336 232.927 101.784C232.927 101.264 232.799 100.856 232.543 100.56C232.295 100.256 231.891 100.104 231.331 100.104C230.787 100.104 230.363 100.276 230.059 100.62C229.763 100.956 229.603 101.408 229.579 101.976H228.523C228.555 101.08 228.827 100.388 229.339 99.9C229.851 99.412 230.511 99.168 231.319 99.168C232.143 99.168 232.795 99.396 233.275 99.852C233.763 100.308 234.007 100.936 234.007 101.736C234.007 102.4 233.807 103.048 233.407 103.68C233.015 104.304 232.567 104.856 232.063 105.336C231.559 105.808 230.915 106.36 230.131 106.992H234.259V107.904H228.487V107.124ZM236.049 108.072C235.841 108.072 235.665 108 235.521 107.856C235.377 107.712 235.305 107.536 235.305 107.328C235.305 107.12 235.377 106.944 235.521 106.8C235.665 106.656 235.841 106.584 236.049 106.584C236.249 106.584 236.417 106.656 236.553 106.8C236.697 106.944 236.769 107.12 236.769 107.328C236.769 107.536 236.697 107.712 236.553 107.856C236.417 108 236.249 108.072 236.049 108.072ZM236.049 102.936C235.841 102.936 235.665 102.864 235.521 102.72C235.377 102.576 235.305 102.4 235.305 102.192C235.305 101.984 235.377 101.808 235.521 101.664C235.665 101.52 235.841 101.448 236.049 101.448C236.249 101.448 236.417 101.52 236.553 101.664C236.697 101.808 236.769 101.984 236.769 102.192C236.769 102.4 236.697 102.576 236.553 102.72C236.417 102.864 236.249 102.936 236.049 102.936ZM237.788 100.32V99.324H240.044V108H238.94V100.32H237.788ZM241.656 106.068V105.24L245.868 99.408H247.176V105.12H248.376V106.068H247.176V108H246.096V106.068H241.656ZM246.144 100.548L242.916 105.12H246.144V100.548Z" fill="#73798B"/>
</svg>
