<svg width="428" height="136" viewBox="0 0 428 136" fill="none" xmlns="http://www.w3.org/2000/svg">
<rect x="1.16666" y="0.5" width="425.667" height="135" rx="9.5" fill="white"/>
<rect x="1.16666" y="0.5" width="425.667" height="135" rx="9.5" stroke="#EDEEF3"/>
<rect x="24.6667" y="36" width="64" height="64" rx="10" fill="#F8F9FC"/>
<path d="M64.7389 74.2115C65.2446 74.0768 65.7271 73.9058 66.1489 73.6835V76.4362C66.1489 77.2003 65.92 77.9102 65.3352 78.5782C64.6588 79.3511 63.6324 80.0801 62.3017 80.7099C59.663 81.9586 55.9644 82.7496 51.8388 82.7496C47.6806 82.7496 43.9597 81.9744 41.3192 80.7248C40.0048 80.1028 38.9936 79.3807 38.3283 78.6086C37.7159 77.8979 37.4167 77.1702 37.4167 76.4362V73.6793C37.8434 73.9038 38.3325 74.0762 38.8455 74.2119C40.3598 74.6126 42.3314 74.7556 44.2436 74.7788C46.1687 74.8022 48.0879 74.7041 49.522 74.6008C50.24 74.5491 50.8387 74.4959 51.2585 74.4556C51.4685 74.4354 51.6339 74.4185 51.7472 74.4065C51.7828 74.4027 51.8133 74.3994 51.8384 74.3967C51.8633 74.3994 51.8934 74.4027 51.9285 74.4064C52.041 74.4184 52.2052 74.4354 52.4136 74.4555C52.8304 74.4959 53.4248 74.5491 54.1376 74.6008C55.5613 74.7041 57.4666 74.8022 59.378 74.7788C61.2763 74.7556 63.2345 74.6125 64.7389 74.2115Z" fill="white" stroke="#1C1C1C" stroke-width="1.5"/>
<path d="M66.1489 71.5619C66.1489 72.2151 65.8464 72.8982 65.1744 73.5864C64.499 74.278 63.4851 74.9352 62.1734 75.5033C59.5525 76.6385 55.8794 77.3591 51.7828 77.3591C47.6861 77.3591 44.013 76.6385 41.3922 75.5033C40.0805 74.9352 39.0665 74.278 38.3911 73.5864C37.7191 72.8982 37.4167 72.2151 37.4167 71.5619C37.4167 70.9087 37.7191 70.2256 38.3911 69.5374C39.0665 68.8458 40.0805 68.1886 41.3922 67.6205C44.013 66.4853 47.6861 65.7646 51.7828 65.7646C55.8794 65.7646 59.5525 66.4853 62.1734 67.6205C63.4851 68.1886 64.499 68.8458 65.1744 69.5374C65.8464 70.2256 66.1489 70.9087 66.1489 71.5619Z" fill="white" stroke="#1C1C1C" stroke-width="1.5"/>
<path fill-rule="evenodd" clip-rule="evenodd" d="M67.6672 71.6673C67.3577 66.2962 59.7231 64.5 50.3504 64.5C48.4517 64.5 46.6242 64.6324 44.9146 64.877C45.0522 65.7039 45.4707 66.4851 46.1182 67.207C46.983 68.1714 48.2535 69.0284 49.8299 69.7453C52.9983 71.1861 57.3955 72.0549 62.2554 72.0549C64.1442 72.0549 65.9631 71.919 67.6672 71.6673Z" fill="#F8F9FC"/>
<path fill-rule="evenodd" clip-rule="evenodd" d="M73.6667 61.5166V67.0265C72.2357 68.2159 69.1539 68.895 66.6667 69.531V63.5202C69.1542 62.8841 72.2358 62.7062 73.6667 61.5166Z" fill="#1F32D6"/>
<path d="M75.9167 59.2285V63.4056C75.9167 64.1219 75.6177 64.8466 74.9998 65.5637C74.3312 66.3397 73.3173 67.0712 72.0031 67.7031C69.3968 68.9561 65.743 69.7501 61.6667 69.7501C57.5581 69.7501 53.8822 68.9719 51.2742 67.718C49.9761 67.094 48.9773 66.3694 48.3197 65.5942C47.7144 64.8806 47.4167 64.1475 47.4167 63.4056V59.2285H75.9167Z" stroke="#1C1C1C" stroke-width="1.5"/>
<path d="M75.9167 58.5108C75.9167 59.0686 75.6377 59.6754 74.9721 60.306C74.3048 60.9382 73.2991 61.542 71.9943 62.0649C69.3887 63.109 65.7377 63.7716 61.6667 63.7716C57.5957 63.7716 53.9446 63.109 51.339 62.0649C50.0342 61.542 49.0285 60.9382 48.3613 60.306C47.6956 59.6754 47.4167 59.0686 47.4167 58.5108C47.4167 57.9531 47.6956 57.3462 48.3613 56.7156C49.0285 56.0834 50.0342 55.4796 51.339 54.9567C53.9446 53.9126 57.5957 53.25 61.6667 53.25C65.7377 53.25 69.3887 53.9126 71.9943 54.9567C73.2991 55.4796 74.3048 56.0834 74.9721 56.7156C75.6377 57.3462 75.9167 57.9531 75.9167 58.5108Z" fill="white" stroke="#1C1C1C" stroke-width="1.5"/>
<path d="M120.003 29.27V30.572H117.413V39H115.817V30.572H113.213V29.27H120.003ZM124.965 39.126C124.237 39.126 123.579 38.9627 122.991 38.636C122.403 38.3 121.941 37.8333 121.605 37.236C121.269 36.6293 121.101 35.9293 121.101 35.136C121.101 34.352 121.274 33.6567 121.619 33.05C121.964 32.4433 122.436 31.9767 123.033 31.65C123.63 31.3233 124.298 31.16 125.035 31.16C125.772 31.16 126.44 31.3233 127.037 31.65C127.634 31.9767 128.106 32.4433 128.451 33.05C128.796 33.6567 128.969 34.352 128.969 35.136C128.969 35.92 128.792 36.6153 128.437 37.222C128.082 37.8287 127.597 38.3 126.981 38.636C126.374 38.9627 125.702 39.126 124.965 39.126ZM124.965 37.74C125.376 37.74 125.758 37.642 126.113 37.446C126.477 37.25 126.771 36.956 126.995 36.564C127.219 36.172 127.331 35.696 127.331 35.136C127.331 34.576 127.224 34.1047 127.009 33.722C126.794 33.33 126.51 33.036 126.155 32.84C125.8 32.644 125.418 32.546 125.007 32.546C124.596 32.546 124.214 32.644 123.859 32.84C123.514 33.036 123.238 33.33 123.033 33.722C122.828 34.1047 122.725 34.576 122.725 35.136C122.725 35.9667 122.935 36.6107 123.355 37.068C123.784 37.516 124.321 37.74 124.965 37.74ZM132.409 32.588V36.858C132.409 37.1473 132.474 37.3573 132.605 37.488C132.745 37.6093 132.978 37.67 133.305 37.67H134.285V39H133.025C132.306 39 131.755 38.832 131.373 38.496C130.99 38.16 130.799 37.614 130.799 36.858V32.588H129.889V31.286H130.799V29.368H132.409V31.286H134.285V32.588H132.409ZM135.224 35.108C135.224 34.3333 135.382 33.6473 135.7 33.05C136.026 32.4527 136.465 31.9907 137.016 31.664C137.576 31.328 138.192 31.16 138.864 31.16C139.47 31.16 139.998 31.2813 140.446 31.524C140.903 31.7573 141.267 32.0513 141.538 32.406V31.286H143.148V39H141.538V37.852C141.267 38.216 140.898 38.5193 140.432 38.762C139.965 39.0047 139.433 39.126 138.836 39.126C138.173 39.126 137.566 38.958 137.016 38.622C136.465 38.2767 136.026 37.8007 135.7 37.194C135.382 36.578 135.224 35.8827 135.224 35.108ZM141.538 35.136C141.538 34.604 141.426 34.142 141.202 33.75C140.987 33.358 140.702 33.0593 140.348 32.854C139.993 32.6487 139.61 32.546 139.2 32.546C138.789 32.546 138.406 32.6487 138.052 32.854C137.697 33.05 137.408 33.344 137.184 33.736C136.969 34.1187 136.862 34.576 136.862 35.108C136.862 35.64 136.969 36.1067 137.184 36.508C137.408 36.9093 137.697 37.2173 138.052 37.432C138.416 37.6373 138.798 37.74 139.2 37.74C139.61 37.74 139.993 37.6373 140.348 37.432C140.702 37.2267 140.987 36.928 141.202 36.536C141.426 36.1347 141.538 35.668 141.538 35.136ZM146.84 28.64V39H145.244V28.64H146.84ZM155.75 29.27C156.786 29.27 157.691 29.4707 158.466 29.872C159.25 30.264 159.852 30.8333 160.272 31.58C160.701 32.3173 160.916 33.1807 160.916 34.17C160.916 35.1593 160.701 36.018 160.272 36.746C159.852 37.474 159.25 38.034 158.466 38.426C157.691 38.8087 156.786 39 155.75 39H152.572V29.27H155.75ZM155.75 37.698C156.889 37.698 157.761 37.39 158.368 36.774C158.975 36.158 159.278 35.29 159.278 34.17C159.278 33.0407 158.975 32.1587 158.368 31.524C157.761 30.8893 156.889 30.572 155.75 30.572H154.168V37.698H155.75ZM169.568 34.954C169.568 35.2433 169.549 35.5047 169.512 35.738H163.618C163.665 36.354 163.893 36.8487 164.304 37.222C164.715 37.5953 165.219 37.782 165.816 37.782C166.675 37.782 167.281 37.4227 167.636 36.704H169.358C169.125 37.4133 168.7 37.9967 168.084 38.454C167.477 38.902 166.721 39.126 165.816 39.126C165.079 39.126 164.416 38.9627 163.828 38.636C163.249 38.3 162.792 37.8333 162.456 37.236C162.129 36.6293 161.966 35.9293 161.966 35.136C161.966 34.3427 162.125 33.6473 162.442 33.05C162.769 32.4433 163.221 31.9767 163.8 31.65C164.388 31.3233 165.06 31.16 165.816 31.16C166.544 31.16 167.193 31.3187 167.762 31.636C168.331 31.9533 168.775 32.4013 169.092 32.98C169.409 33.5493 169.568 34.2073 169.568 34.954ZM167.902 34.45C167.893 33.862 167.683 33.3907 167.272 33.036C166.861 32.6813 166.353 32.504 165.746 32.504C165.195 32.504 164.724 32.6813 164.332 33.036C163.94 33.3813 163.707 33.8527 163.632 34.45H167.902ZM172.735 32.42C173.005 32.0653 173.374 31.7667 173.841 31.524C174.307 31.2813 174.835 31.16 175.423 31.16C176.095 31.16 176.706 31.328 177.257 31.664C177.817 31.9907 178.255 32.4527 178.573 33.05C178.89 33.6473 179.049 34.3333 179.049 35.108C179.049 35.8827 178.89 36.578 178.573 37.194C178.255 37.8007 177.817 38.2767 177.257 38.622C176.706 38.958 176.095 39.126 175.423 39.126C174.835 39.126 174.312 39.0093 173.855 38.776C173.397 38.5333 173.024 38.2347 172.735 37.88V42.668H171.139V31.286H172.735V32.42ZM177.425 35.108C177.425 34.576 177.313 34.1187 177.089 33.736C176.874 33.344 176.585 33.05 176.221 32.854C175.866 32.6487 175.483 32.546 175.073 32.546C174.671 32.546 174.289 32.6487 173.925 32.854C173.57 33.0593 173.281 33.358 173.057 33.75C172.842 34.142 172.735 34.604 172.735 35.136C172.735 35.668 172.842 36.1347 173.057 36.536C173.281 36.928 173.57 37.2267 173.925 37.432C174.289 37.6373 174.671 37.74 175.073 37.74C175.483 37.74 175.866 37.6373 176.221 37.432C176.585 37.2173 176.874 36.9093 177.089 36.508C177.313 36.1067 177.425 35.64 177.425 35.108ZM183.973 39.126C183.245 39.126 182.587 38.9627 181.999 38.636C181.411 38.3 180.949 37.8333 180.613 37.236C180.277 36.6293 180.109 35.9293 180.109 35.136C180.109 34.352 180.281 33.6567 180.627 33.05C180.972 32.4433 181.443 31.9767 182.041 31.65C182.638 31.3233 183.305 31.16 184.043 31.16C184.78 31.16 185.447 31.3233 186.045 31.65C186.642 31.9767 187.113 32.4433 187.459 33.05C187.804 33.6567 187.977 34.352 187.977 35.136C187.977 35.92 187.799 36.6153 187.445 37.222C187.09 37.8287 186.605 38.3 185.989 38.636C185.382 38.9627 184.71 39.126 183.973 39.126ZM183.973 37.74C184.383 37.74 184.766 37.642 185.121 37.446C185.485 37.25 185.779 36.956 186.003 36.564C186.227 36.172 186.339 35.696 186.339 35.136C186.339 34.576 186.231 34.1047 186.017 33.722C185.802 33.33 185.517 33.036 185.163 32.84C184.808 32.644 184.425 32.546 184.015 32.546C183.604 32.546 183.221 32.644 182.867 32.84C182.521 33.036 182.246 33.33 182.041 33.722C181.835 34.1047 181.733 34.576 181.733 35.136C181.733 35.9667 181.943 36.6107 182.363 37.068C182.792 37.516 183.329 37.74 183.973 37.74ZM192.355 39.126C191.748 39.126 191.202 39.0187 190.717 38.804C190.241 38.58 189.863 38.2813 189.583 37.908C189.303 37.5253 189.153 37.1007 189.135 36.634H190.787C190.815 36.9607 190.969 37.236 191.249 37.46C191.538 37.6747 191.897 37.782 192.327 37.782C192.775 37.782 193.12 37.698 193.363 37.53C193.615 37.3527 193.741 37.1287 193.741 36.858C193.741 36.5687 193.601 36.354 193.321 36.214C193.05 36.074 192.616 35.92 192.019 35.752C191.44 35.5933 190.969 35.4393 190.605 35.29C190.241 35.1407 189.923 34.912 189.653 34.604C189.391 34.296 189.261 33.89 189.261 33.386C189.261 32.9753 189.382 32.602 189.625 32.266C189.867 31.9207 190.213 31.65 190.661 31.454C191.118 31.258 191.641 31.16 192.229 31.16C193.106 31.16 193.811 31.384 194.343 31.832C194.884 32.2707 195.173 32.8727 195.211 33.638H193.615C193.587 33.2927 193.447 33.0173 193.195 32.812C192.943 32.6067 192.602 32.504 192.173 32.504C191.753 32.504 191.431 32.5833 191.207 32.742C190.983 32.9007 190.871 33.1107 190.871 33.372C190.871 33.5773 190.945 33.75 191.095 33.89C191.244 34.03 191.426 34.142 191.641 34.226C191.855 34.3007 192.173 34.3987 192.593 34.52C193.153 34.6693 193.61 34.8233 193.965 34.982C194.329 35.1313 194.641 35.3553 194.903 35.654C195.164 35.9527 195.299 36.3493 195.309 36.844C195.309 37.2827 195.187 37.6747 194.945 38.02C194.702 38.3653 194.357 38.636 193.909 38.832C193.47 39.028 192.952 39.126 192.355 39.126ZM197.845 30.264C197.556 30.264 197.313 30.166 197.117 29.97C196.921 29.774 196.823 29.5313 196.823 29.242C196.823 28.9527 196.921 28.71 197.117 28.514C197.313 28.318 197.556 28.22 197.845 28.22C198.125 28.22 198.363 28.318 198.559 28.514C198.755 28.71 198.853 28.9527 198.853 29.242C198.853 29.5313 198.755 29.774 198.559 29.97C198.363 30.166 198.125 30.264 197.845 30.264ZM198.629 31.286V39H197.033V31.286H198.629ZM202.586 32.588V36.858C202.586 37.1473 202.652 37.3573 202.782 37.488C202.922 37.6093 203.156 37.67 203.482 37.67H204.462V39H203.202C202.484 39 201.933 38.832 201.55 38.496C201.168 38.16 200.976 37.614 200.976 36.858V32.588H200.066V31.286H200.976V29.368H202.586V31.286H204.462V32.588H202.586ZM208.733 39.126C208.127 39.126 207.581 39.0187 207.095 38.804C206.619 38.58 206.241 38.2813 205.961 37.908C205.681 37.5253 205.532 37.1007 205.513 36.634H207.165C207.193 36.9607 207.347 37.236 207.627 37.46C207.917 37.6747 208.276 37.782 208.705 37.782C209.153 37.782 209.499 37.698 209.741 37.53C209.993 37.3527 210.119 37.1287 210.119 36.858C210.119 36.5687 209.979 36.354 209.699 36.214C209.429 36.074 208.995 35.92 208.397 35.752C207.819 35.5933 207.347 35.4393 206.983 35.29C206.619 35.1407 206.302 34.912 206.031 34.604C205.77 34.296 205.639 33.89 205.639 33.386C205.639 32.9753 205.761 32.602 206.003 32.266C206.246 31.9207 206.591 31.65 207.039 31.454C207.497 31.258 208.019 31.16 208.607 31.16C209.485 31.16 210.189 31.384 210.721 31.832C211.263 32.2707 211.552 32.8727 211.589 33.638H209.993C209.965 33.2927 209.825 33.0173 209.573 32.812C209.321 32.6067 208.981 32.504 208.551 32.504C208.131 32.504 207.809 32.5833 207.585 32.742C207.361 32.9007 207.249 33.1107 207.249 33.372C207.249 33.5773 207.324 33.75 207.473 33.89C207.623 34.03 207.805 34.142 208.019 34.226C208.234 34.3007 208.551 34.3987 208.971 34.52C209.531 34.6693 209.989 34.8233 210.343 34.982C210.707 35.1313 211.02 35.3553 211.281 35.654C211.543 35.9527 211.678 36.3493 211.687 36.844C211.687 37.2827 211.566 37.6747 211.323 38.02C211.081 38.3653 210.735 38.636 210.287 38.832C209.849 39.028 209.331 39.126 208.733 39.126Z" fill="#73798B"/>
<path d="M228.667 38.8002C229.109 38.8002 229.467 38.442 229.467 38.0002C229.467 37.5584 229.109 37.2002 228.667 37.2002C228.225 37.2002 227.867 37.5584 227.867 38.0002C227.867 38.442 228.225 38.8002 228.667 38.8002ZM228.667 29.2002C226.899 29.2002 225.467 30.6322 225.467 32.4002H227.067C227.067 31.5202 227.787 30.8002 228.667 30.8002C229.547 30.8002 230.267 31.5202 230.267 32.4002C230.267 34.0002 227.867 33.8002 227.867 36.4002H229.467C229.467 34.6002 231.867 34.4002 231.867 32.4002C231.867 30.6322 230.435 29.2002 228.667 29.2002Z" fill="#73798B"/>
<path fill-rule="evenodd" clip-rule="evenodd" d="M228.667 27.5C226.873 27.5 225.249 28.2272 224.071 29.4047C222.894 30.5822 222.167 32.2061 222.167 34C222.167 35.7939 222.894 37.4178 224.071 38.5953C225.249 39.7728 226.873 40.5 228.667 40.5C230.461 40.5 232.084 39.7728 233.262 38.5953C234.44 37.4178 235.167 35.7939 235.167 34C235.167 32.2061 234.439 30.5822 233.262 29.4047C232.084 28.2272 230.461 27.5 228.667 27.5ZM223.011 28.344C224.458 26.897 226.459 26 228.667 26C230.875 26 232.876 26.897 234.323 28.344C235.77 29.791 236.667 31.7919 236.667 34C236.667 36.2081 235.77 38.209 234.323 39.656C232.876 41.103 230.875 42 228.667 42C226.459 42 224.458 41.103 223.011 39.656C221.564 38.209 220.667 36.2081 220.667 34C220.667 31.7919 221.564 29.791 223.011 28.344Z" fill="#73798B"/>
<path d="M114.619 79.528V77.448H123.899C124.816 77.448 125.275 76.9893 125.275 76.072V74.088C125.275 73.2773 124.912 72.7973 124.187 72.648L118.363 71.496C115.867 71.0267 114.619 69.352 114.619 66.472V65.288C114.619 61.6827 116.261 59.88 119.547 59.88H120.283V56.04H123.547V59.88H126.683L128.571 61.352V63.432H119.931C119.013 63.432 118.555 63.8907 118.555 64.808V66.568C118.555 67.4 118.917 67.88 119.643 68.008L125.467 69.192C127.963 69.704 129.211 71.368 129.211 74.184V75.592C129.211 79.1973 127.568 81 124.283 81H123.547V84.84H120.283V81H116.507L114.619 79.528ZM133.279 79.528V77.448H142.559C143.476 77.448 143.935 76.9893 143.935 76.072V72.712C143.935 71.7947 143.476 71.336 142.559 71.336H135.647V67.784H142.559C143.476 67.784 143.935 67.3147 143.935 66.376V63.848C143.935 62.9307 143.476 62.472 142.559 62.472H133.599V60.392L135.487 58.92H142.655C146.132 58.92 147.871 60.6587 147.871 64.136V66.28C147.871 67.1333 147.604 67.8267 147.071 68.36L145.951 69.48L147.071 70.6C147.604 71.1333 147.871 71.8267 147.871 72.68V75.784C147.871 79.2613 146.132 81 142.655 81H135.167L133.279 79.528ZM151.459 62.472V58.92H166.371V65.352L158.147 81H154.659L154.179 80.168L162.435 64.52V62.472H151.459ZM168.999 85L170.855 76.84H174.471L174.855 77.448L171.783 85.672L168.999 85ZM178.326 79.528V77.448H188.246C189.163 77.448 189.622 76.9893 189.622 76.072V72.392C189.622 71.4747 189.163 71.016 188.246 71.016H178.646V58.92H192.598V62.472H182.582V67.464H188.342C191.819 67.464 193.558 69.2027 193.558 72.68V75.784C193.558 79.2613 191.819 81 188.342 81H180.214L178.326 79.528ZM197.146 75.784V64.136C197.146 60.6587 198.885 58.92 202.362 58.92H206.842C210.319 58.92 212.058 60.6587 212.058 64.136V75.784C212.058 79.2613 210.319 81 206.842 81H202.362C198.885 81 197.146 79.2613 197.146 75.784ZM201.082 76.072C201.082 76.9893 201.541 77.448 202.458 77.448H206.746C207.663 77.448 208.122 76.9893 208.122 76.072V63.848C208.122 62.9307 207.663 62.472 206.746 62.472H202.458C201.541 62.472 201.082 62.9307 201.082 63.848V76.072ZM215.646 75.784V64.136C215.646 60.6587 217.385 58.92 220.862 58.92H225.342C228.819 58.92 230.558 60.6587 230.558 64.136V75.784C230.558 79.2613 228.819 81 225.342 81H220.862C217.385 81 215.646 79.2613 215.646 75.784ZM219.582 76.072C219.582 76.9893 220.041 77.448 220.958 77.448H225.246C226.163 77.448 226.622 76.9893 226.622 76.072V63.848C226.622 62.9307 226.163 62.472 225.246 62.472H220.958C220.041 62.472 219.582 62.9307 219.582 63.848V76.072ZM233.186 85L235.042 76.84H238.658L239.042 77.448L235.97 85.672L233.186 85ZM242.834 75.784V64.136C242.834 60.6587 244.572 58.92 248.05 58.92H252.53C256.007 58.92 257.746 60.6587 257.746 64.136V75.784C257.746 79.2613 256.007 81 252.53 81H248.05C244.572 81 242.834 79.2613 242.834 75.784ZM246.77 76.072C246.77 76.9893 247.228 77.448 248.146 77.448H252.434C253.351 77.448 253.81 76.9893 253.81 76.072V63.848C253.81 62.9307 253.351 62.472 252.434 62.472H248.146C247.228 62.472 246.77 62.9307 246.77 63.848V76.072ZM261.334 75.784V64.136C261.334 60.6587 263.072 58.92 266.55 58.92H271.03C274.507 58.92 276.246 60.6587 276.246 64.136V75.784C276.246 79.2613 274.507 81 271.03 81H266.55C263.072 81 261.334 79.2613 261.334 75.784ZM265.27 76.072C265.27 76.9893 265.728 77.448 266.646 77.448H270.934C271.851 77.448 272.31 76.9893 272.31 76.072V63.848C272.31 62.9307 271.851 62.472 270.934 62.472H266.646C265.728 62.472 265.27 62.9307 265.27 63.848V76.072ZM279.834 75.784V64.136C279.834 60.6587 281.572 58.92 285.05 58.92H289.53C293.007 58.92 294.746 60.6587 294.746 64.136V75.784C294.746 79.2613 293.007 81 289.53 81H285.05C281.572 81 279.834 79.2613 279.834 75.784ZM283.77 76.072C283.77 76.9893 284.228 77.448 285.146 77.448H289.434C290.351 77.448 290.81 76.9893 290.81 76.072V63.848C290.81 62.9307 290.351 62.472 289.434 62.472H285.146C284.228 62.472 283.77 62.9307 283.77 63.848V76.072ZM298.814 81V76.84H302.974V81H298.814ZM307.021 75.784V64.136C307.021 60.6587 308.76 58.92 312.237 58.92H316.717C320.194 58.92 321.933 60.6587 321.933 64.136V75.784C321.933 79.2613 320.194 81 316.717 81H312.237C308.76 81 307.021 79.2613 307.021 75.784ZM310.957 76.072C310.957 76.9893 311.416 77.448 312.333 77.448H316.621C317.538 77.448 317.997 76.9893 317.997 76.072V63.848C317.997 62.9307 317.538 62.472 316.621 62.472H312.333C311.416 62.472 310.957 62.9307 310.957 63.848V76.072ZM325.521 75.784V64.136C325.521 60.6587 327.26 58.92 330.737 58.92H335.217C338.694 58.92 340.433 60.6587 340.433 64.136V75.784C340.433 79.2613 338.694 81 335.217 81H330.737C327.26 81 325.521 79.2613 325.521 75.784ZM329.457 76.072C329.457 76.9893 329.916 77.448 330.833 77.448H335.121C336.038 77.448 336.497 76.9893 336.497 76.072V63.848C336.497 62.9307 336.038 62.472 335.121 62.472H330.833C329.916 62.472 329.457 62.9307 329.457 63.848V76.072Z" fill="#1C1C1C"/>
<path d="M114.155 100.356C113.947 100.356 113.771 100.284 113.627 100.14C113.483 99.996 113.411 99.82 113.411 99.612C113.411 99.404 113.483 99.228 113.627 99.084C113.771 98.94 113.947 98.868 114.155 98.868C114.355 98.868 114.523 98.94 114.659 99.084C114.803 99.228 114.875 99.404 114.875 99.612C114.875 99.82 114.803 99.996 114.659 100.14C114.523 100.284 114.355 100.356 114.155 100.356ZM114.683 101.424V108H113.591V101.424H114.683ZM119.748 101.304C120.548 101.304 121.196 101.548 121.692 102.036C122.188 102.516 122.436 103.212 122.436 104.124V108H121.356V104.28C121.356 103.624 121.192 103.124 120.864 102.78C120.536 102.428 120.088 102.252 119.52 102.252C118.944 102.252 118.484 102.432 118.14 102.792C117.804 103.152 117.636 103.676 117.636 104.364V108H116.544V101.424H117.636V102.36C117.852 102.024 118.144 101.764 118.512 101.58C118.888 101.396 119.3 101.304 119.748 101.304ZM128.751 102.324V106.2C128.751 106.52 128.819 106.748 128.955 106.884C129.091 107.012 129.327 107.076 129.663 107.076H130.467V108H129.483C128.875 108 128.419 107.86 128.115 107.58C127.811 107.3 127.659 106.84 127.659 106.2V102.324H126.807V101.424H127.659V99.768H128.751V101.424H130.467V102.324H128.751ZM135.054 101.304C135.55 101.304 135.998 101.412 136.398 101.628C136.798 101.836 137.11 102.152 137.334 102.576C137.566 103 137.682 103.516 137.682 104.124V108H136.602V104.28C136.602 103.624 136.438 103.124 136.11 102.78C135.782 102.428 135.334 102.252 134.766 102.252C134.19 102.252 133.73 102.432 133.386 102.792C133.05 103.152 132.882 103.676 132.882 104.364V108H131.79V99.12H132.882V102.36C133.098 102.024 133.394 101.764 133.77 101.58C134.154 101.396 134.582 101.304 135.054 101.304ZM145.466 104.46C145.466 104.668 145.454 104.888 145.43 105.12H140.174C140.214 105.768 140.434 106.276 140.834 106.644C141.242 107.004 141.734 107.184 142.31 107.184C142.782 107.184 143.174 107.076 143.486 106.86C143.806 106.636 144.03 106.34 144.158 105.972H145.334C145.158 106.604 144.806 107.12 144.278 107.52C143.75 107.912 143.094 108.108 142.31 108.108C141.686 108.108 141.126 107.968 140.63 107.688C140.142 107.408 139.758 107.012 139.478 106.5C139.198 105.98 139.058 105.38 139.058 104.7C139.058 104.02 139.194 103.424 139.466 102.912C139.738 102.4 140.118 102.008 140.606 101.736C141.102 101.456 141.67 101.316 142.31 101.316C142.934 101.316 143.486 101.452 143.966 101.724C144.446 101.996 144.814 102.372 145.07 102.852C145.334 103.324 145.466 103.86 145.466 104.46ZM144.338 104.232C144.338 103.816 144.246 103.46 144.062 103.164C143.878 102.86 143.626 102.632 143.306 102.48C142.994 102.32 142.646 102.24 142.262 102.24C141.71 102.24 141.238 102.416 140.846 102.768C140.462 103.12 140.242 103.608 140.186 104.232H144.338ZM151.198 99.12V108H150.106V99.12H151.198ZM152.651 104.688C152.651 104.016 152.787 103.428 153.059 102.924C153.331 102.412 153.703 102.016 154.175 101.736C154.655 101.456 155.187 101.316 155.771 101.316C156.347 101.316 156.847 101.44 157.271 101.688C157.695 101.936 158.011 102.248 158.219 102.624V101.424H159.323V108H158.219V106.776C158.003 107.16 157.679 107.48 157.247 107.736C156.823 107.984 156.327 108.108 155.759 108.108C155.175 108.108 154.647 107.964 154.175 107.676C153.703 107.388 153.331 106.984 153.059 106.464C152.787 105.944 152.651 105.352 152.651 104.688ZM158.219 104.7C158.219 104.204 158.119 103.772 157.919 103.404C157.719 103.036 157.447 102.756 157.103 102.564C156.767 102.364 156.395 102.264 155.987 102.264C155.579 102.264 155.207 102.36 154.871 102.552C154.535 102.744 154.267 103.024 154.067 103.392C153.867 103.76 153.767 104.192 153.767 104.688C153.767 105.192 153.867 105.632 154.067 106.008C154.267 106.376 154.535 106.66 154.871 106.86C155.207 107.052 155.579 107.148 155.987 107.148C156.395 107.148 156.767 107.052 157.103 106.86C157.447 106.66 157.719 106.376 157.919 106.008C158.119 105.632 158.219 105.196 158.219 104.7ZM163.497 108.108C162.993 108.108 162.541 108.024 162.141 107.856C161.741 107.68 161.425 107.44 161.193 107.136C160.961 106.824 160.833 106.468 160.809 106.068H161.937C161.969 106.396 162.121 106.664 162.393 106.872C162.673 107.08 163.037 107.184 163.485 107.184C163.901 107.184 164.229 107.092 164.469 106.908C164.709 106.724 164.829 106.492 164.829 106.212C164.829 105.924 164.701 105.712 164.445 105.576C164.189 105.432 163.793 105.292 163.257 105.156C162.769 105.028 162.369 104.9 162.057 104.772C161.753 104.636 161.489 104.44 161.265 104.184C161.049 103.92 160.941 103.576 160.941 103.152C160.941 102.816 161.041 102.508 161.241 102.228C161.441 101.948 161.725 101.728 162.093 101.568C162.461 101.4 162.881 101.316 163.353 101.316C164.081 101.316 164.669 101.5 165.117 101.868C165.565 102.236 165.805 102.74 165.837 103.38H164.745C164.721 103.036 164.581 102.76 164.325 102.552C164.077 102.344 163.741 102.24 163.317 102.24C162.925 102.24 162.613 102.324 162.381 102.492C162.149 102.66 162.033 102.88 162.033 103.152C162.033 103.368 162.101 103.548 162.237 103.692C162.381 103.828 162.557 103.94 162.765 104.028C162.981 104.108 163.277 104.2 163.653 104.304C164.125 104.432 164.509 104.56 164.805 104.688C165.101 104.808 165.353 104.992 165.561 105.24C165.777 105.488 165.889 105.812 165.897 106.212C165.897 106.572 165.797 106.896 165.597 107.184C165.397 107.472 165.113 107.7 164.745 107.868C164.385 108.028 163.969 108.108 163.497 108.108ZM168.77 102.324V106.2C168.77 106.52 168.838 106.748 168.974 106.884C169.11 107.012 169.346 107.076 169.682 107.076H170.486V108H169.502C168.894 108 168.438 107.86 168.134 107.58C167.83 107.3 167.678 106.84 167.678 106.2V102.324H166.826V101.424H167.678V99.768H168.77V101.424H170.486V102.324H168.77ZM174.697 107.124C175.713 106.308 176.509 105.64 177.085 105.12C177.661 104.592 178.145 104.044 178.537 103.476C178.937 102.9 179.137 102.336 179.137 101.784C179.137 101.264 179.009 100.856 178.753 100.56C178.505 100.256 178.101 100.104 177.541 100.104C176.997 100.104 176.573 100.276 176.269 100.62C175.973 100.956 175.813 101.408 175.789 101.976H174.733C174.765 101.08 175.037 100.388 175.549 99.9C176.061 99.412 176.721 99.168 177.529 99.168C178.353 99.168 179.005 99.396 179.485 99.852C179.973 100.308 180.217 100.936 180.217 101.736C180.217 102.4 180.017 103.048 179.617 103.68C179.225 104.304 178.777 104.856 178.273 105.336C177.769 105.808 177.125 106.36 176.341 106.992H180.469V107.904H174.697V107.124ZM181.467 106.068V105.24L185.679 99.408H186.987V105.12H188.187V106.068H186.987V108H185.907V106.068H181.467ZM185.955 100.548L182.727 105.12H185.955V100.548ZM195.921 101.304C196.417 101.304 196.865 101.412 197.265 101.628C197.665 101.836 197.977 102.152 198.201 102.576C198.433 103 198.549 103.516 198.549 104.124V108H197.469V104.28C197.469 103.624 197.305 103.124 196.977 102.78C196.649 102.428 196.201 102.252 195.633 102.252C195.057 102.252 194.597 102.432 194.253 102.792C193.917 103.152 193.749 103.676 193.749 104.364V108H192.657V99.12H193.749V102.36C193.965 102.024 194.261 101.764 194.637 101.58C195.021 101.396 195.449 101.304 195.921 101.304ZM203.201 108.108C202.585 108.108 202.025 107.968 201.521 107.688C201.025 107.408 200.633 107.012 200.345 106.5C200.065 105.98 199.925 105.38 199.925 104.7C199.925 104.028 200.069 103.436 200.357 102.924C200.653 102.404 201.053 102.008 201.557 101.736C202.061 101.456 202.625 101.316 203.249 101.316C203.873 101.316 204.437 101.456 204.941 101.736C205.445 102.008 205.841 102.4 206.129 102.912C206.425 103.424 206.573 104.02 206.573 104.7C206.573 105.38 206.421 105.98 206.117 106.5C205.821 107.012 205.417 107.408 204.905 107.688C204.393 107.968 203.825 108.108 203.201 108.108ZM203.201 107.148C203.593 107.148 203.961 107.056 204.305 106.872C204.649 106.688 204.925 106.412 205.133 106.044C205.349 105.676 205.457 105.228 205.457 104.7C205.457 104.172 205.353 103.724 205.145 103.356C204.937 102.988 204.665 102.716 204.329 102.54C203.993 102.356 203.629 102.264 203.237 102.264C202.837 102.264 202.469 102.356 202.133 102.54C201.805 102.716 201.541 102.988 201.341 103.356C201.141 103.724 201.041 104.172 201.041 104.7C201.041 105.236 201.137 105.688 201.329 106.056C201.529 106.424 201.793 106.7 202.121 106.884C202.449 107.06 202.809 107.148 203.201 107.148ZM213.841 101.424V108H212.749V107.028C212.541 107.364 212.249 107.628 211.873 107.82C211.505 108.004 211.097 108.096 210.649 108.096C210.137 108.096 209.677 107.992 209.269 107.784C208.861 107.568 208.537 107.248 208.297 106.824C208.065 106.4 207.949 105.884 207.949 105.276V101.424H209.029V105.132C209.029 105.78 209.193 106.28 209.521 106.632C209.849 106.976 210.297 107.148 210.865 107.148C211.449 107.148 211.909 106.968 212.245 106.608C212.581 106.248 212.749 105.724 212.749 105.036V101.424H213.841ZM216.776 102.492C216.968 102.116 217.24 101.824 217.592 101.616C217.952 101.408 218.388 101.304 218.9 101.304V102.432H218.612C217.388 102.432 216.776 103.096 216.776 104.424V108H215.684V101.424H216.776V102.492ZM222.489 108.108C221.985 108.108 221.533 108.024 221.133 107.856C220.733 107.68 220.417 107.44 220.185 107.136C219.953 106.824 219.825 106.468 219.801 106.068H220.929C220.961 106.396 221.113 106.664 221.385 106.872C221.665 107.08 222.029 107.184 222.477 107.184C222.893 107.184 223.221 107.092 223.461 106.908C223.701 106.724 223.821 106.492 223.821 106.212C223.821 105.924 223.693 105.712 223.437 105.576C223.181 105.432 222.785 105.292 222.249 105.156C221.761 105.028 221.361 104.9 221.049 104.772C220.745 104.636 220.481 104.44 220.257 104.184C220.041 103.92 219.933 103.576 219.933 103.152C219.933 102.816 220.033 102.508 220.233 102.228C220.433 101.948 220.717 101.728 221.085 101.568C221.453 101.4 221.873 101.316 222.345 101.316C223.073 101.316 223.661 101.5 224.109 101.868C224.557 102.236 224.797 102.74 224.829 103.38H223.737C223.713 103.036 223.573 102.76 223.317 102.552C223.069 102.344 222.733 102.24 222.309 102.24C221.917 102.24 221.605 102.324 221.373 102.492C221.141 102.66 221.025 102.88 221.025 103.152C221.025 103.368 221.093 103.548 221.229 103.692C221.373 103.828 221.549 103.94 221.757 104.028C221.973 104.108 222.269 104.2 222.645 104.304C223.117 104.432 223.501 104.56 223.797 104.688C224.093 104.808 224.345 104.992 224.553 105.24C224.769 105.488 224.881 105.812 224.889 106.212C224.889 106.572 224.789 106.896 224.589 107.184C224.389 107.472 224.105 107.7 223.737 107.868C223.377 108.028 222.961 108.108 222.489 108.108Z" fill="#73798B"/>
</svg>
