<svg width="428" height="136" viewBox="0 0 428 136" fill="none" xmlns="http://www.w3.org/2000/svg">
<rect x="1.16666" y="0.5" width="425.667" height="135" rx="9.5" fill="white"/>
<rect x="1.16666" y="0.5" width="425.667" height="135" rx="9.5" stroke="#EDEEF3"/>
<rect x="24.6667" y="36" width="64" height="64" rx="10" fill="#F8F9FC"/>
<path d="M64.7389 74.2115C65.2446 74.0768 65.7271 73.9058 66.1489 73.6835V76.4362C66.1489 77.2003 65.92 77.9102 65.3352 78.5782C64.6588 79.3511 63.6324 80.0801 62.3017 80.7099C59.663 81.9586 55.9644 82.7496 51.8388 82.7496C47.6806 82.7496 43.9597 81.9744 41.3192 80.7248C40.0048 80.1028 38.9936 79.3807 38.3283 78.6086C37.7159 77.8979 37.4167 77.1702 37.4167 76.4362V73.6793C37.8434 73.9038 38.3325 74.0762 38.8455 74.2119C40.3598 74.6126 42.3314 74.7556 44.2436 74.7788C46.1687 74.8022 48.0879 74.7041 49.522 74.6008C50.24 74.5491 50.8387 74.4959 51.2585 74.4556C51.4685 74.4354 51.6339 74.4185 51.7472 74.4065C51.7828 74.4027 51.8133 74.3994 51.8384 74.3967C51.8633 74.3994 51.8934 74.4027 51.9285 74.4064C52.041 74.4184 52.2052 74.4354 52.4136 74.4555C52.8304 74.4959 53.4248 74.5491 54.1376 74.6008C55.5613 74.7041 57.4666 74.8022 59.378 74.7788C61.2763 74.7556 63.2345 74.6125 64.7389 74.2115Z" fill="white" stroke="#1C1C1C" stroke-width="1.5"/>
<path d="M66.1489 71.5619C66.1489 72.2151 65.8464 72.8982 65.1744 73.5864C64.499 74.278 63.4851 74.9352 62.1734 75.5033C59.5525 76.6385 55.8794 77.3591 51.7828 77.3591C47.6861 77.3591 44.013 76.6385 41.3922 75.5033C40.0805 74.9352 39.0665 74.278 38.3911 73.5864C37.7191 72.8982 37.4167 72.2151 37.4167 71.5619C37.4167 70.9087 37.7191 70.2256 38.3911 69.5374C39.0665 68.8458 40.0805 68.1886 41.3922 67.6205C44.013 66.4853 47.6861 65.7646 51.7828 65.7646C55.8794 65.7646 59.5525 66.4853 62.1734 67.6205C63.4851 68.1886 64.499 68.8458 65.1744 69.5374C65.8464 70.2256 66.1489 70.9087 66.1489 71.5619Z" fill="white" stroke="#1C1C1C" stroke-width="1.5"/>
<path fill-rule="evenodd" clip-rule="evenodd" d="M67.6672 71.6673C67.3577 66.2962 59.7231 64.5 50.3504 64.5C48.4517 64.5 46.6242 64.6324 44.9146 64.877C45.0522 65.7039 45.4707 66.4851 46.1182 67.207C46.983 68.1714 48.2535 69.0284 49.8299 69.7453C52.9983 71.1861 57.3955 72.0549 62.2554 72.0549C64.1442 72.0549 65.9631 71.919 67.6672 71.6673Z" fill="#F8F9FC"/>
<path fill-rule="evenodd" clip-rule="evenodd" d="M73.6667 61.5166V67.0265C72.2357 68.2159 69.1539 68.895 66.6667 69.531V63.5202C69.1542 62.8841 72.2358 62.7062 73.6667 61.5166Z" fill="#1F32D6"/>
<path d="M75.9167 59.2285V63.4056C75.9167 64.1219 75.6177 64.8466 74.9998 65.5637C74.3312 66.3397 73.3173 67.0712 72.0031 67.7031C69.3968 68.9561 65.743 69.7501 61.6667 69.7501C57.5581 69.7501 53.8822 68.9719 51.2742 67.718C49.9761 67.094 48.9773 66.3694 48.3197 65.5942C47.7144 64.8806 47.4167 64.1475 47.4167 63.4056V59.2285H75.9167Z" stroke="#1C1C1C" stroke-width="1.5"/>
<path d="M75.9167 58.5108C75.9167 59.0686 75.6377 59.6754 74.9721 60.306C74.3048 60.9382 73.2991 61.542 71.9943 62.0649C69.3887 63.109 65.7377 63.7716 61.6667 63.7716C57.5957 63.7716 53.9446 63.109 51.339 62.0649C50.0342 61.542 49.0285 60.9382 48.3613 60.306C47.6956 59.6754 47.4167 59.0686 47.4167 58.5108C47.4167 57.9531 47.6956 57.3462 48.3613 56.7156C49.0285 56.0834 50.0342 55.4796 51.339 54.9567C53.9446 53.9126 57.5957 53.25 61.6667 53.25C65.7377 53.25 69.3887 53.9126 71.9943 54.9567C73.2991 55.4796 74.3048 56.0834 74.9721 56.7156C75.6377 57.3462 75.9167 57.9531 75.9167 58.5108Z" fill="white" stroke="#1C1C1C" stroke-width="1.5"/>
<path d="M121.246 34.114H122.296V38.524C122.296 38.944 122.394 39.028 122.954 39.028C123.206 39.028 124.424 39.028 124.76 39.028C125.32 39.028 125.404 38.706 125.46 36.592C125.698 36.788 126.146 36.97 126.44 37.04C126.314 39.42 126.034 40.036 124.844 40.036C124.564 40.036 123.094 40.036 122.828 40.036C121.582 40.036 121.246 39.686 121.246 38.524V34.114ZM117.62 34.184H118.726C118.488 37.236 117.774 39.14 114.218 40.106C114.106 39.84 113.826 39.42 113.602 39.21C116.878 38.398 117.424 36.816 117.62 34.184ZM121.344 30.824L122.198 30.292C123.57 31.342 125.222 32.854 125.978 33.918L125.054 34.534C124.34 33.47 122.744 31.902 121.344 30.824ZM118.068 29.494L119.188 29.844C118.586 31.048 117.816 32.504 117.186 33.414L116.318 33.078C116.92 32.126 117.662 30.586 118.068 29.494ZM114.358 32.742C116.836 32.686 120.798 32.56 124.508 32.42L124.452 33.386C120.826 33.568 116.934 33.736 114.414 33.82L114.358 32.742ZM113.924 28.934H126.09V29.928H113.924V28.934ZM119.426 27.24H120.504V29.48H119.426V27.24ZM133.412 28.892H134.49V40.106H133.412V28.892ZM129.1 31.538H138.424V32.56H130.164V38.496H129.1V31.538ZM137.892 31.538H138.97V37.054C138.97 37.656 138.844 37.978 138.382 38.146C137.92 38.328 137.164 38.342 136.03 38.342C135.988 38.034 135.82 37.586 135.666 37.278C136.562 37.306 137.346 37.306 137.584 37.292C137.822 37.278 137.892 37.222 137.892 37.026V31.538ZM139.446 27.646L139.866 28.598C136.898 29.102 132.11 29.382 128.246 29.438C128.232 29.144 128.106 28.738 128.008 28.5C131.9 28.402 136.688 28.122 139.446 27.646ZM151.612 36.018L152.424 35.542C153.25 36.494 154.104 37.74 154.412 38.608L153.544 39.154C153.25 38.286 152.424 36.97 151.612 36.018ZM146.768 35.248L147.51 34.646C148.448 35.276 149.526 36.228 150.044 36.872L149.274 37.558C148.756 36.872 147.678 35.878 146.768 35.248ZM144.934 35.64H146.026V38.51C146.026 38.944 146.194 39.014 147.09 39.014C147.482 39.014 149.554 39.014 150.1 39.014C150.786 39.014 150.898 38.832 150.968 37.6C151.22 37.754 151.654 37.908 151.962 37.978C151.822 39.574 151.472 39.966 150.184 39.966C149.82 39.966 147.356 39.966 147.034 39.966C145.354 39.966 144.934 39.672 144.934 38.524V35.64ZM142.918 35.85L143.898 36.046C143.66 37.18 143.184 38.51 142.568 39.35L141.588 38.888C142.176 38.174 142.666 36.942 142.918 35.85ZM144.598 27.716L145.494 27.31C146.11 28.024 146.74 28.99 146.992 29.662L146.04 30.138C145.802 29.48 145.2 28.472 144.598 27.716ZM150.562 27.268L151.64 27.702C151.038 28.752 150.324 29.942 149.722 30.74L148.854 30.334C149.442 29.508 150.17 28.206 150.562 27.268ZM144.71 31.076V33.54H151.304V31.076H144.71ZM143.59 30.082H152.466V34.534H143.59V30.082ZM156.918 28.164L157.59 27.492C158.374 28.108 159.368 29.004 159.83 29.592L159.13 30.362C158.668 29.774 157.688 28.822 156.918 28.164ZM157.73 39.854L157.534 38.818L157.842 38.37L160.642 36.452C160.712 36.746 160.88 37.18 160.992 37.39C158.346 39.266 157.954 39.56 157.73 39.854ZM155.644 31.636H158.514V32.686H155.644V31.636ZM160.194 31.888H168.426V32.966H160.194V31.888ZM163.75 27.282H164.856V40.12H163.75V27.282ZM157.73 39.854C157.632 39.574 157.366 39.112 157.17 38.888C157.436 38.72 157.856 38.314 157.856 37.712V31.636H158.92V38.65C158.92 38.65 157.73 39.448 157.73 39.854Z" fill="#73798B"/>
<path d="M185 38.8002C185.442 38.8002 185.8 38.442 185.8 38.0002C185.8 37.5584 185.442 37.2002 185 37.2002C184.558 37.2002 184.2 37.5584 184.2 38.0002C184.2 38.442 184.558 38.8002 185 38.8002ZM185 29.2002C183.232 29.2002 181.8 30.6322 181.8 32.4002H183.4C183.4 31.5202 184.12 30.8002 185 30.8002C185.88 30.8002 186.6 31.5202 186.6 32.4002C186.6 34.0002 184.2 33.8002 184.2 36.4002H185.8C185.8 34.6002 188.2 34.4002 188.2 32.4002C188.2 30.6322 186.768 29.2002 185 29.2002Z" fill="#73798B"/>
<path fill-rule="evenodd" clip-rule="evenodd" d="M185 27.5C183.206 27.5 181.582 28.2272 180.405 29.4047C179.227 30.5822 178.5 32.2061 178.5 34C178.5 35.7939 179.227 37.4178 180.405 38.5953C181.582 39.7728 183.206 40.5 185 40.5C186.794 40.5 188.418 39.7728 189.595 38.5953C190.773 37.4178 191.5 35.7939 191.5 34C191.5 32.2061 190.773 30.5822 189.595 29.4047C188.418 28.2272 186.794 27.5 185 27.5ZM179.344 28.344C180.791 26.897 182.792 26 185 26C187.208 26 189.209 26.897 190.656 28.344C192.103 29.791 193 31.7919 193 34C193 36.2081 192.103 38.209 190.656 39.656C189.209 41.103 187.208 42 185 42C182.792 42 180.791 41.103 179.344 39.656C177.897 38.209 177 36.2081 177 34C177 31.7919 177.897 29.791 179.344 28.344Z" fill="#73798B"/>
<path d="M114.952 79.528V77.448H124.232C125.149 77.448 125.608 76.9893 125.608 76.072V74.088C125.608 73.2773 125.245 72.7973 124.52 72.648L118.696 71.496C116.2 71.0267 114.952 69.352 114.952 66.472V65.288C114.952 61.6827 116.595 59.88 119.88 59.88H120.616V56.04H123.88V59.88H127.016L128.904 61.352V63.432H120.264C119.347 63.432 118.888 63.8907 118.888 64.808V66.568C118.888 67.4 119.251 67.88 119.976 68.008L125.8 69.192C128.296 69.704 129.544 71.368 129.544 74.184V75.592C129.544 79.1973 127.901 81 124.616 81H123.88V84.84H120.616V81H116.84L114.952 79.528ZM133.612 79.528V77.448H142.892C143.809 77.448 144.268 76.9893 144.268 76.072V72.712C144.268 71.7947 143.809 71.336 142.892 71.336H135.98V67.784H142.892C143.809 67.784 144.268 67.3147 144.268 66.376V63.848C144.268 62.9307 143.809 62.472 142.892 62.472H133.932V60.392L135.82 58.92H142.988C146.465 58.92 148.204 60.6587 148.204 64.136V66.28C148.204 67.1333 147.937 67.8267 147.404 68.36L146.284 69.48L147.404 70.6C147.937 71.1333 148.204 71.8267 148.204 72.68V75.784C148.204 79.2613 146.465 81 142.988 81H135.5L133.612 79.528ZM151.792 62.472V58.92H166.704V65.352L158.48 81H154.992L154.512 80.168L162.768 64.52V62.472H151.792ZM169.332 85L171.188 76.84H174.804L175.188 77.448L172.116 85.672L169.332 85ZM178.66 79.528V77.448H188.58C189.497 77.448 189.956 76.9893 189.956 76.072V72.392C189.956 71.4747 189.497 71.016 188.58 71.016H178.98V58.92H192.932V62.472H182.916V67.464H188.676C192.153 67.464 193.892 69.2027 193.892 72.68V75.784C193.892 79.2613 192.153 81 188.676 81H180.548L178.66 79.528ZM197.48 75.784V64.136C197.48 60.6587 199.218 58.92 202.696 58.92H207.176C210.653 58.92 212.392 60.6587 212.392 64.136V75.784C212.392 79.2613 210.653 81 207.176 81H202.696C199.218 81 197.48 79.2613 197.48 75.784ZM201.416 76.072C201.416 76.9893 201.874 77.448 202.792 77.448H207.08C207.997 77.448 208.456 76.9893 208.456 76.072V63.848C208.456 62.9307 207.997 62.472 207.08 62.472H202.792C201.874 62.472 201.416 62.9307 201.416 63.848V76.072ZM215.98 75.784V64.136C215.98 60.6587 217.718 58.92 221.196 58.92H225.676C229.153 58.92 230.892 60.6587 230.892 64.136V75.784C230.892 79.2613 229.153 81 225.676 81H221.196C217.718 81 215.98 79.2613 215.98 75.784ZM219.916 76.072C219.916 76.9893 220.374 77.448 221.292 77.448H225.58C226.497 77.448 226.956 76.9893 226.956 76.072V63.848C226.956 62.9307 226.497 62.472 225.58 62.472H221.292C220.374 62.472 219.916 62.9307 219.916 63.848V76.072ZM233.52 85L235.376 76.84H238.992L239.376 77.448L236.304 85.672L233.52 85ZM243.167 75.784V64.136C243.167 60.6587 244.906 58.92 248.383 58.92H252.863C256.34 58.92 258.079 60.6587 258.079 64.136V75.784C258.079 79.2613 256.34 81 252.863 81H248.383C244.906 81 243.167 79.2613 243.167 75.784ZM247.103 76.072C247.103 76.9893 247.562 77.448 248.479 77.448H252.767C253.684 77.448 254.143 76.9893 254.143 76.072V63.848C254.143 62.9307 253.684 62.472 252.767 62.472H248.479C247.562 62.472 247.103 62.9307 247.103 63.848V76.072ZM261.667 75.784V64.136C261.667 60.6587 263.406 58.92 266.883 58.92H271.363C274.84 58.92 276.579 60.6587 276.579 64.136V75.784C276.579 79.2613 274.84 81 271.363 81H266.883C263.406 81 261.667 79.2613 261.667 75.784ZM265.603 76.072C265.603 76.9893 266.062 77.448 266.979 77.448H271.267C272.184 77.448 272.643 76.9893 272.643 76.072V63.848C272.643 62.9307 272.184 62.472 271.267 62.472H266.979C266.062 62.472 265.603 62.9307 265.603 63.848V76.072ZM280.167 75.784V64.136C280.167 60.6587 281.906 58.92 285.383 58.92H289.863C293.34 58.92 295.079 60.6587 295.079 64.136V75.784C295.079 79.2613 293.34 81 289.863 81H285.383C281.906 81 280.167 79.2613 280.167 75.784ZM284.103 76.072C284.103 76.9893 284.562 77.448 285.479 77.448H289.767C290.684 77.448 291.143 76.9893 291.143 76.072V63.848C291.143 62.9307 290.684 62.472 289.767 62.472H285.479C284.562 62.472 284.103 62.9307 284.103 63.848V76.072ZM299.147 81V76.84H303.307V81H299.147ZM307.355 75.784V64.136C307.355 60.6587 309.093 58.92 312.571 58.92H317.051C320.528 58.92 322.267 60.6587 322.267 64.136V75.784C322.267 79.2613 320.528 81 317.051 81H312.571C309.093 81 307.355 79.2613 307.355 75.784ZM311.291 76.072C311.291 76.9893 311.749 77.448 312.667 77.448H316.955C317.872 77.448 318.331 76.9893 318.331 76.072V63.848C318.331 62.9307 317.872 62.472 316.955 62.472H312.667C311.749 62.472 311.291 62.9307 311.291 63.848V76.072ZM325.855 75.784V64.136C325.855 60.6587 327.593 58.92 331.071 58.92H335.551C339.028 58.92 340.767 60.6587 340.767 64.136V75.784C340.767 79.2613 339.028 81 335.551 81H331.071C327.593 81 325.855 79.2613 325.855 75.784ZM329.791 76.072C329.791 76.9893 330.249 77.448 331.167 77.448H335.455C336.372 77.448 336.831 76.9893 336.831 76.072V63.848C336.831 62.9307 336.372 62.472 335.455 62.472H331.167C330.249 62.472 329.791 62.9307 329.791 63.848V76.072Z" fill="#1C1C1C"/>
<path d="M113.936 98.712L114.632 98.256C115.304 98.856 116.096 99.696 116.468 100.248L115.724 100.788C115.376 100.212 114.608 99.336 113.936 98.712ZM116.132 102.42V106.788H115.256V103.272H113.588V102.42H116.132ZM115.676 106.32C116.084 106.32 116.36 106.68 117.032 107.088C117.812 107.58 118.832 107.664 120.176 107.664C121.592 107.664 123.404 107.568 124.568 107.436C124.448 107.688 124.304 108.144 124.292 108.42C123.44 108.468 121.304 108.528 120.164 108.528C118.664 108.528 117.656 108.408 116.828 107.88C116.312 107.556 115.928 107.16 115.664 107.16C115.256 107.16 114.68 107.868 114.068 108.684L113.432 107.844C114.26 106.944 115.076 106.32 115.676 106.32ZM116.984 100.092H124.208V100.944H116.984V100.092ZM121.628 97.968H122.552V105.708C122.552 106.32 122.384 106.584 121.952 106.728C121.544 106.872 120.812 106.896 119.672 106.896C119.636 106.632 119.48 106.236 119.348 105.972C120.236 105.996 121.064 105.996 121.304 105.996C121.544 105.972 121.628 105.912 121.628 105.696V97.968ZM117.56 102.276L118.28 101.892C118.892 102.624 119.648 103.62 119.996 104.244L119.24 104.712C118.916 104.076 118.172 103.032 117.56 102.276ZM126.56 99.732H135.524V100.644H126.56V99.732ZM125.624 102.9H136.412V103.8H125.624V102.9ZM130.484 97.92H131.432V103.404H130.484V97.92ZM129.512 103.488L130.568 103.764C129.944 105.18 129.116 106.896 128.42 108.012L127.58 107.724C128.252 106.584 129.08 104.772 129.512 103.488ZM126.056 107.508C128.312 107.448 131.864 107.292 135.152 107.136L135.116 108.012C131.888 108.192 128.444 108.372 126.176 108.468L126.056 107.508ZM132.668 105.168L133.496 104.784C134.576 105.96 135.74 107.532 136.292 108.588L135.404 109.068C134.888 108 133.712 106.356 132.668 105.168ZM140.811 107.124C141.827 106.308 142.623 105.64 143.199 105.12C143.775 104.592 144.259 104.044 144.651 103.476C145.051 102.9 145.251 102.336 145.251 101.784C145.251 101.264 145.123 100.856 144.867 100.56C144.619 100.256 144.215 100.104 143.655 100.104C143.111 100.104 142.687 100.276 142.383 100.62C142.087 100.956 141.927 101.408 141.903 101.976H140.847C140.879 101.08 141.151 100.388 141.663 99.9C142.175 99.412 142.835 99.168 143.643 99.168C144.467 99.168 145.119 99.396 145.599 99.852C146.087 100.308 146.331 100.936 146.331 101.736C146.331 102.4 146.131 103.048 145.731 103.68C145.339 104.304 144.891 104.856 144.387 105.336C143.883 105.808 143.239 106.36 142.455 106.992H146.583V107.904H140.811V107.124ZM147.582 106.068V105.24L151.794 99.408H153.102V105.12H154.302V106.068H153.102V108H152.022V106.068H147.582ZM152.07 100.548L148.842 105.12H152.07V100.548ZM163.404 98.1H164.376V107.712C164.376 108.384 164.196 108.648 163.764 108.792C163.332 108.948 162.588 108.972 161.448 108.972C161.4 108.708 161.232 108.288 161.076 108.024C161.964 108.06 162.828 108.048 163.068 108.036C163.32 108.036 163.404 107.952 163.404 107.712V98.1ZM166.308 101.16L167.172 100.824C168.216 102.516 169.236 104.712 169.548 106.164L168.588 106.548C168.3 105.132 167.328 102.876 166.308 101.16ZM160.26 100.908L161.268 101.076C160.872 102.84 160.176 105.012 159.084 106.356C158.868 106.188 158.472 105.972 158.232 105.876C159.3 104.604 159.96 102.528 160.26 100.908ZM171.252 98.928H174.576V106.74H171.252V105.924H173.736V99.744H171.252V98.928ZM171.3 102.372H174.048V103.176H171.3V102.372ZM170.82 98.928H171.672V107.7H170.82V98.928ZM175.116 100.332H181.38V101.22H175.116V100.332ZM179.016 97.992H179.928V107.604C179.928 108.264 179.748 108.54 179.316 108.684C178.884 108.828 178.128 108.852 176.916 108.84C176.868 108.588 176.724 108.18 176.592 107.928C177.528 107.952 178.404 107.952 178.668 107.94C178.92 107.928 179.016 107.856 179.016 107.604V97.992ZM175.524 102.576L176.268 102.192C176.916 103.104 177.744 104.328 178.152 105.048L177.36 105.516C176.976 104.784 176.172 103.5 175.524 102.576Z" fill="#73798B"/>
</svg>
