<svg width="1328" height="552" viewBox="0 0 1328 552" fill="none" xmlns="http://www.w3.org/2000/svg">
<g clip-path="url(#clip0_3885_3845)">
<rect width="1328" height="552" rx="10" fill="white"/>
<mask id="path-3-inside-1_3885_3845" fill="white">
<path d="M0 0H1328V52H0V0Z"/>
</mask>
<path d="M0 0H1328V52H0V0Z" fill="#F8F9FC"/>
<path d="M1328 51H0V53H1328V51Z" fill="#EDEEF3" mask="url(#path-3-inside-1_3885_3845)"/>
<path d="M35.592 24.206L37.032 24.602C35.052 29.624 31.092 32.126 25.566 33.512C25.422 33.17 24.99 32.558 24.702 32.234C30.156 31.1 33.936 28.76 35.592 24.206ZM29.724 21.11L31.092 21.632C29.814 23.36 27.798 25.052 26.052 26.15C25.818 25.862 25.296 25.322 24.954 25.07C26.718 24.134 28.626 22.64 29.724 21.11ZM30.444 24.296C32.118 28.562 35.772 31.244 41.352 32.162C41.046 32.468 40.65 33.08 40.452 33.458C34.71 32.36 31.092 29.48 29.166 24.692L30.444 24.296ZM25.098 19.238H40.902V20.552H25.098V19.238ZM32.262 16.862H33.648V20.084H32.262V16.862ZM35.106 21.866L36.222 21.038C37.914 22.172 40.038 23.846 41.064 25.034L39.894 25.97C38.922 24.782 36.834 23.036 35.106 21.866ZM46.662 21.704V23.486H55.554V21.704H46.662ZM46.662 18.842V20.624H55.554V18.842H46.662ZM45.33 17.726H56.922V24.62H45.33V17.726ZM46.338 26.168H57.138V27.374H46.338V26.168ZM56.796 26.168H58.164C58.164 26.168 58.128 26.582 58.092 26.762C57.75 30.812 57.408 32.378 56.85 32.954C56.508 33.296 56.148 33.422 55.626 33.44C55.158 33.494 54.294 33.476 53.394 33.422C53.358 33.08 53.232 32.576 53.016 32.252C53.898 32.342 54.744 32.342 55.068 32.342C55.374 32.342 55.554 32.324 55.716 32.144C56.148 31.748 56.49 30.218 56.796 26.384V26.168ZM47.706 24.062L49.002 24.476C47.706 26.582 45.672 28.508 43.746 29.75C43.53 29.498 43.008 28.994 42.684 28.778C44.664 27.68 46.572 25.934 47.706 24.062ZM49.668 26.528L50.946 26.924C49.614 29.462 47.436 31.658 45.258 33.08C45.042 32.828 44.52 32.342 44.214 32.108C46.446 30.866 48.48 28.814 49.668 26.528ZM53.394 26.618L54.672 26.924C53.736 29.66 52.134 32.018 50.298 33.548C50.064 33.314 49.524 32.9 49.218 32.702C51.072 31.316 52.566 29.102 53.394 26.618ZM71.286 17.888H77.064V19.058H71.286V17.888ZM71.142 24.458H77.262V25.646H71.142V24.458ZM72.006 18.248H73.104V25.07H72.006V18.248ZM66.948 21.11H70.296V22.19H66.948V21.11ZM68.91 26.942L69.954 26.564C70.674 27.896 71.394 29.606 71.628 30.686L70.512 31.154C70.26 30.056 69.594 28.274 68.91 26.942ZM66.948 17.906H70.854V25.502H66.948V24.386H69.72V19.022H66.948V17.906ZM65.238 30.488C66.57 30.092 68.532 29.444 70.44 28.796L70.638 29.876C68.946 30.524 67.2 31.19 65.778 31.712L65.238 30.488ZM66.462 17.906H67.596V30.38L66.462 30.65V17.906ZM60.882 20.714H66.03V21.956H60.882V20.714ZM63.15 16.88H64.392V33.422H63.15V16.88ZM63.078 21.488L63.96 21.74C63.474 24.584 62.412 28.22 61.188 30.074C61.044 29.714 60.72 29.21 60.486 28.922C61.602 27.23 62.664 24.062 63.078 21.488ZM64.338 23.414C64.716 23.756 66.138 25.286 66.444 25.664L65.706 26.816C65.328 26.114 64.158 24.62 63.708 24.062L64.338 23.414ZM74.598 18.536H75.732V20.822C75.732 24.458 75.264 29.66 70.044 33.44C69.864 33.206 69.432 32.81 69.162 32.612C74.202 29.048 74.598 24.17 74.598 20.804V18.536ZM74.04 26.006H75.156V31.802C75.156 31.91 75.174 32.036 75.246 32.09C75.3 32.144 75.408 32.18 75.552 32.18C75.66 32.18 75.822 32.18 75.966 32.18C76.128 32.18 76.254 32.162 76.344 32.09C76.398 32.018 76.47 31.856 76.506 31.658C76.542 31.334 76.578 30.56 76.56 29.66C76.776 29.858 77.19 30.074 77.496 30.182C77.478 31.064 77.406 32.054 77.334 32.396C77.244 32.774 77.1 32.99 76.866 33.134C76.668 33.26 76.362 33.332 76.074 33.332C75.858 33.332 75.444 33.332 75.282 33.332C74.922 33.332 74.58 33.26 74.346 33.044C74.094 32.81 74.04 32.54 74.04 31.73V26.006ZM88.404 18.716H94.812V19.94H88.404V18.716ZM88.548 16.88L89.826 17.132C89.25 19.346 88.314 21.542 87.27 22.964C87.018 22.766 86.442 22.424 86.118 22.262C87.198 20.93 88.044 18.896 88.548 16.88ZM89.592 20.732L90.726 20.246C91.698 21.092 92.706 22.28 93.174 23.09L91.968 23.666C91.536 22.82 90.51 21.614 89.592 20.732ZM80.052 17.888H81.366V22.964H80.052V17.888ZM83.814 17.06H85.146V23.558H83.814V17.06ZM87.486 28.706H88.854V31.532C88.854 31.964 88.98 32.036 89.844 32.036C90.24 32.036 92.22 32.036 92.76 32.036C93.462 32.036 93.588 31.82 93.66 30.182C93.948 30.38 94.488 30.56 94.848 30.65C94.704 32.702 94.308 33.188 92.886 33.188C92.49 33.188 90.096 33.188 89.7 33.188C87.954 33.188 87.486 32.846 87.486 31.532V28.706ZM86.208 26.132H87.612V27.572C87.612 29.462 86.838 31.874 80.034 33.494C79.872 33.188 79.494 32.684 79.188 32.396C85.74 31.028 86.208 28.976 86.208 27.554V26.132ZM81.51 24.116H92.724V29.732H91.32V25.322H82.86V29.84H81.51V24.116Z" fill="#1C1C1C"/>
<path d="M1239.02 24.938L1240.14 25.246C1238.6 29.152 1235.52 31.098 1231.22 32.176C1231.11 31.91 1230.77 31.434 1230.55 31.182C1234.79 30.3 1237.73 28.48 1239.02 24.938ZM1234.45 22.53L1235.52 22.936C1234.52 24.28 1232.95 25.596 1231.6 26.45C1231.41 26.226 1231.01 25.806 1230.74 25.61C1232.11 24.882 1233.6 23.72 1234.45 22.53ZM1235.01 25.008C1236.31 28.326 1239.16 30.412 1243.5 31.126C1243.26 31.364 1242.95 31.84 1242.8 32.134C1238.33 31.28 1235.52 29.04 1234.02 25.316L1235.01 25.008ZM1230.85 21.074H1243.15V22.096H1230.85V21.074ZM1236.43 19.226H1237.5V21.732H1236.43V19.226ZM1238.64 23.118L1239.51 22.474C1240.82 23.356 1242.47 24.658 1243.27 25.582L1242.36 26.31C1241.61 25.386 1239.98 24.028 1238.64 23.118ZM1247.63 22.992V24.378H1254.54V22.992H1247.63ZM1247.63 20.766V22.152H1254.54V20.766H1247.63ZM1246.59 19.898H1255.61V25.26H1246.59V19.898ZM1247.37 26.464H1255.77V27.402H1247.37V26.464ZM1255.51 26.464H1256.57C1256.57 26.464 1256.54 26.786 1256.52 26.926C1256.25 30.076 1255.98 31.294 1255.55 31.742C1255.28 32.008 1255 32.106 1254.6 32.12C1254.23 32.162 1253.56 32.148 1252.86 32.106C1252.83 31.84 1252.74 31.448 1252.57 31.196C1253.25 31.266 1253.91 31.266 1254.16 31.266C1254.4 31.266 1254.54 31.252 1254.67 31.112C1255 30.804 1255.27 29.614 1255.51 26.632V26.464ZM1248.44 24.826L1249.45 25.148C1248.44 26.786 1246.86 28.284 1245.36 29.25C1245.19 29.054 1244.78 28.662 1244.53 28.494C1246.07 27.64 1247.56 26.282 1248.44 24.826ZM1249.96 26.744L1250.96 27.052C1249.92 29.026 1248.23 30.734 1246.53 31.84C1246.37 31.644 1245.96 31.266 1245.72 31.084C1247.46 30.118 1249.04 28.522 1249.96 26.744ZM1252.86 26.814L1253.86 27.052C1253.13 29.18 1251.88 31.014 1250.45 32.204C1250.27 32.022 1249.85 31.7 1249.61 31.546C1251.06 30.468 1252.22 28.746 1252.86 26.814ZM1259.5 20.248L1260.17 19.576C1260.93 20.192 1261.91 21.06 1262.37 21.62L1261.65 22.404C1261.21 21.816 1260.25 20.892 1259.5 20.248ZM1260.62 31.84L1260.42 30.86L1260.7 30.398L1263.11 28.578C1263.19 28.858 1263.35 29.25 1263.47 29.46C1261.18 31.266 1260.81 31.546 1260.62 31.84ZM1258.56 23.65H1261.43V24.658H1258.56V23.65ZM1260.62 31.854C1260.51 31.63 1260.21 31.252 1260.04 31.084C1260.28 30.888 1260.72 30.412 1260.72 29.726V23.65H1261.72V30.496C1261.72 30.496 1260.62 31.434 1260.62 31.854ZM1263.59 21.928H1271.02V22.894H1263.59V21.928ZM1264.02 24.84H1270.57V25.792H1264.02V24.84ZM1263.25 27.78H1271.33V28.76H1263.25V27.78ZM1266.81 22.292H1267.87V32.12H1266.81V22.292ZM1264.36 19.66L1265.27 19.31C1265.77 19.996 1266.3 20.906 1266.5 21.508L1265.53 21.914C1265.34 21.312 1264.83 20.36 1264.36 19.66ZM1269.55 19.212L1270.61 19.562C1270.12 20.598 1269.49 21.774 1268.99 22.516L1268.09 22.18C1268.6 21.396 1269.23 20.122 1269.55 19.212ZM1277.98 27.262H1283.55V28.074H1277.98V27.262ZM1276.68 20.346H1284.99V21.144H1276.68V20.346ZM1277.01 22.04H1284.64V22.81H1277.01V22.04ZM1276.24 23.79H1285.4V24.588H1276.24V23.79ZM1277.98 29.138H1283.59V29.922H1277.98V29.138ZM1277.26 25.414H1283.55V26.226H1278.24V32.106H1277.26V25.414ZM1283.3 25.414H1284.31V30.944C1284.31 31.476 1284.19 31.756 1283.8 31.91C1283.41 32.064 1282.78 32.078 1281.79 32.064C1281.74 31.812 1281.6 31.42 1281.48 31.154C1282.18 31.182 1282.85 31.182 1283.05 31.168C1283.24 31.168 1283.3 31.112 1283.3 30.93V25.414ZM1280.26 19.24H1281.3V24.042H1280.26V19.24ZM1274.11 19.24H1275.08V32.106H1274.11V19.24ZM1273.01 21.942L1273.79 22.054C1273.75 23.146 1273.51 24.77 1273.19 25.82L1272.38 25.554C1272.7 24.588 1272.92 23.048 1273.01 21.942ZM1275.21 21.578L1275.91 21.298C1276.21 21.942 1276.55 22.768 1276.68 23.286L1275.95 23.636C1275.81 23.104 1275.49 22.236 1275.21 21.578Z" fill="#1F32D6"/>
<rect x="1292" y="20" width="12" height="12" fill="white" fill-opacity="0.01"/>
<path d="M1295.24 21.2312C1294.95 21.5115 1294.92 21.9501 1295.16 22.2592L1295.24 22.3477L1299.02 26L1295.24 29.6523C1294.95 29.9326 1294.92 30.3712 1295.16 30.6802L1295.24 30.7688C1295.53 31.049 1295.98 31.0745 1296.3 30.8452L1296.4 30.7688L1300.76 26.5582C1301.05 26.278 1301.08 25.8394 1300.84 25.5303L1300.76 25.4418L1296.4 21.2312C1296.08 20.9229 1295.56 20.9229 1295.24 21.2312Z" fill="#1F32D6"/>
<rect width="1328" height="500" transform="translate(0 52)" fill="white"/>
<path d="M64 156H1304" stroke="#EDEEF3"/>
<path d="M64 234H1304" stroke="#EDEEF3"/>
<path d="M64 312H1304" stroke="#EDEEF3"/>
<path d="M64 390H1304" stroke="#EDEEF3"/>
<rect x="24.5" y="76.5" width="339" height="39" rx="5.5" fill="#F8F9FC"/>
<rect x="24.5" y="76.5" width="339" height="39" rx="5.5" stroke="#EDEEF3"/>
<g filter="url(#filter0_dd_3885_3845)">
<rect x="28" y="80" width="80" height="32" rx="4" fill="white"/>
<path d="M63.142 89.954H72.914V102.078H71.108V91.648H64.878V102.092H63.142V89.954ZM64.332 94.658H71.864V96.324H64.332V94.658ZM64.318 99.488H71.864V101.182H64.318V99.488Z" fill="#1F32D6"/>
</g>
<rect x="112" y="80" width="80" height="32" rx="4" fill="white" fill-opacity="0.01"/>
<path d="M147.786 89.786H156.592V91.34H147.786V89.786ZM149.186 92.474H155.08V93.762H149.186V92.474ZM148.892 94.63H155.36V95.96H148.892V94.63ZM146.764 89.786H148.43V94.658C148.43 96.968 148.206 100.286 146.666 102.33C146.4 102.008 145.686 101.462 145.308 101.252C146.652 99.418 146.764 96.716 146.764 94.658V89.786ZM155.934 89.786H157.628V100.398C157.628 101.28 157.446 101.7 156.9 101.966C156.354 102.218 155.556 102.246 154.338 102.246C154.282 101.812 154.044 101.098 153.82 100.692C154.534 100.734 155.374 100.72 155.612 100.706C155.85 100.706 155.934 100.622 155.934 100.398V89.786ZM151.286 91.55H152.868V95.344H151.286V91.55ZM150.25 96.758H154.828V100.58H150.25V99.32H153.274V98.032H150.25V96.758ZM149.396 96.758H150.922V101.35H149.396V96.758Z" fill="#73798B"/>
<rect x="196" y="80" width="80" height="32" rx="4" fill="white" fill-opacity="0.01"/>
<path d="M232.766 89.772H239.766V91.41H232.766V89.772ZM232.78 93.118H239.836V94.714H232.78V93.118ZM232.71 96.436H239.738V98.06H232.71V96.436ZM231.618 89.772H233.34V94.406C233.34 96.842 232.962 100.272 230.596 102.26C230.344 101.91 229.658 101.28 229.294 101.056C231.422 99.25 231.618 96.548 231.618 94.406V89.772ZM238.982 89.772H240.76V100.132C240.76 101.126 240.522 101.63 239.878 101.91C239.206 102.204 238.212 102.232 236.756 102.232C236.658 101.728 236.336 100.916 236.056 100.468C237.05 100.524 238.212 100.51 238.548 100.51C238.87 100.496 238.982 100.398 238.982 100.104V89.772Z" fill="#73798B"/>
<rect x="280" y="80" width="80" height="32" rx="4" fill="white" fill-opacity="0.01"/>
<path d="M316.472 89.058L318.18 89.492C317.438 91.578 316.206 93.594 314.96 94.854C314.638 94.56 313.924 94 313.518 93.762C314.778 92.67 315.87 90.878 316.472 89.058ZM316.766 90.654H325.67V92.278H315.954L316.766 90.654ZM315.772 93.958H325.348V95.526H317.466V98.466H315.772V93.958ZM313.56 97.64H326.44V99.264H313.56V97.64ZM319.888 91.494H321.624V102.26H319.888V91.494Z" fill="#73798B"/>
<rect x="1122" y="90" width="12" height="12" rx="6" stroke="#1F32D6" stroke-width="4"/>
<path d="M1153.02 94.938L1154.14 95.246C1152.6 99.152 1149.52 101.098 1145.22 102.176C1145.11 101.91 1144.77 101.434 1144.55 101.182C1148.79 100.3 1151.73 98.48 1153.02 94.938ZM1148.45 92.53L1149.52 92.936C1148.52 94.28 1146.95 95.596 1145.6 96.45C1145.41 96.226 1145.01 95.806 1144.74 95.61C1146.11 94.882 1147.6 93.72 1148.45 92.53ZM1149.01 95.008C1150.31 98.326 1153.16 100.412 1157.5 101.126C1157.26 101.364 1156.95 101.84 1156.8 102.134C1152.33 101.28 1149.52 99.04 1148.02 95.316L1149.01 95.008ZM1144.85 91.074H1157.15V92.096H1144.85V91.074ZM1150.43 89.226H1151.5V91.732H1150.43V89.226ZM1152.64 93.118L1153.51 92.474C1154.82 93.356 1156.47 94.658 1157.27 95.582L1156.36 96.31C1155.61 95.386 1153.98 94.028 1152.64 93.118ZM1161.63 92.992V94.378H1168.54V92.992H1161.63ZM1161.63 90.766V92.152H1168.54V90.766H1161.63ZM1160.59 89.898H1169.61V95.26H1160.59V89.898ZM1161.37 96.464H1169.77V97.402H1161.37V96.464ZM1169.51 96.464H1170.57C1170.57 96.464 1170.54 96.786 1170.52 96.926C1170.25 100.076 1169.98 101.294 1169.55 101.742C1169.28 102.008 1169 102.106 1168.6 102.12C1168.23 102.162 1167.56 102.148 1166.86 102.106C1166.83 101.84 1166.74 101.448 1166.57 101.196C1167.25 101.266 1167.91 101.266 1168.16 101.266C1168.4 101.266 1168.54 101.252 1168.67 101.112C1169 100.804 1169.27 99.614 1169.51 96.632V96.464ZM1162.44 94.826L1163.45 95.148C1162.44 96.786 1160.86 98.284 1159.36 99.25C1159.19 99.054 1158.78 98.662 1158.53 98.494C1160.07 97.64 1161.56 96.282 1162.44 94.826ZM1163.96 96.744L1164.96 97.052C1163.92 99.026 1162.23 100.734 1160.53 101.84C1160.37 101.644 1159.96 101.266 1159.72 101.084C1161.46 100.118 1163.04 98.522 1163.96 96.744ZM1166.86 96.814L1167.86 97.052C1167.13 99.18 1165.88 101.014 1164.45 102.204C1164.27 102.022 1163.85 101.7 1163.61 101.546C1165.06 100.468 1166.22 98.746 1166.86 96.814ZM1178.94 90.262C1177.78 91.928 1175.53 93.86 1173.16 95.12C1173.04 94.868 1172.74 94.504 1172.52 94.28C1174.94 93.062 1177.26 90.99 1178.34 89.226H1179.42C1180.9 91.256 1183.33 93.132 1185.52 94.112C1185.27 94.364 1185.02 94.728 1184.84 95.036C1182.67 93.916 1180.23 91.998 1178.94 90.262ZM1175.47 93.51H1182.5V94.462H1175.47V93.51ZM1173.67 96.324H1184.32V97.262H1173.67V96.324ZM1173.02 100.748H1184.99V101.672H1173.02V100.748ZM1178.38 93.874H1179.49V101.238H1178.38V93.874ZM1174.83 97.976L1175.68 97.626C1176.26 98.396 1176.83 99.46 1177.03 100.16L1176.12 100.552C1175.93 99.852 1175.39 98.76 1174.83 97.976ZM1182.15 97.598L1183.14 98.004C1182.61 98.886 1181.95 99.894 1181.44 100.552L1180.64 100.202C1181.14 99.516 1181.8 98.396 1182.15 97.598ZM1193.2 90.08H1199.34V91.004H1193.2V90.08ZM1195.9 90.612L1196.81 90.836C1196.53 91.578 1196.25 92.376 1195.98 92.922L1195.18 92.698C1195.42 92.124 1195.74 91.214 1195.9 90.612ZM1193.42 92.46H1198.81V99.04H1197.89V93.314H1194.33V99.068H1193.42V92.46ZM1195.7 94.098H1196.61C1196.54 98.746 1196.25 100.972 1192.94 102.176C1192.85 101.952 1192.58 101.602 1192.4 101.434C1195.45 100.37 1195.63 98.438 1195.7 94.098ZM1196.32 99.824L1196.89 99.18C1197.8 99.838 1199.01 100.762 1199.59 101.35L1199.01 102.092C1198.43 101.476 1197.26 100.51 1196.32 99.824ZM1186.85 90.598H1192.96V92.712H1191.99V91.466H1187.78V92.712H1186.85V90.598ZM1187.76 97.738H1192.13V101.994H1191.15V98.592H1188.7V102.022H1187.76V97.738ZM1188.11 100.72H1191.6V101.574H1188.11V100.72ZM1188.98 91.928L1189.93 92.096C1189.37 93.258 1188.52 94.49 1187.18 95.456C1187.04 95.246 1186.76 94.924 1186.56 94.798C1187.76 93.986 1188.56 92.866 1188.98 91.928ZM1189.11 92.908H1191.63V93.72H1188.69L1189.11 92.908ZM1191.43 92.908H1191.66L1191.84 92.866L1192.41 93.244C1191.38 95.526 1189.18 97.136 1186.97 97.976C1186.9 97.696 1186.69 97.22 1186.53 97.038C1188.6 96.338 1190.62 94.938 1191.43 93.09V92.908ZM1189 89.52L1189.95 89.296C1190.24 89.786 1190.62 90.472 1190.8 90.878L1189.79 91.158C1189.63 90.738 1189.29 90.038 1189 89.52ZM1188.07 95.176L1188.74 94.56C1190.12 95.232 1192.02 96.254 1193.01 96.898L1192.3 97.64C1191.36 96.982 1189.49 95.904 1188.07 95.176Z" fill="#1C1C1C"/>
<rect x="1224.75" y="88.75" width="14.5" height="14.5" rx="7.25" stroke="#B9BCC5" stroke-width="1.5"/>
<path d="M1257.02 94.938L1258.14 95.246C1256.6 99.152 1253.52 101.098 1249.22 102.176C1249.11 101.91 1248.77 101.434 1248.55 101.182C1252.79 100.3 1255.73 98.48 1257.02 94.938ZM1252.45 92.53L1253.52 92.936C1252.52 94.28 1250.95 95.596 1249.6 96.45C1249.41 96.226 1249.01 95.806 1248.74 95.61C1250.11 94.882 1251.6 93.72 1252.45 92.53ZM1253.01 95.008C1254.31 98.326 1257.16 100.412 1261.5 101.126C1261.26 101.364 1260.95 101.84 1260.8 102.134C1256.33 101.28 1253.52 99.04 1252.02 95.316L1253.01 95.008ZM1248.85 91.074H1261.15V92.096H1248.85V91.074ZM1254.43 89.226H1255.5V91.732H1254.43V89.226ZM1256.64 93.118L1257.51 92.474C1258.82 93.356 1260.47 94.658 1261.27 95.582L1260.36 96.31C1259.61 95.386 1257.98 94.028 1256.64 93.118ZM1265.63 92.992V94.378H1272.54V92.992H1265.63ZM1265.63 90.766V92.152H1272.54V90.766H1265.63ZM1264.59 89.898H1273.61V95.26H1264.59V89.898ZM1265.37 96.464H1273.77V97.402H1265.37V96.464ZM1273.51 96.464H1274.57C1274.57 96.464 1274.54 96.786 1274.52 96.926C1274.25 100.076 1273.98 101.294 1273.55 101.742C1273.28 102.008 1273 102.106 1272.6 102.12C1272.23 102.162 1271.56 102.148 1270.86 102.106C1270.83 101.84 1270.74 101.448 1270.57 101.196C1271.25 101.266 1271.91 101.266 1272.16 101.266C1272.4 101.266 1272.54 101.252 1272.67 101.112C1273 100.804 1273.27 99.614 1273.51 96.632V96.464ZM1266.44 94.826L1267.45 95.148C1266.44 96.786 1264.86 98.284 1263.36 99.25C1263.19 99.054 1262.78 98.662 1262.53 98.494C1264.07 97.64 1265.56 96.282 1266.44 94.826ZM1267.96 96.744L1268.96 97.052C1267.92 99.026 1266.23 100.734 1264.53 101.84C1264.37 101.644 1263.96 101.266 1263.72 101.084C1265.46 100.118 1267.04 98.522 1267.96 96.744ZM1270.86 96.814L1271.86 97.052C1271.13 99.18 1269.88 101.014 1268.45 102.204C1268.27 102.022 1267.85 101.7 1267.61 101.546C1269.06 100.468 1270.22 98.746 1270.86 96.814ZM1287.28 92.978L1287.89 93.846C1285.3 94.448 1281.38 94.854 1278.02 95.036C1277.99 94.784 1277.88 94.406 1277.76 94.168C1281.14 93.958 1285.03 93.538 1287.28 92.978ZM1281.95 94.336H1283V100.384C1283 100.944 1283.17 101.07 1284.04 101.07C1284.44 101.07 1286.58 101.07 1287.12 101.07C1287.8 101.07 1287.93 100.818 1288.01 99.53C1288.26 99.698 1288.68 99.852 1288.98 99.922C1288.84 101.532 1288.5 101.994 1287.19 101.994C1286.82 101.994 1284.32 101.994 1283.98 101.994C1282.38 101.994 1281.95 101.672 1281.95 100.384V94.336ZM1277.5 96.366L1287.84 95.498L1287.94 96.366L1277.6 97.262L1277.5 96.366ZM1276.8 98.774L1289.1 97.738L1289.22 98.634L1276.91 99.712L1276.8 98.774ZM1278.32 90.57H1282.66V91.48H1278.32V90.57ZM1283.76 90.57H1289.08V91.48H1283.76V90.57ZM1278.58 89.184L1279.58 89.436C1279.07 90.962 1278.23 92.488 1277.39 93.482C1277.18 93.314 1276.74 93.034 1276.49 92.894C1277.37 91.984 1278.13 90.584 1278.58 89.184ZM1284.09 89.184L1285.11 89.422C1284.64 90.948 1283.8 92.39 1282.89 93.328C1282.69 93.146 1282.24 92.852 1281.99 92.712C1282.93 91.858 1283.67 90.556 1284.09 89.184ZM1279.29 91.214L1280.17 90.906C1280.59 91.592 1281.04 92.502 1281.22 93.076L1280.3 93.44C1280.14 92.866 1279.7 91.914 1279.29 91.214ZM1285.1 91.242L1285.98 90.948C1286.35 91.494 1286.77 92.236 1286.92 92.712L1286.01 93.048C1285.86 92.572 1285.45 91.802 1285.1 91.242ZM1290.55 96.716H1297.42V97.598H1290.55V96.716ZM1290.63 91.83H1297.38V92.684H1290.63V91.83ZM1293.15 95.512L1294.13 95.722C1293.5 97.094 1292.62 98.802 1291.97 99.908L1291.05 99.586C1291.68 98.522 1292.56 96.8 1293.15 95.512ZM1295.25 97.234L1296.23 97.36C1295.75 100.09 1294.28 101.434 1291.05 102.12C1290.98 101.84 1290.77 101.462 1290.57 101.252C1293.5 100.762 1294.82 99.614 1295.25 97.234ZM1296.13 89.52L1297.03 89.912C1296.62 90.556 1296.16 91.256 1295.77 91.732L1295.07 91.382C1295.42 90.878 1295.88 90.066 1296.13 89.52ZM1293.53 89.24H1294.49V95.68H1293.53V89.24ZM1291.15 89.912L1291.95 89.576C1292.34 90.136 1292.72 90.878 1292.86 91.382L1292.03 91.76C1291.9 91.256 1291.54 90.486 1291.15 89.912ZM1293.54 92.208L1294.26 92.628C1293.57 93.804 1292.25 95.05 1291.05 95.708C1290.92 95.47 1290.67 95.12 1290.48 94.91C1291.64 94.406 1292.93 93.286 1293.54 92.208ZM1294.38 92.698C1294.89 92.964 1296.59 94.042 1297 94.336L1296.43 95.106C1295.92 94.63 1294.47 93.538 1293.88 93.146L1294.38 92.698ZM1298.44 91.83H1303.43V92.81H1298.44V91.83ZM1298.79 89.24L1299.86 89.394C1299.39 92.138 1298.57 94.644 1297.34 96.282C1297.17 96.086 1296.73 95.736 1296.48 95.568C1297.67 94.084 1298.4 91.718 1298.79 89.24ZM1301.55 92.39L1302.61 92.502C1301.94 97.332 1300.46 100.342 1296.93 102.162C1296.82 101.91 1296.51 101.448 1296.3 101.224C1299.63 99.656 1300.98 96.828 1301.55 92.39ZM1299 92.698C1299.62 96.548 1300.96 99.852 1303.57 101.224C1303.31 101.434 1302.98 101.84 1302.82 102.12C1300.08 100.51 1298.75 97.094 1298.05 92.852L1299 92.698ZM1291.89 99.39L1292.45 98.676C1294.13 99.32 1295.87 100.244 1296.87 101.014L1296.15 101.77C1295.18 100.986 1293.51 100.048 1291.89 99.39Z" fill="#1C1C1C"/>
<rect x="569.5" y="514" width="8" height="8" rx="1.5" fill="#8069FF"/>
<path d="M593.746 518.114H594.796V522.524C594.796 522.944 594.894 523.028 595.454 523.028C595.706 523.028 596.924 523.028 597.26 523.028C597.82 523.028 597.904 522.706 597.96 520.592C598.198 520.788 598.646 520.97 598.94 521.04C598.814 523.42 598.534 524.036 597.344 524.036C597.064 524.036 595.594 524.036 595.328 524.036C594.082 524.036 593.746 523.686 593.746 522.524V518.114ZM590.12 518.184H591.226C590.988 521.236 590.274 523.14 586.718 524.106C586.606 523.84 586.326 523.42 586.102 523.21C589.378 522.398 589.924 520.816 590.12 518.184ZM593.844 514.824L594.698 514.292C596.07 515.342 597.722 516.854 598.478 517.918L597.554 518.534C596.84 517.47 595.244 515.902 593.844 514.824ZM590.568 513.494L591.688 513.844C591.086 515.048 590.316 516.504 589.686 517.414L588.818 517.078C589.42 516.126 590.162 514.586 590.568 513.494ZM586.858 516.742C589.336 516.686 593.298 516.56 597.008 516.42L596.952 517.386C593.326 517.568 589.434 517.736 586.914 517.82L586.858 516.742ZM586.424 512.934H598.59V513.928H586.424V512.934ZM591.926 511.24H593.004V513.48H591.926V511.24ZM605.912 512.892H606.99V524.106H605.912V512.892ZM601.6 515.538H610.924V516.56H602.664V522.496H601.6V515.538ZM610.392 515.538H611.47V521.054C611.47 521.656 611.344 521.978 610.882 522.146C610.42 522.328 609.664 522.342 608.53 522.342C608.488 522.034 608.32 521.586 608.166 521.278C609.062 521.306 609.846 521.306 610.084 521.292C610.322 521.278 610.392 521.222 610.392 521.026V515.538ZM611.946 511.646L612.366 512.598C609.398 513.102 604.61 513.382 600.746 513.438C600.732 513.144 600.606 512.738 600.508 512.5C604.4 512.402 609.188 512.122 611.946 511.646Z" fill="#73798B"/>
<rect x="637.5" y="514" width="8" height="8" rx="1.5" fill="#3FE1CD"/>
<path d="M660.192 514.362V515.482H664.868V514.362H660.192ZM660.192 512.5V513.62H664.868V512.5H660.192ZM659.226 511.702H665.876V516.294H659.226V511.702ZM658.582 517.302H666.646V518.184H658.582V517.302ZM662.026 517.736H663.006V523.462L662.026 523.056V517.736ZM660.15 520.312C660.864 522.636 662.404 522.986 664.35 522.986C664.7 522.986 666.59 522.986 667.08 522.972C666.94 523.196 666.8 523.644 666.772 523.91H664.308C661.97 523.91 660.36 523.406 659.506 520.55L660.15 520.312ZM662.698 519.822H665.946V520.69H662.698V519.822ZM659.506 518.842L660.458 518.954C660.178 521.264 659.45 523 658.19 524.12C658.022 523.952 657.616 523.644 657.406 523.49C658.652 522.496 659.282 520.914 659.506 518.842ZM653.892 518.688C654.984 518.394 656.608 517.89 658.176 517.386L658.33 518.352C656.874 518.828 655.348 519.332 654.158 519.71L653.892 518.688ZM654.046 514.068H658.316V515.048H654.046V514.068ZM655.782 511.254H656.762V522.818C656.762 523.392 656.636 523.672 656.286 523.84C655.964 524.008 655.418 524.036 654.536 524.036C654.494 523.784 654.368 523.35 654.228 523.056C654.844 523.07 655.376 523.07 655.544 523.07C655.726 523.07 655.782 523.014 655.782 522.804V511.254ZM673.912 512.892H674.99V524.106H673.912V512.892ZM669.6 515.538H678.924V516.56H670.664V522.496H669.6V515.538ZM678.392 515.538H679.47V521.054C679.47 521.656 679.344 521.978 678.882 522.146C678.42 522.328 677.664 522.342 676.53 522.342C676.488 522.034 676.32 521.586 676.166 521.278C677.062 521.306 677.846 521.306 678.084 521.292C678.322 521.278 678.392 521.222 678.392 521.026V515.538ZM679.946 511.646L680.366 512.598C677.398 513.102 672.61 513.382 668.746 513.438C668.732 513.144 668.606 512.738 668.508 512.5C672.4 512.402 677.188 512.122 679.946 511.646Z" fill="#73798B"/>
<rect x="1210" y="176" width="33" height="292" fill="#8069FF"/>
<rect x="1036" y="234" width="33" height="234" fill="#8069FF"/>
<path d="M1123 206H1156V468H1123V206Z" fill="#8069FF"/>
<rect x="949" y="169" width="33" height="299" fill="#8069FF"/>
<rect x="862" y="196" width="33" height="272" fill="#8069FF"/>
<rect x="775" y="344" width="33" height="124" fill="#8069FF"/>
<rect x="688" y="227" width="33" height="241" fill="#8069FF"/>
<rect x="601" y="169" width="33" height="299" fill="#8069FF"/>
<rect x="427" y="338" width="33" height="130" fill="#8069FF"/>
<rect x="514" y="270" width="33" height="198" fill="#8069FF"/>
<rect x="340" y="306" width="33" height="162" fill="#8069FF"/>
<rect x="286" y="324" width="33" height="144" fill="#3FE1CD"/>
<rect x="199" y="306" width="33" height="162" fill="#3FE1CD"/>
<rect x="112" y="435" width="33" height="33" fill="#3FE1CD"/>
<rect x="373" y="362" width="33" height="106" fill="#3FE1CD"/>
<rect x="460" y="362" width="33" height="106" fill="#3FE1CD"/>
<rect x="547" y="317" width="33" height="151" fill="#3FE1CD"/>
<rect x="634" y="215" width="33" height="253" fill="#3FE1CD"/>
<rect x="721" y="338" width="33" height="130" fill="#3FE1CD"/>
<rect x="808" y="374" width="33" height="94" fill="#3FE1CD"/>
<rect x="895" y="308" width="33" height="160" fill="#3FE1CD"/>
<rect x="982" y="344" width="33" height="124" fill="#3FE1CD"/>
<rect x="1069" y="286" width="33" height="182" fill="#3FE1CD"/>
<rect x="1156" y="404" width="33" height="64" fill="#3FE1CD"/>
<rect x="1243" y="274" width="33" height="194" fill="#3FE1CD"/>
<rect x="166" y="197" width="33" height="271" fill="#8069FF"/>
<rect x="253" y="227" width="33" height="241" fill="#8069FF"/>
<rect x="79" y="412" width="33" height="56" fill="#8069FF"/>
<path d="M38.0621 314.45C38.7021 313.897 39.2054 313.443 39.5721 313.09C39.9454 312.73 40.2554 312.357 40.5021 311.97C40.7487 311.583 40.8721 311.197 40.8721 310.81C40.8721 310.41 40.7754 310.097 40.5821 309.87C40.3954 309.643 40.0987 309.53 39.6921 309.53C39.2987 309.53 38.9921 309.657 38.7721 309.91C38.5587 310.157 38.4454 310.49 38.4321 310.91H37.3321C37.3521 310.15 37.5787 309.57 38.0121 309.17C38.4521 308.763 39.0087 308.56 39.6821 308.56C40.4087 308.56 40.9754 308.76 41.3821 309.16C41.7954 309.56 42.0021 310.093 42.0021 310.76C42.0021 311.24 41.8787 311.703 41.6321 312.15C41.3921 312.59 41.1021 312.987 40.7621 313.34C40.4287 313.687 40.0021 314.09 39.4821 314.55L39.0321 314.95H42.2021V315.9H37.3421V315.07L38.0621 314.45ZM43.2036 312.26C43.2036 311.107 43.3969 310.207 43.7836 309.56C44.1769 308.907 44.8502 308.58 45.8036 308.58C46.7569 308.58 47.4269 308.907 47.8136 309.56C48.2069 310.207 48.4036 311.107 48.4036 312.26C48.4036 313.427 48.2069 314.34 47.8136 315C47.4269 315.653 46.7569 315.98 45.8036 315.98C44.8502 315.98 44.1769 315.653 43.7836 315C43.3969 314.34 43.2036 313.427 43.2036 312.26ZM47.2836 312.26C47.2836 311.72 47.2469 311.263 47.1736 310.89C47.1069 310.517 46.9669 310.213 46.7536 309.98C46.5402 309.74 46.2236 309.62 45.8036 309.62C45.3836 309.62 45.0669 309.74 44.8536 309.98C44.6402 310.213 44.4969 310.517 44.4236 310.89C44.3569 311.263 44.3236 311.72 44.3236 312.26C44.3236 312.82 44.3569 313.29 44.4236 313.67C44.4902 314.05 44.6302 314.357 44.8436 314.59C45.0636 314.823 45.3836 314.94 45.8036 314.94C46.2236 314.94 46.5402 314.823 46.7536 314.59C46.9736 314.357 47.1169 314.05 47.1836 313.67C47.2502 313.29 47.2836 312.82 47.2836 312.26Z" fill="#73798B"/>
<path d="M39.5575 387.75V386.71H41.6375V394H40.4875V387.75H39.5575ZM43.2036 390.26C43.2036 389.107 43.3969 388.207 43.7836 387.56C44.1769 386.907 44.8502 386.58 45.8036 386.58C46.7569 386.58 47.4269 386.907 47.8136 387.56C48.2069 388.207 48.4036 389.107 48.4036 390.26C48.4036 391.427 48.2069 392.34 47.8136 393C47.4269 393.653 46.7569 393.98 45.8036 393.98C44.8502 393.98 44.1769 393.653 43.7836 393C43.3969 392.34 43.2036 391.427 43.2036 390.26ZM47.2836 390.26C47.2836 389.72 47.2469 389.263 47.1736 388.89C47.1069 388.517 46.9669 388.213 46.7536 387.98C46.5402 387.74 46.2236 387.62 45.8036 387.62C45.3836 387.62 45.0669 387.74 44.8536 387.98C44.6402 388.213 44.4969 388.517 44.4236 388.89C44.3569 389.263 44.3236 389.72 44.3236 390.26C44.3236 390.82 44.3569 391.29 44.4236 391.67C44.4902 392.05 44.6302 392.357 44.8436 392.59C45.0636 392.823 45.3836 392.94 45.8036 392.94C46.2236 392.94 46.5402 392.823 46.7536 392.59C46.9736 392.357 47.1169 392.05 47.1836 391.67C47.2502 391.29 47.2836 390.82 47.2836 390.26Z" fill="#73798B"/>
<path d="M35.8635 232.51C35.9035 231.89 36.1402 231.407 36.5735 231.06C37.0135 230.713 37.5735 230.54 38.2535 230.54C38.7202 230.54 39.1235 230.623 39.4635 230.79C39.8035 230.957 40.0602 231.183 40.2335 231.47C40.4068 231.757 40.4935 232.08 40.4935 232.44C40.4935 232.853 40.3835 233.207 40.1635 233.5C39.9435 233.793 39.6802 233.99 39.3735 234.09V234.13C39.7668 234.25 40.0735 234.47 40.2935 234.79C40.5135 235.103 40.6235 235.507 40.6235 236C40.6235 236.393 40.5335 236.743 40.3535 237.05C40.1735 237.357 39.9068 237.6 39.5535 237.78C39.2002 237.953 38.7768 238.04 38.2835 238.04C37.5635 238.04 36.9702 237.857 36.5035 237.49C36.0435 237.117 35.7968 236.583 35.7635 235.89H36.8635C36.8902 236.243 37.0268 236.533 37.2735 236.76C37.5202 236.98 37.8535 237.09 38.2735 237.09C38.6802 237.09 38.9935 236.98 39.2135 236.76C39.4335 236.533 39.5435 236.243 39.5435 235.89C39.5435 235.423 39.3935 235.093 39.0935 234.9C38.8002 234.7 38.3468 234.6 37.7335 234.6H37.4735V233.66H37.7435C38.2835 233.653 38.6935 233.563 38.9735 233.39C39.2602 233.217 39.4035 232.943 39.4035 232.57C39.4035 232.25 39.3002 231.997 39.0935 231.81C38.8868 231.617 38.5935 231.52 38.2135 231.52C37.8402 231.52 37.5502 231.617 37.3435 231.81C37.1368 231.997 37.0135 232.23 36.9735 232.51H35.8635ZM41.821 234.26C41.821 233.107 42.0143 232.207 42.401 231.56C42.7943 230.907 43.4677 230.58 44.421 230.58C45.3743 230.58 46.0443 230.907 46.431 231.56C46.8243 232.207 47.021 233.107 47.021 234.26C47.021 235.427 46.8243 236.34 46.431 237C46.0443 237.653 45.3743 237.98 44.421 237.98C43.4677 237.98 42.7943 237.653 42.401 237C42.0143 236.34 41.821 235.427 41.821 234.26ZM45.901 234.26C45.901 233.72 45.8643 233.263 45.791 232.89C45.7243 232.517 45.5843 232.213 45.371 231.98C45.1577 231.74 44.841 231.62 44.421 231.62C44.001 231.62 43.6843 231.74 43.471 231.98C43.2577 232.213 43.1143 232.517 43.041 232.89C42.9743 233.263 42.941 233.72 42.941 234.26C42.941 234.82 42.9743 235.29 43.041 235.67C43.1077 236.05 43.2477 236.357 43.461 236.59C43.681 236.823 44.001 236.94 44.421 236.94C44.841 236.94 45.1577 236.823 45.371 236.59C45.591 236.357 45.7343 236.05 45.801 235.67C45.8677 235.29 45.901 234.82 45.901 234.26Z" fill="#73798B"/>
<path d="M35.2064 158.48V157.62L38.5664 152.8H39.9464V157.49H40.8764V158.48H39.9464V160H38.8264V158.48H35.2064ZM38.8764 153.96L36.5164 157.49H38.8764V153.96ZM41.821 156.26C41.821 155.107 42.0143 154.207 42.401 153.56C42.7943 152.907 43.4677 152.58 44.421 152.58C45.3743 152.58 46.0443 152.907 46.431 153.56C46.8243 154.207 47.021 155.107 47.021 156.26C47.021 157.427 46.8243 158.34 46.431 159C46.0443 159.653 45.3743 159.98 44.421 159.98C43.4677 159.98 42.7943 159.653 42.401 159C42.0143 158.34 41.821 157.427 41.821 156.26ZM45.901 156.26C45.901 155.72 45.8643 155.263 45.791 154.89C45.7243 154.517 45.5843 154.213 45.371 153.98C45.1577 153.74 44.841 153.62 44.421 153.62C44.001 153.62 43.6843 153.74 43.471 153.98C43.2577 154.213 43.1143 154.517 43.041 154.89C42.9743 155.263 42.941 155.72 42.941 156.26C42.941 156.82 42.9743 157.29 43.041 157.67C43.1077 158.05 43.2477 158.357 43.461 158.59C43.681 158.823 44.001 158.94 44.421 158.94C44.841 158.94 45.1577 158.823 45.371 158.59C45.591 158.357 45.7343 158.05 45.801 157.67C45.8677 157.29 45.901 156.82 45.901 156.26Z" fill="#73798B"/>
<path d="M49.194 468.26C49.194 467.107 49.3874 466.207 49.774 465.56C50.1674 464.907 50.8407 464.58 51.794 464.58C52.7474 464.58 53.4174 464.907 53.804 465.56C54.1974 466.207 54.394 467.107 54.394 468.26C54.394 469.427 54.1974 470.34 53.804 471C53.4174 471.653 52.7474 471.98 51.794 471.98C50.8407 471.98 50.1674 471.653 49.774 471C49.3874 470.34 49.194 469.427 49.194 468.26ZM53.274 468.26C53.274 467.72 53.2374 467.263 53.164 466.89C53.0974 466.517 52.9574 466.213 52.744 465.98C52.5307 465.74 52.214 465.62 51.794 465.62C51.374 465.62 51.0574 465.74 50.844 465.98C50.6307 466.213 50.4874 466.517 50.414 466.89C50.3474 467.263 50.314 467.72 50.314 468.26C50.314 468.82 50.3474 469.29 50.414 469.67C50.4807 470.05 50.6207 470.357 50.834 470.59C51.054 470.823 51.374 470.94 51.794 470.94C52.214 470.94 52.5307 470.823 52.744 470.59C52.964 470.357 53.1074 470.05 53.174 469.67C53.2407 469.29 53.274 468.82 53.274 468.26Z" fill="#73798B"/>
<path d="M97.3383 484.26C97.3383 483.107 97.5316 482.207 97.9183 481.56C98.3116 480.907 98.9849 480.58 99.9383 480.58C100.892 480.58 101.562 480.907 101.948 481.56C102.342 482.207 102.538 483.107 102.538 484.26C102.538 485.427 102.342 486.34 101.948 487C101.562 487.653 100.892 487.98 99.9383 487.98C98.9849 487.98 98.3116 487.653 97.9183 487C97.5316 486.34 97.3383 485.427 97.3383 484.26ZM101.418 484.26C101.418 483.72 101.382 483.263 101.308 482.89C101.242 482.517 101.102 482.213 100.888 481.98C100.675 481.74 100.358 481.62 99.9383 481.62C99.5183 481.62 99.2016 481.74 98.9883 481.98C98.7749 482.213 98.6316 482.517 98.5583 482.89C98.4916 483.263 98.4583 483.72 98.4583 484.26C98.4583 484.82 98.4916 485.29 98.5583 485.67C98.6249 486.05 98.7649 486.357 98.9783 486.59C99.1983 486.823 99.5183 486.94 99.9383 486.94C100.358 486.94 100.675 486.823 100.888 486.59C101.108 486.357 101.252 486.05 101.318 485.67C101.385 485.29 101.418 484.82 101.418 484.26ZM103.605 486.48V485.62L106.965 480.8H108.345V485.49H109.275V486.48H108.345V488H107.225V486.48H103.605ZM107.275 481.96L104.915 485.49H107.275V481.96ZM114.599 483.9V484.86H110.489V483.9H114.599ZM116.069 484.26C116.069 483.107 116.262 482.207 116.649 481.56C117.042 480.907 117.715 480.58 118.669 480.58C119.622 480.58 120.292 480.907 120.679 481.56C121.072 482.207 121.269 483.107 121.269 484.26C121.269 485.427 121.072 486.34 120.679 487C120.292 487.653 119.622 487.98 118.669 487.98C117.715 487.98 117.042 487.653 116.649 487C116.262 486.34 116.069 485.427 116.069 484.26ZM120.149 484.26C120.149 483.72 120.112 483.263 120.039 482.89C119.972 482.517 119.832 482.213 119.619 481.98C119.405 481.74 119.089 481.62 118.669 481.62C118.249 481.62 117.932 481.74 117.719 481.98C117.505 482.213 117.362 482.517 117.289 482.89C117.222 483.263 117.189 483.72 117.189 484.26C117.189 484.82 117.222 485.29 117.289 485.67C117.355 486.05 117.495 486.357 117.709 486.59C117.929 486.823 118.249 486.94 118.669 486.94C119.089 486.94 119.405 486.823 119.619 486.59C119.839 486.357 119.982 486.05 120.049 485.67C120.115 485.29 120.149 484.82 120.149 484.26ZM127.175 481.69H123.825V483.68C123.965 483.493 124.172 483.337 124.445 483.21C124.725 483.083 125.022 483.02 125.335 483.02C125.895 483.02 126.348 483.14 126.695 483.38C127.048 483.62 127.298 483.923 127.445 484.29C127.598 484.657 127.675 485.043 127.675 485.45C127.675 485.943 127.578 486.383 127.385 486.77C127.198 487.15 126.915 487.45 126.535 487.67C126.162 487.89 125.702 488 125.155 488C124.428 488 123.845 487.82 123.405 487.46C122.965 487.1 122.702 486.623 122.615 486.03H123.725C123.798 486.343 123.962 486.593 124.215 486.78C124.468 486.96 124.785 487.05 125.165 487.05C125.638 487.05 125.992 486.907 126.225 486.62C126.465 486.333 126.585 485.953 126.585 485.48C126.585 485 126.465 484.633 126.225 484.38C125.985 484.12 125.632 483.99 125.165 483.99C124.838 483.99 124.562 484.073 124.335 484.24C124.115 484.4 123.955 484.62 123.855 484.9H122.775V480.69H127.175V481.69Z" fill="#73798B"/>
<path d="M184.324 484.26C184.324 483.107 184.517 482.207 184.904 481.56C185.297 480.907 185.97 480.58 186.924 480.58C187.877 480.58 188.547 480.907 188.934 481.56C189.327 482.207 189.524 483.107 189.524 484.26C189.524 485.427 189.327 486.34 188.934 487C188.547 487.653 187.877 487.98 186.924 487.98C185.97 487.98 185.297 487.653 184.904 487C184.517 486.34 184.324 485.427 184.324 484.26ZM188.404 484.26C188.404 483.72 188.367 483.263 188.294 482.89C188.227 482.517 188.087 482.213 187.874 481.98C187.66 481.74 187.344 481.62 186.924 481.62C186.504 481.62 186.187 481.74 185.974 481.98C185.76 482.213 185.617 482.517 185.544 482.89C185.477 483.263 185.444 483.72 185.444 484.26C185.444 484.82 185.477 485.29 185.544 485.67C185.61 486.05 185.75 486.357 185.964 486.59C186.184 486.823 186.504 486.94 186.924 486.94C187.344 486.94 187.66 486.823 187.874 486.59C188.094 486.357 188.237 486.05 188.304 485.67C188.37 485.29 188.404 484.82 188.404 484.26ZM190.59 486.48V485.62L193.95 480.8H195.33V485.49H196.26V486.48H195.33V488H194.21V486.48H190.59ZM194.26 481.96L191.9 485.49H194.26V481.96ZM201.585 483.9V484.86H197.475V483.9H201.585ZM203.054 484.26C203.054 483.107 203.247 482.207 203.634 481.56C204.027 480.907 204.701 480.58 205.654 480.58C206.607 480.58 207.277 480.907 207.664 481.56C208.057 482.207 208.254 483.107 208.254 484.26C208.254 485.427 208.057 486.34 207.664 487C207.277 487.653 206.607 487.98 205.654 487.98C204.701 487.98 204.027 487.653 203.634 487C203.247 486.34 203.054 485.427 203.054 484.26ZM207.134 484.26C207.134 483.72 207.097 483.263 207.024 482.89C206.957 482.517 206.817 482.213 206.604 481.98C206.391 481.74 206.074 481.62 205.654 481.62C205.234 481.62 204.917 481.74 204.704 481.98C204.491 482.213 204.347 482.517 204.274 482.89C204.207 483.263 204.174 483.72 204.174 484.26C204.174 484.82 204.207 485.29 204.274 485.67C204.341 486.05 204.481 486.357 204.694 486.59C204.914 486.823 205.234 486.94 205.654 486.94C206.074 486.94 206.391 486.823 206.604 486.59C206.824 486.357 206.967 486.05 207.034 485.67C207.101 485.29 207.134 484.82 207.134 484.26ZM213.38 482.4C213.307 482.093 213.174 481.863 212.98 481.71C212.787 481.557 212.517 481.48 212.17 481.48C211.644 481.48 211.25 481.683 210.99 482.09C210.73 482.49 210.594 483.157 210.58 484.09C210.754 483.797 211.007 483.57 211.34 483.41C211.674 483.25 212.034 483.17 212.42 483.17C212.86 483.17 213.247 483.267 213.58 483.46C213.92 483.647 214.184 483.92 214.37 484.28C214.564 484.64 214.66 485.07 214.66 485.57C214.66 486.037 214.567 486.453 214.38 486.82C214.2 487.187 213.93 487.477 213.57 487.69C213.21 487.897 212.777 488 212.27 488C211.584 488 211.044 487.85 210.65 487.55C210.264 487.243 209.99 486.813 209.83 486.26C209.677 485.707 209.6 485.017 209.6 484.19C209.6 481.75 210.46 480.53 212.18 480.53C212.847 480.53 213.37 480.71 213.75 481.07C214.137 481.43 214.364 481.873 214.43 482.4H213.38ZM212.17 484.13C211.764 484.13 211.417 484.253 211.13 484.5C210.85 484.74 210.71 485.09 210.71 485.55C210.71 486.01 210.84 486.377 211.1 486.65C211.367 486.917 211.737 487.05 212.21 487.05C212.63 487.05 212.96 486.92 213.2 486.66C213.447 486.4 213.57 486.053 213.57 485.62C213.57 485.167 213.45 484.807 213.21 484.54C212.977 484.267 212.63 484.13 212.17 484.13Z" fill="#73798B"/>
<path d="M533.783 484.26C533.783 483.107 533.977 482.207 534.363 481.56C534.757 480.907 535.43 480.58 536.383 480.58C537.337 480.58 538.007 480.907 538.393 481.56C538.787 482.207 538.983 483.107 538.983 484.26C538.983 485.427 538.787 486.34 538.393 487C538.007 487.653 537.337 487.98 536.383 487.98C535.43 487.98 534.757 487.653 534.363 487C533.977 486.34 533.783 485.427 533.783 484.26ZM537.863 484.26C537.863 483.72 537.827 483.263 537.753 482.89C537.687 482.517 537.547 482.213 537.333 481.98C537.12 481.74 536.803 481.62 536.383 481.62C535.963 481.62 535.647 481.74 535.433 481.98C535.22 482.213 535.077 482.517 535.003 482.89C534.937 483.263 534.903 483.72 534.903 484.26C534.903 484.82 534.937 485.29 535.003 485.67C535.07 486.05 535.21 486.357 535.423 486.59C535.643 486.823 535.963 486.94 536.383 486.94C536.803 486.94 537.12 486.823 537.333 486.59C537.553 486.357 537.697 486.05 537.763 485.67C537.83 485.29 537.863 484.82 537.863 484.26ZM540.05 486.48V485.62L543.41 480.8H544.79V485.49H545.72V486.48H544.79V488H543.67V486.48H540.05ZM543.72 481.96L541.36 485.49H543.72V481.96ZM551.044 483.9V484.86H546.934V483.9H551.044ZM552.364 481.75V480.71H554.444V488H553.294V481.75H552.364ZM556.01 484.26C556.01 483.107 556.203 482.207 556.59 481.56C556.983 480.907 557.657 480.58 558.61 480.58C559.563 480.58 560.233 480.907 560.62 481.56C561.013 482.207 561.21 483.107 561.21 484.26C561.21 485.427 561.013 486.34 560.62 487C560.233 487.653 559.563 487.98 558.61 487.98C557.657 487.98 556.983 487.653 556.59 487C556.203 486.34 556.01 485.427 556.01 484.26ZM560.09 484.26C560.09 483.72 560.053 483.263 559.98 482.89C559.913 482.517 559.773 482.213 559.56 481.98C559.347 481.74 559.03 481.62 558.61 481.62C558.19 481.62 557.873 481.74 557.66 481.98C557.447 482.213 557.303 482.517 557.23 482.89C557.163 483.263 557.13 483.72 557.13 484.26C557.13 484.82 557.163 485.29 557.23 485.67C557.297 486.05 557.437 486.357 557.65 486.59C557.87 486.823 558.19 486.94 558.61 486.94C559.03 486.94 559.347 486.823 559.56 486.59C559.78 486.357 559.923 486.05 559.99 485.67C560.057 485.29 560.09 484.82 560.09 484.26Z" fill="#73798B"/>
<path d="M708.101 484.26C708.101 483.107 708.294 482.207 708.681 481.56C709.074 480.907 709.748 480.58 710.701 480.58C711.654 480.58 712.324 480.907 712.711 481.56C713.104 482.207 713.301 483.107 713.301 484.26C713.301 485.427 713.104 486.34 712.711 487C712.324 487.653 711.654 487.98 710.701 487.98C709.748 487.98 709.074 487.653 708.681 487C708.294 486.34 708.101 485.427 708.101 484.26ZM712.181 484.26C712.181 483.72 712.144 483.263 712.071 482.89C712.004 482.517 711.864 482.213 711.651 481.98C711.438 481.74 711.121 481.62 710.701 481.62C710.281 481.62 709.964 481.74 709.751 481.98C709.538 482.213 709.394 482.517 709.321 482.89C709.254 483.263 709.221 483.72 709.221 484.26C709.221 484.82 709.254 485.29 709.321 485.67C709.388 486.05 709.528 486.357 709.741 486.59C709.961 486.823 710.281 486.94 710.701 486.94C711.121 486.94 711.438 486.823 711.651 486.59C711.871 486.357 712.014 486.05 712.081 485.67C712.148 485.29 712.181 484.82 712.181 484.26ZM714.367 486.48V485.62L717.727 480.8H719.107V485.49H720.037V486.48H719.107V488H717.987V486.48H714.367ZM718.037 481.96L715.677 485.49H718.037V481.96ZM725.362 483.9V484.86H721.252V483.9H725.362ZM726.681 481.75V480.71H728.761V488H727.611V481.75H726.681ZM730.958 486.45C731.598 485.897 732.101 485.443 732.468 485.09C732.841 484.73 733.151 484.357 733.398 483.97C733.644 483.583 733.768 483.197 733.768 482.81C733.768 482.41 733.671 482.097 733.478 481.87C733.291 481.643 732.994 481.53 732.588 481.53C732.194 481.53 731.888 481.657 731.668 481.91C731.454 482.157 731.341 482.49 731.328 482.91H730.228C730.248 482.15 730.474 481.57 730.908 481.17C731.348 480.763 731.904 480.56 732.578 480.56C733.304 480.56 733.871 480.76 734.278 481.16C734.691 481.56 734.898 482.093 734.898 482.76C734.898 483.24 734.774 483.703 734.528 484.15C734.288 484.59 733.998 484.987 733.658 485.34C733.324 485.687 732.898 486.09 732.378 486.55L731.928 486.95H735.098V487.9H730.238V487.07L730.958 486.45Z" fill="#73798B"/>
<path d="M882.101 484.26C882.101 483.107 882.294 482.207 882.681 481.56C883.074 480.907 883.748 480.58 884.701 480.58C885.654 480.58 886.324 480.907 886.711 481.56C887.104 482.207 887.301 483.107 887.301 484.26C887.301 485.427 887.104 486.34 886.711 487C886.324 487.653 885.654 487.98 884.701 487.98C883.748 487.98 883.074 487.653 882.681 487C882.294 486.34 882.101 485.427 882.101 484.26ZM886.181 484.26C886.181 483.72 886.144 483.263 886.071 482.89C886.004 482.517 885.864 482.213 885.651 481.98C885.438 481.74 885.121 481.62 884.701 481.62C884.281 481.62 883.964 481.74 883.751 481.98C883.538 482.213 883.394 482.517 883.321 482.89C883.254 483.263 883.221 483.72 883.221 484.26C883.221 484.82 883.254 485.29 883.321 485.67C883.388 486.05 883.528 486.357 883.741 486.59C883.961 486.823 884.281 486.94 884.701 486.94C885.121 486.94 885.438 486.823 885.651 486.59C885.871 486.357 886.014 486.05 886.081 485.67C886.148 485.29 886.181 484.82 886.181 484.26ZM888.367 486.48V485.62L891.727 480.8H893.107V485.49H894.037V486.48H893.107V488H891.987V486.48H888.367ZM892.037 481.96L889.677 485.49H892.037V481.96ZM899.362 483.9V484.86H895.252V483.9H899.362ZM901.461 486.45C902.101 485.897 902.605 485.443 902.971 485.09C903.345 484.73 903.655 484.357 903.901 483.97C904.148 483.583 904.271 483.197 904.271 482.81C904.271 482.41 904.175 482.097 903.981 481.87C903.795 481.643 903.498 481.53 903.091 481.53C902.698 481.53 902.391 481.657 902.171 481.91C901.958 482.157 901.845 482.49 901.831 482.91H900.731C900.751 482.15 900.978 481.57 901.411 481.17C901.851 480.763 902.408 480.56 903.081 480.56C903.808 480.56 904.375 480.76 904.781 481.16C905.195 481.56 905.401 482.093 905.401 482.76C905.401 483.24 905.278 483.703 905.031 484.15C904.791 484.59 904.501 484.987 904.161 485.34C903.828 485.687 903.401 486.09 902.881 486.55L902.431 486.95H905.601V487.9H900.741V487.07L901.461 486.45ZM906.453 481.75V480.71H908.533V488H907.383V481.75H906.453Z" fill="#73798B"/>
<path d="M1141.61 484.26C1141.61 483.107 1141.8 482.207 1142.19 481.56C1142.58 480.907 1143.26 480.58 1144.21 480.58C1145.16 480.58 1145.83 480.907 1146.22 481.56C1146.61 482.207 1146.81 483.107 1146.81 484.26C1146.81 485.427 1146.61 486.34 1146.22 487C1145.83 487.653 1145.16 487.98 1144.21 487.98C1143.26 487.98 1142.58 487.653 1142.19 487C1141.8 486.34 1141.61 485.427 1141.61 484.26ZM1145.69 484.26C1145.69 483.72 1145.65 483.263 1145.58 482.89C1145.51 482.517 1145.37 482.213 1145.16 481.98C1144.95 481.74 1144.63 481.62 1144.21 481.62C1143.79 481.62 1143.47 481.74 1143.26 481.98C1143.05 482.213 1142.9 482.517 1142.83 482.89C1142.76 483.263 1142.73 483.72 1142.73 484.26C1142.73 484.82 1142.76 485.29 1142.83 485.67C1142.9 486.05 1143.04 486.357 1143.25 486.59C1143.47 486.823 1143.79 486.94 1144.21 486.94C1144.63 486.94 1144.95 486.823 1145.16 486.59C1145.38 486.357 1145.52 486.05 1145.59 485.67C1145.66 485.29 1145.69 484.82 1145.69 484.26ZM1147.88 486.48V485.62L1151.24 480.8H1152.62V485.49H1153.55V486.48H1152.62V488H1151.5V486.48H1147.88ZM1151.55 481.96L1149.19 485.49H1151.55V481.96ZM1158.87 483.9V484.86H1154.76V483.9H1158.87ZM1160.97 486.45C1161.61 485.897 1162.12 485.443 1162.48 485.09C1162.86 484.73 1163.17 484.357 1163.41 483.97C1163.66 483.583 1163.78 483.197 1163.78 482.81C1163.78 482.41 1163.69 482.097 1163.49 481.87C1163.31 481.643 1163.01 481.53 1162.6 481.53C1162.21 481.53 1161.9 481.657 1161.68 481.91C1161.47 482.157 1161.36 482.49 1161.34 482.91H1160.24C1160.26 482.15 1160.49 481.57 1160.92 481.17C1161.36 480.763 1161.92 480.56 1162.59 480.56C1163.32 480.56 1163.89 480.76 1164.29 481.16C1164.71 481.56 1164.91 482.093 1164.91 482.76C1164.91 483.24 1164.79 483.703 1164.54 484.15C1164.3 484.59 1164.01 484.987 1163.67 485.34C1163.34 485.687 1162.91 486.09 1162.39 486.55L1161.94 486.95H1165.11V487.9H1160.25V487.07L1160.97 486.45ZM1165.97 486.48V485.62L1169.33 480.8H1170.71V485.49H1171.64V486.48H1170.71V488H1169.59V486.48H1165.97ZM1169.64 481.96L1167.28 485.49H1169.64V481.96Z" fill="#73798B"/>
<path d="M271.734 484.26C271.734 483.107 271.927 482.207 272.314 481.56C272.707 480.907 273.38 480.58 274.334 480.58C275.287 480.58 275.957 480.907 276.344 481.56C276.737 482.207 276.934 483.107 276.934 484.26C276.934 485.427 276.737 486.34 276.344 487C275.957 487.653 275.287 487.98 274.334 487.98C273.38 487.98 272.707 487.653 272.314 487C271.927 486.34 271.734 485.427 271.734 484.26ZM275.814 484.26C275.814 483.72 275.777 483.263 275.704 482.89C275.637 482.517 275.497 482.213 275.284 481.98C275.07 481.74 274.754 481.62 274.334 481.62C273.914 481.62 273.597 481.74 273.384 481.98C273.17 482.213 273.027 482.517 272.954 482.89C272.887 483.263 272.854 483.72 272.854 484.26C272.854 484.82 272.887 485.29 272.954 485.67C273.02 486.05 273.16 486.357 273.374 486.59C273.594 486.823 273.914 486.94 274.334 486.94C274.754 486.94 275.07 486.823 275.284 486.59C275.504 486.357 275.647 486.05 275.714 485.67C275.78 485.29 275.814 484.82 275.814 484.26ZM278 486.48V485.62L281.36 480.8H282.74V485.49H283.67V486.48H282.74V488H281.62V486.48H278ZM281.67 481.96L279.31 485.49H281.67V481.96ZM288.994 483.9V484.86H284.884V483.9H288.994ZM290.464 484.26C290.464 483.107 290.657 482.207 291.044 481.56C291.437 480.907 292.111 480.58 293.064 480.58C294.017 480.58 294.687 480.907 295.074 481.56C295.467 482.207 295.664 483.107 295.664 484.26C295.664 485.427 295.467 486.34 295.074 487C294.687 487.653 294.017 487.98 293.064 487.98C292.111 487.98 291.437 487.653 291.044 487C290.657 486.34 290.464 485.427 290.464 484.26ZM294.544 484.26C294.544 483.72 294.507 483.263 294.434 482.89C294.367 482.517 294.227 482.213 294.014 481.98C293.801 481.74 293.484 481.62 293.064 481.62C292.644 481.62 292.327 481.74 292.114 481.98C291.901 482.213 291.757 482.517 291.684 482.89C291.617 483.263 291.584 483.72 291.584 484.26C291.584 484.82 291.617 485.29 291.684 485.67C291.751 486.05 291.891 486.357 292.104 486.59C292.324 486.823 292.644 486.94 293.064 486.94C293.484 486.94 293.801 486.823 294.014 486.59C294.234 486.357 294.377 486.05 294.444 485.67C294.511 485.29 294.544 484.82 294.544 484.26ZM301.49 481.59L298.71 488H297.56L300.37 481.71H296.67V480.74H301.49V481.59Z" fill="#73798B"/>
<path d="M358.343 484.26C358.343 483.107 358.537 482.207 358.923 481.56C359.317 480.907 359.99 480.58 360.943 480.58C361.897 480.58 362.567 480.907 362.953 481.56C363.347 482.207 363.543 483.107 363.543 484.26C363.543 485.427 363.347 486.34 362.953 487C362.567 487.653 361.897 487.98 360.943 487.98C359.99 487.98 359.317 487.653 358.923 487C358.537 486.34 358.343 485.427 358.343 484.26ZM362.423 484.26C362.423 483.72 362.387 483.263 362.313 482.89C362.247 482.517 362.107 482.213 361.893 481.98C361.68 481.74 361.363 481.62 360.943 481.62C360.523 481.62 360.207 481.74 359.993 481.98C359.78 482.213 359.637 482.517 359.563 482.89C359.497 483.263 359.463 483.72 359.463 484.26C359.463 484.82 359.497 485.29 359.563 485.67C359.63 486.05 359.77 486.357 359.983 486.59C360.203 486.823 360.523 486.94 360.943 486.94C361.363 486.94 361.68 486.823 361.893 486.59C362.113 486.357 362.257 486.05 362.323 485.67C362.39 485.29 362.423 484.82 362.423 484.26ZM364.61 486.48V485.62L367.97 480.8H369.35V485.49H370.28V486.48H369.35V488H368.23V486.48H364.61ZM368.28 481.96L365.92 485.49H368.28V481.96ZM375.604 483.9V484.86H371.494V483.9H375.604ZM377.074 484.26C377.074 483.107 377.267 482.207 377.654 481.56C378.047 480.907 378.72 480.58 379.674 480.58C380.627 480.58 381.297 480.907 381.684 481.56C382.077 482.207 382.274 483.107 382.274 484.26C382.274 485.427 382.077 486.34 381.684 487C381.297 487.653 380.627 487.98 379.674 487.98C378.72 487.98 378.047 487.653 377.654 487C377.267 486.34 377.074 485.427 377.074 484.26ZM381.154 484.26C381.154 483.72 381.117 483.263 381.044 482.89C380.977 482.517 380.837 482.213 380.624 481.98C380.41 481.74 380.094 481.62 379.674 481.62C379.254 481.62 378.937 481.74 378.724 481.98C378.51 482.213 378.367 482.517 378.294 482.89C378.227 483.263 378.194 483.72 378.194 484.26C378.194 484.82 378.227 485.29 378.294 485.67C378.36 486.05 378.5 486.357 378.714 486.59C378.934 486.823 379.254 486.94 379.674 486.94C380.094 486.94 380.41 486.823 380.624 486.59C380.844 486.357 380.987 486.05 381.054 485.67C381.12 485.29 381.154 484.82 381.154 484.26ZM384.71 484.19C384.017 483.843 383.67 483.297 383.67 482.55C383.67 482.19 383.76 481.86 383.94 481.56C384.12 481.26 384.39 481.023 384.75 480.85C385.11 480.67 385.55 480.58 386.07 480.58C386.583 480.58 387.02 480.67 387.38 480.85C387.747 481.023 388.02 481.26 388.2 481.56C388.38 481.86 388.47 482.19 388.47 482.55C388.47 482.923 388.373 483.253 388.18 483.54C387.993 483.82 387.743 484.037 387.43 484.19C387.81 484.33 388.11 484.56 388.33 484.88C388.55 485.193 388.66 485.563 388.66 485.99C388.66 486.423 388.55 486.807 388.33 487.14C388.11 487.473 387.803 487.73 387.41 487.91C387.017 488.09 386.57 488.18 386.07 488.18C385.57 488.18 385.123 488.09 384.73 487.91C384.343 487.73 384.04 487.473 383.82 487.14C383.6 486.807 383.49 486.423 383.49 485.99C383.49 485.557 383.6 485.183 383.82 484.87C384.04 484.557 384.337 484.33 384.71 484.19ZM387.38 482.69C387.38 482.317 387.263 482.03 387.03 481.83C386.797 481.63 386.477 481.53 386.07 481.53C385.67 481.53 385.353 481.63 385.12 481.83C384.887 482.03 384.77 482.32 384.77 482.7C384.77 483.033 384.89 483.307 385.13 483.52C385.377 483.727 385.69 483.83 386.07 483.83C386.45 483.83 386.763 483.723 387.01 483.51C387.257 483.297 387.38 483.023 387.38 482.69ZM386.07 484.69C385.63 484.69 385.27 484.8 384.99 485.02C384.717 485.233 384.58 485.543 384.58 485.95C384.58 486.33 384.713 486.64 384.98 486.88C385.247 487.113 385.61 487.23 386.07 487.23C386.523 487.23 386.88 487.11 387.14 486.87C387.407 486.63 387.54 486.323 387.54 485.95C387.54 485.55 387.403 485.24 387.13 485.02C386.863 484.8 386.51 484.69 386.07 484.69Z" fill="#73798B"/>
<path d="M622.239 484.26C622.239 483.107 622.432 482.207 622.819 481.56C623.212 480.907 623.885 480.58 624.839 480.58C625.792 480.58 626.462 480.907 626.849 481.56C627.242 482.207 627.439 483.107 627.439 484.26C627.439 485.427 627.242 486.34 626.849 487C626.462 487.653 625.792 487.98 624.839 487.98C623.885 487.98 623.212 487.653 622.819 487C622.432 486.34 622.239 485.427 622.239 484.26ZM626.319 484.26C626.319 483.72 626.282 483.263 626.209 482.89C626.142 482.517 626.002 482.213 625.789 481.98C625.575 481.74 625.259 481.62 624.839 481.62C624.419 481.62 624.102 481.74 623.889 481.98C623.675 482.213 623.532 482.517 623.459 482.89C623.392 483.263 623.359 483.72 623.359 484.26C623.359 484.82 623.392 485.29 623.459 485.67C623.525 486.05 623.665 486.357 623.879 486.59C624.099 486.823 624.419 486.94 624.839 486.94C625.259 486.94 625.575 486.823 625.789 486.59C626.009 486.357 626.152 486.05 626.219 485.67C626.285 485.29 626.319 484.82 626.319 484.26ZM628.505 486.48V485.62L631.865 480.8H633.245V485.49H634.175V486.48H633.245V488H632.125V486.48H628.505ZM632.175 481.96L629.815 485.49H632.175V481.96ZM639.5 483.9V484.86H635.39V483.9H639.5ZM640.819 481.75V480.71H642.899V488H641.749V481.75H640.819ZM644.315 481.75V480.71H646.395V488H645.245V481.75H644.315Z" fill="#73798B"/>
<path d="M795.018 484.26C795.018 483.107 795.212 482.207 795.598 481.56C795.992 480.907 796.665 480.58 797.618 480.58C798.572 480.58 799.242 480.907 799.628 481.56C800.022 482.207 800.218 483.107 800.218 484.26C800.218 485.427 800.022 486.34 799.628 487C799.242 487.653 798.572 487.98 797.618 487.98C796.665 487.98 795.992 487.653 795.598 487C795.212 486.34 795.018 485.427 795.018 484.26ZM799.098 484.26C799.098 483.72 799.062 483.263 798.988 482.89C798.922 482.517 798.782 482.213 798.568 481.98C798.355 481.74 798.038 481.62 797.618 481.62C797.198 481.62 796.882 481.74 796.668 481.98C796.455 482.213 796.312 482.517 796.238 482.89C796.172 483.263 796.138 483.72 796.138 484.26C796.138 484.82 796.172 485.29 796.238 485.67C796.305 486.05 796.445 486.357 796.658 486.59C796.878 486.823 797.198 486.94 797.618 486.94C798.038 486.94 798.355 486.823 798.568 486.59C798.788 486.357 798.932 486.05 798.998 485.67C799.065 485.29 799.098 484.82 799.098 484.26ZM801.284 486.48V485.62L804.644 480.8H806.024V485.49H806.954V486.48H806.024V488H804.904V486.48H801.284ZM804.954 481.96L802.594 485.49H804.954V481.96ZM812.279 483.9V484.86H808.169V483.9H812.279ZM813.599 481.75V480.71H815.679V488H814.529V481.75H813.599ZM817.225 482.51C817.265 481.89 817.501 481.407 817.935 481.06C818.375 480.713 818.935 480.54 819.615 480.54C820.081 480.54 820.485 480.623 820.825 480.79C821.165 480.957 821.421 481.183 821.595 481.47C821.768 481.757 821.855 482.08 821.855 482.44C821.855 482.853 821.745 483.207 821.525 483.5C821.305 483.793 821.041 483.99 820.735 484.09V484.13C821.128 484.25 821.435 484.47 821.655 484.79C821.875 485.103 821.985 485.507 821.985 486C821.985 486.393 821.895 486.743 821.715 487.05C821.535 487.357 821.268 487.6 820.915 487.78C820.561 487.953 820.138 488.04 819.645 488.04C818.925 488.04 818.331 487.857 817.865 487.49C817.405 487.117 817.158 486.583 817.125 485.89H818.225C818.251 486.243 818.388 486.533 818.635 486.76C818.881 486.98 819.215 487.09 819.635 487.09C820.041 487.09 820.355 486.98 820.575 486.76C820.795 486.533 820.905 486.243 820.905 485.89C820.905 485.423 820.755 485.093 820.455 484.9C820.161 484.7 819.708 484.6 819.095 484.6H818.835V483.66H819.105C819.645 483.653 820.055 483.563 820.335 483.39C820.621 483.217 820.765 482.943 820.765 482.57C820.765 482.25 820.661 481.997 820.455 481.81C820.248 481.617 819.955 481.52 819.575 481.52C819.201 481.52 818.911 481.617 818.705 481.81C818.498 481.997 818.375 482.23 818.335 482.51H817.225Z" fill="#73798B"/>
<path d="M1054.88 484.26C1054.88 483.107 1055.07 482.207 1055.46 481.56C1055.85 480.907 1056.53 480.58 1057.48 480.58C1058.43 480.58 1059.1 480.907 1059.49 481.56C1059.88 482.207 1060.08 483.107 1060.08 484.26C1060.08 485.427 1059.88 486.34 1059.49 487C1059.1 487.653 1058.43 487.98 1057.48 487.98C1056.53 487.98 1055.85 487.653 1055.46 487C1055.07 486.34 1054.88 485.427 1054.88 484.26ZM1058.96 484.26C1058.96 483.72 1058.92 483.263 1058.85 482.89C1058.78 482.517 1058.64 482.213 1058.43 481.98C1058.22 481.74 1057.9 481.62 1057.48 481.62C1057.06 481.62 1056.74 481.74 1056.53 481.98C1056.32 482.213 1056.17 482.517 1056.1 482.89C1056.03 483.263 1056 483.72 1056 484.26C1056 484.82 1056.03 485.29 1056.1 485.67C1056.17 486.05 1056.31 486.357 1056.52 486.59C1056.74 486.823 1057.06 486.94 1057.48 486.94C1057.9 486.94 1058.22 486.823 1058.43 486.59C1058.65 486.357 1058.79 486.05 1058.86 485.67C1058.93 485.29 1058.96 484.82 1058.96 484.26ZM1061.15 486.48V485.62L1064.51 480.8H1065.89V485.49H1066.82V486.48H1065.89V488H1064.77V486.48H1061.15ZM1064.82 481.96L1062.46 485.49H1064.82V481.96ZM1072.14 483.9V484.86H1068.03V483.9H1072.14ZM1074.24 486.45C1074.88 485.897 1075.38 485.443 1075.75 485.09C1076.12 484.73 1076.43 484.357 1076.68 483.97C1076.93 483.583 1077.05 483.197 1077.05 482.81C1077.05 482.41 1076.95 482.097 1076.76 481.87C1076.57 481.643 1076.28 481.53 1075.87 481.53C1075.48 481.53 1075.17 481.657 1074.95 481.91C1074.74 482.157 1074.62 482.49 1074.61 482.91H1073.51C1073.53 482.15 1073.76 481.57 1074.19 481.17C1074.63 480.763 1075.19 480.56 1075.86 480.56C1076.59 480.56 1077.15 480.76 1077.56 481.16C1077.97 481.56 1078.18 482.093 1078.18 482.76C1078.18 483.24 1078.06 483.703 1077.81 484.15C1077.57 484.59 1077.28 484.987 1076.94 485.34C1076.61 485.687 1076.18 486.09 1075.66 486.55L1075.21 486.95H1078.38V487.9H1073.52V487.07L1074.24 486.45ZM1079.36 482.51C1079.4 481.89 1079.64 481.407 1080.07 481.06C1080.51 480.713 1081.07 480.54 1081.75 480.54C1082.22 480.54 1082.62 480.623 1082.96 480.79C1083.3 480.957 1083.56 481.183 1083.73 481.47C1083.91 481.757 1083.99 482.08 1083.99 482.44C1083.99 482.853 1083.88 483.207 1083.66 483.5C1083.44 483.793 1083.18 483.99 1082.87 484.09V484.13C1083.27 484.25 1083.57 484.47 1083.79 484.79C1084.01 485.103 1084.12 485.507 1084.12 486C1084.12 486.393 1084.03 486.743 1083.85 487.05C1083.67 487.357 1083.41 487.6 1083.05 487.78C1082.7 487.953 1082.28 488.04 1081.78 488.04C1081.06 488.04 1080.47 487.857 1080 487.49C1079.54 487.117 1079.3 486.583 1079.26 485.89H1080.36C1080.39 486.243 1080.53 486.533 1080.77 486.76C1081.02 486.98 1081.35 487.09 1081.77 487.09C1082.18 487.09 1082.49 486.98 1082.71 486.76C1082.93 486.533 1083.04 486.243 1083.04 485.89C1083.04 485.423 1082.89 485.093 1082.59 484.9C1082.3 484.7 1081.85 484.6 1081.23 484.6H1080.97V483.66H1081.24C1081.78 483.653 1082.19 483.563 1082.47 483.39C1082.76 483.217 1082.9 482.943 1082.9 482.57C1082.9 482.25 1082.8 481.997 1082.59 481.81C1082.39 481.617 1082.09 481.52 1081.71 481.52C1081.34 481.52 1081.05 481.617 1080.84 481.81C1080.64 481.997 1080.51 482.23 1080.47 482.51H1079.36Z" fill="#73798B"/>
<path d="M967.964 484.26C967.964 483.107 968.157 482.207 968.544 481.56C968.937 480.907 969.61 480.58 970.564 480.58C971.517 480.58 972.187 480.907 972.574 481.56C972.967 482.207 973.164 483.107 973.164 484.26C973.164 485.427 972.967 486.34 972.574 487C972.187 487.653 971.517 487.98 970.564 487.98C969.61 487.98 968.937 487.653 968.544 487C968.157 486.34 967.964 485.427 967.964 484.26ZM972.044 484.26C972.044 483.72 972.007 483.263 971.934 482.89C971.867 482.517 971.727 482.213 971.514 481.98C971.3 481.74 970.984 481.62 970.564 481.62C970.144 481.62 969.827 481.74 969.614 481.98C969.4 482.213 969.257 482.517 969.184 482.89C969.117 483.263 969.084 483.72 969.084 484.26C969.084 484.82 969.117 485.29 969.184 485.67C969.25 486.05 969.39 486.357 969.604 486.59C969.824 486.823 970.144 486.94 970.564 486.94C970.984 486.94 971.3 486.823 971.514 486.59C971.734 486.357 971.877 486.05 971.944 485.67C972.01 485.29 972.044 484.82 972.044 484.26ZM974.23 486.48V485.62L977.59 480.8H978.97V485.49H979.9V486.48H978.97V488H977.85V486.48H974.23ZM977.9 481.96L975.54 485.49H977.9V481.96ZM985.224 483.9V484.86H981.114V483.9H985.224ZM987.324 486.45C987.964 485.897 988.467 485.443 988.834 485.09C989.207 484.73 989.517 484.357 989.764 483.97C990.011 483.583 990.134 483.197 990.134 482.81C990.134 482.41 990.037 482.097 989.844 481.87C989.657 481.643 989.361 481.53 988.954 481.53C988.561 481.53 988.254 481.657 988.034 481.91C987.821 482.157 987.707 482.49 987.694 482.91H986.594C986.614 482.15 986.841 481.57 987.274 481.17C987.714 480.763 988.271 480.56 988.944 480.56C989.671 480.56 990.237 480.76 990.644 481.16C991.057 481.56 991.264 482.093 991.264 482.76C991.264 483.24 991.141 483.703 990.894 484.15C990.654 484.59 990.364 484.987 990.024 485.34C989.691 485.687 989.264 486.09 988.744 486.55L988.294 486.95H991.464V487.9H986.604V487.07L987.324 486.45ZM993.095 486.45C993.735 485.897 994.239 485.443 994.605 485.09C994.979 484.73 995.289 484.357 995.535 483.97C995.782 483.583 995.905 483.197 995.905 482.81C995.905 482.41 995.809 482.097 995.615 481.87C995.429 481.643 995.132 481.53 994.725 481.53C994.332 481.53 994.025 481.657 993.805 481.91C993.592 482.157 993.479 482.49 993.465 482.91H992.365C992.385 482.15 992.612 481.57 993.045 481.17C993.485 480.763 994.042 480.56 994.715 480.56C995.442 480.56 996.009 480.76 996.415 481.16C996.829 481.56 997.035 482.093 997.035 482.76C997.035 483.24 996.912 483.703 996.665 484.15C996.425 484.59 996.135 484.987 995.795 485.34C995.462 485.687 995.035 486.09 994.515 486.55L994.065 486.95H997.235V487.9H992.375V487.07L993.095 486.45Z" fill="#73798B"/>
<path d="M1228.66 484.26C1228.66 483.107 1228.85 482.207 1229.24 481.56C1229.63 480.907 1230.3 480.58 1231.26 480.58C1232.21 480.58 1232.88 480.907 1233.27 481.56C1233.66 482.207 1233.86 483.107 1233.86 484.26C1233.86 485.427 1233.66 486.34 1233.27 487C1232.88 487.653 1232.21 487.98 1231.26 487.98C1230.3 487.98 1229.63 487.653 1229.24 487C1228.85 486.34 1228.66 485.427 1228.66 484.26ZM1232.74 484.26C1232.74 483.72 1232.7 483.263 1232.63 482.89C1232.56 482.517 1232.42 482.213 1232.21 481.98C1231.99 481.74 1231.68 481.62 1231.26 481.62C1230.84 481.62 1230.52 481.74 1230.31 481.98C1230.09 482.213 1229.95 482.517 1229.88 482.89C1229.81 483.263 1229.78 483.72 1229.78 484.26C1229.78 484.82 1229.81 485.29 1229.88 485.67C1229.94 486.05 1230.08 486.357 1230.3 486.59C1230.52 486.823 1230.84 486.94 1231.26 486.94C1231.68 486.94 1231.99 486.823 1232.21 486.59C1232.43 486.357 1232.57 486.05 1232.64 485.67C1232.7 485.29 1232.74 484.82 1232.74 484.26ZM1234.92 486.48V485.62L1238.28 480.8H1239.66V485.49H1240.59V486.48H1239.66V488H1238.54V486.48H1234.92ZM1238.59 481.96L1236.23 485.49H1238.59V481.96ZM1245.92 483.9V484.86H1241.81V483.9H1245.92ZM1248.02 486.45C1248.66 485.897 1249.16 485.443 1249.53 485.09C1249.9 484.73 1250.21 484.357 1250.46 483.97C1250.7 483.583 1250.83 483.197 1250.83 482.81C1250.83 482.41 1250.73 482.097 1250.54 481.87C1250.35 481.643 1250.05 481.53 1249.65 481.53C1249.25 481.53 1248.95 481.657 1248.73 481.91C1248.51 482.157 1248.4 482.49 1248.39 482.91H1247.29C1247.31 482.15 1247.53 481.57 1247.97 481.17C1248.41 480.763 1248.96 480.56 1249.64 480.56C1250.36 480.56 1250.93 480.76 1251.34 481.16C1251.75 481.56 1251.96 482.093 1251.96 482.76C1251.96 483.24 1251.83 483.703 1251.59 484.15C1251.35 484.59 1251.06 484.987 1250.72 485.34C1250.38 485.687 1249.96 486.09 1249.44 486.55L1248.99 486.95H1252.16V487.9H1247.3V487.07L1248.02 486.45ZM1257.86 481.69H1254.51V483.68C1254.65 483.493 1254.85 483.337 1255.13 483.21C1255.41 483.083 1255.7 483.02 1256.02 483.02C1256.58 483.02 1257.03 483.14 1257.38 483.38C1257.73 483.62 1257.98 483.923 1258.13 484.29C1258.28 484.657 1258.36 485.043 1258.36 485.45C1258.36 485.943 1258.26 486.383 1258.07 486.77C1257.88 487.15 1257.6 487.45 1257.22 487.67C1256.84 487.89 1256.38 488 1255.84 488C1255.11 488 1254.53 487.82 1254.09 487.46C1253.65 487.1 1253.38 486.623 1253.3 486.03H1254.41C1254.48 486.343 1254.64 486.593 1254.9 486.78C1255.15 486.96 1255.47 487.05 1255.85 487.05C1256.32 487.05 1256.67 486.907 1256.91 486.62C1257.15 486.333 1257.27 485.953 1257.27 485.48C1257.27 485 1257.15 484.633 1256.91 484.38C1256.67 484.12 1256.31 483.99 1255.85 483.99C1255.52 483.99 1255.24 484.073 1255.02 484.24C1254.8 484.4 1254.64 484.62 1254.54 484.9H1253.46V480.69H1257.86V481.69Z" fill="#73798B"/>
<path d="M445.358 484.26C445.358 483.107 445.551 482.207 445.938 481.56C446.331 480.907 447.004 480.58 447.958 480.58C448.911 480.58 449.581 480.907 449.968 481.56C450.361 482.207 450.558 483.107 450.558 484.26C450.558 485.427 450.361 486.34 449.968 487C449.581 487.653 448.911 487.98 447.958 487.98C447.004 487.98 446.331 487.653 445.938 487C445.551 486.34 445.358 485.427 445.358 484.26ZM449.438 484.26C449.438 483.72 449.401 483.263 449.328 482.89C449.261 482.517 449.121 482.213 448.908 481.98C448.694 481.74 448.378 481.62 447.958 481.62C447.538 481.62 447.221 481.74 447.008 481.98C446.794 482.213 446.651 482.517 446.578 482.89C446.511 483.263 446.478 483.72 446.478 484.26C446.478 484.82 446.511 485.29 446.578 485.67C446.644 486.05 446.784 486.357 446.998 486.59C447.218 486.823 447.538 486.94 447.958 486.94C448.378 486.94 448.694 486.823 448.908 486.59C449.128 486.357 449.271 486.05 449.338 485.67C449.404 485.29 449.438 484.82 449.438 484.26ZM451.624 486.48V485.62L454.984 480.8H456.364V485.49H457.294V486.48H456.364V488H455.244V486.48H451.624ZM455.294 481.96L452.934 485.49H455.294V481.96ZM462.619 483.9V484.86H458.509V483.9H462.619ZM464.088 484.26C464.088 483.107 464.282 482.207 464.668 481.56C465.062 480.907 465.735 480.58 466.688 480.58C467.642 480.58 468.312 480.907 468.698 481.56C469.092 482.207 469.288 483.107 469.288 484.26C469.288 485.427 469.092 486.34 468.698 487C468.312 487.653 467.642 487.98 466.688 487.98C465.735 487.98 465.062 487.653 464.668 487C464.282 486.34 464.088 485.427 464.088 484.26ZM468.168 484.26C468.168 483.72 468.132 483.263 468.058 482.89C467.992 482.517 467.852 482.213 467.638 481.98C467.425 481.74 467.108 481.62 466.688 481.62C466.268 481.62 465.952 481.74 465.738 481.98C465.525 482.213 465.382 482.517 465.308 482.89C465.242 483.263 465.208 483.72 465.208 484.26C465.208 484.82 465.242 485.29 465.308 485.67C465.375 486.05 465.515 486.357 465.728 486.59C465.948 486.823 466.268 486.94 466.688 486.94C467.108 486.94 467.425 486.823 467.638 486.59C467.858 486.357 468.002 486.05 468.068 485.67C468.135 485.29 468.168 484.82 468.168 484.26ZM471.914 486.02C471.981 486.353 472.124 486.607 472.344 486.78C472.564 486.953 472.861 487.04 473.234 487.04C473.708 487.04 474.054 486.853 474.274 486.48C474.494 486.107 474.604 485.47 474.604 484.57C474.444 484.797 474.218 484.973 473.924 485.1C473.638 485.22 473.324 485.28 472.984 485.28C472.551 485.28 472.158 485.193 471.804 485.02C471.451 484.84 471.171 484.577 470.964 484.23C470.764 483.877 470.664 483.45 470.664 482.95C470.664 482.217 470.878 481.633 471.304 481.2C471.738 480.76 472.331 480.54 473.084 480.54C473.991 480.54 474.634 480.843 475.014 481.45C475.401 482.05 475.594 482.973 475.594 484.22C475.594 485.08 475.521 485.783 475.374 486.33C475.234 486.877 474.988 487.29 474.634 487.57C474.281 487.85 473.791 487.99 473.164 487.99C472.451 487.99 471.901 487.803 471.514 487.43C471.128 487.057 470.911 486.587 470.864 486.02H471.914ZM473.184 484.32C473.584 484.32 473.898 484.197 474.124 483.95C474.358 483.697 474.474 483.363 474.474 482.95C474.474 482.49 474.351 482.133 474.104 481.88C473.864 481.62 473.534 481.49 473.114 481.49C472.694 481.49 472.361 481.623 472.114 481.89C471.874 482.15 471.754 482.493 471.754 482.92C471.754 483.327 471.871 483.663 472.104 483.93C472.344 484.19 472.704 484.32 473.184 484.32Z" fill="#73798B"/>
<path d="M634 465V473" stroke="#73798B"/>
<path d="M895 465V473" stroke="#73798B"/>
<path d="M1156 465V473" stroke="#73798B"/>
<path d="M808 465V473" stroke="#73798B"/>
<path d="M1069 465V473" stroke="#73798B"/>
<path d="M199 465V473" stroke="#73798B"/>
<path d="M286 465V473" stroke="#73798B"/>
<path d="M373 465V473" stroke="#73798B"/>
<path d="M460 465V473" stroke="#73798B"/>
<path d="M547 465V473" stroke="#73798B"/>
<path d="M721 465V473" stroke="#73798B"/>
<path d="M982 465V473" stroke="#73798B"/>
<path d="M1243 465V473" stroke="#73798B"/>
<path d="M112.062 465V473" stroke="#73798B"/>
<path d="M63 140V468H1304" stroke="#73798B"/>
</g>
<rect x="0.5" y="0.5" width="1327" height="551" rx="9.5" stroke="#EDEEF3"/>
<defs>
<filter id="filter0_dd_3885_3845" x="24" y="78" width="88" height="40" filterUnits="userSpaceOnUse" color-interpolation-filters="sRGB">
<feFlood flood-opacity="0" result="BackgroundImageFix"/>
<feColorMatrix in="SourceAlpha" type="matrix" values="0 0 0 0 0 0 0 0 0 0 0 0 0 0 0 0 0 0 127 0" result="hardAlpha"/>
<feOffset dy="1"/>
<feGaussianBlur stdDeviation="1.5"/>
<feColorMatrix type="matrix" values="0 0 0 0 0.0627451 0 0 0 0 0.0941176 0 0 0 0 0.156863 0 0 0 0.0644668 0"/>
<feBlend mode="normal" in2="BackgroundImageFix" result="effect1_dropShadow_3885_3845"/>
<feColorMatrix in="SourceAlpha" type="matrix" values="0 0 0 0 0 0 0 0 0 0 0 0 0 0 0 0 0 0 127 0" result="hardAlpha"/>
<feOffset dy="2"/>
<feGaussianBlur stdDeviation="2"/>
<feColorMatrix type="matrix" values="0 0 0 0 0.0627451 0 0 0 0 0.0941176 0 0 0 0 0.156863 0 0 0 0.104294 0"/>
<feBlend mode="normal" in2="effect1_dropShadow_3885_3845" result="effect2_dropShadow_3885_3845"/>
<feBlend mode="normal" in="SourceGraphic" in2="effect2_dropShadow_3885_3845" result="shape"/>
</filter>
<clipPath id="clip0_3885_3845">
<rect width="1328" height="552" rx="10" fill="white"/>
</clipPath>
</defs>
</svg>
