<svg width="1600" height="398" viewBox="0 0 1600 398" fill="none" xmlns="http://www.w3.org/2000/svg">
<g clip-path="url(#clip0_5551_1308)">
<rect width="1600" height="398" fill="white"/>
<g clip-path="url(#clip1_5551_1308)">
<rect width="1600" height="398" fill="white"/>
<g clip-path="url(#clip2_5551_1308)">
<rect width="716" height="74" fill="#1F32D6"/>
<path d="M29.126 33.78V35.364C29.016 40.314 28.07 44.252 26.266 47.2L24.66 45.528C26.046 43.086 26.794 39.698 26.904 35.364V28.324C32.844 28.258 38.124 27.796 42.744 26.916L43.866 28.962C39.488 29.71 34.582 30.15 29.126 30.238V31.668H35.858L36.056 30.04L38.344 30.326C38.3 30.766 38.234 31.228 38.168 31.668H44.834V33.78H37.816L37.486 35.21H43.03V42.954H40.808V37.322H32.822V42.954H30.6V35.21H35.154L35.484 33.78H29.126ZM38.278 42.228C40.698 43.064 42.876 44.098 44.856 45.308L43.58 47.31C41.49 45.88 39.334 44.758 37.134 43.944L38.278 42.228ZM36.166 37.96L38.388 38.114C38.124 40.71 37.332 42.712 35.968 44.076C34.582 45.462 32.47 46.562 29.61 47.354L28.378 45.242C30.93 44.626 32.8 43.79 34.01 42.69C35.198 41.59 35.924 40.006 36.166 37.96ZM49.806 47.046H47.782L47.276 44.868C47.87 44.934 48.442 44.978 49.014 44.978C49.542 44.978 49.828 44.714 49.828 44.186V39.72C48.992 40.028 48.134 40.314 47.276 40.6L46.682 38.268C47.738 38.026 48.772 37.718 49.828 37.366V32.944H47.21V30.722H49.828V26.96H52.094V30.722H54.14V32.944H52.094V36.486C52.842 36.134 53.59 35.76 54.338 35.364V37.696C53.59 38.07 52.842 38.422 52.094 38.774V44.758C52.094 46.276 51.324 47.046 49.806 47.046ZM59.508 29.754H56.978V32.988H59.508V29.754ZM56.978 35.1V38.378H59.508V35.1H56.978ZM59.508 40.468H56.978V41.546H54.822V27.642H66.482V41.546H64.326V40.468H61.664V47.266H59.508V40.468ZM61.664 38.378H64.326V35.1H61.664V38.378ZM64.326 32.988V29.754H61.664V32.988H64.326ZM77.064 42.47V44.626C74.82 45.418 72.29 46.078 69.43 46.584L69.144 44.34C72.158 43.878 74.798 43.262 77.064 42.47ZM72.532 26.806L74.688 27.642C73.654 30.216 72.598 32.328 71.52 33.978C72.312 33.89 73.104 33.802 73.896 33.692C74.27 32.966 74.666 32.196 75.106 31.382L77.108 32.13C75.304 35.452 73.764 37.894 72.532 39.478C73.94 39.17 75.348 38.774 76.8 38.29V40.336C74.314 41.172 71.982 41.744 69.782 42.03L69.166 39.962C69.562 39.786 69.914 39.566 70.2 39.302C70.86 38.642 71.696 37.454 72.708 35.76C71.652 35.892 70.552 36.046 69.408 36.2L68.858 34.11C69.21 33.956 69.518 33.67 69.804 33.274C70.86 31.316 71.762 29.16 72.532 26.806ZM76.712 29.424H81.706V27.004H84.016V29.424H89.01V31.624H84.016V34.22H88.372V36.42H77.438V34.22H81.706V31.624H76.712V29.424ZM87.954 37.96V47.222H85.732V46.408H80.144V47.222H77.9V37.96H87.954ZM80.144 44.252H85.732V40.116H80.144V44.252ZM93.278 27.62H108.678V36.662H102.166V38.136H110.812V40.27H103.97C105.51 41.964 107.952 43.504 111.318 44.868L109.734 46.87C106.214 44.934 103.706 42.778 102.166 40.446V47.244H99.834V40.446C98.184 43.02 95.588 45.154 92.068 46.87L90.748 44.736C94.004 43.548 96.424 42.052 98.008 40.27H91.188V38.136H99.834V36.662H93.278V27.62ZM106.39 34.704V33.186H102.166V34.704H106.39ZM99.834 34.704V33.186H95.566V34.704H99.834ZM95.566 31.206H99.834V29.644H95.566V31.206ZM102.166 29.644V31.206H106.39V29.644H102.166Z" fill="white"/>
<path d="M716 0V72" stroke="white" stroke-width="2" stroke-linejoin="round"/>
</g>
<g clip-path="url(#clip3_5551_1308)">
<rect width="1262" height="74" transform="translate(716)" fill="#1F32D6"/>
<path d="M750.186 27.048H751.814C754.52 30.15 757.644 32.592 761.186 34.396L760.042 36.442C756.5 34.572 753.486 32.13 751 29.138C748.712 31.954 745.676 34.418 741.892 36.486L740.748 34.418C744.532 32.438 747.678 29.996 750.186 27.048ZM754.344 36.706H747.524V43.592C747.524 44.406 747.898 44.824 748.646 44.824H754.608C755.862 44.824 756.632 44.604 756.94 44.186C757.226 43.768 757.468 42.888 757.644 41.524L759.756 42.228C759.492 44.516 759.074 45.88 758.524 46.298C757.974 46.716 756.896 46.936 755.29 46.936H747.59C745.984 46.936 745.192 46.1 745.192 44.45V34.616H756.632V39.896C756.61 41.436 755.906 42.25 754.542 42.338C753.442 42.338 752.408 42.294 751.44 42.25L750.824 40.094C751.902 40.182 752.826 40.226 753.596 40.226C754.08 40.226 754.344 39.83 754.344 39.082V36.706ZM767.566 26.718L769.722 27.752C769.194 29.402 768.49 30.986 767.61 32.482V47.332H765.322V35.826C764.706 36.574 764.068 37.3 763.386 38.004L762.616 35.54C764.838 33.054 766.488 30.106 767.566 26.718ZM769.172 30.238H774.76C774.452 29.226 774.122 28.28 773.77 27.4L776.212 27.004C776.498 27.95 776.784 29.028 777.07 30.238H782.636V32.416H769.172V30.238ZM768.82 44.208H776.278C777.334 41.304 778.236 37.718 779.028 33.472L781.228 34.044C780.524 37.85 779.644 41.238 778.61 44.208H783.208V46.452H768.82V44.208ZM772.384 33.67C773.198 36.442 773.924 39.588 774.584 43.152L772.45 43.724C771.878 40.468 771.152 37.344 770.272 34.352L772.384 33.67ZM789.566 37.52V27.048H791.832V47.244H789.566V40.204C788.334 41.524 786.97 42.734 785.496 43.878L784.77 41.48C786.53 40.292 788.114 38.972 789.566 37.52ZM787.102 29.248C787.872 30.964 788.554 32.812 789.126 34.792L787.124 35.694C786.464 33.538 785.738 31.624 784.946 29.974L787.102 29.248ZM801.908 27.356C803.008 28.632 803.866 29.732 804.46 30.656L802.656 31.932C802.04 30.876 801.182 29.732 800.126 28.456L801.908 27.356ZM799.466 27.004C799.466 28.522 799.444 30.392 799.4 32.592H804.526V34.814H799.576C800.588 39.39 802.502 42.932 805.318 45.462L803.734 47.222C801.226 44.78 799.51 41.81 798.542 38.334C797.53 41.92 795.902 44.912 793.702 47.288L792.14 45.55C794.868 42.404 796.474 38.818 796.958 34.814H792.822V32.592H797.09C797.156 30.15 797.2 28.28 797.2 27.004H799.466ZM815.812 26.696L818.1 26.938C818.012 27.642 817.902 28.324 817.748 28.984H825.954V31.206H819.398C820.454 33.318 823.028 34.99 827.12 36.2L825.888 38.18C821.092 36.464 818.166 34.132 817.066 31.228C816.582 32.416 815.966 33.45 815.218 34.33C816.098 34.946 817.066 35.76 818.166 36.728L816.582 38.334C815.702 37.41 814.734 36.508 813.722 35.672C812.226 36.728 810.18 37.586 807.628 38.268L806.704 36.134C809.784 35.364 811.984 34.264 813.326 32.856C813.766 32.372 814.162 31.822 814.492 31.206H807.826V28.984H815.372C815.57 28.258 815.724 27.488 815.812 26.696ZM808.794 39.742L811.06 40.248C810.532 42.536 809.806 44.538 808.882 46.21L806.902 44.956C807.804 43.328 808.442 41.59 808.794 39.742ZM817.836 38.862C818.584 39.984 819.244 41.194 819.816 42.47L817.704 43.416C817.132 41.942 816.494 40.644 815.812 39.544L817.836 38.862ZM824.48 39.368C825.492 40.996 826.394 42.734 827.142 44.604L825.03 45.55C824.194 43.482 823.27 41.678 822.258 40.094L824.48 39.368ZM820.124 46.826H814.492C812.82 46.826 812.006 45.946 812.006 44.208V39.676H814.338V43.724C814.338 44.296 814.624 44.604 815.196 44.604H819.684C820.036 44.604 820.3 44.472 820.476 44.23C820.696 43.988 820.828 43.218 820.894 41.942L823.072 42.668C822.896 44.692 822.566 45.88 822.082 46.276C821.664 46.628 821.004 46.826 820.124 46.826Z" fill="white"/>
</g>
<mask id="path-6-inside-1_5551_1308" fill="white">
<path d="M0 74H716V155H0V74Z"/>
</mask>
<path d="M0 74H716V155H0V74Z" fill="white"/>
<path d="M716 155V156H717V155H716ZM715 74V155H717V74H715ZM716 154H0V156H716V154Z" fill="black" mask="url(#path-6-inside-1_5551_1308)"/>
<path d="M40.368 103.96C41.424 104.752 42.326 105.566 43.074 106.38L42.062 107.392H44.746V108.91H37.97C38.124 111.638 38.41 113.794 38.806 115.378C38.938 115.928 39.092 116.434 39.246 116.918C40.346 115.158 41.226 113.09 41.908 110.736L43.338 111.352C42.458 114.256 41.314 116.72 39.906 118.7C40.214 119.404 40.544 120.02 40.896 120.526C41.622 121.582 42.216 122.11 42.656 122.11C43.052 122.088 43.426 120.944 43.756 118.678L45.186 119.47C44.658 122.396 43.91 123.87 42.92 123.87C41.996 123.87 41.006 123.21 39.95 121.89C39.554 121.362 39.18 120.746 38.85 120.064C37.31 121.868 35.506 123.21 33.438 124.134L32.558 122.814C34.758 121.824 36.628 120.372 38.146 118.458C37.838 117.644 37.552 116.764 37.31 115.818C36.826 113.97 36.518 111.66 36.342 108.91H28.796V112.562H34.186C34.142 116.28 33.966 118.678 33.68 119.756C33.394 120.702 32.712 121.186 31.612 121.23C31.084 121.23 30.446 121.186 29.742 121.142L29.258 119.712C30.116 119.756 30.842 119.778 31.436 119.778C31.92 119.756 32.228 119.426 32.36 118.81C32.492 118.062 32.558 116.478 32.602 114.058H28.796V114.718C28.708 118.656 27.828 121.824 26.2 124.2L24.99 123.122C26.398 121.098 27.124 118.304 27.19 114.718V107.392H36.276C36.232 106.292 36.21 105.17 36.21 103.982H37.838C37.838 105.214 37.86 106.336 37.904 107.392H42.018C41.358 106.6 40.478 105.786 39.356 104.928L40.368 103.96ZM50.972 108.008H47.804V106.49H55.746V108.008H52.578V118.106C53.744 117.776 54.888 117.402 56.01 116.962V118.546C53.502 119.47 50.818 120.218 47.958 120.834L47.562 119.25C48.706 119.052 49.85 118.81 50.972 118.546V108.008ZM59.794 104.092H61.422V108.536H67.01C67.01 115.4 66.9 119.646 66.68 121.274C66.416 123.078 65.162 124.002 62.94 124.002C62.544 124.002 61.884 123.958 60.938 123.914L60.564 122.44C61.378 122.484 62.082 122.506 62.698 122.506C64.128 122.506 64.964 121.868 65.184 120.614C65.316 119.47 65.404 115.95 65.448 110.076H61.422C61.312 116.544 59.552 121.274 56.164 124.288L54.866 123.166C58.078 120.438 59.706 116.06 59.794 110.076H56.296V108.536H59.794V104.092Z" fill="black"/>
<g clip-path="url(#clip4_5551_1308)">
<mask id="path-9-inside-2_5551_1308" fill="white">
<path d="M716 74H1978V155H716V74Z"/>
</mask>
<path d="M716 74H1978V155H716V74Z" fill="white"/>
<path d="M758.37 113.992H744.554V120.482C744.554 121.45 745.06 121.956 746.072 121.956H757.116C757.644 121.956 758.084 121.824 758.414 121.56C758.854 121.164 759.14 119.756 759.272 117.336L760.812 117.82C760.592 120.548 760.218 122.176 759.69 122.748C759.206 123.21 758.48 123.452 757.556 123.496H745.632C743.85 123.496 742.97 122.572 742.97 120.768V109.218H744.554V112.474H756.764V106.732H742.09V105.192H758.37V113.992ZM781.866 115.818V124.288H780.326V123.144H770.646V124.288H769.106V115.818H781.866ZM770.646 121.648H780.326V117.314H770.646V121.648ZM780.546 107.898H767.676V111.352H780.546V107.898ZM767.676 112.826V113.772C767.654 117.82 766.686 121.318 764.75 124.222L763.518 123.122C765.234 120.702 766.092 117.6 766.114 113.772V106.402H773.44C773.132 105.566 772.78 104.796 772.384 104.092L774.034 103.828C774.364 104.576 774.694 105.434 775.046 106.402H782.108V112.826H767.676ZM787.3 105.566H795.264V107.084H787.3V105.566ZM786.442 111.506H796.1V113.046H791.018C790.138 116.39 789.368 118.766 788.708 120.218C790.446 119.866 792.184 119.36 793.9 118.722C793.328 117.534 792.778 116.456 792.206 115.444L793.548 114.784C794.604 116.676 795.594 118.722 796.518 120.944L795.154 121.648C794.934 121.076 794.714 120.548 794.494 120.042C792.162 120.878 789.61 121.538 786.882 122.022L786.508 120.526C786.662 120.482 786.772 120.438 786.86 120.394C787.52 119.492 788.4 117.05 789.5 113.046H786.442V111.506ZM799.4 104.092H800.984V108.536H805.78C805.78 115.422 805.67 119.668 805.472 121.296C805.252 123.078 804.174 123.98 802.282 123.98C801.908 123.98 801.27 123.958 800.346 123.914L799.994 122.506C800.786 122.55 801.49 122.594 802.084 122.594C803.162 122.594 803.8 121.956 803.976 120.702C804.108 119.536 804.196 115.994 804.24 110.076H800.984V110.34C800.918 116.676 799.378 121.318 796.386 124.244L795.198 123.21C797.948 120.548 799.356 116.258 799.4 110.34V110.076H796.43V108.536H799.4V104.092ZM826.68 103.806H828.22C827.34 105.258 826.636 106.776 826.13 108.36C825.47 110.296 825.162 112.188 825.162 114.08C825.162 115.95 825.47 117.864 826.13 119.8C826.636 121.362 827.34 122.88 828.22 124.354H826.68C825.712 122.924 824.964 121.406 824.414 119.822C823.754 117.93 823.446 116.016 823.446 114.102C823.446 112.144 823.754 110.23 824.414 108.338C824.964 106.732 825.712 105.214 826.68 103.806ZM836.822 106.292H838.912L845.094 122H843.136L841.464 117.6H834.248L832.576 122H830.64L836.822 106.292ZM834.82 116.082H840.892L837.922 108.228H837.834L834.82 116.082ZM852.029 110.318C853.437 110.318 854.559 110.648 855.417 111.308C856.297 111.99 856.825 113.024 857.023 114.41H855.285C855.131 113.53 854.779 112.87 854.229 112.43C853.657 111.99 852.931 111.792 852.029 111.792C850.929 111.792 850.049 112.21 849.411 113.046C848.795 113.86 848.487 114.96 848.487 116.346C848.487 117.732 848.773 118.832 849.389 119.624C849.983 120.416 850.863 120.834 852.007 120.834C853.943 120.834 855.065 119.844 855.329 117.886H857.089C856.825 119.338 856.275 120.46 855.395 121.208C854.537 121.934 853.415 122.308 852.007 122.308C850.291 122.308 848.971 121.736 848.025 120.592C847.123 119.514 846.683 118.106 846.683 116.368C846.683 114.63 847.123 113.222 848.025 112.122C848.993 110.912 850.335 110.318 852.029 110.318ZM862.85 106.952V110.626H865.666V112.1H862.85V119.338C862.85 119.756 862.916 120.064 863.092 120.24C863.246 120.416 863.532 120.526 863.928 120.526H865.38V122H863.664C862.74 122 862.058 121.758 861.662 121.274C861.288 120.834 861.112 120.196 861.112 119.338V112.1H858.824V110.626H861.112V107.678L862.85 106.952ZM869.747 106.336C870.121 106.336 870.429 106.446 870.693 106.71C870.957 106.93 871.089 107.238 871.089 107.634C871.089 108.008 870.957 108.316 870.693 108.58C870.429 108.822 870.121 108.954 869.747 108.954C869.373 108.954 869.065 108.822 868.801 108.58C868.537 108.316 868.427 108.008 868.427 107.634C868.427 107.238 868.537 106.93 868.801 106.71C869.065 106.446 869.373 106.336 869.747 106.336ZM868.867 110.626H870.627V122H868.867V110.626ZM873.329 110.626H875.265L878.521 119.8L881.777 110.626H883.713L879.401 122H877.619L873.329 110.626ZM890.543 110.318C892.369 110.318 893.755 110.934 894.679 112.166C895.515 113.266 895.955 114.828 895.999 116.808H887.023C887.111 118.084 887.441 119.074 888.057 119.778C888.673 120.482 889.531 120.834 890.609 120.834C891.533 120.834 892.303 120.592 892.875 120.13C893.359 119.734 893.733 119.14 894.019 118.348H895.779C895.515 119.448 895.009 120.328 894.239 121.032C893.293 121.868 892.083 122.308 890.609 122.308C888.981 122.308 887.661 121.758 886.693 120.702C885.681 119.602 885.197 118.15 885.197 116.302C885.197 114.63 885.659 113.222 886.627 112.1C887.595 110.912 888.893 110.318 890.543 110.318ZM890.587 111.792C889.575 111.792 888.761 112.122 888.145 112.782C887.529 113.442 887.177 114.322 887.067 115.444H894.173C893.953 113.002 892.743 111.792 890.587 111.792ZM899.116 103.806H900.656C901.602 105.214 902.35 106.732 902.922 108.338C903.56 110.23 903.89 112.144 903.89 114.102C903.89 116.016 903.56 117.93 902.922 119.822C902.35 121.406 901.602 122.924 900.656 124.354H899.116C899.996 122.88 900.678 121.362 901.206 119.8C901.844 117.864 902.174 115.95 902.174 114.08C902.174 112.188 901.844 110.296 901.206 108.36C900.678 106.776 899.996 105.258 899.116 103.806Z" fill="black"/>
</g>
<path d="M1978 155V156H1979V155H1978ZM1977 74V155H1979V74H1977ZM1978 154H716V156H1978V154Z" fill="black" mask="url(#path-9-inside-2_5551_1308)"/>
<mask id="path-12-inside-3_5551_1308" fill="white">
<path d="M0 155H716V236H0V155Z"/>
</mask>
<path d="M0 155H716V236H0V155Z" fill="white"/>
<path d="M716 236V237H717V236H716ZM715 155V236H717V155H715ZM716 235H0V237H716V235Z" fill="black" mask="url(#path-12-inside-3_5551_1308)"/>
<path d="M27.586 196.576C26.926 197.39 26.178 198.204 25.386 198.996L24.924 197.412C27.388 194.838 29.016 192.352 29.83 189.932H25.342V188.48H28.004C27.652 187.424 27.256 186.39 26.816 185.422L28.334 185.004C28.818 186.148 29.192 187.204 29.456 188.15L28.62 188.48H31.326V189.778C30.864 191.362 30.138 192.924 29.126 194.464V194.596C29.412 194.86 29.698 195.102 29.962 195.366C30.49 194.926 30.996 194.266 31.458 193.43L32.36 194.332C31.876 195.124 31.348 195.762 30.776 196.224C31.282 196.774 31.744 197.346 32.184 197.94L31.326 199.238C30.6 198.072 29.874 197.06 29.126 196.224V205.222H27.586V196.576ZM37.948 185.026H39.532V187.688H44.394V188.458C44.196 189.734 43.888 190.988 43.47 192.22L42.04 191.824C42.326 191.032 42.59 190.13 42.81 189.162H39.532V193.672H43.36V195.036C42.832 197.346 41.908 199.304 40.544 200.91C41.798 202.01 43.338 202.956 45.186 203.77L44.328 205.156C42.436 204.232 40.83 203.176 39.554 201.988C38.146 203.308 36.43 204.386 34.406 205.2L33.614 203.792C35.528 203.044 37.134 202.076 38.432 200.888C36.892 199.194 35.858 197.28 35.33 195.124H34.538V195.366C34.516 199.172 33.658 202.428 31.964 205.112L30.666 203.99C32.162 201.746 32.954 198.886 33.02 195.41V187.688H37.948V185.026ZM37.948 189.162H34.538V193.672H37.948V189.162ZM39.422 199.832C40.544 198.468 41.358 196.906 41.864 195.124H36.76C37.244 196.884 38.146 198.446 39.422 199.832ZM54.074 190.064C55.35 191.648 56.538 193.166 57.616 194.618C58.496 192.968 59.2 191.186 59.728 189.294L61.29 189.558C60.63 191.934 59.75 194.09 58.65 196.026C59.992 197.918 61.136 199.678 62.082 201.284L60.652 202.252C59.772 200.734 58.804 199.15 57.704 197.522C56.34 199.502 54.734 201.196 52.842 202.626L51.786 201.284C53.744 199.788 55.394 198.072 56.714 196.092C55.526 194.398 54.206 192.66 52.776 190.856L54.074 190.064ZM50.158 185.906H64.392V194.706C64.392 198.314 64.502 200.624 64.766 201.636C65.008 202.626 65.294 203.132 65.646 203.132C65.932 203.132 66.174 202.12 66.372 200.118L67.78 200.8C67.516 202.45 67.23 203.572 66.922 204.188C66.592 204.716 66.218 204.98 65.822 204.98C64.766 204.98 64.018 204.276 63.534 202.912C63.006 201.57 62.764 198.842 62.764 194.706V187.446H51.742V194.442C51.698 198.71 50.796 202.296 49.058 205.2L47.738 204.122C49.278 201.548 50.092 198.314 50.158 194.442V185.906ZM71.19 185.972H77.702V187.182C77.042 189.162 76.272 191.252 75.392 193.408C76.756 195.366 77.482 197.148 77.592 198.732C77.592 199.634 77.372 200.294 76.932 200.712C76.316 201.196 75.282 201.46 73.808 201.482L73.302 199.898C73.632 199.942 73.918 199.986 74.138 199.986C74.886 199.942 75.414 199.832 75.678 199.656C75.92 199.48 76.052 199.172 76.052 198.732C76.052 197.214 75.304 195.52 73.83 193.65C74.82 191.362 75.59 189.272 76.14 187.424H72.73V205.222H71.19V185.972ZM80.298 191.538C79.462 192.396 78.582 193.144 77.658 193.804L76.866 192.55C79.506 190.636 81.552 188.15 82.982 185.114H84.412C85.6 187.93 87.69 190.372 90.66 192.484L89.802 193.804C88.812 193.1 87.932 192.374 87.162 191.582V192.858H80.298V191.538ZM86.986 191.406C85.6 189.976 84.5 188.392 83.686 186.676C82.718 188.524 81.64 190.086 80.43 191.406H86.986ZM77.13 202.912H84.852C85.886 200.536 86.788 197.632 87.536 194.2L89.076 194.618C88.35 197.742 87.47 200.492 86.436 202.912H90.176V204.43H77.13V202.912ZM79.682 194.992C80.43 196.84 81.112 198.952 81.728 201.328L80.342 201.68C79.814 199.524 79.132 197.434 78.318 195.454L79.682 194.992ZM83.18 194.134C83.818 195.916 84.39 197.962 84.874 200.272L83.51 200.624C83.07 198.512 82.498 196.51 81.816 194.574L83.18 194.134ZM105.598 198.138H100.472V196.664H112.22V198.138H107.182V202.956H113.034V204.496H99.592V202.956H105.598V198.138ZM95.566 205.002H93.63L93.3 203.462C93.894 203.506 94.466 203.55 95.016 203.55C95.588 203.55 95.874 203.264 95.874 202.692V197.28C94.994 197.61 94.114 197.918 93.234 198.204L92.838 196.62C93.872 196.356 94.884 196.048 95.874 195.696V190.768H93.19V189.25H95.874V185.048H97.502V189.25H99.328V190.768H97.502V195.036C98.162 194.728 98.8 194.42 99.416 194.09V195.696C98.778 196.004 98.14 196.312 97.502 196.598V203.088C97.502 204.364 96.842 205.002 95.566 205.002ZM106.192 184.784C106.566 185.576 106.94 186.456 107.292 187.446H112.462V191.604H110.988V188.876H101.748V191.604H100.252V187.446H105.708C105.356 186.566 104.982 185.752 104.586 185.048L106.192 184.784ZM104.146 190.24L105.532 190.79C104.52 192.968 103.2 194.64 101.55 195.784L100.406 194.794C102.056 193.65 103.31 192.132 104.146 190.24ZM108.392 190.196C109.756 191.604 110.966 193.188 112.022 194.904L110.636 195.608C109.558 193.804 108.37 192.176 107.05 190.768L108.392 190.196ZM118.072 189.294C117.676 190.174 117.214 190.9 116.686 191.472L115.41 190.548C116.51 189.36 117.214 187.732 117.522 185.642L119.018 185.884C118.908 186.588 118.776 187.226 118.6 187.82H121.152V185.092H122.736V187.82H126.85V189.294H122.736V192.132H127.488V193.606H122.736V195.916H127.026V201.724C127.026 203.022 126.366 203.682 125.046 203.682H123.88L123.484 202.186L124.562 202.252C125.178 202.252 125.508 201.966 125.508 201.394V197.39H122.736V205.222H121.152V197.39H118.358V203.836H116.818V195.916H121.152V193.606H115.828V192.132H121.152V189.294H118.072ZM128.786 187.072H130.326V200.668H128.786V187.072ZM132.812 205.002H129.578L129.226 203.484C130.282 203.55 131.294 203.594 132.262 203.594C132.922 203.594 133.274 203.242 133.274 202.538V185.092H134.836V202.934C134.836 204.298 134.154 205.002 132.812 205.002ZM138.862 187.006H148.146V188.568H144.78V193.298H147.31V194.794H144.78V200.426C145.924 200.096 147.002 199.744 148.058 199.392V200.866C145.374 201.834 142.25 202.714 138.664 203.506L138.246 202.054C138.73 201.944 139.192 201.834 139.654 201.746V191.494H141.128V201.394C141.854 201.218 142.558 201.042 143.24 200.866V188.568H138.862V187.006ZM149.598 193.54C149.092 194.596 148.542 195.564 147.948 196.488L147.046 195.3C148.762 192.484 149.906 189.052 150.5 184.982L152.062 185.158C151.864 186.368 151.622 187.512 151.358 188.568H158.112V190.13H156.44C156.33 193.782 155.472 196.884 153.888 199.392C155.208 201.328 156.77 202.824 158.596 203.88L157.694 205.2C155.846 204.1 154.262 202.604 152.942 200.69C151.424 202.56 149.444 204.056 147.002 205.178L146.034 203.88C148.63 202.78 150.632 201.262 152.084 199.326C151.094 197.654 150.258 195.718 149.598 193.54ZM152.964 197.918C154.174 195.74 154.812 193.144 154.878 190.13H150.918C150.742 190.614 150.588 191.098 150.434 191.56C151.094 193.98 151.952 196.114 152.964 197.918ZM161.302 191.582H170.146V190.064H171.774V191.582H180.618V193.034H171.774V194.75H178.99V198.886C178.99 200.008 178.396 200.58 177.23 200.58H175.734L175.338 199.172L176.768 199.238C177.186 199.238 177.406 198.996 177.406 198.556V196.136H171.774V198.072C174.172 200.316 177.296 202.054 181.124 203.33L180.288 204.76C176.988 203.506 174.15 201.79 171.774 199.612V205.266H170.146V199.7C167.836 201.922 165.196 203.638 162.248 204.87L161.324 203.484C164.778 202.208 167.726 200.404 170.146 198.05V196.136H164.866V200.536H163.304V194.75H170.146V193.034H161.302V191.582ZM164.14 188.238C163.612 189.074 163.04 189.844 162.424 190.548L161.06 189.69C162.468 188.194 163.48 186.544 164.118 184.74L165.636 185.07C165.416 185.686 165.174 186.28 164.91 186.83H170.586V188.238H166.868C167.418 189.03 167.88 189.778 168.232 190.46L166.802 190.988C166.362 190.02 165.834 189.118 165.218 188.238H164.14ZM173.336 188.238C172.984 188.942 172.588 189.624 172.148 190.24L170.806 189.36C171.796 187.974 172.522 186.434 172.962 184.762L174.502 185.092C174.326 185.686 174.15 186.258 173.952 186.83H180.552V188.238H176.46C176.988 189.03 177.428 189.778 177.758 190.46L176.372 190.988C175.932 190.02 175.404 189.118 174.832 188.238H173.336ZM184.952 191.714H193.026V198.424H184.952V191.714ZM191.464 196.994V193.188H186.536V196.994H191.464ZM193.708 199.678V201.218C190.782 202.01 187.614 202.692 184.226 203.242L183.83 201.68C187.262 201.24 190.54 200.58 193.708 199.678ZM201.122 205.134C200.022 205.112 198.988 204.408 197.976 203C197.668 202.582 197.404 202.142 197.184 201.68C195.952 203.176 194.588 204.364 193.114 205.244L192.256 203.88C193.818 202.934 195.226 201.658 196.458 200.03C196.15 199.194 195.908 198.292 195.688 197.324C195.182 195.08 194.918 192.44 194.896 189.404H183.83V187.864H194.896V185.048H196.48V187.864H199.714C199.34 187.072 198.922 186.324 198.482 185.664L200.088 185.4C200.484 186.126 200.88 186.94 201.254 187.864H203.388V189.404H196.502C196.546 192.088 196.744 194.464 197.118 196.532C197.25 197.214 197.382 197.852 197.558 198.446C198.79 196.422 199.824 194.024 200.66 191.252L202.046 192C201.012 195.322 199.736 198.094 198.196 200.338C198.416 200.844 198.636 201.306 198.878 201.702C199.648 202.846 200.33 203.418 200.946 203.418C201.474 203.418 201.936 202.164 202.31 199.656L203.674 200.558C203.08 203.594 202.222 205.134 201.122 205.134ZM221.428 197.632L222.968 198.05C222.396 199.876 221.692 201.526 220.856 202.978H225.586V204.452H207.018V202.978H219.162C220.02 201.482 220.768 199.7 221.428 197.632ZM210.912 197.896C211.55 199.084 212.122 200.47 212.628 202.01L211.198 202.384C210.758 200.976 210.186 199.634 209.482 198.358L210.912 197.896ZM215.994 197.456C216.5 198.732 216.962 200.184 217.358 201.834L215.95 202.208C215.576 200.712 215.114 199.282 214.542 197.918L215.994 197.456ZM210.582 195.344H222V196.752H210.582V195.344ZM209.702 188.326C209.13 189.426 208.492 190.438 207.766 191.362L206.402 190.504C207.766 188.832 208.756 186.984 209.372 184.96L210.912 185.29C210.736 185.862 210.538 186.39 210.34 186.918H216.126V188.326H212.958C213.31 189.096 213.618 189.822 213.838 190.482L212.386 191.01C212.1 190.086 211.77 189.184 211.374 188.326H209.702ZM218.964 188.326C218.568 189.096 218.15 189.822 217.688 190.482L216.346 189.624C217.38 188.216 218.128 186.676 218.59 184.96L220.108 185.29C219.932 185.862 219.756 186.39 219.58 186.918H226.004V188.326H222.506C222.99 189.162 223.364 189.932 223.65 190.68L222.198 191.208C221.802 190.218 221.362 189.25 220.878 188.326H218.964ZM215.774 190.504H216.786C219.514 192.506 222.682 194.09 226.268 195.234L225.498 196.598C221.89 195.366 218.832 193.782 216.28 191.802C213.948 193.65 210.868 195.234 207.04 196.576L206.292 195.212C210.076 193.936 213.244 192.374 215.774 190.504ZM235.75 203.836V205.134H234.166V197.368C232.802 197.808 231.372 198.204 229.832 198.578L228.996 197.06C232.802 196.268 235.97 195.256 238.5 193.98C237.532 193.166 236.212 192.286 234.54 191.34L235.904 190.482C237.576 191.516 238.896 192.44 239.842 193.254C242.086 191.912 243.714 190.35 244.748 188.546H236.608C235.112 189.932 233.22 191.164 230.888 192.264L229.832 190.9C233.594 189.294 236.124 187.314 237.444 184.982L239.182 185.18C238.83 185.84 238.434 186.456 237.994 187.05H246.574V188.458C244.99 191.472 242.152 193.936 238.016 195.85H247.19V205.134H245.584V203.836H235.75ZM245.584 202.296V197.324H235.75V202.296H245.584ZM262.392 185.07C262.392 186.962 262.326 188.59 262.238 189.954C263.47 195.938 266.66 200.514 271.786 203.66L270.752 205.046C266.264 202.098 263.228 198.138 261.666 193.166C260.346 197.962 257.222 201.922 252.338 205.068L251.37 203.66C257.42 199.942 260.544 194.904 260.742 188.568C260.764 187.072 260.786 185.906 260.786 185.07H262.392ZM292.906 198.688H284.37V203H294.226V204.518H282.764V185.928H293.83V187.446H284.37V191.098H292.906V198.688ZM284.37 192.572V197.192H291.388V192.572H284.37ZM281.774 193.848V195.454C280.894 195.894 279.992 196.29 279.068 196.686V203.286C279.068 204.43 278.518 205.024 277.462 205.024H275.218L274.888 203.528C275.592 203.594 276.274 203.638 276.934 203.638C277.33 203.638 277.55 203.396 277.55 202.912V197.28C276.56 197.632 275.548 197.984 274.514 198.292L274.118 196.686C275.284 196.422 276.428 196.092 277.55 195.696V190.592H274.47V189.074H277.55V185.092H279.068V189.074H281.752V190.592H279.068V195.124C279.992 194.728 280.894 194.31 281.774 193.848ZM304.038 200.646V202.164C302.058 203.066 299.792 203.792 297.262 204.364L297.064 202.846C299.704 202.296 302.036 201.57 304.038 200.646ZM300.452 184.96L301.948 185.532C300.892 188.392 299.836 190.658 298.78 192.352C299.616 192.242 300.474 192.11 301.31 191.956C301.684 191.164 302.08 190.328 302.498 189.426L303.884 189.932C302.058 193.738 300.54 196.422 299.352 198.006C300.848 197.698 302.322 197.258 303.818 196.686V198.094C301.662 198.886 299.572 199.436 297.592 199.722L297.152 198.292C297.438 198.182 297.68 198.028 297.878 197.852C298.626 196.972 299.528 195.476 300.606 193.364C299.55 193.562 298.472 193.738 297.372 193.914L296.976 192.462C297.24 192.352 297.46 192.154 297.636 191.868C298.736 189.844 299.66 187.556 300.452 184.96ZM309.67 192.88H306.744V196.73H309.67V192.88ZM311.078 196.73H314.07V192.88H311.078V196.73ZM312.002 191.428H315.566V198.16H306.744V202.384C306.744 202.978 307.052 203.286 307.712 203.308H313.498C314.158 203.264 314.62 203.022 314.884 202.582C315.06 202.208 315.236 201.284 315.368 199.788L316.842 200.25C316.688 201.658 316.49 202.692 316.27 203.308C315.896 204.232 315.126 204.716 313.96 204.76H307.14C305.864 204.76 305.248 204.144 305.248 202.912V192.352L304.676 192.924L303.73 191.78C305.534 190.064 307.008 187.842 308.152 185.07L309.67 185.4C309.406 186.016 309.142 186.61 308.856 187.182H314.004V188.348C313.344 189.558 312.662 190.592 312.002 191.428ZM306.062 191.428H310.22C310.88 190.636 311.562 189.69 312.222 188.59H308.086C307.47 189.624 306.788 190.57 306.062 191.428Z" fill="black"/>
<g clip-path="url(#clip5_5551_1308)">
<mask id="path-15-inside-4_5551_1308" fill="white">
<path d="M716 155H1978V236H716V155Z"/>
</mask>
<path d="M716 155H1978V236H716V155Z" fill="white"/>
<path d="M748.338 187.446H754.234C753.904 186.566 753.53 185.752 753.09 185.004L754.74 184.74C755.092 185.532 755.466 186.434 755.818 187.446H761.12V188.876H754.718C753.332 190.966 752.122 192.462 751.088 193.364C752.672 193.298 754.256 193.21 755.84 193.1C756.412 192.33 756.94 191.494 757.424 190.614L758.766 191.318C756.632 195.322 753.508 198.05 749.416 199.524L748.58 198.204C751 197.39 753.024 196.136 754.652 194.464C752.936 194.574 751.088 194.662 749.13 194.728L748.778 193.364C748.91 193.32 748.998 193.276 749.086 193.232C750.098 192.682 751.396 191.23 752.98 188.876H748.338V187.446ZM756.038 200.778C753.882 202.67 751.374 204.122 748.514 205.09L747.656 203.726C752.958 202.032 756.94 198.754 759.58 193.87L760.922 194.596C759.822 196.576 758.524 198.336 757.05 199.832C758.634 201.196 759.998 202.56 761.142 203.946L759.998 205.09C759.008 203.726 757.688 202.274 756.038 200.778ZM743.608 185.29C745.06 186.39 746.27 187.49 747.282 188.59L746.204 189.668C745.302 188.634 744.07 187.534 742.508 186.368L743.608 185.29ZM740.924 191.758H745.676V201.57C746.446 200.932 747.26 200.184 748.118 199.348L748.558 201.02C747.216 202.296 745.786 203.44 744.29 204.43L743.674 203.022C743.982 202.736 744.158 202.428 744.158 202.076V193.276H740.924V191.758ZM772.01 186.434H782.548V187.996H772.01V186.434ZM771.416 192.022H783.516V193.584H779.952V203.198C779.952 204.474 779.226 205.112 777.818 205.112H774.584L774.254 203.55C775.31 203.616 776.3 203.66 777.268 203.66C777.972 203.66 778.346 203.374 778.346 202.802V193.584H771.416V192.022ZM768.534 185.224L769.964 185.884C768.732 188.326 766.752 190.482 764.024 192.352L763.562 190.768C765.85 189.14 767.5 187.292 768.534 185.224ZM769.568 190.24L770.998 190.9C770.36 192.132 769.568 193.32 768.6 194.42V205.2H767.038V196.026C766.158 196.818 765.212 197.588 764.156 198.314L763.694 196.73C766.378 194.838 768.336 192.682 769.568 190.24ZM786.97 186.17H805.67V187.732H798.498C798.102 188.634 797.64 189.514 797.134 190.35V205.244H795.506V192.682C793.438 195.256 790.732 197.544 787.388 199.546L786.354 198.16C791.326 195.3 794.802 191.824 796.738 187.732H786.97V186.17ZM799.906 192.088C802.436 194.09 804.548 196.092 806.264 198.094L805.054 199.326C803.514 197.39 801.424 195.344 798.762 193.166L799.906 192.088ZM811.764 185.862H826.218V194.816H811.764V185.862ZM824.678 193.342V191.076H813.348V193.342H824.678ZM813.348 189.646H824.678V187.336H813.348V189.646ZM815.856 195.894H817.44V203.11H820.476V195.894H822.06V203.11H828.66V204.65H809.3V203.11H815.856V195.894ZM826.306 196.268L827.714 196.95C826.878 198.908 825.91 200.58 824.81 201.988L823.578 201.13C824.634 199.766 825.558 198.16 826.306 196.268ZM811.588 196.598C812.754 198.314 813.656 199.788 814.272 201.042L813.018 201.922C812.358 200.58 811.434 199.084 810.29 197.412L811.588 196.598ZM840.474 204.936H837.636L837.306 203.396C838.23 203.44 839.088 203.484 839.924 203.484C840.584 203.484 840.914 203.154 840.914 202.538V193.386H832.268V191.824H851.012V193.386H842.52V202.934C842.52 204.254 841.838 204.936 840.474 204.936ZM835.656 195.806L837.218 196.136C836.294 199.172 835.018 201.79 833.346 203.99L831.96 203.132C833.654 200.932 834.886 198.49 835.656 195.806ZM847.272 195.586C848.768 197.962 850.088 200.47 851.188 203.154L849.736 203.814C848.548 200.888 847.25 198.314 845.842 196.07L847.272 195.586ZM834.292 186.236H849.054V187.776H834.292V186.236Z" fill="black"/>
</g>
<path d="M1978 236V237H1979V236H1978ZM1977 155V236H1979V155H1977ZM1978 235H716V237H1978V235Z" fill="black" mask="url(#path-15-inside-4_5551_1308)"/>
<mask id="path-18-inside-5_5551_1308" fill="white">
<path d="M0 236H716V317H0V236Z"/>
</mask>
<path d="M0 236H716V317H0V236Z" fill="white"/>
<path d="M716 317V318H717V317H716ZM715 236V317H717V236H715ZM716 316H0V318H716V316Z" fill="black" mask="url(#path-18-inside-5_5551_1308)"/>
<path d="M35.33 276.124H43.778V282.966H35.33V276.124ZM42.326 281.58V277.532H36.738V281.58H42.326ZM25.848 268.996H29.192V266.004H30.71V268.996H34.01V270.404H30.71V273.66H33.966V275.112H31.15V278.214H33.988V279.666H31.15V283.494C31.282 283.56 31.392 283.604 31.502 283.648C32.8 284.088 35.792 284.33 40.456 284.33C42.48 284.308 43.998 284.286 44.988 284.242L44.724 285.826H40.808C35.33 285.826 31.898 285.496 30.534 284.88C29.346 284.33 28.268 283.362 27.344 281.976C27.036 283.472 26.64 284.858 26.112 286.156L24.968 285.122C25.936 282.57 26.486 279.688 26.574 276.52L27.938 276.674C27.894 277.818 27.806 278.918 27.674 279.974C28.246 281.052 28.906 281.91 29.654 282.548V275.112H25.584V273.66H29.192V270.404H25.848V268.996ZM37.794 268.556H34.758V267.104H44.086C44.086 270.844 43.866 273.088 43.448 273.836C43.052 274.584 42.348 274.958 41.336 274.958C40.896 274.958 40.39 274.914 39.774 274.87L39.378 273.484L40.984 273.594C41.666 273.572 42.084 273.286 42.26 272.736C42.436 272.208 42.546 270.822 42.568 268.556H39.268C38.982 270.118 38.608 271.35 38.124 272.274C37.508 273.352 36.606 274.32 35.418 275.156L34.384 273.858C35.44 273.154 36.232 272.384 36.76 271.548C37.222 270.778 37.574 269.788 37.794 268.556ZM49.366 266.334C50.862 267.5 52.116 268.666 53.128 269.81L51.984 270.976C51.082 269.854 49.85 268.644 48.266 267.368L49.366 266.334ZM62.742 285.804C61.488 285.804 60.124 285.782 58.65 285.76C57.154 285.738 55.944 285.606 55.042 285.364C54.118 285.1 53.304 284.55 52.6 283.758C52.292 283.384 51.984 283.208 51.698 283.208C51.17 283.208 50.268 284.22 49.036 286.288L47.848 285.232C49.036 283.34 50.07 282.196 50.994 281.8V275.134H47.826V273.638H52.512V281.888C52.688 282.02 52.886 282.174 53.084 282.394C53.656 283.01 54.25 283.472 54.888 283.78C55.592 284.066 56.648 284.22 58.012 284.264C59.222 284.286 60.74 284.308 62.544 284.308C63.512 284.308 64.48 284.286 65.492 284.286C66.482 284.264 67.252 284.242 67.78 284.198L67.384 285.804H62.742ZM62.082 282.856H58.958L58.606 281.338C59.618 281.404 60.608 281.448 61.532 281.448C62.148 281.448 62.478 281.14 62.478 280.546V271.196H54.162V269.634H62.478V266.07H64.084V269.634H67.34V271.196H64.084V280.92C64.084 282.196 63.402 282.856 62.082 282.856ZM56.56 273.154C57.968 274.782 59.046 276.212 59.794 277.444L58.518 278.324C57.726 277.004 56.67 275.552 55.328 273.946L56.56 273.154ZM78.8902 268.292H85.9082C87.3602 268.292 88.5262 268.644 89.3842 269.348C90.2202 270.052 90.6382 271.02 90.6382 272.252C90.6382 273.132 90.3962 273.902 89.9342 274.54C89.4502 275.112 88.8122 275.53 88.0202 275.794C89.0542 275.97 89.8462 276.41 90.4182 277.07C90.9902 277.73 91.2982 278.566 91.2982 279.622C91.2982 281.162 90.7482 282.306 89.6702 283.054C88.7462 283.67 87.4702 284 85.8642 284H78.8902V268.292ZM80.6942 269.81V275.156H85.4682C86.5682 275.156 87.4042 274.914 87.9762 274.474C88.5482 274.012 88.8562 273.33 88.8562 272.428C88.8562 271.548 88.5702 270.888 87.9982 270.448C87.4262 270.008 86.5902 269.81 85.4902 269.81H80.6942ZM80.6942 276.652V282.482H85.7102C86.8102 282.482 87.6682 282.262 88.3282 281.866C89.0982 281.382 89.4942 280.612 89.4942 279.6C89.4942 278.588 89.1422 277.84 88.4822 277.356C87.8442 276.872 86.9202 276.652 85.7102 276.652H80.6942ZM99.1688 272.318C100.797 272.318 101.985 272.736 102.777 273.594C103.437 274.342 103.789 275.376 103.789 276.696V284H102.139V282.086C101.699 282.702 101.105 283.208 100.401 283.604C99.5648 284.066 98.6188 284.308 97.5628 284.308C96.4188 284.308 95.5168 284.022 94.8348 283.45C94.1308 282.856 93.7788 282.086 93.7788 281.162C93.7788 279.864 94.2848 278.896 95.3408 278.236C96.2648 277.62 97.5848 277.29 99.3008 277.268L102.029 277.224V276.63C102.029 274.716 101.039 273.77 99.0588 273.77C98.2228 273.77 97.5408 273.924 97.0128 274.276C96.4188 274.628 96.0448 275.178 95.8688 275.904L94.1308 275.772C94.3728 274.584 94.9668 273.682 95.8908 273.11C96.7268 272.582 97.8048 272.318 99.1688 272.318ZM102.029 278.544L99.4108 278.588C96.8588 278.632 95.5828 279.468 95.5828 281.118C95.5828 281.646 95.7808 282.064 96.2208 282.416C96.6608 282.746 97.2328 282.922 97.9368 282.922C99.0148 282.922 99.9608 282.57 100.797 281.866C101.611 281.184 102.029 280.392 102.029 279.512V278.544ZM107.168 267.984H108.928V274.716C109.808 273.11 111.062 272.318 112.69 272.318C114.296 272.318 115.572 272.912 116.496 274.144C117.332 275.244 117.772 276.608 117.772 278.28C117.772 279.996 117.332 281.404 116.496 282.504C115.55 283.692 114.252 284.308 112.602 284.308C110.842 284.308 109.588 283.582 108.818 282.13V284H107.168V267.984ZM112.316 273.77C111.282 273.77 110.446 274.166 109.83 275.002C109.17 275.816 108.862 276.894 108.862 278.214V278.434C108.862 279.71 109.148 280.744 109.72 281.536C110.336 282.416 111.238 282.856 112.382 282.856C113.614 282.856 114.538 282.394 115.154 281.514C115.682 280.722 115.968 279.644 115.968 278.28C115.968 276.916 115.682 275.86 115.11 275.09C114.472 274.21 113.548 273.77 112.316 273.77ZM119.465 272.626H121.379L124.855 281.602L128.221 272.626H130.157L123.931 288.356H122.017L123.975 283.736L119.465 272.626ZM132.645 267.984H134.383V284H132.645V267.984ZM143.212 272.318C144.906 272.318 146.27 272.89 147.282 274.078C148.25 275.2 148.734 276.608 148.734 278.324C148.734 280.018 148.25 281.426 147.304 282.526C146.27 283.714 144.906 284.308 143.212 284.308C141.496 284.308 140.154 283.714 139.142 282.526C138.174 281.426 137.69 280.018 137.69 278.324C137.69 276.608 138.174 275.2 139.142 274.078C140.154 272.89 141.496 272.318 143.212 272.318ZM143.212 273.792C142.002 273.792 141.056 274.254 140.396 275.178C139.78 276.014 139.494 277.048 139.494 278.324C139.494 279.578 139.78 280.612 140.396 281.448C141.056 282.372 142.002 282.834 143.212 282.834C144.4 282.834 145.346 282.372 146.05 281.448C146.644 280.612 146.952 279.556 146.952 278.324C146.952 277.048 146.644 276.014 146.05 275.178C145.346 274.254 144.4 273.792 143.212 273.792ZM157.005 272.318C159.821 272.318 161.251 273.88 161.251 277.004V284H159.491V277.136C159.491 274.914 158.479 273.814 156.499 273.814C155.707 273.814 155.025 274.1 154.453 274.672C153.837 275.288 153.507 276.102 153.441 277.136V284H151.681V272.626H153.441V274.298C153.837 273.66 154.343 273.176 154.959 272.846C155.575 272.494 156.257 272.318 157.005 272.318ZM176.026 272.45V274.386C175.916 279.226 174.97 283.098 173.166 286.002L172.066 284.836C173.562 282.328 174.376 278.83 174.508 274.386V267.5C180.316 267.456 185.552 266.994 190.194 266.158L190.986 267.588C186.542 268.336 181.548 268.754 176.026 268.842V270.998H183.374C183.484 270.338 183.572 269.656 183.638 268.996L185.222 269.194C185.156 269.81 185.068 270.426 184.98 270.998H191.954V272.45H184.738C184.606 273.198 184.452 273.88 184.276 274.54H189.93V282.02H188.412V275.992H179.722V282.108H178.204V274.54H182.67C182.846 273.836 183 273.154 183.132 272.45H176.026ZM185.332 281.514C187.774 282.438 189.996 283.538 191.998 284.836L191.118 286.178C188.984 284.726 186.784 283.56 184.54 282.702L185.332 281.514ZM183.704 276.872L185.244 276.982C184.98 279.578 184.188 281.58 182.868 282.944C181.504 284.308 179.414 285.408 176.62 286.2L175.762 284.748C178.358 284.088 180.272 283.186 181.504 281.998C182.736 280.81 183.462 279.094 183.704 276.872ZM197.63 285.914H195.672L195.342 284.396C195.958 284.462 196.53 284.506 197.08 284.506C197.74 284.506 198.092 284.132 198.092 283.428V278.214C197.124 278.588 196.134 278.94 195.122 279.248L194.726 277.642C195.87 277.378 196.992 277.026 198.092 276.63V271.592H195.21V270.052H198.092V266.048H199.654V270.052H201.964V271.592H199.654V275.992C200.534 275.596 201.392 275.178 202.25 274.716V276.322C201.414 276.762 200.534 277.18 199.654 277.576V283.824C199.654 285.21 198.972 285.914 197.63 285.914ZM207.75 268.402H204.516V272.318H207.75V268.402ZM204.516 273.77V277.708H207.75V273.77H204.516ZM207.75 279.138H204.516V280.458H203.02V266.928H214.108V280.458H212.612V279.138H209.246V286.178H207.75V279.138ZM209.246 277.708H212.612V273.77H209.246V277.708ZM212.612 272.318V268.402H209.246V272.318H212.612ZM218.42 266.906H225.174V268.182C224.514 270.162 223.722 272.208 222.798 274.364C224.206 276.3 224.976 278.06 225.064 279.644C225.064 280.59 224.822 281.272 224.382 281.69C223.766 282.196 222.666 282.46 221.082 282.482L220.554 280.876C220.906 280.92 221.192 280.964 221.412 280.964C222.226 280.92 222.776 280.81 223.062 280.634C223.326 280.436 223.48 280.106 223.48 279.644C223.48 278.148 222.71 276.454 221.17 274.606C222.204 272.318 223.018 270.25 223.59 268.424H219.96V286.222H218.42V266.906ZM227.77 272.406V274.892H234.26V272.406H227.77ZM234.26 270.954V268.424H227.77V270.954H234.26ZM230.3 276.344H227.77V283.868C229.09 283.472 230.41 282.966 231.708 282.372L232.06 283.846C230.476 284.528 228.496 285.188 226.098 285.826L225.724 284.462C226.032 284.352 226.208 284.176 226.208 283.956V266.928H235.8V276.344H231.73C231.994 277.642 232.434 278.852 233.072 279.952C234.128 279.358 235.162 278.478 236.152 277.29L237.186 278.324C236.174 279.512 235.052 280.436 233.798 281.074C234.81 282.46 236.13 283.648 237.802 284.638L236.922 286.024C233.27 283.692 231.048 280.458 230.3 276.344ZM242.664 274.87C242.158 275.376 241.63 275.86 241.058 276.3L240.222 275.178C242.026 273.814 243.258 272.164 243.896 270.206L245.326 270.404C245.15 270.91 244.974 271.394 244.776 271.834H248.89V272.912C248.318 274.056 247.658 275.046 246.932 275.882C248.318 276.718 249.55 277.532 250.65 278.346L249.66 279.336C248.648 278.5 247.438 277.664 246.03 276.806C244.534 278.17 242.73 279.116 240.662 279.666L240.068 278.478C241.938 278.038 243.522 277.246 244.842 276.102C244.138 275.684 243.412 275.266 242.664 274.87ZM245.766 275.2C246.36 274.54 246.888 273.836 247.328 273.066H244.094C243.896 273.374 243.698 273.66 243.478 273.946C244.292 274.364 245.062 274.782 245.766 275.2ZM249.946 268.138V271.768H248.56V269.502H242.092V271.79H240.706V268.138H244.732C244.424 267.434 244.094 266.774 243.742 266.18L245.326 265.916C245.634 266.576 245.942 267.302 246.25 268.138H249.946ZM248.868 279.38V286.068H247.46V284.924H243.5V286.068H242.07V279.38H248.868ZM243.5 283.582H247.46V280.7H243.5V283.582ZM250.694 266.95H260.352V268.402H256.304C256.194 269.282 256.04 270.096 255.864 270.888H259.56V281.206H258.152V272.208H252.652V281.228H251.244V270.888H254.39C254.566 270.096 254.698 269.26 254.786 268.402H250.694V266.95ZM256.744 281.558C258.24 282.768 259.472 283.978 260.484 285.188L259.45 286.2C258.57 285.034 257.338 283.802 255.798 282.482L256.744 281.558ZM254.654 273.506H256.04V277.51C255.996 279.864 255.556 281.756 254.742 283.164C253.928 284.484 252.608 285.496 250.782 286.222L249.968 284.968C251.706 284.264 252.916 283.34 253.62 282.196C254.258 280.986 254.61 279.424 254.654 277.51V273.506Z" fill="black"/>
<g clip-path="url(#clip6_5551_1308)">
<mask id="path-21-inside-6_5551_1308" fill="white">
<path d="M716 236H1978V317H716V236Z"/>
</mask>
<path d="M716 236H1978V317H716V236Z" fill="white"/>
<path d="M751.33 276.124H759.778V282.966H751.33V276.124ZM758.326 281.58V277.532H752.738V281.58H758.326ZM741.848 268.996H745.192V266.004H746.71V268.996H750.01V270.404H746.71V273.66H749.966V275.112H747.15V278.214H749.988V279.666H747.15V283.494C747.282 283.56 747.392 283.604 747.502 283.648C748.8 284.088 751.792 284.33 756.456 284.33C758.48 284.308 759.998 284.286 760.988 284.242L760.724 285.826H756.808C751.33 285.826 747.898 285.496 746.534 284.88C745.346 284.33 744.268 283.362 743.344 281.976C743.036 283.472 742.64 284.858 742.112 286.156L740.968 285.122C741.936 282.57 742.486 279.688 742.574 276.52L743.938 276.674C743.894 277.818 743.806 278.918 743.674 279.974C744.246 281.052 744.906 281.91 745.654 282.548V275.112H741.584V273.66H745.192V270.404H741.848V268.996ZM753.794 268.556H750.758V267.104H760.086C760.086 270.844 759.866 273.088 759.448 273.836C759.052 274.584 758.348 274.958 757.336 274.958C756.896 274.958 756.39 274.914 755.774 274.87L755.378 273.484L756.984 273.594C757.666 273.572 758.084 273.286 758.26 272.736C758.436 272.208 758.546 270.822 758.568 268.556H755.268C754.982 270.118 754.608 271.35 754.124 272.274C753.508 273.352 752.606 274.32 751.418 275.156L750.384 273.858C751.44 273.154 752.232 272.384 752.76 271.548C753.222 270.778 753.574 269.788 753.794 268.556ZM779.622 273.682V267.676H781.206V275.222H774.474V283.296H780.678V277.29H782.284V286.046H780.678V284.814H765.036V277.29H766.642V283.296H772.846V275.222H766.114V267.676H767.698V273.682H772.846V266.004H774.474V273.682H779.622ZM787.168 266.906H793.922V268.182C793.262 270.162 792.47 272.208 791.546 274.364C792.954 276.3 793.724 278.06 793.812 279.644C793.812 280.59 793.57 281.272 793.13 281.69C792.514 282.196 791.414 282.46 789.83 282.482L789.302 280.876C789.654 280.92 789.94 280.964 790.16 280.964C790.974 280.92 791.524 280.81 791.81 280.634C792.074 280.436 792.228 280.106 792.228 279.644C792.228 278.148 791.458 276.454 789.918 274.606C790.952 272.318 791.766 270.25 792.338 268.424H788.708V286.222H787.168V266.906ZM796.518 272.406V274.892H803.008V272.406H796.518ZM803.008 270.954V268.424H796.518V270.954H803.008ZM799.048 276.344H796.518V283.868C797.838 283.472 799.158 282.966 800.456 282.372L800.808 283.846C799.224 284.528 797.244 285.188 794.846 285.826L794.472 284.462C794.78 284.352 794.956 284.176 794.956 283.956V266.928H804.548V276.344H800.478C800.742 277.642 801.182 278.852 801.82 279.952C802.876 279.358 803.91 278.478 804.9 277.29L805.934 278.324C804.922 279.512 803.8 280.436 802.546 281.074C803.558 282.46 804.878 283.648 806.55 284.638L805.67 286.024C802.018 283.692 799.796 280.458 799.048 276.344ZM811.412 274.87C810.906 275.376 810.378 275.86 809.806 276.3L808.97 275.178C810.774 273.814 812.006 272.164 812.644 270.206L814.074 270.404C813.898 270.91 813.722 271.394 813.524 271.834H817.638V272.912C817.066 274.056 816.406 275.046 815.68 275.882C817.066 276.718 818.298 277.532 819.398 278.346L818.408 279.336C817.396 278.5 816.186 277.664 814.778 276.806C813.282 278.17 811.478 279.116 809.41 279.666L808.816 278.478C810.686 278.038 812.27 277.246 813.59 276.102C812.886 275.684 812.16 275.266 811.412 274.87ZM814.514 275.2C815.108 274.54 815.636 273.836 816.076 273.066H812.842C812.644 273.374 812.446 273.66 812.226 273.946C813.04 274.364 813.81 274.782 814.514 275.2ZM818.694 268.138V271.768H817.308V269.502H810.84V271.79H809.454V268.138H813.48C813.172 267.434 812.842 266.774 812.49 266.18L814.074 265.916C814.382 266.576 814.69 267.302 814.998 268.138H818.694ZM817.616 279.38V286.068H816.208V284.924H812.248V286.068H810.818V279.38H817.616ZM812.248 283.582H816.208V280.7H812.248V283.582ZM819.442 266.95H829.1V268.402H825.052C824.942 269.282 824.788 270.096 824.612 270.888H828.308V281.206H826.9V272.208H821.4V281.228H819.992V270.888H823.138C823.314 270.096 823.446 269.26 823.534 268.402H819.442V266.95ZM825.492 281.558C826.988 282.768 828.22 283.978 829.232 285.188L828.198 286.2C827.318 285.034 826.086 283.802 824.546 282.482L825.492 281.558ZM823.402 273.506H824.788V277.51C824.744 279.864 824.304 281.756 823.49 283.164C822.676 284.484 821.356 285.496 819.53 286.222L818.716 284.968C820.454 284.264 821.664 283.34 822.368 282.196C823.006 280.986 823.358 279.424 823.402 277.51V273.506ZM849.34 265.806H850.88C850 267.258 849.296 268.776 848.79 270.36C848.13 272.296 847.822 274.188 847.822 276.08C847.822 277.95 848.13 279.864 848.79 281.8C849.296 283.362 850 284.88 850.88 286.354H849.34C848.372 284.924 847.624 283.406 847.074 281.822C846.414 279.93 846.106 278.016 846.106 276.102C846.106 274.144 846.414 272.23 847.074 270.338C847.624 268.732 848.372 267.214 849.34 265.806ZM854.884 268.292H856.666V282.438H865.752V284H854.884V268.292ZM869.71 268.336C870.084 268.336 870.392 268.446 870.656 268.71C870.92 268.93 871.052 269.238 871.052 269.634C871.052 270.008 870.92 270.316 870.656 270.58C870.392 270.822 870.084 270.954 869.71 270.954C869.336 270.954 869.028 270.822 868.764 270.58C868.5 270.316 868.39 270.008 868.39 269.634C868.39 269.238 868.5 268.93 868.764 268.71C869.028 268.446 869.336 268.336 869.71 268.336ZM868.83 272.626H870.59V284H868.83V272.626ZM879.518 272.318C881.256 272.318 882.444 273.022 883.082 274.474C883.522 273.726 884.05 273.176 884.666 272.846C885.216 272.494 885.876 272.318 886.668 272.318C887.856 272.318 888.802 272.692 889.55 273.44C890.254 274.21 890.628 275.244 890.628 276.542V284H888.868V276.828C888.868 275.816 888.648 275.068 888.23 274.584C887.79 274.056 887.086 273.814 886.118 273.814C885.37 273.814 884.732 274.078 884.248 274.65C883.72 275.222 883.478 275.948 883.478 276.872V284H881.718V276.828C881.718 274.804 880.838 273.814 879.1 273.814C878.286 273.814 877.626 274.122 877.098 274.782C876.57 275.398 876.306 276.168 876.306 277.07V284H874.546V272.626H876.306V274.144C877.164 272.912 878.242 272.318 879.518 272.318ZM895.479 268.336C895.853 268.336 896.161 268.446 896.425 268.71C896.689 268.93 896.821 269.238 896.821 269.634C896.821 270.008 896.689 270.316 896.425 270.58C896.161 270.822 895.853 270.954 895.479 270.954C895.105 270.954 894.797 270.822 894.533 270.58C894.269 270.316 894.159 270.008 894.159 269.634C894.159 269.238 894.269 268.93 894.533 268.71C894.797 268.446 895.105 268.336 895.479 268.336ZM894.599 272.626H896.359V284H894.599V272.626ZM903.352 268.952V272.626H906.168V274.1H903.352V281.338C903.352 281.756 903.418 282.064 903.594 282.24C903.748 282.416 904.034 282.526 904.43 282.526H905.882V284H904.166C903.242 284 902.56 283.758 902.164 283.274C901.79 282.834 901.614 282.196 901.614 281.338V274.1H899.326V272.626H901.614V269.678L903.352 268.952ZM917.002 268.292H928.134V269.854H918.806V275.112H927.606V276.674H918.806V282.438H928.508V284H917.002V268.292ZM930.68 272.626H932.748L935.696 276.674L938.622 272.626H940.69L936.664 277.972L941.174 284H939.084L935.696 279.27L932.286 284H930.196L934.706 277.972L930.68 272.626ZM948.209 272.318C949.617 272.318 950.739 272.648 951.597 273.308C952.477 273.99 953.005 275.024 953.203 276.41H951.465C951.311 275.53 950.959 274.87 950.409 274.43C949.837 273.99 949.111 273.792 948.209 273.792C947.109 273.792 946.229 274.21 945.591 275.046C944.975 275.86 944.667 276.96 944.667 278.346C944.667 279.732 944.953 280.832 945.569 281.624C946.163 282.416 947.043 282.834 948.187 282.834C950.123 282.834 951.245 281.844 951.509 279.886H953.269C953.005 281.338 952.455 282.46 951.575 283.208C950.717 283.934 949.595 284.308 948.187 284.308C946.471 284.308 945.151 283.736 944.205 282.592C943.303 281.514 942.863 280.106 942.863 278.368C942.863 276.63 943.303 275.222 944.205 274.122C945.173 272.912 946.515 272.318 948.209 272.318ZM960.681 272.318C962.507 272.318 963.893 272.934 964.817 274.166C965.653 275.266 966.093 276.828 966.137 278.808H957.161C957.249 280.084 957.579 281.074 958.195 281.778C958.811 282.482 959.669 282.834 960.747 282.834C961.671 282.834 962.441 282.592 963.013 282.13C963.497 281.734 963.871 281.14 964.157 280.348H965.917C965.653 281.448 965.147 282.328 964.377 283.032C963.431 283.868 962.221 284.308 960.747 284.308C959.119 284.308 957.799 283.758 956.831 282.702C955.819 281.602 955.335 280.15 955.335 278.302C955.335 276.63 955.797 275.222 956.765 274.1C957.733 272.912 959.031 272.318 960.681 272.318ZM960.725 273.792C959.713 273.792 958.899 274.122 958.283 274.782C957.667 275.442 957.315 276.322 957.205 277.444H964.311C964.091 275.002 962.881 273.792 960.725 273.792ZM973.544 272.318C975.37 272.318 976.756 272.934 977.68 274.166C978.516 275.266 978.956 276.828 979 278.808H970.024C970.112 280.084 970.442 281.074 971.058 281.778C971.674 282.482 972.532 282.834 973.61 282.834C974.534 282.834 975.304 282.592 975.876 282.13C976.36 281.734 976.734 281.14 977.02 280.348H978.78C978.516 281.448 978.01 282.328 977.24 283.032C976.294 283.868 975.084 284.308 973.61 284.308C971.982 284.308 970.662 283.758 969.694 282.702C968.682 281.602 968.198 280.15 968.198 278.302C968.198 276.63 968.66 275.222 969.628 274.1C970.596 272.912 971.894 272.318 973.544 272.318ZM973.588 273.792C972.576 273.792 971.762 274.122 971.146 274.782C970.53 275.442 970.178 276.322 970.068 277.444H977.174C976.954 275.002 975.744 273.792 973.588 273.792ZM990.125 267.984H991.885V284H990.235V282.13C989.443 283.582 988.167 284.308 986.451 284.308C984.779 284.308 983.481 283.692 982.557 282.504C981.699 281.404 981.281 279.996 981.281 278.28C981.281 276.608 981.699 275.244 982.557 274.144C983.481 272.912 984.735 272.318 986.363 272.318C987.991 272.318 989.245 273.11 990.125 274.716V267.984ZM986.737 273.77C985.483 273.77 984.537 274.21 983.921 275.09C983.349 275.86 983.085 276.916 983.085 278.28C983.085 279.644 983.349 280.722 983.899 281.514C984.515 282.394 985.439 282.856 986.671 282.856C987.815 282.856 988.695 282.416 989.333 281.536C989.883 280.744 990.169 279.71 990.169 278.434V278.214C990.169 276.894 989.839 275.816 989.223 275.002C988.585 274.166 987.749 273.77 986.737 273.77ZM999.958 272.318C1001.78 272.318 1003.17 272.934 1004.09 274.166C1004.93 275.266 1005.37 276.828 1005.41 278.808H996.438C996.526 280.084 996.856 281.074 997.472 281.778C998.088 282.482 998.946 282.834 1000.02 282.834C1000.95 282.834 1001.72 282.592 1002.29 282.13C1002.77 281.734 1003.15 281.14 1003.43 280.348H1005.19C1004.93 281.448 1004.42 282.328 1003.65 283.032C1002.71 283.868 1001.5 284.308 1000.02 284.308C998.396 284.308 997.076 283.758 996.108 282.702C995.096 281.602 994.612 280.15 994.612 278.302C994.612 276.63 995.074 275.222 996.042 274.1C997.01 272.912 998.308 272.318 999.958 272.318ZM1000 273.792C998.99 273.792 998.176 274.122 997.56 274.782C996.944 275.442 996.592 276.322 996.482 277.444H1003.59C1003.37 275.002 1002.16 273.792 1000 273.792ZM1016.54 267.984H1018.3V284H1016.65V282.13C1015.86 283.582 1014.58 284.308 1012.86 284.308C1011.19 284.308 1009.89 283.692 1008.97 282.504C1008.11 281.404 1007.69 279.996 1007.69 278.28C1007.69 276.608 1008.11 275.244 1008.97 274.144C1009.89 272.912 1011.15 272.318 1012.78 272.318C1014.4 272.318 1015.66 273.11 1016.54 274.716V267.984ZM1013.15 273.77C1011.9 273.77 1010.95 274.21 1010.33 275.09C1009.76 275.86 1009.5 276.916 1009.5 278.28C1009.5 279.644 1009.76 280.722 1010.31 281.514C1010.93 282.394 1011.85 282.856 1013.08 282.856C1014.23 282.856 1015.11 282.416 1015.75 281.536C1016.3 280.744 1016.58 279.71 1016.58 278.434V278.214C1016.58 276.894 1016.25 275.816 1015.64 275.002C1015 274.166 1014.16 273.77 1013.15 273.77ZM1022.08 265.806H1023.62C1024.57 267.214 1025.32 268.732 1025.89 270.338C1026.53 272.23 1026.86 274.144 1026.86 276.102C1026.86 278.016 1026.53 279.93 1025.89 281.822C1025.32 283.406 1024.57 284.924 1023.62 286.354H1022.08C1022.96 284.88 1023.64 283.362 1024.17 281.8C1024.81 279.864 1025.14 277.95 1025.14 276.08C1025.14 274.188 1024.81 272.296 1024.17 270.36C1023.64 268.776 1022.96 267.258 1022.08 265.806Z" fill="black"/>
</g>
<path d="M1978 317V318H1979V317H1978ZM1977 236V317H1979V236H1977ZM1978 316H716V318H1978V316Z" fill="black" mask="url(#path-21-inside-6_5551_1308)"/>
<mask id="path-24-inside-7_5551_1308" fill="white">
<path d="M0 317H716V398H0V317Z"/>
</mask>
<path d="M0 317H716V398H0V317Z" fill="white"/>
<path d="M716 398V399H717V398H716ZM715 317V398H717V317H715ZM716 397H0V399H716V397Z" fill="black" mask="url(#path-24-inside-7_5551_1308)"/>
<path d="M27.586 358.576C26.926 359.39 26.178 360.204 25.386 360.996L24.924 359.412C27.388 356.838 29.016 354.352 29.83 351.932H25.342V350.48H28.004C27.652 349.424 27.256 348.39 26.816 347.422L28.334 347.004C28.818 348.148 29.192 349.204 29.456 350.15L28.62 350.48H31.326V351.778C30.864 353.362 30.138 354.924 29.126 356.464V356.596C29.412 356.86 29.698 357.102 29.962 357.366C30.49 356.926 30.996 356.266 31.458 355.43L32.36 356.332C31.876 357.124 31.348 357.762 30.776 358.224C31.282 358.774 31.744 359.346 32.184 359.94L31.326 361.238C30.6 360.072 29.874 359.06 29.126 358.224V367.222H27.586V358.576ZM37.948 347.026H39.532V349.688H44.394V350.458C44.196 351.734 43.888 352.988 43.47 354.22L42.04 353.824C42.326 353.032 42.59 352.13 42.81 351.162H39.532V355.672H43.36V357.036C42.832 359.346 41.908 361.304 40.544 362.91C41.798 364.01 43.338 364.956 45.186 365.77L44.328 367.156C42.436 366.232 40.83 365.176 39.554 363.988C38.146 365.308 36.43 366.386 34.406 367.2L33.614 365.792C35.528 365.044 37.134 364.076 38.432 362.888C36.892 361.194 35.858 359.28 35.33 357.124H34.538V357.366C34.516 361.172 33.658 364.428 31.964 367.112L30.666 365.99C32.162 363.746 32.954 360.886 33.02 357.41V349.688H37.948V347.026ZM37.948 351.162H34.538V355.672H37.948V351.162ZM39.422 361.832C40.544 360.468 41.358 358.906 41.864 357.124H36.76C37.244 358.884 38.146 360.446 39.422 361.832ZM56.2302 349.292H63.2482C64.7002 349.292 65.8662 349.644 66.7242 350.348C67.5602 351.052 67.9782 352.02 67.9782 353.252C67.9782 354.132 67.7362 354.902 67.2742 355.54C66.7902 356.112 66.1522 356.53 65.3602 356.794C66.3942 356.97 67.1862 357.41 67.7582 358.07C68.3302 358.73 68.6382 359.566 68.6382 360.622C68.6382 362.162 68.0882 363.306 67.0102 364.054C66.0862 364.67 64.8102 365 63.2042 365H56.2302V349.292ZM58.0342 350.81V356.156H62.8082C63.9082 356.156 64.7442 355.914 65.3162 355.474C65.8882 355.012 66.1962 354.33 66.1962 353.428C66.1962 352.548 65.9102 351.888 65.3382 351.448C64.7662 351.008 63.9302 350.81 62.8302 350.81H58.0342ZM58.0342 357.652V363.482H63.0502C64.1502 363.482 65.0082 363.262 65.6682 362.866C66.4382 362.382 66.8342 361.612 66.8342 360.6C66.8342 359.588 66.4822 358.84 65.8222 358.356C65.1842 357.872 64.2602 357.652 63.0502 357.652H58.0342ZM76.5088 353.318C78.1368 353.318 79.3248 353.736 80.1168 354.594C80.7768 355.342 81.1288 356.376 81.1288 357.696V365H79.4788V363.086C79.0388 363.702 78.4448 364.208 77.7408 364.604C76.9048 365.066 75.9588 365.308 74.9028 365.308C73.7588 365.308 72.8568 365.022 72.1748 364.45C71.4708 363.856 71.1188 363.086 71.1188 362.162C71.1188 360.864 71.6248 359.896 72.6808 359.236C73.6048 358.62 74.9248 358.29 76.6408 358.268L79.3688 358.224V357.63C79.3688 355.716 78.3788 354.77 76.3988 354.77C75.5628 354.77 74.8808 354.924 74.3528 355.276C73.7588 355.628 73.3848 356.178 73.2088 356.904L71.4708 356.772C71.7128 355.584 72.3068 354.682 73.2308 354.11C74.0668 353.582 75.1448 353.318 76.5088 353.318ZM79.3688 359.544L76.7508 359.588C74.1988 359.632 72.9228 360.468 72.9228 362.118C72.9228 362.646 73.1208 363.064 73.5608 363.416C74.0008 363.746 74.5728 363.922 75.2768 363.922C76.3548 363.922 77.3008 363.57 78.1368 362.866C78.9508 362.184 79.3688 361.392 79.3688 360.512V359.544ZM84.5079 348.984H86.2679V355.716C87.1479 354.11 88.4019 353.318 90.0299 353.318C91.6359 353.318 92.9119 353.912 93.8359 355.144C94.6719 356.244 95.1119 357.608 95.1119 359.28C95.1119 360.996 94.6719 362.404 93.8359 363.504C92.8899 364.692 91.5919 365.308 89.9419 365.308C88.1819 365.308 86.9279 364.582 86.1579 363.13V365H84.5079V348.984ZM89.6559 354.77C88.6219 354.77 87.7859 355.166 87.1699 356.002C86.5099 356.816 86.2019 357.894 86.2019 359.214V359.434C86.2019 360.71 86.4879 361.744 87.0599 362.536C87.6759 363.416 88.5779 363.856 89.7219 363.856C90.9539 363.856 91.8779 363.394 92.4939 362.514C93.0219 361.722 93.3079 360.644 93.3079 359.28C93.3079 357.916 93.0219 356.86 92.4499 356.09C91.8119 355.21 90.8879 354.77 89.6559 354.77ZM96.8045 353.626H98.7185L102.195 362.602L105.561 353.626H107.497L101.271 369.356H99.3565L101.315 364.736L96.8045 353.626ZM109.985 348.984H111.723V365H109.985V348.984ZM120.552 353.318C122.246 353.318 123.61 353.89 124.622 355.078C125.59 356.2 126.074 357.608 126.074 359.324C126.074 361.018 125.59 362.426 124.644 363.526C123.61 364.714 122.246 365.308 120.552 365.308C118.836 365.308 117.494 364.714 116.482 363.526C115.514 362.426 115.03 361.018 115.03 359.324C115.03 357.608 115.514 356.2 116.482 355.078C117.494 353.89 118.836 353.318 120.552 353.318ZM120.552 354.792C119.342 354.792 118.396 355.254 117.736 356.178C117.12 357.014 116.834 358.048 116.834 359.324C116.834 360.578 117.12 361.612 117.736 362.448C118.396 363.372 119.342 363.834 120.552 363.834C121.74 363.834 122.686 363.372 123.39 362.448C123.984 361.612 124.292 360.556 124.292 359.324C124.292 358.048 123.984 357.014 123.39 356.178C122.686 355.254 121.74 354.792 120.552 354.792ZM134.345 353.318C137.161 353.318 138.591 354.88 138.591 358.004V365H136.831V358.136C136.831 355.914 135.819 354.814 133.839 354.814C133.047 354.814 132.365 355.1 131.793 355.672C131.177 356.288 130.847 357.102 130.781 358.136V365H129.021V353.626H130.781V355.298C131.177 354.66 131.683 354.176 132.299 353.846C132.915 353.494 133.597 353.318 134.345 353.318ZM168.238 360.688H159.702V365H169.558V366.518H158.096V347.928H169.162V349.446H159.702V353.098H168.238V360.688ZM159.702 354.572V359.192H166.72V354.572H159.702ZM157.106 355.848V357.454C156.226 357.894 155.324 358.29 154.4 358.686V365.286C154.4 366.43 153.85 367.024 152.794 367.024H150.55L150.22 365.528C150.924 365.594 151.606 365.638 152.266 365.638C152.662 365.638 152.882 365.396 152.882 364.912V359.28C151.892 359.632 150.88 359.984 149.846 360.292L149.45 358.686C150.616 358.422 151.76 358.092 152.882 357.696V352.592H149.802V351.074H152.882V347.092H154.4V351.074H157.084V352.592H154.4V357.124C155.324 356.728 156.226 356.31 157.106 355.848ZM179.37 362.646V364.164C177.39 365.066 175.124 365.792 172.594 366.364L172.396 364.846C175.036 364.296 177.368 363.57 179.37 362.646ZM175.784 346.96L177.28 347.532C176.224 350.392 175.168 352.658 174.112 354.352C174.948 354.242 175.806 354.11 176.642 353.956C177.016 353.164 177.412 352.328 177.83 351.426L179.216 351.932C177.39 355.738 175.872 358.422 174.684 360.006C176.18 359.698 177.654 359.258 179.15 358.686V360.094C176.994 360.886 174.904 361.436 172.924 361.722L172.484 360.292C172.77 360.182 173.012 360.028 173.21 359.852C173.958 358.972 174.86 357.476 175.938 355.364C174.882 355.562 173.804 355.738 172.704 355.914L172.308 354.462C172.572 354.352 172.792 354.154 172.968 353.868C174.068 351.844 174.992 349.556 175.784 346.96ZM185.002 354.88H182.076V358.73H185.002V354.88ZM186.41 358.73H189.402V354.88H186.41V358.73ZM187.334 353.428H190.898V360.16H182.076V364.384C182.076 364.978 182.384 365.286 183.044 365.308H188.83C189.49 365.264 189.952 365.022 190.216 364.582C190.392 364.208 190.568 363.284 190.7 361.788L192.174 362.25C192.02 363.658 191.822 364.692 191.602 365.308C191.228 366.232 190.458 366.716 189.292 366.76H182.472C181.196 366.76 180.58 366.144 180.58 364.912V354.352L180.008 354.924L179.062 353.78C180.866 352.064 182.34 349.842 183.484 347.07L185.002 347.4C184.738 348.016 184.474 348.61 184.188 349.182H189.336V350.348C188.676 351.558 187.994 352.592 187.334 353.428ZM181.394 353.428H185.552C186.212 352.636 186.894 351.69 187.554 350.59H183.418C182.802 351.624 182.12 352.57 181.394 353.428Z" fill="black"/>
<g clip-path="url(#clip7_5551_1308)">
<mask id="path-27-inside-8_5551_1308" fill="white">
<path d="M716 317H1978V398H716V317Z"/>
</mask>
<path d="M716 317H1978V398H716V317Z" fill="white"/>
<path d="M742.926 348.214H758.722V349.754H750.846V351.228C750.802 352.592 750.714 353.89 750.56 355.078H760.504V356.596H753.684V364.274C753.684 364.978 754.036 365.352 754.74 365.352H757.534C758.062 365.352 758.458 365.198 758.7 364.912C759.008 364.56 759.206 363.548 759.316 361.832L760.812 362.316C760.636 364.472 760.306 365.77 759.822 366.254C759.404 366.65 758.744 366.848 757.82 366.848H754.256C752.804 366.848 752.1 366.1 752.1 364.604V356.596H750.318C749.966 358.51 749.416 360.16 748.668 361.568C747.304 363.944 745.104 365.814 742.046 367.134L741.166 365.726C744.202 364.362 746.292 362.58 747.48 360.336C748.008 359.236 748.404 357.982 748.69 356.596H741.452V355.078H748.954C749.13 353.89 749.218 352.592 749.24 351.228V349.754H742.926V348.214ZM766.73 351.888L768.094 352.57C767.148 354.594 766.048 356.332 764.794 357.828L763.518 356.904C764.75 355.518 765.828 353.846 766.73 351.888ZM772.516 355.98C771.504 354.704 770.514 353.626 769.524 352.702L770.492 351.756C771.372 352.46 772.384 353.516 773.55 354.924L772.516 355.98ZM766.642 357.3C767.544 358.004 768.402 358.752 769.238 359.522C769.744 358.51 770.184 357.432 770.536 356.288L771.9 356.86C771.504 358.224 770.998 359.5 770.404 360.644C771.328 361.546 772.208 362.47 773.044 363.438L771.922 364.692C771.13 363.746 770.338 362.888 769.59 362.096C768.226 364.164 766.51 365.814 764.398 367.024L763.43 365.616C765.476 364.494 767.148 362.932 768.446 360.93C767.522 360.006 766.576 359.17 765.652 358.422L766.642 357.3ZM768.908 346.872C769.238 347.62 769.568 348.434 769.898 349.358H774.034V350.876H763.848V349.358H768.358C768.028 348.566 767.654 347.818 767.258 347.136L768.908 346.872ZM776.938 352.13C776.762 352.658 776.608 353.186 776.432 353.67C776.96 355.914 777.642 357.872 778.478 359.544C779.534 357.388 780.128 354.924 780.216 352.13H776.938ZM777.62 361.04C776.806 359.456 776.124 357.696 775.574 355.76C775.178 356.552 774.738 357.256 774.298 357.916L773.286 356.706C774.826 354.286 775.882 351.03 776.41 346.916L777.994 347.18C777.818 348.412 777.598 349.534 777.356 350.59H783.538V352.13H781.668C781.536 355.628 780.766 358.62 779.336 361.128C780.59 363.152 782.108 364.714 783.868 365.792L782.944 367.178C781.184 366.056 779.688 364.494 778.456 362.514C777.07 364.406 775.266 365.99 773.066 367.244L772.164 365.814C774.496 364.582 776.322 362.998 777.62 361.04ZM804.02 346.806H805.56C804.68 348.258 803.976 349.776 803.47 351.36C802.81 353.296 802.502 355.188 802.502 357.08C802.502 358.95 802.81 360.864 803.47 362.8C803.976 364.362 804.68 365.88 805.56 367.354H804.02C803.052 365.924 802.304 364.406 801.754 362.822C801.094 360.93 800.786 359.016 800.786 357.102C800.786 355.144 801.094 353.23 801.754 351.338C802.304 349.732 803.052 348.214 804.02 346.806ZM809.696 349.292H811.478V365H809.696V349.292ZM820.549 353.318C823.365 353.318 824.795 354.88 824.795 358.004V365H823.035V358.136C823.035 355.914 822.023 354.814 820.043 354.814C819.251 354.814 818.569 355.1 817.997 355.672C817.381 356.288 817.051 357.102 816.985 358.136V365H815.225V353.626H816.985V355.298C817.381 354.66 817.887 354.176 818.503 353.846C819.119 353.494 819.801 353.318 820.549 353.318ZM826.92 353.626H828.856L832.112 362.8L835.368 353.626H837.304L832.992 365H831.21L826.92 353.626ZM844.397 353.318C846.025 353.318 847.213 353.736 848.005 354.594C848.665 355.342 849.017 356.376 849.017 357.696V365H847.367V363.086C846.927 363.702 846.333 364.208 845.629 364.604C844.793 365.066 843.847 365.308 842.791 365.308C841.647 365.308 840.745 365.022 840.063 364.45C839.359 363.856 839.007 363.086 839.007 362.162C839.007 360.864 839.513 359.896 840.569 359.236C841.493 358.62 842.813 358.29 844.529 358.268L847.257 358.224V357.63C847.257 355.716 846.267 354.77 844.287 354.77C843.451 354.77 842.769 354.924 842.241 355.276C841.647 355.628 841.273 356.178 841.097 356.904L839.359 356.772C839.601 355.584 840.195 354.682 841.119 354.11C841.955 353.582 843.033 353.318 844.397 353.318ZM847.257 359.544L844.639 359.588C842.087 359.632 840.811 360.468 840.811 362.118C840.811 362.646 841.009 363.064 841.449 363.416C841.889 363.746 842.461 363.922 843.165 363.922C844.243 363.922 845.189 363.57 846.025 362.866C846.839 362.184 847.257 361.392 847.257 360.512V359.544ZM852.748 348.984H854.486V365H852.748V348.984ZM859.686 349.336C860.06 349.336 860.368 349.446 860.632 349.71C860.896 349.93 861.028 350.238 861.028 350.634C861.028 351.008 860.896 351.316 860.632 351.58C860.368 351.822 860.06 351.954 859.686 351.954C859.312 351.954 859.004 351.822 858.74 351.58C858.476 351.316 858.366 351.008 858.366 350.634C858.366 350.238 858.476 349.93 858.74 349.71C859.004 349.446 859.312 349.336 859.686 349.336ZM858.806 353.626H860.566V365H858.806V353.626ZM872.927 348.984H874.687V365H873.037V363.13C872.245 364.582 870.969 365.308 869.253 365.308C867.581 365.308 866.283 364.692 865.359 363.504C864.501 362.404 864.083 360.996 864.083 359.28C864.083 357.608 864.501 356.244 865.359 355.144C866.283 353.912 867.537 353.318 869.165 353.318C870.793 353.318 872.047 354.11 872.927 355.716V348.984ZM869.539 354.77C868.285 354.77 867.339 355.21 866.723 356.09C866.151 356.86 865.887 357.916 865.887 359.28C865.887 360.644 866.151 361.722 866.701 362.514C867.317 363.394 868.241 363.856 869.473 363.856C870.617 363.856 871.497 363.416 872.135 362.536C872.685 361.744 872.971 360.71 872.971 359.434V359.214C872.971 357.894 872.641 356.816 872.025 356.002C871.387 355.166 870.551 354.77 869.539 354.77ZM878.469 346.806H880.009C880.955 348.214 881.703 349.732 882.275 351.338C882.913 353.23 883.243 355.144 883.243 357.102C883.243 359.016 882.913 360.93 882.275 362.822C881.703 364.406 880.955 365.924 880.009 367.354H878.469C879.349 365.88 880.031 364.362 880.559 362.8C881.197 360.864 881.527 358.95 881.527 357.08C881.527 355.188 881.197 353.296 880.559 351.36C880.031 349.776 879.349 348.258 878.469 346.806Z" fill="black"/>
</g>
<path d="M1978 398V399H1979V398H1978ZM1977 317V398H1979V317H1977ZM1978 397H716V399H1978V397Z" fill="black" mask="url(#path-27-inside-8_5551_1308)"/>
</g>
</g>
<rect x="0.5" y="0.5" width="1599" height="397" stroke="black"/>
<defs>
<clipPath id="clip0_5551_1308">
<rect width="1600" height="398" fill="white"/>
</clipPath>
<clipPath id="clip1_5551_1308">
<rect width="1600" height="398" fill="white"/>
</clipPath>
<clipPath id="clip2_5551_1308">
<rect width="716" height="74" fill="white"/>
</clipPath>
<clipPath id="clip3_5551_1308">
<rect width="1262" height="74" fill="white" transform="translate(716)"/>
</clipPath>
<clipPath id="clip4_5551_1308">
<path d="M716 74H1978V155H716V74Z" fill="white"/>
</clipPath>
<clipPath id="clip5_5551_1308">
<path d="M716 155H1978V236H716V155Z" fill="white"/>
</clipPath>
<clipPath id="clip6_5551_1308">
<path d="M716 236H1978V317H716V236Z" fill="white"/>
</clipPath>
<clipPath id="clip7_5551_1308">
<path d="M716 317H1978V398H716V317Z" fill="white"/>
</clipPath>
</defs>
</svg>
