<svg width="68" height="32" viewBox="0 0 68 32" fill="none" xmlns="http://www.w3.org/2000/svg">
<rect x="0.4" y="0.4" width="66.6" height="31.2" rx="4.4" stroke="#EDEEF3" stroke-width="0.8"/>
<path d="M19.4087 12.216V20H18.1319V14.6688L15.7575 20H14.8727L12.4871 14.6688V20H11.2103V12.216H12.5879L15.3207 18.32L18.0423 12.216H19.4087ZM23.7637 20.1008C23.1813 20.1008 22.6549 19.9701 22.1845 19.7088C21.7141 19.44 21.3445 19.0667 21.0757 18.5888C20.8069 18.1035 20.6725 17.5435 20.6725 16.9088C20.6725 16.2816 20.8106 15.7253 21.0869 15.24C21.3631 14.7547 21.7402 14.3813 22.2181 14.12C22.6959 13.8587 23.2298 13.728 23.8197 13.728C24.4095 13.728 24.9434 13.8587 25.4213 14.12C25.8991 14.3813 26.2762 14.7547 26.5525 15.24C26.8287 15.7253 26.9669 16.2816 26.9669 16.9088C26.9669 17.536 26.825 18.0923 26.5413 18.5776C26.2575 19.0629 25.8693 19.44 25.3765 19.7088C24.8911 19.9701 24.3535 20.1008 23.7637 20.1008ZM23.7637 18.992C24.0922 18.992 24.3983 18.9136 24.6821 18.7568C24.9733 18.6 25.2085 18.3648 25.3877 18.0512C25.5669 17.7376 25.6565 17.3568 25.6565 16.9088C25.6565 16.4608 25.5706 16.0837 25.3989 15.7776C25.2271 15.464 24.9994 15.2288 24.7157 15.072C24.4319 14.9152 24.1258 14.8368 23.7973 14.8368C23.4687 14.8368 23.1626 14.9152 22.8789 15.072C22.6026 15.2288 22.3823 15.464 22.2181 15.7776C22.0538 16.0837 21.9717 16.4608 21.9717 16.9088C21.9717 17.5733 22.1397 18.0885 22.4757 18.4544C22.8191 18.8128 23.2485 18.992 23.7637 18.992ZM29.5058 14.7248C29.6925 14.4112 29.9389 14.1685 30.245 13.9968C30.5586 13.8176 30.9282 13.728 31.3538 13.728V15.0496H31.029C30.5288 15.0496 30.148 15.1765 29.8866 15.4304C29.6328 15.6843 29.5058 16.1248 29.5058 16.752V20H28.229V13.8288H29.5058V14.7248ZM38.1835 16.7632C38.1835 16.9947 38.1685 17.2037 38.1387 17.3904H33.4235C33.4608 17.8832 33.6437 18.2789 33.9723 18.5776C34.3008 18.8763 34.704 19.0256 35.1819 19.0256C35.8688 19.0256 36.3541 18.7381 36.6379 18.1632H38.0155C37.8288 18.7307 37.4891 19.1973 36.9963 19.5632C36.5109 19.9216 35.9061 20.1008 35.1819 20.1008C34.592 20.1008 34.0619 19.9701 33.5915 19.7088C33.1285 19.44 32.7627 19.0667 32.4939 18.5888C32.2325 18.1035 32.1019 17.5435 32.1019 16.9088C32.1019 16.2741 32.2288 15.7179 32.4827 15.24C32.744 14.7547 33.1061 14.3813 33.5691 14.12C34.0395 13.8587 34.5771 13.728 35.1819 13.728C35.7643 13.728 36.2832 13.8549 36.7387 14.1088C37.1941 14.3627 37.5488 14.7211 37.8027 15.184C38.0565 15.6395 38.1835 16.1659 38.1835 16.7632ZM36.8507 16.36C36.8432 15.8896 36.6752 15.5125 36.3467 15.2288C36.0181 14.9451 35.6112 14.8032 35.1259 14.8032C34.6853 14.8032 34.3083 14.9451 33.9947 15.2288C33.6811 15.5051 33.4944 15.8821 33.4347 16.36H36.8507Z" fill="#1C1C1C"/>
<path d="M55.6418 14.0773L56.0422 14.5242C56.0514 14.516 56.0603 14.5075 56.069 14.4987L55.6418 14.0773ZM53.2418 16.2272L53.629 16.6855C53.6335 16.6818 53.6378 16.6779 53.6422 16.6741L53.2418 16.2272ZM52.1814 20.9228L51.8696 20.4102C51.8643 20.4134 51.859 20.4167 51.8538 20.4201L52.1814 20.9228ZM51.4 21.432L51.7176 21.9412L51.7275 21.9347L51.4 21.432ZM49.2232 16.2837L49.6942 15.912C49.6837 15.8987 49.6726 15.8858 49.661 15.8734L49.2232 16.2837ZM47.1023 14.0208L47.5401 13.6105C47.5366 13.6067 47.533 13.603 47.5294 13.5994L47.1023 14.0208ZM51.3137 10.7146C51.4874 10.4324 51.3995 10.0628 51.1173 9.88906C50.8351 9.71533 50.4656 9.80325 50.2918 10.0854L51.3137 10.7146ZM47.5402 14.5548C47.3665 14.837 47.4544 15.2066 47.7366 15.3803C48.0188 15.554 48.3883 15.4661 48.5621 15.1839L47.5402 14.5548ZM47.7163 11H55.0837V9.79999H47.7163V11ZM55.0837 11C55.3587 11 55.6 11.2329 55.6 11.5315H56.8C56.8 10.5855 56.0367 9.79999 55.0837 9.79999V11ZM55.6 11.5315V12.7761H56.8V11.5315H55.6ZM55.6 12.7761C55.6 12.8907 55.5612 13.0595 55.4781 13.2449C55.3956 13.4288 55.293 13.5766 55.2147 13.6559L56.069 14.4987C56.2698 14.2952 56.4462 14.0186 56.573 13.7359C56.6992 13.4545 56.8 13.1141 56.8 12.7761H55.6ZM55.2415 13.6304L52.8415 15.7802L53.6422 16.6741L56.0422 14.5242L55.2415 13.6304ZM52.8547 15.7688C52.5942 15.9888 52.4061 16.2899 52.2837 16.5825C52.1601 16.8778 52.0837 17.2111 52.0837 17.5284H53.2837C53.2837 17.3931 53.3189 17.2171 53.3907 17.0458C53.4636 16.8715 53.5546 16.7484 53.629 16.6855L52.8547 15.7688ZM52.0837 17.5284V19.9611H53.2837V17.5284H52.0837ZM52.0837 19.9611C52.0837 20.0131 52.0621 20.1171 52.0033 20.2317C51.9761 20.2849 51.9462 20.3294 51.9183 20.3627C51.9046 20.3789 51.8928 20.3908 51.8836 20.399C51.8743 20.4073 51.8694 20.4103 51.8696 20.4102L52.4931 21.4355C52.7599 21.2733 52.9505 21.0143 53.071 20.7795C53.1937 20.5404 53.2837 20.2485 53.2837 19.9611H52.0837ZM51.8538 20.4201L51.0724 20.9293L51.7275 21.9347L52.5089 21.4255L51.8538 20.4201ZM51.0824 20.9229C50.7381 21.1377 50.2697 20.8829 50.2697 20.4702H49.0697C49.0697 21.8679 50.6107 22.6315 51.7175 21.9411L51.0824 20.9229ZM50.2697 20.4702V17.4718H49.0697V20.4702H50.2697ZM50.2697 17.4718C50.2697 17.1727 50.1884 16.8687 50.0883 16.6151C49.987 16.3584 49.8482 16.1071 49.6942 15.912L48.7523 16.6554C48.8215 16.7432 48.9059 16.8879 48.9721 17.0556C49.0395 17.2263 49.0697 17.3749 49.0697 17.4718H50.2697ZM49.661 15.8734L47.5401 13.6105L46.6645 14.4311L48.7855 16.694L49.661 15.8734ZM47.5294 13.5994C47.4529 13.5218 47.3643 13.3898 47.2952 13.2335C47.2239 13.0724 47.2 12.946 47.2 12.8893H46C46 13.172 46.0876 13.4699 46.1978 13.7189C46.31 13.9728 46.4726 14.2368 46.6752 14.4421L47.5294 13.5994ZM47.2 12.8893V11.5881H46V12.8893H47.2ZM47.2 11.5881C47.2 11.2134 47.4602 11 47.7163 11V9.79999C46.7444 9.79999 46 10.6049 46 11.5881H47.2ZM50.2918 10.0854L47.5402 14.5548L48.5621 15.1839L51.3137 10.7146L50.2918 10.0854Z" fill="#1C1C1C"/>
</svg>
