<svg width="67" height="32" viewBox="0 0 67 32" fill="none" xmlns="http://www.w3.org/2000/svg">
<rect x="0.4" y="0.4" width="65.4" height="31.2" rx="4.4" stroke="#EDEEF3" stroke-width="0.8"/>
<path d="M12.0371 13.2464V15.5312H14.7251V16.5728H12.0371V18.9584H15.0611V20H10.7603V12.2048H15.0611V13.2464H12.0371ZM19.0193 18.8576L20.7665 13.8288H22.1217L19.7697 20H18.2465L15.9057 13.8288H17.2721L19.0193 18.8576ZM28.7429 16.7632C28.7429 16.9947 28.7279 17.2037 28.6981 17.3904H23.9829C24.0202 17.8832 24.2031 18.2789 24.5317 18.5776C24.8602 18.8763 25.2634 19.0256 25.7413 19.0256C26.4282 19.0256 26.9135 18.7381 27.1973 18.1632H28.5749C28.3882 18.7307 28.0485 19.1973 27.5557 19.5632C27.0703 19.9216 26.4655 20.1008 25.7413 20.1008C25.1514 20.1008 24.6213 19.9701 24.1509 19.7088C23.6879 19.44 23.3221 19.0667 23.0533 18.5888C22.7919 18.1035 22.6613 17.5435 22.6613 16.9088C22.6613 16.2741 22.7882 15.7179 23.0421 15.24C23.3034 14.7547 23.6655 14.3813 24.1285 14.12C24.5989 13.8587 25.1365 13.728 25.7413 13.728C26.3237 13.728 26.8426 13.8549 27.2981 14.1088C27.7535 14.3627 28.1082 14.7211 28.3621 15.184C28.6159 15.6395 28.7429 16.1659 28.7429 16.7632ZM27.4101 16.36C27.4026 15.8896 27.2346 15.5125 26.9061 15.2288C26.5775 14.9451 26.1706 14.8032 25.6853 14.8032C25.2447 14.8032 24.8677 14.9451 24.5541 15.2288C24.2405 15.5051 24.0538 15.8821 23.9941 16.36H27.4101ZM33.113 13.728C33.5983 13.728 34.0314 13.8288 34.4122 14.0304C34.8004 14.232 35.1028 14.5307 35.3194 14.9264C35.5359 15.3221 35.6442 15.8 35.6442 16.36V20H34.3786V16.5504C34.3786 15.9979 34.2404 15.576 33.9642 15.2848C33.6879 14.9861 33.3108 14.8368 32.833 14.8368C32.3551 14.8368 31.9743 14.9861 31.6906 15.2848C31.4143 15.576 31.2762 15.9979 31.2762 16.5504V20H29.9994V13.8288H31.2762V14.5344C31.4852 14.2805 31.7503 14.0827 32.0714 13.9408C32.3999 13.7989 32.7471 13.728 33.113 13.728ZM38.7624 14.8704V18.2864C38.7624 18.5179 38.8147 18.6859 38.9192 18.7904C39.0312 18.8875 39.2179 18.936 39.4792 18.936H40.2632V20H39.2552C38.6803 20 38.2397 19.8656 37.9336 19.5968C37.6275 19.328 37.4744 18.8912 37.4744 18.2864V14.8704H36.7464V13.8288H37.4744V12.2944H38.7624V13.8288H40.2632V14.8704H38.7624Z" fill="#1C1C1C"/>
<rect x="47" y="11.2" width="9.6" height="9.6" fill="#D8D8D8" fill-opacity="0.01"/>
<path d="M48.2 14.4L51.8 18L55.4 14.4" stroke="#73798B" stroke-width="1.6" stroke-linecap="round" stroke-linejoin="round"/>
</svg>
