<svg width="151" height="40" viewBox="0 0 151 40" fill="none" xmlns="http://www.w3.org/2000/svg">
<path fill-rule="evenodd" clip-rule="evenodd" d="M0 6C0 2.68629 2.68629 0 6 0L145 0C148.314 0 151 2.68629 151 6V34C151 37.3137 148.314 40 145 40H6C2.68629 40 0 37.3137 0 34V6Z" fill="#1F32D6"/>
<path d="M22.926 15.228V25H20.966V15.228H22.926ZM29.1605 17.132C30.0845 17.132 30.8312 17.426 31.4005 18.014C31.9698 18.5927 32.2545 19.4047 32.2545 20.45V25H30.2945V20.716C30.2945 20.1 30.1405 19.6287 29.8325 19.302C29.5245 18.966 29.1045 18.798 28.5725 18.798C28.0312 18.798 27.6018 18.966 27.2845 19.302C26.9765 19.6287 26.8225 20.1 26.8225 20.716V25H24.8625V17.244H26.8225V18.21C27.0838 17.874 27.4152 17.6127 27.8165 17.426C28.2272 17.23 28.6752 17.132 29.1605 17.132ZM37.3523 23.194L39.3123 17.244H41.3983L38.5283 25H36.1483L33.2923 17.244H35.3923L37.3523 23.194ZM43.4932 16.32C43.1479 16.32 42.8585 16.2127 42.6252 15.998C42.4012 15.774 42.2892 15.4987 42.2892 15.172C42.2892 14.8453 42.4012 14.5747 42.6252 14.36C42.8585 14.136 43.1479 14.024 43.4932 14.024C43.8385 14.024 44.1232 14.136 44.3472 14.36C44.5805 14.5747 44.6972 14.8453 44.6972 15.172C44.6972 15.4987 44.5805 15.774 44.3472 15.998C44.1232 16.2127 43.8385 16.32 43.4932 16.32ZM44.4592 17.244V25H42.4992V17.244H44.4592ZM48.6777 18.854V22.606C48.6777 22.8673 48.7384 23.0587 48.8597 23.18C48.9904 23.292 49.205 23.348 49.5037 23.348H50.4137V25H49.1817C47.5297 25 46.7037 24.1973 46.7037 22.592V18.854H45.7797V17.244H46.7037V15.326H48.6777V17.244H50.4137V18.854H48.6777ZM59.0334 20.954C59.0334 21.234 59.0148 21.486 58.9774 21.71H53.3074C53.3541 22.27 53.5501 22.7087 53.8954 23.026C54.2408 23.3433 54.6654 23.502 55.1694 23.502C55.8974 23.502 56.4154 23.1893 56.7234 22.564H58.8374C58.6134 23.3107 58.1841 23.9267 57.5494 24.412C56.9148 24.888 56.1354 25.126 55.2114 25.126C54.4648 25.126 53.7928 24.9627 53.1954 24.636C52.6074 24.3 52.1454 23.8287 51.8094 23.222C51.4828 22.6153 51.3194 21.9153 51.3194 21.122C51.3194 20.3193 51.4828 19.6147 51.8094 19.008C52.1361 18.4013 52.5934 17.9347 53.1814 17.608C53.7694 17.2813 54.4461 17.118 55.2114 17.118C55.9488 17.118 56.6068 17.2767 57.1854 17.594C57.7734 17.9113 58.2261 18.364 58.5434 18.952C58.8701 19.5307 59.0334 20.198 59.0334 20.954ZM57.0034 20.394C56.9941 19.89 56.8121 19.4887 56.4574 19.19C56.1028 18.882 55.6688 18.728 55.1554 18.728C54.6701 18.728 54.2594 18.8773 53.9234 19.176C53.5968 19.4653 53.3961 19.8713 53.3214 20.394H57.0034ZM74.454 15.228V25H72.494V18.644L69.876 25H68.392L65.76 18.644V25H63.8V15.228H66.026L69.134 22.494L72.242 15.228H74.454ZM83.6018 20.954C83.6018 21.234 83.5831 21.486 83.5458 21.71H77.8758C77.9224 22.27 78.1184 22.7087 78.4638 23.026C78.8091 23.3433 79.2338 23.502 79.7378 23.502C80.4658 23.502 80.9838 23.1893 81.2918 22.564H83.4058C83.1818 23.3107 82.7524 23.9267 82.1178 24.412C81.4831 24.888 80.7038 25.126 79.7798 25.126C79.0331 25.126 78.3611 24.9627 77.7638 24.636C77.1758 24.3 76.7138 23.8287 76.3778 23.222C76.0511 22.6153 75.8878 21.9153 75.8878 21.122C75.8878 20.3193 76.0511 19.6147 76.3778 19.008C76.7044 18.4013 77.1618 17.9347 77.7498 17.608C78.3378 17.2813 79.0144 17.118 79.7798 17.118C80.5171 17.118 81.1751 17.2767 81.7538 17.594C82.3418 17.9113 82.7944 18.364 83.1118 18.952C83.4384 19.5307 83.6018 20.198 83.6018 20.954ZM81.5718 20.394C81.5624 19.89 81.3804 19.4887 81.0258 19.19C80.6711 18.882 80.2371 18.728 79.7238 18.728C79.2384 18.728 78.8278 18.8773 78.4918 19.176C78.1651 19.4653 77.9644 19.8713 77.8898 20.394H81.5718ZM94.6644 17.132C95.6164 17.132 96.3817 17.426 96.9604 18.014C97.5484 18.5927 97.8424 19.4047 97.8424 20.45V25H95.8824V20.716C95.8824 20.1093 95.7284 19.6473 95.4204 19.33C95.1124 19.0033 94.6924 18.84 94.1604 18.84C93.6284 18.84 93.2037 19.0033 92.8864 19.33C92.5784 19.6473 92.4244 20.1093 92.4244 20.716V25H90.4644V20.716C90.4644 20.1093 90.3104 19.6473 90.0024 19.33C89.6944 19.0033 89.2744 18.84 88.7424 18.84C88.2011 18.84 87.7717 19.0033 87.4544 19.33C87.1464 19.6473 86.9924 20.1093 86.9924 20.716V25H85.0324V17.244H86.9924V18.182C87.2444 17.8553 87.5664 17.5987 87.9584 17.412C88.3597 17.2253 88.7984 17.132 89.2744 17.132C89.8811 17.132 90.4224 17.2627 90.8984 17.524C91.3744 17.776 91.7431 18.14 92.0044 18.616C92.2564 18.168 92.6204 17.8087 93.0964 17.538C93.5817 17.2673 94.1044 17.132 94.6644 17.132ZM101.662 18.378C101.914 18.0047 102.26 17.7013 102.698 17.468C103.146 17.2347 103.655 17.118 104.224 17.118C104.887 17.118 105.484 17.2813 106.016 17.608C106.558 17.9347 106.982 18.4013 107.29 19.008C107.608 19.6053 107.766 20.3007 107.766 21.094C107.766 21.8873 107.608 22.592 107.29 23.208C106.982 23.8147 106.558 24.286 106.016 24.622C105.484 24.958 104.887 25.126 104.224 25.126C103.646 25.126 103.137 25.014 102.698 24.79C102.269 24.5567 101.924 24.258 101.662 23.894V25H99.7023V14.64H101.662V18.378ZM105.764 21.094C105.764 20.6273 105.666 20.226 105.47 19.89C105.284 19.5447 105.032 19.2833 104.714 19.106C104.406 18.9287 104.07 18.84 103.706 18.84C103.352 18.84 103.016 18.9333 102.698 19.12C102.39 19.2973 102.138 19.5587 101.942 19.904C101.756 20.2493 101.662 20.6553 101.662 21.122C101.662 21.5887 101.756 21.9947 101.942 22.34C102.138 22.6853 102.39 22.9513 102.698 23.138C103.016 23.3153 103.352 23.404 103.706 23.404C104.07 23.404 104.406 23.3107 104.714 23.124C105.032 22.9373 105.284 22.6713 105.47 22.326C105.666 21.9807 105.764 21.57 105.764 21.094ZM116.401 20.954C116.401 21.234 116.382 21.486 116.345 21.71H110.675C110.721 22.27 110.917 22.7087 111.263 23.026C111.608 23.3433 112.033 23.502 112.537 23.502C113.265 23.502 113.783 23.1893 114.091 22.564H116.205C115.981 23.3107 115.551 23.9267 114.917 24.412C114.282 24.888 113.503 25.126 112.579 25.126C111.832 25.126 111.16 24.9627 110.563 24.636C109.975 24.3 109.513 23.8287 109.177 23.222C108.85 22.6153 108.687 21.9153 108.687 21.122C108.687 20.3193 108.85 19.6147 109.177 19.008C109.503 18.4013 109.961 17.9347 110.549 17.608C111.137 17.2813 111.813 17.118 112.579 17.118C113.316 17.118 113.974 17.2767 114.553 17.594C115.141 17.9113 115.593 18.364 115.911 18.952C116.237 19.5307 116.401 20.198 116.401 20.954ZM114.371 20.394C114.361 19.89 114.179 19.4887 113.825 19.19C113.47 18.882 113.036 18.728 112.523 18.728C112.037 18.728 111.627 18.8773 111.291 19.176C110.964 19.4653 110.763 19.8713 110.689 20.394H114.371ZM119.791 18.448C120.043 18.0373 120.37 17.7153 120.771 17.482C121.182 17.2487 121.649 17.132 122.171 17.132V19.19H121.653C121.037 19.19 120.571 19.3347 120.253 19.624C119.945 19.9133 119.791 20.4173 119.791 21.136V25H117.831V17.244H119.791V18.448ZM126.459 25.126C125.825 25.126 125.255 25.014 124.751 24.79C124.247 24.5567 123.846 24.244 123.547 23.852C123.258 23.46 123.099 23.026 123.071 22.55H125.045C125.083 22.8487 125.227 23.096 125.479 23.292C125.741 23.488 126.063 23.586 126.445 23.586C126.819 23.586 127.108 23.5113 127.313 23.362C127.528 23.2127 127.635 23.0213 127.635 22.788C127.635 22.536 127.505 22.3493 127.243 22.228C126.991 22.0973 126.585 21.9573 126.025 21.808C125.447 21.668 124.971 21.5233 124.597 21.374C124.233 21.2247 123.916 20.996 123.645 20.688C123.384 20.38 123.253 19.9647 123.253 19.442C123.253 19.0127 123.375 18.6207 123.617 18.266C123.869 17.9113 124.224 17.6313 124.681 17.426C125.148 17.2207 125.694 17.118 126.319 17.118C127.243 17.118 127.981 17.3513 128.531 17.818C129.082 18.2753 129.385 18.896 129.441 19.68H127.565C127.537 19.372 127.407 19.1293 127.173 18.952C126.949 18.7653 126.646 18.672 126.263 18.672C125.909 18.672 125.633 18.7373 125.437 18.868C125.251 18.9987 125.157 19.1807 125.157 19.414C125.157 19.6753 125.288 19.876 125.549 20.016C125.811 20.1467 126.217 20.282 126.767 20.422C127.327 20.562 127.789 20.7067 128.153 20.856C128.517 21.0053 128.83 21.2387 129.091 21.556C129.362 21.864 129.502 22.2747 129.511 22.788C129.511 23.236 129.385 23.6373 129.133 23.992C128.891 24.3467 128.536 24.6267 128.069 24.832C127.612 25.028 127.075 25.126 126.459 25.126Z" fill="white"/>
</svg>
