<svg width="49" height="32" viewBox="0 0 49 32" fill="none" xmlns="http://www.w3.org/2000/svg">
<rect x="1.19993" y="0.4" width="47.4" height="31.2" rx="4.4" stroke="#EDEEF3" stroke-width="0.8"/>
<path d="M15.3097 20L13.5177 16.8864H12.5433V20H11.2665V12.216H13.9545C14.5518 12.216 15.0558 12.3205 15.4665 12.5296C15.8846 12.7387 16.1945 13.0187 16.3961 13.3696C16.6051 13.7205 16.7097 14.1125 16.7097 14.5456C16.7097 15.0533 16.5603 15.5163 16.2617 15.9344C15.9705 16.3451 15.5187 16.6251 14.9065 16.7744L16.8329 20H15.3097ZM12.5433 15.8672H13.9545C14.4323 15.8672 14.7907 15.7477 15.0297 15.5088C15.2761 15.2699 15.3993 14.9488 15.3993 14.5456C15.3993 14.1424 15.2798 13.8288 15.0409 13.6048C14.8019 13.3733 14.4398 13.2576 13.9545 13.2576H12.5433V15.8672ZM23.999 16.7632C23.999 16.9947 23.9841 17.2037 23.9542 17.3904H19.239C19.2764 17.8832 19.4593 18.2789 19.7878 18.5776C20.1164 18.8763 20.5196 19.0256 20.9974 19.0256C21.6844 19.0256 22.1697 18.7381 22.4534 18.1632H23.831C23.6444 18.7307 23.3046 19.1973 22.8118 19.5632C22.3265 19.9216 21.7217 20.1008 20.9974 20.1008C20.4076 20.1008 19.8774 19.9701 19.407 19.7088C18.9441 19.44 18.5782 19.0667 18.3094 18.5888C18.0481 18.1035 17.9174 17.5435 17.9174 16.9088C17.9174 16.2741 18.0444 15.7179 18.2982 15.24C18.5596 14.7547 18.9217 14.3813 19.3846 14.12C19.855 13.8587 20.3926 13.728 20.9974 13.728C21.5798 13.728 22.0988 13.8549 22.5542 14.1088C23.0097 14.3627 23.3644 14.7211 23.6182 15.184C23.8721 15.6395 23.999 16.1659 23.999 16.7632ZM22.6662 16.36C22.6588 15.8896 22.4908 15.5125 22.1622 15.2288C21.8337 14.9451 21.4268 14.8032 20.9414 14.8032C20.5009 14.8032 20.1238 14.9451 19.8102 15.2288C19.4966 15.5051 19.31 15.8821 19.2502 16.36H22.6662ZM26.7451 14.8704V18.2864C26.7451 18.5179 26.7974 18.6859 26.9019 18.7904C27.0139 18.8875 27.2006 18.936 27.4619 18.936H28.2459V20H27.2379C26.663 20 26.2225 19.8656 25.9163 19.5968C25.6102 19.328 25.4571 18.8912 25.4571 18.2864V14.8704H24.7291V13.8288H25.4571V12.2944H26.7451V13.8288H28.2459V14.8704H26.7451ZM30.6995 14.7248C30.8862 14.4112 31.1326 14.1685 31.4387 13.9968C31.7523 13.8176 32.1219 13.728 32.5475 13.728V15.0496H32.2227C31.7224 15.0496 31.3416 15.1765 31.0803 15.4304C30.8264 15.6843 30.6995 16.1248 30.6995 16.752V20H29.4227V13.8288H30.6995V14.7248ZM39.2764 13.8288L35.4908 22.9008H34.1692L35.4236 19.8992L32.9932 13.8288H34.4156L36.1516 18.5328L37.9548 13.8288H39.2764Z" fill="#73798B"/>
</svg>
