<svg width="95" height="32" viewBox="0 0 95 32" fill="none" xmlns="http://www.w3.org/2000/svg">
<path d="M63.1999 0.4H89.9999C92.43 0.4 94.3999 2.36995 94.3999 4.8V27.2C94.3999 29.6301 92.43 31.6 89.9999 31.6H63.1999V0.4Z" stroke="#EDEEF3" stroke-width="0.8"/>
<path d="M79.8144 17.2645H81.4819C81.7351 17.2645 81.9327 17.0718 81.9327 16.8249C81.9327 16.5781 81.7351 16.3854 81.4819 16.3854H79.8144C79.5612 16.3854 79.3636 16.5781 79.3636 16.8249C79.3667 17.0718 79.5643 17.2645 79.8144 17.2645ZM79.8144 19.0168H81.4819C81.7351 19.0168 81.9327 18.8241 81.9327 18.5772C81.9327 18.3303 81.7351 18.1376 81.4819 18.1376H79.8144C79.5612 18.1376 79.3636 18.3303 79.3636 18.5772C79.3667 18.8241 79.5643 19.0168 79.8144 19.0168ZM82.609 11.2791H81.4263V10.8396C81.4263 10.5927 81.2287 10.4 80.9755 10.4C80.7223 10.4 80.5246 10.5927 80.5246 10.8396V11.2791H76.9303V10.8396C76.9303 10.5927 76.7327 10.4 76.4795 10.4C76.2262 10.4 76.0286 10.5927 76.0286 10.8396V11.2791H74.9972C74.0091 11.2791 73.2001 12.068 73.2001 13.0314V19.8477C73.2001 20.8112 74.0091 21.6 74.9972 21.6H82.6028C83.591 21.6 84.4 20.8112 84.4 19.8477V13.0314C84.4062 12.068 83.5971 11.2791 82.609 11.2791ZM83.5076 19.8477C83.5076 20.3295 83.1031 20.7239 82.609 20.7239H75.0003C74.5063 20.7239 74.1017 20.3295 74.1017 19.8477V14.7836H83.5076V19.8477ZM83.5076 13.9075H74.1017V13.0314C74.1017 12.5497 74.5063 12.1553 75.0003 12.1553H76.0317V12.5948C76.0317 12.8417 76.2293 13.0344 76.4825 13.0344C76.7358 13.0344 76.9334 12.8417 76.9334 12.5948V12.1553H80.5308V12.5948C80.5308 12.8417 80.7285 13.0344 80.9817 13.0344C81.2349 13.0344 81.4325 12.8417 81.4325 12.5948V12.1553H82.6152C83.1092 12.1553 83.5138 12.5497 83.5138 13.0314V13.9075H83.5076ZM75.8897 19.0168H77.5571C77.8104 19.0168 78.008 18.8241 78.008 18.5772C78.008 18.3303 77.8104 18.1376 77.5571 18.1376H75.8897C75.6365 18.1376 75.4388 18.3303 75.4388 18.5772C75.4388 18.8241 75.6365 19.0168 75.8897 19.0168ZM75.8897 17.2645H77.5571C77.8104 17.2645 78.008 17.0718 78.008 16.8249C78.008 16.5781 77.8104 16.3854 77.5571 16.3854H75.8897C75.6365 16.3854 75.4388 16.5781 75.4388 16.8249C75.4388 17.0718 75.6365 17.2645 75.8897 17.2645Z" fill="#73798B"/>
<path d="M5.20002 0.4H63.2V31.6H5.20003C2.76998 31.6 0.800024 29.6301 0.800024 27.2V4.8C0.800024 2.36995 2.76997 0.4 5.20002 0.4Z" stroke="#EDEEF3" stroke-width="0.8"/>
<path d="M16.0438 12.216V13.2576H13.9718V20H12.695V13.2576H10.6118V12.216H16.0438ZM17.9865 13.0112C17.755 13.0112 17.5609 12.9328 17.4041 12.776C17.2473 12.6192 17.1689 12.4251 17.1689 12.1936C17.1689 11.9621 17.2473 11.768 17.4041 11.6112C17.5609 11.4544 17.755 11.376 17.9865 11.376C18.2105 11.376 18.4009 11.4544 18.5577 11.6112C18.7145 11.768 18.7929 11.9621 18.7929 12.1936C18.7929 12.4251 18.7145 12.6192 18.5577 12.776C18.4009 12.9328 18.2105 13.0112 17.9865 13.0112ZM18.6137 13.8288V20H17.3369V13.8288H18.6137ZM27.7604 13.728C28.2457 13.728 28.6788 13.8288 29.0596 14.0304C29.4479 14.232 29.7503 14.5307 29.9668 14.9264C30.1908 15.3221 30.3028 15.8 30.3028 16.36V20H29.0372V16.5504C29.0372 15.9979 28.8991 15.576 28.6228 15.2848C28.3465 14.9861 27.9695 14.8368 27.4916 14.8368C27.0137 14.8368 26.6329 14.9861 26.3492 15.2848C26.0729 15.576 25.9348 15.9979 25.9348 16.5504V20H24.6692V16.5504C24.6692 15.9979 24.5311 15.576 24.2548 15.2848C23.9785 14.9861 23.6015 14.8368 23.1236 14.8368C22.6457 14.8368 22.2649 14.9861 21.9812 15.2848C21.7049 15.576 21.5668 15.9979 21.5668 16.5504V20H20.29V13.8288H21.5668V14.5344C21.7759 14.2805 22.0409 14.0827 22.362 13.9408C22.6831 13.7989 23.0265 13.728 23.3924 13.728C23.8852 13.728 24.3257 13.8325 24.714 14.0416C25.1023 14.2507 25.4009 14.5531 25.61 14.9488C25.7967 14.5755 26.0879 14.2805 26.4836 14.064C26.8793 13.84 27.3049 13.728 27.7604 13.728ZM37.5835 16.7632C37.5835 16.9947 37.5686 17.2037 37.5387 17.3904H32.8235C32.8608 17.8832 33.0438 18.2789 33.3723 18.5776C33.7008 18.8763 34.104 19.0256 34.5819 19.0256C35.2688 19.0256 35.7542 18.7381 36.0379 18.1632H37.4155C37.2288 18.7307 36.8891 19.1973 36.3963 19.5632C35.911 19.9216 35.3062 20.1008 34.5819 20.1008C33.992 20.1008 33.4619 19.9701 32.9915 19.7088C32.5286 19.44 32.1627 19.0667 31.8939 18.5888C31.6326 18.1035 31.5019 17.5435 31.5019 16.9088C31.5019 16.2741 31.6288 15.7179 31.8827 15.24C32.144 14.7547 32.5062 14.3813 32.9691 14.12C33.4395 13.8587 33.9771 13.728 34.5819 13.728C35.1643 13.728 35.6832 13.8549 36.1387 14.1088C36.5942 14.3627 36.9488 14.7211 37.2027 15.184C37.4566 15.6395 37.5835 16.1659 37.5835 16.7632ZM36.2507 16.36C36.2432 15.8896 36.0752 15.5125 35.7467 15.2288C35.4182 14.9451 35.0112 14.8032 34.5259 14.8032C34.0854 14.8032 33.7083 14.9451 33.3947 15.2288C33.0811 15.5051 32.8944 15.8821 32.8347 16.36H36.2507Z" fill="#1C1C1C"/>
<rect x="44.4" y="11.2" width="9.6" height="9.6" fill="#D8D8D8" fill-opacity="0.01"/>
<path d="M45.6 14.4L49.2 18L52.8 14.4" stroke="#73798B" stroke-width="1.6" stroke-linecap="round" stroke-linejoin="round"/>
</svg>
