<svg width="1600" height="155" viewBox="0 0 1600 155" fill="none" xmlns="http://www.w3.org/2000/svg">
<g clip-path="url(#clip0_5554_335)">
<rect width="1600" height="155" fill="white"/>
<g clip-path="url(#clip1_5554_335)">
<rect width="1600" height="155" fill="white"/>
<g clip-path="url(#clip2_5554_335)">
<rect width="586" height="74" fill="#1F32D6"/>
<path d="M27.542 26.938L29.742 27.422C29.588 28.038 29.434 28.61 29.258 29.182H33.02V31.36H28.51C28.202 32.108 27.894 32.812 27.564 33.472H32.426V35.54H30.644V37.762H33.372V39.874H30.644V43.724C31.612 43.284 32.558 42.712 33.526 42.008L33.9 44.076C32.316 45.198 30.49 46.122 28.422 46.826L27.476 44.868C28.092 44.648 28.4 44.362 28.4 43.966V39.874H25.452V37.762H28.4V35.54H27.212V34.132C26.992 34.528 26.772 34.902 26.552 35.276L24.682 34.088C26.046 31.844 26.992 29.468 27.542 26.938ZM43.668 30.59L43.998 32.702L38.96 33.494C38.982 34.308 39.026 35.078 39.092 35.826L44.24 34.902L44.592 37.058L39.334 38.004L39.378 38.422C39.532 39.368 39.73 40.226 39.95 40.974C40.808 40.072 41.6 39.06 42.326 37.96L44.064 39.126C43.052 40.644 41.952 41.964 40.786 43.108C41.336 44.076 41.842 44.582 42.304 44.582C42.7 44.582 43.03 43.57 43.338 41.568L45.318 42.866C44.68 45.638 43.756 47.024 42.546 47.024C41.49 47.002 40.5 46.32 39.532 45L39.202 44.494C37.508 45.814 35.682 46.76 33.746 47.354L32.47 45.616C34.626 44.912 36.562 43.9 38.234 42.558C37.882 41.656 37.574 40.666 37.332 39.588C37.244 39.192 37.156 38.796 37.112 38.4L33.878 38.972L33.548 36.816L36.804 36.244C36.716 35.452 36.672 34.66 36.628 33.846L34.032 34.264L33.702 32.152L36.584 31.712V26.916H38.916V31.338L43.668 30.59ZM41.226 26.828C42.194 27.818 42.92 28.676 43.426 29.38L41.644 30.634C41.116 29.82 40.39 28.918 39.488 27.928L41.226 26.828ZM60.19 33.428V40.644H52.424V44.032C52.424 44.582 52.732 44.868 53.392 44.868H63.38C63.82 44.824 64.106 44.648 64.26 44.318C64.37 44.076 64.502 43.306 64.634 42.03L66.812 42.756C66.658 44.076 66.482 45 66.284 45.55C65.976 46.474 65.272 46.958 64.128 47.002H52.424C50.884 47.002 50.114 46.32 50.114 44.956V34.44C49.674 34.924 49.256 35.386 48.816 35.826L47.188 33.89C49.08 32.218 50.708 29.82 52.116 26.74L54.448 27.268C54.184 27.884 53.898 28.478 53.634 29.05H65.558C65.558 34.902 65.426 38.51 65.206 39.874C64.986 41.238 64.062 41.942 62.434 41.942C62.17 41.942 61.686 41.898 61.026 41.832L60.476 39.786C61.092 39.852 61.62 39.896 62.06 39.896C62.588 39.896 62.896 39.544 62.984 38.84C63.116 38.092 63.182 35.562 63.226 31.228H52.424C51.94 32.02 51.456 32.746 50.95 33.428H60.19ZM52.424 38.576H57.88V35.496H52.424V38.576ZM80.166 34.88V36.904H77.834V33.318C76.492 35.188 74.116 36.816 70.706 38.202L69.496 36.222C72.422 35.298 74.512 34.308 75.766 33.208H69.628V31.074H77.834V26.894H80.166V31.074H88.372V33.208H80.166V33.362C83.07 34.11 85.754 34.99 88.174 36.046L86.92 37.96C84.72 36.684 82.454 35.672 80.166 34.88ZM78.846 42.008C78.428 42.734 77.944 43.372 77.416 43.944C76.008 45.352 73.566 46.474 70.068 47.31L69.144 45.176C72.092 44.538 74.204 43.658 75.524 42.514C75.876 42.184 76.206 41.832 76.47 41.48H69.452V39.346H77.504C77.68 38.774 77.812 38.18 77.9 37.564H80.232C80.144 38.18 80.034 38.774 79.902 39.346H88.548V41.48H81.024C82.96 43.284 85.6 44.56 88.9 45.308L87.734 47.376C83.862 46.32 80.892 44.516 78.846 42.008ZM73.896 27.224C74.49 28.126 75.018 29.16 75.502 30.348L73.566 30.854C73.126 29.82 72.576 28.83 71.916 27.884L73.896 27.224ZM84.082 27.18L86.084 27.708C85.622 28.896 85.028 29.93 84.302 30.832L82.388 30.15C83.048 29.358 83.598 28.368 84.082 27.18ZM91.914 27.708H102.518V29.732H100.494V32.394H103.002V34.506H100.494V39.104H98.294V34.506H96.006C95.742 36.662 94.928 38.268 93.608 39.368L91.87 37.85C92.882 37.08 93.498 35.958 93.762 34.506H91.342V32.394H93.894V29.732H91.914V27.708ZM96.116 29.732V32.394H98.294V29.732H96.116ZM103.838 28.434H106.016V35.958H103.838V28.434ZM92.486 40.82H99.944V39.346H102.232V40.82H109.536V42.932H102.232V44.758H110.746V46.848H91.254V44.758H99.944V42.932H92.486V40.82ZM107.93 39.39H104.982L104.476 37.234C105.422 37.322 106.324 37.388 107.16 37.388C107.578 37.388 107.798 37.036 107.798 36.332V27.224H110.02V36.882C110.02 38.554 109.316 39.39 107.93 39.39Z" fill="white"/>
<path d="M586 0V72" stroke="white" stroke-width="2" stroke-linejoin="round"/>
</g>
<g clip-path="url(#clip3_5554_335)">
<rect width="524" height="74" transform="translate(586)" fill="#1F32D6"/>
<path d="M612.772 27.18C614.092 27.598 615.302 28.104 616.402 28.72L615.17 30.568C614.026 29.842 612.838 29.27 611.628 28.874L612.772 27.18ZM619.328 26.828L621.594 27.114C621.462 27.532 621.308 27.928 621.132 28.302H629.69V29.666C629.448 30.722 629.14 31.8 628.744 32.856L626.544 32.196C626.852 31.646 627.116 31.008 627.336 30.304H624.366C624.278 30.7 624.168 31.074 624.058 31.426C625.224 32.922 627.402 33.978 630.614 34.55L629.8 36.552C626.72 35.914 624.498 34.814 623.112 33.23C622.892 33.494 622.694 33.736 622.496 33.956C621.484 35.012 619.702 35.826 617.172 36.42L616.314 34.374C618.36 33.956 619.834 33.362 620.736 32.614C621.396 32.02 621.88 31.25 622.166 30.304H619.966C619.394 31.052 618.712 31.734 617.942 32.35L616.578 30.568C617.942 29.556 618.844 28.324 619.328 26.828ZM628.238 36.662V43.24H625.928V38.796H616.006V43.504H613.718V36.662H628.238ZM619.988 39.302L622.298 39.478C621.99 42.294 621.308 44.164 620.296 45.044C619.218 46.21 616.6 46.958 612.442 47.31L611.518 45.22C614.95 45.066 617.216 44.56 618.316 43.702C619.284 42.844 619.834 41.37 619.988 39.302ZM615.456 31.426L616.776 32.988C615.676 34.088 614.312 35.1 612.684 36.068L611.188 34.286C612.882 33.406 614.312 32.438 615.456 31.426ZM622.672 43.064C625.51 43.746 628.106 44.582 630.438 45.572L629.206 47.486C626.698 46.342 624.146 45.44 621.506 44.802L622.672 43.064ZM643.374 26.674C643.682 27.356 643.968 28.126 644.232 28.984H651.822V31.162H648.17C647.95 32.086 647.664 32.966 647.312 33.846H652.284V36.068H636.752V38.928C636.664 42.382 635.894 45.154 634.398 47.244L632.66 45.682C633.782 44.054 634.376 41.81 634.42 38.928V33.846H638.842L638.116 31.162H634.244V28.984H641.878C641.592 28.28 641.284 27.642 640.954 27.07L643.374 26.674ZM641.108 33.846H645.09C645.464 32.966 645.75 32.086 645.97 31.162H640.382L641.108 33.846ZM666.166 34.88V36.904H663.834V33.318C662.492 35.188 660.116 36.816 656.706 38.202L655.496 36.222C658.422 35.298 660.512 34.308 661.766 33.208H655.628V31.074H663.834V26.894H666.166V31.074H674.372V33.208H666.166V33.362C669.07 34.11 671.754 34.99 674.174 36.046L672.92 37.96C670.72 36.684 668.454 35.672 666.166 34.88ZM664.846 42.008C664.428 42.734 663.944 43.372 663.416 43.944C662.008 45.352 659.566 46.474 656.068 47.31L655.144 45.176C658.092 44.538 660.204 43.658 661.524 42.514C661.876 42.184 662.206 41.832 662.47 41.48H655.452V39.346H663.504C663.68 38.774 663.812 38.18 663.9 37.564H666.232C666.144 38.18 666.034 38.774 665.902 39.346H674.548V41.48H667.024C668.96 43.284 671.6 44.56 674.9 45.308L673.734 47.376C669.862 46.32 666.892 44.516 664.846 42.008ZM659.896 27.224C660.49 28.126 661.018 29.16 661.502 30.348L659.566 30.854C659.126 29.82 658.576 28.83 657.916 27.884L659.896 27.224ZM670.082 27.18L672.084 27.708C671.622 28.896 671.028 29.93 670.302 30.832L668.388 30.15C669.048 29.358 669.598 28.368 670.082 27.18ZM677.914 27.708H688.518V29.732H686.494V32.394H689.002V34.506H686.494V39.104H684.294V34.506H682.006C681.742 36.662 680.928 38.268 679.608 39.368L677.87 37.85C678.882 37.08 679.498 35.958 679.762 34.506H677.342V32.394H679.894V29.732H677.914V27.708ZM682.116 29.732V32.394H684.294V29.732H682.116ZM689.838 28.434H692.016V35.958H689.838V28.434ZM678.486 40.82H685.944V39.346H688.232V40.82H695.536V42.932H688.232V44.758H696.746V46.848H677.254V44.758H685.944V42.932H678.486V40.82ZM693.93 39.39H690.982L690.476 37.234C691.422 37.322 692.324 37.388 693.16 37.388C693.578 37.388 693.798 37.036 693.798 36.332V27.224H696.02V36.882C696.02 38.554 695.316 39.39 693.93 39.39Z" fill="white"/>
<path d="M1110 0V72" stroke="white" stroke-width="2" stroke-linejoin="round"/>
</g>
<g clip-path="url(#clip4_5554_335)">
<rect width="490" height="74" transform="translate(1110)" fill="#1F32D6"/>
<path d="M1139.13 33.78V35.364C1139.02 40.314 1138.07 44.252 1136.27 47.2L1134.66 45.528C1136.05 43.086 1136.79 39.698 1136.9 35.364V28.324C1142.84 28.258 1148.12 27.796 1152.74 26.916L1153.87 28.962C1149.49 29.71 1144.58 30.15 1139.13 30.238V31.668H1145.86L1146.06 30.04L1148.34 30.326C1148.3 30.766 1148.23 31.228 1148.17 31.668H1154.83V33.78H1147.82L1147.49 35.21H1153.03V42.954H1150.81V37.322H1142.82V42.954H1140.6V35.21H1145.15L1145.48 33.78H1139.13ZM1148.28 42.228C1150.7 43.064 1152.88 44.098 1154.86 45.308L1153.58 47.31C1151.49 45.88 1149.33 44.758 1147.13 43.944L1148.28 42.228ZM1146.17 37.96L1148.39 38.114C1148.12 40.71 1147.33 42.712 1145.97 44.076C1144.58 45.462 1142.47 46.562 1139.61 47.354L1138.38 45.242C1140.93 44.626 1142.8 43.79 1144.01 42.69C1145.2 41.59 1145.92 40.006 1146.17 37.96ZM1159.81 47.046H1157.78L1157.28 44.868C1157.87 44.934 1158.44 44.978 1159.01 44.978C1159.54 44.978 1159.83 44.714 1159.83 44.186V39.72C1158.99 40.028 1158.13 40.314 1157.28 40.6L1156.68 38.268C1157.74 38.026 1158.77 37.718 1159.83 37.366V32.944H1157.21V30.722H1159.83V26.96H1162.09V30.722H1164.14V32.944H1162.09V36.486C1162.84 36.134 1163.59 35.76 1164.34 35.364V37.696C1163.59 38.07 1162.84 38.422 1162.09 38.774V44.758C1162.09 46.276 1161.32 47.046 1159.81 47.046ZM1169.51 29.754H1166.98V32.988H1169.51V29.754ZM1166.98 35.1V38.378H1169.51V35.1H1166.98ZM1169.51 40.468H1166.98V41.546H1164.82V27.642H1176.48V41.546H1174.33V40.468H1171.66V47.266H1169.51V40.468ZM1171.66 38.378H1174.33V35.1H1171.66V38.378ZM1174.33 32.988V29.754H1171.66V32.988H1174.33ZM1197.69 35.364C1198.31 36.948 1198.88 38.642 1199.36 40.446L1197.65 41.238C1197.23 39.654 1196.79 38.246 1196.35 36.97C1196.3 40.776 1196.19 43.262 1196.06 44.45C1195.84 46.21 1194.74 47.112 1192.78 47.112C1192.43 47.112 1191.86 47.068 1191.05 46.98L1190.47 44.89C1191.2 44.956 1191.84 45 1192.37 45C1193.22 45 1193.73 44.45 1193.88 43.372C1193.99 42.382 1194.06 38.884 1194.1 32.878H1191.99V32.9C1191.9 39.5 1190.17 44.318 1186.76 47.354L1185.02 45.814C1188.12 43.13 1189.7 38.84 1189.75 32.9V32.878H1186.27V30.634H1189.75V27.114H1191.99V30.634H1196.39C1196.39 32.548 1196.37 34.264 1196.37 35.804L1197.69 35.364ZM1186.45 35.298L1188.25 35.76C1187.64 38.4 1186.76 40.402 1185.61 41.81L1184.05 40.358C1185.19 38.928 1185.99 37.234 1186.45 35.298ZM1178.81 31.888H1181.12V27.07H1183.3V31.888H1185.52V34.022H1183.3V47.288H1181.12V34.022H1178.81V31.888ZM1212.94 26.784C1214.26 28.566 1215.29 30.128 1215.99 31.47L1214.19 32.724C1213.44 31.316 1212.43 29.754 1211.2 28.038L1212.94 26.784ZM1217.95 28.016L1220.13 28.478C1219.43 33.582 1217.97 37.74 1215.82 40.93C1217.47 42.822 1219.36 44.296 1221.49 45.374L1220.13 47.376C1217.97 46.188 1216.08 44.648 1214.43 42.756C1212.67 44.736 1210.6 46.276 1208.23 47.376L1206.97 45.396C1209.33 44.318 1211.31 42.8 1212.94 40.864C1210.91 38.004 1209.31 34.484 1208.1 30.348L1210.05 29.226C1211.07 33.098 1212.47 36.354 1214.3 38.972C1216.13 36.068 1217.34 32.416 1217.95 28.016ZM1203.98 27.092C1205.35 28.17 1206.51 29.226 1207.48 30.282L1205.9 31.888C1205.06 30.854 1203.89 29.754 1202.38 28.61L1203.98 27.092ZM1200.86 33.428H1206.07V42.272L1207.81 40.6L1208.45 43.02C1207.11 44.296 1205.68 45.462 1204.16 46.496L1203.28 44.406C1203.67 44.098 1203.89 43.724 1203.89 43.24V35.628H1200.86V33.428Z" fill="white"/>
<path d="M1600 0V72" stroke="white" stroke-width="2" stroke-linejoin="round"/>
</g>
<mask id="path-9-inside-1_5554_335" fill="white">
<path d="M0 74H586V155H0V74Z"/>
</mask>
<path d="M0 74H586V155H0V74Z" fill="white"/>
<path d="M586 155V156H587V155H586ZM585 74V155H587V74H585ZM586 154H0V156H586V154Z" fill="black" mask="url(#path-9-inside-1_5554_335)"/>
<path d="M29.924 103.796H35.424V105.358H29.924V103.796ZM28.934 103.796H30.54V110.858C30.54 114.51 30.1 119.504 26.932 122.76C26.668 122.452 26.03 121.924 25.656 121.704C28.648 118.646 28.934 114.246 28.934 110.836V103.796ZM34.676 103.796H36.326V119.658C36.326 120.362 36.348 120.78 36.458 120.89C36.568 120.978 36.7 121.022 36.854 121.022C37.008 121.022 37.294 121.022 37.492 121.022C37.69 121.022 37.844 120.978 37.954 120.846C38.064 120.736 38.13 120.538 38.174 120.01C38.218 119.526 38.24 118.36 38.262 116.864C38.592 117.194 39.12 117.436 39.516 117.59C39.516 118.844 39.428 120.45 39.362 121.022C39.252 121.638 39.054 122.012 38.746 122.254C38.416 122.452 38.02 122.54 37.558 122.54C37.25 122.54 36.722 122.54 36.458 122.54C36.018 122.54 35.512 122.43 35.182 122.122C34.808 121.814 34.676 121.396 34.676 119.504V103.796ZM19.122 107.25H27.636V108.834H19.122V107.25ZM22.796 102.52H24.38V122.738H22.796V102.52ZM22.708 108.218L23.808 108.592C22.972 112.178 21.256 116.468 19.474 118.668C19.298 118.206 18.88 117.546 18.594 117.172C20.288 115.192 21.982 111.43 22.708 108.218ZM24.226 110.638C24.886 111.254 27.24 113.872 27.746 114.51L26.734 115.852C26.096 114.796 24.16 112.332 23.39 111.43L24.226 110.638ZM41.716 107.25H49.636V108.812H41.716V107.25ZM45.126 102.52H46.71V122.738H45.126V102.52ZM45.06 108.218L46.116 108.614C45.346 112.068 43.696 116.27 42.002 118.448C41.826 118.008 41.43 117.348 41.144 116.952C42.728 115.038 44.356 111.298 45.06 108.218ZM46.622 110.44C47.216 111.056 49.372 113.63 49.856 114.268L48.822 115.61C48.228 114.554 46.49 112.09 45.786 111.21L46.622 110.44ZM52.144 102.52L53.794 102.894C52.87 106.304 51.396 109.538 49.658 111.672C49.35 111.408 48.668 110.858 48.272 110.616C49.988 108.68 51.352 105.644 52.144 102.52ZM51.836 106.128H60.328V107.69H51.11L51.836 106.128ZM59.69 106.128H61.318C61.318 106.128 61.296 106.766 61.296 107.008C60.988 117.326 60.68 120.758 59.844 121.814C59.404 122.452 58.92 122.628 58.216 122.716C57.534 122.782 56.434 122.76 55.356 122.694C55.334 122.232 55.136 121.528 54.85 121.066C56.016 121.176 57.094 121.176 57.534 121.176C57.93 121.198 58.15 121.11 58.392 120.824C59.052 120.054 59.404 116.402 59.69 106.524V106.128ZM54.762 113.542L56.016 113.124C56.984 114.774 57.93 116.93 58.282 118.294L56.896 118.8C56.61 117.414 55.686 115.214 54.762 113.542ZM52.804 109.362L54.41 109.714C53.728 112.2 52.782 115.324 51.968 117.238L50.648 116.886C51.44 114.928 52.342 111.65 52.804 109.362ZM49.02 116.732C51 116.556 54.014 116.204 56.962 115.83L57.006 117.128C54.278 117.568 51.506 117.964 49.372 118.272L49.02 116.732ZM84.2112 105.666L78.4252 121H76.1152L70.3292 105.666H72.4632L77.2812 118.888L82.0992 105.666H84.2112ZM86.3184 114.928C86.3184 113.696 86.5678 112.618 87.0664 111.694C87.5651 110.755 88.2471 110.029 89.1124 109.516C89.9924 109.003 90.9678 108.746 92.0384 108.746C93.0944 108.746 94.0111 108.973 94.7884 109.428C95.5658 109.883 96.1451 110.455 96.5264 111.144V108.944H98.5504V121H96.5264V118.756C96.1304 119.46 95.5364 120.047 94.7444 120.516C93.9671 120.971 93.0578 121.198 92.0164 121.198C90.9458 121.198 89.9778 120.934 89.1124 120.406C88.2471 119.878 87.5651 119.137 87.0664 118.184C86.5678 117.231 86.3184 116.145 86.3184 114.928ZM96.5264 114.95C96.5264 114.041 96.3431 113.249 95.9764 112.574C95.6098 111.899 95.1111 111.386 94.4804 111.034C93.8644 110.667 93.1824 110.484 92.4344 110.484C91.6864 110.484 91.0044 110.66 90.3884 111.012C89.7724 111.364 89.2811 111.877 88.9144 112.552C88.5478 113.227 88.3644 114.019 88.3644 114.928C88.3644 115.852 88.5478 116.659 88.9144 117.348C89.2811 118.023 89.7724 118.543 90.3884 118.91C91.0044 119.262 91.6864 119.438 92.4344 119.438C93.1824 119.438 93.8644 119.262 94.4804 118.91C95.1111 118.543 95.6098 118.023 95.9764 117.348C96.3431 116.659 96.5264 115.859 96.5264 114.95ZM113.286 108.944V121H111.284V119.218C110.902 119.834 110.367 120.318 109.678 120.67C109.003 121.007 108.255 121.176 107.434 121.176C106.495 121.176 105.652 120.985 104.904 120.604C104.156 120.208 103.562 119.621 103.122 118.844C102.696 118.067 102.484 117.121 102.484 116.006V108.944H104.464V115.742C104.464 116.93 104.764 117.847 105.366 118.492C105.967 119.123 106.788 119.438 107.83 119.438C108.9 119.438 109.744 119.108 110.36 118.448C110.976 117.788 111.284 116.827 111.284 115.566V108.944H113.286ZM119.328 104.72V121H117.326V104.72H119.328ZM125.842 110.594V117.7C125.842 118.287 125.967 118.705 126.216 118.954C126.465 119.189 126.898 119.306 127.514 119.306H128.988V121H127.184C126.069 121 125.233 120.743 124.676 120.23C124.119 119.717 123.84 118.873 123.84 117.7V110.594H122.278V108.944H123.84V105.908H125.842V108.944H128.988V110.594H125.842ZM139.017 106.458H156.749V116.82H155.033V108.086H140.667V116.93H139.017V106.458ZM139.897 113.938H156.023V115.544H139.897V113.938ZM146.981 102.52H148.697V122.738H146.981V102.52ZM162.447 106.062H169.135V120.45H162.447V118.954H167.595V107.536H162.447V106.062ZM161.457 106.062H162.997V122.21H161.457V106.062ZM162.337 112.178H168.409V113.652H162.337V112.178ZM164.823 102.476L166.605 102.806C166.165 104.17 165.615 105.688 165.175 106.678L163.855 106.348C164.229 105.292 164.647 103.62 164.823 102.476ZM172.259 105.996H179.013V107.536H172.259V105.996ZM178.441 105.996H179.981C179.981 105.996 179.981 106.612 179.981 106.854C179.629 116.952 179.321 120.362 178.441 121.44C177.957 122.078 177.451 122.276 176.681 122.342C175.933 122.43 174.635 122.386 173.403 122.32C173.359 121.836 173.161 121.154 172.853 120.714C174.283 120.824 175.603 120.846 176.109 120.846C176.549 120.846 176.813 120.78 177.055 120.494C177.781 119.702 178.133 116.05 178.441 106.348V105.996ZM172.721 102.432L174.305 102.806C173.491 106.084 172.193 109.318 170.675 111.408C170.389 111.144 169.707 110.682 169.311 110.462C170.807 108.526 172.017 105.49 172.721 102.432ZM171.709 111.716L172.985 110.968C174.239 112.53 175.757 114.664 176.461 115.962L175.053 116.842C174.393 115.5 172.919 113.322 171.709 111.716ZM205.998 105.776V121H203.996V109.648L198.936 121H197.528L192.446 109.626V121H190.444V105.776H192.6L198.232 118.36L203.864 105.776H205.998ZM220.305 110.154C220.305 111.43 219.865 112.493 218.985 113.344C218.12 114.18 216.793 114.598 215.003 114.598H212.055V121H210.053V105.666H215.003C216.734 105.666 218.047 106.084 218.941 106.92C219.851 107.756 220.305 108.834 220.305 110.154ZM215.003 112.948C216.118 112.948 216.939 112.706 217.467 112.222C217.995 111.738 218.259 111.049 218.259 110.154C218.259 108.262 217.174 107.316 215.003 107.316H212.055V112.948H215.003ZM222.706 113.322C222.706 111.826 223.043 110.484 223.718 109.296C224.392 108.093 225.309 107.155 226.468 106.48C227.641 105.805 228.939 105.468 230.362 105.468C232.034 105.468 233.493 105.871 234.74 106.678C235.986 107.485 236.896 108.629 237.468 110.11H235.07C234.644 109.186 234.028 108.475 233.222 107.976C232.43 107.477 231.476 107.228 230.362 107.228C229.291 107.228 228.33 107.477 227.48 107.976C226.629 108.475 225.962 109.186 225.478 110.11C224.994 111.019 224.752 112.09 224.752 113.322C224.752 114.539 224.994 115.61 225.478 116.534C225.962 117.443 226.629 118.147 227.48 118.646C228.33 119.145 229.291 119.394 230.362 119.394C231.476 119.394 232.43 119.152 233.222 118.668C234.028 118.169 234.644 117.458 235.07 116.534H237.468C236.896 118.001 235.986 119.137 234.74 119.944C233.493 120.736 232.034 121.132 230.362 121.132C228.939 121.132 227.641 120.802 226.468 120.142C225.309 119.467 224.392 118.536 223.718 117.348C223.043 116.16 222.706 114.818 222.706 113.322ZM249.921 102.586L251.417 103.026C250.559 105.446 249.129 107.866 247.545 109.45C247.413 109.12 246.973 108.284 246.687 107.91C248.029 106.612 249.239 104.654 249.921 102.586ZM249.481 105.006H254.739V106.59H249.151L249.481 105.006ZM250.207 122.606L249.965 121.088L250.515 120.428L254.915 117.898C254.981 118.338 255.157 118.976 255.311 119.306C251.175 121.792 250.581 122.188 250.207 122.606ZM248.359 108.966H254.431V110.462H248.359V108.966ZM247.303 113.454H255.025V114.95H247.303V113.454ZM255.707 107.822L265.827 106.304L266.091 107.756L255.993 109.296L255.707 107.822ZM255.267 112.552L266.421 110.462L266.707 111.914L255.531 114.026L255.267 112.552ZM258.897 102.498H260.481C260.415 112.882 262.109 121.11 264.925 121.132C265.519 121.132 265.739 120.604 265.827 118.668C266.157 118.998 266.685 119.35 267.059 119.504C266.751 121.946 266.245 122.672 264.771 122.672C260.437 122.672 258.985 113.256 258.897 102.498ZM261.339 103.84L262.285 102.938C263.385 103.422 264.771 104.214 265.475 104.808L264.507 105.842C263.803 105.226 262.439 104.368 261.339 103.84ZM265.453 113.344L266.817 113.96C264.551 117.722 260.547 120.692 256.015 122.386C255.773 121.99 255.377 121.418 255.003 121.066C259.403 119.57 263.341 116.798 265.453 113.344ZM250.207 122.606C250.053 122.254 249.635 121.682 249.393 121.418C249.767 121.154 250.515 120.472 250.515 119.46V109.428H252.011V120.648C252.011 120.648 250.207 121.99 250.207 122.606ZM274.803 102.41L276.519 102.894C275.133 106.326 272.977 109.582 270.733 111.694C270.403 111.386 269.699 110.792 269.259 110.528C271.547 108.614 273.571 105.556 274.803 102.41ZM274.539 105.05H286.947V106.612H273.747L274.539 105.05ZM286.419 105.05H288.069C288.069 105.05 288.069 105.6 288.069 105.842C287.849 113.256 287.629 115.874 286.991 116.688C286.595 117.194 286.155 117.37 285.495 117.436C284.879 117.502 283.779 117.48 282.591 117.436C282.569 116.952 282.393 116.292 282.129 115.852C283.251 115.962 284.307 115.984 284.725 115.984C285.077 115.984 285.319 115.918 285.495 115.676C286.001 115.104 286.221 112.574 286.419 105.38V105.05ZM273.373 114.202H280.215V110.44H272.911V108.966H281.865V115.676H273.373V114.202ZM272.581 114.202H274.231V119.856C274.231 120.758 274.671 120.956 277.047 120.956C278.169 120.956 283.867 120.956 285.341 120.956C287.343 120.956 287.673 120.516 287.871 117.986C288.289 118.228 288.993 118.492 289.455 118.58C289.125 121.748 288.487 122.518 285.363 122.518C284.549 122.518 277.905 122.518 277.135 122.518C273.615 122.518 272.581 122.034 272.581 119.856V114.202Z" fill="black"/>
<g clip-path="url(#clip5_5554_335)">
<mask id="path-12-inside-2_5554_335" fill="white">
<path d="M586 74H1110V155H586V74Z"/>
</mask>
<path d="M586 74H1110V155H586V74Z" fill="white"/>
<path d="M619.372 113.102C619.929 113.19 620.435 113.417 620.89 113.784C621.359 114.151 621.726 114.605 621.99 115.148C622.269 115.691 622.408 116.27 622.408 116.886C622.408 117.663 622.21 118.367 621.814 118.998C621.418 119.614 620.839 120.105 620.076 120.472C619.328 120.824 618.441 121 617.414 121H611.694V105.666H617.194C618.235 105.666 619.123 105.842 619.856 106.194C620.589 106.531 621.139 106.993 621.506 107.58C621.873 108.167 622.056 108.827 622.056 109.56C622.056 110.469 621.807 111.225 621.308 111.826C620.824 112.413 620.179 112.838 619.372 113.102ZM613.696 112.288H617.062C618.001 112.288 618.727 112.068 619.24 111.628C619.753 111.188 620.01 110.579 620.01 109.802C620.01 109.025 619.753 108.416 619.24 107.976C618.727 107.536 617.986 107.316 617.018 107.316H613.696V112.288ZM617.238 119.35C618.235 119.35 619.013 119.115 619.57 118.646C620.127 118.177 620.406 117.524 620.406 116.688C620.406 115.837 620.113 115.17 619.526 114.686C618.939 114.187 618.155 113.938 617.172 113.938H613.696V119.35H617.238ZM635.284 105.666V107.294H631.104V121H629.102V107.294H624.9V105.666H635.284ZM637.661 113.322C637.661 111.826 637.998 110.484 638.673 109.296C639.347 108.093 640.264 107.155 641.423 106.48C642.596 105.805 643.894 105.468 645.317 105.468C646.989 105.468 648.448 105.871 649.695 106.678C650.941 107.485 651.851 108.629 652.423 110.11H650.025C649.599 109.186 648.983 108.475 648.177 107.976C647.385 107.477 646.431 107.228 645.317 107.228C644.246 107.228 643.285 107.477 642.435 107.976C641.584 108.475 640.917 109.186 640.433 110.11C639.949 111.019 639.707 112.09 639.707 113.322C639.707 114.539 639.949 115.61 640.433 116.534C640.917 117.443 641.584 118.147 642.435 118.646C643.285 119.145 644.246 119.394 645.317 119.394C646.431 119.394 647.385 119.152 648.177 118.668C648.983 118.169 649.599 117.458 650.025 116.534H652.423C651.851 118.001 650.941 119.137 649.695 119.944C648.448 120.736 646.989 121.132 645.317 121.132C643.894 121.132 642.596 120.802 641.423 120.142C640.264 119.467 639.347 118.536 638.673 117.348C637.998 116.16 637.661 114.818 637.661 113.322Z" fill="black"/>
<path d="M1110 74V155" stroke="black" stroke-width="2" stroke-linejoin="round"/>
<path d="M1110 74V155" stroke="black" stroke-width="2" stroke-linejoin="round"/>
</g>
<path d="M1110 155V156H1111V155H1110ZM1109 74V155H1111V74H1109ZM1110 154H586V156H1110V154Z" fill="black" mask="url(#path-12-inside-2_5554_335)"/>
<g clip-path="url(#clip6_5554_335)">
<mask id="path-17-inside-3_5554_335" fill="white">
<path d="M1110 74H1600V155H1110V74Z"/>
</mask>
<path d="M1110 74H1600V155H1110V74Z" fill="white"/>
<path d="M1143.37 113.102C1143.93 113.19 1144.44 113.417 1144.89 113.784C1145.36 114.151 1145.73 114.605 1145.99 115.148C1146.27 115.691 1146.41 116.27 1146.41 116.886C1146.41 117.663 1146.21 118.367 1145.81 118.998C1145.42 119.614 1144.84 120.105 1144.08 120.472C1143.33 120.824 1142.44 121 1141.41 121H1135.69V105.666H1141.19C1142.24 105.666 1143.12 105.842 1143.86 106.194C1144.59 106.531 1145.14 106.993 1145.51 107.58C1145.87 108.167 1146.06 108.827 1146.06 109.56C1146.06 110.469 1145.81 111.225 1145.31 111.826C1144.82 112.413 1144.18 112.838 1143.37 113.102ZM1137.7 112.288H1141.06C1142 112.288 1142.73 112.068 1143.24 111.628C1143.75 111.188 1144.01 110.579 1144.01 109.802C1144.01 109.025 1143.75 108.416 1143.24 107.976C1142.73 107.536 1141.99 107.316 1141.02 107.316H1137.7V112.288ZM1141.24 119.35C1142.24 119.35 1143.01 119.115 1143.57 118.646C1144.13 118.177 1144.41 117.524 1144.41 116.688C1144.41 115.837 1144.11 115.17 1143.53 114.686C1142.94 114.187 1142.15 113.938 1141.17 113.938H1137.7V119.35H1141.24ZM1149.1 114.928C1149.1 113.696 1149.35 112.618 1149.85 111.694C1150.34 110.755 1151.03 110.029 1151.89 109.516C1152.77 109.003 1153.75 108.746 1154.82 108.746C1155.87 108.746 1156.79 108.973 1157.57 109.428C1158.35 109.883 1158.92 110.455 1159.31 111.144V108.944H1161.33V121H1159.31V118.756C1158.91 119.46 1158.32 120.047 1157.52 120.516C1156.75 120.971 1155.84 121.198 1154.8 121.198C1153.73 121.198 1152.76 120.934 1151.89 120.406C1151.03 119.878 1150.34 119.137 1149.85 118.184C1149.35 117.231 1149.1 116.145 1149.1 114.928ZM1159.31 114.95C1159.31 114.041 1159.12 113.249 1158.76 112.574C1158.39 111.899 1157.89 111.386 1157.26 111.034C1156.64 110.667 1155.96 110.484 1155.21 110.484C1154.47 110.484 1153.78 110.66 1153.17 111.012C1152.55 111.364 1152.06 111.877 1151.69 112.552C1151.33 113.227 1151.14 114.019 1151.14 114.928C1151.14 115.852 1151.33 116.659 1151.69 117.348C1152.06 118.023 1152.55 118.543 1153.17 118.91C1153.78 119.262 1154.47 119.438 1155.21 119.438C1155.96 119.438 1156.64 119.262 1157.26 118.91C1157.89 118.543 1158.39 118.023 1158.76 117.348C1159.12 116.659 1159.31 115.859 1159.31 114.95ZM1167.38 111.188C1167.79 110.469 1168.39 109.883 1169.18 109.428C1169.97 108.973 1170.87 108.746 1171.89 108.746C1172.97 108.746 1173.95 109.003 1174.81 109.516C1175.68 110.029 1176.36 110.755 1176.86 111.694C1177.36 112.618 1177.61 113.696 1177.61 114.928C1177.61 116.145 1177.36 117.231 1176.86 118.184C1176.36 119.137 1175.67 119.878 1174.79 120.406C1173.92 120.934 1172.96 121.198 1171.89 121.198C1170.84 121.198 1169.93 120.971 1169.14 120.516C1168.36 120.061 1167.77 119.482 1167.38 118.778V121H1165.37V104.72H1167.38V111.188ZM1175.56 114.928C1175.56 114.019 1175.38 113.227 1175.01 112.552C1174.64 111.877 1174.14 111.364 1173.51 111.012C1172.9 110.66 1172.22 110.484 1171.47 110.484C1170.73 110.484 1170.05 110.667 1169.42 111.034C1168.81 111.386 1168.31 111.907 1167.93 112.596C1167.56 113.271 1167.38 114.055 1167.38 114.95C1167.38 115.859 1167.56 116.659 1167.93 117.348C1168.31 118.023 1168.81 118.543 1169.42 118.91C1170.05 119.262 1170.73 119.438 1171.47 119.438C1172.22 119.438 1172.9 119.262 1173.51 118.91C1174.14 118.543 1174.64 118.023 1175.01 117.348C1175.38 116.659 1175.56 115.852 1175.56 114.928ZM1191.28 108.944L1184.02 126.676H1181.96L1184.33 120.868L1179.47 108.944H1181.69L1185.48 118.712L1189.22 108.944H1191.28ZM1195.96 104.72V121H1193.96V104.72H1195.96ZM1205.29 121.198C1204.16 121.198 1203.13 120.941 1202.21 120.428C1201.3 119.915 1200.58 119.189 1200.05 118.25C1199.54 117.297 1199.28 116.197 1199.28 114.95C1199.28 113.718 1199.55 112.633 1200.08 111.694C1200.62 110.741 1201.35 110.015 1202.28 109.516C1203.2 109.003 1204.23 108.746 1205.38 108.746C1206.52 108.746 1207.56 109.003 1208.48 109.516C1209.4 110.015 1210.13 110.733 1210.66 111.672C1211.2 112.611 1211.47 113.703 1211.47 114.95C1211.47 116.197 1211.19 117.297 1210.64 118.25C1210.09 119.189 1209.35 119.915 1208.41 120.428C1207.47 120.941 1206.43 121.198 1205.29 121.198ZM1205.29 119.438C1206.01 119.438 1206.68 119.269 1207.31 118.932C1207.94 118.595 1208.45 118.089 1208.83 117.414C1209.23 116.739 1209.43 115.918 1209.43 114.95C1209.43 113.982 1209.23 113.161 1208.85 112.486C1208.47 111.811 1207.97 111.313 1207.36 110.99C1206.74 110.653 1206.07 110.484 1205.36 110.484C1204.62 110.484 1203.95 110.653 1203.33 110.99C1202.73 111.313 1202.25 111.811 1201.88 112.486C1201.51 113.161 1201.33 113.982 1201.33 114.95C1201.33 115.933 1201.51 116.761 1201.86 117.436C1202.22 118.111 1202.71 118.617 1203.31 118.954C1203.91 119.277 1204.57 119.438 1205.29 119.438ZM1220.64 108.724C1222.1 108.724 1223.29 109.171 1224.2 110.066C1225.11 110.946 1225.57 112.222 1225.57 113.894V121H1223.59V114.18C1223.59 112.977 1223.28 112.061 1222.68 111.43C1222.08 110.785 1221.26 110.462 1220.22 110.462C1219.16 110.462 1218.32 110.792 1217.69 111.452C1217.07 112.112 1216.77 113.073 1216.77 114.334V121H1214.76V108.944H1216.77V110.66C1217.16 110.044 1217.7 109.567 1218.37 109.23C1219.06 108.893 1219.82 108.724 1220.64 108.724Z" fill="black"/>
<path d="M1600 74V155" stroke="black" stroke-width="2" stroke-linejoin="round"/>
<path d="M1600 74V155" stroke="black" stroke-width="2" stroke-linejoin="round"/>
</g>
<path d="M1600 155V156H1601V155H1600ZM1599 74V155H1601V74H1599ZM1600 154H1110V156H1600V154Z" fill="black" mask="url(#path-17-inside-3_5554_335)"/>
</g>
</g>
<rect x="0.5" y="0.5" width="1599" height="154" stroke="black"/>
<defs>
<clipPath id="clip0_5554_335">
<rect width="1600" height="155" fill="white"/>
</clipPath>
<clipPath id="clip1_5554_335">
<rect width="1600" height="155" fill="white"/>
</clipPath>
<clipPath id="clip2_5554_335">
<rect width="586" height="74" fill="white"/>
</clipPath>
<clipPath id="clip3_5554_335">
<rect width="524" height="74" fill="white" transform="translate(586)"/>
</clipPath>
<clipPath id="clip4_5554_335">
<rect width="490" height="74" fill="white" transform="translate(1110)"/>
</clipPath>
<clipPath id="clip5_5554_335">
<path d="M586 74H1110V155H586V74Z" fill="white"/>
</clipPath>
<clipPath id="clip6_5554_335">
<path d="M1110 74H1600V155H1110V74Z" fill="white"/>
</clipPath>
</defs>
</svg>
